<?xml version="1.0" encoding="utf-8"?>
<!-- Generator: Adobe Illustrator 20.0.0, SVG Export Plug-In . SVG Version: 6.00 Build 0)  -->
<svg version="1.1" xmlns="http://www.w3.org/2000/svg" xmlns:xlink="http://www.w3.org/1999/xlink" x="0px"
	 y="0px" viewBox="0 0 480 640" enable-background="new 0 0 480 640" xml:space="preserve">
<g id="wapuu">
	<path d="M217.5720062,412.8299866c-14.7079926,0-28.4319916-7.375-35.5079956-14.6839905
		c-4.2070007-4.3450012-6.3600006-8.8129883-6.227005-12.9230042c0.2449951-7.5910034,5.2640076-12.6910095,12.4900055-12.6910095
		c6.878006,0,13.8549957,4.5490112,18.2089996,11.8710022c3.2899933,5.5339966,9.4129944,6.6960144,13.970993,6.6960144h0.0039978
		c10.8130035-0.0020142,25.4990082-6.5660095,35.6649933-17.9750061c-3.1759949,0.4899902-5.9519958,0.6440125-8.1860046,0.6440125
		c-0.2960052,0-0.5910034-0.0029907-0.8849945-0.0079956c-3.2559967,3.9599915-7.8200073,6.1069946-13.1040039,6.1069946
		c-3.5050049,0-9.1210022-1.1369934-11.2140045-7.9630127c-9.6560059-0.9790039-18.7720032-4.3460083-26.6560059-9.7850037
		c-0.2460022,0.8169861-0.6009979,1.6149902-1.0919952,2.3670044c-1.5469971,2.3659973-4.1009979,3.6690063-7.1920013,3.6690063
		c-1.0039978,0-2.0910034-0.1390076-3.2290039-0.4110107c-11.5540009-2.7730103-26.0440063-18.8980103-28.022995-28.4639893
		c-0.9720001-4.6960144-0.0339966-9.0920105,2.6410065-12.3779907c2.4219971-2.9750061,6.0690002-4.6809998,10.003006-4.6809998
		c0.8170013,0,1.6360016,0.071991,2.4490051,0.2139893c-0.345993-2.5580139-0.5209961-5.1400146-0.5209961-7.7349854
		c0-8.8360901,1.3960724-17.9403687,5.2496643-25.7833557c-0.6666718-0.833313-1.5-4.583313,0.4166565-8.5
		c1.9191132-3.9216614,4.8333435-5.9166565,6.6666718-6.75c-4.3333282-1.5-6.0589752-3.9396362-6.3029785-6.1646423
		c-0.3390045-3.0859985,1.6909943-5.8299866,4.8269958-6.5270081c1.8690033-0.4159851,8.7850037-4.302002,12.4620056-7.7980042
		c10.8769989-16.8600006,30.9640045-26.6690063,53.6499939-25.973999
		c10.4700012,0.3159943,19.9309998,3.5019989,28.1440125,9.4750061c5.1279907,0.2940063,12.3339844,0.3309937,17.4790039,0.3309937
		c3.2009888,0,6.4079895-0.0169983,9.4119873-0.0310059c2.6610107-0.0130005,5.1640015-0.026001,7.3659973-0.026001
		c6.8190002,0,8.5150146,0.125,9.5549927,0.3849945c2.4790039,0.6190033,4.1220093,2.8159943,4.1870117,5.5970001
		c0.1220093,5.2669983-5.7210083,14.8659973-18.651001,18.7449951c-2.1010132,0.6300049-4.3210144,0.9490051-6.6000061,0.9490051
		c-0.9769897,0-1.9679871-0.0589905-2.9719849-0.1740112c0.6629944,1.5469971,1.2810059,3.1289978,1.8540039,4.7460022
		c8.243988,23.2969971,10.2160034,75.5480042-14.6619873,94.5539856
		c-6.7929993,22.9519958-30.1459961,43.8200073-56.2099915,49.9930115
		C224.0070038,412.4660034,220.8220062,412.8299866,217.5720062,412.8299866 M188.3269958,381.5320129
		c-1.4450073,0-3.3800049,0.4119873-3.4940033,3.9809875c-0.0390015,1.1950073,0.9120026,3.4960022,3.6970062,6.3729858
		c5.5690002,5.7520142,17.0330048,11.9429932,29.0419922,11.9429932c2.552002,0,5.0390015-0.2820129,7.3919983-0.8399963
		c18.8580017-4.4670105,36.5780029-18.0820007,45.4070129-33.8590088l-0.4060059,0.2250061
		c-10.1719971,17.605011-31.1900024,30.7420044-49.4519958,30.743988h-0.0059967
		c-9.7440033,0-17.4519958-3.9410095-21.7070007-11.0970154
		C195.7310028,383.8420105,191.3289948,381.5320129,188.3269958,381.5320129 M226.5339966,362.9719849
		c0.5809937,0,1.1660004,0.1119995,1.7230072,0.3429871c1.5619965,0.6470032,2.6309967,2.1180115,2.7619934,3.8039856
		c0.2949982,3.75,1.1380005,3.75,2.9819946,3.75c3.1179962,0,5.345993-1.2820129,7.0079956-4.0379944
		c0.8769989-1.4530029,2.5-2.2919922,4.1900024-2.1629944c0.897995,0.0669861,1.8370056,0.1019897,2.7910004,0.1019897
		c4.3690033,0,11.2359924-0.7120056,19.1390076-4.1040039c2.2009888-0.9440002,4.7609863,0.0039978,5.8160095,2.1570129
		c0.0840149,0.17099,0.1560059,0.3469849,0.2170105,0.5230103c0.7309875-1.8039856,1.3420105-3.6220093,1.8190002-5.447998
		c0.2730103-1.0440063,0.9119873-1.9549866,1.802002-2.5669861c21.3309937-14.6879883,20.3089905-63.4630127,12.6430054-85.1270142
		c-1.6229858-4.5859985-3.6560059-8.8510132-6.0450134-12.677002c-1.0580139-1.6940002-0.8720093-3.8840027,0.4570007-5.3760071
		c1.32901-1.4900055,3.4790039-1.9290009,5.2869873-1.0740051c3.5750122,1.6940002,6.9070129,2.5529938,9.9030151,2.5529938
		c1.4020081,0,2.7520142-0.1909943,4.0140076-0.5700073c5.6549988-1.6950073,9.0339966-4.7449951,10.7680054-7.0910034
		c-0.8959961-0.0090027-1.9760132-0.0149994-3.2709961-0.0149994c-2.1879883,0-4.677002,0.0140076-7.3210144,0.0249939
		c-3.0190125,0.0160065-6.2399902,0.0319977-9.4570007,0.0319977c-5.7359924,0-13.9909973-0.0460052-19.427002-0.4380035
		c-0.8789978-0.0630035-1.7200012-0.3840027-2.4190063-0.9210052c-6.9379883-5.3350067-15.0289917-8.1779938-24.048996-8.4499969
		c-0.6679993-0.0209961-1.3350067-0.0310059-1.9949951-0.0310059c-18.8009949,0-35.272995,8.3240051-44.0630035,22.2659912
		c-0.1779938,0.2839966-0.3869934,0.54599-0.625,0.7829895c-1.1340027,1.1350098-2.5809937,2.3439941-4.1699982,3.5230103
		c1.2409973,0.6879883,2.1230011,1.9419861,2.2940063,3.4240112c0.246994,2.1369934,1.6139984,2.9570007,1.7689972,3.0450134
		c2.0180054,1.1279907,2.8540039,3.6010132,1.9320068,5.7210083c-0.9069977,2.0870056-3.223999,3.1629944-5.3950043,2.5249939
		c-0.003006,0-0.0050049,0.0020142-0.0070038,0.0039978c-1.5570068,1.302002-3.7709961,1.3900146-5.4169922,0.2690125
		c-0.923996,0.2460022-2.7420044,1.2609863-3.9369965,2.7460022c-0.6860046,0.8529968-0.8699951,1.5020142-0.8269958,1.7309875
		c0.0509949,0.2749939,0.128006,0.4370117,0.1809998,0.493988c1.3869934,1.5180054,1.5720062,3.7810059,0.4470062,5.5020142
		c-5.1589966,7.8890076-7.8849945,17.0509949-7.8849945,26.4979858c0,5.2250061,0.8390045,10.3900146,2.4940033,15.3529968
		c0.6860046,2.0589905-0.1929932,4.3129883-2.0919952,5.3619995c-1.897995,1.0490112-4.2749939,0.5950012-5.6529999-1.0820007
		c-0.7649994-0.9299927-1.1820068-1.2879944-1.326004-1.3980103c-1.4550018-1.1199951-2.9600067-1.7130127-4.3509979-1.7130127
		c-1.2339935,0-2.3079987,0.4840088-3.022995,1.3630066c-0.9340057,1.1459961-1.220993,2.8770142-0.8090057,4.8710022
		c1.3269958,6.4100037,13.6560059,19.6990051,21.3110046,21.5350037c0.3690033,0.0899963,0.6529999,0.1329956,0.8619995,0.151001
		c0.0919952-0.9500122-0.1660004-2.7460022-0.701004-3.9700012c-0.3040009-0.6940002-0.7129974-1.572998-1.197998-2.571991
		c-0.9720001-2.0079956-0.3280029-4.4240112,1.5149994-5.6799927c1.8439941-1.2579956,4.3280029-0.9750061,5.8410034,0.6650085
		c8.5180054,9.2229919,20.0019989,14.7049866,32.4369965,15.5109863
		C225.8200073,363.0150146,226.177002,362.9719849,226.5339966,362.9719849"/>
	<path d="M226.3220062,369.1499939c-0.0209961,0-0.0440063,0-0.0650024-0.0010071
		c-29.2089996-1.2720032-52.0890045-25.1879883-52.0890045-54.4459839c0-17.303009,7.9440002-33.1950073,21.7949982-43.6019897
		c0.6640015-0.4960022,1.602005-0.3649902,2.1000061,0.2990112c0.4980011,0.6619873,0.3639984,1.6019897-0.2980042,2.1000061
		c-13.0890045,9.8359985-20.5970001,24.8529968-20.5970001,41.2030029c0,27.6470032,21.6199951,50.2460022,49.2180023,51.447998
		c0.8280029,0.0360107,1.4700012,0.7359924,1.4349976,1.5639954
		C227.7850037,368.5209961,227.1210022,369.1499939,226.3220062,369.1499939"/>
	<path fill="#EF9B2B" d="M226.3209991,367.6499939c-28.1819916-1.2279968-50.654007-24.4630127-50.654007-52.946991
		c0-17.3389893,8.326004-32.7319946,21.1959991-42.4020081c9.1349945,4.7399902,16.3130035-3.9500122,21.9810028-8.1059875
		c16.2480011,4.1560059,42.3980103,1.7449951,60.1170044,33.7449951c2.6889954,4.8569946,2.7049866,10.9039917,2.7049866,16.7640076
		c0,5.2600098-0.7659912,10.3439941-2.1940002,15.1419983c-13.019989-4.8169861-28.5110016,1.2290039-33.0460052,12.9410095
		C237.7369995,358.2770081,226.3209991,367.6499939,226.3209991,367.6499939"/>
	<path fill="#683E15" d="M250.75,305.625c9.9331055,5.7507324,23.1830444,2.2247925,27.399353-9.0818481
		c-17.2276611-29.6962891-41.9420776-28.3549194-58.005188-32.0367432
		c-0.7185669,0.0964966-1.4257202,0.2010498-2.1210938,0.3137207c-5.5360107,4.3305054-12.4599609,11.9951782-21.1600952,7.480835
		c-11.1172485,8.3530884-18.8306274,20.980896-20.7289429,35.4401855c0.4708862,0.6812744,2.3469849,3.0507202,7.4909668,6.1698608
		c6.125,3.7139893,26.3634033,6.6217041,35.1192017-4.0821533S238.875,298.75,250.75,305.625z"/>
	
		<rect x="204.3900452" y="281.9069214" transform="matrix(0.7071568 -0.7070568 0.7070568 0.7071568 -140.6087646 229.8196564)" fill="#18890B" width="5.5003362" height="5.4993291"/>
	
		<rect x="190.394989" y="281.9069214" transform="matrix(0.7071568 -0.7070568 0.7070568 0.7071568 -144.7071228 219.9243469)" fill="#18890B" width="5.5003362" height="5.4993291"/>
	
		<rect x="218.3852997" y="281.9066162" transform="matrix(0.7070068 -0.7072068 0.7072068 0.7070068 -136.5199432 239.7908173)" fill="#18890B" width="5.4999475" height="5.4999475"/>
	
		<rect x="211.387207" y="272.2847595" transform="matrix(0.7355835 -0.6774341 0.6774341 0.7355835 -129.6967163 217.7880859)" fill="#BF1919" width="5.50107" height="5.50107"/>
	
		<rect x="225.3822632" y="270.0347595" transform="matrix(0.7355835 -0.6774341 0.6774341 0.7355835 -124.4719696 226.6738892)" fill="#BF1919" width="5.50107" height="5.50107"/>
	
		<rect x="197.3921509" y="272.2847595" transform="matrix(0.7355835 -0.6774341 0.6774341 0.7355835 -133.3972473 208.3073578)" fill="#BF1919" width="5.50107" height="5.50107"/>
	<path fill="#FF8800" d="M194.3350067,268.368988c-13,3.6659851-14.3339996-2.3330078-11.3339996-3s11-5.3330078,15-9.3330078
		L194.3350067,268.368988z"/>
	<path fill="#FF8800" d="M279.3349915,359.0360107c-5.6669922,21.6669922-28,42.3330078-53.3339996,48.3330078
		c-21.7929993,5.1610107-46-11.6660156-45.6660004-22c0.375-11.6369934,15-11,22.3330078,1.3340149
		c11.2339935,18.894989,49.6669922,5.6659851,64-20.6669922L279.3349915,359.0360107z"/>
	<path fill="#57A1BE" d="M196.8630066,272.3009949c-0.1470032,0.1090088-0.2859955,0.230011-0.4320068,0.3439941
		c0.2169952-0.0809937,0.4349976-0.1600037,0.654007-0.2380066
		C197.0099945,272.368988,196.9380035,272.3399963,196.8630066,272.3009949"/>
	<path fill="#FFD200" d="M244.3350067,369.1180115c8.1320038,0.7229919,21.4919891-0.7820129,35.0000153-10.0820007
		c24.3829956-16.7890015,22-68.6669922,14.3330078-90.3330078s-23.6669922-36.3339996-45.6669922-37s-40.3330078,9-50,24.3330078
		c-6.5200043,10.3410034-1.6660004,15.9989929,1.3339996,17.3330078s15.6660004-3.6659851,19.3329926-10.3330078
		c8.6669922,5.3330078,18.3330078,2.9989929,26.6669922,0.3330078l16,4.6669922c-12.6669922-5-28.6679993-2.0010071-37,5.3330078
		c-8.3339996,7.3340149-2.6660004,12.6679993,3.6660004,13.3339844c6.3339996,0.6659851,18.6660004-5,28.3339996-3
		c9.6660156,2,12.631012,5.5419922,22.9649963,14.875c0,0,5.6679993,22.67099,0,31.3609924
		c-9.8240051-5.6679993-27.5830078,0.756012-32.8730011,12.8470154L244.3350067,369.1180115z"/>
	<path d="M279.473999,331.3450012c-0.1430054,0-0.2860107-0.019989-0.4289856-0.0620117
		c-0.7940063-0.2359924-1.2460022-1.0710144-1.0100098-1.8649902c1.4140015-4.7510071,2.1319885-9.7009888,2.1319885-14.7160034
		c0-5.5710144-0.8840027-11.0509949-2.6279907-16.2869873c-0.2619934-0.7860107,0.1629944-1.6350098,0.9490051-1.8980103
		c0.7850037-0.2600098,1.6350098,0.1640015,1.8959961,0.9500122c1.8469849,5.5419922,2.7820129,11.3410034,2.7820129,17.2350159
		c0,5.3049927-0.7590027,10.5429993-2.2569885,15.5710144C280.7170105,330.9240112,280.118988,331.3450012,279.473999,331.3450012"
		/>
	<path d="M247,343.5360107c-0.2220001,0-0.4470062-0.0490112-0.6600037-0.1530151
		c-0.7429962-0.3649902-1.0509949-1.2640076-0.6860046-2.0079956c4.029007-8.2139893,11.6170044-13.4580078,20.8160095-14.3900146
		c7.5870056-0.7709961,15.151001,1.6159973,18.3829956,5.8009949c0.5079956,0.6549988,0.3869934,1.5979919-0.2690125,2.1040039
		c-0.6539917,0.5069885-1.598999,0.3869934-2.1040039-0.269989c-2.5920105-3.3529968-9.1900024-5.3070068-15.7089844-4.6499939
		c-4.7869873,0.4849854-13.5460052,2.7829895-18.4250031,12.7279968
		C248.0870056,343.2279968,247.5540009,343.5360107,247,343.5360107"/>
	<path d="M247.9380035,370.7709961c-1.496994,0-2.7559967-0.0710144-3.7350006-0.1579895
		c-0.8249969-0.071991-1.4349976-0.802002-1.3609924-1.6270142c0.072998-0.8259888,0.8179932-1.4299927,1.6269989-1.3599854
		c5.2590027,0.4630127,19.1009979,0.4450073,34.0170135-9.8240051
		c23.4760132-16.1640015,21.4100037-67.0059814,13.769989-88.5979919c-7.8789978-22.2660065-24.0249939-35.3869934-44.2980042-36
		c-20.7630005-0.6289978-38.9589996,8.2070007-48.6869965,23.6329956
		c-2.6589966,4.2189941-3.5780029,8.0539856-2.6549988,11.0899963c0.6719971,2.2120056,2.2140045,3.5759888,3.3300018,4.071991
		c1.8890076,0.8420105,13.9149933-3.3320007,17.4089966-9.6860046c0.197998-0.3590088,0.5339966-0.6220093,0.9329987-0.7269897
		c0.3970032-0.1040039,0.8190002-0.0409851,1.1679993,0.1730042c8.2050018,5.0490112,17.4259949,2.7409973,25.423996,0.1820068
		c0.7920074-0.2520142,1.6329956,0.1830139,1.8860016,0.9719849c0.2519989,0.7890015-0.1829987,1.6329956-0.9730072,1.8850098
		c-8.8200073,2.8240051-18.1239929,4.7659912-26.6260071,0.25c-4.7330017,6.571991-16.7440033,11.3340149-20.4389954,9.6929932
		c-1.7749939-0.7890015-4.0169983-2.7659912-4.9819946-5.9429932c-0.8249969-2.7149963-0.9759979-7.2720032,2.9889984-13.5610046
		c10.298996-16.3359985,29.4790039-25.7030029,51.3130035-25.0330048
		c21.57901,0.6529999,38.7220154,14.5039978,47.0360107,37.9999847c3.5939941,10.1549988,6.5130005,28.8179932,4.9330139,47.6210022
		c-1.2529907,14.9100037-5.7099915,34.7260132-19.82901,44.446991
		C267.2250061,369.1950073,254.9689941,370.7709961,247.9380035,370.7709961"/>
	<path fill="#FF8800" d="M274.0010071,241.0359955c-5.9890137-0.4850006-1.3330078,4.0010071,0.6669922,5.6670074
		s16.3330078,14.6660156,29.6669922,10.6660156c13.3330078-4,17.3340149-14.9989929,14.6659851-15.6660004
		C316.3349915,241.0359955,286.3349915,242.0359955,274.0010071,241.0359955"/>
	<path d="M299.026001,259.631012h-0.0020142c-5.2489929-0.0020142-13.8410034-1.9920044-24.9570007-11.4700012l-0.3590088-0.3059998
		c-4.9150085-4.0939941-4.2369995-5.9649963-4.0150146-6.5800018c0.4259949-1.1779938,1.5960083-1.776001,3.4750061-1.776001
		c0.2879944,0,0.605011,0.0149994,0.95401,0.0420074c5.1960144,0.4210052,13.6679993,0.470993,19.5880127,0.470993
		c3.223999,0,6.4500122-0.0169983,9.473999-0.0310059c2.6659851-0.0140076,5.1740112-0.026001,7.3779907-0.026001
		c6.3519897,0,8.0780029,0.1119995,8.8039856,0.2940063c1.1650085,0.2910004,1.8819885,1.3220062,1.9150085,2.7559967
		c0.0840149,3.6390076-4.8120117,12.2910004-16.5149841,15.803009
		C302.9429932,259.3519897,301.0130005,259.631012,299.026001,259.631012 M272.7460022,242.5160065
		c0.3909912,0.6399994,1.3500061,1.7579956,2.8819885,3.0350037l0.3859863,0.3269958
		c10.4219971,8.8860016,18.2659912,10.7509918,23.0109863,10.753006h0.0020142c1.6940002,0,3.3349915-0.2359924,4.8779907-0.6970062
		c7.3200073-2.1970062,11.8169861-6.7339935,13.5839844-10.2480011c0.6589966-1.3119965,0.7929993-2.173996,0.7929993-2.5800018
		c-0.9960022-0.1000061-3.5859985-0.151001-7.7200012-0.151001c-2.2000122,0-4.7019958,0.0130005-7.3630066,0.026001
		c-3.0270081,0.0149994-6.2609863,0.0310059-9.4880066,0.0310059c-5.9719849,0-14.526001-0.0509949-19.8299866-0.4799957
		C273.4179993,242.4940033,273.0100098,242.4940033,272.7460022,242.5160065"/>
	<path d="M187.0950012,271.0539856c-3.3930054,0-5.0890045-1.026001-5.9029999-1.8510132
		c-0.8899994-0.8999939-1.2319946-2.0859985-0.9129944-3.1679993c0.3150024-1.0700073,1.2109985-1.8659973,2.3970032-2.131012
		c2.5839996-0.5740051,10.3209991-4.9849854,14.2649994-8.9290009c0.5859985-0.5859985,1.5350037-0.5859985,2.1210022,0
		c0.5859985,0.5850067,0.5859985,1.5359955,0,2.1209869c-4.1320038,4.1319885-12.3670044,8.9880066-15.7359924,9.7369995
		c-0.1390076,0.0310059-0.1829987,0.0780029-0.1840057,0.0780029c0.0149994-0.0039978,0.1029968,0.1619873,0.4349976,0.3880005
		c0.625,0.42099,3.2109985,1.6400146,10.3509979-0.3739929c0.7960052-0.2229919,1.6260071,0.2380066,1.8509979,1.0360107
		s-0.2400055,1.6260071-1.0370026,1.8510132C191.5350037,270.7179871,189.0370026,271.0539856,187.0950012,271.0539856"/>
	<path d="M216.0010071,254.3690033c-2.3849945,1.7889862-1.6660004,4.0009918,1,4.3339996
		c2.6670074,0.3330078,2.875,0.5100098,5.3339996-1.3340149c2.6660004-2,3-5.3339996,0-5
		S217.3350067,253.3690033,216.0010071,254.3690033"/>
	<path d="M209.0010071,255.7030029c0,1.6570129-1.3430023,3-3,3c-1.6560059,0-3-1.3429871-3-3s1.3439941-3,3-3
		C207.6580048,252.7030029,209.0010071,254.0460052,209.0010071,255.7030029"/>
	<path d="M243.6679993,247.3699951c0,1.6569977-1.3430023,3-3,3s-3-1.3430023-3-3s1.3430023-3,3-3
		S243.6679993,245.7129974,243.6679993,247.3699951"/>
	<path d="M217.6759949,409.8150024c-11.6660004,0-23.1069946-4.9949951-30.3630066-10.9259949
		c-5.5200043-4.5130005-8.6100006-9.4580078-8.477005-13.5690002c0.1589966-4.9370117,2.6450043-8.3859863,6.8200073-9.4609985
		c5.302002-1.368988,13.2940063,1.6560059,18.3009949,10.0769958c4.1230011,6.9330139,11.6150055,8.2770081,17.1410065,8.1570129
		c16.4700012-0.3120117,35.493988-12.6839905,44.2529907-28.7739868c0.3959961-0.7279968,1.3080139-0.9970093,2.0339966-0.6010132
		c0.7290039,0.3959961,0.9970093,1.3070068,0.6010132,2.0339966c-9.2330017,16.9649963-29.3670044,30.0090027-46.8300018,30.3399963
		c-9.0059967,0.1480103-15.9850006-3.2479858-19.776001-9.6229858c-4.253006-7.1520081-10.7489929-9.7940063-14.973999-8.7049866
		c-2.8329926,0.7290039-4.4559937,3.0920105-4.5709991,6.6520081c-0.1000061,3.1239929,2.6569977,7.2919922,7.3769989,11.1499939
		c8.4860077,6.9379883,23.0480042,12.5159912,36.4440002,9.3420105
		c24.628006-5.8320007,46.5930023-25.7049866,52.2289886-47.2529907c0.2099915-0.802002,1.0239868-1.2810059,1.8309937-1.0710144
		c0.8009949,0.2090149,1.2810059,1.0289917,1.0710144,1.8309937c-5.8999939,22.5580139-28.7949982,43.3389893-54.4389954,49.4129944
		C223.4830017,409.5069885,220.5709991,409.8150024,217.6759949,409.8150024"/>
	<path d="M282.6679993,302.5360107c-0.3590088,0-0.7189941-0.1270142-1.006012-0.3880005l-1.1860046-1.0710144
		c-9.7000122-8.7709961-15.5549927-14.0650024-24.4450073-15.9049988
		c-5.3500061-1.105011-11.7330017,0.3110046-17.3650055,1.5589905c-4.2689972,0.9490051-7.9539948,1.7690125-10.8220062,1.4649963
		c-4.4049988-0.4649963-7.8970032-2.7829895-8.8919983-5.9079895c-0.701004-2.2019958-0.5099945-5.730011,4.3919983-10.0440063
		c9.1549988-8.0580139,26.0849915-10.5190125,38.5419922-5.6029968c0.7709961,0.3049927,1.1480103,1.1759949,0.8450012,1.9460144
		c-0.3049927,0.7709961-1.177002,1.1499939-1.9460144,0.8450012c-11.5-4.5390015-27.0740051-2.3150024-35.4580078,5.0629883
		c-2.875,2.5299988-4.1239929,4.973999-3.5149994,6.881012c0.6230011,1.9599915,3.173996,3.5020142,6.3470001,3.8349915
		c2.3849945,0.2479858,6.0140076-0.5549927,9.8580017-1.4079895c5.9259949-1.3150024,12.6439972-2.8080139,18.6220093-1.5679932
		c9.6900024,2.0050049,16.118988,7.8179932,25.8500061,16.6170044l1.1860046,1.071991
		c0.6140137,0.5549927,0.6619873,1.5039978,0.1069946,2.1170044
		C283.4849854,302.368988,283.0769958,302.5360107,282.6679993,302.5360107"/>
	<path fill="#FFD200" d="M189.1863098,275.3641357c-3.4172211-1.0992432-11.3392029,5.1307373-9.9726715,10.3817749
		c1.3665466,5.2510071,7.3521729,4.835968,11.0658722,0.5688171
		C193.9931946,282.0476074,192.4989624,276.4295349,189.1863098,275.3641357"/>
	<path d="M184.4322662,291.081665L184.4322662,291.081665c-3.2591705,0.2260132-5.8156586-1.6726685-6.670929-4.9573669
		c-0.5563507-2.1396484,0.0479736-4.5843201,1.7036743-6.8863831c2.1484528-2.987793,5.708252-5.2966003,8.4646454-5.4877319
		c0.6204987-0.0430298,1.1973267,0.0212097,1.7150269,0.1867676c1.8844299,0.6060791,3.3787079,2.2927551,3.9978027,4.5132446
		c0.831192,2.9806519-0.0029907,6.2882996-2.232132,8.8496399
		C189.4690247,289.5305176,186.9262695,290.9087219,184.4322662,291.081665 M188.1371918,276.7430115
		c-1.6111298,0.1117249-4.4534149,1.7673035-6.2372284,4.2456665c-0.6508789,0.906189-1.6775818,2.680481-1.2349548,4.3799133
		c0.627182,2.4093628,2.2817841,2.8088684,3.5597076,2.7202454c1.6809692-0.1165771,3.5200806-1.1472778,4.9229889-2.7581787
		c1.5643921-1.7975464,2.1638031-4.0674438,1.6056061-6.074646c-0.3470917-1.2469788-1.105545-2.1667175-2.0262909-2.4637146
		C188.5762939,276.7436523,188.3716278,276.7267456,188.1371918,276.7430115"/>
	
		<rect x="176.9365845" y="240.746109" transform="matrix(0.8385007 -0.5449005 0.5449005 0.8385007 -118.0187988 141.0463104)" display="none" fill="#C9A063" width="3.9999967" height="57.7509575"/>
	
		<rect x="176.9365845" y="240.746109" transform="matrix(0.8385007 -0.5449005 0.5449005 0.8385007 -118.0187988 141.0463104)" display="none" fill="none" stroke="#000000" stroke-miterlimit="10" width="3.9999967" height="57.7509575"/>
	<g>
		<path fill="#C9A063" stroke="#000000" stroke-width="2" d="M180.6394196,256.9773254
			c0.0012207,0.0018921,0.0040894,0.005249,0.0040894,0.005249l15.3113251,23.8084412c0,0,0.0043793,0.0075989,0.0068512,0.0114441
			c0.3566437,0.5540771,1.6848907,0.3344421,2.9667206-0.4906616c1.2817688-0.8250732,2.0317078-1.9431152,1.6750641-2.4971924
			c-0.0024872-0.0038757-0.0072632-0.0057373-0.0098724-0.0095215l-15.3074036-23.8109589
			c0,0-0.002243-0.0037537-0.0034637-0.0056458c-0.3566437-0.5540619-1.6852112-0.334137-2.9674072,0.4912109
			C181.0331116,255.3050232,180.2827759,256.4232483,180.6394196,256.9773254z"/>
		<path fill="#C9A063" stroke="#000000" stroke-width="2" stroke-linecap="round" stroke-linejoin="round" d="
			M183.321106,250.9416809c0,0-6.346344-8.9395294-8.6509094-11.5999908l-2.9683075,1.9106598
			c1.4674072,3.1993408,6.9765167,12.6777802,6.9765167,12.6777802s1.1829987,0.3591766,2.2091064,1.9532928
			c0.2726288,0.3693848,1.1980743,0.2113647,2.0953217-0.3661804c0.8972015-0.5775146,1.4242401-1.3544464,1.2008972-1.7555695
			C183.1707153,252.1878815,183.321106,250.9416809,183.321106,250.9416809z"/>
		<polygon fill="#BA8C46" points="172.421463,235.7520752 173.8249664,236.9207458 169.8483429,239.4804688 
			169.3448181,237.7324677 		"/>
		<path fill="#C9A063" d="M175.6728668,239.0622253c-0.0025024-0.0039062-0.0072632-0.0057373-0.0098877-0.0095215
			l-1.666687-2.5979004c0,0-1.2440186,0.0907593-1.890686-0.9138794c-0.6466675-1.0045776,0.0048828-2.0158691,0.0048828-2.0158691
			l-4.3114624-6.6973877c-0.0003662-0.0006104-0.0003662-0.0014038-0.0007324-0.0020142
			c-0.3566284-0.5540771-1.6851807-0.3341064-2.9674072,0.4912109c-1.2821655,0.8253174-2.0324707,1.9436035-1.6758423,2.4976196
			c0.0004272,0.0006714,4.3127441,6.6990356,4.3127441,6.6990356s1.1903076-0.1743164,1.8369751,0.8303223
			c0.6466675,1.0045776,0.0488281,2.0993652,0.0488281,2.0993652l1.6706543,2.5953979c0,0,0.0043335,0.0075684,0.0068359,0.0114746
			c0.3566284,0.5540161,1.6848755,0.3344116,2.9667358-0.4907227
			C175.2795563,240.7343445,176.0294952,239.6162415,175.6728668,239.0622253z"/>
		
			<ellipse transform="matrix(0.8408601 -0.5412526 0.5412526 0.8408601 -97.2448883 125.8995056)" fill="#A67936" cx="165.4766693" cy="228.3200836" rx="2.7610343" ry="1.1930903"/>
		<path fill="none" stroke="#000000" stroke-width="2" stroke-linecap="round" stroke-linejoin="round" d="M175.6728668,239.0622253
			c-0.0025024-0.0039062-0.0072632-0.0057373-0.0098877-0.0095215l-1.666687-2.5979004c0,0-1.2440186,0.0907593-1.890686-0.9138794
			c-0.6466675-1.0045776,0.0048828-2.0158691,0.0048828-2.0158691l-4.3114624-6.6973877
			c-0.0003662-0.0006104-0.0003662-0.0014038-0.0007324-0.0020142c-0.3566284-0.5540771-1.6851807-0.3341064-2.9674072,0.4912109
			c-1.2821655,0.8253174-2.0324707,1.9436035-1.6758423,2.4976196c0.0004272,0.0006714,4.3127441,6.6990356,4.3127441,6.6990356
			s1.1903076-0.1743164,1.8369751,0.8303223c0.6466675,1.0045776,0.0488281,2.0993652,0.0488281,2.0993652l1.6706543,2.5953979
			c0,0,0.0043335,0.0075684,0.0068359,0.0114746c0.3566284,0.5540161,1.6848755,0.3344116,2.9667358-0.4907227
			C175.2795563,240.7343445,176.0294952,239.6162415,175.6728668,239.0622253z"/>
	</g>
</g>
<path fill="#FFFFFF" d="M230.2470093,315.9819946c-5.625-14.56604-20.125-22.7650146-34.1430054-17.8830566
	c-14.6820068,5.1150513-19.0960083,22.0300293-14.1950073,35.4540405
	c4.4130249,12.0979614,17.9420166,22.3889771,33.6669922,17.8070068
	C228.4299927,347.6119995,235.8129883,330.3809814,230.2470093,315.9819946z M183.3989868,332.9559937
	c-1.8909912-5.1470337-2.2519531-10.8569946-1.0169678-16.072998c0,0,3.2669678,8.9829712,6.0800171,14.7329712
	c2.8129883,5.75,9.2939453,16.4509888,9.2939453,16.4509888
	C190.9710083,345.1779785,185.7490234,339.3549805,183.3989868,332.9559937z M213.9150391,348.9829712
	c-4.3970337,1.2720337-8.6000366,1.3290405-12.4330444,0.3989868c0,0-0.0829468-5.3919678,0.5040283-13.0169678
	c0.2890015-3.7540283,0.7879639-8.875,0.7879639-8.875s2.6760254,5.0869751,6.3120117,10.875
	c3.1920166,5.0819702,6.8170166,9.1879883,6.8170166,9.1879883c0.059021,0.1170044,0.2839966,0.4630127,0.3560181,0.5610352
	C215.5029907,348.4589844,214.7210083,348.75,213.9150391,348.9829712z M218.9090576,329.7409058l-1.2000122,10.125
	c0,0-5.5209961-9.0209961-8.8540039-15.9660034c-3.3339844-6.9360352-4.5419922-10.4210205-4.5419922-10.4210205
	c1.3859863-0.2519531,3.0819702-0.730957,3.0819702-0.730957c1.2300415-0.3140259,0.8770142-2.2670288-0.3629761-2.03302
	c0,0-3.7160034,0.78302-6.1359863,1.0840454c-2.2750244,0.282959-6.1300049,0.4429932-6.1300049,0.4429932
	c-1.2560425,0.0769653-1.1890259,2.1459961,0.0679932,2.0700073c0,0,0.8889771,0.0269775,2.1439819-0.0490112l4.4609985,10.289978
	c0,0-0.5620117,4.2590332-0.9199829,7.5530396c-0.3580322,3.2940063-0.559021,9.3850098-0.559021,9.3850098
	s-4.9370117-8.375-7.4719849-14.3480225c-2.5350342-5.9639893-4.6530151-12.117981-4.6530151-12.117981
	c1.4699707-0.2260132,2.5039673-0.3410034,2.5039673-0.3410034c1.2310181-0.3150024,0.8780518-2.1669922-0.3609619-1.934021
	c0,0-3.0390015,0.3540039-5.460022,0.6550293c-0.434021,0.0549927-0.8599854-0.5-1.0800171,0l0.1170044-0.2050171
	c2.2260132-5.4530029,6.4320068-9.9879761,12.7090454-12.157959c7.875-2.7250366,15.9299927-0.9260254,22.1209717,3.9569702
	c-0.0979614,0.0060425-0.1849976,0.0060425-0.2860107,0.0180054c-2.276001,0.2839966-4.8839722,2.8099976-4.6449585,5.0980225
	c0.2139893,2.0529785,1.6189575,3.8540039,3.0059814,5.7600098c1.0540161,1.5490112,2.3239746,2.8209839,2.6439819,5.8959961
	C219.3250122,323.8930054,219.2600098,325.677002,218.9090576,329.7409058z M219.8450317,345.9459839
	c0,0,0.5539551-10.0800171,1.3659668-15.5180054c0.8120117-5.4380493,1.4379883-8.0599976,1.4379883-8.0599976
	c1.132019-4.1030273,1.6820068-5.8540039,1.4190063-8.3790283c-0.0969849-0.9169922-0.2009888-2.4889526-0.5789795-3.6669922
	c1.4940186,2.0369873,2.7539673,4.3220215,3.723999,6.8150024
	C231.3209839,327.6939697,227.6459961,339.9429932,219.8450317,345.9459839z"/>
<g id="legs">
	<path fill="#FFD200" d="M247.0010071,363.7030029c0,0-2,11.6660156-13,11.6660156s-6.3330078-13.3330078-7.6660004-22
		c-1.3339996-8.6669922-6.6670074-20,1.3329926-25.3330078s17.6669922,10.3330078,19.3330078,16.3330078
		C249.3350067,352.368988,249.0010071,357.3699951,247.0010071,363.7030029"/>
	<path d="M234.0010071,377.368988c-2.9069977,0-5.1869965-0.8340149-6.7769928-2.4779968
		c-3.0509949-3.1549988-2.8730011-8.5069885-2.701004-13.6830139c0.0870056-2.6130066,0.1779938-5.3150024-0.1640015-7.5360107
		c-0.2810059-1.8269958-0.75-3.7869873-1.2460022-5.8609924c-1.8529968-7.7369995-3.951004-16.5079956,3.4459991-21.4389954
		c1.4190063-0.9460144,2.9600067-1.4259949,4.5809937-1.4259949c8.6880035,0,16.3439941,13.6879883,17.7879944,18.8880005
		c2.5700073,8.8089905,1.9620056,14.1520081,0.0200043,20.3460083
		C248.098999,368.822998,243.9360046,377.368988,234.0010071,377.368988 M231.1399994,328.9460144
		c-0.8289948,0-1.602005,0.2470093-2.3610077,0.7539978c-4.7250061,3.1489868-3.7709961,8.8479919-1.7769928,17.1809998
		c0.4940033,2.0620117,1.0039978,4.1929932,1.3110046,6.1839905c0.397995,2.5889893,0.3029938,5.4809875,0.2089996,8.2780151
		c-0.1450043,4.3420105-0.2940063,8.8330078,1.5780029,10.7680054c0.8179932,0.8469849,2.095993,1.2590027,3.9019928,1.2590027
		c9.1450043,0,10.9570007-9.6019897,11.0299988-10.0100098c0.0149994-0.0859985,0.0359955-0.1759949,0.0619965-0.2590027
		c1.7830048-5.6459961,2.3090057-10.2130127-0.0130005-18.17099
		C243.595993,339.5820007,236.5339966,328.9460144,231.1399994,328.9460144"/>
	<path fill="#FFD200" d="M176.3350067,329.368988c-8.1389923-6.2619934-17.3339996-0.6659851-15.3339996,9
		c1.6439972,7.9419861,15.0679932,22.6960144,24.6669922,25c8.3330078,2,6.6490021-6.9920044,5.3330078-10
		C188.6679993,348.0360107,180.6679993,332.7030029,176.3350067,329.368988"/>
	<path d="M187.8470001,365.1560059L187.8470001,365.1560059c-0.7689972,0-1.6210022-0.1099854-2.529007-0.32901
		c-10.1450043-2.4349976-24.0299988-17.6679993-25.7859955-26.1539917c-0.7850037-3.7950134-0.0639954-7.303009,2.0299988-9.875
		c1.8509979-2.2709961,4.6490021-3.5750122,7.677002-3.5750122c2.7259979,0,5.4960022,1.0230103,8.0110016,2.9580078
		c4.9380035,3.7999878,13.3170013,20.45401,15.125,24.5870056c0.7519989,1.7189941,2.2449951,6.8789978,0.1529999,10.0780029
		C191.8390045,363.8999939,190.4669952,365.1560059,187.8470001,365.1560059 M169.2389984,328.2229919
		c-2.1529999,0-4.0540009,0.8770142-5.3500061,2.4689941c-1.5140076,1.8599854-2.0180054,4.4790039-1.4199982,7.3739929
		c1.529007,7.3859863,14.6569977,21.7109985,23.5480042,23.8450012c0.6799927,0.1629944,1.2960052,0.2460022,1.8300018,0.2460022
		c1.3869934,0,1.9029999-0.5429993,2.1699982-0.9519958c1.0839996-1.6589966,0.4700012-5.2669983-0.3899994-7.2330017
		c-2.4620056-5.6270142-10.2639923-20.3789978-14.2070007-23.4129944
		C173.4340057,329.0299988,171.2980042,328.2229919,169.2389984,328.2229919"/>
</g>
</svg>
