<?xml version="1.0" encoding="utf-8"?>
<!-- Generator: Adobe Illustrator 15.1.0, SVG Export Plug-In . SVG Version: 6.00 Build 0)  -->
<!DOCTYPE svg PUBLIC "-//W3C//DTD SVG 1.1//EN" "http://www.w3.org/Graphics/SVG/1.1/DTD/svg11.dtd">
<svg version="1.1" xmlns="http://www.w3.org/2000/svg" xmlns:xlink="http://www.w3.org/1999/xlink" x="0px" y="0px" width="480px"
	 height="640px" viewBox="0 0 480 640" enable-background="new 0 0 480 640" xml:space="preserve">
<g id="wapuu">
	<path d="M217.572,412.83c-14.708,0-28.432-7.375-35.508-14.684c-4.207-4.345-6.36-8.813-6.227-12.923
		c0.245-7.591,5.264-12.691,12.49-12.691c6.878,0,13.855,4.549,18.209,11.871c3.29,5.534,9.413,6.696,13.971,6.696h0.004
		c10.813-0.002,25.499-6.566,35.665-17.975c-3.176,0.49-5.952,0.644-8.186,0.644c-0.296,0-0.591-0.003-0.885-0.008
		c-3.256,3.96-7.82,6.107-13.104,6.107c-3.505,0-9.121-1.137-11.214-7.963c-9.656-0.979-18.772-4.346-26.656-9.785
		c-0.246,0.817-0.601,1.615-1.092,2.367c-1.547,2.366-4.101,3.669-7.192,3.669c-1.004,0-2.091-0.139-3.229-0.411
		c-11.554-2.773-26.044-18.898-28.023-28.464c-0.972-4.696-0.034-9.092,2.641-12.378c2.422-2.975,6.069-4.681,10.003-4.681
		c0.817,0,1.636,0.072,2.449,0.214c-0.346-2.558-0.521-5.14-0.521-7.735c0-10.274,2.721-20.268,7.893-29.072
		c-0.206-0.559-0.366-1.146-0.482-1.762c-0.575-3.067,0.425-6.343,2.815-9.223c0.362-0.436,0.749-0.855,1.157-1.256
		c-3.528-1.161-5.109-3.66-5.353-5.885c-0.339-3.086,1.691-5.83,4.827-6.527c1.869-0.416,8.785-4.302,12.462-7.798
		c10.877-16.86,30.964-26.669,53.65-25.974c10.47,0.316,19.931,3.502,28.144,9.475c5.128,0.294,12.334,0.331,17.479,0.331
		c3.201,0,6.408-0.017,9.412-0.031c2.661-0.013,5.164-0.026,7.366-0.026c6.819,0,8.515,0.125,9.555,0.385
		c2.479,0.619,4.122,2.816,4.187,5.597c0.122,5.267-5.721,14.866-18.651,18.745c-2.101,0.63-4.321,0.949-6.6,0.949
		c-0.977,0-1.968-0.059-2.972-0.174c0.663,1.547,1.281,3.129,1.854,4.746c8.244,23.297,10.216,75.548-14.662,94.554
		c-6.793,22.952-30.146,43.82-56.21,49.993C224.007,412.466,220.822,412.83,217.572,412.83 M188.327,381.532
		c-1.445,0-3.38,0.412-3.494,3.981c-0.039,1.195,0.912,3.496,3.697,6.373c5.569,5.752,17.033,11.943,29.042,11.943
		c2.552,0,5.039-0.282,7.392-0.84c18.858-4.467,36.578-18.082,45.407-33.859l-0.406,0.225
		c-10.172,17.605-31.19,30.742-49.452,30.744h-0.006c-9.744,0-17.452-3.941-21.707-11.097
		C195.731,383.842,191.329,381.532,188.327,381.532 M226.534,362.972c0.581,0,1.166,0.112,1.723,0.343
		c1.562,0.647,2.631,2.118,2.762,3.804c0.295,3.75,1.138,3.75,2.982,3.75c3.118,0,5.346-1.282,7.008-4.038
		c0.877-1.453,2.5-2.292,4.19-2.163c0.898,0.067,1.837,0.102,2.791,0.102c4.369,0,11.236-0.712,19.139-4.104
		c2.201-0.944,4.761,0.004,5.816,2.157c0.084,0.171,0.156,0.347,0.217,0.523c0.731-1.804,1.342-3.622,1.819-5.448
		c0.273-1.044,0.912-1.955,1.802-2.567c21.331-14.688,20.309-63.463,12.643-85.127c-1.623-4.586-3.656-8.851-6.045-12.677
		c-1.058-1.694-0.872-3.884,0.457-5.376c1.329-1.49,3.479-1.929,5.287-1.074c3.575,1.694,6.907,2.553,9.903,2.553
		c1.402,0,2.752-0.191,4.014-0.57c5.655-1.695,9.034-4.745,10.768-7.091c-0.896-0.009-1.976-0.015-3.271-0.015
		c-2.188,0-4.677,0.014-7.321,0.025c-3.019,0.016-6.24,0.032-9.457,0.032c-5.736,0-13.991-0.046-19.427-0.438
		c-0.879-0.063-1.72-0.384-2.419-0.921c-6.938-5.335-15.029-8.178-24.049-8.45c-0.668-0.021-1.335-0.031-1.995-0.031
		c-18.801,0-35.273,8.324-44.063,22.266c-0.178,0.284-0.387,0.546-0.625,0.783c-1.134,1.135-2.581,2.344-4.17,3.523
		c1.241,0.688,2.123,1.942,2.294,3.424c0.247,2.137,1.614,2.957,1.769,3.045c2.018,1.128,2.854,3.601,1.932,5.721
		c-0.907,2.087-3.224,3.163-5.395,2.525c-0.003,0-0.005,0.002-0.007,0.004c-1.557,1.302-3.771,1.39-5.417,0.269
		c-0.924,0.246-2.742,1.261-3.937,2.746c-0.686,0.853-0.87,1.502-0.827,1.731c0.051,0.275,0.128,0.437,0.181,0.494
		c1.387,1.518,1.572,3.781,0.447,5.502c-5.159,7.889-7.885,17.051-7.885,26.498c0,5.225,0.839,10.39,2.494,15.353
		c0.686,2.059-0.193,4.313-2.092,5.362c-1.898,1.049-4.275,0.595-5.653-1.082c-0.765-0.93-1.182-1.288-1.326-1.398
		c-1.455-1.12-2.96-1.713-4.351-1.713c-1.234,0-2.308,0.484-3.023,1.363c-0.934,1.146-1.221,2.877-0.809,4.871
		c1.327,6.41,13.656,19.699,21.311,21.535c0.369,0.09,0.653,0.133,0.862,0.151c0.092-0.95-0.166-2.746-0.701-3.97
		c-0.304-0.694-0.713-1.573-1.198-2.572c-0.972-2.008-0.328-4.424,1.515-5.68c1.844-1.258,4.328-0.975,5.841,0.665
		c8.518,9.223,20.002,14.705,32.437,15.511C225.82,363.015,226.177,362.972,226.534,362.972"/>
	<path d="M226.322,369.15c-0.021,0-0.044,0-0.065-0.001c-29.209-1.272-52.089-25.188-52.089-54.446
		c0-17.303,7.944-33.195,21.795-43.602c0.664-0.496,1.602-0.365,2.1,0.299c0.498,0.662,0.364,1.602-0.298,2.1
		c-13.089,9.836-20.597,24.853-20.597,41.203c0,27.647,21.62,50.246,49.218,51.448c0.828,0.036,1.47,0.736,1.435,1.564
		C227.785,368.521,227.121,369.15,226.322,369.15"/>
	<path fill="#EF9B2B" d="M226.321,367.65c-28.182-1.228-50.654-24.463-50.654-52.947c0-17.339,8.326-32.732,21.196-42.402
		c9.135,4.74,16.313-3.95,21.981-8.106c16.248,4.156,42.398,1.745,60.117,33.745c2.689,4.857,2.705,10.904,2.705,16.764
		c0,5.26-0.766,10.344-2.194,15.142c-13.02-4.817-28.511,1.229-33.046,12.941C237.737,358.277,226.321,367.65,226.321,367.65"/>
	<path fill="#683E15" d="M176,307.536c0,0,12,14.5,24.5-1s12.038,3.924,20.5,6.5c11.5,3.5,12.5-11.5,21-13.5s3.5,14.5,13,13
		s24.5-23.5,24.5-23.5s-6.5-29-55-25C175.957,268.039,176,307.536,176,307.536"/>
	<rect x="199" y="271.036" fill="#BF1919" width="5.5" height="5.5"/>
	
		<rect x="205.827" y="279.475" transform="matrix(0.7072 -0.7071 0.7071 0.7072 -138.4691 230.1257)" fill="#18890B" width="5.5" height="5.499"/>
	
		<rect x="194.25" y="278.141" transform="matrix(0.7072 -0.7071 0.7071 0.7072 -140.9159 221.5499)" fill="#18890B" width="5.5" height="5.499"/>
	<rect x="222.667" y="271.036" fill="#BF1919" width="5.5" height="5.5"/>
	
		<rect x="230.827" y="279.475" transform="matrix(0.7072 -0.707 0.707 0.7072 -131.1456 247.7795)" fill="#18890B" width="5.5" height="5.499"/>
	
		<rect x="217.917" y="279.474" transform="matrix(0.707 -0.7072 0.7072 0.707 -134.9359 238.7411)" fill="#18890B" width="5.5" height="5.5"/>
	
		<rect x="245.578" y="270.036" transform="matrix(0.9981 -0.0618 0.0618 0.9981 -16.3787 15.8632)" fill="#BF1919" width="5.501" height="5.501"/>
	
		<rect x="235.25" y="270.036" transform="matrix(0.9981 -0.0618 0.0618 0.9981 -16.3985 15.2251)" fill="#BF1919" width="5.501" height="5.501"/>
	
		<rect x="211.25" y="270.036" transform="matrix(0.9981 -0.0618 0.0618 0.9981 -16.4443 13.7423)" fill="#BF1919" width="5.501" height="5.501"/>
	
		<rect x="254.833" y="279.121" transform="matrix(0.662 -0.7495 0.7495 0.662 -124.2003 288.3362)" fill="#18890B" width="5.501" height="5.501"/>
	
		<rect x="243.278" y="278.814" transform="matrix(0.6621 -0.7494 0.7494 0.6621 -127.8762 279.5284)" fill="#18890B" width="5.5" height="5.501"/>
	<path fill="#FF8800" d="M194.335,268.369c-13,3.666-14.334-2.333-11.334-3s11-5.333,15-9.333L194.335,268.369z"/>
	<path fill="#FF8800" d="M279.335,359.036c-5.667,21.667-28,42.333-53.334,48.333c-21.793,5.161-46-11.666-45.666-22
		c0.375-11.637,15-11,22.333,1.334c11.234,18.895,49.667,5.666,64-20.667L279.335,359.036z"/>
	<path fill="#57A1BE" d="M196.863,272.301c-0.147,0.109-0.286,0.23-0.432,0.344c0.217-0.081,0.435-0.16,0.654-0.238
		C197.01,272.369,196.938,272.34,196.863,272.301"/>
	<path fill="#FFD200" d="M244.335,369.118c8.132,0.723,21.492-0.782,35-10.082c24.383-16.789,22-68.667,14.333-90.333
		s-23.667-36.334-45.667-37s-40.333,9-50,24.333c-6.52,10.341-1.666,15.999,1.334,17.333s15.666-3.666,19.333-10.333
		c8.667,5.333,18.333,2.999,26.667,0.333l16,4.667c-12.667-5-28.668-2.001-37,5.333c-8.334,7.334-2.666,12.668,3.666,13.334
		c6.334,0.666,18.666-5,28.334-3c9.666,2,12.631,5.542,22.965,14.875c0,0,5.668,22.671,0,31.361
		c-9.824-5.668-27.583,0.756-32.873,12.847L244.335,369.118z"/>
	<path d="M279.474,331.345c-0.143,0-0.286-0.02-0.429-0.062c-0.794-0.236-1.246-1.071-1.01-1.865
		c1.414-4.751,2.132-9.701,2.132-14.716c0-5.571-0.884-11.051-2.628-16.287c-0.262-0.786,0.163-1.635,0.949-1.898
		c0.785-0.26,1.635,0.164,1.896,0.95c1.847,5.542,2.782,11.341,2.782,17.235c0,5.305-0.759,10.543-2.257,15.571
		C280.717,330.924,280.119,331.345,279.474,331.345"/>
	<path d="M247,343.536c-0.222,0-0.447-0.049-0.66-0.153c-0.743-0.365-1.051-1.264-0.686-2.008
		c4.029-8.214,11.617-13.458,20.816-14.39c7.587-0.771,15.151,1.616,18.383,5.801c0.508,0.655,0.387,1.598-0.269,2.104
		c-0.654,0.507-1.599,0.387-2.104-0.27c-2.592-3.353-9.19-5.307-15.709-4.65c-4.787,0.485-13.546,2.783-18.425,12.728
		C248.087,343.228,247.554,343.536,247,343.536"/>
	<path d="M247.938,370.771c-1.497,0-2.756-0.071-3.735-0.158c-0.825-0.072-1.435-0.802-1.361-1.627
		c0.073-0.826,0.818-1.43,1.627-1.36c5.259,0.463,19.101,0.445,34.017-9.824c23.476-16.164,21.41-67.006,13.77-88.598
		c-7.879-22.266-24.025-35.387-44.298-36c-20.763-0.629-38.959,8.207-48.687,23.633c-2.659,4.219-3.578,8.054-2.655,11.09
		c0.672,2.212,2.214,3.576,3.33,4.072c1.889,0.842,13.915-3.332,17.409-9.686c0.198-0.359,0.534-0.622,0.933-0.727
		c0.397-0.104,0.819-0.041,1.168,0.173c8.205,5.049,17.426,2.741,25.424,0.182c0.792-0.252,1.633,0.183,1.886,0.972
		c0.252,0.789-0.183,1.633-0.973,1.885c-8.82,2.824-18.124,4.766-26.626,0.25c-4.733,6.572-16.744,11.334-20.439,9.693
		c-1.775-0.789-4.017-2.766-4.982-5.943c-0.825-2.715-0.976-7.272,2.989-13.561c10.299-16.336,29.479-25.703,51.313-25.033
		c21.579,0.653,38.722,14.504,47.036,38c3.594,10.155,6.513,28.818,4.933,47.621c-1.253,14.91-5.71,34.726-19.829,44.447
		C267.225,369.195,254.969,370.771,247.938,370.771"/>
	<path fill="#FF8800" d="M274.001,241.036c-5.989-0.485-1.333,4.001,0.667,5.667s16.333,14.666,29.667,10.666
		c13.333-4,17.334-14.999,14.666-15.666C316.335,241.036,286.335,242.036,274.001,241.036"/>
	<path d="M299.026,259.631h-0.002c-5.249-0.002-13.841-1.992-24.957-11.47l-0.359-0.306c-4.915-4.094-4.237-5.965-4.015-6.58
		c0.426-1.178,1.596-1.776,3.475-1.776c0.288,0,0.605,0.015,0.954,0.042c5.196,0.421,13.668,0.471,19.588,0.471
		c3.224,0,6.45-0.017,9.474-0.031c2.666-0.014,5.174-0.026,7.378-0.026c6.352,0,8.078,0.112,8.804,0.294
		c1.165,0.291,1.882,1.322,1.915,2.756c0.084,3.639-4.812,12.291-16.515,15.803C302.943,259.352,301.013,259.631,299.026,259.631
		 M272.746,242.516c0.391,0.64,1.35,1.758,2.882,3.035l0.386,0.327c10.422,8.886,18.266,10.751,23.011,10.753h0.002
		c1.694,0,3.335-0.236,4.878-0.697c7.32-2.197,11.817-6.734,13.584-10.248c0.659-1.312,0.793-2.174,0.793-2.58
		c-0.996-0.1-3.586-0.151-7.72-0.151c-2.2,0-4.702,0.013-7.363,0.026c-3.027,0.015-6.261,0.031-9.488,0.031
		c-5.972,0-14.526-0.051-19.83-0.48C273.418,242.494,273.01,242.494,272.746,242.516"/>
	<path d="M187.095,271.054c-3.393,0-5.089-1.026-5.903-1.851c-0.89-0.9-1.232-2.086-0.913-3.168c0.315-1.07,1.211-1.866,2.397-2.131
		c2.584-0.574,10.321-4.985,14.265-8.929c0.586-0.586,1.535-0.586,2.121,0c0.586,0.585,0.586,1.536,0,2.121
		c-4.132,4.132-12.367,8.988-15.736,9.737c-0.139,0.031-0.183,0.078-0.184,0.078c0.015-0.004,0.103,0.162,0.435,0.388
		c0.625,0.421,3.211,1.64,10.351-0.374c0.796-0.223,1.626,0.238,1.851,1.036s-0.24,1.626-1.037,1.851
		C191.535,270.718,189.037,271.054,187.095,271.054"/>
	<path d="M216.001,254.369c-2.385,1.789-1.666,4.001,1,4.334c2.667,0.333,2.875,0.51,5.334-1.334c2.666-2,3-5.334,0-5
		S217.335,253.369,216.001,254.369"/>
	<path d="M209.001,255.703c0,1.657-1.343,3-3,3c-1.656,0-3-1.343-3-3s1.344-3,3-3C207.658,252.703,209.001,254.046,209.001,255.703"
		/>
	<path d="M243.668,247.37c0,1.657-1.343,3-3,3s-3-1.343-3-3s1.343-3,3-3S243.668,245.713,243.668,247.37"/>
	<path d="M217.676,409.815c-11.666,0-23.107-4.995-30.363-10.926c-5.52-4.513-8.61-9.458-8.477-13.569
		c0.159-4.937,2.645-8.386,6.82-9.461c5.302-1.369,13.294,1.656,18.301,10.077c4.123,6.933,11.615,8.277,17.141,8.157
		c16.47-0.312,35.494-12.684,44.253-28.774c0.396-0.728,1.308-0.997,2.034-0.601c0.729,0.396,0.997,1.307,0.601,2.034
		c-9.233,16.965-29.367,30.009-46.83,30.34c-9.006,0.148-15.985-3.248-19.776-9.623c-4.253-7.152-10.749-9.794-14.974-8.705
		c-2.833,0.729-4.456,3.092-4.571,6.652c-0.1,3.124,2.657,7.292,7.377,11.15c8.486,6.938,23.048,12.516,36.444,9.342
		c24.628-5.832,46.593-25.705,52.229-47.253c0.21-0.802,1.024-1.281,1.831-1.071c0.801,0.209,1.281,1.029,1.071,1.831
		c-5.9,22.558-28.795,43.339-54.439,49.413C223.483,409.507,220.571,409.815,217.676,409.815"/>
	
		<rect x="246.75" y="266.202" transform="matrix(0.99 0.1411 -0.1411 0.99 40.8676 -33.0773)" fill="#FFD200" width="13.791" height="10.792"/>
	<path d="M282.668,302.536c-0.359,0-0.719-0.127-1.006-0.388l-1.186-1.071c-9.7-8.771-15.555-14.065-24.445-15.905
		c-5.35-1.105-11.733,0.311-17.365,1.559c-4.269,0.949-7.954,1.769-10.822,1.465c-4.405-0.465-7.897-2.783-8.892-5.908
		c-0.701-2.202-0.51-5.73,4.392-10.044c9.155-8.058,26.085-10.519,38.542-5.603c0.771,0.305,1.148,1.176,0.845,1.946
		c-0.305,0.771-1.177,1.15-1.946,0.845c-11.5-4.539-27.074-2.315-35.458,5.063c-2.875,2.53-4.124,4.974-3.515,6.881
		c0.623,1.96,3.174,3.502,6.347,3.835c2.385,0.248,6.014-0.555,9.858-1.408c5.926-1.315,12.644-2.808,18.622-1.568
		c9.69,2.005,16.119,7.818,25.85,16.617l1.186,1.072c0.614,0.555,0.662,1.504,0.107,2.117
		C283.485,302.369,283.077,302.536,282.668,302.536"/>
	<path fill="#FFD200" d="M193.668,273.369c-3.333-1.333-11.667,4.334-10.667,9.667s7,5.333,11,1.333
		S196.899,274.661,193.668,273.369"/>
	<path d="M187.838,288.72L187.838,288.72c-3.267,0-5.686-2.071-6.312-5.407c-0.407-2.173,0.365-4.57,2.176-6.752
		c2.35-2.832,6.061-4.889,8.824-4.889c0.622,0,1.193,0.104,1.698,0.305c1.838,0.735,3.212,2.521,3.676,4.779
		c0.623,3.031-0.438,6.273-2.839,8.674C192.97,287.521,190.338,288.72,187.838,288.72 M192.526,274.672
		c-1.615,0-4.565,1.455-6.516,3.804c-0.712,0.859-1.859,2.558-1.535,4.284c0.459,2.447,2.082,2.96,3.363,2.96
		c1.685,0,3.591-0.901,5.102-2.411c1.685-1.685,2.44-3.908,2.022-5.949c-0.26-1.268-0.953-2.238-1.851-2.598
		C192.964,274.703,192.761,274.672,192.526,274.672"/>
	
		<rect x="176.939" y="240.741" transform="matrix(0.8385 -0.5449 0.5449 0.8385 -118.0178 141.052)" display="none" fill="#C9A063" width="4" height="57.751"/>
	
		<rect x="176.939" y="240.741" transform="matrix(0.8385 -0.5449 0.5449 0.8385 -118.0178 141.052)" display="none" fill="none" stroke="#000000" stroke-miterlimit="10" width="4" height="57.751"/>
	<g>
		<path fill="#C9A063" stroke="#000000" d="M164.407,243.725l31.454,48.436c0.452,0.695,0.066,1.746-0.86,2.348
			c-0.926,0.601-2.042,0.526-2.493-0.169l-31.455-48.436"/>
		
			<ellipse transform="matrix(0.8386 -0.5447 0.5447 0.8386 -107.089 128.1403)" fill="#C9A063" stroke="#000000" cx="162.729" cy="244.814" rx="2" ry="1.501"/>
	</g>
</g>
<g id="wp_x5F_mark">
	<path d="M231.595,315.453c5.838,14.996-1.906,32.942-15.387,36.845c-16.492,4.772-30.682-5.945-35.31-18.545
		c-5.141-13.979-0.511-31.597,14.888-36.925C210.487,291.744,225.694,300.283,231.595,315.453z"/>
	<path fill="#EAE0D8" d="M230.247,315.982c5.566,14.399-1.817,31.63-14.671,35.378c-15.725,4.582-29.254-5.709-33.667-17.807
		c-4.901-13.424-0.487-30.339,14.195-35.454C210.122,293.217,224.622,301.416,230.247,315.982z"/>
	<g>
		<path fill="#683E15" d="M219.104,321.771c-0.32-3.075-1.59-4.347-2.644-5.896c-1.387-1.906-2.792-3.707-3.006-5.76
			c-0.239-2.288,2.369-4.814,4.645-5.098c0.101-0.012,0.188-0.012,0.286-0.018c-6.191-4.883-14.246-6.682-22.121-3.957
			c-6.277,2.17-10.483,6.705-12.709,12.158l-0.117,0.205c0.22-0.5,0.646,0.055,1.08,0c2.421-0.301,5.46-0.655,5.46-0.655
			c1.239-0.233,1.592,1.619,0.361,1.934c0,0-1.034,0.115-2.504,0.341c0,0,2.118,6.154,4.653,12.118
			c2.535,5.973,7.472,14.348,7.472,14.348s0.201-6.091,0.559-9.385s0.92-7.553,0.92-7.553l-4.461-10.29
			c-1.255,0.076-2.144,0.049-2.144,0.049c-1.257,0.076-1.324-1.993-0.068-2.07c0,0,3.855-0.16,6.13-0.443
			c2.42-0.301,6.136-1.084,6.136-1.084c1.24-0.234,1.593,1.719,0.363,2.033c0,0-1.696,0.479-3.082,0.731
			c0,0,1.208,3.485,4.542,10.421c3.333,6.945,8.854,15.966,8.854,15.966l1.2-10.125C219.26,325.677,219.325,323.893,219.104,321.771
			"/>
		<path fill="#683E15" d="M197.756,348.067c-6.785-2.889-12.007-8.712-14.357-15.111c-1.891-5.147-2.252-10.857-1.017-16.073
			c0,0,3.267,8.983,6.08,14.733S197.756,348.067,197.756,348.067z"/>
		<path fill="#683E15" d="M216.259,348.114c-0.756,0.345-1.538,0.636-2.344,0.869c-4.397,1.272-8.6,1.329-12.433,0.399
			c0,0-0.083-5.392,0.504-13.017c0.289-3.754,0.788-8.875,0.788-8.875s2.676,5.087,6.312,10.875
			c3.192,5.082,6.817,9.188,6.817,9.188C215.962,347.67,216.187,348.016,216.259,348.114z"/>
		<path fill="#683E15" d="M223.489,310.322c1.494,2.037,2.754,4.322,3.724,6.815c4.108,10.557,0.433,22.806-7.368,28.809
			c0,0,0.554-10.08,1.366-15.518s1.438-8.06,1.438-8.06c1.132-4.103,1.682-5.854,1.419-8.379
			C223.971,313.072,223.867,311.5,223.489,310.322z"/>
	</g>
</g>
<g id="legs">
	<path fill="#FFD200" d="M247.001,363.703c0,0-2,11.666-13,11.666s-6.333-13.333-7.666-22c-1.334-8.667-6.667-20,1.333-25.333
		s17.667,10.333,19.333,16.333C249.335,352.369,249.001,357.37,247.001,363.703"/>
	<path d="M234.001,377.369c-2.907,0-5.187-0.834-6.777-2.478c-3.051-3.155-2.873-8.507-2.701-13.683
		c0.087-2.613,0.178-5.315-0.164-7.536c-0.281-1.827-0.75-3.787-1.246-5.861c-1.853-7.737-3.951-16.508,3.446-21.439
		c1.419-0.946,2.96-1.426,4.581-1.426c8.688,0,16.344,13.688,17.788,18.888c2.57,8.809,1.962,14.152,0.02,20.346
		C248.099,368.823,243.936,377.369,234.001,377.369 M231.14,328.946c-0.829,0-1.602,0.247-2.361,0.754
		c-4.725,3.149-3.771,8.848-1.777,17.181c0.494,2.062,1.004,4.193,1.311,6.184c0.398,2.589,0.303,5.481,0.209,8.278
		c-0.145,4.342-0.294,8.833,1.578,10.768c0.818,0.847,2.096,1.259,3.902,1.259c9.145,0,10.957-9.602,11.03-10.01
		c0.015-0.086,0.036-0.176,0.062-0.259c1.783-5.646,2.309-10.213-0.013-18.171C243.596,339.582,236.534,328.946,231.14,328.946"/>
	<path fill="#FFD200" d="M176.335,329.369c-8.139-6.262-17.334-0.666-15.334,9c1.644,7.942,15.068,22.696,24.667,25
		c8.333,2,6.649-6.992,5.333-10C188.668,348.036,180.668,332.703,176.335,329.369"/>
	<path d="M187.847,365.156L187.847,365.156c-0.769,0-1.621-0.11-2.529-0.329c-10.145-2.435-24.03-17.668-25.786-26.154
		c-0.785-3.795-0.064-7.303,2.03-9.875c1.851-2.271,4.649-3.575,7.677-3.575c2.726,0,5.496,1.023,8.011,2.958
		c4.938,3.8,13.317,20.454,15.125,24.587c0.752,1.719,2.245,6.879,0.153,10.078C191.839,363.9,190.467,365.156,187.847,365.156
		 M169.239,328.223c-2.153,0-4.054,0.877-5.35,2.469c-1.514,1.86-2.018,4.479-1.42,7.374c1.529,7.386,14.657,21.711,23.548,23.845
		c0.68,0.163,1.296,0.246,1.83,0.246c1.387,0,1.903-0.543,2.17-0.952c1.084-1.659,0.47-5.267-0.39-7.233
		c-2.462-5.627-10.264-20.379-14.207-23.413C173.434,329.03,171.298,328.223,169.239,328.223"/>
</g>
</svg>
