<?xml version="1.0" encoding="utf-8"?>
<!-- Generator: Adobe Illustrator 16.0.4, SVG Export Plug-In . SVG Version: 6.00 Build 0)  -->
<!DOCTYPE svg PUBLIC "-//W3C//DTD SVG 1.1//EN" "http://www.w3.org/Graphics/SVG/1.1/DTD/svg11.dtd">
<svg version="1.1" id="Layer_1" xmlns="http://www.w3.org/2000/svg" xmlns:xlink="http://www.w3.org/1999/xlink" x="0px" y="0px"
	 width="209px" height="234.667px" viewBox="0 0 209 234.667" enable-background="new 0 0 209 234.667" xml:space="preserve">
<g>
	<g>
		<path fill="#6B5948" d="M147.614,229.501c-1.35,0-2.666-0.683-3.42-1.919l-135-221.5c-1.15-1.886-0.553-4.348,1.334-5.497
			c1.885-1.15,4.348-0.552,5.497,1.334l135,221.5c1.149,1.887,0.552,4.348-1.334,5.498
			C149.042,229.312,148.323,229.501,147.614,229.501z"/>
	</g>
	<g>
		<path fill="#010101" d="M203.893,16.011c-1.293-0.322-3.402-0.478-11.887-0.478c-2.74,0-5.855,0.017-9.166,0.033
			c-3.738,0.019-7.729,0.038-11.711,0.038c-6.402,0-15.367-0.046-21.748-0.412c-10.219-7.429-21.99-11.395-35.018-11.788
			C86.137,2.541,61.145,14.744,47.61,35.722c-4.574,4.349-13.179,9.185-15.505,9.701c-3.902,0.867-6.428,4.285-6.006,8.123
			c0.304,2.768,2.271,5.877,6.66,7.321c-0.508,0.498-0.99,1.021-1.439,1.562c-2.975,3.585-4.219,7.66-3.503,11.476
			c0.144,0.767,0.344,1.497,0.6,2.192c-6.437,10.955-9.821,23.389-9.821,36.174c0,3.229,0.217,6.441,0.649,9.623
			c-1.013-0.176-2.03-0.266-3.048-0.266c-4.895,0-9.432,2.123-12.446,5.824c-3.327,4.088-4.495,9.559-3.286,15.4
			c2.463,11.902,20.492,31.965,34.867,35.416c1.416,0.338,2.768,0.512,4.018,0.512c3.847,0,7.023-1.621,8.949-4.564
			c0.61-0.938,1.051-1.93,1.358-2.945c9.81,6.768,21.151,10.957,33.166,12.174c2.603,8.494,9.592,9.91,13.952,9.91
			c6.574,0,12.254-2.674,16.305-7.602c0.365,0.006,0.732,0.01,1.102,0.01c2.779,0,6.232-0.191,10.184-0.801
			c-12.648,14.195-30.92,22.361-44.376,22.365h-0.003c-5.672,0-13.289-1.445-17.383-8.332c-5.418-9.111-14.098-14.77-22.656-14.77
			c-8.99,0-15.236,6.346-15.541,15.791c-0.165,5.113,2.514,10.672,7.749,16.078c8.804,9.094,25.879,18.27,44.179,18.27
			c4.044,0,8.006-0.453,11.778-1.346c32.429-7.68,61.485-33.646,69.938-62.203c30.953-23.648,28.5-88.659,18.242-117.646
			c-0.711-2.012-1.48-3.981-2.307-5.905c1.25,0.144,2.482,0.217,3.697,0.217c2.836,0,5.598-0.397,8.211-1.183
			c16.09-4.826,23.359-16.771,23.207-23.322C209.021,19.517,206.977,16.783,203.893,16.011"/>
		<path fill="#025784" d="M35.801,149.615c-1.614-2.967-3.368-6.023-5.09-8.77C32.188,143.906,33.888,146.839,35.801,149.615"/>
		<path fill="#F6891F" d="M171.066,23.072c-7.43,0-18.072-0.062-24.672-0.598c-0.576-0.046-1.084-0.046-1.412-0.019
			c0.486,0.795,1.68,2.187,3.586,3.776l0.48,0.406c12.967,11.057,22.727,13.377,28.631,13.379h0.002c2.109,0,4.148-0.293,6.07-0.869
			c9.107-2.732,14.701-8.377,16.9-12.748c0.82-1.635,0.986-2.707,0.986-3.211C200.4,23.064,197.178,23,192.033,23
			c-2.736,0-5.85,0.015-9.162,0.032C179.105,23.051,175.084,23.072,171.066,23.072"/>
		<path fill="#F6891F" d="M149.902,171.734c-3.732,2.229-7.387,4.004-10.895,5.393c-11.512,21.062-36.518,37.246-58.215,37.658
			c-11.207,0.184-19.891-4.041-24.607-11.973c-5.291-8.9-13.373-12.188-18.631-10.832c-3.523,0.908-5.544,3.846-5.687,8.277
			c-0.125,3.887,3.306,9.072,9.179,13.873c10.559,8.633,28.676,15.572,45.346,11.623
			C115.205,218.931,141.084,196.66,149.902,171.734"/>
		<path fill="#F6891F" d="M33.725,52.712c-0.174,0.037-0.229,0.098-0.23,0.098c0.02-0.006,0.129,0.201,0.543,0.481
			c0.756,0.511,3.84,1.947,12.188-0.282c-0.256-1.937-0.159-4.352,0.682-7.221C42.027,49.181,36.525,52.089,33.725,52.712"/>
		<g>
			<g enable-background="new    ">
				<g enable-background="new    ">
					<defs>
						<path id="SVGID_1_" enable-background="new    " d="M22.438,113.608c-0.088-3.105,0.438-8.484,0.829-10.349
							c0.312-1.493,0.614-3.512,1.055-4.972c0.437-1.449,0.96-3.398,1.458-4.827c0.497-1.427,1.195-3.323,1.853-4.684
							c0.657-1.358,1.454-3.214,2.228-4.509c1.539-2.575,3.639-5.993,5.47-8.369c0.926-1.202,2.227-2.754,3.244-3.88
							c1.013-1.121,2.461-2.522,3.517-3.604c1.075-1.101,2.691-2.375,3.85-3.387c1.189-1.039,2.877-2.31,4.206-3.163
							c2.569-1.65,6.081-3.719,8.768-5.17c0.04-0.021,4.916-2.45,9.823-3.975c1.884-0.585,6.886-2.14,13.179-2.881
							c5.809-0.685,9.626-0.626,13.903-0.31c29.829,2.398,53.215,28.697,53.419,61.618c0.218,35.066-25.937,64.428-58.515,65.851
							c32.579-1.423,58.733-30.784,58.515-65.851c-0.204-32.92-23.591-59.22-53.419-61.618c1.106,0.096,2.581,0.233,3.678,0.396
							c1.762,0.263,4.101,0.681,5.85,1.022c2.043,0.398,5.808,1.481,6.403,1.689c5.091,1.78,6.15,2.151,9.45,3.749
							c5.24,2.537,8.851,5.103,8.884,5.127c1.229,0.901,2.897,2.063,4.089,3.012c1.195,0.952,2.742,2.28,3.862,3.318
							c3.118,2.893,5.44,5.616,6.839,7.391c0.788,1,3.185,4.041,5.579,8.319c1.468,2.621,3.11,6.291,4.172,9.1
							c0.173,0.457,1.714,4.615,2.641,9.8c0.546,3.056,0.846,7.202,0.95,10.305c0.08,2.365-0.359,6.987-0.364,7.022
							c-0.417,3.024-1.194,7.033-1.977,9.984c-1.27,4.791-4.259,11.206-5.926,13.838c-0.803,1.267-1.829,2.986-2.685,4.219
							c-0.862,1.243-2.077,2.856-3.034,4.028c-2.85,3.494-5.349,5.852-6.98,7.32c-1.648,1.484-4.285,3.749-8.125,6.269
							c-1.28,0.84-3.025,1.904-4.364,2.646c-1.428,0.792-3.386,1.748-4.854,2.463c-1.879,0.914-4.471,1.967-6.464,2.593
							c-1.281,0.402-2.977,0.987-4.276,1.326c-3.978,1.038-5.38,1.276-6.308,1.434c-7.486,1.272-12.451,1.168-12.485,1.164h0
							c-0.459-0.005-0.918-0.005-1.377-0.014c-0.393-0.008-0.787-0.02-1.18-0.035c-12.314-0.473-21.131-3.971-24.45-5.288
							c-5.725-2.272-11.658-5.945-13.701-7.497c-1.21-0.918-2.856-2.102-4.029-3.067c-1.182-0.973-2.71-2.328-3.815-3.388
							c-2.505-2.401-4.638-4.785-6.712-7.5c-1.327-1.737-3.334-4.5-5.435-8.414c-1.671-3.115-2.835-5.779-4.016-9.197
							c-0.885-2.562-1.817-6.074-2.269-8.747C22.872,120.854,22.527,116.712,22.438,113.608z"/>
					</defs>
					<clipPath id="SVGID_2_">
						<use xlink:href="#SVGID_1_"  overflow="visible"/>
					</clipPath>
					<g clip-path="url(#SVGID_2_)" enable-background="new    ">
						<path fill="#8F8F8F" d="M22.438,113.608c0.161,5.679,0.589,20.764,12.671,36.666c11.955,15.732,27.609,21.292,32.754,23.118
							c11.11,3.945,25.96,4.802,36.952,2.132c6.66-1.618,22.257-5.406,36.05-19.865c12.281-12.873,15.51-26.845,16.206-30.82
							c2.737-15.614,0.242-26.015-4.348-36.828c-5.489-12.933-23.651-35.592-56.904-38.482
							c29.829,2.398,53.215,28.697,53.419,61.618c0.218,35.066-25.937,64.428-58.515,65.851
							c32.579-1.423,58.733-30.784,58.515-65.851c-0.204-32.92-23.591-59.22-53.419-61.618c-28.791-2.128-47.806,13.689-49.879,15.5
							c-9.159,7.998-13.266,13.325-18.308,23.748C24.864,94.5,22.191,104.867,22.438,113.608"/>
						<g>
							<path fill="#8F8F8F" d="M23.574,101.667c13.321-51.078,79.995-46.014,107.479-3.416
								c13.963,21.642,11.896,48.195-5.028,64.572c14.225-12.147,23.344-30.912,23.215-51.678
								c-0.204-32.92-23.591-59.22-53.419-61.618c-0.276-0.021-0.644-0.048-0.919-0.068c-0.269-0.017-0.628-0.041-0.897-0.055
								l-0.597-0.03l-0.572-0.024l-0.43-0.015l-0.41-0.012l-0.336-0.008l-0.322-0.006l-0.282-0.003l-0.273-0.003l-0.252-0.001
								c-0.589,0.001-1.178,0.005-1.768,0.019l-0.314,0.008l-0.332,0.011l-0.699,0.029c-1.81,0.099-4.604,0.29-7.955,0.805
								l-3.731,0.69c-2.11,0.506-4.91,1.242-6.993,1.854l-4.707,1.691c-1.538,0.678-3.606,1.545-5.116,2.284l-4.493,2.433
								c-1.329,0.851-3.131,1.941-4.426,2.842l-4.055,3.058c-1.156,1.015-2.734,2.328-3.85,3.387l-3.517,3.604
								c-0.974,1.164-2.316,2.68-3.244,3.88l-2.902,4.079c-0.774,1.294-1.857,2.99-2.581,4.313l-2.215,4.486
								c-0.556,1.405-1.354,3.257-1.853,4.684l-1.458,4.827c-0.318,1.497-0.802,3.48-1.058,4.989
								c-0.05,0.319-0.118,0.746-0.168,1.065C23.239,103.539,23.418,102.467,23.574,101.667"/>
							<path fill="#8F8F8F" d="M149.239,111.146c0.129,20.766-8.99,39.53-23.215,51.678c-0.93,0.853-2.169,1.989-3.099,2.843
								c-4.862,3.603-16.25,12.04-35.312,11.34l0.637,0.023l0.41,0.012l0.336,0.008l0.322,0.006l0.282,0.004l0.273,0.002
								l0.252,0.002h0.248l0.24-0.001l0.241-0.001l0.245-0.003c0.238-0.004,0.556-0.015,0.794-0.015l0.314-0.008l0.332-0.011
								l0.844-0.038c4.088-0.251,7.827-0.729,11.431-1.463l4.353-1.059c1.825-0.566,4.259-1.32,6.057-1.968l4.684-1.951
								c1.458-0.734,3.425-1.672,4.854-2.463l4.364-2.646c1.271-0.906,3-2.07,4.237-3.024l3.888-3.244
								c1.098-1.065,2.602-2.447,3.657-3.554l3.323-3.767c0.911-1.208,2.171-2.786,3.034-4.028l2.685-4.219
								c0.706-1.333,1.699-3.082,2.351-4.441l1.976-4.605c0.479-1.438,1.181-3.335,1.6-4.791l1.195-4.925
								c0.235-1.522,0.614-3.545,0.783-5.076l0.347-5.178l0.016-1.827l-0.257-5.211c-0.209-1.533-0.423-3.587-0.696-5.109
								l-1.115-4.959c-0.456-1.447-1.006-3.397-1.522-4.825l-1.902-4.642c-0.684-1.343-1.543-3.161-2.279-4.476l-2.619-4.258
								c-0.89-1.219-2.029-2.881-2.967-4.064l-3.264-3.809c-1.076-1.077-2.473-2.554-3.589-3.589l-3.832-3.291
								c-1.245-0.917-2.873-2.185-4.152-3.054l-4.302-2.696c-1.404-0.742-3.251-1.779-4.682-2.467l-4.564-1.993
								c-1.59-0.564-3.695-1.357-5.307-1.858l-2.885-0.813c-4.278-1.013-7.252-1.66-12.462-2.113
								C125.648,51.926,149.035,78.226,149.239,111.146"/>
						</g>
						<g>
							<path fill="#8A8A8A" d="M25.75,93.568c19.828-49.283,90.727-35.086,112.488,10.843c3.805,8.029,8.922,24.392,0.452,43.768
								c6.726-10.607,10.634-23.388,10.549-37.032c-0.204-32.92-23.591-59.22-53.419-61.618c-0.276-0.021-0.644-0.048-0.919-0.068
								c-0.269-0.017-0.628-0.041-0.897-0.055l-0.597-0.03l-0.572-0.024l-0.43-0.015l-0.41-0.012l-0.336-0.008l-0.322-0.006
								l-0.282-0.003l-0.273-0.003l-0.252-0.001c-0.589,0.001-1.178,0.005-1.768,0.019l-0.314,0.008l-0.332,0.011l-0.699,0.029
								c-1.81,0.099-4.604,0.29-7.955,0.805l-3.731,0.69c-2.11,0.506-4.91,1.242-6.993,1.854l-4.707,1.691
								c-1.538,0.678-3.606,1.545-5.116,2.284l-4.493,2.433c-1.329,0.851-3.131,1.941-4.426,2.842l-4.055,3.058
								c-1.156,1.015-2.734,2.328-3.85,3.387l-3.517,3.604c-0.974,1.164-2.316,2.68-3.244,3.88l-2.902,4.079
								c-0.774,1.294-1.857,2.99-2.581,4.313l-2.215,4.486c-0.556,1.405-1.354,3.257-1.853,4.684
								c-0.153,0.459-0.357,1.073-0.511,1.532C25.413,94.565,25.594,93.991,25.75,93.568"/>
							<path fill="#8A8A8A" d="M149.239,111.146c0.085,13.645-3.823,26.425-10.549,37.032c-0.231,0.56-0.54,1.307-0.771,1.866
								c-11.398,21.546-31.406,26.03-42.318,26.786l1.151-0.106c2.229-0.236,4.874-0.544,8.064-1.2l4.353-1.059
								c1.825-0.566,4.259-1.32,6.057-1.968l4.684-1.951c1.458-0.734,3.425-1.672,4.854-2.463l4.364-2.646
								c1.271-0.906,3-2.07,4.237-3.024l3.888-3.244c1.098-1.065,2.602-2.447,3.657-3.554l3.323-3.767
								c0.911-1.208,2.171-2.786,3.034-4.028l2.685-4.219c0.706-1.333,1.699-3.082,2.351-4.441l1.976-4.605
								c0.479-1.438,1.181-3.335,1.6-4.791l1.195-4.925c0.235-1.522,0.614-3.545,0.783-5.076l0.347-5.178l0.016-1.827l-0.257-5.211
								c-0.209-1.533-0.423-3.587-0.696-5.109l-1.115-4.959c-0.456-1.447-1.006-3.397-1.522-4.825l-1.902-4.642
								c-0.684-1.343-1.543-3.161-2.279-4.476l-2.619-4.258c-0.89-1.219-2.029-2.881-2.967-4.064l-3.264-3.809
								c-1.076-1.077-2.473-2.554-3.589-3.589l-3.832-3.291c-1.245-0.917-2.873-2.185-4.152-3.054l-4.302-2.696
								c-1.404-0.742-3.251-1.779-4.682-2.467l-4.564-1.993c-1.59-0.564-3.695-1.357-5.307-1.858l-2.885-0.813
								c-4.278-1.013-7.252-1.66-12.462-2.113C125.648,51.926,149.035,78.226,149.239,111.146"/>
						</g>
						<g>
							<path fill="#858585" d="M29.879,84.233c28.824-47.347,101.047-22.832,114.977,26.607c2.488,8.83,1.956,15.459,1.198,21.491
								c2.106-6.67,3.23-13.802,3.185-21.186c-0.204-32.92-23.591-59.22-53.419-61.618c-0.276-0.021-0.644-0.048-0.919-0.068
								c-0.269-0.017-0.628-0.041-0.897-0.055l-0.597-0.03l-0.572-0.024l-0.43-0.015l-0.41-0.012l-0.336-0.008l-0.322-0.006
								l-0.282-0.003l-0.273-0.003l-0.252-0.001c-0.589,0.001-1.178,0.005-1.768,0.019l-0.314,0.008l-0.332,0.011l-0.699,0.029
								c-1.81,0.099-4.604,0.29-7.955,0.805l-3.731,0.69c-2.11,0.506-4.91,1.242-6.993,1.854l-4.707,1.691
								c-1.538,0.678-3.606,1.545-5.116,2.284l-4.493,2.433c-1.329,0.851-3.131,1.941-4.426,2.842l-4.055,3.058
								c-1.156,1.015-2.734,2.328-3.85,3.387l-3.517,3.604c-0.974,1.164-2.316,2.68-3.244,3.88l-2.902,4.079
								c-0.774,1.294-1.857,2.99-2.581,4.313L29.879,84.233"/>
							<path fill="#858585" d="M149.239,111.146c0.046,7.384-1.078,14.516-3.185,21.186c-0.013,0.718-0.028,1.674-0.041,2.392
								c-2.77,18.454-15.522,33.007-34.114,38.929c2.435-0.845,5.63-2.114,8.009-3.105c1.458-0.734,3.425-1.672,4.854-2.463
								l4.364-2.646c1.271-0.906,3-2.07,4.237-3.024l3.888-3.244c1.098-1.065,2.602-2.447,3.657-3.554l3.323-3.767
								c0.911-1.208,2.171-2.786,3.034-4.028l2.685-4.219c0.706-1.333,1.699-3.082,2.351-4.441l1.976-4.605
								c0.479-1.438,1.181-3.335,1.6-4.791l1.195-4.925c0.235-1.522,0.614-3.545,0.783-5.076l0.347-5.178l0.016-1.827l-0.257-5.211
								c-0.209-1.533-0.423-3.587-0.696-5.109l-1.115-4.959c-0.456-1.447-1.006-3.397-1.522-4.825l-1.902-4.642
								c-0.684-1.343-1.543-3.161-2.279-4.476l-2.619-4.258c-0.89-1.219-2.029-2.881-2.967-4.064l-3.264-3.809
								c-1.076-1.077-2.473-2.554-3.589-3.589l-3.832-3.291c-1.245-0.917-2.873-2.185-4.152-3.054l-4.302-2.696
								c-1.404-0.742-3.251-1.779-4.682-2.467l-4.564-1.993c-1.59-0.564-3.695-1.357-5.307-1.858l-2.885-0.813
								c-4.278-1.013-7.252-1.66-12.462-2.113C125.648,51.926,149.035,78.226,149.239,111.146"/>
						</g>
						<path fill="#949494" d="M77.826,175.928c50.706,7.577,74.325-41.706,49.464-77.788C99.603,57.956,31.562,55.74,23.019,105.658
							c-0.367,2.143-0.383,2.557-0.582,7.625l0.258,5.537c0.37,2.714,0.958,6.321,1.533,8.998l1.43,4.844
							c0.548,1.409,1.217,3.313,1.826,4.697l2.19,4.5c0.767,1.297,1.738,3.057,2.556,4.322l2.879,4.092
							c0.965,1.166,2.208,2.758,3.217,3.886l3.495,3.614c1.144,1.017,2.633,2.415,3.815,3.388l4.029,3.067
							c1.308,0.851,3.021,2.03,4.36,2.831l4.444,2.438c1.468,0.672,3.405,1.613,4.897,2.229l4.497,1.666
							c1.707,0.505,3.977,1.204,5.703,1.638C74.84,175.319,76.542,175.689,77.826,175.928"/>
						<path fill="#999999" d="M65.911,172.711c51.172,17.088,83.733-29.771,61.648-68.668
							C103.242,61.217,36.8,59.239,24.525,100.977c-2.431,8.267-2.306,14.391-1.269,22.174c0.6,2.882,1.568,6.689,2.402,9.512
							c0.548,1.409,1.217,3.313,1.826,4.697l2.19,4.5c0.767,1.297,1.738,3.057,2.556,4.322l2.879,4.092
							c0.965,1.166,2.208,2.758,3.217,3.886l3.495,3.614c1.144,1.017,2.633,2.415,3.815,3.388l4.029,3.067
							c1.308,0.851,3.021,2.03,4.36,2.831l4.444,2.438c1.468,0.672,3.405,1.613,4.897,2.229
							C64.129,172.024,65.139,172.44,65.911,172.711"/>
						<path fill="#9E9E9E" d="M54.716,167.465c46.865,24.903,87.5-10.759,75.07-51.133c-14.174-46.042-80.76-60.141-101.782-21.551
							c-9.472,17.388-3.517,34.442-1.56,40.046c0.882,2.147,2.214,4.944,3.23,7.032c0.767,1.297,1.738,3.057,2.556,4.322
							l2.879,4.092c0.965,1.166,2.208,2.758,3.217,3.886l3.495,3.614c1.144,1.017,2.633,2.415,3.815,3.388l4.029,3.067l3.202,2.124
							L54.716,167.465"/>
						<path fill="#A3A3A3" d="M44.821,160.454c40.07,32.802,88.372,7.562,84.624-32.273c-4.729-50.275-72.15-68.79-97.209-37.618
							C14.39,112.76,24.874,144.125,44.821,160.454"/>
						<path fill="#A8A8A8" d="M40.487,156.269c35.22,34.537,87.776,18.048,86.517-27.143c-1.157-41.546-62.323-68.862-90.898-40.595
							C13.892,110.506,25.295,141.372,40.487,156.269"/>
						<path fill="#ADADAD" d="M40.687,156.122c34.65,33.771,83.302,14.688,83.967-22.409c0.835-46.5-60.31-69.632-88.423-43.231
							C17.071,108.474,23.066,138.948,40.687,156.122"/>
						<path fill="#B3B3B3" d="M37.064,151.579c29.425,34.75,81.885,24.241,85.049-17.035c2.944-38.399-53.374-72.417-86.649-41.123
							C22.654,105.467,20.24,131.711,37.064,151.579"/>
						<path fill="#B8B8B8" d="M37.557,151.435c28.843,33.852,78.724,23.546,82.11-16.964c3.256-38.943-52.57-66.905-81.827-40.986
							C20.127,109.178,23.786,135.273,37.557,151.435"/>
						<path fill="#BDBDBD" d="M38.192,151.292c30.365,35.27,78.588,18.393,79.186-17.734c0.631-38.119-53.332-63.042-80.195-37.038
							C21.427,111.772,25.323,136.346,38.192,151.292"/>
						<path fill="#C2C2C2" d="M35.407,146.416c24.994,36.736,73.204,26.559,79.015-7.465c6.852-40.117-47.691-64.589-74.553-42.647
							C25.741,107.845,23.823,129.388,35.407,146.416"/>
						<path fill="#C7C7C7" d="M36.298,146.275c22.396,32.305,69.083,27.767,75.688-7.357c7.159-38.065-41.088-61.295-69.262-42.158
							C25.382,108.541,25.838,131.187,36.298,146.275"/>
						<path fill="#CCCCCC" d="M37.326,146.135c21.375,30.48,64.737,26.148,72.496-7.242c7.967-34.286-35.568-57.259-63.797-42.035
							C29.013,106.034,25.029,128.6,37.326,146.135"/>
						<path fill="#D1D1D1" d="M35.518,140.997c19.727,35.089,63.552,28.7,72.114-2.125c9.411-33.88-36.008-56.611-61.971-39.437
							C26.675,111.995,30.724,132.113,35.518,140.997"/>
						<path fill="#D6D6D6" d="M39.895,145.851c22.249,30.356,62.851,17.848,66.809-12.42c4.094-31.304-37.247-47.6-61.336-31.334
							C31.521,111.447,29.066,131.075,39.895,145.851"/>
						<path fill="#DBDBDB" d="M41.437,145.708c20.586,27.867,59.157,15.802,63.346-12.289c4.989-33.459-39.146-44.977-59.626-28.62
							C32.788,114.678,31.223,131.882,41.437,145.708"/>
						<path fill="#E0E0E0" d="M40,140.512c16.492,30.254,57.857,20.994,63.381-7.1c5.521-28.078-33.055-43.854-54.743-28.723
							C36.814,112.939,33.181,128.004,40,140.512"/>
						<path fill="#E6E6E6" d="M41.974,140.361c15.121,26.954,53.831,18.315,59.998-6.953c5.856-23.991-25.964-42.684-49.344-28.986
							C39.406,112.168,34.826,127.619,41.974,140.361"/>
						<path fill="#EBEBEB" d="M44.115,140.214c13.309,23.887,49.857,15.789,56.442-6.81c6.782-23.274-25.975-41.692-48.013-26.997
							C40.654,114.337,37.267,127.922,44.115,140.214"/>
						<path fill="#F0F0F0" d="M46.588,140.062c14.069,21.271,45.596,14.007,52.548-6.659c6.857-20.383-21.08-37.558-39.048-29.142
							C32.475,117.193,46.439,139.836,46.588,140.062"/>
						<path fill="#F5F5F5" d="M49.257,139.915c14.721,20.874,48.886,8.515,49.646-12.159c0.768-20.855-31.081-32.536-46.681-17.12
							C38.697,124,48.137,138.325,49.257,139.915"/>
						<path fill="#FAFAFA" d="M48.668,134.47c8.464,19.612,40.116,18.904,47.702-1.066c6.825-17.97-15.694-35.144-35.436-27.024
							C52.927,109.674,42.516,120.212,48.668,134.47"/>
						<path fill="#FFFFFF" d="M50.503,134.381c9.211,17.645,37.234,17.033,44.753-0.976c6.805-16.299-13.258-34.997-34.344-25.802
							C55.066,110.153,43.768,121.479,50.503,134.381"/>
						<path fill="#FFFFFF" d="M52.409,134.295c5.535,9.071,18.428,11.816,20.962,11.434c6.486-0.982,10.771-1.631,15.017-5.066
							c1.546-1.25,6.635-5.877,7.197-12.903c1.009-12.612-10.152-17.813-16.821-20.921c-2.499-1.165-14.515-1.335-20.402,3.575
							C49.845,117.518,47.62,126.446,52.409,134.295"/>
						<path fill="#FFFFFF" d="M54.384,134.212c10.297,16.033,38.529,11.512,40.277-6.451c0.418-4.29-0.513-12.319-11.438-17.881
							c-11.999-6.109-21.984-0.143-22.766,0.467C48.674,119.542,50.651,128.4,54.384,134.212"/>
						<path fill="#FFFFFF" d="M54.498,130.623c3.448,7.692,9.624,11.924,18.355,12.577c9.603,0.717,16.781-5.619,19.051-9.781
							c4.972-9.118-1.191-16.64-1.91-17.468c-3.367-3.875-11.156-7.323-11.23-7.353c-2.527-1.005-6.342-1.06-9.038-0.705
							c-1.972,0.26-10.191,2.508-14.379,8.758C55.305,116.715,51.341,123.579,54.498,130.623"/>
						<path fill="#FFFFFF" d="M57.462,134.093c2.936,3.717,9.823,9.601,22.965,7.249c0.109-0.02,11.088-3.727,12.382-13.574
							c1.43-10.89-9.02-15.885-14.042-18.285c-2.455-1.173-6.361-1.156-9.043-0.697c-1.531,0.262-7.364,2.748-8.791,3.747
							C51.927,118.836,53.538,129.125,57.462,134.093"/>
						<path fill="#FFFFFF" d="M58.904,134.042c7.497,8.911,17.974,6.919,21.417,6.265c0.1-0.02,10.229-3.53,11.56-12.535
							c0.472-3.189,0.783-5.297-3.925-11.592c-0.314-0.42-8.978-5.722-9.049-5.754c-2.517-1.141-6.464-1.248-9.181-0.744
							c-1.174,0.218-8.712,4.04-8.76,4.073C56.764,116.688,51.845,125.651,58.904,134.042"/>
						<path fill="#FFFFFF" d="M60.37,133.993c0.766,0.871,3.886,3.878,11.896,6.004c2.315,0.615,5.604-0.258,7.951-0.735
							c0.169-0.034,7.805-5.21,8.01-5.429c0.718-0.769,2.719-6.017,2.725-6.055c1.095-6.674-3.456-12.883-12.172-16.61
							c-2.502-1.07-6.389-1.18-9.049-0.61c-2.868,0.614-6.332,2.717-8.723,4.415C60.902,115.048,51.389,123.774,60.37,133.993"/>
						<path fill="#FFFFFF" d="M61.849,133.945c2.097,2.294,10.167,4.978,10.239,4.995c2.353,0.563,5.677-0.098,8.04-0.615
							c2.518-0.551,5.31-2.995,7.073-4.874c1.3-1.385,2.509-3.794,2.821-5.668c1.743-10.465-11.104-15.739-11.233-15.791
							c-2.525-1.011-6.401-1.207-9.049-0.581c-2.892,0.684-6.285,3.013-8.679,4.774C60.969,116.252,52.888,124.145,61.849,133.945"
							/>
						<path fill="#FFFFFF" d="M63.04,133.574c0.647,0.746,8.836,4.428,8.898,4.442c2.378,0.539,5.727-0.06,8.107-0.588
							c0.383-0.085,8.206-4.592,9.046-9.639c1.632-9.799-9.805-14.769-10.292-14.976c-2.503-1.062-6.391-1.132-9.047-0.551
							c-2.503,0.548-5.528,2.479-7.458,4.164C59.293,119.045,55.399,124.757,63.04,133.574"/>
						<path fill="#FFFFFF" d="M62.673,131.463c2.886,3.413,6.953,4.986,9.121,5.621c2.358,0.69,5.739-0.22,8.172-0.56
							c1.799-0.251,7.3-5.791,8.148-8.617c0.507-1.69,0.288-4.262-0.447-5.867c-0.977-2.135-3.169-4.549-4.997-6.023
							c-1.059-0.854-2.531-2.085-3.858-2.384c-2.651-0.597-6.394-1.127-9.043-0.522C66.234,113.919,54.189,121.433,62.673,131.463"
							/>
						<path fill="#FFFFFF" d="M62.338,129.324c5.575,6.695,8.737,6.857,9.315,6.822c2.471-0.152,6.059,0.649,8.236-0.531
							c0.977-0.53,2.29-1.299,3.041-2.119c1.42-1.553,3.528-3.665,4.101-5.689c0.478-1.688,0.454-4.336-0.465-5.832
							c-0.519-0.845-3.33-5.176-7.738-7.523c-2.397-1.276-6.349-0.874-9.038-0.493c-1.46,0.207-3.184,1.417-4.301,2.38
							c-0.038,0.032-4.249,5.274-4.456,6.128C61.022,122.507,60.717,127.378,62.338,129.324"/>
						<path fill="#FFFFFF" d="M68.546,133.757c0.813,0.565,1.983,1.36,2.97,1.442c2.485,0.208,6.25,0.923,8.296-0.501
							c3.761-2.616,6.056-6.844,6.073-6.882c0.713-1.604,0.268-4.218-0.417-5.832c-0.02-0.046-4.211-5.611-6.625-6.718
							c-2.466-1.131-6.319-0.516-9.031-0.464c-2.801,0.054-7.562,7.552-7.583,7.627c-0.483,1.689-0.237,4.291,0.619,5.826
							C64.006,130.331,66.596,132.401,68.546,133.757"/>
						<path fill="#FFFFFF" d="M64.139,128.218c0.032,0.062,6.186,6.05,7.246,6.029c2.51-0.048,6.093,0.616,8.355-0.472
							c0.67-0.322,4.988-5.906,5.002-5.948c0.542-1.667,0.416-4.265-0.37-5.832c-1.085-2.167-3.634-4.376-5.511-5.91
							c-0.022-0.019-8.96-0.455-9.022-0.441c-1.734,0.402-6.339,6.693-6.356,6.75C62.974,124.078,63.32,126.663,64.139,128.218"/>
						<path fill="#FFFFFF" d="M65.437,128.183c1.095,2.016,3.614,4.297,5.805,4.979c2.414,0.753,6.16,0.604,8.411-0.548
							c1.654-0.846,4.039-2.918,3.946-4.774c-0.087-1.75,0.394-4.232-0.323-5.832c-0.786-1.756-2.65-3.846-4.384-4.681
							c-2.444-1.178-6.497-1.702-9.018-0.696c-2.143,0.855-4.445,3.526-5.132,5.729C64.219,124.04,64.597,126.637,65.437,128.183"/>
						<path fill="#FFFFFF" d="M66.741,128.149c0.824,1.51,2.673,3.327,4.342,3.745c2.473,0.62,6.208,0.626,8.48-0.53
							c4.887-2.488,3.76-10.72-0.635-12.801c-2.445-1.158-6.491-1.625-8.998-0.607c-1.632,0.664-3.403,2.687-3.922,4.37
							S65.897,126.604,66.741,128.149"/>
						<path fill="#FFFFFF" d="M68.052,128.116c0.55,1.004,1.754,2.304,2.881,2.5c2.53,0.439,6.256,0.649,8.545-0.515
							c1.958-0.995,1.958-0.995,1.608-8.065c-0.045-0.925-1.28-1.852-2.118-2.242c-2.443-1.14-6.479-1.547-8.972-0.519
							c-1.126,0.464-2.354,1.855-2.716,3.02C66.757,123.976,67.205,126.571,68.052,128.116"/>
						<path fill="#FFFFFF" d="M69.368,128.084c0.273,0.496,0.858,1.199,1.423,1.241c2.579,0.191,6.3,0.675,8.607-0.496
							c0.907-0.46,0.907-0.46,0.595-6.779c-0.021-0.427-0.592-0.855-0.98-1.033c-2.441-1.121-6.464-1.466-8.943-0.432
							c-0.625,0.262-1.312,1.03-1.512,1.678C68.039,123.949,68.519,126.54,69.368,128.084"/>
						<path fill="#FFFFFF" d="M70.615,127.593c1.584-1.652,3.702-3.85,5.309-5.479c-1.732-0.067-4.176-0.898-5.772-0.225
							c-0.128,0.055-0.271,0.212-0.311,0.345C69.366,123.788,70.362,125.989,70.615,127.593"/>
					</g>
					<g clip-path="url(#SVGID_2_)">
						<g>
							<path fill="#F89939" d="M143.384,84.069c-8.777-19.333-26.576-32.854-47.564-34.541c-0.605-0.045-1.21-0.09-1.816-0.123
								c-0.39-0.02-0.78-0.042-1.169-0.054c-0.252-0.008-0.588-0.011-0.84-0.027c-0.198-0.004-0.461-0.014-0.658-0.014l-0.555-0.006
								c-0.896,0-1.083,0-2.02,0.018c-0.194,0.005-0.452,0.019-0.646,0.019c-2.942,0.123-5.853,0.404-8.654,0.834
								c-4.391,0.812-5.57,1.031-10.724,2.544c-6.159,2.213-6.399,2.299-9.823,3.975c-6.02,3.26-6.02,3.26-8.919,5.275
								c-5.421,4.089-5.421,4.089-7.905,6.445c-4.69,4.806-4.69,4.806-6.761,7.483c-1.343,1.889-3.116,4.422-4.342,6.389
								C37.41,80.565,113.914,80.426,143.384,84.069"/>
							<path fill="#F89939" d="M138.38,75.078c2.826,0.381,7.096,0.957,7.812,1.877l-1.333-1.743
								c-4.355-5.082-4.355-5.082-6.853-7.398c-5.132-4.406-5.132-4.406-7.984-6.345c-5.665-3.55-5.773-3.618-8.983-5.163
								c-5.983-2.613-6.217-2.715-9.871-3.852c-3.251-0.917-8.163-2.302-15.347-2.926C113.376,50.939,128.7,60.63,138.38,75.078"/>
						</g>
						<path fill="#FFFFFF" d="M142.046,142.239c-31.375-3.802-109.008-3.503-113.092-1.762l-1.469-3.117
							c-2.422-6.229-2.422-6.229-3.256-9.541c-1.195-5.824-1.517-7.389-1.79-14.21c0.255-6.923,0.255-6.923,0.826-10.332
							c1.39-6.562,1.39-6.562,2.516-9.816c2.428-6.141,2.428-6.141,4.068-9.169l1.094-1.926c6.434-1.727,83-1.867,112.478,1.783
							c3.675,8.124,5.759,17.272,5.819,26.998C149.309,122.331,146.695,132.936,142.046,142.239 M149.239,111.146
							c-0.084-13.513-4.074-25.911-10.812-35.998c2.828,0.381,7.103,0.958,7.817,1.879c1.302,1.924,3.019,4.506,4.199,6.506
							c3.027,5.943,3.027,5.943,4.182,9.118c2.029,6.428,2.029,6.428,2.638,9.784c0.905,6.635,0.94,6.894,0.953,10.321
							c-0.077,2.103-0.163,4.911-0.362,7.005c-1.032,6.703-1.032,6.703-1.979,10.001c-0.506,1.515-1.126,3.555-1.698,5.046
							c-0.108-0.853-1.438-1.494-8.134-2.442C148.157,125.686,149.285,118.543,149.239,111.146"/>
						<path fill="#108140" d="M90.724,176.997c22.124-0.966,41.285-14.816,51.236-34.588c-31.326-3.797-108.84-3.497-112.918-1.758
							c0.938,1.67,2.167,3.912,3.189,5.531c3.832,5.444,3.832,5.444,6.097,7.978c4.66,4.819,4.66,4.819,7.31,7.002
							c5.394,4.107,5.394,4.107,8.389,5.898c5.876,3.223,5.989,3.284,9.341,4.666c5.751,2.131,6.221,2.306,10.2,3.304
							c4.231,0.942,6.732,1.402,11.268,1.808c0.605,0.044,1.21,0.089,1.817,0.122c0.351,0.017,0.818,0.043,1.17,0.055
							c0.252,0.008,0.588,0.027,0.84,0.027c0.197,0.004,0.461,0.014,0.658,0.014l0.555,0.006l0.5,0.002l0.481-0.002
							c0.312-0.005,0.727-0.01,1.039-0.018c0.194-0.006,0.452-0.019,0.646-0.019c4.042-0.181,8.402-0.713,12.275-1.501
							c5.469-1.33,6.172-1.501,10.409-3.026c6.203-2.584,6.321-2.634,9.537-4.414c5.846-3.545,5.846-3.545,8.602-5.671
							c5.201-4.34,5.201-4.34,7.545-6.798c4.421-5.011,4.421-5.011,6.357-7.795c3.585-5.634,3.585-5.634,5.035-8.66l1.807-4.168
							c-0.594-0.916-0.921-1.421-8.122-2.44C138.03,157.448,116.367,175.877,90.724,176.997"/>
					</g>
				</g>
				<g enable-background="new    ">
					<defs>
						<path id="SVGID_3_" enable-background="new    " d="M84.834,176.837c-3.676-0.323-7.047-0.834-10.021-1.518
							c-1.784-0.41-4.142-1.05-5.892-1.585c-1.378-0.421-3.172-1.112-4.528-1.598c-1.754-0.628-4.035-1.637-5.677-2.517
							c-4.438-2.379-6.463-3.464-8.966-5.332c-1.242-0.927-2.915-2.144-4.113-3.127c-1.171-0.962-2.684-2.305-3.778-3.353
							c-0.919-0.879-3.716-3.556-6.73-7.511c-6.125-8.038-8.638-15.249-9.464-17.618c-1.543-4.428-2.186-8.229-2.46-9.852
							c-0.463-2.737-0.657-6.447-0.766-9.22c-0.061-1.564,0.002-3.661,0.192-5.214c0.188-1.531,0.376-3.581,0.631-5.102
							c0.252-1.509,0.676-3.507,1.056-4.989c1.098-4.282,2.344-7.331,3.307-9.508c1.966-4.446,3.944-7.494,4.789-8.795
							c2.473-3.811,6.817-9.493,13.467-14.922c1.198-0.978,2.815-2.269,4.115-3.107c2.565-1.655,6.066-3.74,8.752-5.192
							c1.217-0.658,5.819-2.76,9.991-4.059c5.692-1.772,9.613-2.46,13.75-2.948c6.65-0.784,11.679-0.377,13.331-0.244
							c-1.937-0.156-3.901-0.211-5.888-0.16c1.987-0.051,3.951,0.004,5.888,0.16c1.709,0.173,3.988,0.417,5.683,0.694
							c1.775,0.29,4.123,0.793,5.877,1.192c1.149,0.261,2.663,0.688,3.787,1.041c1.436,0.451,3.32,1.141,4.74,1.637
							c3.996,1.395,11.047,5.127,14.114,7.377c1.229,0.901,2.9,2.059,4.093,3.007c1.204,0.957,2.763,2.293,3.892,3.338
							c3.119,2.889,5.448,5.618,6.853,7.398c0.789,1,3.188,4.041,5.586,8.322c2.791,4.983,4.168,9.077,4.182,9.118
							c1.154,3.465,1.917,5.755,2.638,9.784c0.546,3.056,0.849,7.202,0.953,10.305c0.001,0.035-0.038,4.665-0.362,7.021
							c-0.42,3.051-0.896,6.51-1.979,10.001c-0.902,2.911-1.683,5.425-3.575,9.396c-1.29,2.706-3.32,6.171-5.021,8.641
							c-1.272,1.848-3.407,4.699-6.347,7.788c-2.991,3.145-5.191,4.913-7.521,6.786c-2.47,1.986-6.95,4.833-8.65,5.709
							c-1.343,0.693-3.095,1.701-4.486,2.293c-1.4,0.595-3.249,1.433-4.67,1.978c-1.366,0.523-3.211,1.164-4.613,1.581
							c-1.834,0.546-4.3,1.216-6.177,1.589c-2.435,0.484-4.114,0.766-7.625,1.155C91.749,177.283,87.113,177.038,84.834,176.837z"/>
					</defs>
					<clipPath id="SVGID_4_">
						<use xlink:href="#SVGID_3_"  overflow="visible"/>
					</clipPath>
					<g clip-path="url(#SVGID_4_)" enable-background="new    ">
						<path fill="#8F8F8F" d="M84.834,176.837c-19.214-1.688-31.711-10.032-35.084-12.549c-5.285-3.944-17.663-13.182-24.085-31.608
							c-6.187-17.751-1.548-33.706-1.347-34.377c2.005-6.706,6.179-20.661,21.563-33.226c6.493-5.303,24.356-17.435,49.921-15.55
							c-1.919-0.154-3.883-0.209-5.87-0.159c1.987-0.051,3.951,0.004,5.888,0.16c44.704,4.536,57.489,39.17,58.799,43.105
							c4.353,13.065,4.777,25.553,1.262,37.114c-4.02,13.219-11.579,24.196-22.469,32.627
							C113.253,177.983,91.133,177.39,84.834,176.837"/>
						<path fill="#8F8F8F" d="M155.876,129.763c-2.098,6.284-2.098,6.284-3.575,9.396l-2.338,4.42
							c-0.809,1.272-1.839,3.001-2.697,4.24l-3.012,4.001c-1.003,1.139-2.299,2.695-3.346,3.794l-3.611,3.513
							c-1.18,0.986-2.718,2.345-3.934,3.285l-4.125,2.95c-1.342,0.817-3.104,1.955-4.477,2.721l-4.486,2.293
							c-1.514,0.641-3.514,1.54-5.051,2.121l-4.232,1.438c-1.847,0.501-4.31,1.17-6.177,1.589l-1.252,0.248
							c-3.952,0.696-7.661,1.117-11.023,1.253l-0.332,0.011l-0.314,0.008l-0.278,0.007l-0.267,0.005l-0.25,0.003
							c-0.594,0.004-1.187,0.005-1.781-0.003l-0.322-0.006l-0.336-0.008l-0.409-0.012l-0.431-0.016l-0.569-0.023l-0.601-0.031
							l-0.88-0.054c-0.281-0.021-0.656-0.047-0.937-0.068l-2.425-0.238c-3.16-0.421-4.901-0.652-8.843-1.569l-4.645-1.295
							c-1.671-0.59-3.91-1.35-5.555-2.009l-4.651-2.105c-1.409-0.766-3.312-1.742-4.69-2.561l-4.276-2.771
							c-1.234-0.938-2.915-2.144-4.113-3.127l-3.778-3.353c-1.06-1.094-2.515-2.515-3.532-3.649l-3.199-3.861
							c-0.87-1.234-2.079-2.848-2.898-4.116l-2.545-4.303c-0.661-1.356-1.599-3.137-2.201-4.52l-1.82-4.68
							c-0.431-1.459-1.065-3.387-1.436-4.861l-1.024-4.99c-0.324-2.757-0.654-6.447-0.766-9.22l0.192-5.214
							c0.19-1.535,0.378-3.592,0.633-5.118l1.053-4.973c0.438-1.453,0.966-3.409,1.462-4.843l1.845-4.665
							c0.667-1.352,1.505-3.179,2.223-4.504L32.414,80c0.875-1.23,1.995-2.906,2.917-4.101l3.216-3.849
							c1.063-1.09,2.44-2.585,3.544-3.634l3.79-3.338c1.234-0.933,2.847-2.221,4.115-3.107l4.266-2.748
							c1.395-0.76,3.23-1.82,4.653-2.527l4.527-2.045c1.586-0.586,3.688-1.407,5.296-1.93l3.674-1.068
							c2.104-0.492,4.923-1.089,7.049-1.477l1-0.148c1.25-0.166,4.175-0.554,7.654-0.686l0.332-0.011l0.314-0.008l0.277-0.006
							l0.268-0.005l0.249-0.004c0.594-0.003,1.187-0.004,1.78,0.003l0.322,0.006l0.336,0.008l0.409,0.012l0.431,0.015l-0.621-0.02
							c-49.976-0.8-70.031,53.108-33.529,90.126c32.646,33.11,90.331,29.61,98.875-17.428l-0.966,5.002L155.876,129.763"/>
						<path fill="#8A8A8A" d="M152.301,139.16c-3.109,5.879-3.109,5.879-5.035,8.66l-3.012,4.001
							c-1.003,1.139-2.299,2.695-3.346,3.794l-3.611,3.513c-1.18,0.986-2.718,2.345-3.934,3.285l-4.125,2.95
							c-1.342,0.817-3.104,1.955-4.477,2.721l-4.486,2.293c-1.514,0.641-3.514,1.54-5.051,2.121l-4.232,1.438
							c-1.847,0.501-4.31,1.17-6.177,1.589l-1.252,0.248c-3.952,0.696-7.661,1.117-11.023,1.253l-0.332,0.011l-0.314,0.008
							l-0.278,0.007l-0.267,0.005l-0.25,0.003c-0.594,0.004-1.187,0.005-1.781-0.003l-0.322-0.006l-0.336-0.008l-0.409-0.012
							l-0.431-0.016l-0.569-0.023l-0.601-0.031l-0.88-0.054c-0.281-0.021-0.656-0.047-0.937-0.068l-2.425-0.238
							c-3.16-0.421-4.901-0.652-8.843-1.569l-4.645-1.295c-1.671-0.59-3.91-1.35-5.555-2.009l-4.651-2.105
							c-1.409-0.766-3.312-1.742-4.69-2.561l-4.276-2.771c-1.234-0.938-2.915-2.144-4.113-3.127l-3.778-3.353
							c-1.06-1.094-2.515-2.515-3.532-3.649l-3.199-3.861c-0.87-1.234-2.079-2.848-2.898-4.116l-2.545-4.303
							c-0.661-1.356-1.599-3.137-2.201-4.52l-1.82-4.68c-0.431-1.459-1.065-3.387-1.436-4.861l-1.024-4.99
							c-0.324-2.757-0.654-6.447-0.766-9.22l0.192-5.214c0.19-1.535,0.378-3.592,0.633-5.118l1.053-4.973
							c0.438-1.453,0.966-3.409,1.462-4.843l1.845-4.665c0.667-1.352,1.505-3.179,2.223-4.504L32.414,80
							c0.875-1.23,1.995-2.906,2.917-4.101l3.216-3.849c1.063-1.09,2.44-2.585,3.544-3.634l3.79-3.338
							c1.234-0.933,2.847-2.221,4.115-3.107l4.266-2.748c1.395-0.76,3.23-1.82,4.653-2.527l4.527-2.045
							c1.586-0.586,3.688-1.407,5.296-1.93l3.674-1.068c2.104-0.492,4.923-1.089,7.049-1.477l1-0.148
							c1.311-0.174,1.909-0.254,3.688-0.424l-0.625,0.056c-49.734,5.076-62.683,64.35-21.316,97.573
							c34.866,28.003,81.02,20.151,93.177-15.853l-1.723,4.72L152.301,139.16"/>
						<path fill="#858585" d="M147.266,147.82c-4.021,5.341-4.021,5.341-6.357,7.795l-3.611,3.513
							c-1.18,0.986-2.718,2.345-3.934,3.285l-4.125,2.95c-1.342,0.817-3.104,1.955-4.477,2.721l-4.486,2.293
							c-1.514,0.641-3.514,1.54-5.051,2.121l-4.232,1.438c-1.847,0.501-4.31,1.17-6.177,1.589l-1.252,0.248
							c-3.952,0.696-7.661,1.117-11.023,1.253l-0.332,0.011l-0.314,0.008l-0.278,0.007l-0.267,0.005l-0.25,0.003
							c-0.594,0.004-1.187,0.005-1.781-0.003l-0.322-0.006l-0.336-0.008l-0.409-0.012l-0.431-0.016l-0.569-0.023l-0.601-0.031
							l-0.88-0.054c-0.281-0.021-0.656-0.047-0.937-0.068l-2.425-0.238c-3.16-0.421-4.901-0.652-8.843-1.569l-4.645-1.295
							c-1.671-0.59-3.91-1.35-5.555-2.009l-4.651-2.105c-1.409-0.766-3.312-1.742-4.69-2.561l-4.276-2.771
							c-1.234-0.938-2.915-2.144-4.113-3.127l-3.778-3.353c-1.06-1.094-2.515-2.515-3.532-3.649l-3.199-3.861
							c-0.87-1.234-2.079-2.848-2.898-4.116l-2.545-4.303c-0.661-1.356-1.599-3.137-2.201-4.52l-1.82-4.68
							c-0.431-1.459-1.065-3.387-1.436-4.861l-1.024-4.99c-0.324-2.757-0.654-6.447-0.766-9.22l0.192-5.214
							c0.19-1.535,0.378-3.592,0.633-5.118l1.053-4.973c0.438-1.453,0.966-3.409,1.462-4.843l1.845-4.665
							c0.667-1.352,1.505-3.179,2.223-4.504L32.414,80c0.875-1.23,1.995-2.906,2.917-4.101l3.216-3.849
							c1.063-1.09,2.44-2.585,3.544-3.634l3.79-3.338c1.234-0.933,2.847-2.221,4.115-3.107l4.266-2.748
							c1.395-0.76,3.23-1.82,4.653-2.527l4.527-2.045c1.47-0.543,3.413-1.314,4.902-1.802l-2.211,0.775
							c-49.646,19.461-41.072,86.456,13.9,108.612c32.2,12.978,60.063-0.476,70.946-20.471l-2.542,4.306L147.266,147.82"/>
						<path fill="#949494" d="M111.167,52.455c6.195,2.14,6.438,2.223,9.871,3.852l4.525,2.377c1.339,0.834,3.152,1.901,4.458,2.786
							l4.093,3.007c1.168,1.001,2.762,2.294,3.892,3.338l3.562,3.559c0.987,1.151,2.35,2.649,3.291,3.839l2.952,4.042
							c0.791,1.284,1.896,2.966,2.634,4.28l2.271,4.458c0.573,1.398,1.394,3.24,1.91,4.66l1.519,4.809
							c0.336,1.493,0.846,3.47,1.119,4.976l0.695,5.093c0.077,1.568,0.252,3.657,0.258,5.228l-0.154,4.29
							c-4.841,49.515-68.959,53.411-100.199,16.964c-34.007-39.675-4.701-87.886,38.381-84.394
							c4.224,0.342,5.528,0.612,10.377,1.615l2.918,0.747L111.167,52.455"/>
						<path fill="#999999" d="M121.038,56.306c5.951,3.127,6.064,3.187,8.983,5.163l4.093,3.007
							c1.168,1.001,2.762,2.294,3.892,3.338l3.562,3.559c0.987,1.151,2.35,2.649,3.291,3.839l2.952,4.042
							c0.791,1.284,1.896,2.966,2.634,4.28l2.271,4.458c0.573,1.398,1.394,3.24,1.91,4.66l1.519,4.809
							c0.336,1.493,0.846,3.47,1.119,4.976c0.22,1.271,0.429,2.978,0.599,4.256c3.657,49.605-53.429,63.468-89.94,33.121
							c-37.748-31.376-24.006-86.016,22.621-89.945c1.163-0.098,11.727-0.819,24.62,3.942l4.611,1.906L121.038,56.306"/>
						<path fill="#9E9E9E" d="M130.021,61.469c1.671,1.157,4.467,3.094,7.984,6.345l3.562,3.559c0.987,1.151,2.35,2.649,3.291,3.839
							l2.952,4.042c0.791,1.284,1.896,2.966,2.634,4.28l2.271,4.458l1.498,3.556l1.185,3.392
							c13.164,49.48-35.138,72.722-75.422,49.941c-43.05-24.344-41.928-80.638,1.847-92.668c18.757-5.154,35.414,1.438,46.084,7.876
							C128.542,60.503,129.399,61.038,130.021,61.469"/>
						<path fill="#A3A3A3" d="M144.146,74.34c28.956,36.457,7.797,81.036-36.516,76.935c-50.148-4.642-76.014-62.988-40.111-90.479
							C92.021,42.034,126.922,52.652,144.146,74.34"/>
						<path fill="#A8A8A8" d="M147.634,79.237c24.721,38.34-3.01,78.694-47.097,68.539c-47.672-10.981-63.809-67.319-25.771-89.972
							C99.91,42.831,133.35,57.082,147.634,79.237"/>
						<path fill="#ADADAD" d="M147.436,79.383c24.101,37.647-3.379,76.523-46.671,66.028c-46.863-11.36-61.252-66.183-22.979-87.551
							C99.712,45.618,132.259,55.676,147.436,79.383"/>
						<path fill="#B3B3B3" d="M150.058,84.589c19.213,38.823-15.617,72.702-57.337,55.771
							c-40.245-16.333-46.092-68.609-9.338-83.485C109.774,46.192,139.166,62.581,150.058,84.589"/>
						<path fill="#B8B8B8" d="M149.56,84.732c17.062,34.819-10.092,66.283-48.424,56.111C56.677,129.044,48.765,79.8,78.849,61.026
							C104.336,45.122,137.788,60.71,149.56,84.732"/>
						<path fill="#BDBDBD" d="M148.938,84.873c16.253,33.477-10.432,63.633-47.587,53.777
							c-39.858-10.572-51.688-56.768-19.78-77.233C102.716,47.855,136.714,59.693,148.938,84.873"/>
						<path fill="#C2C2C2" d="M149.909,88.911c14.18,34.323-20.531,61.326-57.14,44.452c-35.181-16.216-36.198-62.81-1.625-74.411
							C110.819,52.35,139.128,62.812,149.909,88.911"/>
						<path fill="#C7C7C7" d="M149.562,90.508c11.615,35.879-25.007,55.579-56.786,40.847c-34.998-16.225-30.958-60.211-1.518-70.65
							C116.239,51.848,142.643,69.135,149.562,90.508"/>
						<path fill="#CCCCCC" d="M148.531,90.646c10.809,34.2-25.26,53.421-55.75,38.671c-31.783-15.377-28.202-55.141-1.405-66.652
							C114.938,52.543,141.91,69.696,148.531,90.646"/>
						<path fill="#D1D1D1" d="M145.208,85.515c14.939,33.841-16.266,53.085-43.542,45.521c-34.601-9.594-40.78-49.157-10.33-66.145
							C108.583,55.27,136.274,65.871,145.208,85.515"/>
						<path fill="#D6D6D6" d="M146.021,90.927c9.372,31.244-25.432,48.962-53.238,35.147c-26.956-13.392-24.316-51.218,4.28-61.325
							C115.819,58.12,140.069,71.087,146.021,90.927"/>
						<path fill="#DBDBDB" d="M144.539,91.068c8.758,29.672-25.501,46.815-51.757,33.469c-26.739-13.592-19.922-48.446,4.741-57.658
							C117.75,59.324,139.405,73.679,144.539,91.068"/>
						<path fill="#E0E0E0" d="M143.993,96.85c2.158,28.254-37.826,41.525-59.42,19.721c-18.96-19.144,0.182-49.369,24.69-49.657
							C128.365,66.69,142.897,82.51,143.993,96.85"/>
						<path fill="#E6E6E6" d="M142.032,96.996c1.694,27.032-35.426,40.018-55.941,19.571c-20.638-20.569,1.536-47.632,24.225-47.508
							C127.98,69.155,141.209,83.86,142.032,96.996"/>
						<path fill="#EBEBEB" d="M139.826,96.498c3.149,19.946-23.956,37.425-46.997,24.073C72.93,109.04,76.244,82.699,98.74,73.596
							C115.366,66.869,136.469,75.234,139.826,96.498"/>
						<path fill="#F0F0F0" d="M137.845,97.268c1.615,25.152-32.79,34.742-48.708,19.287c-22.272-21.623,3.004-44.48,23.155-42.893
							C126.064,74.747,137.05,84.895,137.845,97.268"/>
						<path fill="#F5F5F5" d="M135.637,97.393c0.344,4.97-0.521,17.24-15.948,23.811c-12.426,5.292-25.811-1.665-29.024-4.658
							c-18.931-17.63-4.135-38.224,15.508-40.657C122.047,73.922,134.821,85.62,135.637,97.393"/>
						<path fill="#FAFAFA" d="M133.574,103.361c-0.895,5.828-5.031,16.001-22.694,18.644c-5.535,0.829-18.487-2.328-24.59-11.567
							c-10.81-16.364,6.476-36.613,27.605-32.338C128.733,81.101,135.108,93.355,133.574,103.361"/>
						<path fill="#FFFFFF" d="M132.047,103.433c-0.989,5.525-5.053,15.172-21.148,17.694c-7.764,1.217-18.755-3.781-23.521-10.694
							c-10.96-15.898,6.545-35.486,27.146-30.375C126.956,83.144,133.622,94.635,132.047,103.433"/>
						<path fill="#FFFFFF" d="M130.475,103.503c-3.725,18.261-30.815,22.727-42.009,6.925c-10.526-14.858,4.466-29.85,18.819-29.789
							C120.81,80.696,132.729,92.449,130.475,103.503"/>
						<path fill="#FFFFFF" d="M128.858,103.572c-0.635,3.082-3.804,13.326-17.936,15.789c-8.492,1.48-18.024-4.346-21.368-8.938
							c-6.662-9.153-1.974-17.388-1.923-17.467c6.242-9.792,15.187-10.989,19.963-10.831
							C121.725,82.591,130.781,94.239,128.858,103.572"/>
						<path fill="#FFFFFF" d="M127.197,101.959c0.441,11.87-16.966,24.294-34.476,10.52c-10.352-8.144-6.203-24.112,7.397-28.478
							c5.689-1.826,13.698-0.579,19.042,2.965C126.829,92.053,127.051,98.015,127.197,101.959"/>
						<path fill="#FFFFFF" d="M126.228,103.676c-1.619,10.708-13.025,13.46-15.296,13.904c-2.671,0.521-6.495,0.256-9.043-0.696
							c-0.073-0.027-8.939-4.894-10.15-6.476c-5.803-7.577-4.218-13.679-1.867-17.464c0.25-0.403,6.266-9.853,18.132-8.718
							c8.4,0.803,13.511,6.257,15.189,8.049C123.802,92.924,126.997,98.585,126.228,103.676"/>
						<path fill="#FFFFFF" d="M125.159,103.716c-0.782,4.625-2.748,6.416-5.469,8.896c-0.033,0.029-7.487,3.817-8.761,4.072
							c-2.668,0.534-6.482,0.252-9.047-0.658c-0.063-0.022-8.878-5.436-9.183-5.812c-4.67-5.776-5.244-11.589-1.707-17.276
							c2.094-3.366,9.272-6.844,9.342-6.875c2.167-0.962,5.507-1.012,7.864-0.769C116.265,86.128,126.944,93.168,125.159,103.716"/>
						<path fill="#FFFFFF" d="M124.074,103.755c-0.082,0.442-0.905,4.411-4.427,7.64c-2.162,1.981-5.824,3.965-8.723,4.414
							c-2.689,0.417-6.518,0.39-9.049-0.608c-0.063-0.025-6.806-3.183-9.192-6.582c-1.436-2.045-5.806-8.269-0.568-15.688
							c0.756-1.071,8.264-5.798,8.323-5.822c2.222-0.895,5.568-0.99,7.951-0.735C114.863,87.063,125.956,93.642,124.074,103.755"/>
						<path fill="#FFFFFF" d="M122.974,103.793c-0.009,0.04-2.662,5.726-3.38,6.389c-2.18,2.018-5.724,4.457-8.679,4.772
							c-3.235,0.346-12.11,0.783-18.249-7.922c-3.104-4.403-2.81-9.679,0.788-14.115c1.623-2.001,4.651-3.994,7.073-4.874
							c2.274-0.826,5.653-1.01,8.04-0.615c0.068,0.011,8.272,2.761,10.239,4.995C120.644,94.51,124.062,98.393,122.974,103.793"/>
						<path fill="#FFFFFF" d="M121.863,103.831c-0.103,0.503-2.188,4.878-3.502,6.11c-1.869,1.752-4.899,4.021-7.458,4.163
							c-2.715,0.151-6.59,0.614-9.047-0.55c-4.12-1.951-5.228-2.476-9.209-8.097c-0.041-0.058-3.938-5.986,2.232-12.553
							c1.431-1.523,3.746-3.311,5.731-3.964c2.316-0.762,5.711-1.04,8.107-0.588c0.062,0.012,8.296,3.732,8.898,4.442
							C120.772,96.511,122.857,98.966,121.863,103.831"/>
						<path fill="#FFFFFF" d="M120.747,103.867c-1.052,5.248-8.932,9.37-9.86,9.388c-2.717,0.052-6.607,0.685-9.043-0.52
							c-1.223-0.605-2.876-1.451-3.87-2.386c-1.694-1.595-4.092-3.796-4.982-5.946c-0.671-1.623-0.983-4.144-0.498-5.831
							c0.567-1.972,2.323-4.267,3.809-5.682c1.16-1.105,2.847-2.604,4.387-3.046c2.362-0.678,5.758-1.022,8.172-0.56
							C111.882,89.863,122.528,94.979,120.747,103.867"/>
						<path fill="#FFFFFF" d="M119.624,103.901c-0.702,3.583-7.276,8.478-8.757,8.507c-2.715,0.052-6.588,0.679-9.038-0.491
							c-4.218-2.015-7.721-7.476-7.741-7.524c-0.68-1.618-0.991-4.157-0.462-5.831c0.633-2.006,2.575-4.24,4.101-5.689
							c0.806-0.766,1.958-1.865,3.041-2.12c2.41-0.566,5.806-1.003,8.235-0.531C110.524,90.519,121.354,95.077,119.624,103.901"/>
						<path fill="#FFFFFF" d="M118.427,103.938c-0.264,0.887-5.231,7.582-7.583,7.626c-2.713,0.052-6.565,0.669-9.031-0.462
							c-2.486-1.14-6.608-6.673-6.628-6.719c-0.688-1.613-0.985-4.172-0.415-5.831c0.701-2.038,2.814-4.214,4.379-5.696
							c0.45-0.426,1.082-1.082,1.694-1.185c2.458-0.415,5.851-0.984,8.297-0.501c3.509,0.692,8.623,6.882,8.668,6.943
							C118.841,99.534,118.927,102.253,118.427,103.938"/>
						<path fill="#FFFFFF" d="M111.938,110.107c-0.299,0.24-0.737,0.608-1.121,0.615c-0.153,0.003-9.007-0.427-9.022-0.438
							c-1.967-1.42-4.428-3.744-5.514-5.913c-0.785-1.567-0.905-4.163-0.368-5.831c0.014-0.042,4.387-5.652,5.002-5.948
							c2.263-1.087,5.845-0.424,8.355-0.472c1.077-0.02,7.215,5.967,7.246,6.029c0.807,1.562,1.181,4.146,0.657,5.824
							C116.452,106.283,113.821,108.59,111.938,110.107"/>
						<path fill="#FFFFFF" d="M110.78,109.736c-2.521,1-6.916,1.023-9.017-0.694c-1.491-1.217-3.6-2.926-4.387-4.683
							c-0.716-1.599-0.866-4.167-0.32-5.832c0.579-1.766,2.295-3.922,3.946-4.774c2.248-1.159,6.328-1.98,8.411-0.548
							c1.891,1.3,4.622,3.013,5.806,4.979c0.906,1.507,1.233,4.148,0.694,5.823C115.206,106.205,112.926,108.886,110.78,109.736"/>
						<path fill="#FFFFFF" d="M110.725,108.412c-2.511,1.008-6.875,1.072-8.997-0.605c-1.119-0.883-2.75-2.127-3.256-3.46
							c-0.622-1.637-0.821-4.168-0.272-5.832c0.428-1.295,1.678-2.89,2.894-3.509c2.271-1.157,6.359-1.945,8.479-0.531
							c1.432,0.954,3.536,2.226,4.343,3.746c0.825,1.555,1.27,4.146,0.732,5.822C114.11,105.719,112.359,107.755,110.725,108.412"/>
						<path fill="#FFFFFF" d="M110.66,107.093c-2.493,1.027-6.825,1.114-8.973-0.516c-0.738-0.56-1.863-1.355-2.121-2.245
							c-0.488-1.682-0.779-4.171-0.225-5.833c0.274-0.822,1.063-1.839,1.836-2.232c2.289-1.165,6.382-1.898,8.545-0.514
							c0.964,0.617,2.422,1.452,2.882,2.5c0.708,1.613,1.305,4.143,0.771,5.821C113.007,105.235,111.786,106.629,110.66,107.093"/>
						<path fill="#FFFFFF" d="M110.587,105.782c-2.479,1.035-6.766,1.144-8.943-0.428c-0.347-0.251-0.912-0.614-0.983-1.036
							c-0.292-1.727-0.736-4.174-0.178-5.833c0.117-0.348,0.448-0.78,0.775-0.946c2.306-1.171,6.395-1.836,8.607-0.496
							c0.484,0.293,1.252,0.701,1.423,1.241c0.531,1.681,1.339,4.139,0.811,5.821C111.896,104.751,111.212,105.521,110.587,105.782"
							/>
						<path fill="#FFFFFF" d="M110.505,104.479c-1.608,0.678-4.069-0.153-5.813-0.224c1.613-1.637,3.759-3.824,5.348-5.484
							c0.235,1.609,1.26,3.812,0.776,5.364C110.774,104.267,110.633,104.424,110.505,104.479"/>
					</g>
					<g clip-path="url(#SVGID_4_)">
						<path fill="#F89939" d="M95.82,49.528c3.546,0.36,8.403,0.853,15.347,2.926c6.195,2.14,6.438,2.223,9.871,3.852
							c5.951,3.127,6.064,3.187,8.983,5.163c5.455,4.008,5.455,4.008,7.984,6.345c4.767,4.765,4.767,4.765,6.853,7.398l1.333,1.743
							C144.063,84.136,32,82.705,30.988,82.288c1.261-1.944,2.965-4.525,4.342-6.389c4.301-5.147,4.301-5.147,6.761-7.483
							c5.064-4.46,5.064-4.46,7.905-6.445c5.625-3.623,5.733-3.692,8.919-5.275c5.939-2.683,6.171-2.788,9.823-3.975
							c4.299-1.249,5.454-1.585,10.724-2.544c1.13-0.168,4.568-0.68,8.654-0.834c0.194-0.006,0.452-0.019,0.646-0.019l0.545-0.011
							c1.075-0.01,1.075-0.01,2.029,0c0.197,0.004,0.46,0.014,0.658,0.014c0.252,0.008,0.588,0.012,0.84,0.027
							c0.351,0.016,0.819,0.033,1.169,0.054C94.886,49.459,95.418,49.492,95.82,49.528c-1.937-0.156-3.901-0.211-5.888-0.16
							C91.918,49.317,93.883,49.373,95.82,49.528"/>
						<path fill="#FFFFFF" d="M66.059,134.228c0.229-0.083,0.529-0.207,0.756-0.296c-0.056-0.088-0.131-0.207-0.187-0.295
							c-2.765-5.938-5.153-11.066-7.896-19.636c-1.904,7.462-3.111,12.559-3.809,20.397
							C56.366,134.835,60.754,136.162,66.059,134.228 M50.611,132.372c0.363,0.229,0.867,0.503,1.239,0.719
							c-3.248-6.867-7.695-16.273-9.526-30.792l-0.461,1.096C37.075,116.506,43.042,127.606,50.611,132.372 M79.898,113.142
							c0.264-6.491-1.81-10.937-2.696-12.835c0.008,0.083,0.02,0.194,0.028,0.277c0.329,4.044-0.609,7.565-1.197,9.304
							c-0.031,0.094-3.331,10.132-5.903,22.237C77.794,126.461,79.672,118.676,79.898,113.142 M72.642,111.249
							c0.189-3.5-0.968-5.948-2.067-7.966c-4.344-7.976,2.518-8.683,2.592-8.68c-3.688-3.468-7.426-5.72-13.689-5.438
							c-6.271,0.736-11.303,3.97-15.383,9.885c2.005,0.089,3.984-0.695,6.001-0.172c0.366,0.095,0.521,1.238-0.18,1.681
							c-0.109,0.069-0.291,0.184-2.366,0.343c0.838,5.792,1.985,13.726,6.723,25.715c0.817-4.662,1.588-9.066,3.519-15.734
							c-1.719-6.336-1.786-6.584-2.459-9.999c-0.345-0.026-2.076-0.164-2.257-0.312c-0.474-0.384-0.252-1.185,0.027-1.494
							c0.169-0.187,10.873-0.38,10.975-0.376c0.734,0.031,0.771,0.674,0.765,0.87c-0.032,1.004-0.512,1.042-3.176,1.254
							c1.17,5.042,3.127,13.481,7.811,25.418c0.49-2.384,1.154-5.56,1.687-7.934C71.597,116.862,72.501,113.849,72.642,111.249
							 M82.378,114.162c-0.523,7.67-5.684,22.456-21.471,23.511c-22.223-1.085-30.759-30.413-13.237-45.48
							C64.273,77.917,83.771,93.742,82.378,114.162 M150.444,83.534c-1.217-1.979-2.863-4.606-4.199-6.506
							c-5.9,7.308-114.471,5.681-115.303,5.337l-1.094,1.926c-2.956,5.986-2.956,5.986-4.068,9.169
							c-1.944,6.435-1.944,6.435-2.516,9.816c-0.835,6.743-0.851,6.872-0.826,10.332c0.304,6.167,0.376,7.633,1.79,14.21
							c1.885,6.383,1.921,6.505,3.256,9.541l1.469,3.117c6.75,1.754,118.244,0.571,125.224-5.668
							c0.514-1.513,1.253-3.512,1.698-5.046c1.576-6.491,1.606-6.615,1.979-10.001c0.141-2.1,0.344-4.901,0.362-7.005
							c-0.34-6.909-0.34-6.909-0.953-10.321c-1.479-6.582-1.479-6.582-2.638-9.784C152.277,86.921,151.916,86.041,150.444,83.534"/>
						<path fill="#108140" d="M152.301,139.16c-3.109,5.879-3.109,5.879-5.035,8.66c-4.021,5.341-4.021,5.341-6.357,7.795
							c-4.833,4.7-4.833,4.7-7.545,6.798c-5.438,3.89-5.542,3.964-8.602,5.671c-5.846,2.987-6.073,3.104-9.537,4.414
							c-5.315,1.806-5.998,2.037-10.409,3.026c-5.273,1.044-9.585,1.393-12.275,1.501c-0.194,0.005-0.452,0.019-0.646,0.019
							l-0.545,0.012c-1.074,0.01-1.074,0.01-2.03,0c-0.197-0.004-0.46-0.014-0.658-0.014c-0.252-0.008-0.588-0.013-0.84-0.027
							c-0.351-0.016-0.819-0.032-1.17-0.055c-0.606-0.036-1.212-0.075-1.817-0.122c-4.192-0.412-6.814-0.771-11.268-1.808
							c-5.931-1.653-6.416-1.788-10.2-3.304c-6.134-2.776-6.251-2.83-9.341-4.666c-5.715-3.704-5.715-3.704-8.389-5.898
							c-5.048-4.479-5.048-4.479-7.31-7.002c-4.284-5.172-4.284-5.172-6.097-7.978c-0.975-1.648-2.3-3.835-3.189-5.531
							c6.741,1.75,118.092,0.566,125.066-5.659L152.301,139.16"/>
						<path fill="#282A74" d="M66.059,134.228c-2.511,0.915-4.543,0.983-5.635,1.021c-2.119-0.024-3.456-0.231-5.5-0.85
							c0.623-5.702,1.161-10.626,3.809-20.397c2.036,6.028,3.643,10.79,7.896,19.636c0.056,0.088,0.13,0.207,0.187,0.295
							C66.588,134.021,66.288,134.145,66.059,134.228 M50.611,132.372c-8.225-5.178-13.712-17.17-8.288-30.074
							c1.287,8.829,2.891,17.24,9.526,30.792C51.479,132.875,50.975,132.6,50.611,132.372 M79.898,113.142
							c-0.226,5.535-2.104,13.32-9.768,18.983c1.842-8.276,4.707-16.28,6.547-24.557c0.259-1.162,0.863-3.883,0.525-7.261
							C78.088,102.205,80.162,106.65,79.898,113.142 M72.642,111.249c-0.141,2.6-1.044,5.613-1.479,7.062
							c-0.522,2.376-1.209,5.548-1.687,7.934c-2.014-5.304-5.385-14.181-7.811-25.418c1.677-0.133,4.21-0.335,3-1.861
							c-0.129-0.163-10.876-0.178-10.979-0.171c-0.707,0.044-0.861,0.823-0.876,0.912c-0.167,0.973,0.139,0.996,2.521,1.177
							c1.37,6.225,1.396,6.344,2.459,9.999c-1.288,4.748-2.503,9.231-3.519,15.734c-2.11-5.612-5.298-14.093-6.723-25.715
							c2.142-0.164,2.299-0.29,2.366-0.343c0.658-0.522,0.592-1.443,0.18-1.681c-0.215-0.125-0.58-0.049-0.827-0.027
							c-2.424,0.213-3.29,0.224-4.128,0.235c-0.349-0.006-0.698-0.021-1.046-0.036C50.5,89.763,62.33,84.41,73.167,94.603
							c-0.075-0.002-6.936,0.705-2.592,8.68C71.674,105.301,72.831,107.749,72.642,111.249 M82.378,114.162
							c0.828-12.133-6.791-28.364-23.247-27.279c-21.746,3.904-28.361,33.583-10.41,46.7
							C62.824,143.89,81.068,133.362,82.378,114.162"/>
					</g>
				</g>
			</g>
		</g>
		<path fill="#FED208" d="M169.256,55.661c-2.086-5.896-4.65-11.263-7.619-16.086c-4.461-2.173-9.479-5.381-15.01-10.097
			l-0.447-0.379c-6.115-5.095-5.271-7.422-4.994-8.188c0.221-0.612,0.613-1.091,1.156-1.45c-8.291-5.309-17.807-8.279-28.203-8.593
			c-25.834-0.782-48.475,10.21-60.578,29.405c-3.307,5.248-4.45,10.02-3.303,13.798c0.836,2.752,2.754,4.45,4.144,5.067
			c2.351,1.047,17.313-4.146,21.661-12.051c0.246-0.447,0.664-0.775,1.158-0.904c0.496-0.129,1.021-0.053,1.455,0.215
			c10.207,6.281,21.682,3.41,31.633,0.226c0.986-0.313,2.031,0.228,2.346,1.209c0.17,0.528,0.084,1.071-0.176,1.515
			c6.578-0.174,13.176,0.83,18.992,3.125c0.959,0.379,1.428,1.463,1.051,2.422c-0.379,0.959-1.465,1.431-2.422,1.05
			c-14.309-5.646-33.687-2.88-44.117,6.301c-3.577,3.147-5.131,6.188-4.374,8.562c0.776,2.438,3.95,4.356,7.897,4.771
			c2.967,0.309,7.482-0.691,12.267-1.753c7.372-1.638,15.731-3.492,23.169-1.951c12.059,2.495,20.057,9.728,32.162,20.677
			l1.477,1.332c0.764,0.69,0.822,1.871,0.133,2.637c-0.367,0.408-0.875,0.615-1.385,0.615c-0.424,0-0.842-0.154-1.188-0.443
			c1.195,5.082,1.809,10.3,1.809,15.58c0,6.33-0.879,12.586-2.596,18.609c1.922,1.088,3.537,2.393,4.695,3.893
			c0.631,0.814,0.479,1.986-0.336,2.615c-0.814,0.633-1.988,0.482-2.617-0.334c-3.225-4.172-11.434-6.604-19.545-5.785
			c-5.908,0.598-16.67,3.428-22.768,15.545c0.23,0.623,0.424,1.197,0.564,1.705c3.197,10.959,2.441,17.607,0.025,25.314
			c-0.238,1.299-0.699,2.85-1.389,4.465c8.215,0.025,22.711-1.779,38.139-12.402C181.332,145.785,178.762,82.525,169.256,55.661"/>
		<path fill="#010101" d="M202.988,19.633c-0.904-0.226-3.051-0.366-10.955-0.366c-2.742,0-5.861,0.016-9.18,0.032
			c-3.762,0.019-7.777,0.039-11.787,0.039c-6.871,0-16.5-0.053-23.014-0.485c-9.648-7.263-21.105-11.332-33.803-11.717
			c-27.071-0.83-50.862,10.742-63.709,30.938c-4.94,4.876-14.436,10.284-17.625,10.993c-1.477,0.328-2.592,1.318-2.983,2.65
			c-0.396,1.348,0.028,2.821,1.136,3.942c1.014,1.024,3.124,2.302,7.346,2.302c2.271,0,5.162-0.377,8.812-1.355
			c1.371,3.108,3.734,5.086,5.658,5.941c4.599,2.042,19.542-3.882,25.431-12.059c4.558,2.42,9.302,3.344,14.101,3.336
			c-3.328,1.518-6.363,3.384-8.9,5.617c-6.098,5.365-6.337,9.758-5.464,12.496c1.237,3.89,5.582,6.774,11.063,7.352
			c3.568,0.378,8.153-0.643,13.465-1.822c7.008-1.554,14.949-3.314,21.607-1.939c9.898,2.049,16.781,7.55,26.768,16.503
			c2.164,6.506,3.262,13.315,3.262,20.239c0,5.787-0.779,11.506-2.295,17.023c-4.301-1.594-9.518-2.271-14.746-1.74
			c-10.326,1.045-19.006,6.469-24.291,15.02c-3.879-7.582-11.396-17.557-19.67-17.557c-2.016,0-3.934,0.598-5.699,1.775
			c-9.205,6.135-6.594,17.047-4.289,26.674c0.618,2.582,1.201,5.021,1.551,7.293c0.426,2.764,0.312,6.125,0.205,9.377
			c-0.214,6.439-0.436,13.1,3.36,17.025c1.979,2.045,4.815,3.082,8.433,3.082c7.48,0,12.316-3.898,15.215-8.252
			c0.662,0.023,1.361,0.041,2.125,0.041c4.812,0,11.6-0.604,19.412-2.986c-11.672,18.139-33.631,31.643-52.807,32.006
			c-6.876,0.15-16.196-1.523-21.326-10.148c-6.23-10.479-16.174-14.242-22.771-12.539c-5.194,1.338-8.287,5.629-8.485,11.771
			c-0.165,5.115,3.68,11.27,10.547,16.885c9.028,7.379,23.265,13.594,37.778,13.594c3.604,0,7.227-0.385,10.789-1.229
			c31.658-7.498,59.936-33.012,67.547-60.822c17.119-12.232,22.57-36.547,24.113-54.896c1.965-23.395-1.666-46.615-6.139-59.252
			c-1.58-4.466-3.436-8.626-5.51-12.514c4.158,1.395,7.66,1.847,10.416,1.847h0.002c2.473,0,4.873-0.345,7.141-1.024
			c14.561-4.369,20.652-15.134,20.549-19.662C205.33,21.278,204.438,19.997,202.988,19.633 M46.225,53.008
			c-8.348,2.231-11.432,0.794-12.188,0.283c-0.414-0.28-0.523-0.487-0.543-0.481c0.002,0,0.057-0.061,0.23-0.099
			c2.801-0.623,8.302-3.53,13.182-6.923C46.065,48.659,45.97,51.073,46.225,53.008 M110.578,172.49
			c-0.033,0.104-0.061,0.215-0.078,0.322c-0.092,0.508-2.346,12.453-13.725,12.453c-2.248,0-3.836-0.512-4.855-1.564
			c-2.33-2.408-2.144-7.996-1.963-13.398c0.115-3.479,0.235-7.078-0.26-10.299c-0.382-2.477-1.017-5.129-1.63-7.695
			c-2.483-10.367-3.669-17.457,2.209-21.375c0.946-0.631,1.907-0.939,2.938-0.939c6.713,0,15.498,13.234,17.348,19.887
			C113.449,159.783,112.797,165.466,110.578,172.49 M86.392,225.753c-16.668,3.949-34.786-2.992-45.345-11.623
			c-5.872-4.801-9.305-9.986-9.178-13.873c0.143-4.43,2.162-7.371,5.686-8.277c5.258-1.355,13.34,1.932,18.632,10.832
			c4.718,7.932,13.399,12.156,24.606,11.973c21.697-0.412,46.703-16.596,58.215-37.658c3.506-1.389,7.162-3.162,10.895-5.393
			C141.084,196.66,115.205,218.929,86.392,225.753 M169.256,55.661c9.506,26.864,12.076,90.124-17.133,110.235
			c-15.428,10.621-29.926,12.428-38.139,12.402c0.689-1.615,1.15-3.166,1.389-4.465c2.416-7.707,3.172-14.355-0.025-25.316
			c-0.141-0.506-0.334-1.08-0.564-1.703c6.098-12.117,16.861-14.947,22.768-15.547c8.111-0.816,16.32,1.615,19.545,5.787
			c0.629,0.816,1.805,0.967,2.617,0.334c0.816-0.629,0.967-1.801,0.336-2.615c-1.158-1.498-2.771-2.805-4.695-3.893
			c1.717-6.023,2.596-12.277,2.596-18.609c0-5.28-0.613-10.498-1.809-15.58c0.348,0.289,0.766,0.442,1.188,0.442
			c0.51,0,1.018-0.206,1.385-0.614c0.691-0.766,0.631-1.945-0.133-2.637l-1.475-1.333c-12.107-10.948-20.107-18.181-32.164-20.676
			c-7.438-1.541-15.797,0.313-23.17,1.951c-4.783,1.062-9.298,2.062-12.266,1.753c-3.947-0.414-7.121-2.332-7.898-4.771
			c-0.757-2.373,0.797-5.414,4.375-8.562c10.432-9.181,29.809-11.947,44.117-6.302c0.957,0.382,2.043-0.09,2.422-1.049
			s-0.092-2.043-1.051-2.422c-5.816-2.295-12.416-3.298-18.992-3.125c0.262-0.442,0.346-0.986,0.178-1.515
			c-0.316-0.981-1.361-1.522-2.348-1.209c-9.951,3.185-21.425,6.056-31.633-0.226c-0.434-0.268-0.958-0.344-1.454-0.215
			c-0.495,0.129-0.912,0.457-1.159,0.904c-4.348,7.905-19.311,13.098-21.661,12.051c-1.389-0.617-3.308-2.315-4.143-5.067
			c-1.149-3.777-0.005-8.55,3.303-13.798c12.103-19.194,34.744-30.188,60.577-29.405c10.396,0.315,19.912,3.284,28.203,8.593
			c-0.543,0.359-0.936,0.838-1.158,1.451c-0.275,0.766-1.119,3.093,4.996,8.188l0.447,0.379c5.531,4.715,10.549,7.924,15.01,10.098
			C164.607,44.398,167.168,49.765,169.256,55.661 M200.652,26.4c-2.197,4.371-7.793,10.016-16.902,12.748
			c-1.918,0.576-3.961,0.869-6.068,0.869h-0.002c-5.904-0.002-15.664-2.322-28.631-13.379l-0.48-0.406
			c-1.906-1.59-3.1-2.981-3.584-3.776c0.328-0.026,0.836-0.026,1.41,0.019c6.6,0.535,17.242,0.598,24.672,0.598
			c4.016,0,8.039-0.02,11.807-0.039c3.311-0.018,6.424-0.032,9.16-0.032c5.145,0,8.367,0.063,9.605,0.188
			C201.639,23.693,201.473,24.765,200.652,26.4"/>
		<path fill="#010101" d="M74.379,37.203c-2.967,2.227-2.072,4.979,1.244,5.393c3.319,0.415,3.578,0.635,6.638-1.659
			c3.317-2.489,3.733-6.637,0-6.221C78.527,35.13,76.039,35.959,74.379,37.203"/>
		<path fill="#010101" d="M65.67,38.863c0,2.062-1.671,3.733-3.732,3.733c-2.061,0-3.732-1.671-3.732-3.733
			c0-2.062,1.672-3.732,3.732-3.732C63.999,35.13,65.67,36.801,65.67,38.863"/>
		<path fill="#010101" d="M108.803,28.496c0,2.062-1.67,3.732-3.732,3.732s-3.732-1.671-3.732-3.732c0-2.062,1.67-3.733,3.732-3.733
			S108.803,26.433,108.803,28.496"/>
		<path fill="#FED208" d="M111.215,152.314c-0.02-0.078-0.037-0.154-0.057-0.234c-0.18-0.709-0.375-1.438-0.596-2.197
			c-1.848-6.654-10.635-19.889-17.348-19.889c-1.031,0-1.992,0.309-2.939,0.939c-5.877,3.918-4.69,11.008-2.209,21.377
			c0.615,2.564,1.248,5.217,1.631,7.693c0.494,3.221,0.375,6.82,0.26,10.299c-0.18,5.402-0.365,10.99,1.963,13.398
			c1.02,1.053,2.607,1.566,4.855,1.566c0.65,0,1.264-0.049,1.855-0.123c0.18-0.023,0.35-0.057,0.525-0.086
			c0.412-0.068,0.812-0.148,1.195-0.248c0.172-0.045,0.342-0.09,0.508-0.141c0.4-0.123,0.783-0.264,1.152-0.418
			c0.108-0.047,0.223-0.084,0.327-0.133c0.474-0.217,0.925-0.455,1.347-0.715c0.041-0.025,0.078-0.057,0.119-0.082
			c0.375-0.238,0.729-0.494,1.062-0.76c0.1-0.078,0.193-0.16,0.287-0.24c0.275-0.232,0.539-0.475,0.787-0.723
			c0.084-0.084,0.17-0.166,0.25-0.25c0.279-0.295,0.543-0.596,0.789-0.902c0.029-0.035,0.061-0.068,0.088-0.104
			c0.275-0.35,0.529-0.705,0.764-1.061c0.055-0.084,0.104-0.168,0.156-0.25c0.168-0.264,0.326-0.527,0.475-0.789
			c0.068-0.125,0.137-0.25,0.203-0.373c0.113-0.217,0.221-0.43,0.324-0.643c0.064-0.133,0.131-0.268,0.189-0.4
			c0.086-0.186,0.16-0.363,0.234-0.543c0.154-0.375,0.297-0.736,0.414-1.068c0.006-0.02,0.014-0.039,0.02-0.057
			c0.084-0.238,0.158-0.465,0.223-0.676c0.281-0.92,0.41-1.562,0.43-1.672c0.018-0.107,0.045-0.219,0.076-0.322
			c1.865-5.902,2.615-10.869,1.096-18.178C111.537,153.664,111.385,152.998,111.215,152.314"/>
		<path fill="#010101" d="M39.34,79.943L39.34,79.943c-4.066,0-7.076-2.576-7.854-6.728c-0.508-2.704,0.453-5.687,2.707-8.401
			c2.924-3.523,7.541-6.082,10.979-6.082c0.773,0,1.484,0.127,2.113,0.379c2.287,0.914,3.996,3.138,4.572,5.946
			c0.776,3.772-0.545,7.806-3.531,10.792C45.725,78.451,42.449,79.943,39.34,79.943 M45.172,62.464c-2.01,0-5.682,1.811-8.107,4.732
			c-0.886,1.069-2.312,3.182-1.91,5.33c0.572,3.045,2.59,3.685,4.186,3.685c2.096,0,4.467-1.122,6.348-3.001
			c2.096-2.098,3.036-4.863,2.514-7.402c-0.322-1.576-1.184-2.785-2.301-3.232C45.716,62.503,45.465,62.464,45.172,62.464"/>
		<path fill="#FED208" d="M35.154,72.527c0.572,3.045,2.592,3.685,4.186,3.685c2.096,0,4.467-1.122,6.348-3.001
			c2.096-2.098,3.037-4.863,2.514-7.402c-0.322-1.576-1.184-2.785-2.301-3.231c-0.185-0.073-0.436-0.112-0.729-0.112
			c-2.01,0-5.682,1.811-8.107,4.732C36.179,68.267,34.752,70.378,35.154,72.527"/>
		<path fill="#FED208" d="M9.541,132.166c-1.884,2.314-2.511,5.572-1.768,9.176c1.902,9.189,18.236,27.012,29.3,29.668
			c0.846,0.203,1.612,0.305,2.276,0.305c1.727,0,2.367-0.674,2.701-1.184c1.348-2.064,0.584-6.553-0.486-9
			c-3.063-7.002-12.771-25.355-17.678-29.131c-2.47-1.9-5.127-2.906-7.689-2.906C13.518,129.093,11.153,130.185,9.541,132.166"/>
		<path fill="#010101" d="M39.351,175.048L39.351,175.048c-0.958,0-2.017-0.139-3.147-0.41
			c-12.623-3.029-29.898-21.982-32.084-32.543c-0.977-4.721-0.08-9.086,2.526-12.285c2.303-2.826,5.784-4.449,9.552-4.449
			c3.391,0,6.838,1.273,9.967,3.682c6.146,4.729,16.57,25.449,18.819,30.59c0.937,2.141,2.793,8.561,0.19,12.541
			C44.316,173.486,42.609,175.048,39.351,175.048 M16.197,129.093c-2.679,0-5.044,1.092-6.656,3.072
			c-1.885,2.314-2.512,5.572-1.767,9.176c1.901,9.189,18.235,27.014,29.299,29.668c0.847,0.203,1.612,0.307,2.277,0.307
			c1.726,0,2.366-0.678,2.7-1.186c1.349-2.064,0.584-6.553-0.486-9c-3.062-7.002-12.77-25.355-17.677-29.131
			C21.418,130.099,18.758,129.093,16.197,129.093"/>
	</g>
	<g>
		<g>
			<path fill="#010101" d="M57.11,55.5c-9.558,0-17.333-7.775-17.333-17.333s7.775-17.333,17.333-17.333s17.333,7.776,17.333,17.333
				S66.667,55.5,57.11,55.5z M57.11,23.833c-7.903,0-14.333,6.43-14.333,14.333S49.207,52.5,57.11,52.5s14.333-6.43,14.333-14.333
				S65.013,23.833,57.11,23.833z"/>
		</g>
		<g>
			<path fill="#010101" d="M100.943,48.75c-9.558,0-17.333-7.775-17.333-17.333s7.775-17.333,17.333-17.333
				s17.333,7.776,17.333,17.333S110.501,48.75,100.943,48.75z M100.943,17.083c-7.903,0-14.333,6.43-14.333,14.333
				s6.43,14.333,14.333,14.333s14.333-6.43,14.333-14.333S108.847,17.083,100.943,17.083z"/>
		</g>
		<g>
			<path fill="#010101" d="M73.896,32.773l-2.574-1.541c0.095-0.159,2.366-3.901,6.473-4.64c2.652-0.479,5.374,0.388,8.089,2.572
				l-1.88,2.338c-2-1.609-3.903-2.272-5.657-1.961C75.593,30.025,73.913,32.746,73.896,32.773z"/>
		</g>
		<g>
			<path fill="#010101" d="M117.237,27.774l-1.586-2.547c0.195-0.122,4.845-3.005,10.581-5.57c7.942-3.552,13.873-4.661,17.624-3.3
				c2.045,0.743,3.49,2.244,4.179,4.342l-2.85,0.936c-0.408-1.242-1.155-2.022-2.353-2.458
				C136.739,16.969,122.287,24.631,117.237,27.774z"/>
		</g>
	</g>
	<g>
		<g>
			<path fill="#FFFFFF" d="M153.86,119.917c1.667,0.333,26.667,4,26.667,4s0.759,61.981-69.287,57.824c0,0,8.953-25.491-0.38-36.824
				c0,0,7.001-25.333,42.334-17L153.86,119.917z"/>
			<path fill="#010101" d="M117.833,183.442c-2.167,0-4.414-0.068-6.682-0.203l-1.984-0.117l0.658-1.877
				c0.086-0.247,8.562-24.827-0.123-35.374l-0.495-0.602l0.208-0.751c0.055-0.198,5.757-19.783,30.443-19.783
				c3.735,0,7.759,0.452,11.983,1.344l0.663-7.961l1.649,0.33c1.288,0.257,17.957,2.72,26.591,3.986l1.267,0.187l0.016,1.279
				c0.013,1.017,0.105,25.094-17.077,42.487c-11.179,11.316-27.03,17.055-47.112,17.056
				C117.836,183.442,117.834,183.442,117.833,183.442z M113.27,180.343c1.547,0.065,3.075,0.099,4.563,0.099
				c0.002,0,0.003,0,0.005,0c19.251-0.001,34.384-5.439,44.979-16.164c14.131-14.305,15.946-33.928,16.178-39.069
				c-4.466-0.656-18.771-2.763-23.773-3.547l-0.676,8.115l-1.695-0.399c-4.62-1.09-8.991-1.643-12.991-1.643
				c-20.051,0-26.141,13.582-27.325,16.89C120.138,154.934,115.146,174.204,113.27,180.343z"/>
		</g>
		<g>
			<path fill="#010101" d="M153.146,129.401c0,0-0.084,0.029-0.242,0.084c-0.125,0.037-0.351,0.134-0.644,0.26
				c-0.286,0.14-0.646,0.297-1.037,0.53c-0.399,0.218-0.834,0.497-1.295,0.827c-0.464,0.324-0.938,0.721-1.427,1.156
				c-0.471,0.454-0.979,0.932-1.422,1.502c-0.495,0.53-0.882,1.173-1.321,1.802c-0.397,0.652-0.759,1.35-1.104,2.056
				c-0.269,0.736-0.632,1.45-0.828,2.208c-0.188,0.758-0.461,1.493-0.569,2.237c-0.121,0.745-0.237,1.467-0.348,2.15
				c-0.041,0.695-0.08,1.352-0.116,1.959c-0.018,0.305-0.035,0.597-0.052,0.875c0.011,0.277,0.021,0.541,0.029,0.789
				c0.019,0.498,0.035,0.931,0.048,1.287c0.026,0.717,0.042,1.127,0.042,1.127s-0.062-0.404-0.17-1.112
				c-0.055-0.355-0.12-0.787-0.195-1.282c-0.038-0.248-0.078-0.513-0.121-0.791c-0.016-0.281-0.032-0.576-0.05-0.885
				c-0.034-0.621-0.071-1.292-0.11-2.002c0.033-0.715,0.067-1.469,0.103-2.248c0.025-0.784,0.218-1.578,0.326-2.4
				c0.117-0.823,0.408-1.623,0.612-2.451c0.281-0.799,0.588-1.604,0.942-2.37c0.398-0.745,0.754-1.51,1.234-2.169
				c0.428-0.695,0.934-1.303,1.414-1.883c0.498-0.562,0.994-1.081,1.488-1.52c0.49-0.445,0.963-0.831,1.407-1.146
				c0.433-0.329,0.845-0.574,1.181-0.787c0.345-0.198,0.621-0.355,0.853-0.462c0.195-0.093,0.3-0.142,0.3-0.142L153.146,129.401z"/>
		</g>
		<g>
			<path fill="#010101" d="M149.71,128.673c0.01-0.001-0.177,0.048-0.377,0.122c-0.206,0.061-0.562,0.213-1.013,0.4
				c-0.438,0.223-0.996,0.452-1.585,0.827c-0.613,0.333-1.252,0.796-1.955,1.301c-0.351,0.253-0.675,0.569-1.035,0.868
				c-0.178,0.152-0.359,0.307-0.543,0.465c-0.167,0.176-0.337,0.354-0.51,0.533c-0.339,0.366-0.71,0.725-1.052,1.125
				c-0.32,0.42-0.648,0.848-0.981,1.283c-0.357,0.422-0.624,0.916-0.919,1.402c-0.281,0.492-0.612,0.97-0.868,1.493
				c-0.24,0.532-0.483,1.069-0.727,1.607l-0.369,0.812l-0.272,0.853c-0.359,1.14-0.777,2.271-0.956,3.448
				c-0.227,1.164-0.511,2.308-0.563,3.446c-0.083,1.133-0.257,2.229-0.256,3.275c0.006,1.049,0.011,2.041,0.017,2.957
				c-0.026,0.92,0.069,1.756,0.144,2.498c0.071,0.744,0.134,1.393,0.186,1.928c0.103,1.07,0.161,1.682,0.161,1.682
				s-0.105-0.605-0.289-1.664c-0.092-0.529-0.204-1.174-0.332-1.913c-0.132-0.739-0.292-1.573-0.337-2.499
				c-0.076-0.924-0.158-1.925-0.245-2.984c-0.081-1.061,0.008-2.186,0.006-3.352c-0.033-1.17,0.165-2.364,0.309-3.588
				c0.095-1.234,0.434-2.445,0.723-3.674l0.221-0.921l0.322-0.89c0.217-0.595,0.433-1.187,0.646-1.773
				c0.231-0.582,0.544-1.123,0.81-1.68c0.278-0.551,0.531-1.109,0.883-1.6c0.329-0.506,0.653-1.002,0.97-1.489
				c0.343-0.47,0.72-0.898,1.066-1.333c0.177-0.215,0.352-0.428,0.523-0.637c0.191-0.191,0.379-0.381,0.564-0.566
				c0.376-0.365,0.717-0.746,1.09-1.062c0.746-0.633,1.436-1.212,2.108-1.65c0.643-0.477,1.272-0.803,1.771-1.102
				c0.522-0.268,0.929-0.479,1.265-0.612c0.333-0.145,0.443-0.179,0.451-0.184L149.71,128.673z"/>
		</g>
		<g>
			<path fill="#010101" d="M144.808,127.762c0,0-0.173,0.069-0.496,0.199c-0.33,0.137-0.82,0.357-1.438,0.656
				c-1.23,0.606-2.984,1.537-4.938,2.894c-1.962,1.34-4.118,3.112-6.125,5.308c-0.983,1.111-1.966,2.3-2.807,3.615
				c-0.877,1.295-1.615,2.705-2.259,4.16c-0.29,0.739-0.619,1.468-0.836,2.232l-0.359,1.135l-0.273,1.152
				c-0.367,1.531-0.551,3.08-0.646,4.586c-0.073,1.506-0.053,2.973,0.081,4.358c0.031,0.696,0.141,1.365,0.239,2.015
				c0.105,0.646,0.165,1.281,0.318,1.873c0.263,1.19,0.487,2.29,0.797,3.235c0.28,0.954,0.512,1.792,0.776,2.456
				c0.49,1.345,0.77,2.113,0.77,2.113s-0.323-0.752-0.89-2.068c-0.305-0.65-0.583-1.475-0.92-2.418
				c-0.365-0.934-0.655-2.024-0.99-3.213c-0.188-0.59-0.286-1.228-0.431-1.879c-0.139-0.652-0.288-1.327-0.361-2.035
				c-0.217-1.404-0.325-2.905-0.339-4.463c0.01-1.559,0.107-3.178,0.399-4.799l0.218-1.222l0.308-1.211
				c0.184-0.817,0.481-1.604,0.746-2.402c0.589-1.573,1.288-3.115,2.138-4.542c0.814-1.449,1.783-2.771,2.763-4.013
				c1.998-2.456,4.184-4.472,6.188-6.017c1.996-1.561,3.807-2.662,5.102-3.395c0.652-0.363,1.174-0.634,1.542-0.812
				c0.379-0.178,0.581-0.273,0.581-0.273L144.808,127.762z"/>
		</g>
		<g>
			<g>
				<circle fill="#FFFFFF" cx="157.36" cy="149.001" r="9.667"/>
				<path fill="#010101" d="M157.36,159.668c-5.882,0-10.667-4.785-10.667-10.667s4.785-10.667,10.667-10.667
					s10.667,4.785,10.667,10.667S163.242,159.668,157.36,159.668z M157.36,140.334c-4.779,0-8.667,3.888-8.667,8.667
					s3.888,8.667,8.667,8.667s8.667-3.888,8.667-8.667S162.14,140.334,157.36,140.334z"/>
			</g>
			<g>
				<g>
					<line fill="#FFFFFF" x1="157.346" y1="149.768" x2="153.985" y2="147.5"/>
				</g>
				<g>
					<polygon fill="#010101" points="157.066,150.182 153.985,147.5 157.625,149.353 					"/>
				</g>
			</g>
			<g>
				<g>
					<line fill="#FFFFFF" x1="162.235" y1="145.188" x2="157.007" y2="150.127"/>
				</g>
				<g>
					<polygon fill="#010101" points="162.235,145.188 157.351,150.491 156.663,149.764 					"/>
				</g>
			</g>
			<g>
				<circle fill="#010101" cx="157.204" cy="142.189" r="0.688"/>
			</g>
			<g>
				<circle fill="#010101" cx="157.392" cy="156.094" r="0.406"/>
			</g>
			<g>
				<circle fill="#010101" cx="164.642" cy="148.469" r="0.406"/>
			</g>
			<g>
				<circle fill="#010101" cx="150.017" cy="149.125" r="0.406"/>
			</g>
		</g>
		<g>
			<g>
				<path fill="#010101" d="M157.152,123.792c-0.459,0-0.833-0.374-0.833-0.833v-1.292c0-0.459,0.374-0.833,0.833-0.833
					c0.46,0,0.834,0.374,0.834,0.833v1.292C157.986,123.418,157.612,123.792,157.152,123.792z M157.152,121.334
					c-0.184,0-0.333,0.149-0.333,0.333v1.292c0,0.184,0.149,0.333,0.333,0.333c0.185,0,0.334-0.149,0.334-0.333v-1.292
					C157.486,121.484,157.337,121.334,157.152,121.334z"/>
			</g>
			<g>
				<path fill="#010101" d="M157.168,127.042c-0.459,0-0.833-0.374-0.833-0.833v-1.292c0-0.459,0.374-0.833,0.833-0.833
					c0.46,0,0.834,0.374,0.834,0.833v1.292C158.002,126.668,157.628,127.042,157.168,127.042z M157.168,124.584
					c-0.184,0-0.333,0.149-0.333,0.333v1.292c0,0.184,0.149,0.333,0.333,0.333c0.185,0,0.334-0.149,0.334-0.333v-1.292
					C157.502,124.734,157.353,124.584,157.168,124.584z"/>
			</g>
			<g>
				<line fill="#FFFFFF" x1="157.188" y1="122.777" x2="157.188" y2="125.11"/>
				<path fill="#010101" d="M157.188,125.36c-0.138,0-0.25-0.112-0.25-0.25v-2.333c0-0.138,0.112-0.25,0.25-0.25
					s0.25,0.112,0.25,0.25v2.333C157.438,125.248,157.326,125.36,157.188,125.36z"/>
			</g>
			<g>
				<path fill="#010101" d="M157.168,130.386c-0.459,0-0.833-0.374-0.833-0.833v-1.292c0-0.459,0.374-0.833,0.833-0.833
					c0.46,0,0.834,0.374,0.834,0.833v1.292C158.002,130.012,157.628,130.386,157.168,130.386z M157.168,127.928
					c-0.184,0-0.333,0.149-0.333,0.333v1.292c0,0.184,0.149,0.333,0.333,0.333c0.185,0,0.334-0.149,0.334-0.333v-1.292
					C157.502,128.078,157.353,127.928,157.168,127.928z"/>
			</g>
			<g>
				<line fill="#FFFFFF" x1="157.188" y1="126.121" x2="157.188" y2="128.454"/>
				<path fill="#010101" d="M157.188,128.704c-0.138,0-0.25-0.112-0.25-0.25v-2.333c0-0.138,0.112-0.25,0.25-0.25
					s0.25,0.112,0.25,0.25v2.333C157.438,128.591,157.326,128.704,157.188,128.704z"/>
			</g>
			<g>
				<path fill="#010101" d="M157.168,133.636c-0.459,0-0.833-0.374-0.833-0.833v-1.292c0-0.459,0.374-0.833,0.833-0.833
					c0.46,0,0.834,0.374,0.834,0.833v1.292C158.002,133.262,157.628,133.636,157.168,133.636z M157.168,131.178
					c-0.184,0-0.333,0.149-0.333,0.333v1.292c0,0.184,0.149,0.333,0.333,0.333c0.185,0,0.334-0.149,0.334-0.333v-1.292
					C157.502,131.328,157.353,131.178,157.168,131.178z"/>
			</g>
			<g>
				<line fill="#FFFFFF" x1="157.188" y1="129.371" x2="157.188" y2="131.704"/>
				<path fill="#010101" d="M157.188,131.954c-0.138,0-0.25-0.112-0.25-0.25v-2.333c0-0.138,0.112-0.25,0.25-0.25
					s0.25,0.112,0.25,0.25v2.333C157.438,131.841,157.326,131.954,157.188,131.954z"/>
			</g>
			<g>
				<path fill="#010101" d="M157.168,136.886c-0.459,0-0.833-0.374-0.833-0.833v-1.292c0-0.459,0.374-0.833,0.833-0.833
					c0.46,0,0.834,0.374,0.834,0.833v1.292C158.002,136.512,157.628,136.886,157.168,136.886z M157.168,134.428
					c-0.184,0-0.333,0.149-0.333,0.333v1.292c0,0.184,0.149,0.333,0.333,0.333c0.185,0,0.334-0.149,0.334-0.333v-1.292
					C157.502,134.578,157.353,134.428,157.168,134.428z"/>
			</g>
			<g>
				<line fill="#FFFFFF" x1="157.188" y1="132.621" x2="157.188" y2="134.954"/>
				<path fill="#010101" d="M157.188,135.204c-0.138,0-0.25-0.112-0.25-0.25v-2.333c0-0.138,0.112-0.25,0.25-0.25
					s0.25,0.112,0.25,0.25v2.333C157.438,135.091,157.326,135.204,157.188,135.204z"/>
			</g>
			<g>
				<path fill="#010101" d="M157.168,140.136c-0.459,0-0.833-0.374-0.833-0.833v-1.292c0-0.459,0.374-0.833,0.833-0.833
					c0.46,0,0.834,0.374,0.834,0.833v1.292C158.002,139.762,157.628,140.136,157.168,140.136z M157.168,137.678
					c-0.184,0-0.333,0.149-0.333,0.333v1.292c0,0.184,0.149,0.333,0.333,0.333c0.185,0,0.334-0.149,0.334-0.333v-1.292
					C157.502,137.828,157.353,137.678,157.168,137.678z"/>
			</g>
			<g>
				<line fill="#FFFFFF" x1="157.188" y1="135.871" x2="157.188" y2="138.204"/>
				<path fill="#010101" d="M157.188,138.454c-0.138,0-0.25-0.112-0.25-0.25v-2.333c0-0.138,0.112-0.25,0.25-0.25
					s0.25,0.112,0.25,0.25v2.333C157.438,138.341,157.326,138.454,157.188,138.454z"/>
			</g>
		</g>
	</g>
</g>
</svg>
