<?xml version="1.0" standalone="no"?>
<!DOCTYPE svg PUBLIC "-//W3C//DTD SVG 1.1//EN" "http://www.w3.org/Graphics/SVG/1.1/DTD/svg11.dtd">
<svg width="100%" height="100%" viewBox="0 0 60 80" version="1.1" xmlns="http://www.w3.org/2000/svg" xmlns:xlink="http://www.w3.org/1999/xlink" xml:space="preserve" style="fill-rule:evenodd;clip-rule:evenodd;stroke-linecap:round;stroke-linejoin:round;stroke-miterlimit:1.41421;">
    <g id="レイヤー-1">
        <path id="Fill-1" d="M58.2579,16.6552C57.8886,16.5633 57.2865,16.5189 54.8656,16.5189C54.0838,16.5189 53.1951,16.5235 52.2504,16.5282C51.1839,16.5335 50.0453,16.5392 48.9089,16.5392C47.0819,16.5392 44.5236,16.526 42.703,16.4217C39.7871,14.303 36.4282,13.1721 32.7114,13.06C25.4482,12.8376 18.3949,15.2489 14.8945,20.5863C13.7767,22.2906 13.2743,22.7472 11.7522,23.7317C10.6932,24.4167 9.63997,24.9544 9.23929,25.0432C8.12627,25.2905 7.40521,26.2649 7.52556,27.3596C7.61219,28.1488 8.17349,29.0355 9.42604,29.4478C9.28154,29.5898 9.14379,29.7388 9.01562,29.8932C8.16675,30.9155 7.81172,32.0775 8.01586,33.1658C8.05704,33.3841 8.1142,33.5927 8.18698,33.7911C6.35077,36.9151 5.38473,40.4613 5.38473,44.1073C5.38473,45.0281 5.44686,45.9443 5.57006,46.8516C5.28107,46.8016 4.99065,46.776 4.70024,46.776C3.30355,46.776 2.00876,47.3814 1.14888,48.4367C0.199172,49.6027 -0.133846,51.1625 0.211243,52.8289C0.913846,56.2229 6.05822,61.9447 10.1602,62.929C10.5643,63.0255 10.9502,63.0748 11.307,63.0748C12.4044,63.0748 13.3108,62.6125 13.86,61.7729C14.0343,61.5061 14.1604,61.2229 14.2477,60.9334C17.0471,62.863 20.2832,64.0581 23.7114,64.4051C24.4541,66.8273 26.4483,67.2311 27.6927,67.2311C29.5686,67.2311 31.1893,66.4689 32.345,65.0637C32.4493,65.0651 32.5541,65.0662 32.6592,65.0662C33.4523,65.0662 34.4379,65.0119 35.5654,64.838C31.9562,68.886 26.7422,71.2155 22.903,71.2163L22.9019,71.2163C21.2837,71.2163 19.1098,70.8036 17.9418,68.8399C16.3963,66.2418 13.9189,64.6276 11.477,64.6276C8.91195,64.6276 7.1297,66.4376 7.04272,69.1312C6.9955,70.5893 7.75988,72.175 9.25349,73.7165C11.766,76.31 16.6381,78.9269 21.8599,78.9269C23.0137,78.9269 24.1445,78.7977 25.2206,78.543C34.4741,76.3525 42.7651,68.9478 45.1768,60.8035C54.0092,54.0595 53.3091,35.5191 50.3822,27.2525C50.1792,26.6787 49.9598,26.1166 49.7244,25.568C50.0805,25.6092 50.4327,25.6298 50.7792,25.6298C51.5883,25.6298 52.3764,25.5162 53.1224,25.2927C57.7133,23.9163 59.7873,20.5102 59.744,18.6412C59.7213,17.6548 59.1376,16.8752 58.2579,16.6552" style="fill:black;"/>
        <path d="M7.83283,23.7533L13.4028,38.9827C14.0524,40.4776 16.3878,39.3477 15.889,38.232L9.10425,23.4934C9.62877,23.2981 10.1072,22.9593 10.4758,22.4849C11.3587,21.3485 11.3321,19.7938 10.5058,18.697L9.57738,21.4539L6.26565,21.2505L5.89594,18.2831C5.7731,18.3971 5.65785,18.5224 5.55171,18.659C4.49522,20.0188 4.78236,21.9264 6.1008,23.034C6.50445,23.3731 7.31947,23.7622 7.83283,23.7533ZM17.2759,18.7222C16.4453,19.0362 15.8719,19.1108 15.2386,18.7333C15.182,18.6995 15.1315,18.6648 15.0867,18.6293C14.3112,18.1264 15.8266,16.5202 16.8569,15.8722C16.9454,10.6731 19.8097,3.48543 29.295,2.74015C43.4486,1.62805 45.6262,16.5537 44.3503,16.7124L43.7096,15.7269C43.0382,15.6644 42.3272,15.6069 41.5851,15.5568C41.535,15.7953 41.466,15.953 41.3866,16.0108C39.4775,15.6639 37.1919,15.4427 34.6333,15.3629C30.511,15.4184 26.2317,15.805 22.7649,16.7892C19.9561,17.5867 18.4054,18.3659 17.2759,18.7222ZM43.7096,15.7269C43.0486,15.6224 42.3457,15.5312 41.6047,15.4536L41.6028,15.4645L41.6021,15.4687C42.2768,15.5533 42.9786,15.6394 43.7096,15.7269Z" style="fill:white;stroke-width:3px;stroke:black;"/>
        <path id="Fill-3" d="M43.1969,38.3351C40.3475,35.7821 38.3831,34.213 35.5585,33.6289C33.6594,33.2365 31.3929,33.7389 29.3934,34.1821C27.8781,34.5185 26.5695,34.8095 25.5512,34.7016C23.9873,34.5369 22.7476,33.7144 22.3943,32.6052C22.1454,31.8238 22.2136,30.5716 23.9536,29.0412C24.6775,28.4043 25.5438,27.872 26.4935,27.4395C25.1238,27.4416 23.7704,27.1783 22.4696,26.4881C20.7896,28.8201 16.5257,30.5095 15.2135,29.9272C14.922,29.7977 14.5964,29.5756 14.2957,29.2658C14.2673,29.2878 14.2411,29.3119 14.2127,29.3343C14.5588,29.6583 14.8112,30.1121 14.9202,30.6426C15.1414,31.7181 14.7647,32.8688 13.9123,33.7205C13.1703,34.4624 12.2355,34.8879 11.3483,34.8879C10.7277,34.8879 10.198,34.6721 9.80106,34.2953C8.0458,37.1521 7.02686,40.5085 7.02686,44.1073C7.02686,45.7828 7.25089,47.4052 7.66237,48.9512C9.42402,50.4025 12.3257,56.1679 12.9587,57.6142C12.9931,57.6934 13.0322,57.7934 13.0723,57.9091C16.0918,60.6995 20.0259,62.5167 24.3772,62.8524C24.3225,62.1331 24.347,61.3666 24.3722,60.6098C24.4027,59.6826 24.4347,58.7235 24.3136,57.9357C24.2138,57.2874 24.0473,56.5919 23.8709,55.8556C23.2137,53.1103 22.4682,49.9983 25.095,48.2483C25.5985,47.9126 26.1459,47.7423 26.7214,47.7423C29.0817,47.7423 31.2271,50.5866 32.3341,52.7494C33.8415,50.3106 36.3189,48.7642 39.265,48.4658C40.7568,48.3143 42.2454,48.5076 43.4724,48.9618C43.9052,47.3885 44.1275,45.7576 44.1275,44.1073C44.1275,42.1326 43.8143,40.1909 43.1969,38.3351" style="fill:rgb(140,140,140);"/>
        <path id="Fill-4" d="M30.9295,33.8457C30.3923,33.9511 29.8619,34.0682 29.3489,34.1821C27.8336,34.5185 26.525,34.8095 25.5067,34.7016C23.9428,34.5369 22.7031,33.7144 22.3498,32.6052C22.1009,31.8238 22.1691,30.5716 23.9091,29.0412C23.9343,29.0192 23.9627,28.9993 23.9879,28.9773C22.8678,28.6122 21.688,28.3791 20.4667,28.2964C18.5364,29.5997 16.1041,30.342 15.169,29.9272C14.8779,29.7977 14.5527,29.5759 14.2523,29.2665C14.2246,29.2896 14.1969,29.3123 14.1685,29.3346C14.5147,29.6586 14.7667,30.1125 14.8757,30.6426C15.0969,31.7181 14.7202,32.8688 13.8678,33.7205C13.1258,34.4624 12.191,34.8879 11.3038,34.8879C10.6828,34.8879 10.1528,34.6718 9.75586,34.2946C8.00095,37.1514 6.98237,40.5085 6.98237,44.1073C6.98237,45.7814 7.20249,47.4041 7.61467,48.9484C8.79621,49.9188 10.4911,52.8331 11.6712,55.0864C13.9253,56.5203 16.598,57.3548 19.468,57.3548C21.054,57.3548 22.5792,57.0979 24.0085,56.6292C23.9503,56.3762 23.8896,56.1196 23.8264,55.8556C23.1692,53.1103 22.4237,49.9983 25.0505,48.2483C25.554,47.9126 26.1014,47.7423 26.6769,47.7423C28.4922,47.7423 30.1779,49.4245 31.364,51.1853C33.0376,48.816 34.0243,45.9273 34.0243,42.8065C34.0243,39.4245 32.8665,36.3154 30.9295,33.8457" style="fill:rgb(174,174,174);"/>
        <g id="balle-acier">
            <g id="Calque1">
                <path d="M6.94701,39.6073C9.62719,44.9874 39.2594,52.1401 44.7228,43.9357" style="fill:none;stroke-width:0.35px;stroke:black;"/>
            </g>
        </g>
        <path id="Moteur-wrapper" d="M20.2226,30.7606C26.6164,31.1841 31.431,37.0941 30.9762,43.9612C30.5214,50.8282 24.9695,56.0517 18.5757,55.6283C12.1818,55.2048 7.36726,49.2947 7.82204,42.4277C8.27682,35.5607 13.8287,30.3372 20.2226,30.7606Z" style="fill:rgb(118,52,34);"/>
        <clipPath id="tag1">
            <path d="M20.2226,30.7606C26.6164,31.1841 31.431,37.0941 30.9762,43.9612C30.5214,50.8282 24.9695,56.0517 18.5757,55.6283C12.1818,55.2048 7.36726,49.2947 7.82204,42.4277C8.27682,35.5607 13.8287,30.3372 20.2226,30.7606Z"/>
        </clipPath>
        <g clip-path="url(#tag1)">
            <g id="Moteur">
                <g>
                    <g id="Trou">
                        <g>
                            <path id="fond" d="M20.2226,30.7606C26.6164,31.1841 31.431,37.0941 30.9762,43.9612C30.5214,50.8282 24.9695,56.0517 18.5757,55.6283C12.1818,55.2048 7.36726,49.2947 7.82204,42.4277C8.27682,35.5607 13.8287,30.3372 20.2226,30.7606Z" style="fill:rgb(118,52,34);"/>
                            <path id="ombre" d="M30.2068,31.665C11.0715,29.5996 7.04912,45.5888 18.7223,56.0509C6.82903,56.3459 -2.00341,47.0988 2.58974,33.0809C6.03098,22.5785 20.7754,23.3719 30.2068,31.665Z" style="fill:rgb(78,35,24);"/>
                            <g id="Roue-fond">
                                <clipPath id="tag2">
                                    <rect x="6.99137" y="34.7231" width="26.779" height="26.9387"/>
                                </clipPath>
                                <g clip-path="url(#tag2)">
                                    <g>
                                    	<g id="roue-fond-ombre">
                                    		<animateTransform  attributeType="XML" attributeName="transform" 
						                    type="rotate" from="0,20.22242498397827,47.80959892272949" to="360,20.22242498397827,47.80959892272949" 
						                    begin="4s" dur="20s" repeatCount="indefinite"/>
                                        <path d="M20.2224,34.7231L22.4387,37.5274L25.604,35.867L26.488,39.3303L30.055,39.1009L29.454,42.6243L32.8059,43.8655L30.8237,46.8399L33.381,49.3372L30.3604,51.2482L31.6809,54.5697L28.1441,55.0869L27.9995,58.6583L24.5581,57.6923L22.9733,60.8961L20.2224,58.6139L17.4715,60.8961L15.8868,57.6923L12.4454,58.6583L12.3008,55.0869L8.764,54.5697L10.0845,51.2482L7.06385,49.3372L9.62115,46.8399L7.63895,43.8655L10.9909,42.6243L10.3898,39.1009L13.9568,39.3303L14.8409,35.867L18.0062,37.5274L20.2224,34.7231Z" style="fill:rgb(27,6,1);fill-opacity:0.517647;"/>
                                        </g>
                                        <g id="roue-fond-elem">
                                        	<animateTransform  attributeType="XML" attributeName="transform" 
						                    type="rotate" from="0,20.53931474685669,48.286149978637695" to="360,20.53931474685669,48.286149978637695" 
						                    begin="4s" dur="20s" repeatCount="indefinite"/>
                                        <path d="M20.5393,35.1996L22.7556,38.004L25.9209,36.3435L26.8049,39.8069L30.3719,39.5774L29.7709,43.1009L33.1228,44.3421L31.1406,47.3165L33.6979,49.8137L30.6773,51.7247L31.9978,55.0462L28.461,55.5634L28.3163,59.1349L24.875,58.1688L23.2902,61.3727L20.5393,59.0904L17.7884,61.3727L16.2036,58.1688L12.7623,59.1349L12.6176,55.5634L9.08088,55.0462L10.4014,51.7247L7.38073,49.8137L9.93803,47.3165L7.95582,44.3421L11.3078,43.1009L10.7067,39.5774L14.2737,39.8069L15.1578,36.3435L18.323,38.004L20.5393,35.1996Z" style="fill:rgb(45,9,2);"/>
                                    	</g>
                                    </g>
                                </g>
                            </g>
							<g id="Pipes">
                                <g>
                                    <g id="Pipe2">
                                    	<animateTransform  attributeType="XML" attributeName="transform" 
					                    type="translate" values="0,0;0,-.05;0,-.1;0,-.5;0,-.1;0,-.05;0,0;0,0;0,0;0,0"
					                    begin="5.25s" dur=".5s" repeatCount="indefinite"/>
                                        <path d="M11.8417,47.409C11.8417,47.409 11.8204,42.4519 11.8262,41.7027C11.8295,41.2736 12.1717,40.8704 12.8125,40.8755C13.4534,40.8806 13.8283,41.2867 13.8268,41.7285C13.8232,42.8362 13.8268,47.4121 13.8268,47.4121L11.8417,47.409Z" style="fill:rgb(170,144,138);"/>
                                        <clipPath id="tag4">
                                            <path d="M11.8417,47.409C11.8417,47.409 11.8204,42.4519 11.8262,41.7027C11.8295,41.2736 12.1717,40.8704 12.8125,40.8755C13.4534,40.8806 13.8283,41.2867 13.8268,41.7285C13.8232,42.8362 13.8268,47.4121 13.8268,47.4121L11.8417,47.409Z"/>
                                        </clipPath>
                                        <g clip-path="url(#tag4)">
                                            <path d="M13.3846,40.0443L12.1296,40.6256L12.1422,46.4214" style="fill:none;stroke-width:2px;stroke:rgb(4,1,0);stroke-opacity:0.27451;"/>
                                        </g>
                                        <ellipse cx="12.7807" cy="41.5906" rx="0.764571" ry="0.554769" style="fill:rgb(22,22,22);"/>
                                    </g>
                                    <g id="Pipe1">
                                    	<animateTransform  attributeType="XML" attributeName="transform" 
					                    type="translate" values="0,0;0,-.05;0,-.1;0,-.5;0,-.1;0,-.05;0,0;0,0;0,0;0,0"
					                    begin="5s" dur=".5s" repeatCount="indefinite"/>
                                        <path d="M9.3413,47.6178C9.3413,47.6178 9.31996,42.6607 9.32579,41.9114C9.32913,41.4823 9.67128,41.0791 10.3121,41.0842C10.953,41.0893 11.3279,41.4955 11.3264,41.9373C11.3228,43.045 11.3264,47.6208 11.3264,47.6208L9.3413,47.6178Z" style="fill:rgb(170,144,138);"/>
                                        <clipPath id="tag5">
                                            <path d="M9.3413,47.6178C9.3413,47.6178 9.31996,42.6607 9.32579,41.9114C9.32913,41.4823 9.67128,41.0791 10.3121,41.0842C10.953,41.0893 11.3279,41.4955 11.3264,41.9373C11.3228,43.045 11.3264,47.6208 11.3264,47.6208L9.3413,47.6178Z"/>
                                        </clipPath>
                                        <g clip-path="url(#tag5)">
                                            <path d="M10.8842,40.253L9.62925,40.8343L9.64183,46.6302" style="fill:none;stroke-width:2px;stroke:rgb(4,1,0);stroke-opacity:0.27451;"/>
                                        </g>
                                        <ellipse cx="10.2803" cy="41.7994" rx="0.764571" ry="0.554769" style="fill:rgb(22,22,22);"/>
                                    </g>
                                </g>
                            </g>
                            <g id="Elements">
                                <g>
                                	<g id="moteur-acier">
                                		<animateTransform  attributeType="XML" attributeName="transform" 
					                    type="translate" values="0,0;.1,-.1;0,0" 
					                    begin="0s" dur=".25s" repeatCount="indefinite"/>
	                                	<g id="gros-tuyau">
			                                <g>
			                                    <path d="M23.5345,38.1206C16.631,46.1361 15.638,53.3022 20.5555,59.6189" style="fill:none;stroke-width:4px;stroke:rgb(42,42,42);stroke-opacity:0.368627;"/>
			                                    <path d="M22.9773,37.8987C16.0737,45.9141 15.0807,53.0802 19.9983,59.3969" style="fill:none;stroke-width:4px;stroke:rgb(162,162,162);"/>
			                                </g>
			                            </g>
	                                    <g id="Entree-piston">
	                                        <path d="M22.8004,44.9403L17.552,40.5967L18.9548,39.8043L23.3165,43.4141L22.8004,44.9403Z" style="fill:rgb(15,15,15);fill-opacity:0.317647;"/>
	                                        <path d="M22.5219,44.3821L17.2735,40.0384L18.6763,39.2461L23.038,42.8558L22.5219,44.3821Z" style="fill:rgb(144,68,53);"/>
	                                    </g>
	                                    <g id="Piston">
	                                        <path d="M25.9,41.6596C25.6468,42.1977 25.1586,42.5883 24.578,42.7173C23.9974,42.8462 23.3898,42.6991 22.9325,42.3188C21.4203,41.0613 19.318,39.3131 17.8058,38.0555C17.3485,37.6752 17.093,37.1046 17.114,36.5102C17.1349,35.9159 17.4299,35.3647 17.9129,35.0175C20.6765,33.031 25.3017,29.7062 25.3017,29.7062L29.7749,33.4261C29.7749,33.4261 27.3493,38.5801 25.9,41.6596Z" style="fill:rgb(113,113,113);"/>
	                                        <clipPath id="tag4">
	                                            <path d="M26.2575,42.1553C25.9455,42.8181 25.3443,43.2991 24.6292,43.458C23.9142,43.6168 23.1658,43.4356 22.6026,42.9673C20.9852,41.6222 18.8458,39.8431 17.2284,38.4981C16.6652,38.0297 16.3506,37.327 16.3764,36.5949C16.4022,35.8629 16.7655,35.184 17.3603,34.7565C20.4921,32.5052 25.4723,28.9253 25.4723,28.9253L30.5116,33.116C30.5116,33.116 27.8999,38.6654 26.2575,42.1553Z"/>
	                                        </clipPath>
	                                        <g clip-path="url(#tag4)">
	                                            <path d="M13.5275,34.5173L27.8992,46.8408" style="fill:rgb(83,67,64);stroke-width:1px;stroke:rgb(163,161,161);"/>
	                                            <path d="M13.5275,32.5173L27.8992,44.8408" style="fill:rgb(83,67,64);stroke-width:1px;stroke:rgb(163,161,161);"/>
	                                            <path d="M15.5275,32.1549L29.8992,44.4783" style="fill:rgb(83,67,64);stroke-width:1px;stroke:rgb(163,161,161);"/>
	                                            <path d="M16.5466,31.163L30.9182,43.4865" style="fill:rgb(83,67,64);stroke-width:1px;stroke:rgb(163,161,161);"/>
	                                            <path d="M17.9103,30.4257L32.2819,42.7492" style="fill:rgb(83,67,64);stroke-width:1px;stroke:rgb(163,161,161);"/>
	                                            <path d="M19.2589,29.7875L33.6306,42.1109" style="fill:rgb(53,52,52);stroke-width:1px;stroke:rgb(163,161,161);"/>
	                                        </g>
	                                    </g>
	                                </g>
                                    <g id="Calque19">
                                        <path d="M18.5029,29.9241C20.0294,40.8625 27.6379,44.5607 37.632,45.4189" style="fill:none;stroke-width:0.85px;stroke:black;stroke-opacity:0.160784;"/>
                                        <path d="M17.9744,29.8736C19.5009,40.8121 27.1094,44.5103 37.1036,45.3684" style="fill:none;stroke-width:0.85px;stroke:rgb(21,21,21);"/>
                                        <path d="M20.4696,26.7359C20.7013,40.8857 29.7037,43.6288 40.6092,43.6117" style="fill:none;stroke-width:0.85px;stroke:rgb(32,12,8);stroke-opacity:0.290196;"/>
                                        <path d="M19.8139,26.7361C20.0456,40.8859 29.048,43.629 39.9535,43.6119" style="fill:none;stroke-width:0.85px;stroke:rgb(21,21,21);"/>
                                        <path d="M22.8579,25.6357C23.1746,39.6497 30.5612,41.7051 41.2404,40.8491" style="fill:none;stroke-width:0.85px;stroke:rgb(42,20,16);stroke-opacity:0.309804;"/>
                                        <path d="M21.8579,25.6357C22.1746,39.6497 29.5612,41.7051 40.2404,40.8491" style="fill:none;stroke-width:0.85px;stroke:rgb(21,21,21);"/>
                                    </g>
                                    <g id="Courroie">
                                    	<animateTransform  attributeType="XML" attributeName="transform" 
					                    type="translate" values="0,0;0,.2;0,0" 
					                    begin=".5s" dur=".25s" repeatCount="indefinite"/>
                                        <path id="courroie-ombre" d="M26.0707,36.9638L12.6608,50.8316L14.9518,53.6891L30.7464,44.2941" style="fill:none;stroke-width:0.95px;stroke:rgb(46,41,40);stroke-opacity:0.419608;"/>
                                        <path id="courroie-element" d="M25.944,36.5595L12.5341,50.4273L14.8251,53.2848L30.6197,43.8898" style="fill:none;stroke-width:0.95px;stroke:rgb(46,41,40);"/>
                                    </g>
                                    <g>
                                	<animateTransform  attributeType="XML" attributeName="transform" 
				                    type="rotate" from="0,11.588799715042114,54.06439781188965" to="360,11.588799715042114,54.06439781188965" 
				                    begin="1s" dur="10s" repeatCount="indefinite"/>
                                    <path id="roue-dentee-gauche-ombre" d="M12.1832,43.7671C11.5087,43.7282 10.832,43.7556 10.1629,43.849L9.924,45.4567C9.28485,45.5803 8.66145,45.7747 8.06534,46.0363L6.95494,44.8495C6.35134,45.153 5.77902,45.5151 5.24624,45.9306L5.84317,47.4423C5.35146,47.8689 4.90879,48.349 4.52336,48.8736L2.96831,48.401C2.59734,48.9657 2.28275,49.5654 2.02907,50.1916L3.30188,51.2023C3.08936,51.8176 2.94604,52.4547 2.87456,53.1018L1.29153,53.47C1.2526,54.1445 1.28003,54.8212 1.37343,55.4903L2.98106,55.7292C3.10468,56.3684 3.2991,56.9918 3.56073,57.5879L2.3739,58.6983C2.67743,59.3019 3.03953,59.8742 3.45498,60.407L4.96668,59.81C5.39331,60.3017 5.87338,60.7444 6.39801,61.1298L5.92539,62.6849C6.49006,63.0559 7.0898,63.3705 7.71599,63.6241L8.72669,62.3513C9.34202,62.5638 9.97911,62.7072 10.6262,62.7786L10.9944,64.3617C11.6689,64.4006 12.3456,64.3732 13.0147,64.2798L13.2536,62.6721C13.8928,62.5485 14.5161,62.3541 15.1123,62.0925L16.2227,63.2793C16.8263,62.9758 17.3986,62.6137 17.9314,62.1982L17.3344,60.6865C17.8261,60.2599 18.2688,59.7798 18.6542,59.2552L20.2093,59.7278C20.5803,59.1631 20.8948,58.5634 21.1485,57.9372L19.8757,56.9265C20.0882,56.3112 20.2316,55.6741 20.303,55.027L21.8861,54.6588C21.925,53.9843 21.8976,53.3076 21.8042,52.6385L20.1965,52.3996C20.0729,51.7605 19.8785,51.1371 19.6169,50.5409L20.8037,49.4305C20.5002,48.8269 20.1381,48.2546 19.7226,47.7218L18.2109,48.3188C17.7843,47.8271 17.3042,47.3844 16.7796,46.999L17.2522,45.4439C16.6875,45.0729 16.0878,44.7584 15.4616,44.5047L14.4509,45.7775C13.8356,45.565 13.1985,45.4216 12.5514,45.3502L12.1832,43.7671ZM11.5052,52.0032C12.6436,51.9571 13.6038,52.8425 13.65,53.9809C13.6961,55.1192 12.8107,56.0794 11.6724,56.1256C10.534,56.1717 9.57375,55.2863 9.52761,54.148C9.48146,53.0096 10.3669,52.0494 11.5052,52.0032Z" style="fill:rgb(34,34,34);fill-opacity:0.415686;"/></g>
                                    <g id="Roue-dentee-gauche">
                                    	<animateTransform  attributeType="XML" attributeName="transform" 
					                    type="rotate" from="0,11.285893440246582,54.38699913024902" to="360,11.285893440246582,54.38699913024902" 
					                    begin="1s" dur="10s" repeatCount="indefinite"/>
                                        <path d="M11.8803,44.0897C11.2058,44.0508 10.5291,44.0782 9.85998,44.1716L9.62109,45.7793C8.98194,45.9029 8.35854,46.0973 7.76244,46.3589L6.65203,45.1721C6.04843,45.4756 5.47611,45.8377 4.94333,46.2532L5.54026,47.7649C5.04855,48.1915 4.60589,48.6716 4.22045,49.1962L2.6654,48.7236C2.29443,49.2883 1.97984,49.888 1.72616,50.5142L2.99897,51.5249C2.78645,52.1402 2.64313,52.7773 2.57165,53.4244L0.988622,53.7926C0.949687,54.4671 0.977118,55.1438 1.07052,55.8129L2.67816,56.0518C2.80177,56.691 2.99619,57.3144 3.25782,57.9105L2.07099,59.0209C2.37452,59.6245 2.73662,60.1968 3.15207,60.7296L4.66377,60.1326C5.09041,60.6244 5.57048,61.067 6.09511,61.4524L5.62249,63.0075C6.18715,63.3785 6.7869,63.6931 7.41308,63.9467L8.42378,62.6739C9.03911,62.8864 9.6762,63.0298 10.3233,63.1013L10.6915,64.6843C11.366,64.7232 12.0427,64.6958 12.7118,64.6024L12.9507,62.9947C13.5898,62.8711 14.2132,62.6767 14.8093,62.4151L15.9198,63.6019C16.5234,63.2984 17.0957,62.9363 17.6285,62.5208L17.0315,61.0091C17.5232,60.5825 17.9659,60.1024 18.3513,59.5778L19.9064,60.0504C20.2774,59.4858 20.5919,58.886 20.8456,58.2598L19.5728,57.2491C19.7853,56.6338 19.9287,55.9967 20.0001,55.3496L21.5832,54.9814C21.6221,54.3069 21.5947,53.6302 21.5013,52.9611L19.8936,52.7222C19.77,52.0831 19.5756,51.4597 19.314,50.8636L20.5008,49.7531C20.1973,49.1495 19.8352,48.5772 19.4197,48.0444L17.908,48.6414C17.4814,48.1497 17.0013,47.707 16.4767,47.3216L16.9493,45.7665C16.3846,45.3956 15.7849,45.081 15.1587,44.8273L14.148,46.1001C13.5327,45.8876 12.8956,45.7442 12.2485,45.6728L11.8803,44.0897ZM11.2023,52.3258C12.3407,52.2797 13.3009,53.1651 13.3471,54.3035C13.3932,55.4418 12.5078,56.4021 11.3694,56.4482C10.2311,56.4943 9.27085,55.6089 9.2247,54.4706C9.17856,53.3322 10.064,52.372 11.2023,52.3258Z" style="fill:rgb(228,121,98);"/>
                                        <circle cx="11.2859" cy="54.9254" r="7.53089" style="fill:rgb(167,63,41);"/>
                                        <path d="M11.2859,48.3423L12.7296,50.0085L14.845,49.3874L15.1587,51.5696L17.2741,52.1907L16.3582,54.1961L17.802,55.8623L15.9473,57.0542L16.2611,59.2364L14.0564,59.2364L13.1406,61.2419L11.2859,60.0499L9.43122,61.2419L8.51538,59.2364L6.31073,59.2364L6.62448,57.0542L4.76981,55.8623L6.21355,54.1961L5.2977,52.1907L7.41305,51.5696L7.72681,49.3874L9.84215,50.0085L11.2859,48.3423Z" style="fill:rgb(208,168,159);"/>
                                    </g>
                                    <g id="Carburateur">
                                        <circle cx="28.5011" cy="40.5233" r="5.70158" style="fill:rgb(32,32,32);fill-opacity:0.415686;"/>
                                        <circle cx="28.2577" cy="40.9661" r="5.70158" style="fill:rgb(255,100,68);"/>
                                        <g id="carburateur-cadre">
                                        	<animateTransform  attributeType="XML" attributeName="transform" 
						                    type="rotate" from="0,27.88920021057129,41.139801025390625" to="-360,27.88920021057129,41.139801025390625" 
						                    begin="0s" dur="1s" repeatCount="indefinite"/>
	                                        <path d="M25.3309,38.4572C25.9508,37.4826 27.1278,37.018 28.2463,37.3064C28.7277,37.4305 29.2456,37.5641 29.727,37.6882C30.8455,37.9766 31.651,38.9524 31.7224,40.1052C31.7531,40.6015 31.7861,41.1353 31.8168,41.6315C31.8881,42.7843 31.209,43.852 30.1346,44.2761C29.6722,44.4586 29.1747,44.655 28.7123,44.8375C27.6379,45.2616 26.4126,44.9457 25.6773,44.0549C25.3608,43.6715 25.0203,43.2591 24.7038,42.8757C23.9685,41.985 23.8903,40.722 24.5102,39.7474C24.7771,39.3279 25.0641,38.8767 25.3309,38.4572Z" style="fill:rgb(255,142,119);"/>
	                                    </g>
                                        <g id="carburateur-centre">
                                        	<animateTransform  attributeType="XML" attributeName="transform" 
						                    type="rotate" from="0,28.088749885559082,41.007850646972656" to="-360,28.088749885559082,41.007850646972656" 
						                    begin="0s" dur="1s" repeatCount="indefinite"/>
	                                        <path d="M25.5305,38.3252C26.1504,37.3506 27.3273,36.886 28.4458,37.1744C28.9272,37.2986 29.4451,37.4321 29.9265,37.5563C31.045,37.8447 31.8506,38.8205 31.9219,39.9733C31.9526,40.4695 31.9856,41.0033 32.0163,41.4996C32.0877,42.6524 31.4085,43.7201 30.3342,44.1442C29.8717,44.3267 29.3743,44.5231 28.9118,44.7056C27.8374,45.1297 26.6122,44.8138 25.8768,43.923C25.5603,43.5396 25.2198,43.1272 24.9033,42.7438C24.168,41.853 24.0898,40.5901 24.7098,39.6155C24.9766,39.196 25.2636,38.7447 25.5305,38.3252Z" style="fill:rgb(83,38,31);"/>
	                                        <circle id="ecrou" cx="28.2863" cy="41.0538" r="0.874205" style="fill:rgb(208,168,159);"/>
	                                    
	                                        <clipPath id="tag5">
	                                            <circle cx="28.2863" cy="41.0538" r="0.874205"/>
	                                        </clipPath>
	                                        <g clip-path="url(#tag5)">
	                                            <path d="M29.1605,39.6666L27.4121,42.4617" style="fill:none;stroke-width:0.45px;stroke:rgb(34,34,34);"/>
	                                        </g>
	                                    </g>
                                    </g>
                                    <g id="Roue-dentee-droite">
                                    	<g>
                                		<animateTransform  attributeType="XML" attributeName="transform" 
					                    type="rotate" from="0,27.80020046234131,50.083900451660156" to="-360,27.80020046234131,50.083900451660156" 
					                    begin="1s" dur="6.675s" repeatCount="indefinite"/>
                                        <path id="roue-dentee-droite-ombre" d="M27.6501,43.3264C26.9855,43.3411 26.3267,43.4539 25.695,43.6609L25.5879,44.7816C24.9966,45.0283 24.4507,45.3722 23.9728,45.799L22.9158,45.4117C22.4563,45.8921 22.0701,46.4377 21.7698,47.0307L22.4866,47.8989C22.2429,48.4915 22.1001,49.1207 22.064,49.7604L21.0427,50.2339C21.0574,50.8986 21.1701,51.5574 21.3772,52.1891L22.4979,52.2961C22.7446,52.8875 23.0885,53.4334 23.5153,53.9112L23.128,54.9683C23.6084,55.4278 24.1539,55.8139 24.747,56.1142L25.6152,55.3975C26.2077,55.6412 26.8369,55.784 27.4766,55.8201L27.9502,56.8414C28.6148,56.8266 29.2736,56.7139 29.9053,56.5069L30.0124,55.3862C30.6037,55.1395 31.1496,54.7956 31.6275,54.3687L32.6845,54.7561C33.1441,54.2757 33.5302,53.7301 33.8305,53.137L33.1137,52.2689C33.3574,51.6763 33.5003,51.0471 33.5363,50.4074L34.5577,49.9338C34.5429,49.2692 34.4302,48.6104 34.2231,47.9787L33.1025,47.8716C32.8557,47.2803 32.5119,46.7344 32.085,46.2566L32.4723,45.1995C31.992,44.74 31.4464,44.3539 30.8533,44.0536L29.9852,44.7703C29.3926,44.5266 28.7634,44.3838 28.1237,44.3477L27.6501,43.3264ZM27.5722,48.7514C28.3081,48.6255 29.0067,49.12 29.1326,49.8559C29.2585,50.5918 28.7641,51.2904 28.0282,51.4164C27.2922,51.5423 26.5936,51.0478 26.4677,50.3119C26.3418,49.576 26.8363,48.8773 27.5722,48.7514Z" style="fill:rgb(16,16,16);fill-opacity:0.482353;"/></g>
                                        <g id="roue-dentee-droite-elem">
                                        	<animateTransform  attributeType="XML" attributeName="transform" 
						                    type="rotate" from="0,27.412100791931152,50.342899322509766" to="-360,27.412100791931152,50.342899322509766" 
						                    begin="1s" dur="6.675s" repeatCount="indefinite"/>
                                            <path d="M27.2621,43.5854C26.5975,43.6001 25.9387,43.7128 25.3069,43.9199L25.1999,45.0406C24.6086,45.2873 24.0627,45.6312 23.5848,46.058L22.5277,45.6707C22.0682,46.1511 21.6821,46.6966 21.3818,47.2897L22.0985,48.1579C21.8549,48.7505 21.712,49.3796 21.6759,50.0194L20.6546,50.4929C20.6694,51.1575 20.7821,51.8163 20.9891,52.4481L22.1098,52.5551C22.3565,53.1464 22.7004,53.6923 23.1273,54.1702L22.7399,55.2272C23.2203,55.6868 23.7659,56.0729 24.359,56.3732L25.2271,55.6565C25.8197,55.9001 26.4489,56.043 27.0886,56.0791L27.5622,57.1004C28.2268,57.0856 28.8856,56.9729 29.5173,56.7658L29.6244,55.6452C30.2157,55.3985 30.7616,55.0546 31.2395,54.6277L32.2965,55.0151C32.756,54.5347 33.1422,53.9891 33.4424,53.396L32.7257,52.5279C32.9694,51.9353 33.1122,51.3061 33.1483,50.6664L34.1696,50.1928C34.1549,49.5282 34.0421,48.8694 33.8351,48.2377L32.7144,48.1306C32.4677,47.5393 32.1238,46.9934 31.697,46.5155L32.0843,45.4585C31.6039,44.999 31.0584,44.6128 30.4653,44.3126L29.5971,45.0293C29.0045,44.7856 28.3754,44.6428 27.7356,44.6067L27.2621,43.5854ZM27.1841,49.0104C27.92,48.8845 28.6187,49.379 28.7446,50.1149C28.8705,50.8508 28.376,51.5494 27.6401,51.6753C26.9042,51.8013 26.2056,51.3068 26.0797,50.5709C25.9537,49.835 26.4482,49.1363 27.1841,49.0104Z" style="fill:rgb(255,206,196);"/>
                                            <g id="Calque20">
                                                <circle cx="27.4121" cy="45.7557" r="0.310591" style="fill:rgb(99,90,90);"/>
                                                <circle cx="24.9321" cy="46.4839" r="0.310591" style="fill:rgb(99,90,90);"/>
                                                <circle cx="23.2394" cy="48.4373" r="0.310591" style="fill:rgb(99,90,90);"/>
                                                <circle cx="22.8716" cy="50.9957" r="0.310591" style="fill:rgb(99,90,90);"/>
                                                <circle cx="23.9453" cy="53.3469" r="0.310591" style="fill:rgb(99,90,90);"/>
                                                <circle cx="26.1198" cy="54.7443" r="0.310591" style="fill:rgb(99,90,90);"/>
                                                <circle cx="28.7045" cy="54.7443" r="0.310591" style="fill:rgb(99,90,90);"/>
                                                <circle cx="30.8789" cy="53.3469" r="0.310591" style="fill:rgb(99,90,90);"/>
                                                <circle cx="31.9526" cy="50.9957" r="0.310591" style="fill:rgb(99,90,90);"/>
                                                <circle cx="31.5848" cy="48.4373" r="0.310591" style="fill:rgb(99,90,90);"/>
                                                <circle cx="29.8922" cy="46.4839" r="0.310591" style="fill:rgb(99,90,90);"/>
                                            </g>
                                        </g>
                                    </g>
                                </g>
                            </g>
                            <path id="Tour" d="M20.2226,30.7606C26.6164,31.1841 31.431,37.0941 30.9762,43.9612C30.5214,50.8282 24.9695,56.0517 18.5757,55.6283C12.1818,55.2048 7.36726,49.2947 7.82204,42.4277C8.27682,35.5607 13.8287,30.3372 20.2226,30.7606Z" style="fill:none;stroke-width:0.85px;stroke:rgb(43,9,0);"/>
                            <path id="Tour-ombre-inner" d="M21.2344,30.5818C27.7202,31.0114 32.604,37.0064 32.1427,43.9722C31.6813,50.9379 26.0496,56.2366 19.5638,55.8071C13.078,55.3775 8.19424,49.3825 8.65556,42.4167C9.11688,35.4509 14.7486,30.1523 21.2344,30.5818Z" style="fill:none;stroke-width:1px;stroke:rgb(43,9,0);stroke-opacity:0.305882;"/>
                        </g>
                    </g>
                </g>
            </g>
        </g>
        <path d="M20.2226,30.7606C26.6164,31.1841 31.431,37.0941 30.9762,43.9612C30.5214,50.8282 24.9695,56.0517 18.5757,55.6283C12.1818,55.2048 7.36726,49.2947 7.82204,42.4277C8.27682,35.5607 13.8287,30.3372 20.2226,30.7606Z" style="fill:none;stroke-width:0.85px;stroke:black;"/>
        <path id="Fill-13" d="M48.3742,27.9628C47.7788,26.2813 47.0475,24.7508 46.2004,23.3751C44.9272,22.7552 43.4954,21.8405 41.9173,20.496L41.7898,20.3874C40.0449,18.9347 40.2856,18.2708 40.3644,18.0525C40.4276,17.8776 40.5398,17.741 40.6946,17.6388C38.329,16.1247 35.6134,15.2777 32.6471,15.1883C25.2756,14.9651 18.8151,18.1001 15.3618,23.5742C14.4178,25.0713 14.0915,26.4317 14.4192,27.5094C14.6578,28.2943 15.2052,28.7783 15.6014,28.9543C16.2724,29.253 20.5417,27.7719 21.7821,25.5176C21.8528,25.3903 21.9721,25.2966 22.113,25.2597C22.2547,25.2228 22.4041,25.2448 22.528,25.3211C25.4407,27.1123 28.7148,26.2933 31.5543,25.3853C31.8355,25.2962 32.1341,25.4502 32.2239,25.7302C32.2718,25.8806 32.2477,26.0357 32.1735,26.162C34.0502,26.1127 35.9333,26.3987 37.5927,27.0534C37.866,27.1613 38.0002,27.4703 37.8923,27.7439C37.7844,28.0175 37.4748,28.152 37.2014,28.0434C33.1186,26.4331 27.5893,27.2219 24.6128,29.8403C23.5921,30.738 23.1486,31.6053 23.3645,32.2819C23.5864,32.9774 24.4917,33.5246 25.6182,33.6427C26.465,33.7307 27.7534,33.4458 29.1185,33.1428C31.222,32.6762 33.6071,32.1471 35.7298,32.5864C39.1701,33.2978 41.4525,35.3605 44.907,38.4827L45.328,38.8631C45.546,39.0601 45.5631,39.3968 45.366,39.6147C45.2609,39.7314 45.1161,39.7903 44.9709,39.7903C44.8502,39.7903 44.7309,39.7463 44.6322,39.6644C44.973,41.1135 45.148,42.6014 45.148,44.1073C45.148,45.9127 44.8974,47.6965 44.4075,49.4143C44.956,49.7244 45.4168,50.097 45.747,50.5242C45.927,50.7566 45.884,51.0912 45.6515,51.2704C45.4193,51.4503 45.0838,51.4077 44.9045,51.175C43.9846,49.9852 41.6418,49.2918 39.3273,49.525C37.642,49.6956 34.571,50.5025 32.8307,53.9583C32.897,54.1357 32.9521,54.3 32.9922,54.4445C33.9046,57.5699 33.6888,59.4661 32.9989,61.664C32.9311,62.0348 32.7998,62.4769 32.6031,62.9375C34.9466,62.9443 39.0834,62.4297 43.4854,59.4005C51.8201,53.6649 51.087,35.6238 48.3742,27.9628" style="fill:rgb(255,210,0);"/>
        <clipPath id="tag6">
            <path id="Fill-131" d="M48.3742,27.9628C47.7788,26.2813 47.0475,24.7508 46.2004,23.3751C44.9272,22.7552 43.4954,21.8405 41.9173,20.496L41.7898,20.3874C40.0449,18.9347 40.2856,18.2708 40.3644,18.0525C40.4276,17.8776 40.5398,17.741 40.6946,17.6388C38.329,16.1247 35.6134,15.2777 32.6471,15.1883C25.2756,14.9651 18.8151,18.1001 15.3618,23.5742C14.4178,25.0713 14.0915,26.4317 14.4192,27.5094C14.6578,28.2943 15.2052,28.7783 15.6014,28.9543C16.2724,29.253 20.5417,27.7719 21.7821,25.5176C21.8528,25.3903 21.9721,25.2966 22.113,25.2597C22.2547,25.2228 22.4041,25.2448 22.528,25.3211C25.4407,27.1123 28.7148,26.2933 31.5543,25.3853C31.8355,25.2962 32.1341,25.4502 32.2239,25.7302C32.2718,25.8806 32.2477,26.0357 32.1735,26.162C34.0502,26.1127 35.9333,26.3987 37.5927,27.0534C37.866,27.1613 38.0002,27.4703 37.8923,27.7439C37.7844,28.0175 37.4748,28.152 37.2014,28.0434C33.1186,26.4331 27.5893,27.2219 24.6128,29.8403C23.5921,30.738 23.1486,31.6053 23.3645,32.2819C23.5864,32.9774 24.4917,33.5246 25.6182,33.6427C26.465,33.7307 27.7534,33.4458 29.1185,33.1428C31.222,32.6762 33.6071,32.1471 35.7298,32.5864C39.1701,33.2978 41.4525,35.3605 44.907,38.4827L45.328,38.8631C45.546,39.0601 45.5631,39.3968 45.366,39.6147C45.2609,39.7314 45.1161,39.7903 44.9709,39.7903C44.8502,39.7903 44.7309,39.7463 44.6322,39.6644C44.973,41.1135 45.148,42.6014 45.148,44.1073C45.148,45.9127 44.8974,47.6965 44.4075,49.4143C44.956,49.7244 45.4168,50.097 45.747,50.5242C45.927,50.7566 45.884,51.0912 45.6515,51.2704C45.4193,51.4503 45.0838,51.4077 44.9045,51.175C43.9846,49.9852 41.6418,49.2918 39.3273,49.525C37.642,49.6956 34.571,50.5025 32.8307,53.9583C32.897,54.1357 32.9521,54.3 32.9922,54.4445C33.9046,57.5699 33.6888,59.4661 32.9989,61.664C32.9311,62.0348 32.7998,62.4769 32.6031,62.9375C34.9466,62.9443 39.0834,62.4297 43.4854,59.4005C51.8201,53.6649 51.087,35.6238 48.3742,27.9628"/>
        </clipPath>
        <g clip-path="url(#tag6)">
            <path id="Suie-genou" d="M33.1032,56.8896L32.0675,54.0668C33.2958,51.7312 35.0672,50.0205 37.6323,49.223C40.9704,48.9071 41.5816,50.3346 41.8261,51.1803C42.242,52.6187 40.5762,53.8556 39.8688,54.0088C38.3282,54.3425 40.6164,52.0568 38.5613,52.248C37.6531,52.3326 37.2214,54.7882 36.5627,55.4735C35.8123,56.2543 33.1032,56.8896 33.1032,56.8896Z" style="fill:rgb(63,63,63);fill-opacity:0.431373;"/>
        </g>
        <path id="Fill-6" d="M31.8128,55.5271C31.8071,55.5047 31.8021,55.4831 31.7964,55.4604C31.7457,55.2581 31.6896,55.0498 31.6264,54.8334C31.0992,52.9357 28.592,49.1616 26.6769,49.1616C26.3826,49.1616 26.1082,49.2493 25.838,49.4292C24.1612,50.5469 24.4995,52.5688 25.2078,55.5256C25.3828,56.257 25.5639,57.0135 25.6725,57.7196C25.8142,58.6383 25.7798,59.6648 25.7467,60.657C25.6956,62.1977 25.6427,63.7913 26.3073,64.4779C26.5981,64.7784 27.0511,64.9246 27.6927,64.9246C27.8783,64.9246 28.053,64.9108 28.222,64.8895C28.2735,64.8831 28.3221,64.8735 28.3718,64.8654C28.4897,64.8462 28.6037,64.8228 28.7134,64.7944C28.762,64.7816 28.8107,64.7685 28.8579,64.7539C28.9722,64.7192 29.0815,64.6791 29.1866,64.6347C29.2175,64.6219 29.2502,64.6106 29.2804,64.5971C29.4153,64.5357 29.5438,64.4679 29.6645,64.3934C29.6762,64.386 29.6869,64.3775 29.6986,64.37C29.8054,64.3019 29.9063,64.2295 30.0018,64.1532C30.0298,64.1308 30.0564,64.1078 30.0838,64.0847C30.1622,64.0184 30.2372,63.9495 30.3082,63.8789C30.332,63.8551 30.3564,63.8314 30.3795,63.8072C30.4591,63.7235 30.5343,63.6376 30.6046,63.5503C30.6128,63.54 30.622,63.5305 30.6298,63.5202C30.7083,63.4208 30.7804,63.3197 30.8475,63.2182C30.8634,63.1944 30.8773,63.1703 30.8922,63.1469C30.9398,63.0716 30.9852,62.9964 31.0271,62.9219C31.0473,62.8861 31.0665,62.8509 31.0853,62.8155C31.118,62.7537 31.1489,62.6927 31.178,62.632C31.1961,62.594 31.2153,62.5557 31.2323,62.5181C31.2564,62.4652 31.2774,62.4145 31.2987,62.3634C31.3434,62.2566 31.3836,62.1533 31.4169,62.0582C31.4191,62.0529 31.4212,62.0472 31.423,62.0423C31.4464,61.9741 31.4677,61.9095 31.4862,61.8496C31.5667,61.5874 31.6033,61.4035 31.6086,61.3727C31.614,61.3422 31.6214,61.3102 31.631,61.2811C32.1632,59.5974 32.3769,58.1813 31.9434,56.0966C31.9051,55.9121 31.8611,55.7219 31.8128,55.5271" style="fill:rgb(255,210,0);"/>
        <path d="M23.8745,51.1536C25.0078,55.398 25.4486,59.1552 24.8774,62.2003C24.8774,62.2003 28.0167,60.0811 27.7372,58.2537C27.1202,54.2202 23.8745,51.1536 23.8745,51.1536Z" style="fill:rgb(74,69,69);fill-opacity:0.537255;"/>
        <path id="Fill-8" d="M2.80118,49.7808C2.26331,50.4412 2.08438,51.3701 2.29704,52.3974C2.83953,55.0182 7.50036,60.1013 10.6573,60.8585C10.8983,60.9164 11.117,60.9458 11.307,60.9458C11.7991,60.9458 11.9822,60.7531 12.0774,60.608C12.4622,60.0193 12.2439,58.7391 11.9386,58.0415C11.0645,56.0448 8.29456,50.8102 6.89467,49.7336C6.18994,49.1914 5.43124,48.9051 4.70024,48.9051C3.93586,48.9051 3.26095,49.2163 2.80118,49.7808" style="fill:rgb(255,210,0);"/>
        <clipPath id="tag7">
            <path id="Fill-81" d="M2.80118,49.7808C2.26331,50.4412 2.08438,51.3701 2.29704,52.3974C2.83953,55.0182 7.50036,60.1013 10.6573,60.8585C10.8983,60.9164 11.117,60.9458 11.307,60.9458C11.7991,60.9458 11.9822,60.7531 12.0774,60.608C12.4622,60.0193 12.2439,58.7391 11.9386,58.0415C11.0645,56.0448 8.29456,50.8102 6.89467,49.7336C6.18994,49.1914 5.43124,48.9051 4.70024,48.9051C3.93586,48.9051 3.26095,49.2163 2.80118,49.7808"/>
        </clipPath>
        <g clip-path="url(#tag7)">
            <path id="Suie-patte1" d="M6.6705,48.7562C6.6705,48.7562 5.23559,50.8587 6.07725,52.5474C6.5309,53.4576 8.71635,53.6669 9.30474,54.2602C9.74406,54.7032 9.17561,55.6598 9.6076,56.1073C10.0396,56.5547 11.8966,56.9448 11.8966,56.9448C10.9659,53.9995 9.24963,51.2631 6.6705,48.7562Z" style="fill:rgb(64,64,64);fill-opacity:0.498039;"/>
        </g>
        <path id="Fill-9" d="M10.1098,32.773C10.2728,33.641 10.849,33.8234 11.3038,33.8234C11.9017,33.8234 12.5787,33.5036 13.1148,32.9675C13.713,32.3696 13.9814,31.5808 13.8327,30.8565C13.7404,30.407 13.4947,30.0624 13.1755,29.935C13.1233,29.9141 13.0516,29.9031 12.9678,29.9031C12.3944,29.9031 11.3471,30.419 10.6548,31.2529C10.402,31.5577 9.99444,32.1602 10.1098,32.773" style="fill:rgb(255,210,0);"/>
        <path id="Fill-10" d="M42.8517,61.0654C41.787,61.7013 40.7439,62.2073 39.7431,62.6033C36.4583,68.61 29.323,73.2254 23.132,73.3428C19.9342,73.3953 17.4568,72.1903 16.1109,69.9282C14.6009,67.39 12.2947,66.4529 10.7943,66.839C9.78888,67.098 9.21266,67.9361 9.17183,69.1997C9.13598,70.3082 10.1151,71.7872 11.7909,73.1562C14.8037,75.618 19.9736,77.5973 24.7296,76.4711C32.9514,74.5251 40.336,68.1735 42.8517,61.0654" style="fill:rgb(255,136,0);"/>
        <clipPath id="tag8">
            <path id="Fill-101" d="M42.8517,61.0654C41.787,61.7013 40.7439,62.2073 39.7431,62.6033C36.4583,68.61 29.323,73.2254 23.132,73.3428C19.9342,73.3953 17.4568,72.1903 16.1109,69.9282C14.6009,67.39 12.2947,66.4529 10.7943,66.839C9.78888,67.098 9.21266,67.9361 9.17183,69.1997C9.13598,70.3082 10.1151,71.7872 11.7909,73.1562C14.8037,75.618 19.9736,77.5973 24.7296,76.4711C32.9514,74.5251 40.336,68.1735 42.8517,61.0654"/>
        </clipPath>
        <!-- <g clip-path="url(#tag8)">
            <g id="Suie-queue">
                <path d="M10.1685,65.9793C14.4135,73.3782 19.7095,75.4131 25.9625,72.5644C20.9115,72.709 17.0101,70.1348 13.7872,65.9564L10.1685,65.9793Z" style="fill:rgb(51,51,51);fill-opacity:0.698039;"/>
            </g>
        </g> -->
        <path id="Fill-11" d="M9.70154,27.1215C9.65183,27.1325 9.63657,27.1495 9.63621,27.1495C9.64118,27.1478 9.67278,27.2074 9.79065,27.2869C10.0065,27.4327 10.8863,27.8425 13.2685,27.2063C13.1954,26.6542 13.2231,25.9655 13.4627,25.1472C12.0707,26.1148 10.5007,26.9441 9.70154,27.1215" style="fill:rgb(255,136,0);"/>
        <path id="Fill-12" d="M11.3038,34.8879C10.1436,34.8879 9.28473,34.1526 9.06249,32.9689C8.91799,32.1982 9.19243,31.3473 9.83503,30.573C10.6697,29.5681 11.9872,28.8386 12.9678,28.8386C13.1886,28.8386 13.3917,28.8748 13.571,28.9465C14.2232,29.2073 14.711,29.8414 14.8757,30.6426C15.0969,31.7181 14.7202,32.8688 13.8678,33.7205C13.1258,34.4624 12.191,34.8879 11.3038,34.8879ZM12.9678,29.9031C12.3944,29.9031 11.3471,30.419 10.6548,31.2529C10.402,31.5577 9.99444,32.1602 10.1098,32.773C10.2728,33.641 10.849,33.8234 11.3038,33.8234C11.9017,33.8234 12.5787,33.5036 13.1148,32.9675C13.713,32.3696 13.9814,31.5808 13.8327,30.8565C13.7404,30.407 13.4947,30.0624 13.1755,29.935C13.1233,29.9141 13.0516,29.9031 12.9678,29.9031Z" style="fill:black;"/>
        <path id="Fill-14" d="M57.9994,17.6881C57.742,17.6235 57.1289,17.5838 54.8737,17.5838C54.0912,17.5838 53.2012,17.5881 52.2543,17.593C51.1811,17.5984 50.0354,17.604 48.8911,17.604C46.9307,17.604 44.1824,17.5888 42.3245,17.4656C39.5709,15.3945 36.3021,14.2334 32.6791,14.1238C24.954,13.8871 18.1654,17.1878 14.5001,22.9472C13.0903,24.3378 10.3807,25.8799 9.47077,26.0825C9.04935,26.1759 8.7316,26.4587 8.61941,26.8384C8.50651,27.2226 8.62793,27.6431 8.94355,27.9628C9.2329,28.2545 9.83503,28.6193 11.0396,28.6193C11.6876,28.6193 12.5127,28.5114 13.5543,28.2325C13.9456,29.1189 14.6198,29.6831 15.169,29.9272C16.4812,30.5095 20.7451,28.8201 22.4251,26.4881C23.7259,27.1783 25.0793,27.4416 26.449,27.4395C25.4993,27.872 24.633,28.4043 23.9091,29.0412C22.1691,30.5716 22.1009,31.8238 22.3498,32.6052C22.7031,33.7144 23.9428,34.5369 25.5067,34.7016C26.525,34.8095 27.8336,34.5185 29.3489,34.1821C31.3484,33.7389 33.6149,33.2365 35.514,33.6289C38.3386,34.213 40.303,35.7821 43.1524,38.3351C43.7698,40.1909 44.083,42.1326 44.083,44.1073C44.083,45.7576 43.8607,47.3885 43.4279,48.9618C42.2009,48.5076 40.7123,48.3143 39.2205,48.4658C36.2744,48.7642 33.797,50.3106 32.2896,52.7494C31.1826,50.5866 29.0372,47.7423 26.6769,47.7423C26.1014,47.7423 25.554,47.9126 25.0505,48.2483C22.4237,49.9983 23.1692,53.1103 23.8264,55.8556C24.0028,56.5919 24.1693,57.2874 24.2691,57.9357C24.3902,58.7235 24.3582,59.6826 24.3277,60.6098C24.2666,62.4464 24.2034,64.3452 25.2866,65.4647C25.8511,66.048 26.6606,66.344 27.6927,66.344C29.8271,66.344 31.2071,65.2326 32.0343,63.9903C32.2228,63.9974 32.4224,64.0024 32.6404,64.0024C34.014,64.0024 35.9503,63.8303 38.1792,63.1508C34.8486,68.3236 28.5834,72.1747 23.1117,72.2786C21.1495,72.3212 18.4899,71.844 17.0262,69.3839C15.2485,66.3958 12.4111,65.3224 10.5288,65.8082C9.04615,66.1896 8.16391,67.4138 8.10746,69.1653C8.06024,70.6244 9.15728,72.3794 11.1167,73.9801C13.6928,76.0846 17.755,77.8571 21.8968,77.8571C22.925,77.8571 23.9585,77.7478 24.9753,77.5072C34.0083,75.3686 42.077,68.0926 44.2491,60.1613C49.1343,56.6728 50.6893,49.7389 51.1296,44.5054C51.6905,37.8337 50.6542,31.211 49.3782,27.6076C48.9273,26.3341 48.3976,25.1475 47.8058,24.0387C48.9923,24.4365 49.9917,24.5656 50.7778,24.5656L50.7785,24.5656C51.4839,24.5656 52.1691,24.467 52.8163,24.2732C56.9709,23.0274 58.7091,19.9573 58.6793,18.6661C58.6676,18.1572 58.413,17.7914 57.9994,17.6881ZM13.2685,27.2063C10.8863,27.8425 10.0065,27.4327 9.79065,27.2869C9.67278,27.2074 9.64118,27.1478 9.63621,27.1495C9.63657,27.1495 9.65183,27.1325 9.70154,27.1215C10.5007,26.9441 12.0707,26.1148 13.4627,25.1472C13.2231,25.9655 13.1954,26.6542 13.2685,27.2063ZM31.631,61.2811C31.6214,61.3102 31.614,61.3422 31.6086,61.3727C31.5827,61.5175 30.9391,64.9246 27.6927,64.9246C27.0511,64.9246 26.5981,64.7784 26.3073,64.4779C25.6427,63.7913 25.6956,62.1977 25.7467,60.657C25.7798,59.6648 25.8142,58.6383 25.6725,57.7196C25.5639,57.0135 25.3828,56.257 25.2078,55.5256C24.4995,52.5688 24.1612,50.5469 25.838,49.4292C26.1082,49.2493 26.3826,49.1616 26.6769,49.1616C28.592,49.1616 31.0992,52.9357 31.6264,54.8334C32.4504,57.6572 32.264,59.2777 31.631,61.2811ZM24.7296,76.4711C19.9736,77.5973 14.8037,75.618 11.7909,73.1562C10.1151,71.7872 9.13598,70.3082 9.17183,69.1997C9.21266,67.9361 9.78888,67.098 10.7943,66.839C12.2947,66.4529 14.6009,67.39 16.1109,69.9282C17.4568,72.1903 19.9342,73.3953 23.132,73.3428C29.323,73.2254 36.4583,68.61 39.7431,62.6033C40.7439,62.2073 41.787,61.7013 42.8517,61.0654C40.336,68.1735 32.9514,74.5251 24.7296,76.4711ZM48.3742,27.9628C51.087,35.6238 51.8201,53.6649 43.4854,59.4005C39.0834,62.4297 34.9466,62.9443 32.6031,62.9375C32.7998,62.4769 32.9311,62.0348 32.9989,61.664C33.6888,59.4661 33.9046,57.5699 32.9922,54.4445C32.9521,54.3 32.897,54.1357 32.8307,53.9583C34.571,50.5025 37.642,49.6956 39.3273,49.525C41.6418,49.2918 43.9846,49.9852 44.9045,51.175C45.0838,51.4077 45.4193,51.4503 45.6515,51.2704C45.884,51.0912 45.927,50.7566 45.747,50.5242C45.4168,50.097 44.956,49.7244 44.4075,49.4143C44.8974,47.6965 45.148,45.9127 45.148,44.1073C45.148,42.6014 44.973,41.1135 44.6322,39.6644C44.7309,39.7463 44.8502,39.7903 44.9709,39.7903C45.1161,39.7903 45.2609,39.7314 45.366,39.6147C45.5631,39.3968 45.546,39.0601 45.328,38.8631L44.907,38.4827C41.4525,35.3605 39.1701,33.2978 35.7298,32.5864C33.6071,32.1471 31.222,32.6762 29.1185,33.1428C27.7534,33.4458 26.465,33.7307 25.6182,33.6427C24.4917,33.5246 23.5864,32.9774 23.3645,32.2819C23.1486,31.6053 23.5921,30.738 24.6128,29.8403C27.5893,27.2219 33.1186,26.4331 37.2014,28.0434C37.4748,28.152 37.7844,28.0175 37.8923,27.7439C38.0002,27.4703 37.866,27.1613 37.5927,27.0534C35.9333,26.3987 34.0502,26.1127 32.1735,26.162C32.2477,26.0357 32.2718,25.8806 32.2239,25.7302C32.1341,25.4502 31.8355,25.2962 31.5543,25.3853C28.7148,26.2933 25.4407,27.1123 22.528,25.3211C22.4041,25.2448 22.2547,25.2228 22.113,25.2597C21.9721,25.2966 21.8528,25.3903 21.7821,25.5176C20.5417,27.7719 16.2724,29.253 15.6014,28.9543C15.2052,28.7783 14.6578,28.2943 14.4192,27.5094C14.0915,26.4317 14.4178,25.0713 15.3618,23.5742C18.8151,18.1001 25.2756,14.9651 32.6471,15.1883C35.6134,15.2777 38.329,16.1247 40.6946,17.6388C40.5398,17.741 40.4276,17.8776 40.3644,18.0525C40.2856,18.2708 40.0449,18.9347 41.7898,20.3874L41.9173,20.496C43.4954,21.8405 44.9272,22.7552 46.2004,23.3751C47.0475,24.7508 47.7788,26.2813 48.3742,27.9628ZM57.333,19.6177C56.706,20.8643 55.1095,22.4742 52.5103,23.2534C51.9625,23.4177 51.3802,23.5011 50.7785,23.5011L50.7778,23.5011C49.0931,23.5007 46.3083,22.8386 42.6085,19.6859L42.4715,19.5698C41.9276,19.1167 41.5871,18.7196 41.4483,18.4929C41.542,18.4851 41.6869,18.4851 41.8509,18.4982C43.7343,18.6508 46.7709,18.6685 48.8911,18.6685C50.0368,18.6685 51.185,18.6629 52.2596,18.6575C53.2044,18.6526 54.0927,18.6483 54.8737,18.6483C56.3414,18.6483 57.2609,18.6664 57.6146,18.7023C57.6146,18.846 57.567,19.1518 57.333,19.6177Z" style="fill:black;"/>
        <path id="Fill-16" d="M18.8169,23.1722C18.8169,23.7601 18.3401,24.2367 17.7518,24.2367C17.1639,24.2367 16.6867,23.7601 16.6867,23.1722C16.6867,22.5842 17.1639,22.1076 17.7518,22.1076C18.3401,22.1076 18.8169,22.5842 18.8169,23.1722" style="fill:black;"/>
        <path id="Fill-17" d="M31.1247,20.2153C31.1247,20.8033 30.6479,21.2798 30.0596,21.2798C29.4714,21.2798 28.9946,20.8033 28.9946,20.2153C28.9946,19.6273 29.4714,19.1508 30.0596,19.1508C30.6479,19.1508 31.1247,19.6273 31.1247,20.2153" style="fill:black;"/>
        <!--<g id="Calque28">
            <g id="Calque30">
                <path d="M32.9494,17.3641L24.4899,19.5032L26.2435,23.2176L34.2927,21.5289L32.9494,17.3641Z" style="fill:rgb(145,209,230);fill-opacity:0.352941;"/>
                <path d="M19.4687,20.4978L12.7143,21.9268L13.6396,26.6194L20.1303,24.9712L19.4687,20.4978Z" style="fill:rgb(145,209,230);fill-opacity:0.352941;"/>
            </g>
            <path d="M41.7981,16.5066C39.0397,16.3955 36.1837,16.4586 33.27,16.6244L24.1542,18.7692L23.9821,19.9154L20.4539,20.7397L19.9349,19.762L11.8779,21.6577L12.9335,26.9389C15.1702,27.0136 17.6795,26.2881 20.7919,25.3801C20.4669,23.4766 20.6982,21.7594 20.6982,21.7594L24.2904,21.0507C24.1499,21.0899 25.2765,23.1554 25.939,23.8052C29.5081,23.3184 31.8338,23.011 34.3861,21.6577C35.0204,20.9274 34.8743,18.4627 34.8743,18.4627C34.8743,18.4627 39.996,17.7175 42.2081,17.4443L41.7981,16.5066ZM13.184,22.4134L19.2367,20.9968C19.6737,22.3471 19.7484,23.6543 19.6583,24.942C16.9998,25.7096 15.1811,26.0271 13.858,26.0789L13.184,22.4134ZM32.6843,18.0293L25.39,19.6816C25.2006,20.6916 25.6121,21.6668 26.3278,22.6246C28.8948,22.445 31.3236,21.9267 33.614,21.0697C33.4885,19.8722 33.2239,18.8135 32.6843,18.0293Z" style="fill:black;"/>
        </g>-->
        <g id="Clef">
            <g id="objet">
                <g id="objet1">
                    <path d="M20.353,44.7114L24.7575,34.1075L25.2014,34.2919L20.7969,44.8958L20.8332,45.2276L20.2388,46.2592L19.7809,46.069L20.0923,44.9198L20.353,44.7114Z" style="fill:rgb(220,220,220);stroke-width:1.5px;stroke:black;"/>
                    <g id="Calque33">
                        <path d="M27.5442,24.0599L23.5666,33.7007L26.4986,34.9267L30.4762,25.2859L29.63,24.489L28.6039,24.0599L27.5442,24.0599Z" style="fill:rgb(195,117,49);stroke-width:1.5px;stroke:black;"/>
                    </g>
                    <path d="M24.4703,34.0786L25.4965,34.5077L29.4741,24.8669L28.4479,24.4378L24.4703,34.0786Z" style="fill:rgb(255,122,103);"/>
                </g>
                <path d="M20.353,44.7114L24.7575,34.1075L25.2014,34.2919L20.7969,44.8958L20.8332,45.2276L20.2388,46.2592L19.7809,46.069L20.0923,44.9198L20.353,44.7114Z" style="fill:rgb(220,220,220);"/>
                <g id="Calque331">
                    <path d="M27.5442,24.0599L23.5666,33.7007L26.4986,34.9267L30.4762,25.2859L29.63,24.489L28.6039,24.0599L27.5442,24.0599Z" style="fill:rgb(195,117,49);"/>
                </g>
                <path d="M24.4703,34.0786L25.4965,34.5077L29.63,24.489L28.6039,24.0599L24.4703,34.0786Z" style="fill:rgb(170,87,0);"/>
            </g>
            <path id="Fill-132" d="M37.2014,28.0434C33.1186,26.4331 27.5893,27.2219 24.6128,29.8403C23.5921,30.738 23.1486,31.6053 23.3645,32.2819C23.5864,32.9774 24.4917,33.5246 25.6182,33.6427C26.465,33.7307 27.7534,33.4458 29.1185,33.1428C31.222,32.6762 33.6071,32.1471 35.7298,32.5864" style="fill:rgb(255,210,0);"/>
            <clipPath id="tag11">
                <path d="M37.2014,28.0434C33.1186,26.4331 27.5893,27.2219 24.6128,29.8403C23.5921,30.738 23.1486,31.6053 23.3645,32.2819C23.5864,32.9774 24.4917,33.5246 25.6182,33.6427C26.465,33.7307 27.7534,33.4458 29.1185,33.1428C31.222,32.6762 33.6071,32.1471 35.7298,32.5864"/>
            </clipPath>
            <g clip-path="url(#tag11)">
                <path id="Suie-main2" d="M30.4911,26.9012C26.4291,27.8746 23.2264,29.6925 23.1074,32.0957C23.2784,34.7636 27.5061,34.3438 33.093,32.8894C33.093,32.8894 35.3793,30.5452 35.2438,29.8779C35.1083,29.2106 32.6855,29.2613 32.2801,28.8858C31.9454,28.5758 33.1094,27.9552 32.8112,27.6245C32.5131,27.2937 31.2789,26.7125 30.4911,26.9012Z" style="fill:rgb(53,53,53);fill-opacity:0.443137;"/>
            </g>
            <path d="M22.7782,32.0883C22.8955,33.9524 26.4268,34.2264 27.2904,33.9862" style="fill:none;stroke-width:0.95px;stroke:black;"/>
            <path d="M25.0732,28.8306C26.4184,28.0617 28.4028,27.2266 30.2338,26.8334" style="fill:none;stroke-width:1px;stroke:black;"/>
        </g>
        <g id="Tournevis">
            <path d="M7.83283,23.7533L13.4028,38.9827C14.0524,40.4776 16.3878,39.3477 15.889,38.232L9.10425,23.4934C9.62877,23.2981 10.1072,22.9593 10.4758,22.4849C11.3587,21.3485 11.3321,19.7938 10.5058,18.697L9.57738,21.4539L6.26565,21.2505L5.89594,18.2831C5.7731,18.3971 5.65785,18.5224 5.55171,18.659C4.49522,20.0188 4.78236,21.9264 6.1008,23.034C6.50445,23.3731 7.31947,23.7622 7.83283,23.7533Z" style="fill:rgb(218,218,218);stroke-width:1.75px;stroke:black;"/>
            <path d="M7.83283,23.7533L13.4028,38.9827C14.0524,40.4776 16.3878,39.3477 15.889,38.232L9.10425,23.4934C9.62877,23.2981 10.1072,22.9593 10.4758,22.4849C11.3587,21.3485 11.3321,19.7938 10.5058,18.697L9.57738,21.4539L6.26565,21.2505L5.89594,18.2831C5.7731,18.3971 5.65785,18.5224 5.55171,18.659C4.49522,20.0188 4.78236,21.9264 6.1008,23.034C6.50445,23.3731 7.31947,23.7622 7.83283,23.7533Z" style="fill:rgb(218,218,218);"/>
            <circle cx="14.4603" cy="38.1069" r="0.705306" style="fill:rgb(3,0,0);"/>
            <path id="Fill-91" d="M10.1098,32.773C10.2728,33.641 10.849,33.8234 11.3038,33.8234C11.9017,33.8234 12.5787,33.5036 13.1148,32.9675C13.713,32.3696 13.9814,31.5808 13.8327,30.8565C13.7404,30.407 13.4947,30.0624 13.1755,29.935C13.1233,29.9141 13.0516,29.9031 12.9678,29.9031C12.3944,29.9031 11.3471,30.419 10.6548,31.2529C10.402,31.5577 9.99444,32.1602 10.1098,32.773" style="fill:rgb(255,210,0);"/>
            <clipPath id="tag10">
                <path d="M10.1098,32.773C10.2728,33.641 10.849,33.8234 11.3038,33.8234C11.9017,33.8234 12.5787,33.5036 13.1148,32.9675C13.713,32.3696 13.9814,31.5808 13.8327,30.8565C13.7404,30.407 13.4947,30.0624 13.1755,29.935C13.1233,29.9141 13.0516,29.9031 12.9678,29.9031C12.3944,29.9031 11.3471,30.419 10.6548,31.2529C10.402,31.5577 9.99444,32.1602 10.1098,32.773"/>
            </clipPath>
            <g clip-path="url(#tag10)">
                <path id="Suie-main" d="M10.2475,33.7474C11.2065,34.6107 12.3527,34.3707 13.6861,33.0276C14.5616,31.8892 14.5059,30.8058 13.8131,29.7602C13.8131,29.7602 11.8968,30.9047 11.6994,31.2668C11.3757,31.8607 12.571,31.4318 12.4297,31.902C12.244,32.5203 10.2475,33.7474 10.2475,33.7474Z" style="fill:rgb(55,55,55);fill-opacity:0.529412;"/>
            </g>
            <path id="Fill-121" d="M11.3038,34.8879C10.1436,34.8879 9.28473,34.1526 9.06249,32.9689C8.91799,32.1982 9.19243,31.3473 9.83503,30.573C10.6697,29.5681 11.9872,28.8386 12.9678,28.8386C13.1886,28.8386 13.3917,28.8748 13.571,28.9465C14.2232,29.2073 14.711,29.8414 14.8757,30.6426C15.0969,31.7181 14.7202,32.8688 13.8678,33.7205C13.1258,34.4624 12.191,34.8879 11.3038,34.8879ZM12.9678,29.9031C12.3944,29.9031 11.3471,30.419 10.6548,31.2529C10.402,31.5577 9.99444,32.1602 10.1098,32.773C10.2728,33.641 10.849,33.8234 11.3038,33.8234C11.9017,33.8234 12.5787,33.5036 13.1148,32.9675C13.713,32.3696 13.9814,31.5808 13.8327,30.8565C13.7404,30.407 13.4947,30.0624 13.1755,29.935C13.1233,29.9141 13.0516,29.9031 12.9678,29.9031Z" style="fill:black;"/>
        </g>
        <path id="Fill-7" d="M48.8911,18.6685C46.7709,18.6685 43.7343,18.6508 41.8509,18.4982C41.6869,18.4851 41.542,18.4851 41.4483,18.4929C41.5871,18.7196 41.9276,19.1167 42.4715,19.5698L42.6085,19.6859C46.3083,22.8386 49.0931,23.5007 50.7778,23.5011L50.7785,23.5011C51.3802,23.5011 51.9625,23.4177 52.5103,23.2534C55.1095,22.4742 56.706,20.8643 57.333,19.6177C57.567,19.1518 57.6146,18.846 57.6146,18.7023C57.2609,18.6664 56.3414,18.6483 54.8737,18.6483C54.0927,18.6483 53.2044,18.6526 52.2596,18.6575C51.185,18.6629 50.0368,18.6685 48.8911,18.6685" style="fill:rgb(255,136,0);"/>
        <path id="Fill-15" d="M21.3021,22.6988C20.4554,23.3336 20.7107,24.1185 21.6572,24.2367C22.604,24.3548 22.6779,24.4176 23.5509,23.7633C24.4974,23.0536 24.616,21.8706 23.5509,21.9891C22.4858,22.1076 21.7757,22.344 21.3021,22.6988" style="fill:black;"/>
        <path id="Fill-18" d="M11.307,62.0103C11.0336,62.0103 10.7315,61.9713 10.4088,61.8939C6.80698,61.0295 1.8774,55.6243 1.25396,52.6131C0.975266,51.2665 1.23124,50.0217 1.97467,49.1091C2.63183,48.3029 3.62521,47.8405 4.70024,47.8405C5.66805,47.8405 6.65148,48.2035 7.54438,48.8902C9.29787,50.2382 12.2723,56.148 12.9142,57.6142C13.1812,58.2242 13.7112,60.0552 12.9685,61.1906C12.7239,61.5646 12.2368,62.0103 11.307,62.0103ZM4.70024,48.9051C3.93586,48.9051 3.26095,49.2163 2.80118,49.7808C2.26331,50.4412 2.08438,51.3701 2.29704,52.3974C2.83953,55.0182 7.50036,60.1013 10.6573,60.8585C10.8983,60.9164 11.117,60.9458 11.307,60.9458C11.7991,60.9458 11.9822,60.7531 12.0774,60.608C12.4622,60.0193 12.2439,58.7391 11.9386,58.0415C11.0645,56.0448 8.29456,50.8102 6.89467,49.7336C6.18994,49.1914 5.43124,48.9051 4.70024,48.9051Z" style="fill:black;"/>
    </g>
    <g id="Casque">
        <g id="Casque1">
            <path id="Coque" d="M43.7096,15.7269C44.6709,15.0771 44.3805,2.19285 29.9529,3.06271C17.9695,3.78521 17.1074,11.2058 17.0497,16.6805C27.6074,14.9316 37.5028,14.7458 43.7096,15.7269Z" style="fill:white;stroke-width:2px;stroke:black;"/>
            <path id="Visiere" d="M14.7541,18.2554C15.9148,19.6005 18.8292,17.6293 23.5631,16.2853C29.7965,14.5157 35.6589,14.749 40.103,15.9516C33.7632,12.7737 17.9731,15.2353 17.809,15.7162C18.1257,15.704 13.8379,17.1937 14.7541,18.2554Z" style="fill:rgb(243,243,243);stroke-width:2px;stroke:black;"/>
            <path id="Coque1" d="M43.7096,15.7269C45.1549,15.5478 44.3442,2.46571 30.0817,2.37876C20.2236,2.31867 17.4669,9.37277 17.1211,14.6344C17.0746,15.3428 14.5708,16.7308 14.8956,18.2631C15.0628,19.0517 19.2691,17.046 21.5932,16.4578C27.7993,14.8872 34.8289,13.8633 43.7096,15.7269Z" style="fill:rgb(238,238,238);"/>
            <clipPath id="tag12">
                <path id="Coque2" d="M43.7096,15.7269C45.1549,15.5478 44.3442,2.46571 30.0817,2.37876C20.2236,2.31867 17.4669,9.37277 17.1211,14.6344C17.0746,15.3428 14.5708,16.7308 14.8956,18.2631C15.0628,19.0517 19.2691,17.046 21.5932,16.4578C27.7993,14.8872 34.8289,13.8633 43.7096,15.7269Z"/>
            </clipPath>
            <g clip-path="url(#tag12)">
                <g id="Calque31">
                    <path d="M25.4073,13.861C26.6103,13.5819 27.7803,12.2891 27.9082,11.2945C28.2541,8.60469 30.0885,4.32001 36.3738,5.1696C44.4202,6.82964 43.4826,16.411 42.7309,15.9584L25.4073,13.861Z" style="fill:white;"/>
                </g>
                <g id="Calque32">
                    <path d="M19.9027,10.34C20.9895,5.12952 25.6441,0.105325 33.5469,2.46419" style="fill:none;stroke-width:0.85px;stroke:rgb(207,207,207);"/>
                    <path d="M22.5038,9.84018C23.7004,4.03843 29.2039,0.919349 36.1701,2.88701" style="fill:none;stroke-width:0.85px;stroke:rgb(207,207,207);"/>
                    <path d="M25.2455,9.42029C26.5566,4.45579 30.7314,1.58195 37.4064,3.78861" style="fill:none;stroke-width:0.85px;stroke:rgb(207,207,207);"/>
                </g>
                <g id="Calque34">
                    <path d="M15.0653,16.9142C16.2664,15.1575 21.3329,13.5101 25.9277,13.6752C30.8369,13.8516 36.7599,13.9265 44.1974,15.9615C33.8845,15.0625 23.7179,15.9621 13.7389,19.1719L15.0653,16.9142Z" style="fill:rgb(210,207,207);"/>
                </g>
            </g>
        </g>
    </g>
</svg>
