<svg xmlns="http://www.w3.org/2000/svg" viewBox="0 0 505.4 499.78"><defs><style>.cls-1,.cls-12,.cls-13{fill:none;}.cls-1,.cls-12,.cls-13,.cls-5,.cls-8,.cls-9{stroke:#000;}.cls-1,.cls-13,.cls-5,.cls-8,.cls-9{stroke-linecap:round;stroke-linejoin:round;}.cls-1{stroke-width:19px;}.cls-2{fill:#631a0b;}.cls-3{fill:#b18b6c;}.cls-4{fill:#82250b;}.cls-5{fill:#f5f4f4;}.cls-12,.cls-13,.cls-5,.cls-8,.cls-9{stroke-width:6px;}.cls-6{fill:#fff;}.cls-7{fill:#16386c;}.cls-8{fill:#aa927d;}.cls-9{fill:#ccc;}.cls-10{fill:#010103;}.cls-11{fill:#838488;}.cls-12{stroke-miterlimit:10;}</style></defs><title>wapuu_07-26</title><g id="Calque_2" data-name="Calque 2"><path class="cls-1" d="M446.57,326.07c.15-8-.06-24.61-.46-32.66-.91-29.74-5.11-57.76-11.06-79.4l0-.12c-.28-1-.56-2-.85-3-.05-.18-.11-.37-.16-.56-.25-.84-.5-1.66-.75-2.48l-.24-.77c-.24-.77-.48-1.52-.73-2.27-.08-.25-.16-.52-.25-.77-.32-1-.65-1.94-1-2.87-4.91-13.86-10.72-26.6-17.92-37.81-.06-.1-.13-.2-.19-.31,9.28,4.38,19,7.41,27.62,7.41a55.4,55.4,0,0,0,15.28-2.34c21.41-7.36,34.57-22.57,39.74-34.35,1.92-4.4,2.32-7.29,2.32-8.65-2.92-.34-10.5-.51-22.59-.51-6.44,0-13.76,0-21.54.09-8.86,0-18.32.1-27.76.1-13.75,0-32.17-.11-47-.86-3.37-2.55-7.1-5.16-11.27-7.84-13.15-8.45-39.06-18.39-62.57-20,5.45-29.19,22.63-50.12,51.95-62,5.35-2.17,4.73-4.62-2.16-3.77-38.65,4.75-68.93,29.58-79.35,66.49-26.49,2.73-50.9,10.92-71.62,23.81-5.58-15.71-3.46-32.66,6.72-50.71,2.21-3.92.72-4.88-3-.86-17.59,19-25.16,42.33-20.82,64A138.55,138.55,0,0,0,159.8,163.8c-13.29,9.29-41.52,26.16-47.61,27.51a1.83,1.83,0,0,0,.92,1.29c1.73,1.17,18.11,2.36,37.13-2.45a24.41,24.41,0,0,0,1,7.19A166.61,166.61,0,0,0,134,212.43c-.94.95-1.87,1.91-2.78,2.88a8.9,8.9,0,0,0-4.66-5.11,4.66,4.66,0,0,0-1.72-.27c-4.72,0-13.35,4.25-19.06,11.13-2.08,2.51-5.44,7.47-4.49,12.52,1.28,6.79,5.62,8.49,9.26,8.64A164.78,164.78,0,0,0,87.36,307.4l-.06.39c-.15,1.15-.28,2.31-.4,3.47l-.09.75c-.11,1.07-.2,2.15-.29,3.23l-.09,1c-.08,1-.14,2.07-.2,3.11,0,.38,0,.75-.07,1.13-.06,1.11-.1,2.22-.13,3.33,0,.31,0,.62,0,.93,0,1.43,0,2.85,0,4.29s0,2.86,0,4.29c0,.31,0,.61,0,.92,0,1.12.07,2.23.13,3.34,0,.37,0,.75.07,1.13.06,1,.12,2.08.2,3.11l.09,1c.09,1.08.18,2.15.29,3.22l.09.76c.12,1.16.25,2.31.4,3.46l.06.4a163.73,163.73,0,0,0,10.12,39.07c-3.06-4.13-5.89-7.38-8.24-9.18-5.8-4.47-12-6.83-18.08-6.83A19.75,19.75,0,0,0,55.51,381c-4.43,5.45-5.9,13.1-4.15,21.57,4.47,21.59,42.88,63.48,68.89,69.72a23.75,23.75,0,0,0,5.35.72c4.06,0,5.57-1.59,6.35-2.79,3.17-4.85,1.37-15.4-1.14-21.15-1.66-3.77-4.14-9-7.11-14.81q4.9,6,10.33,11.43a163.15,163.15,0,0,0,108.81,48.42c1.1,5.42,2.91,10,5.71,12.79,11.78,9.32,29.12-.09,30.21-.74.1-.07,7.82-6.62,8.46-7.38.07-.09,1.58-2,2.18-2.91.15-.21.27-.42.4-.62.43-.66.84-1.32,1.22-2l.52-.93c.22-.41.43-.81.63-1.21,10.12-.1,26.25-1.76,44.36-6.59l0,0a88.18,88.18,0,0,0,11-3.29,183.43,183.43,0,0,0,21.28-8.46l.79-.36c8.38-4,14-6.74,19.2-10.3,24.21.61,47.21-3.33,68.51-15.19-.5-1.81-1.66-1.82-2.45-2.32-5.1-3.25-5.14-7.69.38-10.11,12.86-5.65,18.6-16.46,21.91-29.12a34.67,34.67,0,0,0,.69-16.83l-2,3.89c-10.23,19.77-31.53,30.23-50.54,26.17a174.65,174.65,0,0,0,8.95-24.22q2-6.5,3.7-13.27c0-.17.09-.34.14-.51.11-.44,3.65-15.91,3.77-16.34" transform="translate(-41.14 -20.67)"/></g><g id="Calque_1" data-name="Calque 1"><path class="cls-2" d="M409.71,264.63c-15-21-33.88-42.53-43.47-52.2a163,163,0,0,0-232.21,0A165.35,165.35,0,0,0,85.94,329H402.59c0-22.47,3.47-43.44,9.46-61.22C411.29,266.8,410.51,265.75,409.71,264.63Z" transform="translate(-41.14 -20.67)"/><path class="cls-2" d="M409.71,393.45c-15,21.05-33.88,42.52-43.47,52.19a163,163,0,0,1-232.21,0A165.3,165.3,0,0,1,85.94,329H402.59c0,22.47,3.47,43.44,9.46,61.22C411.29,391.27,410.51,392.32,409.71,393.45Z" transform="translate(-41.14 -20.67)"/><path class="cls-3" d="M135.69,211.32a164.15,164.15,0,0,0,0,235.44c17.5-29.83,28.38-71.55,28.38-117.72S153.19,241.15,135.69,211.32Z" transform="translate(-41.14 -20.67)"/><path class="cls-4" d="M339.59,238.39a128.21,128.21,0,0,0-172.39-8.12c11.32,29.34,17.25,63.17,17.25,98.77l179,11.48c0-21.68,21.88-26.34,16.51-47.07C373.71,273.27,354.9,253.69,339.59,238.39Z" transform="translate(-41.14 -20.67)"/><path class="cls-5" d="M210.74,69.93c-13.77,24.4-12.8,46.8,2,66.84,1.61,2.19,1.45,3.65-.46,5.77a48.4,48.4,0,0,1-10.17,8.79c-4.28,2.69-7.44,1.93-9.5-2.05-13.28-25.63-7-56.37,15.12-80.21C211.46,65.05,213,66,210.74,69.93Z" transform="translate(-41.14 -20.67)"/><path class="cls-6" d="M278.7,311.61c-2.29-57.26-49.73-93.52-92.6-91.46-77.12,6.36-127.2,122.52-59,183.3C196.24,465.06,281.65,385.46,278.7,311.61ZM108,287.81c.66,42.64,12.61,75.89,44.08,122.68C100.05,386.87,90.51,330.9,108,287.81ZM182.52,415.5a65.56,65.56,0,0,1-18.66-1.32c-2-19.85-3.27-44.64,6.73-87.85a628.21,628.21,0,0,0,38.33,81.72C205.51,409.67,195.16,414.61,182.52,415.5Zm.26-145.31c8.5-1.25,18.12-2.66,13.17-8.12-.62-.69-45.36,3.74-45.78,3.82-3.44.58-4,4.62-4,4.66-.35,3.19.23,3.16,9.92,2.57,2.55,13.76,3.72,20.05,10,40.13-4.57,19-9.29,38.56-9.93,68.91C135.76,341.61,127.6,313.45,126,278.24c2.9-1.76,6.76-1.07,9.32-3.69,1.74-1.79,2.59-5.81.42-6.28-7.71-1.66-13.59,3.8-20.51,5.24,23.47-36.1,68.35-65.46,117.61-29.41-.33,0-31.58,1.42-8.87,35,12.28,18.15,13.06,32.71,3.35,62.31-3.51,14.6-4.57,19-7.7,34C204.67,339.64,192.44,309.16,182.78,270.19ZM222.42,400c8.24-35.52,22-69.48,30-105.06a71.3,71.3,0,0,0,.48-29.51C276.94,302.9,274.19,361.17,222.42,400Z" transform="translate(-41.14 -20.67)"/><path class="cls-5" d="M187.61,281.16c6.62-4.59,10.44-10.34,14.19-16.68-1.77.91-4.54,2.12-6.52,1.95A75.69,75.69,0,0,0,208,248.7c-15,6.7-24.77,21.6-38.5,26.42,2.67-4.21,6.17-7.95,6.84-11.5-4.87,2.18-16.25,6.82-21.19,5.85,5.65-3.34,16.41-10.08,18.49-15.2a20.18,20.18,0,0,1-11.76,2.57c5.33-3.45,16.67-8.88,23.13-17.48,5.19-6.9,7.52-13.6,5.63-21.05-6.07,3.18-7.35,11-12.64,13.57.89-7.87,5.52-25.15,12.87-32.49,6.25-6.25,18.66-15.34,23.27-21,5.44.7,52.88,3.61,62.39,4.82.14,0-20.52,40.75-29.75,56.41C235.81,258.2,206.09,278.9,187.61,281.16Z" transform="translate(-41.14 -20.67)"/><path class="cls-5" d="M457.32,446.92c-21.57,12-44.89,15.91-69.44,15.18,22.4-14.91,37.09-43.57,37.09-43.57,19.1,4.27,40.6-6.21,50.89-26.1l2-3.89a34.67,34.67,0,0,1-.69,16.83c-3.31,12.66-9.05,23.47-21.91,29.12-5.52,2.42-5.48,6.86-.38,10.11C455.66,445.1,456.82,445.11,457.32,446.92Z" transform="translate(-41.14 -20.67)"/><path id="Fill-2" class="cls-7" d="M117.26,422c-3.8-7-7.92-14.15-12-20.61a154.53,154.53,0,0,0,12,20.61" transform="translate(-41.14 -20.67)"/><path id="Fill-8" class="cls-8" d="M55.51,381c-4.43,5.45-5.9,13.1-4.15,21.57,4.47,21.59,42.88,63.48,68.89,69.72a23.75,23.75,0,0,0,5.35.72c4.06,0,5.57-1.59,6.35-2.79,3.17-4.85,1.37-15.4-1.14-21.15-7.21-16.45-30-59.58-41.57-68.45-5.8-4.47-12-6.83-18.08-6.83A19.75,19.75,0,0,0,55.51,381" transform="translate(-41.14 -20.67)"/><path id="Fill-11" class="cls-9" d="M112.19,191.31a1.83,1.83,0,0,0,.92,1.29c1.78,1.2,19,2.42,38.58-2.82,1.1-8.27,7.52-21.19,11.06-28.09C151.28,170.23,118.78,189.85,112.19,191.31Z" transform="translate(-41.14 -20.67)"/><path id="Fill-9" class="cls-8" d="M101.32,233.58c1.35,7.15,6.09,8.66,9.84,8.66,4.93,0,10.51-2.64,14.92-7.06,4.93-4.92,7.15-11.42,5.92-17.39-.76-3.7-2.78-6.54-5.41-7.59a4.63,4.63,0,0,0-1.72-.27c-4.72,0-13.35,4.25-19.06,11.13-2.08,2.51-5.44,7.47-4.49,12.52" transform="translate(-41.14 -20.67)"/><path id="Fill-13" class="cls-9" d="M431.05,201.17c-4.91-13.86-10.72-26.6-17.92-37.81-7.54-11.74-15.06-27.8-45.36-47.26-13.85-8.9-41.88-19.46-66.32-20.2-60.74-1.84-114,24-142.43,69.1-7.78,12.34-10.47,23.55-7.77,32.43,2,6.47,6.27,11.08,9.74,11.91,8.37,2,40.71-9.75,50.93-28.32a4.39,4.39,0,0,1,6.15-1.62c24,14.76,51.07,13.2,74.38,5.43,8.36-2.79,8.83,7.67,4.18,7.67-1.3,0-36.86,2.56-61.38,24.14-8.41,7.4-12.07,14.54-10.29,20.12,1.83,5.73,9.29,10.24,18.57,11.21,7,.73,17.6-1.62,28.84-4.12,17.34-3.84,37-8.2,54.48-4.58,28.35,5.86,40.06,16.82,68.52,42.54L400,298c2.11,7.28,4.42,23.8,4.42,36.21,0,14.88-4.09,38.27-8.43,51.19-10.92-4-20.46-8.46-39.53-6.54-20.59,2.08-40.77,12-58.69,43.86-11.07,19.68-20.05,33.77-21.1,51-.31,5.12,2.07,17.41,14.28,17.43,19.31.05,63.5-5.9,99.77-30.87C459.44,413,453.4,264.3,431.05,201.17" transform="translate(-41.14 -20.67)"/><path id="Fill-13-2" data-name="Fill-13" class="cls-8" d="M251.6,205.8a75.22,75.22,0,0,0-16.33,10.84C226.86,224,223.2,231.18,225,236.76c1.83,5.73,9.29,10.24,18.57,11.21,4.93.51,11.66-.51,19.15-2a71.39,71.39,0,0,0-1.95-23.35A42.4,42.4,0,0,0,251.6,205.8Z" transform="translate(-41.14 -20.67)"/><path id="Fill-15" class="cls-10" d="M208,157.79c-7,5.23-4.88,11.7,2.92,12.67s8.41,1.49,15.61-3.9c7.8-5.85,8.77-15.59,0-14.62s-14.63,2.93-18.53,5.85" transform="translate(-41.14 -20.67)"/><path id="Fill-16" class="cls-10" d="M187.49,161.69a8.78,8.78,0,1,1-8.78-8.77,8.77,8.77,0,0,1,8.78,8.77" transform="translate(-41.14 -20.67)"/><path id="Fill-17" class="cls-10" d="M288.91,137.33a8.78,8.78,0,1,1-8.78-8.78,8.78,8.78,0,0,1,8.78,8.78" transform="translate(-41.14 -20.67)"/><path class="cls-11" d="M336.5,484.52C353,475,360.76,468.4,366,463.79c13.8-12.18,19.42-22.18,28.54-35.41,10.65-15.44,18.7-32.17,25.63-49.41,4.41-11,6-22.6,8.79-34a185.06,185.06,0,0,0,5.09-43.55c.08-16,0-32.27-3.15-48.25-1.95-10-3.51-20.05-6.26-29.87-5.53-19.71-11.78-37.57-21.7-55.69-.82-1.51-4.81-9.28-7.36-14.49,7.52,4.77,12.58,7.64,17.55,10.19,21.72,37,26.58,67.32,30.14,97.16,4.84,40.49,5.31,80.33-5.16,120.08-5.92,22.44-12.7,45-29,62.66-16.1,17.49-21.31,20.56-39.51,29.15C363,475.52,343.89,483.13,336.5,484.52Z" transform="translate(-41.14 -20.67)"/><g id="Fill-13-3" data-name="Fill-13"><path class="cls-12" d="M446.13,317.16c1.35-44.71-5.3-88.37-15.08-116-4.91-13.86-10.72-26.6-17.92-37.81-7.54-11.74-15.06-27.8-45.36-47.26-13.85-8.9-41.88-19.46-66.32-20.2-60.74-1.84-114,24-142.43,69.1-7.78,12.34-10.47,23.55-7.77,32.43,2,6.47,6.27,11.08,9.74,11.91,8.37,2,40.71-9.75,50.93-28.32a4.39,4.39,0,0,1,6.15-1.62c24,14.76,51.07,13.2,74.38,5.43,8.36-2.79,8.83,7.67,4.18,7.67-1.3,0-36.86,2.56-61.38,24.14-8.41,7.4-12.07,14.54-10.29,20.12,1.83,5.73,9.29,10.24,18.57,11.21,7,.73,17.6-1.62,28.84-4.12,17.34-3.84,37-8.2,54.48-4.58,28.35,5.86,40.06,16.82,68.52,42.54" transform="translate(-41.14 -20.67)"/></g><path id="Fill-7" class="cls-9" d="M426,124.8c-17.47,0-42.49-.17-58-1.61a20,20,0,0,0-3.32,0c1.15,6.54,8,12.42,20.13,22.19,13.88,11.17,37.19,25.13,55.75,25.13a55.4,55.4,0,0,0,15.28-2.34c21.41-7.36,34.57-22.57,39.74-34.35,1.92-4.4,2.32-7.29,2.32-8.65-2.92-.34-10.5-.51-22.59-.51-6.44,0-13.76,0-21.54.09-8.86,0-18.32.1-27.76.1" transform="translate(-41.14 -20.67)"/><path class="cls-5" d="M357.15,34.11c-33.36,13.5-51,38.74-53.53,74.5-.28,3.9-1.64,5.34-5.22,5.83a54,54,0,0,1-17-.06c-6.32-1.12-8.7-4.94-7.36-11.21,8.6-40.4,40.11-67.81,80.93-72.83C361.88,29.49,362.5,31.94,357.15,34.11Z" transform="translate(-41.14 -20.67)"/><path class="cls-2" d="M395.37,281.81c-18.95-18.94-33.06-29.16-43.76-34.26,36.27,29.23,43.57,53.33,37.12,103.83L430,349.15c0-17.47,2.53-24.15,7.19-38-5.41-3.17-8.32-15.89-15.23-22.09C413.67,281.66,401.38,281,395.37,281.81Z" transform="translate(-41.14 -20.67)"/><path class="cls-2" d="M392.12,396.63c-5.88-5.89-6.58-16-18.13-17.68,5.72-10,11.1-22.73,11.1-29.8H430c0,17.47.33,13.57,5,27.39-2.66,3.49-7.87,21.33-15.92,25.84C408.82,408.1,395.41,399.91,392.12,396.63Z" transform="translate(-41.14 -20.67)"/><path class="cls-13" d="M422,289.09c-11.88-7.68-15.54-8.81-26.58-7.28-18.95-18.94-33.06-29.16-43.76-34.26" transform="translate(-41.14 -20.67)"/><path class="cls-13" d="M421.91,400c-6,7.92-23.91,2.55-29.79-3.33S385.5,380.88,374,379" transform="translate(-41.14 -20.67)"/><path id="Fill-13-4" data-name="Fill-13" class="cls-13" d="M291,491.09c19.31.05,63.5-5.9,99.77-30.87C459.44,413,453.4,264.3,431.05,201.17" transform="translate(-41.14 -20.67)"/><path class="cls-3" d="M469.56,344.59" transform="translate(-41.14 -20.67)"/><path class="cls-3" d="M469.56,344.59" transform="translate(-41.14 -20.67)"/><path id="Fill-6" class="cls-8" d="M297.81,422.71c-4.74-16.61-28.7-49.93-45.94-49.93a13.52,13.52,0,0,0-7.54,2.35c-15.09,9.78-14.05,27.48-7.68,53.36,1.57,6.4,3.2,13,4.18,19.2,1.28,8,1,17,.67,25.71-.46,13.49,1.07,27.44,7.05,33.45,11.78,9.32,29.12-.09,30.21-.74.1-.07,7.82-6.62,8.46-7.38.07-.09,1.58-2,2.18-2.91.15-.21.27-.42.4-.62.43-.66.84-1.32,1.22-2l.52-.93c.3-.54.57-1.08.84-1.61.16-.33.33-.67.48-1s.41-.9.6-1.35c.4-.94.77-1.84,1.07-2.67,0-.05,0-.1.05-.14.21-.6.4-1.16.57-1.69a40.4,40.4,0,0,0,1.1-4.17,6.68,6.68,0,0,1,.2-.8c4.79-14.74,3.07-48.66,2.64-50.37Z" transform="translate(-41.14 -20.67)"/><path class="cls-13" d="M189.73,242.24" transform="translate(-41.14 -20.67)"/><path class="cls-3" d="M540.27,339.48c-12.31-5.88-30.9-6.47-49-5.51a94.74,94.74,0,0,0,9.71-6.29c10.39-7.71,16.23-16,17.38-24.63A5.74,5.74,0,0,0,507,301.54c-1.1,8.29-11.13,17.65-27.52,25.69a125.55,125.55,0,0,1-14.84,6.11c-2.49-1.54-11.87-1.67-23.43-16.18-9.87-12.4-20.08,10.73-20.08,27.43,0,37.78,12.13,34.73,17.7,29.16,8.47-8.47,24.25-16.79,27-18.7,13.69,6.18,31.32,18.24,42,35.42a5.74,5.74,0,0,0,9.76-6.05c-9.63-15.54-25.68-29.29-40.86-37.88,20.35-1.79,45.41-3,58.65,3.3a5.74,5.74,0,0,0,4.95-10.36Z" transform="translate(-41.14 -20.67)"/><path class="cls-13" d="M465.88,355.08c13.67,6.19,31.26,18.25,41.89,35.39a5.74,5.74,0,0,0,9.76-6.05c-9.63-15.54-25.68-29.29-40.86-37.88,20.35-1.79,45.41-3,58.65,3.3a5.74,5.74,0,0,0,4.95-10.36c-12.31-5.88-30.9-6.47-49-5.51a94.74,94.74,0,0,0,9.71-6.29c10.39-7.71,16.23-16,17.38-24.63A5.74,5.74,0,0,0,507,301.54c-1.1,8.29-11.13,17.65-27.52,25.69a125.06,125.06,0,0,1-14.91,6.14" transform="translate(-41.14 -20.67)"/><path class="cls-13" d="M421.88,399.92s11.32-20.64,16.88-26.21c8.47-8.47,24.25-16.79,27-18.7" transform="translate(-41.14 -20.67)"/><path class="cls-13" d="M464.58,333.31c-2.5-1.55-9.77-2.8-21.33-13.64s-10.87-22.55-21.3-30.58" transform="translate(-41.14 -20.67)"/></g></svg>