<?xml version="1.0" encoding="utf-8"?>
<!-- Generator: Adobe Illustrator 18.1.1, SVG Export Plug-In . SVG Version: 6.00 Build 0)  -->
<svg version="1.1" id="Ebene_1" xmlns="http://www.w3.org/2000/svg" xmlns:xlink="http://www.w3.org/1999/xlink" x="0px" y="0px"
	 viewBox="0 0 283.5 425.2" enable-background="new 0 0 283.5 425.2" xml:space="preserve">
<g>
	<defs>
		<rect id="SVGID_1_" x="47.2" y="49" width="192.5" height="305.5"/>
	</defs>
	<clipPath id="SVGID_2_">
		<use xlink:href="#SVGID_1_"  overflow="visible"/>
	</clipPath>
	<path clip-path="url(#SVGID_2_)" fill="#FFFFFF" d="M105.5,122.6c0,0-22.4-57.1-12.9-64.1c15.4-11.4,30.1,7.6,30.1,7.6
		s0.6-16,11.7-13c11,3,13.5,9.9,13.5,9.9s0.4-13.9,11.3-11.4c10.8,2.5,11,22.9,11,22.9l-2.7,42.1L105.5,122.6z"/>
	<g clip-path="url(#SVGID_2_)">
		<path fill="#020304" d="M104,125l-0.6-1.6c-0.1-0.1-5.7-14.5-10.1-29.6c-8.3-28.5-5.2-34.9-2.1-37.2c3.7-2.7,7.6-4.1,11.7-4.1
			c7.8,0,14.4,4.9,18.2,8.5c0.2-0.8,0.4-1.6,0.7-2.4c1.9-5.3,5.4-8.2,9.9-8.2c1,0,2.1,0.2,3.2,0.5c5.7,1.6,9.4,4.1,11.6,6.4
			c0.1-0.3,0.2-0.7,0.4-1c2.2-5.7,6.8-8.3,12.7-6.9c12.4,2.9,12.8,24.2,12.8,25.1l0,0.1l0,0.1l-2.9,44L104,125z M103,57.1
			c-3.1,0-6.2,1.1-9,3.2c-0.8,0.6-4.2,4.8,3.7,32.2c3.5,12,7.8,23.5,9.3,27.6l58.2-5.7l2.6-40.1c-0.1-5.2-1.9-18.9-9.3-20.6
			c-0.7-0.2-1.4-0.2-2-0.2c-6.1,0-6.5,9.1-6.5,9.5l-0.4,12l-4-11.3c-0.1-0.2-2.3-5.9-11.9-8.5c-0.7-0.2-1.4-0.3-2-0.3
			c-6.2,0-6.8,11-6.8,11.2l-0.3,6.3l-3.8-5C120.8,67.4,112.7,57.1,103,57.1z"/>
	</g>
	<path clip-path="url(#SVGID_2_)" fill="#FDD200" d="M91.6,257.4c0,0-17.1-8.3-19.9,11.6c-2.8,19.8,25.7,36.1,25.7,36.1
		s13.8,2.2,10-8C103.5,286.9,91.6,257.4,91.6,257.4"/>
	<g clip-path="url(#SVGID_2_)">
		<path fill="#030304" d="M100.3,308.1C100.3,308.1,100.3,308.1,100.3,308.1c-1.8,0-3.2-0.2-3.4-0.2l-0.5-0.1l-0.4-0.2
			c-0.3-0.2-7.5-4.3-14.4-11c-9.5-9.2-13.9-18.9-12.6-27.9c1.9-13.6,10.2-15.7,15-15.7c4.7,0,8.7,1.9,8.8,2l1,0.5l0.4,1
			c0.1,0.3,12,29.6,15.8,39.8c1.2,3.3,1.1,6.1-0.4,8.3C107.9,306.8,104.7,308.1,100.3,308.1z M98.3,302.4c0.5,0,1.2,0.1,2,0.1
			c2.8,0,4.2-0.6,4.6-1.3c0.4-0.6,0.3-1.7-0.3-3.2c-3.3-9-13.1-33.1-15.3-38.5c-1.2-0.4-3.2-1-5.5-1c-5.3,0-8.5,3.6-9.5,10.9
			C72.1,285.8,94.8,300.3,98.3,302.4z"/>
	</g>
	<path clip-path="url(#SVGID_2_)" fill="#FDD200" d="M186.7,241.2c0,35.5-24.6,64.3-55,64.3c-30.4,0-40.4-26.5-49.3-60.7
		c-8.8-34,19-67.8,49.3-67.8C162.1,176.9,186.7,205.7,186.7,241.2"/>
	<g clip-path="url(#SVGID_2_)">
		<path fill="#030304" d="M131.7,308.3c-33,0-43.4-29.7-52-62.8c-4.4-16.9-0.5-34.9,10.8-49.5c10.6-13.7,26-21.8,41.2-21.8
			c31.9,0,57.8,30.1,57.8,67.1S163.6,308.3,131.7,308.3z M131.7,179.7c-13.5,0-27.3,7.3-36.8,19.7c-10.2,13.2-13.8,29.5-9.8,44.7
			c9.9,38,20.3,58.6,46.6,58.6c28.8,0,52.2-27.6,52.2-61.5C183.9,207.3,160.5,179.7,131.7,179.7z"/>
	</g>
	<path clip-path="url(#SVGID_2_)" fill="#FDD200" d="M100.5,330.4c0,0-16.5-28-31.7-16.1C53.6,326.1,83,344.9,83,344.9
		s54.2,32.7,99.6-45.1l-24.3,7.7C158.3,307.4,126.3,346.4,100.5,330.4"/>
	<g clip-path="url(#SVGID_2_)">
		<path fill="#030304" d="M111,354.5c-17.2,0-28.9-6.9-29.3-7.2l-0.1,0c-2-1.3-19.3-12.6-19.9-24.4c-0.1-2.9,0.7-7,5.4-10.7
			c3-2.3,6.3-3.5,9.7-3.5c12.7,0,23.6,16.3,25.7,19.8c3.5,2.1,7.4,3.1,11.5,3.1c20.7,0,41.9-25.6,42.1-25.8l0.5-0.6l32-10.1
			l-3.6,6.2C170.9,325.5,146.5,354.5,111,354.5z M84.5,342.5c0.5,0.3,11.2,6.4,26.4,6.4c29.9,0,51.6-22.8,65.4-44.3l-16.5,5.2
			c-3.7,4.3-24.3,27.2-45.9,27.2c-5.4,0-10.4-1.4-15-4.3l-0.6-0.4l-0.4-0.6c-2.9-4.9-12.4-17.7-21.3-17.7c-2.2,0-4.3,0.8-6.3,2.3
			c-2.3,1.8-3.4,3.8-3.3,6.1C67.6,330.1,79.8,339.5,84.5,342.5z"/>
	</g>
	<path clip-path="url(#SVGID_2_)" fill="#F9B233" d="M121.6,215.1c13.7,14.5,14.7,47.3-4.6,63.9c-19.3,16.6-46,18.3-59.7,3.7
		c-13.7-14.5-9.1-39.8,10.2-56.4C86.9,209.8,107.9,200.6,121.6,215.1"/>
	<g clip-path="url(#SVGID_2_)">
		<path d="M82.3,294.9c-10.7,0-20.1-3.8-26.6-10.6c-5.9-6.3-8.9-14.9-8.4-24.3c0.7-12.8,7.5-25.7,18.8-35.4
			c10.1-8.7,25.1-19.1,39-19.1c7.1,0,13.2,2.7,18.2,8c7.4,7.8,11.4,20.5,10.7,33.8c-0.7,13.6-6.2,25.5-15.4,33.4
			C108,289.7,94.8,294.9,82.3,294.9z M105.1,210.2c-9.9,0-22.3,6.2-36,18c-10.3,8.9-16.6,20.6-17.2,32.2c-0.4,8.2,2.1,15.4,7.2,20.9
			c5.6,5.9,13.8,9.2,23.3,9.2c11.5,0,23.6-4.8,33.3-13.1c8.2-7.1,13.1-17.8,13.8-30.2c0.6-11.9-3-23.5-9.4-30.4
			C115.8,212.3,111,210.2,105.1,210.2z"/>
	</g>
	<path clip-path="url(#SVGID_2_)" fill="#FDD200" d="M148,181.8c0,0-24.7-0.8-35.4-9.4c0,0-22.3,29.7-27.9,13.8
		c-5.6-16,20.3-35,20.3-35s50.7-32.7,90.8,20.4S189,291.9,189,291.9s-23.1,16.5-42.3,15.5c-19.3-1-1-36-1-36s20.5-26.9,40.8-8.9
		l-2.8-4.8c0,0,8.1-12.5,3-27.4c-5.1-14.8-36.4-26.6-54.1-15.7c-23.8-0.5-14.2-12.2-14.2-12.2s18.4-24.9,43.3-16"/>
	<g clip-path="url(#SVGID_2_)">
		<path fill="#030304" d="M148.4,310.2c-0.6,0-1.3,0-1.9,0c-5.6-0.3-8.4-3.1-9.7-5.4c-5.9-10.4,5.1-32.2,6.4-34.7
			c0.1-0.1,0.2-0.3,0.3-0.4c0.5-0.6,11.4-14.7,25.8-16.1c4.3-0.4,8.4,0.3,12.3,2.2c1.2-2,6.7-12.6,2.5-24.6
			c-2-5.8-9.4-11.8-18.9-15.2c-11.5-4.1-23.4-3.8-31.1,1c-0.5,0.3-1,0.4-1.5,0.4c-10.2-0.2-16.2-2.5-18.2-6.8
			c-1.8-3.8,0.3-8,1.8-9.9c0.5-0.7,5.3-6.8,13-11.9c3.2-2.1,6.5-3.8,9.8-4.9c-7.6-0.9-18.4-3-25.7-7.6c-4.4,5.5-14.9,17.4-23.1,17.4
			c-0.4,0-0.8,0-1.2-0.1c-2.2-0.3-5.1-1.7-6.8-6.5c-2.7-7.6,0.2-16.4,8.6-26.2c5.9-6.9,12.4-11.7,12.7-11.9c0,0,0.1-0.1,0.1-0.1
			c0.5-0.3,13.5-8.6,31.6-10.1c16.8-1.5,41.4,2.8,62.9,31.2c9.5,12.5,15,26.9,16.4,42.6c1.1,12.5-0.3,25.9-4.3,39.9
			c-6.8,23.6-18.3,40.4-18.8,41.1c-0.2,0.3-0.4,0.5-0.7,0.7C189.6,294.8,167.9,310.2,148.4,310.2z M148,272.8
			c-4.3,8.3-9.7,23.3-6.4,29.1c0.6,1,1.8,2.4,5.2,2.6c16.7,0.9,37.1-12.6,40.2-14.7c1.8-2.7,11.9-18.4,17.8-39.2
			c3.8-13.3,5.2-26,4.1-37.8c-1.3-14.7-6.5-28-15.3-39.7c-16-21.2-35.5-31-57.9-29c-16.2,1.4-28,8.6-29,9.2
			c-6.8,5-23.2,20.3-19.2,31.8c0.9,2.6,2,2.8,2.4,2.8c4.7,0.7,15.1-9.9,20.6-17.3c0.5-0.6,1.1-1,1.9-1.1c0.8-0.1,1.5,0.1,2.1,0.6
			c4,3.2,11,5.8,20.3,7.3c7.2,1.2,13.3,1.4,13.4,1.4c1.5,0,2.7,1.3,2.7,2.7c0,0,0,0,0,0c3.9,0,7.9,0.7,11.7,2.1
			c1.5,0.5,2.2,2.1,1.7,3.6c-0.5,1.5-2.1,2.2-3.6,1.7c-22.6-8.1-39.9,14.8-40.1,15c0,0-0.1,0.1-0.1,0.1c-0.5,0.6-1.7,2.7-1.1,4
			c0.4,0.8,2.3,3.2,12.4,3.6c9.2-5.3,22.3-5.7,35.2-1c11.4,4.1,19.7,11,22.3,18.6c4.4,13-0.4,24.3-2.5,28.3l2,3.4
			c0.7,1.2,0.4,2.7-0.6,3.6c-1.1,0.9-2.6,0.8-3.6-0.1c-4.6-4.1-9.6-5.9-14.9-5.4C158.5,260.2,149.2,271.3,148,272.8z"/>
	</g>
	<path clip-path="url(#SVGID_2_)" fill="#A87C4F" d="M82.6,245.9l-15.3,39.2c-1.5,3.8-5.9,5.8-9.8,4.5l-0.6-0.2
		c-4.1-1.5-6.2-6-4.6-10.1l15.3-39.2c1.5-3.8,5.9-5.8,9.8-4.5l0.6,0.2C82.1,237.3,84.2,241.8,82.6,245.9"/>
	<g clip-path="url(#SVGID_2_)">
		<path fill="#020304" d="M60,292.3c-1.1,0-2.2-0.2-3.3-0.6l-0.6-0.2c-2.6-0.9-4.6-2.8-5.7-5.3c-1.1-2.5-1.2-5.2-0.2-7.8l15.3-39.2
			c1.5-3.8,5.2-6.3,9.4-6.3c1.1,0,2.2,0.2,3.3,0.6l0.6,0.2c2.6,0.9,4.6,2.8,5.7,5.3c1.1,2.5,1.2,5.2,0.2,7.8L69.4,286
			C67.9,289.8,64.1,292.3,60,292.3z M74.9,237.5c-2.3,0-4.3,1.4-5.1,3.4l-15.3,39.2c-0.5,1.4-0.5,2.9,0.1,4.2
			c0.6,1.3,1.7,2.4,3.1,2.9l0.6,0.2c0.6,0.2,1.2,0.3,1.8,0.3c2.3,0,4.3-1.4,5.1-3.4l15.3-39.2c0.5-1.4,0.5-2.9-0.1-4.2
			c-0.6-1.3-1.7-2.4-3.1-2.9l-0.6-0.2C76.1,237.6,75.5,237.5,74.9,237.5z"/>
	</g>
	<path clip-path="url(#SVGID_2_)" fill="#A87C4F" d="M92.7,249.1l-19.6,50.1c-1.3,3.3-5.1,5-8.4,3.8l-0.5-0.2
		c-3.6-1.3-5.3-5.2-4-8.7L79.8,244c1.3-3.3,5.1-5,8.4-3.8l0.5,0.2C92.3,241.6,94.1,245.6,92.7,249.1"/>
	<g clip-path="url(#SVGID_2_)">
		<path fill="#020304" d="M66.8,305.7c-1,0-2-0.2-3-0.5l-0.5-0.2c-2.3-0.8-4.1-2.5-5.1-4.7c-1-2.2-1.1-4.7-0.2-7l19.6-50.1
			c1.3-3.4,4.7-5.7,8.4-5.7c1,0,2,0.2,3,0.5l0.5,0.2c2.3,0.8,4.1,2.5,5.1,4.7c1,2.2,1.1,4.7,0.2,7L75.2,300
			C73.9,303.4,70.5,305.7,66.8,305.7z M86,242.1c-1.8,0-3.5,1.1-4.1,2.8L62.3,295c-0.4,1.1-0.4,2.3,0.1,3.4c0.5,1.1,1.4,1.9,2.5,2.3
			l0.5,0.2c0.5,0.2,0.9,0.2,1.4,0.2c1.8,0,3.5-1.1,4.1-2.8l19.6-50.1c0.4-1.1,0.4-2.3-0.1-3.4c-0.5-1.1-1.4-1.9-2.5-2.3l-0.5-0.2
			C87,242.2,86.5,242.1,86,242.1z"/>
	</g>
	<path clip-path="url(#SVGID_2_)" fill="#A87C4F" d="M108.3,250.9l-15.3,39.2c-1.5,3.8-5.9,5.8-9.8,4.5l-0.6-0.2
		c-4.1-1.5-6.2-6-4.6-10.1L93.3,245c1.5-3.8,5.9-5.8,9.8-4.5l0.6,0.2C107.8,242.3,109.9,246.8,108.3,250.9"/>
	<g clip-path="url(#SVGID_2_)">
		<path fill="#020304" d="M85.7,297.3c-1.1,0-2.2-0.2-3.3-0.6l-0.6-0.2c-2.6-0.9-4.6-2.8-5.7-5.3c-1.1-2.5-1.2-5.2-0.2-7.8
			l15.3-39.2c1.5-3.8,5.2-6.3,9.4-6.3c1.1,0,2.2,0.2,3.3,0.6l0.6,0.2c2.6,0.9,4.6,2.8,5.7,5.3c1.1,2.5,1.2,5.2,0.2,7.8L95,290.9
			C93.6,294.7,89.8,297.3,85.7,297.3z M100.6,242.4c-2.3,0-4.3,1.4-5.1,3.4l-15.3,39.2c-0.5,1.4-0.5,2.9,0.1,4.2
			c0.6,1.3,1.7,2.4,3.1,2.9l0.6,0.2c0.6,0.2,1.2,0.3,1.8,0.3c2.3,0,4.3-1.4,5.1-3.4l15.3-39.2c0.5-1.4,0.5-2.9-0.1-4.2
			c-0.6-1.3-1.7-2.4-3.1-2.9l-0.6-0.2C101.8,242.5,101.2,242.4,100.6,242.4z"/>
	</g>
	<path clip-path="url(#SVGID_2_)" fill="#A87C4F" d="M105.1,198.1l-15.3,39.2c-1.5,3.8-5.9,5.8-9.8,4.5l-0.6-0.2
		c-4.1-1.5-6.2-6-4.6-10.1l15.3-39.2c1.5-3.8,5.9-5.8,9.8-4.5l0.6,0.2C104.6,189.5,106.7,194,105.1,198.1"/>
	<g clip-path="url(#SVGID_2_)">
		<path fill="#020304" d="M82.5,244.5c-1.1,0-2.2-0.2-3.3-0.6l-0.6-0.2c-2.6-0.9-4.6-2.8-5.7-5.3c-1.1-2.5-1.2-5.2-0.2-7.8L88,191.4
			c1.5-3.8,5.2-6.3,9.4-6.3c1.1,0,2.2,0.2,3.3,0.6l0.6,0.2c2.6,0.9,4.6,2.8,5.7,5.3s1.2,5.2,0.2,7.8l-15.3,39.2
			C90.4,241.9,86.6,244.5,82.5,244.5z M97.4,189.7c-2.3,0-4.3,1.4-5.1,3.4l-15.3,39.2c-0.5,1.4-0.5,2.9,0.1,4.2
			c0.6,1.3,1.7,2.4,3.1,2.9l0.6,0.2c0.6,0.2,1.2,0.3,1.8,0.3c2.3,0,4.3-1.4,5.1-3.4l15.3-39.2c0.5-1.4,0.5-2.9-0.1-4.2
			c-0.6-1.3-1.7-2.4-3.1-2.9l-0.6-0.2C98.6,189.8,98,189.7,97.4,189.7z"/>
	</g>
	<path clip-path="url(#SVGID_2_)" fill="#A87C4F" d="M116.2,195.9l-21,53.6c-1.3,3.3-5.1,5-8.4,3.8l-0.5-0.2c-3.6-1.3-5.3-5.2-4-8.7
		l21-53.6c1.3-3.3,5.1-5,8.4-3.8l0.5,0.2C115.8,188.4,117.6,192.3,116.2,195.9"/>
	<g clip-path="url(#SVGID_2_)">
		<path fill="#020304" d="M89,256c-1,0-2-0.2-3-0.5l-0.5-0.2c-2.3-0.8-4.1-2.5-5.1-4.7c-1-2.2-1.1-4.7-0.2-7l21-53.6
			c1.3-3.4,4.7-5.7,8.4-5.7c1,0,2,0.2,3,0.5l0.5,0.2c2.3,0.8,4.1,2.5,5.1,4.7c1,2.2,1.1,4.7,0.2,7l-21,53.6
			C96,253.7,92.7,256,89,256z M109.6,188.9c-1.8,0-3.5,1.1-4.1,2.8l-21,53.6c-0.4,1.1-0.4,2.3,0.1,3.4c0.5,1.1,1.4,1.9,2.5,2.3
			l0.5,0.2c0.5,0.2,0.9,0.2,1.4,0.2c1.8,0,3.5-1.1,4.1-2.8l21-53.6c0.4-1.1,0.4-2.3-0.1-3.4c-0.5-1.1-1.4-1.9-2.5-2.3l-0.5-0.2
			C110.5,189,110.1,188.9,109.6,188.9z"/>
	</g>
	<path clip-path="url(#SVGID_2_)" fill="#A87C4F" d="M133.7,196.9L117,239.7c-1.5,3.8-5.9,5.8-9.8,4.5l-1-0.4
		c-4.1-1.5-6.2-6-4.6-10.1l16.8-42.8c1.5-3.8,5.9-5.8,9.8-4.5l1,0.4C133.3,188.3,135.3,192.9,133.7,196.9"/>
	<g clip-path="url(#SVGID_2_)">
		<path fill="#020304" d="M109.7,246.9c-1.1,0-2.2-0.2-3.3-0.6l-1-0.4c-2.6-0.9-4.6-2.8-5.7-5.3c-1.1-2.5-1.2-5.2-0.2-7.8l16.8-42.8
			c1.5-3.8,5.2-6.3,9.4-6.3c1.1,0,2.2,0.2,3.3,0.6l1,0.4c2.6,0.9,4.6,2.8,5.7,5.3c1.1,2.5,1.2,5.2,0.2,7.8l-16.8,42.8
			C117.6,244.4,113.8,246.9,109.7,246.9z M125.6,188.4c-2.3,0-4.3,1.4-5.1,3.4l-16.8,42.8c-0.5,1.4-0.5,2.9,0.1,4.2
			c0.6,1.3,1.7,2.4,3.1,2.9l1,0.4c0.6,0.2,1.2,0.3,1.8,0.3c2.3,0,4.3-1.4,5.1-3.4l16.8-42.8c0.5-1.4,0.5-2.9-0.1-4.2
			c-0.6-1.3-1.7-2.4-3.1-2.9l-1-0.4C126.8,188.5,126.2,188.4,125.6,188.4z"/>
	</g>
	<path clip-path="url(#SVGID_2_)" fill="#F9B233" d="M121.6,206.3c13.7,14.5,14.7,47.3-4.6,63.9c-19.3,16.6-46,18.3-59.7,3.7
		c-13.7-14.5-9.1-39.8,10.2-56.4C86.9,200.9,107.9,191.7,121.6,206.3"/>
	<g clip-path="url(#SVGID_2_)">
		<path d="M82.3,286.1c-10.7,0-20.1-3.8-26.6-10.6c-5.9-6.3-8.9-14.9-8.4-24.3c0.7-12.8,7.5-25.7,18.8-35.4
			c10.1-8.7,25.1-19.1,39-19.1c7.1,0,13.2,2.7,18.2,8c7.4,7.8,11.4,20.5,10.7,33.8c-0.7,13.6-6.2,25.5-15.4,33.4
			C108,280.9,94.8,286.1,82.3,286.1z M105.1,201.3c-9.9,0-22.3,6.2-36,18c-10.3,8.9-16.6,20.6-17.2,32.2c-0.4,8.2,2.1,15.4,7.2,20.9
			c5.6,5.9,13.8,9.2,23.3,9.2c11.5,0,23.6-4.8,33.3-13.1c8.2-7.1,13.1-17.8,13.8-30.2c0.6-11.9-3-23.5-9.4-30.4
			C115.8,203.4,111,201.3,105.1,201.3z"/>
	</g>
	<g clip-path="url(#SVGID_2_)">
		<path fill="#030304" d="M86.2,269.6c-1.1,0-2.1-0.9-2.3-2l-3.2-29c-0.1-0.7-0.2-1.5-0.2-2.3c-7.7,3.7-13.8,10.4-19.3,16.3
			c-0.9,0.9-2.3,1-3.2,0.1c-0.9-0.9-1-2.3-0.1-3.2c6.3-6.8,13.4-14.5,23-18.3c0.6-2.3,1.7-4.4,2.8-6.2c3-5.3,6.4-11.3,11.9-15.6
			c1-0.8,2.4-0.6,3.2,0.4c0.8,1,0.6,2.4-0.4,3.2c-4.7,3.7-7.8,9-10.7,14.2c-0.4,0.7-0.8,1.4-1.2,2.2c2.8-0.7,5.6-1.1,8.1-1.3
			c9.6-1.1,19.4-1.2,29.1-0.4c1.8,0.2,2.6,1.1,2.9,1.9c0.4,0.9,0.2,1.9-0.4,2.7c-0.7,0.8-1.7,1.1-2.7,0.9c-0.6-0.1-1.2-0.5-1.5-1
			c-9-0.7-18-0.5-26.9,0.5c-3.1,0.4-6.6,0.9-10,1.9c0,1.2,0.1,2.4,0.3,3.6l3.2,29c0.1,1.3-0.8,2.4-2,2.5
			C86.4,269.6,86.3,269.6,86.2,269.6z"/>
	</g>
	<path clip-path="url(#SVGID_2_)" fill="#FFFFFF" d="M104.1,121.8l0.7,24.7c0,0,29.3-10.9,46.3-4.8l17,6.1l-0.6-33.9
		C167.5,113.8,129.2,101.4,104.1,121.8"/>
	<g clip-path="url(#SVGID_2_)">
		<path fill="#020304" d="M170.5,150.9l-20.1-7.2c-3.2-1.1-7.1-1.7-11.7-1.7c-15.3,0-32.9,6.5-33,6.5l-3,1.1l-0.9-29l0.9-0.7
			c10-8.1,23.1-12.2,38.8-12.2c14.8,0,26.4,3.7,26.8,3.9l1.6,0.5L170.5,150.9z M138.6,137.5c5.1,0,9.6,0.7,13.2,2l13.9,5l-0.5-28.9
			c-3.6-1-12.9-3.2-23.9-3.2c-14.2,0-26,3.5-35,10.5l0.6,20.4C112.8,141.3,126.2,137.5,138.6,137.5z"/>
	</g>
	<path clip-path="url(#SVGID_2_)" fill="#FDD200" d="M92.2,190.4c2.6,2.9,0.8,8.7-4,12.9c-4.8,4.2-10.8,5.2-13.3,2.3
		c-2.6-2.9-0.8-8.7,4-12.9C83.6,188.5,89.6,187.5,92.2,190.4"/>
	<g clip-path="url(#SVGID_2_)">
		<path fill="#030304" d="M79.1,209.6c-2.5,0-4.6-0.9-6-2.5c-1.8-2-2.2-5-1.2-8.2c0.9-2.8,2.8-5.7,5.4-8c3.3-2.9,7.1-4.5,10.6-4.5
			c2.5,0,4.6,0.9,6,2.5c1.8,2,2.2,5,1.2,8.2c-0.9,2.8-2.8,5.7-5.4,8C86.4,208,82.5,209.6,79.1,209.6z M87.9,191
			c-2.3,0-5.2,1.3-7.6,3.4c-2,1.7-3.5,3.9-4.1,5.9c-0.5,1.6-0.4,3,0.3,3.8c0.7,0.8,1.7,0.9,2.5,0.9c2.3,0,5.2-1.3,7.6-3.4
			c2-1.7,3.5-3.9,4.1-5.9c0.5-1.6,0.4-3-0.3-3.8C89.8,191.2,88.7,191,87.9,191z"/>
	</g>
	<path clip-path="url(#SVGID_2_)" fill="#F18616" d="M177.9,155.3c0,0-10.8-9.8,8.7-8.7c19.6,1.1,44.9-0.1,44.9-0.1s8.7,0.6,4,8.8
		C230.8,163.5,210.7,189.9,177.9,155.3"/>
	<g clip-path="url(#SVGID_2_)">
		<path fill="#030304" d="M209.3,175.5c-10.7,0-21.9-6.1-33.3-18.1c-1-1-5-5-3.5-9c1.6-4.1,7.2-4.5,11.3-4.5c0.9,0,1.9,0,3,0.1
			c5.5,0.3,11.9,0.5,19.2,0.5c13.5,0,25.3-0.5,25.4-0.5l0.2,0l0.2,0c0.5,0,5.3,0.5,7.2,4.2c1.3,2.4,0.9,5.4-1,8.8
			c-1.4,2.4-4.6,7.2-9.5,11.3C222.6,173,216.1,175.5,209.3,175.5z M177.7,150.3c0.1,0.6,1.1,2,2.1,2.9l0.1,0.1
			c10.4,10.9,20.2,16.5,29.3,16.5c3.4,0,15.2-1.2,23.9-15.9c1.1-1.8,1.2-2.9,0.9-3.4c-0.4-0.7-1.9-1.1-2.6-1.2
			c-1.6,0.1-12.8,0.5-25.5,0.5c-7.4,0-13.9-0.2-19.5-0.5c-1-0.1-1.9-0.1-2.7-0.1C179.3,149.3,178,150.1,177.7,150.3z"/>
	</g>
	<path clip-path="url(#SVGID_2_)" fill="#F18616" d="M95.4,158.2c0,0-20.6,15.2-27.8,19.9c-7.3,4.7,9.9,18.6,19.4,10.6
		C86.4,181.3,95.4,158.2,95.4,158.2"/>
	<g clip-path="url(#SVGID_2_)">
		<path fill="#030304" d="M80,193.9C80,193.9,80,193.9,80,193.9c-7.1,0-15.1-5.1-16.7-10.8c-0.9-3,0.1-5.7,2.7-7.4
			c7.1-4.6,27.5-19.6,27.7-19.8c1-0.7,2.4-0.7,3.4,0s1.4,2.1,0.9,3.2c-3.5,9.1-8.7,24.3-8.3,29.3c0.1,0.9-0.3,1.8-1,2.3
			C86.3,192.9,83.3,193.9,80,193.9z M89.6,165.9c-6.7,4.9-16,11.6-20.5,14.5c-0.5,0.3-0.6,0.5-0.4,1.1c0.8,2.7,6,6.8,11.4,6.8
			c1.5,0,2.9-0.4,4.1-1.1C84.4,181.9,87.2,172.8,89.6,165.9z"/>
	</g>
	<path clip-path="url(#SVGID_2_)" fill="#030304" d="M103.3,168.3c0,2-1.6,3.7-3.7,3.7c-2,0-3.7-1.6-3.7-3.7c0-2,1.6-3.7,3.7-3.7
		C101.6,164.6,103.3,166.3,103.3,168.3"/>
	<path clip-path="url(#SVGID_2_)" fill="#030304" d="M144.1,157.8c0,2-1.6,3.7-3.7,3.7c-2,0-3.7-1.6-3.7-3.7c0-2,1.6-3.7,3.7-3.7
		C142.4,154.1,144.1,155.8,144.1,157.8"/>
	<path clip-path="url(#SVGID_2_)" fill="#030304" d="M115.2,168.9c-4.9-0.3-7-4.5-3.3-7.4C117.7,159.8,127.3,159.3,115.2,168.9"/>
	<path clip-path="url(#SVGID_2_)" fill="#FDD200" d="M119.2,301.2c0,0,2.6-11.2-1.2-25.9c-3.8-14.7-1-22.3,3.5-23.8
		c4.6-1.5,16,1.5,23.8,18.5c7.9,17-9.9,39.8-10.6,39.3C133.9,308.8,124.2,313.8,119.2,301.2"/>
	<g clip-path="url(#SVGID_2_)">
		<path fill="#030304" d="M129.9,312.7c-4.1,0-9.8-1.8-13.3-10.5l-0.3-0.8l0.2-0.9c0-0.1,2.4-10.7-1.2-24.5
			c-5.7-21.7,2.7-26.3,5.3-27.2c1-0.3,2.1-0.5,3.3-0.5c7,0,17,5.4,24,20.5c2.7,5.8,3,12.5,1,20.2c-1.9,7.1-5.4,13.2-7.3,16.2
			c-1.9,2.9-4.4,6.9-6.8,6.9h-0.4c-0.1,0-0.2,0-0.3,0.1C133.1,312.3,131.6,312.7,129.9,312.7z M122.1,300.9c2.8,6.2,6.5,6.2,7.8,6.2
			c0,0,0,0,0,0c1.2,0,2.2-0.2,3-0.4c0.3-0.1,0.5-0.1,0.8-0.2c3.4-3.7,15.2-22.2,9.1-35.4c-5.9-12.7-13.9-17.2-18.9-17.2
			c-0.7,0-1.2,0.1-1.5,0.2c-3.1,1-5,7.9-1.7,20.5C124,287.5,122.6,297.8,122.1,300.9z"/>
	</g>
	<path clip-path="url(#SVGID_2_)" fill="#E51A2B" d="M95,189.4c0,0,4.4-4.1,8-2.1c1.4,0.8,4.7-4.2,7.8-3c3.1,1.3,6.1,3.7,6.1,3.7
		s4.4-5.4,9-3.9c4.6,1.5,6.6,2.6,6.6,2.6l5.1-2.9l-14.7-3.3l-10.2-4.3L95,189.4z"/>
	<path clip-path="url(#SVGID_2_)" fill="#FFFFFF" d="M108.8,179.2v3.4l5.2,0.3l0.5-7.3C114.5,175.5,108.8,175.8,108.8,179.2"/>
	<g clip-path="url(#SVGID_2_)">
		<path d="M114,184.1C114,184.1,114,184.1,114,184.1l-5.3-0.3c-0.7,0-1.2-0.6-1.2-1.3v-3.4c0-3.6,4.4-4.8,7-4.9c0.4,0,0.7,0.1,1,0.4
			c0.3,0.3,0.4,0.6,0.4,1l-0.5,7.3C115.3,183.6,114.7,184.1,114,184.1z M110.1,181.4l2.8,0.2l0.3-4.5c-1.3,0.3-3.1,0.9-3.1,2.2
			V181.4z"/>
	</g>
	<path clip-path="url(#SVGID_2_)" fill="#FFFFFF" d="M114.5,177.3l-0.5,5.6c0,0,4.8,0.6,5.7-0.2c0.9-0.8,0-5,0-5
		S114.7,175.5,114.5,177.3"/>
	<g clip-path="url(#SVGID_2_)">
		<path d="M117.3,184.3L117.3,184.3c-1.6,0-3.3-0.2-3.4-0.2c-0.7-0.1-1.2-0.7-1.1-1.4l0.5-5.6c0.1-0.9,0.8-1.8,2.4-1.8
			c1.7,0,4.2,1,4.5,1.1c0.4,0.2,0.7,0.5,0.7,0.9c0.7,3.3,0.6,5.4-0.4,6.2C120,184.1,119,184.3,117.3,184.3z M115.4,181.7
			c0.5,0,1.2,0.1,1.8,0.1c0.9,0,1.3-0.1,1.5-0.1c0.1-0.5,0-1.8-0.2-3.1c-0.9-0.3-2.1-0.7-2.8-0.7L115.4,181.7z"/>
	</g>
	<path clip-path="url(#SVGID_2_)" fill="#FDD200" d="M186.4,230.8c-5.1-14.8-36.4-26.6-54.1-15.7c-23.8-0.5-14.2-12.2-14.2-12.2
		s18.4-24.9,43.3-16"/>
	<g clip-path="url(#SVGID_2_)">
		<path fill="#030304" d="M186.4,233.6c-1.2,0-2.2-0.7-2.6-1.9c-2-5.8-9.4-11.8-18.9-15.2c-11.5-4.1-23.4-3.8-31.1,1
			c-0.5,0.3-1,0.4-1.5,0.4c-10.2-0.2-16.2-2.5-18.2-6.8c-1.8-3.8,0.3-8,1.8-9.9c0.5-0.7,5.3-6.8,13-11.9c10.8-7.2,22.4-8.9,33.4-5
			c1.5,0.5,2.2,2.1,1.7,3.6c-0.5,1.5-2.1,2.2-3.6,1.7c-22.6-8.1-39.9,14.8-40.1,15c0,0-0.1,0.1-0.1,0.1c-0.5,0.6-1.7,2.7-1.1,4
			c0.4,0.8,2.3,3.2,12.4,3.6c9.2-5.3,22.3-5.7,35.2-1c11.4,4.1,19.7,11,22.3,18.6c0.5,1.5-0.3,3-1.7,3.5
			C187,233.5,186.7,233.6,186.4,233.6z"/>
	</g>
</g>
</svg>
