<?xml version="1.0" encoding="UTF-8" standalone="no"?>
<svg width="281px" height="302px" viewBox="0 0 281 302" version="1.1" xmlns="http://www.w3.org/2000/svg" xmlns:xlink="http://www.w3.org/1999/xlink" xmlns:sketch="http://www.bohemiancoding.com/sketch/ns">
    <!-- Generator: Sketch 3.4.1 (15681) - http://www.bohemiancoding.com/sketch -->
    <title>edinburgh-wapuu</title>
    <desc>Created with Sketch.</desc>
    <defs></defs>
    <g id="Wapuu" stroke="none" stroke-width="1" fill="none" fill-rule="evenodd" sketch:type="MSPage">
        <g id="edinburgh-wapuu" sketch:type="MSLayerGroup" transform="translate(-6.000000, 0.000000)">
            <g id="lower" transform="translate(26.000000, 0.000000)" sketch:type="MSShapeGroup">
                <path d="M241.462248,52.0757419 C238.335148,52.0757419 234.780592,52.0941936 231.001657,52.1126452 C226.735621,52.1339355 222.181302,52.1566452 217.635503,52.1566452 C210.327574,52.1566452 200.094201,52.104129 192.811834,51.6868387 C189.607496,49.3584792 190.461649,50.015033 186.996836,48.2857392 C185.469013,47.5232006 190.196474,47.8258382 196.773723,44.9093734 C201.521396,43.2138268 205.461958,34.5042486 201.107351,26.0114408 C196.691318,17.4586459 164.525537,11.7364497 147.18818,11.0054931 C146.564507,1.35779392 138.427267,-0.410938881 131.74508,0.431798826 C125.062892,1.27453653 119.068185,5.52156674 119.759896,14.4646669 C103.059144,20.1453088 85.6616962,31.2261484 78.4717372,46.3425071 C74.6072596,56.1609358 89.7594006,58.29326 90.5263525,58.5700174 C82.691238,64.1788688 81.8695226,67.0257937 76.6546744,75.1047742 C71.4343196,80.0668388 65.2965674,82.2479436 62.640946,82.836976 C58.188875,83.8262664 42.1530419,84.9808211 38.1360136,87.1707087 C23.2137108,95.3056192 -0.351777645,118.854096 0.80419867,142.334153 C-0.35177765,142.134024 2.4238066,161.440652 7.29539309,171.806184 C9.70107594,176.924882 21.4646154,190.650194 22.8449704,197.315484 C25.6553846,210.891613 46.2328994,233.77871 62.6409468,237.716 C64.2570416,238.102064 65.80071,238.299355 67.2279288,238.299355 C71.6175148,238.299355 75.2430768,236.449936 77.44,233.091742 C78.137278,232.024387 78.64142,230.891742 78.9907692,229.733548 C90.1884024,237.452 103.132781,242.232387 116.845444,243.620516 C119.816331,253.309032 127.793136,254.924258 132.770651,254.924258 C140.274556,254.924258 146.757396,251.875484 151.379882,246.254839 C151.797396,246.260516 152.216331,246.264774 152.636686,246.264774 C155.809231,246.264774 159.751479,246.047613 164.261775,245.352129 C149.824852,261.544129 128.968994,270.862194 113.611834,270.865032 C107.134674,270.865032 98.43929,269.214322 93.7671004,261.359613 C87.5853256,250.967097 77.6757396,244.510452 67.9081656,244.510452 C57.6478106,244.510452 50.5188166,251.750581 50.1708876,262.524903 C49.9820118,268.357032 53.0395266,274.700129 59.0139645,280.865806 C69.064142,291.239871 88.552426,301.707613 109.439527,301.707613 C114.054911,301.707613 118.577988,301.190968 122.882367,300.171871 C159.896331,291.410194 193.060355,261.791097 202.707219,229.214064 C238.036923,202.237806 235.23645,128.076516 223.528994,95.0098064 C222.716686,92.7147096 221.839053,90.4664516 220.897515,88.2721292 C222.321894,88.436774 223.730651,88.5190968 225.116686,88.5190968 C228.353136,88.5190968 231.505799,88.0649032 234.489468,87.1707096 C252.853018,81.6650324 261.149349,68.0406452 260.976095,60.5649032 C260.885207,56.6190968 258.550532,53.5007742 255.031479,52.6207742 C253.554556,52.2531613 251.146036,52.0757419 241.462248,52.0757419 Z" id="outline" fill="#000000"></path>
                <path d="M194.609704,139.340516 C183.211834,129.128258 175.35432,122.851871 164.055858,120.515613 C156.459645,118.945806 147.39361,120.955613 139.395503,122.728387 C133.334438,124.073936 128.099882,125.237806 124.026982,124.806322 C117.771361,124.147742 112.812308,120.857678 111.39929,116.420774 C110.403787,113.295355 110.67645,108.286452 117.63645,102.164774 C120.532071,99.6170324 123.99716,97.488 127.795976,95.7578064 C122.31716,95.7663224 116.903669,94.7131612 111.700355,91.952516 C104.980355,101.280516 87.9247336,108.038064 82.6759764,105.708903 C81.5100592,105.190839 80.2078108,104.302322 79.0049704,103.063226 C78.8913608,103.151226 78.786272,103.247742 78.6726628,103.337161 C80.057278,104.633032 81.0669824,106.448387 81.5029584,108.570322 C82.3876924,112.872387 80.8809468,117.475355 77.4712428,120.881806 C74.5031952,123.849678 70.7640236,125.551484 67.215148,125.551484 C64.7327812,125.551484 62.6139644,124.688516 61.0262722,123.181161 C54.0052071,134.608387 49.9294674,148.034064 49.9294674,162.429161 C49.9294674,169.131355 50.8255621,175.620645 52.4714793,181.804774 C59.5181065,187.609936 71.1247336,210.671613 73.6568048,216.456903 C73.7945564,216.773419 73.9507692,217.173678 74.1112428,217.636387 C86.1893492,228.798194 101.92568,236.06671 119.330651,237.409419 C119.111953,234.532387 119.209941,231.466581 119.310769,228.439097 C119.4329,224.730322 119.56071,220.893806 119.07645,217.742839 C118.677396,215.149678 118.011361,212.367742 117.305562,209.422581 C114.676923,198.441032 111.694674,185.99329 122.20213,178.993032 C124.215858,177.650322 126.40568,176.969032 128.707692,176.969032 C138.148639,176.969032 146.730414,188.346581 151.158343,196.997548 C157.188166,187.242322 167.097752,181.056774 178.881894,179.863097 C184.849231,179.257032 190.803787,180.030581 195.711716,181.847355 C197.44284,175.553936 198.331834,169.030581 198.331834,162.429161 C198.331834,154.530452 197.07929,146.763742 194.609704,139.340516" id="Fill-3" fill="#005683"></path>
                <path d="M145.71787,121.382839 C143.569231,121.804387 141.447574,122.272774 139.395503,122.728387 C133.334438,124.073936 128.099882,125.237806 124.026982,124.806322 C117.771361,124.147742 112.812308,120.857678 111.39929,116.420774 C110.403787,113.295355 110.67645,108.286452 117.63645,102.164774 C117.737278,102.076774 117.850888,101.99729 117.951716,101.90929 C113.471243,100.448774 108.752189,99.516258 103.866982,99.1855484 C96.1457988,104.398839 86.416568,107.368129 82.6759764,105.708903 C81.5114792,105.190839 80.2106508,104.303742 79.0092308,103.066064 C78.8984616,103.158322 78.7876924,103.249161 78.6740828,103.338581 C80.0586984,104.634452 81.0669824,106.449806 81.5029584,108.570322 C82.3876924,112.872387 80.8809468,117.475355 77.4712428,120.881806 C74.5031952,123.849678 70.7640236,125.551484 67.215148,125.551484 C64.7313608,125.551484 62.6111244,124.687097 61.023432,123.178322 C54.003787,134.605548 49.9294674,148.034064 49.9294674,162.429161 C49.9294674,169.125678 50.8099408,175.616387 52.4586982,181.793419 C57.1848521,185.675355 63.9644972,197.332516 68.6849704,206.345419 C77.7013016,212.081032 88.3919528,215.419355 99.8721892,215.419355 C106.215858,215.419355 112.316686,214.391742 118.034083,212.516774 C117.801184,211.504774 117.558343,210.478581 117.305562,209.422581 C114.676923,198.441032 111.694674,185.99329 122.20213,178.993032 C124.215858,177.650322 126.40568,176.969032 128.707692,176.969032 C135.968757,176.969032 142.711479,183.698194 147.456095,190.741032 C154.150532,181.264 158.097042,169.709032 158.097042,157.225806 C158.097042,143.697936 153.466036,131.261548 145.71787,121.382839" id="Fill-4" fill="#00709C"></path>
                <path d="M96.5087496,200.866104 C93.2836608,201.074749 90.659282,200.888813 87.4540752,200.224555 C86.4869744,190.591394 85.8635424,178.558104 90.7189272,157.582878 C99.539282,180.41462 109.254312,197.157329 109.323898,197.249587 C107.6723,198.037329 102.647921,200.433201 96.5087496,200.866104 M81.7167968,198.433329 C56.4798738,186.97062 51.8474478,159.798491 60.3156135,138.881459 C60.6379803,159.581329 66.4377436,175.720813 81.7167968,198.433329 M115.876324,193.323652 C119.879637,176.07991 126.534312,159.595523 130.449578,142.326233 C131.205081,138.98791 131.859756,133.793071 130.682478,128.000684 C142.345909,146.211007 141.006738,174.49591 115.876324,193.323652 M63.8644892,131.942233 C75.2566784,114.417459 97.042714,100.164297 120.954667,117.667781 C120.794193,117.660684 105.625909,118.356168 116.650288,134.656039 C122.609105,143.464555 122.988276,150.531523 118.274904,164.902491 C116.573602,171.98791 116.059519,174.126878 114.539992,181.422362 C107.264726,164.043781 101.327211,149.248426 96.6379804,130.328426 C100.760584,129.723781 105.431353,129.038233 103.031353,126.386878 C102.728868,126.053329 81.0124184,128.206491 80.8050808,128.241975 C79.137862,128.525846 78.8453176,130.487394 78.8424776,130.505846 C78.6692228,132.054362 78.9504064,132.038749 83.6552584,131.754878 C84.8950216,138.434362 85.4602288,141.484555 88.5276844,151.234104 C86.31372,160.435781 84.0216492,169.951136 83.7078028,184.685459 C73.8124184,165.000426 69.851708,151.327781 69.0962052,134.23591 C70.5007024,133.382878 72.3766784,133.717846 73.617862,132.447523 C74.4642524,131.580297 74.8760868,129.624426 73.8209388,129.397329 C70.0789272,128.591136 67.2230692,131.241071 63.8644892,131.942233 M98.2483944,106.040426 C60.8112348,109.128942 36.501649,165.512813 69.611708,195.019781 C103.169105,224.922749 144.62804,186.285071 143.19656,150.435007 C142.084608,122.641201 119.058809,105.041201 98.2483944,106.040426" id="Fill-5" fill="#FFFFFF"></path>
            </g>
            <g id="bagpipes" transform="translate(0.000000, 2.000000)" sketch:type="MSShapeGroup">
                <path d="M117.379658,96.0205202 C127.401236,90.8927087 138.756049,88 150.78649,88 C191.346423,88 224.226746,120.880322 224.226746,161.440255 C224.226746,202.000189 191.346423,234.880511 150.78649,234.880511 C123.801905,234.880511 100.216516,220.326821 87.4514241,198.640544 C57.459395,197.990781 33.3462346,173.474797 33.3462346,143.326883 C33.3462346,112.770689 58.1169237,88 88.6731173,88 C99.1841507,88 109.010589,90.9310985 117.379658,96.0205202 Z" id="Oval-1" fill="#F3A358"></path>
                <path d="M115.901738,201.993282 C119.620895,201.414603 123.21746,200.465476 126.652523,199.184813 C123.112941,200.409159 119.508873,201.355581 115.901738,201.993282 Z M111.326883,92.1423796 C110.00584,92.0479997 108.671967,92 107.326883,92 C76.7706891,92 52,116.770689 52,147.326883 C52,168.247867 63.6119138,186.456743 80.7422894,195.86006 C66.8020389,186.305901 60,168.082873 60,147.326883 C60,118.115773 82.6378766,94.1920231 111.326883,92.1423796 Z" id="Oval-1" fill="#329996"></path>
                <path d="M187.440255,238.638942 C185.461381,238.79895 183.460343,238.880511 181.440255,238.880511 C140.880322,238.880511 108,206.000189 108,165.440255 C108,124.880322 140.880322,92 181.440255,92 C183.460343,92 185.461381,92.0815609 187.440255,92.2415693 C149.686675,95.2942583 120,126.90041 120,165.440255 C120,203.980101 149.686675,235.586253 187.440255,238.638942 Z" id="Path" fill="#329996"></path>
                <path d="M36.5640569,161.440255 C43.6621556,165.371347 47.5078573,175.36374 79.7973401,175.363739 C129.979732,200.317277 146.479503,212.180248 206.229994,212.180249 C202.171677,221.315671 201.275708,223.246777 197.28813,228.322399 C142.799666,222.36691 101.674822,204.935202 82.4718793,185.761014 C59.3216144,183.932272 42.9860017,173.580902 38.7534413,168.108477 C37.4733218,164.975462 38.033446,166.647784 36.5640569,161.440255 Z" id="lower-orange-band" fill="#E1832B"></path>
                <path d="M38,165.440255 C45.0980988,169.371347 59.7723967,183.665737 82.1319742,179.996013 C116.284139,206.530091 146.215363,216.661964 207.665937,216.180249" id="lower-pin-stripe" stroke="#333333" stroke-width="2"></path>
                <path d="M64.0847812,93.4553863 C76.4563022,89.4711029 96.5701495,99.8863993 100.893,102.235684 C111.575847,101.4636 198.863056,93.1719122 214.491571,147.426256 C217.606651,162.48097 218.219352,187.029599 218.219352,187.029599 L200.039436,188.635701 C200.039436,188.635701 203.448213,174.492224 194.941244,155.560867 C186.434275,136.629509 167.474794,99.3810352 104.871508,108.199318 C96.5239077,107.742673 62.9030956,94.7335829 59.1574757,96.5016122 C63.9468794,93.8145916 63.4794996,93.2365601 64.0847812,93.4553863 Z" id="upper-orange-band" fill="#F08F33"></path>
                <path d="M62.574009,94.2838279 C71.5010196,94.0016248 92.4853683,101.329763 96.8082188,103.679048 C117.759575,104.993324 190.159667,97.1552202 205.788181,151.409564 C208.903262,166.464278 210.555895,189.725447 210.555895,189.725447" id="upper-orange-band" stroke="#333333" stroke-width="2"></path>
                <path d="M38.6822879,119.879908 C38.6822879,119.879908 61.8166654,143.501328 85.3160261,138.373157 C104.963144,154.076991 178.856382,176.356886 222.803204,141.261391 C230.176139,157.025013 226.25188,177.140924 224.527541,179.933289 C178.24084,194.294614 105.878709,176.945294 80.3900422,153.914725 C52.0152503,148.570502 37.3990474,139.497561 35.026555,129.773875 C36.384012,124.365788 38.6822879,119.879908 38.6822879,119.879908 Z" id="mid-orange-band" fill="#E1832A"></path>
                <path d="M92.1274379,204.733821 C78.6493801,180.42361 74.4352099,160.164746 86.9148936,134.8026" id="crease" stroke="#D47419" stroke-width="4"></path>
                <path d="M35.7411261,125.093164 C35.7411261,125.093164 59.1343774,151.62142 82.6337381,146.493249 C102.280856,162.197083 181.854378,192.742683 225.8012,157.647188" id="Path-35" stroke="#333333" stroke-width="2"></path>
                <g id="squares" transform="translate(52.000000, 92.000000)" fill="#AB5B00">
                    <path d="M2.56083673,39.6762681 C1.2608542,44.0924361 0.496982399,48.7382183 0.344535213,53.5383006 C2.74741871,54.6438011 5.40659533,55.7014891 8.3261969,56.7029695 C8.31951248,56.2455623 8.31617211,55.7868444 8.31617211,55.3268827 C8.31617211,51.1804894 8.77229363,47.140629 9.63709844,43.2547398 C7.13569268,42.1814919 4.76281584,40.9561811 2.56083673,39.6762681 Z" id="Oval-1"></path>
                    <path d="M56.4632831,78.1266246 C56.3657002,76.5770517 56.3161721,75.0144375 56.3161721,73.4402555 C56.3161721,68.3555224 56.8329191,63.3914821 57.8167622,58.5977851 C61.3825803,59.8685459 65.1868321,61.0686777 69.1773319,62.158541 C68.6103337,65.8361908 68.3161721,69.6038706 68.3161721,73.4402555 C68.3161721,76.5677349 68.5116648,79.6495545 68.8910969,82.6741611 C64.5640351,81.2660438 60.4048554,79.744284 56.4632831,78.1266246 Z" id="Path"></path>
                    <path d="M35.1349807,3.92539479 C31.8901684,5.22115573 28.7967837,6.8152667 25.8887314,8.67382279 C27.690302,9.22953048 29.5331359,9.80544834 31.3737803,10.3800427 C33.9018558,8.56181598 36.5895748,6.95160922 39.4118764,5.57447846 C38.0594211,5.0148562 36.6242613,4.45606605 35.1349807,3.92539479 Z" id="Oval-1"></path>
                    <path d="M72.0290937,118.843772 C67.5516731,113.158909 63.8959614,106.796569 61.2410396,99.9358335 C66.4591731,102.455698 71.4124975,104.734612 76.3002423,106.775755 C79.7436673,113.523642 84.1998746,119.668534 89.4684912,125.010057 C83.3056882,123.104235 77.4841718,121.039271 72.0290937,118.843772 Z" id="Path"></path>
                    <path d="M12.9211647,82.4405921 C10.668247,82.1304869 8.63476168,81.7521299 6.79035185,81.3208966 C8.52723804,84.5783716 10.5804023,87.6416789 12.9088533,90.4698275 C14.3937848,90.9085177 15.9301466,91.3179061 17.5153637,91.6914672 C15.7188263,88.8437443 14.1882518,85.7450574 12.9211647,82.4405921 Z M74.9686905,107.184814 C71.5336291,108.465477 67.937065,109.414603 64.2179103,109.993282 C67.8250417,109.355582 71.4291094,108.40916 74.9686955,107.184813 Z" id="Path-36"></path>
                    <path d="M162.709515,55.0892766 C162.742566,55.2013342 162.775309,55.3136606 162.807743,55.4262563 C165.023189,66.1331744 165.972917,81.6421711 166.336699,89.7071434 C160.788127,91.0240231 154.942174,91.9417629 148.907939,92.4992916 C149.313612,86.9675566 149.007976,76.3581273 143.257416,63.5608667 C143.253908,63.5530587 143.250397,63.5452476 143.246885,63.5374333 C150.028565,61.5267143 156.577243,58.757099 162.709515,55.0892766 Z" id="Path-37"></path>
                    <path d="M84.3477663,15.7169738 C86.7729322,13.8065547 89.3214184,12.0456885 91.9793187,10.4482813 C95.2143995,10.7926717 98.5134867,11.2327149 101.833462,11.7887878 C99.1071714,13.55785 96.505603,15.5028389 94.044839,17.6076721 C91.000365,16.8158726 87.7722238,16.17746 84.3477637,15.7169758 Z" id="Path"></path>
                </g>
                <path d="M186.440255,238.873842 C186.107452,238.878283 185.774114,238.880511 185.440255,238.880511 C144.880322,238.880511 112,206.000189 112,165.440255 C112,124.880322 144.880322,92 185.440255,92 C185.774114,92 186.107452,92.0022277 186.440255,92.0066692 C146.341259,92.5418116 114,125.214181 114,165.440255 C114,205.66633 146.341259,238.338699 186.440255,238.873842 Z" id="right-pin-stripe" fill="#333333"></path>
                <path d="M110.638982,202.638512 C113.14883,202.580102 115.617348,202.354553 118.033836,201.972565 C115.680311,202.254044 113.216971,202.476858 110.638973,202.638513 Z M110.326883,92.0088557 C109.994257,92.0029602 109.660916,92 109.326883,92 C78.7706891,92 54,116.770689 54,147.326883 C54,156.03876 56.013553,164.280346 59.6006593,171.611643 C57.1919995,164.260688 56,156.015725 56,147.326883 C56,117.104722 80.2320748,92.5422659 110.326883,92.0088557 Z" id="left-pin-stripe" fill="#333333"></path>
                <path d="M122.50875,198.866104 C119.283661,199.074749 116.659282,198.888813 113.454075,198.224555 C112.486974,188.591394 111.863542,176.558104 116.718927,155.582878 C125.539282,178.41462 135.254312,195.157329 135.323898,195.249587 C133.6723,196.037329 128.647921,198.433201 122.50875,198.866104 M107.716797,196.433329 C82.4798738,184.97062 77.8474478,157.798491 86.3156135,136.881459 C86.6379803,157.581329 92.4377436,173.720813 107.716797,196.433329 M141.876324,191.323652 C145.879637,174.07991 152.534312,157.595523 156.449578,140.326233 C157.205081,136.98791 157.859756,131.793071 156.682478,126.000684 C168.345909,144.211007 167.006738,172.49591 141.876324,191.323652 M89.8644892,129.942233 C101.256678,112.417459 123.042714,98.1642975 146.954667,115.667781 C146.794193,115.660684 131.625909,116.356168 142.650288,132.656039 C148.609105,141.464555 148.988276,148.531523 144.274904,162.902491 C142.573602,169.98791 142.059519,172.126878 140.539992,179.422362 C133.264726,162.043781 127.327211,147.248426 122.63798,128.328426 C126.760584,127.723781 131.431353,127.038233 129.031353,124.386878 C128.728868,124.053329 107.012418,126.206491 106.805081,126.241975 C105.137862,126.525846 104.845318,128.487394 104.842478,128.505846 C104.669223,130.054362 104.950406,130.038749 109.655258,129.754878 C110.895022,136.434362 111.460229,139.484555 114.527684,149.234104 C112.31372,158.435781 110.021649,167.951136 109.707803,182.685459 C99.8124184,163.000426 95.851708,149.327781 95.0962052,132.23591 C96.5007024,131.382878 98.3766784,131.717846 99.617862,130.447523 C100.464252,129.580297 100.876087,127.624426 99.8209388,127.397329 C96.0789272,126.591136 93.2230692,129.241071 89.8644892,129.942233 M124.248394,104.040426 C86.8112348,107.128942 62.501649,163.512813 95.611708,193.019781 C129.169105,222.922749 170.62804,184.285071 169.19656,148.435007 C168.084608,120.641201 145.058809,103.041201 124.248394,104.040426" id="WordPress" fill="#FFFFFF"></path>
                <path d="M99.6838339,7.71984445 C103.383633,7.13311315 106,5.68877363 106,4 C106,1.790861 101.522847,0 96,0 C90.4771525,0 86,1.790861 86,4 C86,5.59051664 88.3207707,6.96421526 91.6816807,7.6088433 L91.0034484,24.182688 C86.9445607,24.6919674 84,26.2084359 84,28 C84,29.7455159 86.7951391,31.2298959 90.6927137,31.7760586 L90.1801209,44.3021969 C86.5523923,44.9024591 84,46.3320009 84,48 C84,49.6215533 86.4122275,51.0177442 89.8796095,51.6457436 L88.003345,97.4956898 L95.996655,97.8227908 L97.8846174,51.686984 C101.477937,51.0804951 104,49.6580594 104,48 C104,46.3884138 101.617336,44.999428 98.1842087,44.3659235 L98.7094974,31.5295349 C101.857978,30.8559571 104,29.5280378 104,28 C104,26.5187359 101.987107,25.2255264 98.9957636,24.5341491 L99.6838339,7.71984445 Z" id="Oval-3" fill="#000000"></path>
                <path d="M67.6838339,29.9976635 C71.3836329,29.5418231 74,28.4196939 74,27.1076603 C74,25.3913469 69.5228475,24 64,24 C58.4771525,24 54,25.3913469 54,27.1076603 C54,28.3433566 56.3207707,29.4106038 59.6816807,29.911425 L59.0034484,42.7878946 C54.9445607,43.1835615 52,44.3617287 52,45.7536219 C52,47.1097395 54.7951391,48.2629767 58.6927137,48.6872987 L58.1801209,58.4190442 C54.5523923,58.885397 52,59.9960296 52,61.2919232 C52,62.5517324 54.4122275,63.6364541 57.8796095,64.1243563 L56.003345,99.7458703 L63.996655,100 L65.8846174,64.1563966 C69.4779367,63.6852062 72,62.5800945 72,61.2919232 C72,60.0398576 69.6173355,58.9607336 66.1842087,58.4685544 L66.7094976,48.4957686 C69.8579777,47.972458 72,46.9407774 72,45.7536219 C72,44.6028055 69.9871066,43.5980915 66.9957636,43.0609501 L67.6838339,29.9976635 Z" id="Oval-3" fill="#000000" transform="translate(63.000000, 62.000000) rotate(-19.000000) translate(-63.000000, -62.000000) "></path>
                <path d="M39.6838339,27.7198444 C43.3836329,27.1331131 46,25.6887736 46,24 C46,21.790861 41.5228475,20 36,20 C30.4771525,20 26,21.790861 26,24 C26,25.5905166 28.3207707,26.9642153 31.6816807,27.6088433 L31.0034484,44.182688 C26.9445607,44.6919674 24,46.2084359 24,48 C24,49.7455159 26.7951391,51.2298959 30.6927137,51.7760586 L30.1801209,64.3021969 C26.5523923,64.9024591 24,66.3320009 24,68 C24,69.6215533 26.4122275,71.0177442 29.8796095,71.6457436 L28.003345,117.49569 L35.996655,117.822791 L37.8846174,71.686984 C41.4779367,71.0804951 44,69.6580594 44,68 C44,66.3884138 41.6173355,64.999428 38.1842087,64.3659235 L38.7094974,51.5295349 C41.8579777,50.8559571 44,49.5280378 44,48 C44,46.5187359 41.9871066,45.2255264 38.9957636,44.5341491 L39.6838339,27.7198444 Z" id="Oval-3" fill="#000000" transform="translate(35.000000, 68.911395) rotate(-27.000000) translate(-35.000000, -68.911395) "></path>
                <path d="M135.732072,89.6092086 L123.042158,110.073895 C123.042158,110.073895 125.859905,113.624254 127.82936,114.156958 C130.292889,114.823301 136.341111,113.671035 136.341111,113.671035 L141.950938,89.4997717 L135.732072,89.6092086 Z" id="Path-30" fill="#000000"></path>
                <path d="M121.397025,108.560273 C126.010856,112.193669 126.392464,113.396127 139.733152,111.985534" id="Path-34" stroke="#D4741A" stroke-width="4"></path>
            </g>
            <g id="upper" transform="translate(52.000000, 42.000000)" sketch:type="MSShapeGroup">
                <path d="M123.251124,166.108258 C123.228402,166.018839 123.208521,165.932258 123.185799,165.841419 C122.982722,165.032387 122.758343,164.199226 122.505562,163.333419 C120.396686,155.74271 110.367811,140.646452 102.707692,140.646452 C101.530414,140.646452 100.432663,140.997032 99.3519528,141.716645 C92.6447336,146.187613 93.9981064,154.275097 96.8312428,166.102581 C97.5313608,169.027871 98.2556212,172.053936 98.6901776,174.878452 C99.2568048,178.553161 99.1190532,182.659355 98.9869824,186.627871 C98.7824852,192.79071 98.5708876,199.165032 101.229349,201.911484 C102.392426,203.113678 104.204497,203.698452 106.770651,203.698452 C107.513373,203.698452 108.212071,203.643097 108.888047,203.557936 C109.093964,203.532387 109.288521,203.494064 109.487337,203.461419 C109.958816,203.384774 110.414674,203.291097 110.853491,203.177548 C111.048047,203.126452 111.242604,203.073936 111.431479,203.015742 C111.888757,202.876645 112.326154,202.716258 112.746509,202.538839 C112.870059,202.487742 113.00071,202.442322 113.12142,202.388387 C113.661065,202.142839 114.175148,201.871742 114.657988,201.573678 C114.704852,201.543871 114.747456,201.509806 114.79432,201.48 C115.221775,201.207484 115.625089,200.917936 116.0071,200.612774 C116.11929,200.523355 116.225799,200.431097 116.335148,200.338839 C116.648994,200.073419 116.948639,199.798064 117.232663,199.515613 C117.327811,199.420516 117.425799,199.325419 117.518106,199.228903 C117.836213,198.893936 118.137278,198.550452 118.418462,198.20129 C118.451124,198.160129 118.488047,198.121806 118.51929,198.080645 C118.833136,197.683226 119.12142,197.27871 119.389822,196.872774 C119.453728,196.777678 119.509112,196.681161 119.568757,196.587484 C119.759053,196.286581 119.940828,195.985678 120.108402,195.687613 C120.189349,195.544258 120.266036,195.403742 120.341302,195.261806 C120.471953,195.014839 120.595503,194.77071 120.711953,194.528 C120.784379,194.376129 120.861065,194.222839 120.929231,194.072387 C121.025799,193.860903 121.109586,193.657936 121.194793,193.453548 C121.373728,193.026322 121.534201,192.61329 121.667692,192.232903 C121.676213,192.211613 121.684734,192.188903 121.691834,192.169032 C121.785562,191.896516 121.870769,191.638194 121.944615,191.398322 C122.266982,190.349419 122.413254,189.614194 122.434556,189.49071 C122.455858,189.368645 122.48568,189.240903 122.524024,189.124516 C124.652781,182.389678 125.507692,176.725032 123.773728,168.386322 C123.620355,167.648258 123.44426,166.887484 123.251124,166.108258" id="Fill-6" fill="#FFD200"></path>
                <path d="M191.564497,18.6741936 C183.08355,18.6741936 170.937278,18.6032258 163.40355,17.9929032 C162.747456,17.9403871 162.168047,17.9403871 161.793136,17.9716129 C162.348402,18.8785806 163.710296,20.4668387 165.885917,22.2793548 L166.434083,22.7434839 C181.233136,35.3544516 192.372544,38.0029676 199.111006,38.0043872 L199.113846,38.0043872 C201.520947,38.0043872 203.849941,37.6708388 206.041184,37.0136776 C216.43787,33.8967742 222.824142,27.4571613 225.332071,22.4709678 C226.267929,20.6073548 226.458225,19.383871 226.458225,18.8090322 C225.043787,18.6656774 221.36568,18.5932903 215.494911,18.5932903 C212.370651,18.5932903 208.817515,18.6103226 205.03858,18.6301936 C200.739882,18.6514839 196.147219,18.6741936 191.564497,18.6741936" id="Fill-7" fill="#FF8800"></path>
                <path d="M7.20473372,143.123226 C5.05325444,145.764645 4.3375148,149.480516 5.18816568,153.589548 C7.35810652,164.072903 26.0014201,184.405161 38.6291124,187.434064 C39.5933728,187.665419 40.4681656,187.783226 41.2279288,187.783226 C43.1962132,187.783226 43.928994,187.012516 44.3095856,186.432 C45.848994,184.07729 44.9756212,178.956258 43.7543196,176.165806 C40.257988,168.179097 29.1782248,147.240774 23.5786982,142.934452 C20.7597633,140.765678 17.7249704,139.620258 14.8009468,139.620258 C11.743432,139.620258 9.043787,140.865032 7.20473372,143.123226" id="Fill-8" fill="#FFD200"></path>
                <path d="M36.43929,71.0921292 C37.0911244,74.5638708 39.3959764,75.2934192 41.215148,75.2934192 C43.6066272,75.2934192 46.3147928,74.0145808 48.4591716,71.8699356 C50.8520712,69.4783224 51.9256804,66.3230968 51.3306508,63.4261936 C50.96142,61.6278708 49.9786984,60.2496776 48.702012,59.7401292 C48.4932544,59.6563872 48.2063904,59.6123872 47.8712428,59.6123872 C45.5777516,59.6123872 41.3884024,61.6761292 38.6191716,65.0116128 C37.6080472,66.2308388 35.9777515,68.6409032 36.43929,71.0921292" id="Fill-9" fill="#FFD200"></path>
                <path d="M167.406864,188.261548 C163.147929,190.805032 158.975621,192.829032 154.972308,194.413032 C141.833373,218.439871 113.291834,236.901419 88.5278108,237.371226 C75.7368048,237.58129 65.8272188,232.761161 60.4435504,223.712774 C54.4037868,213.560129 45.1786984,209.811613 39.177278,211.355871 C35.155503,212.392 32.8506509,215.744516 32.6873373,220.798839 C32.5439053,225.232903 36.4605916,231.148774 43.1635504,236.624645 C55.2146744,246.472129 75.894438,254.38929 94.9183432,249.884258 C127.805444,242.100516 157.343905,216.694064 167.406864,188.261548" id="Fill-10" fill="#FF8800"></path>
                <path d="M34.8061538,52.4860644 C34.6073373,52.5300644 34.5462722,52.5981936 34.5448521,52.5981936 C34.5647337,52.5910968 34.6911243,52.8295484 35.1626036,53.147484 C36.0260356,53.7308388 39.5450888,55.3701936 49.0740828,52.8252904 C48.7815384,50.616774 48.8923076,47.8618064 49.8508876,44.588774 C44.2826036,48.4593548 38.0028404,51.7763872 34.8061538,52.4860644" id="Fill-11" fill="#FF8800"></path>
                <path d="M41.215148,79.551484 L41.215148,79.551484 C36.5742012,79.551484 33.1389349,76.6105808 32.2499408,71.8756128 C31.6719527,68.792774 32.7697042,65.3891612 35.3401184,62.2921292 C38.6788164,58.272516 43.9488756,55.3543224 47.8712428,55.3543224 C48.7545564,55.3543224 49.566864,55.4990968 50.2840236,55.7858064 C52.8927812,56.8290324 54.8440236,59.3654192 55.5029584,62.5703224 C56.3876924,66.8723872 54.8809468,71.4753548 51.4712428,74.8818064 C48.5031952,77.8496776 44.7640236,79.551484 41.215148,79.551484 L41.215148,79.551484 L41.215148,79.551484 Z M47.8712428,59.6123872 C45.5777516,59.6123872 41.3884024,61.6761292 38.6191716,65.0116128 C37.6080472,66.2308388 35.9777515,68.6409032 36.43929,71.0921292 C37.0911244,74.5638708 39.3959764,75.2934192 41.215148,75.2934192 C43.6066272,75.2934192 46.3147928,74.0145808 48.4591716,71.8699356 C50.8520712,69.4783224 51.9256804,66.3230968 51.3306508,63.4261936 C50.96142,61.6278708 49.9786984,60.2496776 48.702012,59.7401292 C48.4932544,59.6563872 48.2063904,59.6123872 47.8712428,59.6123872 L47.8712428,59.6123872 L47.8712428,59.6123872 Z" id="Fill-12" fill="#000000"></path>
                <path d="M189.496805,55.8513548 C187.115266,49.1250324 184.189822,43.0033548 180.80142,37.500516 C175.708876,35.0209032 169.981538,31.3618064 163.669112,25.983871 L163.15929,25.5495484 C156.179408,19.7387097 157.142248,17.0830968 157.457515,16.2101936 C157.710296,15.5104516 158.159053,14.964 158.778225,14.5552258 C149.315976,8.49883872 138.453491,5.11083872 126.588402,4.75316128 C97.1024852,3.86038708 71.2605916,16.4003871 57.4471004,38.296774 C53.671006,44.2850324 52.3659172,49.7268388 53.6766864,54.0374192 C54.631006,57.1770324 56.8208284,59.1130324 58.4056804,59.8170324 C61.089704,61.0121292 78.1666272,55.087742 83.1285208,46.0705808 C83.4111244,45.5610324 83.888284,45.1863224 84.4520712,45.0387096 C85.0186984,44.8910968 85.616568,44.9790968 86.1121892,45.284258 C97.7628404,52.4491612 110.859172,49.1732904 122.217278,45.5411612 C123.342012,45.1849032 124.536331,45.8009032 124.895621,46.920774 C125.087337,47.5225808 124.990769,48.1428388 124.693964,48.6481292 C132.20071,48.4508388 139.733018,49.5948388 146.370651,52.2135484 C147.464142,52.6450324 148.000947,53.8812904 147.569231,54.9756128 C147.137515,56.0699356 145.899172,56.6078708 144.80568,56.1735484 C128.47432,49.732516 106.357396,52.887742 94.4511244,63.3611612 C90.368284,66.9521292 88.5945564,70.4210324 89.457988,73.127742 C90.345562,75.9096776 93.966864,78.0983224 98.4728996,78.5709676 C101.859882,78.9229676 107.013491,77.783226 112.473846,76.5710968 C120.888047,74.7046452 130.428402,72.5883872 138.91929,74.3455484 C152.680237,77.1913548 161.810178,85.4420644 175.627929,97.9309676 L177.312189,99.452516 C178.184142,100.240258 178.252308,101.587226 177.464142,102.45871 C177.043787,102.925678 176.464379,103.16129 175.88355,103.16129 C175.40071,103.16129 174.92355,102.98529 174.528757,102.657419 C175.892071,108.454064 176.592189,114.405419 176.592189,120.429161 C176.592189,127.650839 175.589586,134.785936 173.629822,141.657032 C175.823905,142.897548 177.667219,144.387871 178.987929,146.096774 C179.707929,147.026452 179.536095,148.364903 178.605917,149.081678 C177.67716,149.80129 176.335148,149.630968 175.617988,148.699871 C171.938462,143.940774 162.5671,141.167355 153.309349,142.099871 C146.568047,142.782581 134.284024,146.010194 127.322604,159.83329 C127.588166,160.542968 127.808284,161.200129 127.968757,161.777806 C131.618462,174.279484 130.75503,181.864516 127.99574,190.656 C127.724497,192.139226 127.199053,193.907742 126.412308,195.750064 C135.786509,195.777032 152.333728,193.718968 169.941775,181.601936 C203.280473,158.659484 200.347929,86.495226 189.496805,55.8513548" id="Fill-13" fill="#FFD200"></path>
                <path d="M227.997633,14.7525161 C226.968047,14.4941936 224.515503,14.3352258 215.494911,14.3352258 C212.36497,14.3352258 208.804734,14.3522581 205.017278,14.372129 C200.72426,14.3934194 196.141538,14.416129 191.564497,14.416129 C183.722604,14.416129 172.729468,14.3550968 165.297988,13.8625806 C154.28355,5.57780644 141.208521,0.9336774 126.716213,0.49509676 C95.815858,-0.451612904 68.6617752,12.7512258 54.0004732,35.7887742 C48.3611836,41.351226 37.5228404,47.519742 33.8830769,48.3301936 C32.1973964,48.703484 30.9263905,49.8347096 30.4776331,51.3534192 C30.0260355,52.8905808 30.511716,54.572516 31.7742012,55.8513548 C32.9315976,57.0180644 35.3401184,58.4771612 40.15858,58.4771612 C42.750296,58.4771612 46.0506508,58.0456776 50.217278,56.9300644 C51.7822484,60.4756128 54.4790532,62.7323872 56.6759764,63.7089032 C61.9247336,66.0380644 78.9803552,59.280516 85.7003552,49.952516 C90.9036688,52.7131612 96.3171596,53.7663224 101.795976,53.7578064 C97.9971596,55.488 94.5320712,57.6170324 91.6364496,60.164774 C84.6764496,66.2864516 84.4037868,71.2953548 85.39929,74.420774 C86.8123076,78.8576776 91.7713608,82.147742 98.0269824,82.8063224 C102.099882,83.2378064 107.334438,82.0739356 113.395503,80.7283872 C121.39361,78.9556128 130.459645,76.9458064 138.055858,78.5156128 C149.35432,80.8518708 157.211834,87.128258 168.609704,97.340516 C171.07929,104.763742 172.331834,112.530452 172.331834,120.429161 C172.331834,127.030581 171.44284,133.553936 169.711716,139.847355 C164.803787,138.030581 158.849231,137.257032 152.881894,137.863097 C141.097752,139.056774 131.188166,145.242322 125.158343,154.997548 C120.730414,146.346581 112.148639,134.969032 102.707692,134.969032 C100.40568,134.969032 98.215858,135.650322 96.20213,136.993032 C85.6946744,143.99329 88.6769232,156.441032 91.305562,167.422581 C92.0113608,170.367742 92.6773964,173.149678 93.0764496,175.742839 C93.56071,178.893806 93.4328996,182.730322 93.3107692,186.439097 C93.0665088,193.785678 92.813728,201.380645 97.1465088,205.85871 C99.4044972,208.192129 102.642367,209.375871 106.770651,209.375871 C115.308402,209.375871 120.828402,204.930452 124.137278,199.96129 C124.891361,199.989678 125.689468,200.009548 126.56142,200.009548 C132.055858,200.009548 139.801184,199.321161 148.716686,196.603097 C135.394556,217.294452 110.333728,232.69871 88.446864,233.114581 C80.59787,233.284903 69.9597632,231.375871 64.1046152,221.535484 C56.9940828,209.583097 45.6444972,205.289548 38.1150296,207.232645 C32.1846154,208.758452 28.6556213,213.655226 28.4298225,220.661161 C28.2409468,226.497548 32.6291124,233.517678 40.4667456,239.920387 C50.7711244,248.338581 67.0201184,255.428258 83.5872188,255.428258 C87.6998816,255.428258 91.833846,254.991097 95.9010652,254.028774 C132.033136,245.474322 164.308166,216.370452 172.99645,184.645032 C192.537278,170.691355 198.757396,142.955742 200.518343,122.021678 C202.76213,95.3349676 198.616805,68.8441292 193.5129,54.4305808 C191.709349,49.336516 189.590532,44.5901936 187.223195,40.1547096 C191.969231,41.7458064 195.966864,42.2624516 199.111006,42.2624516 L199.113846,42.2624516 C201.935621,42.2624516 204.67645,41.8678708 207.265326,41.0929032 C223.88355,36.1095484 230.83645,23.8292903 230.71716,18.6642581 C230.670296,16.6289032 229.652071,15.1655484 227.997633,14.7525161 L227.997633,14.7525161 L227.997633,14.7525161 Z M49.0740828,52.8252904 C39.5450888,55.3701936 36.0260356,53.7308388 35.1626036,53.147484 C34.6911243,52.8295484 34.5647337,52.5910968 34.5448521,52.5981936 C34.5462722,52.5981936 34.6073373,52.5300644 34.8061538,52.4860644 C38.0028404,51.7763872 44.2826036,48.4593548 49.8508876,44.588774 C48.8923076,47.8618064 48.7815384,50.616774 49.0740828,52.8252904 L49.0740828,52.8252904 L49.0740828,52.8252904 Z M122.524024,189.124516 C122.48568,189.240903 122.455858,189.368645 122.434556,189.49071 C122.330888,190.069806 119.756213,203.698452 106.770651,203.698452 C104.204497,203.698452 102.392426,203.113678 101.229349,201.911484 C98.5708876,199.165032 98.7824852,192.79071 98.9869824,186.627871 C99.1190532,182.659355 99.2568048,178.553161 98.6901776,174.878452 C98.2556212,172.053936 97.5313608,169.027871 96.8312428,166.102581 C93.9981064,154.275097 92.6447336,146.187613 99.3519528,141.716645 C100.432663,140.997032 101.530414,140.646452 102.707692,140.646452 C110.367811,140.646452 120.396686,155.74271 122.505562,163.333419 C125.801657,174.628645 125.056095,181.110839 122.524024,189.124516 L122.524024,189.124516 L122.524024,189.124516 Z M94.9183432,249.884258 C75.894438,254.38929 55.2146744,246.472129 43.1635504,236.624645 C36.4605916,231.148774 32.5439053,225.232903 32.6873373,220.798839 C32.8506509,215.744516 35.155503,212.392 39.177278,211.355871 C45.1786984,209.811613 54.4037868,213.560129 60.4435504,223.712774 C65.8272188,232.761161 75.7368048,237.58129 88.5278108,237.371226 C113.291834,236.901419 141.833373,218.439871 154.972308,194.413032 C158.975621,192.829032 163.147929,190.805032 167.406864,188.261548 C157.343905,216.694064 127.805444,242.100516 94.9183432,249.884258 L94.9183432,249.884258 L94.9183432,249.884258 Z M189.496805,55.8513548 C200.347929,86.495226 203.280473,158.659484 169.941775,181.601936 C152.333728,193.718968 135.786509,195.777032 126.412308,195.750064 C127.199053,193.907742 127.724497,192.139226 127.99574,190.656 C130.75503,181.864516 131.618462,174.279484 127.968757,161.777806 C127.808284,161.200129 127.588166,160.542968 127.322604,159.83329 C134.284024,146.010194 146.568047,142.782581 153.309349,142.099871 C162.5671,141.167355 171.938462,143.940774 175.617988,148.699871 C176.335148,149.630968 177.67716,149.80129 178.605917,149.081678 C179.536095,148.364903 179.707929,147.026452 178.987929,146.096774 C177.667219,144.387871 175.823905,142.897548 173.629822,141.657032 C175.589586,134.785936 176.592189,127.650839 176.592189,120.429161 C176.592189,114.405419 175.892071,108.454064 174.528757,102.657419 C174.92355,102.98529 175.40071,103.16129 175.88355,103.16129 C176.464379,103.16129 177.043787,102.925678 177.464142,102.45871 C178.252308,101.587226 178.184142,100.240258 177.312189,99.452516 L175.627929,97.9309676 C161.810178,85.4420644 152.680237,77.1913548 138.91929,74.3455484 C130.428402,72.5883872 120.888047,74.7046452 112.473846,76.5710968 C107.013491,77.783226 101.859882,78.9229676 98.4728996,78.5709676 C93.966864,78.0983224 90.345562,75.9096776 89.457988,73.127742 C88.5945564,70.4210324 90.368284,66.9521292 94.4511244,63.3611612 C106.357396,52.887742 128.47432,49.732516 144.80568,56.1735484 C145.899172,56.6078708 147.137515,56.0699356 147.569231,54.9756128 C148.000947,53.8812904 147.464142,52.6450324 146.370651,52.2135484 C139.733018,49.5948388 132.20071,48.4508388 124.693964,48.6481292 C124.990769,48.1428388 125.087337,47.5225808 124.895621,46.920774 C124.536331,45.8009032 123.342012,45.1849032 122.217278,45.5411612 C110.859172,49.1732904 97.7628404,52.4491612 86.1121892,45.284258 C85.616568,44.9790968 85.0186984,44.8910968 84.4520712,45.0387096 C83.888284,45.1863224 83.4111244,45.5610324 83.1285208,46.0705808 C78.1666272,55.087742 61.089704,61.0121292 58.4056804,59.8170324 C56.8208284,59.1130324 54.631006,57.1770324 53.6766864,54.0374192 C52.3659172,49.7268388 53.671006,44.2850324 57.4471004,38.296774 C71.2605916,16.4003871 97.1024852,3.86038708 126.588402,4.75316128 C138.453491,5.11083872 149.315976,8.49883872 158.778225,14.5552258 C158.159053,14.964 157.710296,15.5104516 157.457515,16.2101936 C157.142248,17.0830968 156.179408,19.7387097 163.15929,25.5495484 L163.669112,25.983871 C169.981538,31.3618064 175.708876,35.0209032 180.80142,37.500516 C184.189822,43.0033548 187.115266,49.1250324 189.496805,55.8513548 L189.496805,55.8513548 L189.496805,55.8513548 Z M225.332071,22.4709678 C222.824142,27.4571613 216.43787,33.8967742 206.041184,37.0136776 C203.849941,37.6708388 201.520947,38.0043872 199.113846,38.0043872 L199.111006,38.0043872 C192.372544,38.0029676 181.233136,35.3544516 166.434083,22.7434839 L165.885917,22.2793548 C163.710296,20.4668387 162.348402,18.8785806 161.793136,17.9716129 C162.168047,17.9403871 162.747456,17.9403871 163.40355,17.9929032 C170.937278,18.6032258 183.08355,18.6741936 191.564497,18.6741936 C196.147219,18.6741936 200.739882,18.6514839 205.03858,18.6301936 C208.817515,18.6103226 212.370651,18.5932903 215.494911,18.5932903 C221.36568,18.5932903 225.043787,18.6656774 226.458225,18.8090322 C226.458225,19.383871 226.267929,20.6073548 225.332071,22.4709678 L225.332071,22.4709678 L225.332071,22.4709678 Z" id="Fill-14" fill="#000000"></path>
                <path d="M81.2085208,34.7952258 C77.8215384,37.3344516 78.8426036,40.4740644 82.6286392,40.9467096 C86.4160948,41.4193548 86.7114792,41.6705808 90.2035504,39.0532904 C93.9895856,36.2145808 94.4639052,31.4824516 90.2035504,31.9565161 C85.9431952,32.4305806 83.1029584,33.375871 81.2085208,34.7952258" id="Fill-15" fill="#000000"></path>
                <path d="M71.2676924,36.6886452 C71.2676924,39.040516 69.3604732,40.9467096 67.0073372,40.9467096 C64.6556212,40.9467096 62.7469824,39.040516 62.7469824,36.6886452 C62.7469824,34.3367742 64.6556212,32.4305806 67.0073372,32.4305806 C69.3604732,32.4305806 71.2676924,34.3367742 71.2676924,36.6886452" id="Fill-16" fill="#000000"></path>
                <path d="M120.498935,24.8611613 C120.498935,27.2130322 118.591716,29.1192258 116.23858,29.1192258 C113.885444,29.1192258 111.978225,27.2130322 111.978225,24.8611613 C111.978225,22.5092903 113.885444,20.6030968 116.23858,20.6030968 C118.591716,20.6030968 120.498935,22.5092903 120.498935,24.8611613" id="Fill-17" fill="#000000"></path>
                <path d="M41.2279288,192.04129 L41.2279288,192.04129 C40.134438,192.04129 38.9259172,191.885161 37.6350296,191.575742 C23.227929,188.118194 3.5095858,166.497161 1.015858,154.452516 C-0.098934912,149.066064 0.9249704,144.086968 3.89869824,140.436387 C6.52733728,137.211613 10.5008284,135.362194 14.8009468,135.362194 C18.6721894,135.362194 22.6059172,136.814194 26.1775148,139.560645 C33.1914793,144.952774 45.0892308,168.592129 47.6568048,174.456903 C48.7247336,176.896774 50.8449704,184.220645 47.8740828,188.762581 C46.8956212,190.258581 44.9472188,192.04129 41.2279288,192.04129 L41.2279288,192.04129 L41.2279288,192.04129 Z M14.8009468,139.620258 C11.743432,139.620258 9.043787,140.865032 7.20473372,143.123226 C5.05325444,145.764645 4.3375148,149.480516 5.18816568,153.589548 C7.35810652,164.072903 26.0014201,184.405161 38.6291124,187.434064 C39.5933728,187.665419 40.4681656,187.783226 41.2279288,187.783226 C43.1962132,187.783226 43.928994,187.012516 44.3095856,186.432 C45.848994,184.07729 44.9756212,178.956258 43.7543196,176.165806 C40.257988,168.179097 29.1782248,147.240774 23.5786982,142.934452 C20.7597633,140.765678 17.7249704,139.620258 14.8009468,139.620258 L14.8009468,139.620258 L14.8009468,139.620258 Z" id="Fill-18" fill="#000000"></path>
            </g>
            <g id="kilt" transform="translate(180.000000, 158.000000)" sketch:type="MSShapeGroup">
                <path d="M3.53977498,36.4994086 C0.631105299,37.4044845 13.7539272,36.1958184 13.7539272,36.1958184 L15.3216863,45.3165712 L26.6956482,45.6332064 L27.5388227,55.7169097 L41.113814,57.706849 L40.4947745,64.230482 L48.9964879,67.8154561 L48.1533133,75.2759498 C48.1533133,75.2759498 74.8716255,49.6605196 76.4275287,18.149986 C64.4629889,14.8567432 60.6420211,16.9913622 46.4598489,12.3390786 C44.9549424,18.9813015 44.971545,19.8280338 42.6768296,27.1960272 C38.7764062,24.2692273 14.1179983,19.1698596 3.53977498,36.4994086 Z" id="Path-97" stroke="#000000" stroke-width="4" fill="#E33131"></path>
                <path d="M58.1618652,19.3571777 C57.4556572,20.4211535 57.3272455,21.5879634 56.7708592,23.2298505 C55.1816918,27.9194578 53.2284979,32.607465 50.9025321,36.9690411 C47.4576158,43.428837 42.258177,49.8771942 37.8168945,53.2490222 L43.0537109,53.9245594 C48.0208931,50.1534674 50.7381301,45.7779144 54.4320138,38.8512629 C56.8701747,34.2793021 58.904876,29.3956628 60.5592529,24.5136236 C61.138107,22.8054343 62.023842,21.3300947 62.0329694,19.7906274 C59.690918,19.5080566 59.4626465,19.4047852 58.1618652,19.3571777 Z" id="Shape" fill="#8F1818"></path>
                <path d="M76.5136388,18.5495195 L76.5136387,7.42341301 C76.5136387,7.42341301 53.9060025,6.84871312 47.5066653,2.83102223 C47.8114556,7.09934635 46.7862517,9.6472424 46.6074078,12.3210849 C56.4897495,17.4876025 76.5136388,18.5495195 76.5136388,18.5495195 Z" id="Path-98" fill="#000000"></path>
                <path d="M44.7834473,33.6696777 L46.1264987,29.7535918 C46.1264987,29.7535918 60.939711,31.2013433 68.6857797,36.124723 C67.6523553,38.7457169 66.9836884,40.5619869 66.3868122,41.9830733 C63.1193726,40.0074996 44.7834473,33.6696777 44.7834473,33.6696777 Z" id="Path-100" fill="#8F1919"></path>
            </g>
            <g id="seeyoujimmy" transform="translate(108.000000, 6.000000)" sketch:type="MSShapeGroup">
                <path d="M20.8042901,43.1558186 C14.716159,44.8584517 11.4974345,42.577186 9.10566838,45.0485582 C6.71390227,47.5199305 -2.31967687,45.765019 4.63937549,37.1674939 C11.5984279,28.5699688 17.7008157,20.5285031 41.1372699,12.8684367 C64.5737241,5.20837027 103.149711,16.5921293 110.915522,20.2088883 C118.165673,26.2292943 116.053122,33.0113111 111.206621,35.0894023 C106.36012,37.1674935 99.1384812,36.6363872 93.2749125,34.0081768 C87.4113439,31.3799664 77.9928005,30.0444756 77.9928005,30.0444756 C77.9928005,30.0444756 42.8185161,27.2178433 20.8042901,43.1558186 Z" id="Path-102" fill="#E33131"></path>
                <path d="M5.74975586,46.020752 C17.6661165,34.2128049 29.4072263,26.9584383 44.3250783,22.795392 C64.443001,17.1811893 87.3790095,19.9373285 113.855359,33.1959382 L115.646422,29.6193343 C88.3101195,15.9300847 64.3585827,13.0519131 43.2499004,18.9426018 C27.750208,23.2680192 14.7320682,32.1535013 2.5090332,44.1740723 C2.74511719,44.8981934 3.25478593,44.9515164 3.59155273,45.3598633 C3.92831954,45.7682102 5.74975586,46.020752 5.74975586,46.020752 Z" id="Shape" fill="#8F1919"></path>
                <path d="M20.1762695,22.3234863 C21.4554397,28.5427988 22.2418102,35.1227739 27.9929732,37.2267334 L31.8664551,34.2529297 C31.8597362,34.2504717 29.353794,33.465282 29.3470835,33.4627885 C25.7017597,32.1082558 23.2990283,25.5211414 24.4277344,19.8925781 C24.4277344,19.8925781 22.0759277,20.7988281 20.1762695,22.3234863 Z" id="Shape" fill="#8F1919"></path>
                <path d="M52,10.7355959 C52,10.7355959 52.9130235,10.4029143 56,10.4053896 C56.999912,14.7211107 56,28 56,28 L52,28 L52,10.7355959 Z" id="Rectangle-1" fill="#8F1919"></path>
                <path d="M84.0075308,13.6923443 C85.9652804,13.3146906 86.5435903,13.2860693 88.3370181,13.1674823 C90.6953255,14.3010845 88.0075308,30.9567484 88.0075308,30.9567484 L84.0075308,30.9567484 C84.0075308,30.9567484 87.0793133,17.8752055 84.0075308,13.6923443 Z" id="Rectangle-1" fill="#8F1919" transform="translate(86.656795, 22.062115) rotate(20.000000) translate(-86.656795, -22.062115) "></path>
                <path d="M93.9960303,30.3471253 C87.016824,28.028931 79.6422867,26.749892 71.9274724,26.5171505 C52.5391285,25.9235214 34.1384896,30.5296971 18.8381924,39.7012859 L22.9513256,46.5629281 C36.9144625,38.192885 53.8003718,33.9658868 71.6844409,34.5134579 C78.6349773,34.723143 85.2412698,35.8689377 91.4742455,37.939266 L93.9960303,30.3471253 L93.9960303,30.3471253 Z" id="Shape" fill="#000000"></path>
                <circle id="Oval-63" fill="#329996" cx="52" cy="8" r="8"></circle>
            </g>
        </g>
    </g>
</svg>