<?xml version="1.0" encoding="utf-8"?>
<!-- Generator: Adobe Illustrator 18.1.1, SVG Export Plug-In . SVG Version: 6.00 Build 0)  -->
<svg version="1.1" id="Ebene_1" xmlns="http://www.w3.org/2000/svg" xmlns:xlink="http://www.w3.org/1999/xlink" x="0px" y="0px"
	 viewBox="0 0 283.5 283.5" enable-background="new 0 0 283.5 283.5" xml:space="preserve">
<g>
	<g>
		<path fill="#8D8D8E" d="M171,102.1c0,0,23.3-18.3,13-35.9c-10.3-17.6-36.9-20.4-55-13.2s21.3,36.5,21.3,36.5L171,102.1"/>
		<path d="M171.1,103.6l-21.6-13.1c-0.1-0.1-7-5.2-13.7-11.7c-9.2-8.9-13.5-15.9-12.8-20.9c0.4-2.8,2.2-4.9,5.5-6.1
			c6.2-2.4,13.2-3.7,20.4-3.7c16.2,0,29.7,6.5,36.2,17.5c4.5,7.6,3.6,16.6-2.7,25.9c-4.6,6.9-10.4,11.4-10.6,11.6L171.1,103.6z
			 M151,88.5l19.9,12.1c3.7-3.1,20.7-18.9,12-33.7c-6-10.2-18.7-16.2-34-16.2c-6.8,0-13.6,1.2-19.5,3.6c-2.4,0.9-3.6,2.3-3.9,4.1
			C124.4,66.6,143.5,82.8,151,88.5z"/>
	</g>
	<g>
		
			<ellipse transform="matrix(0.8884 0.4591 -0.4591 0.8884 43.7358 -73.2428)" fill="#8D8D8E" cx="172.5" cy="53.3" rx="10.5" ry="3.2"/>
		<path d="M179.8,60.2c-2.3,0-5.8-1.1-9.3-2.9c-3.9-2-10-6.2-8.4-9.3c0.3-0.7,1.2-1.5,3.1-1.5c2.3,0,5.8,1.1,9.3,2.9
			c3.9,2,10,6.2,8.4,9.3C182.6,59.4,181.7,60.2,179.8,60.2z M164.4,49.1c0.2,0.8,2.3,3.3,7.2,5.9c3.1,1.6,6.2,2.6,8.2,2.6
			c0.4,0,0.7-0.1,0.8-0.1c-0.2-0.8-2.3-3.3-7.2-5.9c-3.1-1.6-6.2-2.6-8.2-2.6C164.8,49,164.5,49.1,164.4,49.1z"/>
	</g>
	<g>
		
			<ellipse transform="matrix(0.8884 0.4591 -0.4591 0.8884 42.1793 -74.7951)" fill="#8D8D8E" cx="174.9" cy="49.3" rx="10.5" ry="3.2"/>
		<path d="M182.2,56.2c-2.3,0-5.8-1.1-9.3-2.9c-2.6-1.3-4.9-2.9-6.4-4.4c-2-1.9-2.6-3.6-1.9-4.9c0.3-0.7,1.2-1.5,3.1-1.5
			c2.3,0,5.8,1.1,9.3,2.9c3.9,2,10,6.2,8.4,9.3C185,55.4,184.2,56.2,182.2,56.2z M166.8,45.2c0.2,0.8,2.3,3.3,7.2,5.9
			c3.1,1.6,6.2,2.6,8.2,2.6c0.4,0,0.7-0.1,0.8-0.1c-0.2-0.8-2.3-3.3-7.2-5.9c-3.1-1.6-6.2-2.6-8.2-2.6
			C167.2,45.1,166.9,45.1,166.8,45.2z"/>
	</g>
	<g>
		<path fill="#8D8D8E" d="M165.6,44.5l-2.4,4c0,0,3.1,7,10.1,8.7s8.5,0.9,8.5,0.9l2.4-4C184.2,54.1,169.3,52.9,165.6,44.5z"/>
		<path d="M180.4,59.6C180.4,59.6,180.4,59.6,180.4,59.6c-1.7,0-4.2-0.4-7.4-1.1c-7.6-1.8-10.9-9.1-11-9.4c-0.2-0.4-0.1-0.8,0.1-1.2
			l2.4-4c0.2-0.4,0.7-0.6,1.2-0.6c0.5,0,0.9,0.3,1.1,0.8c3.3,7.5,17.4,8.8,17.5,8.8c0.4,0,0.8,0.3,1,0.7c0.2,0.4,0.2,0.9,0,1.2
			l-2.4,4c-0.1,0.2-0.3,0.4-0.5,0.5C182.1,59.4,181.5,59.6,180.4,59.6z M164.7,48.6c0.9,1.6,3.8,6.2,8.9,7.4c3.7,0.9,5.7,1,6.8,1h0
			c0.2,0,0.4,0,0.6,0l1.1-1.8c-3.9-0.6-12.5-2.6-16.5-8.1L164.7,48.6z"/>
	</g>
	<g>
		<path fill="#BF1622" d="M57.3,175c0,0,3.4-22.9,13.1-23c9.7-0.1,18.7,21.6,18.7,21.6l1.8,28.2c0,0-11,4.4-14.5,4.7
			C72.9,206.7,57.3,175,57.3,175z"/>
		<path d="M76.3,208.8c-1.8,0-3.5-1.6-6.4-5.9c-1.8-2.7-3.9-6.3-6.5-11c-4.3-7.8-8.2-15.7-8.2-15.8l-0.3-0.6l0.1-0.7
			c0.4-2.5,4-24.9,15.3-25l0.1,0c10.9,0,19.8,20.6,20.7,23l0.1,0.4l2,30.2l-1.5,0.6c-1.2,0.5-11.4,4.6-15.2,4.9L76.3,208.8z
			 M59.7,174.7c6.3,12.8,14.4,27.2,17,29.4c2.4-0.4,7.9-2.3,11.8-3.9l-1.7-26.1c-3.3-7.8-10.5-19.8-16.3-19.8
			C64.8,154.4,60.9,167.6,59.7,174.7z"/>
	</g>
	<g>
		<path fill="#8D8D8E" d="M176.1,169c0,32.2-25.3,58.3-56.4,58.3s-49.3-26.8-49.3-59s18.2-57.6,49.3-57.6S176.1,136.8,176.1,169z"/>
		<path d="M119.7,228.5c-15.2,0-28.1-6.2-37.3-17.9c-8.5-10.9-13.3-25.9-13.3-42.4c0-16.4,4.7-31.2,13.3-41.7
			c9.2-11.3,22.1-17.2,37.3-17.2c31.8,0,57.7,26.7,57.7,59.6C177.4,201.8,151.5,228.5,119.7,228.5z M119.7,111.9
			c-14.5,0-26.7,5.6-35.3,16.3c-8.2,10.1-12.7,24.3-12.7,40.1c0,15.9,4.5,30.4,12.7,40.8c8.7,11.1,20.9,16.9,35.3,16.9
			c30.4,0,55.1-25.6,55.1-57C174.8,137.5,150.1,111.9,119.7,111.9z"/>
	</g>
	<g>
		<path fill="#F18518" d="M89.1,91.5c0,0-12.6,10.6-17.4,13.3s6,5.1,6,5.1s3.7,1.8,9.9-2.8C86.8,103.2,89.1,91.5,89.1,91.5z"/>
		<path d="M79.7,112.5C79.7,112.5,79.7,112.5,79.7,112.5c-1.3,0-2.3-0.3-2.8-0.5c-5.5-1.2-8.4-3-8.8-5.3c-0.1-0.9,0-2.6,2.4-3.9
			c4.6-2.6,17-13,17.1-13.1l5-4.2l-1.2,6.4c-0.8,4.4-2,12.2-1.5,14.8l0.3,1.4l-1.2,0.9C84.9,111.9,81.7,112.5,79.7,112.5z
			 M78.6,107.8c0.1,0,0.5,0.1,1.1,0.1h0c1.1,0,2.9-0.4,5.4-1.9c-0.1-2.4,0.3-5.9,0.7-8.8c-3.8,3-8.9,7.1-12.1,9.1
			c1.1,0.5,2.8,1,4.4,1.4l0.4,0.1L78.6,107.8z"/>
	</g>
	<g>
		<path fill="#FDD205" d="M97.9,249.9c0,0-14.9-25.4-28.7-14.6C55.4,246,82.1,263,82.1,263s49.2,29.7,90.3-40.9l-22.1,6.9
			C150.4,229,121.4,264.4,97.9,249.9z"/>
		<path d="M107.4,271.5c-15.5,0-26.1-6.3-26.5-6.5l0,0c-1.8-1.1-17.4-11.4-17.9-22c-0.1-2.5,0.6-6.3,4.8-9.5
			c2.7-2.1,5.6-3.1,8.7-3.1c11.5,0,21.3,14.9,23.2,17.9c3.3,1.9,6.8,2.9,10.6,2.9c18.9,0,38.2-23.3,38.4-23.5l0.4-0.5l28.4-8.9
			l-3,5.1C161.6,245.2,139.5,271.5,107.4,271.5z M83.3,261c0.5,0.3,10.2,5.8,24.1,5.8c27.5,0,47.3-21.1,59.9-40.8l-15.6,4.9
			c-3.2,3.7-21.9,24.7-41.5,24.7c-4.8,0-9.4-1.3-13.5-3.8l-0.5-0.3l-0.3-0.5c-2.7-4.5-11.3-16.2-19.5-16.2c-2.1,0-4,0.7-5.8,2.2
			c-2.2,1.7-3.2,3.5-3.1,5.7C67.9,249.7,79,258.3,83.3,261z"/>
	</g>
	<g>
		<path fill="#FDD205" d="M167.7,145.7c-11.3-8.9-33.2-13.8-45.7-6.1c-21.6-0.5-6.2-15.9-6.2-15.9s15.2-12,37.7-3.9"/>
		<path d="M167.7,148c-0.5,0-1-0.2-1.4-0.5c-13.3-10.4-33.7-11.7-43.1-6c-0.4,0.2-0.8,0.3-1.3,0.3c-7.5-0.2-11.8-2-13.3-5.7
			c-2.4-5.9,4.7-13.3,5.5-14.1c0.1-0.1,0.1-0.1,0.2-0.2c0.7-0.5,16.5-12.7,39.9-4.3c1.2,0.4,1.8,1.7,1.4,2.9
			c-0.4,1.2-1.7,1.8-2.9,1.4c-20.2-7.2-34.1,2.5-35.4,3.5c-4.3,4.4-4.8,7.9-4.4,9c0.7,1.6,3.7,2.6,8.5,2.8
			c13.4-7.7,35.7-2.8,47.7,6.6c1,0.8,1.2,2.2,0.4,3.2C169.1,147.7,168.4,148,167.7,148z"/>
	</g>
	<g>
		<path fill="#FDD205" d="M136.7,114.2c0,0-18.4,7.8-28.1,0c0,0-16.7,19.9-21.7,5.4S95.2,85,95.2,85s53-26.9,89.3,21.3
			s-6.2,109.1-6.2,109.1s-20.9,14.9-38.4,14c-17.5-0.9-0.9-32.7-0.9-32.7"/>
		<path d="M141.5,231.8c-0.6,0-1.1,0-1.7,0c-5-0.3-7.5-2.8-8.6-4.8c-5.3-9.4,4.6-29,5.8-31.2c0.6-1.1,2-1.6,3.1-1
			c1.1,0.6,1.6,2,1,3.1c0,0.1-2.6,5.1-4.6,11c-2.4,7.3-2.9,12.9-1.3,15.8c0.6,1,1.7,2.3,4.9,2.5c15.3,0.8,33.9-11.5,36.6-13.4
			c1.6-2.3,10.8-16.6,16.2-35.6c3.4-12.1,4.7-23.6,3.7-34.4c-1.2-13.3-5.9-25.5-13.9-36.1c-14.6-19.3-33.5-28.7-56.4-27.8
			c-15.1,0.6-26.9,5.7-29.5,6.9c-2,3.2-11.9,20.1-7.7,32.1c1.2,3.3,2.7,3.6,3.2,3.7c4,0.7,11.1-5.6,14.6-9.8c0.8-1,2.2-1.1,3.2-0.3
			c8.5,6.9,25.5-0.3,25.7-0.3c1.2-0.5,2.5,0.1,3,1.2c0.5,1.2,0,2.5-1.2,3c-0.8,0.3-17.8,7.4-28.6,0.9c-3.2,3.5-11,11-17.6,9.8
			c-2.1-0.4-5-1.9-6.7-6.7c-5.4-15.4,8-35.8,8.5-36.7c0.2-0.3,0.5-0.6,0.9-0.8c0.6-0.3,13.9-7,32-7.7c16.8-0.7,40.8,3.9,60.2,29.6
			c8.6,11.3,13.5,24.3,14.8,38.6c1,11.3-0.3,23.5-3.9,36.1c-6.1,21.4-16.6,36.5-17.1,37.2c-0.1,0.2-0.3,0.4-0.5,0.6
			C178.8,217.9,159.1,231.8,141.5,231.8z"/>
	</g>
	<circle cx="97.9" cy="102.1" r="3.3"/>
	<circle cx="135" cy="100.5" r="3.3"/>
	<path d="M110.6,107.8c0,0-10.8-0.7-3-6.7C112.9,99.6,121.6,99.1,110.6,107.8z"/>
	<g>
		<path fill="#FDD205" d="M63.1,178.7c0,0-16.6-4.6-15.9,13.6C48,210.4,76,220.3,76,220.3s12.6-0.2,7.6-8.7
			C78.5,203.1,63.1,178.7,63.1,178.7z"/>
		<path d="M75.6,222.6l-0.4-0.1c-1.2-0.4-29.5-10.6-30.3-30.1c-0.2-5.6,1.1-9.8,3.8-12.7c2.4-2.5,5.9-3.8,10-3.8
			c2.7,0,4.9,0.6,4.9,0.6l0.9,0.2l0.5,0.8c0.2,0.2,15.5,24.5,20.5,32.9c2.2,3.6,1.6,6.2,0.8,7.7c-2.4,4.3-9.5,4.5-10.3,4.5
			L75.6,222.6z M58.8,180.5c-2.9,0-5.2,0.8-6.7,2.4c-1.8,1.9-2.7,5-2.5,9.3c0.2,4.6,2.7,11.7,13.6,19c5.8,3.9,11.7,6.2,13.2,6.8
			c2.1-0.1,5.2-0.8,6-2.1c0.5-0.8-0.1-2.1-0.7-3.1c-4.5-7.5-17.2-27.7-19.9-32C61,180.6,60,180.5,58.8,180.5z"/>
	</g>
	<g>
		<path fill="#8D8D8E" d="M165.7,94.9c0,0-24.1,15.3-67.7,15.7c-9-3.2-9-11.8-9-11.8s-10.3,19.6-4,25.4c6.3,5.8,19.1,16.2,19.1,16.2
			s33.8-8.3,66.3-36.6C170.4,101.3,165.7,94.9,165.7,94.9z M98.4,126.1h-4.3V114h4.3V126.1z M108,131.6h-4.3V114h4.3V131.6z
			 M117.2,126.1H113V114h4.3V126.1z"/>
		<path d="M103.7,142.1l-0.6-0.5c-0.1-0.1-12.9-10.5-19.2-16.2c-7-6.4,2.5-25.1,3.7-27.2l2.9-5.5v6.2c0,0.3,0.2,7.4,7.7,10.3
			c22.1-0.3,39-4.4,49.3-7.9c11.2-3.8,17.2-7.5,17.3-7.6l1.2-0.8l0.8,1.1c1.2,1.6,5,7,5,9.8v0.7l-0.5,0.5
			c-32.4,28.2-66.6,36.8-66.9,36.9L103.7,142.1z M88.4,103.5c-3.1,7.2-5.7,16.5-2.4,19.6c5.4,5,15.8,13.5,18.4,15.6
			c5-1.4,35.3-10.5,64.3-35.5c-0.4-1.4-1.9-4-3.5-6.2c-5.5,3.1-28.8,14.8-67.3,15.2l-0.3,0l-0.3-0.1
			C92.3,110.3,89.7,106.7,88.4,103.5z M109.6,133.1h-7.4v-20.6h7.4V133.1z M105.3,130h1.2v-14.5h-1.2V130z M118.8,127.7h-7.4v-15.2
			h7.4V127.7z M114.5,124.6h1.2v-9.1h-1.2V124.6z M99.9,127.7h-7.4v-15.2h7.4V127.7z M95.6,124.6h1.2v-9.1h-1.2V124.6z"/>
	</g>
	<g>
		<path fill="#8D8D8E" d="M170.1,144.7c0,0,14.6-8.4,14.2-13.5c-1.2-13.5-18.9-17-18.9-17l-9.9,1.3c0,0,14.8-17.6,19.5-16.7
			c4.7,1,14.8,8.8,18.8,18.3c4,9.5,8.6,32.5,7.4,44c-1.2,11-12,33.6-12,33.6s-9.8-10.9-33.6-8.7c-12.5,2.8-16.4,10.9-16.4,10.9
			l-19.5,2.4l4.8-35.9l7.4-27.2l23.8-4.9L170.1,144.7z"/>
		<path d="M116.8,201.9l5.2-39.1l7.8-28.6l26.3-5.4l14.3,13c6.9-4.2,11.7-8.8,11.6-10.4c-0.4-4.8-3.3-8.7-8.6-11.7
			c-3.5-2-7-2.9-8.1-3.2l-15.4,2l3.8-4.5c0.1-0.2,3.6-4.3,7.8-8.5c7.9-8,11.2-9,13.1-9c0.3,0,0.6,0,0.9,0.1
			c5.4,1.1,16.1,9.3,20.5,19.6c4.3,10.2,8.7,33.5,7.5,45.1c-1.2,11.3-11.8,33.4-12.2,34.4l-1.5,3.1l-2.3-2.6
			c-0.1-0.1-7.8-8.3-25.8-8.3c-1.9,0-3.8,0.1-5.8,0.3c-11.1,2.5-14.6,9.3-14.7,9.6l-0.6,1.1l-1.2,0.2L116.8,201.9z M126.5,163.8
			l-4.3,32.7l15.4-1.9c1.7-2.6,6.6-8.6,17.4-11l0.3,0c2.1-0.2,4.3-0.3,6.3-0.3c14.3,0,22.8,4.7,26.7,7.6c2.9-6.3,9.7-21.8,10.5-30.1
			c1.1-10.7-3.1-33.2-7.2-42.8c-3.8-8.9-13.3-16.1-17.1-16.9c-1.8,0-7.4,5-13.3,11.3l4.2-0.6l0.4,0.1c0.2,0,4.9,1,9.7,3.7
			c6.7,3.7,10.5,9.1,11.1,15.4c0.3,3-2.2,6.4-7.8,10.7c-3.7,2.8-7.3,4.9-7.5,5l-1.5,0.8l-15.1-13.7l-21.3,4.3L126.5,163.8z"/>
	</g>
	<g>
		<path fill="#B27F4A" d="M137.5,135.9c0,0,13,91.8-37.6,91.4c-50.7-7.4-29.5-98.2-29.5-98.2L137.5,135.9z"/>
		<path d="M100.3,229.6l-0.4,0c-0.1,0-0.2,0-0.3,0c-10.8-1.6-19.3-6.8-25.3-15.6C66.2,202,62.7,184,63.9,160.4
			c0.9-17.4,4.1-31.2,4.2-31.8c0.3-1.1,1.3-1.9,2.5-1.8l67.1,6.8c1.1,0.1,1.9,0.9,2,2c0.1,0.6,2,14.5,1.4,31.7
			c-0.9,23.3-5.9,40.4-14.9,50.8C119.6,225.7,110.9,229.6,100.3,229.6z M100.1,225l0.2,0c9.2,0,16.8-3.3,22.5-9.9
			c18-20.7,13.8-67.4,12.7-77.1l-63.2-6.4c-2,10.1-10.2,56.1,5.9,79.7C83.4,219,90.7,223.6,100.1,225z"/>
	</g>
	<g>
		<path fill="#E30613" d="M125.5,146.5c0,0,9.7,68.7-28.1,68.4c-37.9-5.5-22.1-73.4-22.1-73.4L125.5,146.5z"/>
		<path d="M97.7,217.2l-0.3,0c-0.1,0-0.2,0-0.3,0c-8.2-1.2-14.7-5.2-19.3-11.9c-14.5-21.3-5.1-62.5-4.7-64.3
			c0.3-1.1,1.3-1.9,2.5-1.8l50.2,5.1c1.1,0.1,1.9,0.9,2,2c0.2,1.8,5.9,43.5-10.3,62.2C112.5,214.2,105.8,217.2,97.7,217.2z
			 M97.6,212.6L97.6,212.6c6.9,0,12.2-2.4,16.5-7.2c13.1-15,10.3-48.6,9.4-56.7L77.2,144c-1.7,8.4-7.2,41.6,4.4,58.7
			C85.5,208.3,90.7,211.5,97.6,212.6z"/>
	</g>
	<g>
		<g id="_x36_1Gp1q.tif_3_">
			<g>
				<path fill="#FFFFFF" d="M100.4,150.9c-13-1-23,9.4-23.9,21.9c-0.8,12,5.7,25.4,19.1,26.4c13.1,0.9,23-9.7,23.8-22.3
					C120.1,165,113.5,151.9,100.4,150.9z M78.6,181.6c-1.3-6.5-0.4-13.3,1.7-17.3c1.7,10.1,3.7,20.6,7.1,30.3
					C84.3,193.5,79.7,186.9,78.6,181.6z M90.4,196.2c2.1-5,4.8-11.8,7.7-18.8c0,0,0.1,0,0.1,0c1.7,7.3,3.3,14.2,4.5,19.4
					C98.5,197.8,94.5,197.8,90.4,196.2z M101.9,163.9c0.8,0,1.6,0,2.3,0c0.6,0,1-0.4,1-0.9c0-0.6-0.3-0.9-1-1
					c-1.7-0.1-3.4-0.1-5.1-0.2c-1.7-0.1-3.4-0.4-5.1-0.6c-0.4,0-0.7-0.1-1.1-0.1c-0.5,0-0.9,0.3-1,0.8c-0.1,0.5,0.2,0.9,0.7,1
					c0.6,0.1,1.3,0.2,1.9,0.3c0.2,0,0.4,0.2,0.4,0.4c0.7,3.1,1.5,6.6,2.3,10c0,0.2,0,0.4,0,0.6c-2,5.2-4.1,10.4-5.8,14.9
					c0,0,0,0-0.1,0.1c-2.1-8.2-4.1-18.2-5.3-26.3c0.7-0.1,1.4-0.1,2.2-0.2c0.6,0,1-0.4,1-1c0-0.6-0.3-0.9-0.9-0.9
					c-1.6,0.1-3.3,0.1-4.8,0.2c-0.5,0-0.9,0-1.5,0c3.7-5.2,8.5-7.8,14.1-8.3c6.5-0.6,12.3,1.1,16.9,6.6c-1.7-0.2-2.7,0.4-3.3,2
					c-0.4,1-0.3,2.1,0,3.2c0.4,1.1,0.8,2.2,1.3,3.3c0.9,2.3,1.5,4.7,1.2,7.3c-0.2,1.8-0.7,3.6-1.3,5.3c-1.1,3.1-2.3,6.2-3.5,9.2
					c-0.1,0.1-0.1,0.3-0.3,0.6C105.9,182.3,103.9,172.4,101.9,163.9z M106.4,195.4c0.5-1,1.1-2,1.6-3.1c2.4-5,4.7-10.7,6.6-16.1
					c0.7-2,1.4-3.9,1.7-6c0.2-1.4,0.3-2.9,0.4-4.2c1.8,5.3,1.7,10.6,0.3,16.1C115.4,188.3,111.6,192.8,106.4,195.4z"/>
			</g>
		</g>
	</g>
	<g>
		<path fill="#FDD205" d="M115.6,227.3c0,0,2.4-10.1-1.1-23.5s-0.9-20.2,3.2-21.6c4.1-1.4,14.5,1.4,21.6,16.8s-9,36.1-9.7,35.6
			C129,234.2,120.2,238.8,115.6,227.3z"/>
		<path d="M125.3,237.5c-3.7,0-8.7-1.6-11.8-9.3l-0.3-0.7l0.2-0.7c0-0.1,2.2-9.8-1.1-22.4c-1.7-6.6-2.1-12.1-1.3-16.3
			c1.1-5.7,4.2-7.5,6-8.1c0.9-0.3,1.8-0.4,2.9-0.4c6.3,0,15.3,4.8,21.5,18.4c2.4,5.2,2.7,11.3,0.8,18.2c-1.7,6.4-4.9,11.9-6.6,14.6
			c-3.9,6.2-5.2,6.2-6,6.2h-0.3c-0.1,0-0.2,0-0.3,0.1C128.2,237.2,126.9,237.5,125.3,237.5z M118,227.1c2.6,5.8,6.1,5.8,7.3,5.8
			c0,0,0,0,0,0c1.1,0,2.1-0.2,2.8-0.4c0.3-0.1,0.5-0.1,0.7-0.1c2.5-2.8,14.3-19.8,8.4-32.4c-7.1-15.3-16.3-15.8-17.4-15.8
			c-0.7,0-1.2,0.1-1.4,0.2c-2.9,1-4.7,7.3-1.7,18.9C119.8,215.1,118.5,224.4,118,227.1z"/>
	</g>
	<g>
		<path fill="#E30613" d="M170.4,44.5l4.9-5.8c0,0-7.9-1.2-7.6-9.3c0.2-8.2,1.4-12.3,4.7-15.1s4.8-11,14.2-6.4
			c9.4,4.6,3.8,6.4,12.6,11c8.8,4.6,12,0.3,15.7,6.6c3.7,6.3,6.9,10.4,6.4,15.5s7.8,6.6,2.3,13.9s0,1.8-4.4,11.4s-1.5,10.7-1.6,14.8
			c0,4.1,5,12.7-2.3,12.9c-7.4,0.1-7.5,8.8-9.9,0c-2.5-8.8-9.8-8.7-14.3-12.9c-4.5-4.1-15.8-4.2-13.3-8.8c2.6-4.6,3.9-3.2,6.7-8.7
			c2.8-5.5-7.8-1.1-6.7-4.7c1.1-3.6,2.5-6.3,3-9.5c0.4-3.2-5.9,0-5.9,0L170.4,44.5z"/>
		<path d="M207.4,99.4c-2,0-2.7-2.2-3.5-5c-1.5-5.2-4.8-6.9-8.4-8.7c-1.9-1-3.8-1.9-5.5-3.5c-1.6-1.5-4.5-2.4-7-3.3
			c-3.3-1.1-6.1-2.1-6.9-4.2c-0.3-0.7-0.4-1.8,0.3-3.2c1.3-2.4,2.4-3.4,3.4-4.2c1-0.9,1.9-1.8,3.3-4.5c0.2-0.3,0.2-0.6,0.3-0.7
			c-0.5-0.2-1.7-0.2-2.3-0.2c-1.8,0-3.5,0-4.4-1.3c-0.3-0.5-0.6-1.2-0.3-2.4c0.4-1.2,0.8-2.4,1.2-3.5c0.7-2,1.4-3.6,1.7-5.5
			c-1.1,0.1-2.9,0.9-3.7,1.3c-0.6,0.3-1.3,0.2-1.8-0.3l-4.5-4.8c-0.5-0.6-0.6-1.5-0.1-2l3.4-4c-3.1-1.3-6.6-4.3-6.4-10.2
			c0.3-8.8,1.7-13.2,5.3-16.2c0.7-0.6,1.3-1.5,2-2.5c1.7-2.5,3.9-5.6,8.2-5.6c1.7,0,3.5,0.5,5.6,1.5c5.2,2.6,6.3,4.5,7.3,6.3
			c0.8,1.5,1.5,2.8,5.4,4.8c3.6,1.9,6.1,2.2,8.3,2.4c3,0.3,5.5,0.6,8,4.8c0.6,1,1.2,2,1.8,3c3,4.9,5.3,8.7,4.9,13.4
			c-0.1,1.3,0.6,2.2,1.8,3.7c1.8,2.3,4.3,5.5,0.2,10.9c-1.9,2.5-2.3,3.3-2.4,3.5c0,0,0,0.1,0,0.1c0.2,1.2,0.3,2.7-1.9,7.5
			c-2.9,6.5-2.4,8.6-1.9,10.8c0.2,1,0.5,2,0.5,3.3c0,0.9,0.4,2.4,0.7,3.8c0.8,3,1.7,6.5,0,8.7c-0.9,1.2-2.4,1.9-4.5,1.9
			c-2.6,0-4.1,1.4-5.3,2.5C209.3,98.7,208.5,99.4,207.4,99.4C207.4,99.4,207.4,99.4,207.4,99.4z M179.5,58.9
			c0.5,0.1,1.2,0.1,1.6,0.1c1.9,0,4,0,5,1.6c0.9,1.5,0.1,3.2-0.2,3.7c-1.6,3.2-2.9,4.4-4,5.4c-0.9,0.8-1.7,1.5-2.8,3.4
			c-0.1,0.1-0.2,0.4-0.2,0.6c0.3,0.8,3.1,1.7,5.1,2.4c2.8,1,6,2,8.1,3.9c1.3,1.2,3,2.1,4.8,3c3.8,1.9,8.1,4.1,9.9,10.6
			c0.4,1.3,0.6,2,0.8,2.5c0.1-0.1,0.2-0.2,0.3-0.3c1.3-1.2,3.5-3.2,7.3-3.3c1.1,0,1.8-0.2,2.1-0.7c0.8-1.1,0.1-3.9-0.5-6.1
			c-0.4-1.7-0.8-3.2-0.8-4.6c0-1-0.2-1.7-0.4-2.6c-0.6-2.5-1.3-5.4,2.1-12.8c1.9-4.3,1.7-5.2,1.7-5.6c-0.3-1.5,0.1-2.5,2.9-6.1
			c2.7-3.5,1.5-5-0.2-7.2c-1.2-1.6-2.6-3.3-2.4-5.9c0.3-3.7-1.7-7-4.4-11.6c-0.6-0.9-1.2-1.9-1.8-3c-1.7-2.8-2.9-3-5.6-3.3
			c-2.2-0.2-5.3-0.6-9.4-2.7c-4.7-2.5-5.7-4.4-6.6-6c-0.8-1.5-1.6-2.9-5.9-5c-1.6-0.8-3.1-1.2-4.3-1.2c-2.7,0-4.1,2.1-5.6,4.3
			c-0.8,1.2-1.6,2.3-2.6,3.2c-2.9,2.4-4,6-4.2,13.9c-0.2,6.7,6,7.7,6.3,7.8c0.6,0.1,1,0.5,1.2,1c0.2,0.5,0.1,1.1-0.3,1.5l-4.1,4.8
			l2.8,3c1.1-0.5,2.9-1.1,4.2-1.1c1.2,0,1.9,0.5,2.3,0.9c0.4,0.4,0.7,1.1,0.6,2.3c-0.3,2.3-1.1,4.3-1.9,6.5
			C180.1,56.9,179.8,57.9,179.5,58.9z"/>
	</g>
	<g>
		<path fill="#F18518" d="M165.7,94.9c0,0-9.8-8.9,7.9-7.9c17.7,1,40.8-0.1,40.8-0.1s7.9,0.6,3.6,8
			C213.6,102.3,195.4,126.3,165.7,94.9z"/>
		<path d="M194.1,113c-9.6,0-19.7-5.5-30.1-16.4c-0.9-0.8-4.5-4.4-3.1-7.9c1.4-3.6,6.4-4,10-4c0.8,0,1.8,0,2.7,0.1
			c5,0.3,10.8,0.4,17.4,0.4c12.3,0,23-0.5,23.1-0.5l0.1,0l0.1,0c0.5,0,4.7,0.4,6.4,3.7c1.1,2.1,0.8,4.8-0.9,7.8
			c-1.3,2.2-4.1,6.5-8.6,10.2C206.1,110.7,200.3,113,194.1,113z M171,89.3c-4.9,0-5.8,1-5.8,1c-0.1,0.5,0.9,2,2,2.9l0.1,0.1
			c9.4,10,18.5,15,26.8,15c3.1,0,13.9-1.1,21.8-14.6c0.9-1.5,1.2-2.7,0.9-3.3c-0.4-0.8-1.9-1.1-2.5-1.2c-1.4,0.1-11.6,0.5-23.1,0.5
			c-6.7,0-12.6-0.1-17.7-0.4C172.6,89.3,171.7,89.3,171,89.3z"/>
	</g>
	<g>
		<path fill="#8D8D8E" stroke="#000000" stroke-width="5" stroke-miterlimit="10" d="M170.1,144.7"/>
	</g>
	<g>
		<path fill="#FDD205" d="M169.5,142.6c-9.5-9.9-28.5-7.7-41,0c-21.6-0.5-12.9-11.1-12.9-11.1s18.4-24.2,40.9-16.2"/>
		<path d="M129.1,144.9l-0.7,0c-9.2-0.2-14.5-2.2-16.3-6.1c-1.6-3.4,0.3-7.1,1.6-8.7c0.4-0.6,5.1-6.5,12.5-11.6
			c10.3-7,21.1-8.9,31-5.3c1.2,0.4,1.8,1.7,1.4,2.9c-0.4,1.2-1.7,1.8-2.9,1.4c-20.7-7.4-38.2,15.2-38.3,15.4l-0.1,0.1
			c-0.5,0.6-1.7,2.6-1,3.9c1.3,2.7,8.5,3.3,11.5,3.4c13.5-8,33.1-9.9,43.3,0.7c0.9,0.9,0.8,2.4-0.1,3.3c-0.9,0.9-2.4,0.8-3.3-0.1
			c-8.6-9-26.5-6.8-38.2,0.4L129.1,144.9z"/>
	</g>
	<g>
		<path fill="#585857" d="M155,146c0,0,12.4,2.1,28.6-3.6l0.9,7.3c0,0-19.7,7.1-28.6,3.6L155,146z"/>
		<path d="M162.3,155c-2.6,0-4.8-0.3-6.6-1l-0.4-0.2l-1.1-8.7l1,0.2c0,0,2.2,0.4,5.9,0.4c5.1,0,13.1-0.7,22.3-3.9l0.9-0.3l1.1,8.8
			l-0.6,0.2C184.3,150.6,171.9,155,162.3,155z M156.7,152.7c1.5,0.5,3.4,0.8,5.6,0.8c8.2,0,18.9-3.4,21.5-4.3l-0.7-5.7
			c-9.1,3-16.9,3.7-21.9,3.7c-2.3,0-4.1-0.1-5.1-0.2L156.7,152.7z"/>
	</g>
	<g>
		<path fill="#585857" d="M158.1,157.2c0,0,11.8,2.1,27-3.4l0.9,7.3c0,0-18.6,6.9-27,3.4L158.1,157.2z"/>
		<path d="M165.1,166.3c-2.6,0-4.8-0.4-6.5-1.1l-0.4-0.2l-1.1-8.7l1,0.2c0,0,2.2,0.4,5.9,0.4c4.7,0,12.2-0.7,20.7-3.8l0.9-0.3
			l1.1,8.8l-0.6,0.2C185.8,162,174.2,166.3,165.1,166.3z M159.7,163.9c1.4,0.5,3.3,0.8,5.5,0.8c7.7,0,17.6-3.3,20-4.1l-0.7-5.7
			c-8.4,2.9-15.6,3.5-20.3,3.5c-2.4,0-4.1-0.2-5.2-0.3L159.7,163.9z"/>
	</g>
	<g>
		<path fill="#BF1622" d="M142.9,192c0,0,19.3-6.3,8,35.2c0,0,13.3,13.5,29.1,8c15.7-5.6,25.1-33.6,20.4-43.5s-22.5-33.3-40.5-22.8
			S142.9,192,142.9,192z"/>
		<path d="M172.1,238.9c-12.9,0-22.5-9.6-22.9-10l-0.9-0.9l0.3-1.3c2.4-8.8,5.8-24.5,1.2-30.5c-1.1-1.4-2.6-2.1-4.5-2.1
			c-1,0-1.8,0.2-1.8,0.2l-2.7,0.8l-0.2-2.9c0-0.6-0.9-14.1,18.1-25.3c3.4-2,7-3,10.6-3c15.5,0,29,18,33.1,26.7
			c2.6,5.5,1.6,15.4-2.5,25.3c-4.5,10.9-11.5,18.7-19.2,21.4C177.9,238.4,175,238.9,172.1,238.9z M153.5,226.5
			c2.5,2.2,9.8,7.8,18.7,7.8c2.4,0,4.8-0.4,7-1.2c6.4-2.3,12.5-9.3,16.5-18.8c3.5-8.5,4.6-17.3,2.6-21.5
			c-3.6-7.6-15.8-24.1-28.9-24.1c-2.8,0-5.6,0.8-8.3,2.4c-11.9,7-14.9,14.6-15.6,18.5c2.3,0,5.6,0.7,8.1,4
			C157.8,199,157.8,210.1,153.5,226.5z"/>
	</g>
	<path fill="#761519" d="M153.2,189.6c0,0-0.8-14.7,10-15.6c10.7-0.9,14.6,0,14.6,0S158.3,176.3,153.2,189.6z"/>
	<path fill="#761519" d="M155.4,195.6c0,0,11.6-13.5,18.3-13.7c6.7-0.1,10.5,0,10.5,0S169.7,184.2,155.4,195.6z"/>
	<path fill="#761519" d="M160.4,201.4c0,0,12.5-7.9,26.3-8.8C186.6,192.6,181.4,203.8,160.4,201.4z"/>
	<path fill="#761519" d="M160.4,209.4c0,0,17.7,6.4,33.3-5.1C193.7,204.3,183.7,232.8,160.4,209.4z"/>
	<path fill="#761519" d="M158.3,211.5c0,0,12.7,29.7,32.8,7.1C191.1,218.6,166.2,253.1,158.3,211.5z"/>
	<g>
		<path fill="#8D8D8E" d="M86.2,102.1c0,0,18.4-35.5,62.7-10.9c19.3,14.3,24,18.5,24,18.5l4.9-7.6c0,0-10.6-46.8-43.7-49.6
			C134.1,52.5,98.7,56,86.2,102.1z"/>
		<path d="M81.8,113.3l3.1-11.5c6.6-24.2,19.5-36.7,29.2-42.8c10.6-6.7,19.5-7.6,19.8-7.7l0.1,0l0.1,0c14,1.2,26.2,10.3,35.3,26.5
			c6.8,12.1,9.4,23.6,9.6,24.1l0.1,0.5l-6.1,9.3l-1.1-1c0,0-5-4.4-23.9-18.4c-10.1-5.6-19.7-8.5-28.5-8.5
			c-22.3,0-32.3,18.7-32.4,18.9L81.8,113.3z M119.7,81.2c9.2,0,19.2,3,29.8,8.8l0.1,0.1c14.4,10.6,20.7,15.7,23,17.6l3.9-5.9
			c-0.6-2.4-3.4-12.6-9.2-22.9c-8.7-15.5-19.9-24-33.1-25.1c-1,0.1-9.3,1.3-18.7,7.3c-8.2,5.3-18.9,15.3-25.7,33.8
			C95,89.1,104.7,81.2,119.7,81.2z"/>
	</g>
	<g>
		<ellipse fill="#8D8D8E" cx="167.7" cy="94.4" rx="4.7" ry="4.4"/>
		<path d="M167.7,100c-3.3,0-6-2.5-6-5.7c0-3.1,2.7-5.7,6-5.7c3.3,0,6,2.5,6,5.7C173.7,97.5,171,100,167.7,100z M167.7,91.3
			c-1.9,0-3.5,1.4-3.5,3.1c0,1.7,1.6,3.1,3.5,3.1c1.9,0,3.5-1.4,3.5-3.1C171.2,92.7,169.6,91.3,167.7,91.3z"/>
	</g>
	<g>
		<ellipse fill="#8D8D8E" cx="180" cy="147.7" rx="2.2" ry="2"/>
		<path d="M180,150c-1.4,0-2.5-1-2.5-2.3s1.1-2.3,2.5-2.3c1.4,0,2.5,1,2.5,2.3S181.4,150,180,150z M180,145.9
			c-1.1,0-1.9,0.8-1.9,1.8s0.9,1.8,1.9,1.8c1.1,0,1.9-0.8,1.9-1.8S181.1,145.9,180,145.9z"/>
	</g>
	<g>
		<ellipse fill="#8D8D8E" cx="160.2" cy="150" rx="2.2" ry="2"/>
		<path d="M160.2,152.3c-1.4,0-2.5-1-2.5-2.3s1.1-2.3,2.5-2.3c1.4,0,2.5,1,2.5,2.3S161.6,152.3,160.2,152.3z M160.2,148.2
			c-1.1,0-1.9,0.8-1.9,1.8s0.9,1.8,1.9,1.8s1.9-0.8,1.9-1.8S161.3,148.2,160.2,148.2z"/>
	</g>
	<g>
		<ellipse fill="#8D8D8E" cx="162.5" cy="161" rx="2.2" ry="2"/>
		<path d="M162.5,163.3c-1.4,0-2.5-1-2.5-2.3s1.1-2.3,2.5-2.3c1.4,0,2.5,1,2.5,2.3S163.9,163.3,162.5,163.3z M162.5,159.2
			c-1.1,0-1.9,0.8-1.9,1.8s0.9,1.8,1.9,1.8c1.1,0,1.9-0.8,1.9-1.8S163.6,159.2,162.5,159.2z"/>
	</g>
	<g>
		<ellipse fill="#8D8D8E" cx="181.8" cy="158.7" rx="2.2" ry="2"/>
		<path d="M181.8,161c-1.4,0-2.5-1-2.5-2.3c0-1.3,1.1-2.3,2.5-2.3c1.4,0,2.5,1,2.5,2.3C184.3,160,183.2,161,181.8,161z M181.8,156.9
			c-1.1,0-1.9,0.8-1.9,1.8c0,1,0.9,1.8,1.9,1.8s1.9-0.8,1.9-1.8C183.8,157.7,182.9,156.9,181.8,156.9z"/>
	</g>
</g>
<polygon points="98.2,125.1 93.9,125.1 94.1,114 98.2,115.4 "/>
<polygon points="116.9,125.2 112.6,125.2 112.8,114.1 116.8,115.5 "/>
<polygon points="108,130.9 103.7,130.9 103.8,114 107.9,116.1 "/>
<path d="M106.5,76.3l5.8-1.1c0,0,1.5-8.6,7.5-12.3C119.9,62.9,108.4,66.6,106.5,76.3z"/>
<path d="M137.7,78.7l-5.2-2.9c0,0,2.6-7.3-0.5-13.2C132,62.6,139,68.9,137.7,78.7z"/>
<path d="M118.5,74.3l6.4,0.3c0,0,1.8-8,2.1-12.6C127.1,62,118.5,67.5,118.5,74.3z"/>
</svg>
