<?xml version="1.0" encoding="utf-8"?>
<!-- Generator: Adobe Illustrator 18.1.1, SVG Export Plug-In . SVG Version: 6.00 Build 0)  -->
<svg version="1.1" id="Ebene_1" xmlns="http://www.w3.org/2000/svg" xmlns:xlink="http://www.w3.org/1999/xlink" x="0px" y="0px"
	 viewBox="0 0 283.5 283.5" enable-background="new 0 0 283.5 283.5" xml:space="preserve">
<g>
	<polygon fill="#FFFFFF" points="161.1,27.6 138.8,13.1 103,31.5 68.5,95.7 75.7,165.4 96.9,185.5 	"/>
	<path d="M97.6,188.7l-23.7-22.4l-7.4-71l35.1-65.2l37.2-19.2l24.5,15.9L97.6,188.7z M77.5,164.5l18.7,17.7l62.6-154l-20.1-13.1
		l-34.2,17.7L70.4,96L77.5,164.5z"/>
</g>
<g>
	<path fill="#A3195C" d="M204.6,35.8c0,0-11.5-9.9-24.9-6.7c-13.4,3.1-53.9,2.2-67,18s91.9-5.6,91.9-5.6S207.6,37.9,204.6,35.8z"/>
	<path d="M123.4,54.3C123.4,54.3,123.4,54.3,123.4,54.3c-7.9,0-12-1.1-13.1-3.5c-0.7-1.4-0.3-3,1.2-4.8c10-12.1,34.9-14.7,53-16.5
		c6.1-0.6,11.4-1.2,14.8-2c1.9-0.4,3.8-0.7,5.7-0.7c11.1,0,19.7,7,20.5,7.7c1.1,0.8,1.8,1.9,1.9,3.1c0.3,2.4-1.5,4.5-1.7,4.7
		l-0.3,0.4l-0.5,0.1C204.3,43,148.4,54.3,123.4,54.3z M185,30c-1.7,0-3.4,0.2-5,0.6c-3.6,0.8-9,1.4-15.2,2
		c-17.6,1.8-41.7,4.3-50.9,15.4c-0.7,0.8-0.8,1.3-0.7,1.5c0,0.1,0.9,1.7,10.3,1.7c0,0,0,0,0,0c23.3,0,74.2-10.1,80.2-11.3
		c0.3-0.5,0.7-1.3,0.7-1.9c0-0.2-0.1-0.6-0.7-1l-0.1-0.1C203.5,36.9,195.2,30,185,30z"/>
</g>
<g>
	<polyline fill="#A3195C" points="195,50 184.1,48.4 168.4,51.5 186.2,57.4 195,50 	"/>
	<path d="M186.8,60.5l-29.3-9.6l26.6-5.4l17.4,2.7L186.8,60.5z M179.3,52.2l6.3,2.1l2.9-2.4l-4.3-0.7L179.3,52.2z"/>
</g>
<g>
	<path fill="#FDD205" d="M220,150.6c0,39.1-31.7,70.7-70.7,70.7S85.7,205,85.7,166c0-4.9-3.5,9.2,0,0c1.9-4.9,21.7-19.7,17.1-28
		c-14.2-25.6,17.5-58.1,46.4-58.1C188.3,79.8,220,111.5,220,150.6z"/>
	<path d="M149.3,224.1c-20.8,0-37-4.6-48.2-13.6c-10.8-8.8-16.9-21.8-18-38.7c-1-0.4-1.7-1.4-1.7-2.7c0-1,0.4-2.5,0.6-3.2
		c0.4-1.2,1-3.2,2.8-3.6c1.1-1.4,2.7-3.1,4.8-5.4c4.8-5.1,12.9-13.6,10.7-17.5c-5.7-10.3-5.1-22.4,1.8-34.1
		c9.6-16.3,29.4-28.2,47.1-28.2c40.5,0,73.5,33,73.5,73.5S189.8,224.1,149.3,224.1z M88.5,166.6c0.1,17.6,5.5,30.9,16.1,39.5
		c10.1,8.2,25.1,12.4,44.6,12.4c37.5,0,67.9-30.5,67.9-67.9s-30.5-67.9-67.9-67.9c-15.8,0-33.6,10.7-42.3,25.4
		c-5.8,9.9-6.5,20.1-1.7,28.6c4.2,7.5-4.5,16.7-11.5,24C91.7,162.8,89.3,165.3,88.5,166.6z"/>
</g>
<g>
	<path fill="#FDD205" d="M123.5,252.1c0,0-18.1-30.8-34.9-17.8c-16.7,13,15.7,33.7,15.7,33.7s59.7,36,109.6-49.7l-26.8,8.4
		C187.1,226.7,151.9,269.6,123.5,252.1z"/>
	<path d="M135,278.3c-18.8,0-31.6-7.6-32.2-7.9l-0.1,0c-2.2-1.4-21.2-13.8-21.8-26.7c-0.1-3.1,0.8-7.6,5.9-11.6
		c3.2-2.5,6.8-3.8,10.5-3.8c13.9,0,25.8,18.1,28.1,21.7c3.9,2.3,8.3,3.5,12.9,3.5c22.9,0,46.3-28.3,46.6-28.5l0.5-0.6l34.5-10.8
		l-3.6,6.2C200.7,246.4,173.9,278.3,135,278.3z M105.7,265.6c0.6,0.3,12.4,7.1,29.2,7.1c33.4,0,57.4-25.6,72.6-49.5l-18.9,5.9
		c-3.9,4.5-26.6,29.9-50.3,29.9c-5.9,0-11.4-1.6-16.4-4.6l-0.6-0.4l-0.4-0.6c-3.2-5.5-13.8-19.6-23.7-19.6c-2.5,0-4.8,0.9-7.1,2.6
		c-2.6,2-3.8,4.3-3.7,6.9C87,251.8,100.5,262.2,105.7,265.6z"/>
</g>
<g>
	<path fill="#FDD205" d="M106.3,94c-6.1-17.6,22.3-38.5,22.3-38.5s55.8-36,99.9,22.5c18.7,24.8-3.1,50.4-7.6,74
		c-6.1,31.9,0,58.4,0,58.4s-25.4,18.1-46.6,17c-21.2-1.1-1.1-39.6-1.1-39.6s22.6-29.6,44.9-9.8l-3.1-5.3c0,0,6.7-20.4,1.1-36.7"/>
	<path d="M176.3,230.2c-0.7,0-1.4,0-2.1-0.1c-6.1-0.3-9-3.3-10.5-5.8c-6.5-11.3,5.6-35.2,7-37.9c0.1-0.1,0.2-0.3,0.3-0.4
		c0.5-0.7,12.4-16.1,28.2-17.6c4.7-0.5,9.2,0.4,13.5,2.4c1.1-4,5.4-20.7,0.9-34c-0.5-1.5,0.3-3,1.7-3.5c1.5-0.5,3,0.3,3.5,1.7
		c0.8,2.4,1.4,4.8,1.8,7.2c1.4-4.1,3-8.3,4.6-12.3c6.9-17.5,13.4-34,1.1-50.3c-17.7-23.4-39.2-34.2-64-32
		c-17.9,1.6-31,9.6-32.1,10.2c-7.5,5.5-25.7,22.5-21.3,35.3c0.5,1.5-0.3,3-1.7,3.6c-1.5,0.5-3-0.3-3.6-1.7
		c-2.9-8.3,0.3-17.9,9.4-28.6c6.5-7.6,13.6-12.9,13.9-13.1c0,0,0.1-0.1,0.1-0.1c0.6-0.4,14.8-9.4,34.7-11.1
		c18.5-1.6,45.4,3,68.9,34.2c14.2,18.9,6.5,38.4-0.3,55.7c-2.8,7.1-5.5,13.9-6.7,20.5c-5.9,31,0,57,0,57.2c0.3,1.1-0.2,2.2-1.1,2.9
		C221.6,213.3,197.7,230.2,176.3,230.2z M175.6,189.2c-0.6,1.2-3.3,6.7-5.5,13.2c-3,8.9-3.5,15.7-1.5,19.1c0.7,1.2,2,2.8,5.9,3
		c17.2,0.9,37.7-11.8,43.3-15.5c-0.8-4.3-2.6-15.2-2.4-29.8c-4.9-4-10.2-5.8-15.7-5.3C187.2,175.2,176.9,187.6,175.6,189.2z"/>
</g>
<circle cx="122.5" cy="73.6" r="4"/>
<circle cx="168.4" cy="70.9" r="4"/>
<path d="M137.7,82c0,0-13.1-0.8-3.6-8.1C140.5,72,151.1,71.4,137.7,82z"/>
<g>
	<path fill="#936037" d="M78,167.8c0,0-20.1-5.6-19.3,16.5c0.8,22,34.9,34,34.9,34s15.3-0.3,9.2-10.6C96.7,197.4,78,167.8,78,167.8z
		"/>
	<path d="M93.1,221.1l-0.5-0.2c-1.5-0.5-35.8-12.9-36.7-36.6c-0.3-6.8,1.3-11.9,4.6-15.4c2.9-3,7.1-4.6,12.2-4.6
		c3.3,0,5.9,0.7,6,0.7l1,0.3l0.6,0.9c0.2,0.3,18.8,29.7,24.9,40c2.6,4.4,2,7.5,0.9,9.3c-2.9,5.2-11.5,5.5-12.5,5.5L93.1,221.1z
		 M72.7,170c-3.5,0-6.3,1-8.1,2.9c-2.2,2.3-3.3,6.1-3.1,11.3c0.2,5.6,3.3,14.2,16.5,23.1c7.1,4.7,14.1,7.6,16,8.3
		c2.6-0.1,6.3-1,7.2-2.6c0.5-1-0.2-2.6-0.9-3.8c-5.4-9.1-20.9-33.6-24.2-38.8C75.4,170.1,74.2,170,72.7,170z"/>
</g>
<g>
	<path fill="#F18518" d="M202.3,58c0,0-11.9-10.8,9.6-9.6c21.5,1.2,49.4-0.1,49.4-0.1s9.6,0.7,4.4,9.7S238.3,96,202.3,58z"/>
	<path d="M236.8,79.9c-11.7,0-23.9-6.7-36.5-19.9c-1.1-1-5.4-5.4-3.8-9.6c1.7-4.3,7.8-4.8,12.2-4.8c1,0,2.1,0,3.3,0.1
		c6,0.3,13.1,0.5,21.1,0.5c14.9,0,27.9-0.6,28-0.6l0.2,0l0.2,0c0.6,0,5.7,0.5,7.7,4.4c1.4,2.6,1,5.8-1.1,9.4
		c-1.6,2.7-5,7.8-10.4,12.4C251.3,77.2,244.3,79.9,236.8,79.9z M208.7,51.2c-6,0-7,1.3-7,1.3c-0.1,0.6,1.1,2.4,2.4,3.5l0.2,0.1
		c11.5,12.1,22.4,18.2,32.5,18.2c3.8,0,16.9-1.3,26.5-17.7c1-1.8,1.4-3.3,1-4c-0.5-0.9-2.2-1.4-3.1-1.5c-1.7,0.1-14.1,0.6-28.1,0.6
		c-8.1,0-15.3-0.2-21.5-0.5C210.6,51.2,209.6,51.2,208.7,51.2z"/>
</g>
<g>
	
		<linearGradient id="SVGID_1_" gradientUnits="userSpaceOnUse" x1="-286.0428" y1="77.9204" x2="-286.0428" y2="77.9204" gradientTransform="matrix(-1 0 0 1 -57.5412 0)">
		<stop  offset="1.159917e-02" style="stop-color:#04709D"/>
		<stop  offset="0.3159" style="stop-color:#146D99"/>
		<stop  offset="0.7503" style="stop-color:#27638C"/>
		<stop  offset="1" style="stop-color:#2E5B83"/>
	</linearGradient>
	<path fill="url(#SVGID_1_)" stroke="#000000" stroke-width="9" stroke-miterlimit="10" d="M228.5,77.9"/>
</g>
<g>
	<path fill="#BF1622" d="M218.3,72.8c3.7,0,10.2,5.1,10.2,5.1s14,25.9,10.7,40.5c-3.3,14.6-18.3,37.1-18.3,37.1s21.3,56.8,25.4,71.8
		c4,15.1-6.5,30.1-13.2,37.4c-6.7,7.3-65.4-38.6-65.4-38.6s-13.3-6.3-34.5-3.7s-7.8-62.9-7.8-62.9s12.9-13.3,14.5-29.9l1.7-21.8"/>
	<path d="M231,268.3c-4.9,0-14.3-4-34.7-17.8c-14.2-9.7-27.9-20.3-30-21.9c-1.9-0.8-14.2-5.6-32.7-3.3c-3.7,0.4-6.9-0.7-9.3-3.3
		c-11.5-12.4-2.6-57.7-1.6-62.9l0.2-0.8l0.6-0.6c0.1-0.1,12.2-12.8,13.7-28.3l1.7-21.7l5.6,0.4l-1.7,21.8
		c-1.5,15.6-12.1,28.1-14.7,31.1c-2.7,13.7-7.6,48.6,0.4,57.2c1.2,1.3,2.6,1.8,4.5,1.6c21.8-2.7,35.5,3.6,36,3.9l0.3,0.1l0.2,0.2
		c0.1,0.1,13.8,10.8,28.5,20.8c26.6,18.3,32.4,18.1,33.3,17.9c4.1-4.5,16.5-19.5,12.4-34.6c-4-14.7-25.1-71-25.3-71.6l-0.5-1.3
		l0.8-1.2c0.1-0.2,14.7-22.2,17.9-36.2c1.2-5.4-0.1-13.8-4-24.1c-2.5-6.7-5.3-12.3-6.2-14c-2.8-2.1-6.4-4.2-8-4.2l0-5.6
		c4.4,0,10.7,4.8,11.9,5.7l0.5,0.4l0.3,0.5c0.6,1.1,14.5,27,11,42.5c-3,13.1-14.7,31.9-17.9,36.8c3.3,8.8,21.2,56.9,25,70.8
		c4.8,18.1-9.4,35.2-13.9,40C234.2,267.6,233,268.3,231,268.3z"/>
</g>
<g>
	<path fill="#BF1622" d="M114.4,154.7c0,0-10.1-9.6-10.1-16.2s3.8-32.8,3.8-32.8s-6.9-1.8-9.5-2.8c-2.5-1-4.5,37.1,2.6,40.9
		c7.1,3.8-23.8,22.7-23.8,22.7s6.3,17.2,18.2,32.6S114.4,154.7,114.4,154.7z"/>
	<path d="M99.5,204.4C99.5,204.4,99.5,204.4,99.5,204.4c-2.2,0-4.2-1.2-6.1-3.6c-12.1-15.5-18.4-32.6-18.6-33.3l-0.8-2.1l1.9-1.2
		c11.6-7.1,21.8-15.1,23.3-18.3c-8.1-5.8-5.7-36.5-4.4-41.8c0.2-1,1-3.9,3.7-3.9c0.4,0,0.8,0.1,1.1,0.2c2,0.8,7.3,2.2,9.2,2.7
		l2.4,0.6l-0.4,2.5c0,0.3-3.9,26.1-3.8,32.4c0.1,3.9,5.7,10.8,9.3,14.2l1,1l-0.2,1.4c0,0.1-1.4,12-3.9,23.7
		C109.4,196.5,105.2,204.4,99.5,204.4z M80.8,167.7c2,5,7.8,18,17,29.7c0.9,1.2,1.5,1.4,1.7,1.4c0,0,3.9-0.9,8.3-21.3
		c2-9.2,3.2-18.5,3.7-21.8c-1.6-1.6-4.5-4.8-6.8-8.4c-0.9,2.5-4,6.3-13.2,13.1C87.3,163.4,83.2,166.2,80.8,167.7z M100,106.4
		c-0.6,3.1-1.2,9.7-1,17.5c0.3,9.6,1.6,14.3,2.5,16.3c-0.1-0.5-0.1-1.1-0.2-1.6c-0.1-5.6,2.5-24,3.5-30.8
		C103.5,107.4,101.6,106.9,100,106.4z"/>
</g>
<g>
	<path fill="#E30613" d="M148.4,86.9c0,0-6.6-4.3-9.1-3.3s-4.4,4.4-4.4,4.4s-4.2-4.9-6.5-4.6c-2.3,0.3-6.4,7.3-6.4,7.3
		s3.3,4,6.4,6.3c3.1,2.3,16.3,0.1,17.6-2C147.3,93,148.4,86.9,148.4,86.9z"/>
	<path d="M133.4,99.6C133.4,99.6,133.4,99.6,133.4,99.6c-2.8,0-4.7-0.4-5.9-1.3c-3.2-2.4-6.5-6.4-6.7-6.5l-0.7-0.8l0.5-0.9
		c4-7,6.6-8,7.5-8.1c0.1,0,0.3,0,0.4,0c2,0,4.5,2.1,6.1,3.7c0.9-1.2,2.3-2.7,4-3.4c0.4-0.2,1-0.3,1.5-0.3c3.2,0,8.4,3.3,9,3.7
		l0.9,0.6l-0.2,1c-0.1,0.7-1.2,6.5-2.6,8.7C145.8,98.4,137.6,99.6,133.4,99.6z M123.9,90.7c1.1,1.3,3.3,3.7,5.4,5.2
		c0.4,0.3,1.7,0.7,4.1,0.7c5.2,0,10.5-1.5,11.3-2.3c0.7-1.2,1.5-4.3,2-6.6c-2-1.2-4.9-2.6-6.4-2.6c-0.2,0-0.3,0-0.3,0
		c-1.6,0.7-3.2,3-3.7,3.8l-1.1,1.8l-1.4-1.6c-1.7-1.9-4.2-4.1-5.2-4.1C127.8,85.2,125.7,87.8,123.9,90.7z"/>
</g>
<g>
	<path fill="#A3195C" d="M140.1,63.1c-9.1,0-15.2-1.4-18.8-2.5c-2.6-0.9-7.1-2.6-7.1-4.8c0-0.7,0-2,0.4-3.2c0.6-1.8,2-2.8,3.8-2.8
		c1.5,0,3.2,0.7,5.3,2c2.8,1.8,4.7,2.4,8,2.4c1.7,0,3.7-0.1,6.2-0.3c3.9-0.3,9.3-0.7,16.9-0.8c21.6-0.3,41.4-12.8,41.6-12.9l0.2-0.1
		l0.3-0.1c0.1,0,0.8-0.2,1.7-0.2c1.9,0,2.8,0.8,3.2,1.4c0.7,0.9,0.7,2.2,0.2,3.6c-1.6,4.3-5.9,9-39.1,15.8
		C154.8,62.3,147.1,63.1,140.1,63.1C140.1,63.1,140.1,63.1,140.1,63.1z"/>
	<path d="M198.6,41.4c1.3,0,2.9,0.5,1.9,2.9c-1.4,3.9-6.4,8.4-38,14.8c-8.7,1.8-16.2,2.4-22.5,2.4c-16.4,0-24.3-4.6-24.3-5.8
		c0-1.2,0-4.4,2.6-4.4c1,0,2.5,0.5,4.4,1.8c3.1,2,5.4,2.6,8.8,2.6c4.4,0,10.7-0.9,23.1-1.1c22.3-0.3,42.4-13.1,42.4-13.1
		S197.9,41.4,198.6,41.4 M198.6,38.3c-1,0-1.9,0.2-2.1,0.2l-0.5,0.1l-0.4,0.3c-0.2,0.1-19.6,12.4-40.8,12.6c-7.6,0.1-13,0.5-17,0.8
		c-2.5,0.2-4.5,0.3-6.1,0.3c-3,0-4.7-0.5-7.2-2.1c-2.4-1.5-4.4-2.3-6.1-2.3c0,0,0,0,0,0c-2.4,0-4.4,1.4-5.2,3.8
		c-0.5,1.4-0.5,2.9-0.5,3.7c0,0.9,0,3.7,8.2,6.3c3.7,1.2,10,2.6,19.3,2.6c7.1,0,14.9-0.8,23.1-2.5c30.8-6.3,38.1-10.9,40.3-16.7
		c0.9-2.5,0.3-4.1-0.3-5.1C202.5,39.4,201.2,38.3,198.6,38.3L198.6,38.3z"/>
</g>
<g>
	<g>
		<path d="M172.4,70.4c-1.5,0-2.5-0.2-2.5-0.2c-0.5-0.1-0.8-0.6-0.7-1.1c0.1-0.5,0.6-0.8,1.1-0.7c0.4,0.1,9.3,2,12-7.8
			c0.1-0.5,0.7-0.8,1.1-0.6c0.5,0.1,0.8,0.7,0.6,1.1C181.9,69.2,175.9,70.4,172.4,70.4z"/>
	</g>
	<g>
		<path d="M167.7,73.2c-0.5,0-0.9-0.4-0.9-0.9c0-0.5,0.4-0.9,0.9-1c0.1,0,3.4-0.2,5.6-2.7c1.6-1.8,2.2-4.4,1.8-7.8
			c-0.1-0.5,0.3-1,0.8-1c0.5-0.1,1,0.3,1,0.8c0.4,3.9-0.3,7-2.2,9.2C171.9,73,167.9,73.2,167.7,73.2
			C167.7,73.2,167.7,73.2,167.7,73.2z"/>
	</g>
	<g>
		<path d="M176.9,72c-3.4,0-6.3-0.6-6.6-0.6c-0.5-0.1-0.8-0.6-0.7-1.1c0.1-0.5,0.6-0.8,1.1-0.7c3.3,0.6,12.2,1.5,14.6-2.1
			c0.3-0.4,0.9-0.6,1.3-0.3c0.4,0.3,0.6,0.9,0.3,1.3C184.9,71.3,180.6,72,176.9,72z"/>
	</g>
</g>
<g>
	<g>
		<path d="M119.8,71.4c-0.8,0-1.9-0.2-3-0.8c-1.4-0.9-2.4-2.3-2.9-4.4c-0.1-0.5,0.2-1,0.7-1.1c0.5-0.1,1,0.2,1.1,0.7
			c1.1,4.5,4.6,3.8,5,3.7c0.5-0.1,1,0.2,1.1,0.7c0.1,0.5-0.2,1-0.7,1.1C121.1,71.3,120.5,71.4,119.8,71.4z"/>
	</g>
	<g>
		<path d="M122,72.8C122,72.8,122,72.8,122,72.8c-0.1,0-2.1-0.1-3.5-1.7c-1.1-1.2-1.5-3-1.3-5.2c0.1-0.5,0.5-0.9,1-0.8
			c0.5,0.1,0.9,0.5,0.8,1c-0.2,1.7,0.1,3,0.8,3.8c0.9,1,2.1,1.1,2.1,1.1c0.5,0,0.9,0.4,0.9,1C122.9,72.5,122.5,72.8,122,72.8z"/>
	</g>
	<g>
		<path d="M117.7,72.2c-1.9,0-4.1-0.4-5-2.1c-0.3-0.4-0.1-1,0.3-1.3c0.4-0.3,1-0.1,1.3,0.3c0.9,1.6,4.9,1.1,6.2,0.9
			c0.5-0.1,1,0.2,1.1,0.7c0.1,0.5-0.2,1-0.7,1.1C120.6,71.9,119.3,72.2,117.7,72.2z"/>
	</g>
</g>
<g>
	<path fill="#006633" d="M222.3,148.5c0,0-28.1,13.2-97,5l-3.6,12.5c0,0,46,14,100.6,0.9c2.4,0.4,0-9.9,0-9.9V148.5z"/>
	<path d="M173.9,174c-30.8,0-52.5-6.5-52.7-6.6l-1.5-0.4l4.4-15.2l1.3,0.2c15,1.8,29.2,2.7,42.3,2.7c37.4,0,53.8-7.4,53.9-7.5l2.2-1
		l0,10.6c0.8,3.3,1.8,9,0.3,10.8c-0.4,0.5-1,0.8-1.7,0.9C206.9,172.1,190.6,174,173.9,174z M123.6,164.8c5.3,1.4,24.6,6,50.4,6
		c16.4,0,32.5-1.9,47.8-5.5c0.2-1.2-0.2-4.8-1-8.1l0-0.2v-6.3c-5.6,2.1-22.3,6.9-53,6.9c-12.8,0-26.7-0.9-41.3-2.6L123.6,164.8z"/>
</g>
<g>
	<path fill="#936037" d="M144.9,224.7c0,0,2.9-12.3-1.4-28.5c-4.2-16.2-1.2-24.6,3.9-26.2c5-1.7,17.6,1.7,26.2,20.4
		c8.6,18.7-10.9,43.8-11.7,43.2C161.1,233.1,150.5,238.7,144.9,224.7z"/>
	<path d="M156.7,237.1c-4.5,0-10.6-2-14.3-11.3l-0.3-0.8l0.2-0.9c0-0.1,2.6-11.9-1.3-27.1c-2.1-8-2.6-14.6-1.6-19.8
		c1.4-6.9,5.1-9.1,7.3-9.8c1-0.3,2.2-0.5,3.5-0.5c7.6,0,18.5,5.9,26.1,22.4c2.9,6.3,3.2,13.7,1,22c-2.1,7.8-5.9,14.4-8,17.7
		c-4.8,7.5-6.3,7.5-7.2,7.5h-0.4c-0.1,0-0.3,0.1-0.4,0.1C160.2,236.7,158.6,237.1,156.7,237.1z M147.8,224.4c3.1,7,7.4,7.1,8.8,7.1
		c0,0,0,0,0,0c1.3,0,2.5-0.3,3.4-0.4c0.3-0.1,0.6-0.1,0.9-0.2c3-3.5,17.3-24,10.2-39.3c-8.6-18.6-19.8-19.1-21.1-19.1
		c-0.9,0-1.4,0.1-1.7,0.2c-3.6,1.2-5.7,8.8-2.1,22.9C150,209.9,148.4,221.2,147.8,224.4z"/>
</g>
<g>
	<path fill="#BF1622" d="M222.3,74c0,0-17.2-4.5-39,18.1c-13.1-0.3-27.1,1.5-29.7,2.8c-2.7,1.3,10-0.7,7.1,17.6
		c-2.9,18.3,0,51.1,0,51.1s13.7-41.6,21.1-45c7.3-3.4,17.3-6.1,17.3-6.1"/>
	<path d="M160.6,166.4c-0.1,0-0.2,0-0.3,0c-1.3-0.2-2.3-1.2-2.5-2.5c-0.1-1.4-2.9-33.3,0-51.8c1.8-11.4-2.9-13.1-4.8-13.8
		c-0.8-0.3-2.5-0.9-2.6-2.9c0-0.6,0.1-2.1,1.9-3c3.3-1.6,17.1-3.3,29.8-3.1c22.2-22.5,40.1-18.2,40.9-18l-1.4,5.4
		c-0.6-0.2-16.1-3.7-36.3,17.3c-0.5,0.6-1.3,0.9-2.1,0.9c-9-0.2-17.7,0.6-23.2,1.4c3.4,3.5,4.5,9.1,3.3,16.7
		c-1.6,10.4-1.4,25.8-0.8,36.9c1-2.7,2.1-5.6,3.3-8.5c8.1-20.1,12.1-24,14.7-25.3c7.4-3.5,17.3-6.2,17.7-6.3l1.5,5.4
		c-0.1,0-9.9,2.7-16.9,5.9c-3,1.4-11.3,18.3-19.6,43.3C162.9,165.6,161.8,166.4,160.6,166.4z"/>
</g>
<g>
	<path fill="#006633" d="M118.3,151.9l-3.9,14.9c0,0-10.4-15-16.5-16.6l3.2-6.4L118.3,151.9z"/>
	<path d="M115,170.4l-1.9-2.8c-2.8-4-11.1-14.8-15.6-16l-1.9-0.5l4.7-9.5l19.7,9.3L115,170.4z M100.1,149.4
		c4.8,2.5,10.6,9.8,13.7,13.8l2.8-10.5l-14.6-6.9L100.1,149.4z"/>
</g>
<g>
	<path fill="#F18518" d="M116.1,65c2-5.6-13.4-6.4-22.6-0.2c-5.6,3.7,2.2,9.2,2.2,9.2s2.3,4.4,11.7,4.4C109.6,74,116.1,65,116.1,65z
		"/>
	<path d="M107.3,81.2c-8.8,0-12.4-3.6-13.5-5.2c-1.5-1.1-5-4.2-5-8.1c0-1.5,0.6-3.7,3.3-5.4c4.4-3,10.6-4.7,16.4-4.7
		c2.7,0,7.7,0.4,9.8,3.5c1,1.4,1.2,3.1,0.6,4.8l-0.1,0.4l-0.2,0.3c-0.1,0.1-6.5,8.9-8.4,12.9l-0.8,1.6L107.3,81.2z M98.3,72.7
		c0.3,0.4,2,2.5,7.5,2.9c2.2-3.9,6.1-9.4,7.5-11.4c-0.6-0.3-2.1-0.9-4.9-0.9c-3.7,0-9.1,1-13.3,3.8c-0.2,0.1-0.8,0.5-0.8,0.9
		c0,1,1.8,2.9,3.1,3.8l0.7,0.5L98.3,72.7z"/>
</g>
<g>
	<polygon fill="#693C11" points="164.3,212.3 153.2,209.7 153.2,227 158.3,227 	"/>
	<path d="M159.4,228.6h-7.7v-20.8l14.8,3.4L159.4,228.6z M154.7,225.5h2.6l4.9-12.1l-7.5-1.7V225.5z"/>
</g>
<g>
	<polygon fill="#693C11" points="90.5,200.2 81.5,207.2 95,218.1 98.3,214.1 	"/>
	<path d="M95.3,220.3L79,207.2l12-9.4l9.1,16.5L95.3,220.3z M84,207.3l10.8,8.7l1.6-2l-6.3-11.4L84,207.3z"/>
</g>
<g>
	<path fill="#FFFFFF" d="M163.3,28.7c0,0,23.4-20.1,27.9-20.1c4.5,0,34.6,7.8,34.6,7.8s15.1,20.1,3.3,83.1s-7.8,91.7-7.8,91.7
		l8.4,32.8l-34.6-46.9l-0.6-91.5l10-44.2c0,0-3.9-18.8-10.6-17.7s-20.1,4.5-20.1,4.5L163.3,28.7z"/>
	<path d="M233.9,232.8l-40.6-55l-0.6-92.3l0-0.2l9.9-43.8c-1.4-6.5-4.9-15.9-8.1-15.9c-0.1,0-0.2,0-0.3,0
		c-6.5,1.1-19.8,4.4-19.9,4.4l-0.2,0l-16.2,0.9l4.2-3.6c5.6-4.8,24.3-20.5,29.1-20.5c4.6,0,32,7.1,35.1,7.9l0.6,0.2l0.4,0.5
		c0.6,0.8,15.4,21.5,3.7,84.6c-6,32.4-7.8,55.4-8.3,69c-0.5,13.8,0.4,21,0.5,21.9L233.9,232.8z M197,176.5l28.6,38.7l-6-23.8
		c-0.2-1.2-3.8-29.6,7.8-92.2c3.3-17.7,6.4-43.1,2.8-64.1c-1.8-10.3-4.5-15.5-5.5-17.1c-12-3.1-30.4-7.6-33.4-7.6
		c-2.2,0.2-12.6,7.9-22.5,16.1l4.9-0.3c1.7-0.4,13.7-3.4,20.1-4.5c0.3,0,0.6-0.1,0.9-0.1c7.5,0,11.2,16,11.8,19.2l0.1,0.4l-10,44.4
		L197,176.5z"/>
</g>
<g>
	<path fill="#BF1622" d="M118.7,149.8c0,0-2.8-36.8,6.1-44.6s-16.2-4.5-16.2-4.5l-7.5,43.1L118.7,149.8z"/>
	<path d="M121.8,153.8L98,145.7l8.2-47.5l2-0.3c0.2,0,5.6-0.7,10.6-0.7c4.5,0,9.2,0.4,10.4,3.7c0.8,2-0.1,4.2-2.6,6.3
		c-5.7,5-6.2,28.6-5.2,42.3L121.8,153.8z M104.3,141.9l11.3,3.9c-0.5-10.4-0.8-35.7,7.3-42.8c0,0,0,0,0,0c-0.8-0.1-2.2-0.3-4.1-0.3
		c-2.8,0-5.9,0.3-7.8,0.5L104.3,141.9z"/>
</g>
<g>
	
		<ellipse transform="matrix(-0.9472 0.3207 -0.3207 -0.9472 258.9774 152.3745)" fill="#FDD205" cx="116.9" cy="97.5" rx="12.7" ry="8.1"/>
	<path d="M113.6,109C113.6,109,113.6,109,113.6,109c-5.6,0-10-2.5-11.3-6.5c-1-2.9-0.2-6.3,2.2-9.3c2.1-2.6,5.3-4.8,9-6
		c2.3-0.8,4.6-1.2,6.8-1.2c5.6,0,10,2.5,11.3,6.5c1,2.9,0.2,6.3-2.2,9.3c-2.1,2.6-5.3,4.8-9,6C118.2,108.6,115.9,109,113.6,109z
		 M120.3,91.6c-1.6,0-3.4,0.3-5,0.9c-2.7,0.9-5,2.4-6.5,4.2c-1.1,1.4-1.6,2.9-1.2,4c0.6,1.6,3,2.7,6,2.7c0,0,0,0,0,0
		c1.6,0,3.4-0.3,5-0.9c2.7-0.9,5-2.4,6.5-4.2c1.1-1.4,1.6-2.9,1.2-4C125.8,92.7,123.3,91.6,120.3,91.6z"/>
</g>
<g>
	<g>
		<path fill="#CA9E67" d="M13.3,48.6c4.8-13.3,13.5-22.3,19.3-20.2c3.5,1.3,5.1,6.3,4.9,12.9c3.8,9.5,20.6,18.4,20.6,18.4
			s71.6,30,74.7,30c3.1,0,2.7,4.2,2.7,4.2c-1.9,4.6-4.6,1.2-4.6,1.2S76.9,77,58.1,70.1c-13.6-5-24.8-3.2-30-1.8
			c-4.3,6.2-9.3,9.5-13.1,8.1C9.2,74.3,8.5,61.8,13.3,48.6z"/>
		<path d="M133,97.9c-1.4,0-2.5-0.9-3-1.5c-4.9-1.6-54.6-18.4-72.4-24.9c-5.8-2.1-11.7-3.2-17.6-3.2c-4.7,0-8.4,0.7-10.9,1.3
			c-4,5.6-8.4,8.6-12.2,8.6c-0.8,0-1.6-0.1-2.3-0.4c-3.4-1.2-5.5-5.2-5.9-11.1C8.3,61.3,9.4,54.6,11.9,48
			c4.6-12.7,12.4-21.5,18.9-21.5c0.8,0,1.6,0.1,2.3,0.4c4,1.5,6.1,6.6,5.9,14.1c3.7,8.4,18.6,16.7,19.7,17.3
			c28,11.7,70.7,29.3,74.1,29.9c1.2,0,2.1,0.4,2.9,1.2c1.5,1.7,1.3,4.4,1.3,4.7l0,0.2l-0.1,0.2C135.7,97.3,134.1,97.9,133,97.9z
			 M39.9,65.2c6.3,0,12.5,1.1,18.7,3.4c18.6,6.8,72.2,24.8,72.7,25l0.4,0.1l0.3,0.4c0.2,0.3,0.7,0.6,0.9,0.6c0.1,0,0.5-0.3,0.9-1.2
			c0-0.6-0.1-1.6-0.5-2.1c-0.1-0.1-0.3-0.2-0.6-0.2c-3.1,0-58.4-23.1-75.3-30.1l-0.1-0.1C56.6,60.7,40,51.7,36,41.9l-0.1-0.3l0-0.3
			c0.3-6.1-1.2-10.5-3.8-11.4c-0.4-0.1-0.8-0.2-1.2-0.2c-5.6,0-12.5,9.9-16,19.5c-2.3,6.2-3.4,12.4-3,17.5c0.3,4.5,1.7,7.6,3.8,8.4
			c2.9,1.1,7.3-2,11.3-7.6l0.3-0.5l0.5-0.1C30.3,66.1,34.6,65.2,39.9,65.2z"/>
	</g>
	<g>
		<ellipse transform="matrix(-0.94 -0.3412 0.3412 -0.94 27.3199 109.0822)" cx="23.3" cy="52.1" rx="5.4" ry="17.7"/>
		<path d="M17.8,69.2L17.8,69.2c-0.2,0-0.5,0-0.7-0.1c-3-1.1-2.6-9.4,0.8-18.9C21.1,41.4,25.6,35,28.7,35c0.2,0,0.5,0,0.7,0.1
			c3,1.1,2.6,9.4-0.8,18.9C25.4,62.9,20.9,69.2,17.8,69.2z M28.7,35.7c-2.7,0-7.2,6.5-10.2,14.7c-3.6,9.8-3.5,17.3-1.2,18.1
			c0.2,0.1,0.3,0.1,0.5,0.1c2.7,0,7.2-6.5,10.2-14.7c3.6-9.8,3.5-17.3,1.2-18.1C29.1,35.7,28.9,35.7,28.7,35.7z"/>
	</g>
	<g>
		<path fill="#312783" d="M114.2,83.4l-46.9-19c0,0,1.1,3.9-1.7,8.4L112,89.5C112,89.5,114.8,86.7,114.2,83.4z"/>
		<path d="M112.4,91.3l-49-17.7l1-1.6c2.4-3.8,1.5-7,1.5-7.1l-0.8-3l2.9,1.2l47.7,19.3l0.1,0.9c0.7,4.1-2.5,7.4-2.7,7.5L112.4,91.3z
			 M67.9,71.9l43.6,15.8c0.5-0.7,1.2-1.9,1.3-3.2L69.1,66.8C69.1,68.2,68.8,70,67.9,71.9z"/>
	</g>
	<g>
		<polygon fill="#312783" points="112,89.5 107.1,145.7 80.7,124.1 60.6,130.8 67.9,73.3 		"/>
		<path d="M108.4,148.8l-28-22.9l-21.6,7.2l7.8-61.9l47,17.3L108.4,148.8z M81,122.4l24.8,20.3l4.5-52.1L69.2,75.5l-6.7,53.1
			L81,122.4z"/>
	</g>
</g>
<g>
	<g>
		<path fill="#FDD205" d="M143.9,113.5c-36.3-12.1-4.7-21.7-4.7-21.7l15.5-0.8c0,0,8.1,7.1,2.7,16.7
			C151.9,117.3,143.9,113.5,143.9,113.5z"/>
		<path d="M147.6,116.7c-2.3,0-4.1-0.7-4.7-0.9c-13.1-4.4-19.1-8.9-19-14.3c0.1-3.4,2.7-6.5,7.7-9.2c3.4-1.8,6.7-2.8,6.8-2.8
			c0.2-0.1,0.4-0.1,0.6-0.1l15.5-0.8c0.6,0,1.3,0.2,1.8,0.6c3.3,2.9,8.3,10.8,3.2,19.8C155.8,115.4,151,116.7,147.6,116.7z
			 M144.9,111.3c0,0,1.1,0.5,2.7,0.5c3,0,5.6-1.8,7.5-5.3c3.5-6.2,0.1-11.2-1.5-12.9l-14.1,0.7c-4.6,1.4-10.7,4.7-10.8,7.3
			c-0.1,4.1,13.1,8.7,15.8,9.6C144.7,111.2,144.8,111.2,144.9,111.3C144.9,111.3,144.9,111.3,144.9,111.3z"/>
	</g>
	<g>
		<path fill="#FFFFFF" d="M152.7,93.5c0,0-5-0.1-3.6-4.2c1.5-4.1-2.7-7.2,7.1-5.8c9.8,1.4,13.3,2.4,13.1,9.1s4.4,6.1,2.4,11.8
			s1.4-4.8-3.8,6.1c-5.2,10.8,2.6,9.7-5.2,10.8c-7.9,1.1-6.7,8.3-11.1,1.7c-4.3-6.6-3-8.6-3-8.6S163.7,103.4,152.7,93.5z"/>
		<path d="M154.4,127.3c-1.6,0-2.8-1.3-4.2-3.5c-4.4-6.7-3.6-9.4-3-10.3l0.2-0.2l0.2-0.2c0.1-0.1,7.2-5.3,7.5-11.3
			c0.1-2.4-0.9-4.7-3.1-6.8c-1-0.1-3-0.6-4.1-2.1c-0.5-0.8-1-2.1-0.3-4.1c0.3-0.9,0.3-1.8,0.2-2.6c-0.1-1.1-0.1-2.4,0.8-3.4
			c1-1,2.5-1.1,3.7-1.1c1,0,2.3,0.1,4,0.3c9.4,1.3,14.7,2.5,14.4,10.7c-0.1,2.7,0.7,3.9,1.5,5.1c1,1.6,2.1,3.4,0.8,7.1
			c-0.8,2.2-1,2.9-2.1,2.9h0c-0.4,0.7-0.9,1.8-1.7,3.4c-2.4,4.9-1.8,7-1.5,8c0.2,0.6,0.4,1.4-0.1,2.2c-0.6,0.9-1.5,1.1-4.7,1.5
			c-2.9,0.4-4.4,1.8-5.5,2.9C156.5,126.5,155.6,127.3,154.4,127.3z M149.9,115.3c0,0.6,0.2,2.6,2.9,6.8c0.9,1.3,1.4,1.8,1.6,2
			c0.2-0.2,0.5-0.5,0.8-0.7c1.3-1.3,3.3-3.1,7.2-3.7c0.9-0.1,1.6-0.2,2.2-0.3c-0.4-1.5-0.7-4.4,1.9-9.6c2.1-4.4,3-5.6,3.8-6
			c0.8-2.2,0.3-3-0.6-4.3c-0.9-1.4-2.1-3.3-1.9-6.9c0.2-5-1.4-6.1-11.7-7.5c-1.5-0.2-2.6-0.3-3.5-0.3c-0.9,0-1.3,0.1-1.4,0.2
			c0,0.2,0,0.7,0,1.1c0,1,0.1,2.4-0.4,3.9c-0.2,0.4-0.3,1-0.1,1.3c0.4,0.5,1.6,0.8,2.2,0.8l0.6,0l0.4,0.4c3.2,2.8,4.7,6.1,4.5,9.6
			C157.9,108.5,151.7,113.9,149.9,115.3z"/>
	</g>
</g>
<g>
	<g>
		<ellipse fill="#FDD205" cx="120.2" cy="159.1" rx="10.4" ry="10.6"/>
		<path d="M120.2,172.4c-7.3,0-13.2-6-13.2-13.4s5.9-13.4,13.2-13.4s13.2,6,13.2,13.4S127.5,172.4,120.2,172.4z M120.2,151.3
			c-4.2,0-7.6,3.5-7.6,7.8c0,4.3,3.4,7.8,7.6,7.8c4.2,0,7.6-3.5,7.6-7.8C127.8,154.8,124.4,151.3,120.2,151.3z"/>
	</g>
	<g>
		<ellipse fill="#FDD205" cx="117.8" cy="159.5" rx="7.5" ry="6.5"/>
		<path d="M117.8,167c-4.6,0-8.4-3.4-8.4-7.5s3.8-7.5,8.4-7.5s8.4,3.4,8.4,7.5S122.5,167,117.8,167z M117.8,153.9
			c-3.6,0-6.6,2.5-6.6,5.6s2.9,5.6,6.6,5.6s6.6-2.5,6.6-5.6S121.5,153.9,117.8,153.9z"/>
	</g>
</g>
<g>
	<g id="_x36_1Gp1q.tif_3_">
		<g>
			<path fill="#FFFFFF" d="M89.6,88c-7.6-0.6-14.5,5.5-15.1,13.8c-0.6,8.6,4.7,16.1,12.1,16.6c7.6,0.5,14.5-5.7,15-14.1
				C102.2,96.2,97.1,88.6,89.6,88z M75.9,107.4c-0.8-4.1-0.3-8.4,1.1-10.9c1,6.1,2.6,13.5,4.5,19.1
				C79.5,114.9,76.6,110.8,75.9,107.4z M83.3,116.6c1.3-3.2,3.1-7.4,4.8-11.9c0,0,0.1,0,0.1,0c1.1,4.6,2.1,9,2.9,12.2
				C88.4,117.6,85.9,117.6,83.3,116.6z M90.6,96.2c0.5,0,1,0,1.5,0c0.4,0,0.6-0.2,0.6-0.6c0-0.4-0.2-0.6-0.6-0.6
				C91,95,90,95,88.9,94.9c-1.1-0.1-2.2-0.2-3.2-0.3c-0.2,0-0.5-0.1-0.7-0.1c-0.3,0-0.6,0.2-0.6,0.5c-0.1,0.3,0.1,0.6,0.4,0.6
				c0.4,0.1,0.8,0.1,1.2,0.2c0.1,0,0.2,0.1,0.3,0.2c0.5,2,1,4.1,1.5,6.3c0,0.1,0,0.3,0,0.4c-1.3,3.3-2.6,6.5-3.7,9.4
				c0,0,0,0-0.1,0.1c-1.3-5.2-2.6-11.5-3.4-16.6c0.5,0,0.9-0.1,1.4-0.1c0.4,0,0.6-0.3,0.7-0.6c0-0.4-0.2-0.6-0.6-0.5
				c-1,0-2.1,0.1-3,0.1c-0.3,0-0.6,0-1,0c2.3-3.3,5.4-4.9,8.9-5.2c4.1-0.4,7.7,0.7,10.7,4.2c-1-0.2-1.7,0.3-2.1,1.3
				c-0.2,0.6-0.2,1.3,0,2c0.2,0.7,0.5,1.4,0.8,2.1c0.6,1.5,0.9,3,0.8,4.6c-0.1,1.2-0.5,2.2-0.8,3.3c-0.7,2-1.4,3.9-2.2,5.8
				c0,0.1-0.1,0.2-0.2,0.4C93.1,107.9,91.9,101.6,90.6,96.2z M93.5,116.1c0.3-0.6,0.7-1.3,1-2c1.5-3.1,3-6.7,4.1-10.1
				c0.4-1.2,0.9-2.5,1-3.8c0.1-0.9,0.2-1.8,0.2-2.7c1.1,3.3,1.1,6.7,0.2,10.2C99.1,111.6,96.7,114.5,93.5,116.1z"/>
		</g>
	</g>
</g>
</svg>
