<?xml version="1.0" encoding="utf-8"?>
<!-- Generator: Adobe Illustrator 19.0.0, SVG Export Plug-In . SVG Version: 6.00 Build 0)  -->
<svg version="1.1" xmlns="http://www.w3.org/2000/svg" xmlns:xlink="http://www.w3.org/1999/xlink" x="0px" y="0px"
	 viewBox="0 0 612 792" style="enable-background:new 0 0 612 792;" xml:space="preserve">
<style type="text/css">
	.st0{fill:#FFFFFF;}
	.st1{fill:#ED1F24;}
	.st2{fill:#787878;stroke:#000000;stroke-miterlimit:10;}
	.st3{fill:#787878;}
	.st4{fill:#010101;}
	.st5{fill:#025784;}
	.st6{fill:#005885;}
	.st7{fill:#00A78C;}
	.st8{fill:#FED208;}
	.st9{fill:#F6891F;}
	.st10{fill:none;}
	.st11{fill:#5D3E17;}
	.st12{fill:#FFFFFF;stroke:#000000;stroke-width:3;stroke-miterlimit:10;}
</style>
<g id="Flag">
	<path id="XMLID_53_" d="M132.3,117.2c0,0,17.5-19.3,60.1-25.5c51.5-7.5,83.7,22,109.2,22.7c28.3,0.8,64.7-41,119.4-14.9
		c-13.6,6.4-21.2,12.1-20.2,19.9c1.5,11.2,15.2,17.5,17.1,24.6c4,15.1-9.7,21.5-5.9,33.4c1.9,6.1,20.3,10.9,14.9,22.8
		c-9.2,20.4,6.3,26.3,9,40.5c0.9,7-67.3-3.7-67.3-3.7s-33.6,0.9-52.6,29.5c-5.6,5.2-21.3,13-29,13.9c-14.8-12.6-54.8-6.6-63.4-1.1
		c4.3,8.9,45,77,45,77l-18.8,26.5L108.1,129.6c0,0-8.2-12,3.4-19.1C126.2,101.5,132.3,117.2,132.3,117.2z"/>
	<path id="XMLID_52_" class="st0" d="M359,230.8c-9.3,4.8-31.9,19.8-44.9,33.7c-12.3,13.1-29.9-1.3-42.6-4.3
		c-21.4-8.5-74.7-140.9-70.1-156.8c74.8-6.3,78.1,43.9,125.8,16C345.6,131.5,365.6,221.2,359,230.8z"/>
	<path id="XMLID_43_" class="st1" d="M272.6,260.5c-5.6-0.5-25.7-11.9-64,11.1c-18.1-35.4-59-107-77.8-140.3
		c15.9-13,53.8-27.5,70.9-27.9C230.3,129.1,252.1,224.2,272.6,260.5z"/>
	<path id="XMLID_44_" class="st1" d="M420,230.8c-15.1-3-37-4.3-61.1-0.3c-3.5-35.1-12.6-88.4-31.7-111
		c10.8-6.1,55.2-24.8,71.1-15.9c-14.2,12-16.1,18.6,4.5,39c10.4,10.3-5.1,24.6-3.1,38.9c1.2,8.8,10.2,6.4,15.2,15
		C419.3,204,406.8,221.5,420,230.8z"/>
	<path id="maple_leaf" class="st1" d="M298.6,153.6c1.1,1.2,2.3,0.7,3.4-0.4l4-3.6l1.3,19.9c0.1,3.7,2.5,3.1,3.2,1.3l5.8-11.4
		l2.5,4.5c0.3,0.6,1.1,1.1,2.1,0.7l9.7-4.8l-0.2,10.8c0,2.4-0.2,3.5,1.5,3.6l4.1,0.9l-13.9,19.2c-0.6,0.7-0.7,1.8-0.2,2.7l2.8,4.9
		c-6.2,0.8-11.8,1.5-18.1,2.3c-0.5,0.1-1.2,0.8-1.1,1.5l5.2,19.1l-2.9,0.7l-4-19.5c-0.2-0.6-1.2-0.9-1.7-0.8
		c-5.9,2.2-11.2,4.2-17,6.5l0.2-5.6c0-1-0.6-1.9-1.4-2.3l-21.3-10.5l3.2-2.7c1.5-1,0.8-1.8-0.4-3.9l-5.2-9.5l10.8-0.3
		c1-0.1,1.5-0.9,1.5-1.6l0.1-5.1l10.4,7.4c1.5,1.2,3.9,0.6,2.3-2.7l-8.2-18.2l5.3,1.3c1.5,0.4,2.8,0.2,3.2-1.3l3.3-14L298.6,153.6
		L298.6,153.6z M289.1,142.7L289.1,142.7L289.1,142.7z"/>
	<path id="XMLID_68_" class="st2" d="M115.8,124c-4-0.4,0.6-7.9,7.1-6.7C127.9,118.2,120.4,124.5,115.8,124z"/>
	<path id="XMLID_69_" class="st3" d="M252.2,366.5c0,0-130.9-235.3-134.6-242.3c3.7-0.6,4.6-1.5,5.9-3.2
		c2.4,4.2,134.5,242,133.3,242.6L252.2,366.5z"/>
</g>
<g id="Wapuu">
	<g id="Page-1_1_" sketch:type="MSPage">
		<g id="Artboard_1_" sketch:type="MSArtboardGroup">
			<g id="レイヤー-1_1_" sketch:type="MSLayerGroup">
				<path id="Fill-1_1_" sketch:type="MSShapeGroup" class="st4" d="M554.8,252.1c-2.4-0.6-6.3-0.9-22.1-0.9c-5.1,0-10.9,0-17,0.1
					c-6.9,0-14.3,0.1-21.7,0.1c-11.9,0-28.5-0.1-40.4-0.8c-19-13.8-40.8-21.1-65-21.9c-52.4-1.6-98.8,21-123.9,60
					c-8.5,8.1-24.5,17-28.8,18c-3.9,0.9,7.1,20,7.7,27.2c-5.8,0.1-8.3,3.4-9.2,4.4c-5.5,6.7-7.8,14.2-6.5,21.3
					c0.3,1.4,0.6,2.8,1.1,4.1c-11.9,20.3-18.2,43.4-18.2,67.1c0,6,0.4,12,1.2,17.9c-1.9-0.3-3.8-0.5-5.7-0.5
					c-9.1,0-17.5,3.9-23.1,10.8c-6.2,7.6-8.3,17.7-6.1,28.6c4.6,22.1,38,59.3,64.7,65.7c2.6,0.6,5.1,0.9,7.5,0.9
					c7.1,0,13-3,16.6-8.5c1.1-1.7,2-3.6,2.5-5.5c18.2,12.6,39.3,20.3,61.6,22.6c-27.9,4.9-89.4-5.8-135.6,5.6
					c-47.7,11.7-68.7,62-34.7,106C193,717.4,244,714.2,299,698c66.8-19.7,126.6-65,145.3-86.7c19.3-22.3,41.2-62.2,42-89
					c39.6-52.5,34.1-153.4,17.2-201.3c-1.3-3.7-2.7-7.4-4.3-11c2.3,0.3,4.6,0.4,6.9,0.4c5.3,0,10.4-0.7,15.2-2.2
					c29.9-9,43.4-31.1,43.1-43.3C564.3,258.6,560.5,253.5,554.8,252.1"/>
				<path id="Fill-2_1_" sketch:type="MSShapeGroup" class="st5" d="M242.7,500c-3-5.5-6.3-11.2-9.4-16.3
					C235.9,489.4,239.1,494.8,242.7,500"/>
				<path id="Fill-3_1_" sketch:type="MSShapeGroup" class="st6" d="M456.5,393.1c-18.5-16.6-31.3-26.8-49.7-30.6
					c-12.4-2.6-27.1,0.7-40.1,3.6c-9.9,2.2-18.4,4.1-25,3.4c-10.2-1.1-18.2-6.4-20.5-13.6c-1.6-5.1-1.2-13.2,10.1-23.2
					c4.7-4.1,10.3-7.6,16.5-10.4c-8.9,0-17.7-1.7-26.2-6.2c-10.9,15.2-38.7,26.2-47.2,22.4c-1.9-0.8-4-2.3-6-4.3
					c-0.2,0.1-0.4,0.3-0.5,0.4c2.3,2.1,3.9,5.1,4.6,8.5c1.4,7-1,14.5-6.6,20c-4.8,4.8-10.9,7.6-16.7,7.6c-4,0-7.5-1.4-10.1-3.9
					c-11.4,18.6-18.1,40.4-18.1,63.8c0,10.9,1.5,21.5,4.1,31.5c11.5,9.4,30.3,47,34.5,56.4c0.2,0.5,0.5,1.2,0.7,1.9
					c19.6,18.2,45.2,30,73.6,32.2c-0.4-4.7-0.2-9.7,0-14.6c0.2-6,0.4-12.3-0.4-17.4c-0.6-4.2-1.7-8.7-2.9-13.5
					c-4.3-17.9-9.1-38.1,8-49.5c3.3-2.2,6.8-3.3,10.6-3.3c15.4,0,29.3,18.5,36.5,32.6c9.8-15.9,25.9-25.9,45.1-27.9
					c9.7-1,19.4,0.3,27.4,3.2c2.8-10.2,4.3-20.8,4.3-31.6C462.5,417.8,460.5,405.2,456.5,393.1"/>
				<path id="Fill-4_1_" sketch:type="MSShapeGroup" class="st7" d="M376.9,363.9c-3.5,0.7-6.9,1.4-10.3,2.2
					c-9.9,2.2-18.4,4.1-25,3.4c-10.2-1.1-18.2-6.4-20.5-13.6c-0.9-2.7-1.1-6.3,0.5-10.6c-12.5-3.3-63.7,42.5-66.3,40.1
					c-20.5,29.8-18.9,78.3,7.8,104.1c2,1.8,4.6,4.9,8,7.8c6.1,5.2,17.5,8.7,28.7,9.4c10.3,0.6,31.4,2.2,31,0.5
					c-4.3-17.9-9.1-38.1,8-49.5c3.3-2.2,6.8-3.3,10.6-3.3c11.8,0,22.8,10.9,30.5,22.4c10.9-15.4,17.3-34.2,17.3-54.5
					C397.1,400.2,389.5,380,376.9,363.9"/>
				<path id="Fill-6_1_" sketch:type="MSShapeGroup" class="st8" d="M382.7,505c0-0.1-0.1-0.3-0.1-0.4c-0.3-1.3-0.7-2.7-1.1-4.1
					c-3.4-12.3-19.7-36.9-32.2-36.9c-1.9,0-3.7,0.6-5.5,1.7c-10.9,7.3-8.7,20.4-4.1,39.7c1.1,4.8,2.3,9.7,3,14.3
					c0.9,6,0.7,12.7,0.5,19.1c-0.3,10-0.7,20.4,3.6,24.9c1.9,2,4.8,2.9,9,2.9c1.2,0,2.3-0.1,3.4-0.2c0.3,0,0.7-0.1,1-0.2
					c0.8-0.1,1.5-0.3,2.2-0.5c0.3-0.1,0.6-0.2,0.9-0.3c0.7-0.2,1.5-0.5,2.1-0.8c0.2-0.1,0.4-0.2,0.6-0.2c0.9-0.4,1.7-0.8,2.5-1.3
					c0.1,0,0.1-0.1,0.2-0.2c0.7-0.4,1.4-0.9,2-1.4c0.2-0.1,0.4-0.3,0.5-0.4c0.5-0.4,1-0.9,1.5-1.3c0.2-0.2,0.3-0.3,0.5-0.5
					c0.5-0.5,1-1.1,1.5-1.7c0.1-0.1,0.1-0.1,0.2-0.2c0.5-0.6,1-1.3,1.4-2c0.1-0.2,0.2-0.3,0.3-0.5c0.3-0.5,0.6-1,0.9-1.5
					c0.1-0.2,0.3-0.5,0.4-0.7c0.2-0.4,0.4-0.8,0.6-1.2c0.1-0.2,0.2-0.5,0.4-0.7c0.2-0.3,0.3-0.7,0.4-1c0.3-0.7,0.6-1.4,0.8-2
					c0,0,0-0.1,0-0.1c0.2-0.4,0.3-0.9,0.4-1.3c0.5-1.7,0.8-2.9,0.8-3.1c0-0.2,0.1-0.4,0.1-0.6c3.5-11,4.9-20.2,2-33.7
					C383.3,507.5,383,506.3,382.7,505"/>
				<path id="Fill-7_1_" sketch:type="MSShapeGroup" class="st9" d="M493.8,265.2c-13.8,0-33.6-0.1-45.8-1.1c-1.1-0.1-2-0.1-2.6,0
					c0.9,1.5,3.1,4.1,6.7,7l0.9,0.8c24.1,20.5,42.2,24.8,53.2,24.8h0c3.9,0,7.7-0.5,11.3-1.6c16.9-5.1,27.3-15.5,31.4-23.7
					c1.5-3,1.8-5,1.8-6c-2.3-0.2-8.3-0.4-17.8-0.4c-5.1,0-10.9,0-17,0.1C508.7,265.1,501.3,265.2,493.8,265.2"/>
				<path id="Fill-8_1_" sketch:type="MSShapeGroup" class="st8" d="M193.9,467.6c-3.5,4.3-4.7,10.3-3.3,17
					c3.5,17.1,33.9,50.1,54.4,55.1c1.6,0.4,3,0.6,4.2,0.6c3.2,0,4.4-1.3,5-2.2c2.5-3.8,1.1-12.2-0.9-16.7
					c-5.7-13-23.7-47.1-32.8-54.1c-4.6-3.5-9.5-5.4-14.3-5.4C201.3,461.9,196.9,463.9,193.9,467.6"/>
				<path id="Fill-9_1_" sketch:type="MSShapeGroup" class="st8" d="M241.5,356.9c1.1,5.6,4.8,6.8,7.8,6.8c3.9,0,8.3-2.1,11.8-5.6
					c3.9-3.9,5.6-9,4.7-13.7c-0.6-2.9-2.2-5.2-4.3-6c-0.3-0.1-0.8-0.2-1.4-0.2c-3.7,0-10.5,3.4-15.1,8.8
					C243.4,349,240.7,353,241.5,356.9"/>
				<path id="Fill-11_1_" sketch:type="MSShapeGroup" class="st9" d="M238.8,320.2c-0.3,0.1-0.4,0.2-0.4,0.2c0,0,0.2,0.4,1,0.9
					c1.4,0.9,7.1,3.6,22.6-0.5c-0.5-3.6-0.3-8.1,1.3-13.4C254.2,313.6,244,319,238.8,320.2"/>
				<path id="Fill-12_1_" sketch:type="MSShapeGroup" class="st4" d="M249.2,370.7L249.2,370.7c-7.5,0-13.1-4.8-14.6-12.5
					c-0.9-5,0.8-10.6,5-15.6c5.4-6.5,14-11.3,20.4-11.3c1.4,0,2.8,0.2,3.9,0.7c4.2,1.7,7.4,5.8,8.5,11c1.4,7-1,14.5-6.6,20
					C261.1,367.9,255,370.7,249.2,370.7L249.2,370.7z M260.1,338.3c-3.7,0-10.5,3.4-15.1,8.8c-1.6,2-4.3,5.9-3.5,9.9
					c1.1,5.6,4.8,6.8,7.8,6.8c3.9,0,8.3-2.1,11.8-5.6c3.9-3.9,5.6-9,4.7-13.7c-0.6-2.9-2.2-5.2-4.3-6
					C261.1,338.3,260.6,338.3,260.1,338.3L260.1,338.3z"/>
				<path id="Fill-13_1_" sketch:type="MSShapeGroup" class="st8" d="M490.4,325.6c-3.9-10.9-8.6-20.9-14.1-29.9
					c-8.3-4-17.6-10-27.9-18.7l-0.8-0.7c-11.4-9.5-9.8-13.8-9.3-15.2c0.4-1.1,1.1-2,2.1-2.7c-15.4-9.9-33.1-15.4-52.4-15.9
					c-48-1.5-90,18.9-112.5,54.6c-6.1,9.7-8.3,18.6-6.1,25.6c1.6,5.1,5.1,8.3,7.7,9.4c4.4,1.9,32.1-7.7,40.2-22.4
					c0.5-0.8,1.2-1.4,2.2-1.7c0.9-0.2,1.9-0.1,2.7,0.4c19,11.7,40.3,6.3,58.7,0.4c1.8-0.6,3.8,0.4,4.4,2.2c0.3,1,0.2,2-0.3,2.8
					c12.2-0.3,24.5,1.5,35.3,5.8c1.8,0.7,2.7,2.7,1.9,4.5c-0.7,1.8-2.7,2.7-4.5,1.9c-26.6-10.5-62.5-5.3-81.9,11.7
					c-6.6,5.8-9.5,11.5-8.1,15.9c1.4,4.5,7.3,8.1,14.7,8.9c5.5,0.6,13.9-1.3,22.8-3.3c13.7-3,29.2-6.5,43-3.6
					c22.4,4.6,37.2,18.1,59.7,38.4l2.7,2.5c1.4,1.3,1.5,3.5,0.2,4.9c-0.7,0.8-1.6,1.1-2.6,1.1c-0.8,0-1.6-0.3-2.2-0.8
					c2.2,9.4,3.4,19.1,3.4,28.9c0,11.7-1.6,23.4-4.8,34.5c3.6,2,6.6,4.4,8.7,7.2c1.2,1.5,0.9,3.7-0.6,4.9c-1.5,1.2-3.7,0.9-4.9-0.6
					c-6-7.7-21.2-12.3-36.3-10.7c-11,1.1-30.9,6.4-42.3,28.8c0.4,1.2,0.8,2.2,1.1,3.2c5.9,20.3,4.5,32.7,0,47
					c-0.4,2.4-1.3,5.3-2.6,8.3c15.2,0,42.2-3.3,70.8-23C512.9,492.9,508.1,375.5,490.4,325.6"/>
				<path id="Fill-14_1_" sketch:type="MSShapeGroup" class="st10" d="M553.1,258.8c-1.7-0.4-5.7-0.7-20.3-0.7c-5.1,0-10.9,0-17,0.1
					c-7,0-14.4,0.1-21.9,0.1c-12.8,0-30.6-0.1-42.7-0.9c-17.9-13.5-39.2-21-62.8-21.7C338,234.1,293.9,255.5,270,293
					c-9.2,9-26.8,19.1-32.7,20.4c-2.7,0.6-4.8,2.4-5.5,4.9c-0.7,2.5,0.1,5.2,2.1,7.3c1.9,1.9,5.8,4.3,13.6,4.3
					c4.2,0,9.6-0.7,16.4-2.5c2.5,5.8,6.9,9.4,10.5,11c5,2.2,16.4-0.6,27.2-6.3c1.2-0.6,2.4-1.3,3.6-2c6.5-3.9,12.5-8.7,16.4-14.1
					c8.5,4.5,17.3,6.2,26.2,6.2c-6.2,2.8-11.8,6.3-16.5,10.4c-11.3,10-11.8,18.1-10.1,23.2c2.3,7.2,10.4,12.6,20.5,13.6
					c6.6,0.7,15.1-1.2,25-3.4c13-2.9,27.8-6.2,40.1-3.6c18.4,3.8,31.2,14,49.7,30.6c4,12.1,6.1,24.7,6.1,37.6
					c0,10.7-1.4,21.4-4.3,31.6c-8-3-17.7-4.2-27.4-3.2c-19.2,1.9-35.3,12-45.1,27.9c-7.2-14.1-59.3,2.3-55.1,20.2
					c1.1,4.8,2.2,9.3,2.9,13.5c0.8,5.1,0.6,11.4,0.4,17.4c-0.4,12-0.8,24.3,6.2,31.6c3.7,3.8,138.1,15.3,140.7-51.4
					c18.4-24.2,25.2-58,27.5-84.9c3.6-43.4-3.1-86.5-11.4-110c-2.9-8.3-6.4-16-10.2-23.2c7.7,2.6,14.2,3.4,19.3,3.4h0
					c4.6,0,9-0.6,13.3-1.9c27-8.1,38.3-28.1,38.1-36.5C557.4,261.8,555.8,259.5,553.1,258.8L553.1,258.8z M262,320.7
					c-15.5,4.1-21.2,1.5-22.6,0.5c-0.8-0.5-1-0.9-1-0.9c0,0,0.1-0.1,0.4-0.2c5.2-1.2,15.4-6.6,24.5-12.8
					C261.7,312.6,261.5,317.1,262,320.7L262,320.7z M381.5,542.4c-0.1,0.2-0.1,0.4-0.1,0.6c-0.2,0.9-4.4,23.1-25.5,23.1
					c-4.2,0-7.1-1-9-2.9c-4.3-4.5-4-14.8-3.6-24.9c0.2-6.5,0.4-13.1-0.5-19.1c-0.7-4.6,35.3-31.1,38.7-18.8
					C386.8,518.9,385.6,529.4,381.5,542.4L381.5,542.4z M490.4,325.6c17.7,49.8,22.4,167.2-31.8,204.6c-28.6,19.7-55.6,23.1-70.8,23
					c1.3-3,2.1-5.9,2.6-8.3c4.5-14.3,5.9-26.6,0-47c-0.3-0.9-0.6-2-1.1-3.2c11.3-22.5,31.3-27.7,42.3-28.8
					c15.1-1.5,30.3,3,36.3,10.7c1.2,1.5,3.3,1.8,4.9,0.6c1.5-1.2,1.8-3.3,0.6-4.9c-2.1-2.8-5.1-5.2-8.7-7.2
					c3.2-11.2,4.8-22.8,4.8-34.5c0-9.8-1.1-19.5-3.4-28.9c0.6,0.5,1.4,0.8,2.2,0.8c0.9,0,1.9-0.4,2.6-1.1c1.3-1.4,1.2-3.6-0.2-4.9
					l-2.7-2.5c-22.5-20.3-37.3-33.7-59.7-38.4c-13.8-2.9-29.3,0.6-43,3.6c-8.9,2-17.3,3.8-22.8,3.3c-7.3-0.8-13.2-4.3-14.7-8.9
					c-1.4-4.4,1.5-10,8.1-15.9c19.4-17,55.3-22.2,81.9-11.7c1.8,0.7,3.8-0.2,4.5-1.9c0.7-1.8-0.2-3.8-1.9-4.5
					c-10.8-4.3-23.1-6.1-35.3-5.8c0.5-0.8,0.6-1.8,0.3-2.8c-0.6-1.8-2.5-2.8-4.4-2.2c-18.5,5.9-39.8,11.2-58.7-0.4
					c-0.8-0.5-1.8-0.6-2.7-0.4c-0.9,0.2-1.7,0.8-2.2,1.7c-8.1,14.7-35.9,24.3-40.2,22.4c-2.6-1.1-6.1-4.3-7.7-9.4
					c-2.1-7,0-15.9,6.1-25.6c22.5-35.6,64.5-56,112.5-54.6c19.3,0.6,37,6.1,52.4,15.9c-1,0.7-1.7,1.6-2.1,2.7
					c-0.5,1.4-2.1,5.7,9.3,15.2l0.8,0.7c10.3,8.7,19.6,14.7,27.9,18.7C481.8,304.7,486.6,314.7,490.4,325.6L490.4,325.6z
					 M548.7,271.3c-4.1,8.1-14.5,18.6-31.4,23.7c-3.6,1.1-7.4,1.6-11.3,1.6h0c-11,0-29.1-4.3-53.2-24.8L452,271
					c-3.5-2.9-5.8-5.5-6.7-7c0.6-0.1,1.6-0.1,2.6,0c12.3,1,32,1.1,45.8,1.1c7.5,0,14.9,0,21.9-0.1c6.1,0,11.9-0.1,17-0.1
					c9.6,0,15.5,0.1,17.8,0.4C550.6,266.3,550.3,268.3,548.7,271.3L548.7,271.3z"/>
				<path id="Fill-15_1_" sketch:type="MSShapeGroup" class="st4" d="M314.3,291.4c-5.5,4.1-3.8,9.2,2.3,10
					c6.2,0.8,6.6,1.2,12.3-3.1c6.2-4.6,6.9-12.3,0-11.5C322,287.5,317.4,289.1,314.3,291.4"/>
				<path id="Fill-16_1_" sketch:type="MSShapeGroup" class="st4" d="M298.1,294.5c0,3.8-3.1,6.9-6.9,6.9c-3.8,0-6.9-3.1-6.9-6.9
					c0-3.8,3.1-6.9,6.9-6.9C295,287.5,298.1,290.6,298.1,294.5"/>
				<path id="Fill-17_1_" sketch:type="MSShapeGroup" class="st4" d="M378.2,275.2c0,3.8-3.1,6.9-6.9,6.9c-3.8,0-6.9-3.1-6.9-6.9
					c0-3.8,3.1-6.9,6.9-6.9C375.1,268.3,378.2,271.4,378.2,275.2"/>
				<path id="Fill-18_1_" sketch:type="MSShapeGroup" class="st4" d="M249.2,547.2L249.2,547.2c-1.8,0-3.7-0.3-5.8-0.8
					c-23.4-5.6-55.5-40.8-59.6-60.4c-1.8-8.8-0.1-16.9,4.7-22.8c4.3-5.2,10.7-8.3,17.7-8.3c6.3,0,12.7,2.4,18.5,6.8
					c11.4,8.8,30.8,47.2,34.9,56.8c1.7,4,5.2,15.9,0.4,23.3C258.5,544.3,255.3,547.2,249.2,547.2L249.2,547.2z M206.3,461.9
					c-5,0-9.4,2-12.4,5.7c-3.5,4.3-4.7,10.3-3.3,17c3.5,17.1,33.9,50.1,54.4,55.1c1.6,0.4,3,0.6,4.2,0.6c3.2,0,4.4-1.3,5-2.2
					c2.5-3.8,1.1-12.2-0.9-16.7c-5.7-13-23.7-47.1-32.8-54.1C216,463.8,211,461.9,206.3,461.9L206.3,461.9z"/>
				<g id="XMLID_47_">
					<path id="XMLID_58_" class="st0" d="M248.7,412.6c9.3-25.1,28.4-44.6,53.5-54.2c-2.5-7.3,9.7-10.7,15-12.9c0,0-14.8,2.8-22,3.4
						c-7.2,0.6-6.9-0.8-6.9-0.8c-27.1,14.8-42.4,40.2-48.9,69.7c-4.6,27.6,5,57.5,24.5,72.2C263.8,490.1,234.2,463.1,248.7,412.6z"
						/>
					<path id="XMLID_57_" class="st0" d="M242.6,385c-1.8,2.7-9.9,15.6-14.2,14.5c-8.3,27,1.3,52.6,15.1,74.8
						C228.7,446.6,228.7,413.1,242.6,385z"/>
					<path id="XMLID_56_" class="st0" d="M289.2,393.7c0,0-2.9-2.7-1.5-7.5s12.6-15.2,6.6-11.5c-6,3.7-20.2,9.6-30.7,26.4
						c-15.2,24.4-17.6,53,1.3,77C249.1,448.9,255.7,408,289.2,393.7z"/>
					<path id="XMLID_55_" class="st0" d="M329.1,501.5c-17.2,7.6-40.3,5.9-58.2-4.4c-1.1-0.6,11.4,8.9,23.5,11.1
						c12.9,2.3,25.1,1.9,35.8-0.8c0.2,0,0.6,0,0.5-0.2c-0.3-1.3-0.8-3.5-1.3-5.8C329.4,501.2,329.2,501.4,329.1,501.5z"/>
					<path id="XMLID_54_" class="st0" d="M373.2,445.5c-1.5-42.6-60.8-65.9-91.3-37.2c-30,28.1-20.3,77,17.7,88.4
						c1.4,0.3,1.8,0.3,2-0.2c-1.8-0.6-3.9-1.1-5.5-1.9c-37.1-17.9-37.2-79.2,7.7-89.7c37.3-4,57.4,23.6,55.6,51.7
						c5.3,2.8,8.6,6.1,12,9.7C372.8,459.8,373.5,453,373.2,445.5z"/>
					<path id="XMLID_51_" class="st0" d="M332.3,499.9"/>
					<path id="XMLID_50_" class="st0" d="M332.3,506.7"/>
				</g>
				<g id="XMLID_41_">
					<path id="XMLID_46_" class="st0" d="M324.7,493C324.7,493,324.7,493,324.7,493C324.7,493,324.7,493,324.7,493z"/>
					<path id="XMLID_45_" class="st0" d="M347.4,419.6c-1.5-3.5-2.4-10-10.3-11c-0.2,0-16.2,0.7-4.6,18c6.3,9.3,6.7,16.8,1.7,32.1
						c-0.3,1.2-0.6,2.3-0.8,3.3c0,0.2,1.7-2.1,7.8-6.1c2.2-7,4.2-14,5.9-21.2C347.9,431.3,348.6,425.8,347.4,419.6z"/>
					<path id="XMLID_42_" class="st0" d="M328,470.7c-6.7-16.1-12.2-30.6-16.7-48.6c4.4-0.6,9.3-1.4,6.8-4.2
						c-0.3-0.4-23.3,1.9-23.6,2c-1.8,0.3-2.1,2.4-2.1,2.4c-0.2,1.6,0.1,1.6,5.1,1.3c1.3,7.1,1.9,10.3,5.2,20.6
						c-2.3,9.8-4.8,19.8-5.1,35.5c-10.5-20.9-14.7-35.4-15.5-53.5c1.5-0.9,3.5-0.5,4.8-1.9c0.9-0.9,1.3-3,0.2-3.2
						c-4-0.9-7,2-10.6,2.7c-1.5,0-3.5,3.8-3.8,7.4c0.3,21.9,6.5,39,22.7,63.1c0.3,0.8,6.5,3.7,6.1,1.9c-1-10.2-1.7-23,3.5-45.2
						c9.3,24,19.5,41.6,19.7,42c0.2-0.1,1.4-0.9,2.7-1.7c-1.2-6.7-0.9-16.3,0.7-19.9C328.1,471.1,328,470.8,328,470.7z"/>
				</g>
			</g>
		</g>
	</g>
	<path id="XMLID_40_" class="st11" d="M334.3,571c9,9.5,36.6,9.4,51.3-5c57.4-3.1,80.8-23,88.8-32c-5.6,70.7-169.9,188.7-263.9,157
		c-63.4-21.4-59.5-76.1-37-97C204.6,565,304.3,579,334.3,571z"/>
	<path id="XMLID_39_" class="st12" d="M304.6,326.4c10.4-3.4,16.2-16.2,16.7-13.6c0.5,2.9,3,19.6,4.1,29.1c-2.1,2.8-2,2.6-3.1,5.8
		c-5.3-0.5-14.7-2-15.8-3.1C304.8,343,304.6,331.6,304.6,326.4z"/>
	<path id="XMLID_38_" class="st12" d="M322.4,312.8c-2.7,1.6-0.2,20.8,2.3,30.1c5.4-6.4,11.4-12.4,22.8-15.7
		c-0.3-2.9-0.4-4.7-0.5-8.4C329.9,317.9,325.8,313.6,322.4,312.8z"/>
	<g id="XMLID_35_">
		<path id="XMLID_37_" d="M185.1,599.2c0,0,0.5,0.1,1.4,0.4c0.9,0.3,2.2,0.7,3.8,1.4c3.3,1.4,7.7,3.6,12.8,6.8
			c2.5,1.6,5.2,3.3,7.9,5.4c2.7,2.1,5.3,4.6,8.1,7.1c2.7,2.6,5.6,5.1,8.7,7.4c3.1,2.4,6.4,4.6,9.7,6.7c3.3,2.2,6.7,4.4,9.7,6.8
			c3.1,2.4,6.1,4.9,8.9,7.3c5.7,4.9,10.4,10.2,14,15.1c1.8,2.5,3.3,4.8,4.4,7.1c1.2,2.2,2,4.3,2.5,6c0.5,1.8,0.7,3.2,0.7,4.2
			c0,0.5,0,0.9,0,1.1c0,0.2,0,0.4,0,0.4l-0.6,0.1c0,0,0-0.1-0.1-0.3c-0.1-0.2-0.2-0.6-0.4-1c-0.3-0.8-0.9-2-1.8-3.4
			c-0.9-1.4-2.1-3-3.6-4.8c-1.5-1.8-3.3-3.7-5.3-5.8c-2-2.1-4.2-4.3-6.6-6.6c-2.4-2.3-4.9-4.8-7.5-7.4c-2.6-2.6-5.3-5.2-8.1-7.9
			c-2.8-2.6-5.5-5.5-8.3-8.3c-2.8-2.8-5.7-5.5-8.8-7.9c-3-2.4-6.3-4.5-9.5-6.3c-3.2-1.8-6.4-3.5-9.2-5.4c-2.8-1.8-5.4-3.8-7.8-5.5
			c-4.7-3.5-8.6-6.6-11.2-8.8c-1.3-1.1-2.4-2-3.1-2.6c-0.7-0.6-1.1-0.9-1.1-0.9L185.1,599.2z"/>
	</g>
	<g id="XMLID_17_">
		<path id="XMLID_34_" d="M240.1,580.7c0,0,0.5,0.1,1.4,0.4c0.9,0.3,2.2,0.7,3.8,1.3c3.2,1.3,7.6,3.4,12.7,6.3
			c2.5,1.5,5.2,3.1,7.9,5.1c2.7,2,5.4,4.4,8.1,6.8c2.7,2.4,5.6,4.9,8.7,7.1c3.1,2.2,6.4,4.3,9.7,6.4c3.3,2.1,6.7,4.1,9.7,6.4
			c3.1,2.3,6.1,4.6,8.9,7c5.7,4.7,10.4,9.8,14,14.6c1.8,2.4,3.3,4.7,4.5,6.9c1.2,2.2,2,4.2,2.5,5.9c0.5,1.7,0.7,3.1,0.7,4.1
			c0,0.5,0,0.9,0,1.1c0,0.2,0,0.4,0,0.4l-0.6,0.1c0,0,0-0.1-0.1-0.3c-0.1-0.2-0.2-0.5-0.4-1c-0.3-0.8-0.9-2-1.8-3.3
			c-0.9-1.4-2.1-2.9-3.6-4.7c-1.5-1.7-3.2-3.6-5.3-5.6c-2-2-4.2-4.1-6.6-6.3c-2.4-2.2-4.9-4.6-7.5-7.1c-2.6-2.5-5.3-5-8.1-7.5
			c-2.8-2.5-5.6-5.3-8.4-7.9c-2.8-2.7-5.7-5.2-8.8-7.5c-3-2.3-6.3-4.2-9.5-5.9c-3.2-1.7-6.4-3.3-9.2-5c-2.8-1.7-5.4-3.5-7.8-5.2
			c-4.7-3.3-8.6-6.3-11.2-8.4c-2.7-2.1-4.2-3.3-4.2-3.3L240.1,580.7z"/>
	</g>
	<g id="XMLID_14_">
		<path id="XMLID_16_" d="M174.1,621.2c0,0,0.4,0.1,1.2,0.2c0.7,0.2,1.9,0.5,3.2,1c2.7,1,6.3,2.7,10.4,5.3c1,0.6,2.1,1.3,3.1,2
			c1.1,0.7,2.2,1.5,3.2,2.4c2.1,1.7,4.2,3.8,6.3,6c2.1,2.2,4.3,4.3,6.8,6.3c2.4,2,5,3.8,7.7,5.6c1.3,0.9,2.6,1.8,4,2.7
			c1.3,1,2.6,1.9,3.8,2.9c2.4,2.1,4.7,4.1,6.9,6.2c2.2,2.1,4.1,4.3,5.9,6.5c0.9,1.1,1.6,2.2,2.4,3.3c0.7,1.1,1.4,2.2,2,3.3
			c0.6,1.1,1.2,2.1,1.6,3.2c0.5,1,0.9,2,1.3,3c0.7,1.9,1.1,3.7,1.4,5.1c0.1,0.7,0.2,1.4,0.2,2c0,0.6,0,1.1,0,1.5
			c0,0.8-0.1,1.2-0.1,1.2l-0.6,0.1c0,0-0.2-0.4-0.4-1.1c-0.2-0.3-0.3-0.8-0.5-1.2c-0.3-0.5-0.5-1-0.8-1.6c-0.3-0.6-0.7-1.2-1.1-1.9
			c-0.2-0.3-0.4-0.7-0.7-1c-0.2-0.4-0.5-0.7-0.8-1.1c-1.1-1.5-2.3-3.2-3.8-4.9c-0.7-0.9-1.5-1.8-2.3-2.7c-0.8-0.9-1.6-1.9-2.6-2.9
			c-1.8-2-3.6-4.1-5.5-6.2c-1.9-2.2-3.9-4.4-6-6.7c-2.1-2.2-4.1-4.7-6.2-7.1c-2.1-2.4-4.3-4.7-6.7-6.7c-1.2-1-2.4-1.9-3.7-2.8
			c-1.3-0.9-2.6-1.6-3.9-2.4c-2.6-1.5-5.2-2.8-7.4-4.3c-2.3-1.5-4.3-3.1-6.1-4.5c-3.7-2.9-6.7-5.4-8.8-7.3c-1-0.9-1.9-1.6-2.4-2.1
			c-0.6-0.5-0.9-0.8-0.9-0.8L174.1,621.2z"/>
	</g>
	<g id="XMLID_11_">
		<path id="XMLID_13_" d="M175.8,645.8c0,0,0.3-0.5,1-1.3c0.7-0.8,1.8-2,3.2-3.4c2.8-2.8,7.2-6.4,12.6-10.3c2.7-2,5.7-4,9-6
			c3.3-2,7-3.7,10.8-5.6c3.8-1.8,7.7-3.8,11.4-6.1c3.8-2.2,7.5-4.7,11.2-7.3c3.7-2.6,7.4-5.1,11.2-7.3c3.8-2.2,7.6-4.4,11.3-6.3
			c7.5-4,14.8-6.9,21.4-8.9c3.3-1,6.3-1.7,9.1-2.2c2.8-0.5,5.2-0.7,7.3-0.6c2,0,3.7,0.3,4.7,0.6c0.5,0.1,0.9,0.3,1.2,0.4
			c0.3,0.1,0.4,0.2,0.4,0.2l-0.2,0.6c0,0-0.1,0-0.4,0c-0.3,0-0.6,0-1.2,0c-1,0-2.5,0.2-4.3,0.6c-1.8,0.4-4,1.1-6.5,2
			c-2.5,0.9-5.3,2-8.3,3.4c-3,1.3-6.2,2.8-9.7,4.4c-3.4,1.6-7,3.3-10.8,5c-3.8,1.7-7.7,3.5-11.6,5.4c-3.9,1.9-8,3.6-12.1,5.5
			c-4.1,1.8-8.1,3.8-11.9,6c-3.8,2.2-7.3,4.7-10.7,7.2c-3.3,2.6-6.5,5.1-9.6,7.3c-3.1,2.2-6.2,4-9,5.8c-5.7,3.5-10.5,6.2-13.9,8.1
			c-1.7,1-3,1.7-3.9,2.2c-0.9,0.5-1.4,0.8-1.4,0.8L175.8,645.8z"/>
	</g>
	<g id="XMLID_8_">
		<path id="XMLID_10_" d="M192.3,669.3c0,0,0.4-0.4,1.1-1.3c0.4-0.4,0.8-0.9,1.4-1.5c0.6-0.6,1.2-1.2,2-1.9c1.5-1.4,3.4-3,5.6-4.8
			c2.2-1.8,4.8-3.7,7.6-5.7c1.4-1,2.9-2,4.5-3c1.5-1,3.2-2.1,4.9-3.1c3.4-2,7.2-3.9,11.1-5.8c3.9-1.9,7.8-4,11.6-6.5
			c3.8-2.4,7.6-5.1,11.3-7.9c3.7-2.8,7.4-5.6,11.2-8.1c3.8-2.5,7.5-5,11.1-7.3c3.6-2.3,7.2-4.5,10.7-6.4c3.5-1.9,6.8-3.7,9.8-5.3
			c3.1-1.6,6-3,8.5-4.1c2.5-1.2,4.8-2.1,6.7-2.9c1.9-0.8,3.4-1.3,4.5-1.6c1-0.3,1.6-0.5,1.6-0.5l0.3,0.5c0,0-0.5,0.3-1.3,1
			c-0.9,0.6-2.2,1.5-3.8,2.7c-1.6,1.2-3.6,2.6-5.9,4.2c-2.3,1.6-4.9,3.4-7.8,5.3c-2.9,1.9-6,3.9-9.3,6.1c-3.3,2.1-6.9,4.2-10.7,6.4
			c-3.8,2.1-7.6,4.3-11.6,6.5c-2,1.1-4,2.2-6,3.2c-2.1,1-4.1,2.1-6.2,3.1c-4.1,2-8.2,4.2-12,6.6c-3.9,2.3-7.5,5-10.9,7.6
			c-3.4,2.7-6.7,5.3-9.9,7.5c-3.2,2.3-6.5,4.2-9.4,6c-2.9,1.8-5.7,3.3-8.1,4.7c-1.2,0.7-2.4,1.3-3.4,1.9c-1.1,0.6-2,1.1-2.9,1.6
			c-0.9,0.5-1.7,0.9-2.4,1.2c-0.7,0.4-1.3,0.7-1.8,1c-1,0.5-1.5,0.8-1.5,0.8L192.3,669.3z"/>
	</g>
	<g id="XMLID_5_">
		<path id="XMLID_7_" d="M212.8,683.8c0,0,0.3-0.5,1.1-1.3c0.8-0.8,1.9-1.9,3.4-3.3c3-2.7,7.6-6.3,13.3-10.1c2.9-1.9,6-4,9.4-5.9
			c3.4-1.9,7.3-3.6,11.2-5.4c3.9-1.8,7.9-3.7,11.8-6c3.9-2.2,7.8-4.7,11.6-7.2c1.9-1.2,3.9-2.5,5.8-3.7c2-1.2,3.9-2.4,5.9-3.5
			c4-2.2,7.9-4.3,11.8-6.2c3.9-1.9,7.7-3.6,11.4-5c3.7-1.4,7.3-2.6,10.7-3.5c3.4-0.9,6.5-1.6,9.4-2c2.8-0.4,5.4-0.5,7.5-0.4
			c2.1,0.1,3.7,0.5,4.8,0.9c0.5,0.2,0.9,0.4,1.2,0.5c0.3,0.1,0.4,0.2,0.4,0.2l-0.2,0.6c0,0-0.1,0-0.4,0c-0.3,0-0.7-0.1-1.2-0.1
			c-1,0-2.5,0.1-4.4,0.4c-1.9,0.4-4.2,1-6.8,1.8c-2.6,0.9-5.5,1.9-8.6,3.2c-6.2,2.5-13.4,5.9-21.2,9.2c-3.9,1.7-7.9,3.4-12,5.3
			c-4.1,1.9-8.3,3.6-12.5,5.4c-4.2,1.8-8.4,3.7-12.3,5.9c-4,2.1-7.6,4.6-11.1,7.1c-3.5,2.5-6.8,5.1-10.1,7.2c-3.3,2.1-6.5,4-9.4,5.7
			c-5.9,3.4-11,6.1-14.5,7.9c-1.8,0.9-3.2,1.6-4.1,2.1c-0.9,0.5-1.5,0.8-1.5,0.8L212.8,683.8z"/>
	</g>
	<g id="XMLID_2_">
		<path id="XMLID_4_" d="M307.9,663.3c0,0-0.5-0.1-1.4-0.4c-0.4-0.2-1-0.4-1.6-0.6c-0.6-0.3-1.3-0.6-2.1-1c-3.1-1.5-7.2-4-11.8-7.4
			c-2.3-1.7-4.8-3.6-7.2-5.8c-2.5-2.2-4.8-4.7-7.3-7.4c-2.5-2.6-5.1-5.2-8-7.6c-2.9-2.4-6-4.6-9.2-6.7c-1.6-1.1-3.2-2.1-4.8-3.2
			c-1.6-1.1-3.1-2.2-4.6-3.3c-3-2.3-5.9-4.5-8.7-6.7c-5.6-4.3-10.6-8.8-14.8-12.7c-2.1-2-4-3.7-5.6-5.4c-1.7-1.6-3.1-3-4.3-4.2
			c-1.2-1.2-2.1-2.1-2.7-2.8c-0.6-0.7-1-1-1-1l0.3-0.5c0,0,0.4,0.2,1.3,0.6c0.8,0.4,2,1,3.5,1.8c0.8,0.4,1.6,0.9,2.4,1.4
			c0.9,0.5,1.8,1.1,2.8,1.7c2,1.2,4.2,2.7,6.6,4.3c2.4,1.6,4.9,3.5,7.5,5.4c2.6,2,5.3,4.2,7.9,6.6c2.7,2.4,5.4,4.9,8.2,7.4
			c2.8,2.5,5.4,5.3,8,8.1c2.6,2.8,5.4,5.5,8.2,7.9c2.8,2.5,5.9,4.6,8.9,6.5c3,1.9,6,3.8,8.6,5.7c2.6,2,4.9,4,7.1,5.8
			c2.1,1.9,4.1,3.6,5.8,5.2c1.7,1.6,3.2,2.9,4.3,4.1c0.6,0.6,1.2,1.1,1.6,1.5c0.5,0.4,0.9,0.8,1.2,1.1c0.7,0.6,1.1,0.9,1.1,0.9
			L307.9,663.3z"/>
	</g>
</g>
</svg>
