<?xml version="1.0" encoding="utf-8"?>
<!-- Generator: Adobe Illustrator 16.0.4, SVG Export Plug-In . SVG Version: 6.00 Build 0)  -->
<!DOCTYPE svg PUBLIC "-//W3C//DTD SVG 1.1//EN" "http://www.w3.org/Graphics/SVG/1.1/DTD/svg11.dtd">
<svg version="1.1" id="Layer_1" xmlns="http://www.w3.org/2000/svg" xmlns:xlink="http://www.w3.org/1999/xlink" x="0px" y="0px"
	 width="210px" height="232px" viewBox="0 0 210 232" enable-background="new 0 0 210 232" xml:space="preserve">
<g>
	<path fill="#010101" d="M203.893,12.649c-1.294-0.323-3.403-0.478-11.888-0.478c-2.74,0-5.854,0.016-9.165,0.033
		c-3.738,0.018-7.729,0.037-11.711,0.037c-6.402,0-15.368-0.045-21.749-0.412c-10.218-7.428-21.99-11.394-35.018-11.787
		C86.136-0.822,61.144,11.382,47.609,32.359c-4.574,4.35-13.179,9.186-15.505,9.702c-3.901,0.867-6.428,4.284-6.006,8.123
		c0.304,2.767,2.271,5.876,6.66,7.321c-0.507,0.498-0.989,1.021-1.438,1.562c-2.976,3.585-4.22,7.659-3.504,11.476
		c0.145,0.766,0.344,1.496,0.6,2.191c-6.436,10.955-9.82,23.389-9.82,36.174c0,3.229,0.217,6.442,0.648,9.623
		c-1.012-0.176-2.03-0.266-3.047-0.266c-4.896,0-9.433,2.123-12.447,5.824c-3.327,4.088-4.494,9.559-3.285,15.4
		c2.463,11.902,20.492,31.965,34.867,35.416c1.416,0.338,2.768,0.512,4.018,0.512c3.846,0,7.023-1.621,8.948-4.564
		c0.61-0.938,1.052-1.93,1.358-2.945c9.811,6.768,21.151,10.957,33.166,12.174c2.604,8.494,9.592,9.91,13.952,9.91
		c6.575,0,12.254-2.674,16.306-7.602c0.365,0.006,0.732,0.01,1.101,0.01c2.779,0,6.233-0.191,10.185-0.801
		c-12.648,14.195-30.92,22.361-44.377,22.365h-0.002c-5.672,0-13.289-1.445-17.384-8.332c-5.417-9.111-14.098-14.77-22.655-14.77
		c-8.99,0-15.236,6.346-15.541,15.791c-0.166,5.113,2.514,10.672,7.748,16.078c8.805,9.094,25.879,18.27,44.18,18.27
		c4.043,0,8.006-0.453,11.777-1.346c32.43-7.68,61.486-33.646,69.938-62.203c30.954-23.648,28.5-88.658,18.243-117.646
		c-0.712-2.013-1.481-3.981-2.307-5.905c1.249,0.143,2.482,0.217,3.697,0.217c2.835,0,5.598-0.398,8.211-1.183
		c16.089-4.827,23.359-16.771,23.207-23.323C209.021,16.154,206.977,13.42,203.893,12.649"/>
	<path fill="#025784" d="M35.801,146.252c-1.615-2.967-3.369-6.023-5.09-8.77C32.188,140.543,33.887,143.477,35.801,146.252"/>
	<path fill="#3579BC" d="M150.955,88.67c-9.985-8.953-16.87-14.455-26.77-16.504c-4.949-1.022-10.608-0.31-16.066,0.761l0,0
		c-0.006,0.001-0.013,0.003-0.019,0.004c-0.915,0.18-1.824,0.369-2.724,0.562c-0.033,0.007-0.067,0.014-0.102,0.021
		c-0.91,0.196-1.811,0.396-2.695,0.592c-1.729,0.384-3.373,0.745-4.938,1.053c-3.242,0.636-6.12,1.023-8.527,0.769
		c-5.481-0.577-9.825-3.462-11.063-7.352c-0.071-0.222-0.13-0.458-0.184-0.701c-0.438-1.992-0.217-4.684,2.046-7.884
		c0.019-0.027,0.034-0.053,0.053-0.08c0.029-0.04,0.064-0.082,0.094-0.122c0.856-1.174,1.981-2.412,3.455-3.709
		c0.088-0.077,0.188-0.146,0.276-0.223h0c2.483-2.131,5.412-3.929,8.625-5.395c-4.799,0.008-9.543-0.916-14.102-3.336
		c-1.688,2.346-4.124,4.504-6.844,6.344c-0.006,0-0.013-0.002-0.019-0.002c-5.052,3.414-11.084,5.728-15.181,6.075
		c-0.048,0.004-0.094,0.006-0.142,0.01c-0.267,0.02-0.524,0.029-0.773,0.032c-0.059,0-0.119,0.002-0.177,0.002
		c-0.276-0.002-0.541-0.015-0.792-0.04c-0.05-0.005-0.096-0.014-0.145-0.02c-0.198-0.024-0.387-0.057-0.566-0.097
		c-0.066-0.015-0.133-0.029-0.196-0.046c-0.2-0.053-0.39-0.114-0.562-0.188c-0.01-0.004-0.022-0.007-0.032-0.012
		c-1.021-0.453-2.161-1.232-3.215-2.318c-0.1,0.078-0.193,0.163-0.293,0.241c1.214,1.136,2.099,2.728,2.48,4.587
		c0.417,2.029,0.209,4.13-0.52,6.107c-0.626,1.697-1.632,3.306-3.012,4.686c-2.602,2.602-5.876,4.093-8.987,4.093
		c-1.551,0-2.936-0.391-4.109-1.09c-0.061-0.037-0.126-0.068-0.187-0.106c-0.016-0.011-0.031-0.023-0.047-0.033
		c-0.386-0.25-0.748-0.533-1.082-0.852c-6.15,10.019-9.72,21.791-9.72,34.408c0,5.871,0.772,11.561,2.216,16.975
		c0.234,0.192,0.477,0.414,0.722,0.648c0.071,0.068,0.144,0.142,0.216,0.214c0.184,0.182,0.369,0.373,0.557,0.576
		c0.075,0.08,0.149,0.159,0.225,0.242c0.254,0.281,0.51,0.574,0.772,0.888c0.011,0.014,0.022,0.028,0.034,0.042
		c0.252,0.305,0.508,0.627,0.767,0.959c0.085,0.11,0.172,0.224,0.258,0.337c0.194,0.255,0.39,0.517,0.587,0.785
		c0.086,0.118,0.173,0.235,0.261,0.356c0.269,0.373,0.54,0.754,0.812,1.149c0.043,0.062,0.087,0.129,0.13,0.192
		c0.236,0.344,0.472,0.694,0.709,1.053c0.101,0.151,0.201,0.306,0.302,0.46c0.188,0.287,0.377,0.579,0.566,0.875
		c0.099,0.155,0.199,0.309,0.298,0.466c0.269,0.425,0.537,0.853,0.804,1.288c0.072,0.118,0.145,0.238,0.217,0.356
		c0.208,0.341,0.416,0.684,0.622,1.028c0.108,0.181,0.216,0.362,0.324,0.544c0.179,0.303,0.358,0.606,0.536,0.911
		c0.101,0.173,0.202,0.346,0.303,0.519c0.258,0.446,0.516,0.894,0.77,1.342c0.076,0.135,0.151,0.269,0.227,0.403
		c0.195,0.345,0.388,0.689,0.58,1.033c0.095,0.172,0.19,0.343,0.285,0.515c0.188,0.341,0.375,0.681,0.559,1.019
		c0.07,0.128,0.141,0.256,0.21,0.384c0.253,0.467,0.503,0.931,0.747,1.388c0.037,0.068,0.072,0.136,0.108,0.204
		c0.218,0.41,0.433,0.816,0.642,1.216c2.062,3.932,3.686,7.305,4.425,8.994c0.121,0.277,0.258,0.629,0.398,1.033
		C55.964,167.09,69.75,173.461,85,174.637c-0.191-2.521-0.106-5.209-0.019-7.863c0.108-3.252,0.22-6.613-0.204-9.377
		c-0.342-2.226-0.909-4.61-1.513-7.132c-0.013-0.054-0.025-0.104-0.038-0.159c-2.305-9.627-4.916-20.541,4.289-26.676
		c1.765-1.178,3.683-1.775,5.699-1.775c0.354,0,0.707,0.024,1.058,0.061c0.083,0.008,0.166,0.017,0.249,0.027
		c0.347,0.043,0.692,0.099,1.036,0.175c0.03,0.006,0.059,0.015,0.088,0.021c0.324,0.074,0.647,0.165,0.968,0.267
		c0.072,0.023,0.145,0.046,0.217,0.069c0.343,0.116,0.684,0.243,1.022,0.388c0.034,0.015,0.068,0.031,0.103,0.046
		c0.322,0.141,0.642,0.294,0.959,0.459c0.049,0.025,0.1,0.05,0.148,0.076c0.345,0.184,0.688,0.38,1.026,0.59
		c0.024,0.016,0.048,0.031,0.071,0.046c0.342,0.214,0.68,0.439,1.014,0.678c0.011,0.008,0.021,0.015,0.031,0.022
		c3.212,2.298,6.102,5.68,8.438,9.147c0.001-0.001,0.002-0.003,0.003-0.004c1.249,1.855,2.343,3.735,3.239,5.488
		c5.284-8.551,13.965-13.975,24.29-15.02c5.229-0.531,10.446,0.146,14.746,1.74c1.517-5.518,2.295-11.235,2.295-17.023
		C154.216,101.984,153.119,95.176,150.955,88.67z"/>
	<path fill="#F6891F" d="M149.901,168.371c-3.731,2.229-7.387,4.004-10.895,5.393c-11.512,21.062-36.518,37.246-58.214,37.658
		c-11.207,0.184-19.891-4.041-24.607-11.973c-5.291-8.9-13.374-12.188-18.631-10.832c-3.524,0.908-5.545,3.846-5.688,8.277
		c-0.125,3.887,3.307,9.072,9.18,13.873c10.559,8.633,28.676,15.572,45.345,11.623C115.205,215.568,141.084,193.297,149.901,168.371
		"/>
	<path fill="#F6891F" d="M33.725,49.35c-0.174,0.037-0.229,0.098-0.23,0.098c0.02-0.006,0.129,0.202,0.542,0.482
		c0.757,0.51,3.84,1.947,12.188-0.283c-0.256-1.936-0.16-4.352,0.681-7.221C42.026,45.818,36.524,48.727,33.725,49.35"/>
	<path fill="#010101" d="M39.35,171.686L39.35,171.686c-0.957,0-2.017-0.139-3.146-0.41c-12.623-3.029-29.898-21.982-32.084-32.543
		c-0.977-4.721-0.08-9.086,2.525-12.285c2.303-2.826,5.785-4.449,9.553-4.449c3.391,0,6.838,1.273,9.967,3.682
		c6.145,4.729,16.57,25.449,18.818,30.59c0.937,2.141,2.793,8.561,0.191,12.541C44.316,170.123,42.609,171.686,39.35,171.686
		 M16.197,125.73c-2.68,0-5.045,1.092-6.656,3.072c-1.885,2.314-2.512,5.572-1.768,9.176c1.902,9.189,18.236,27.014,29.299,29.668
		c0.847,0.203,1.613,0.307,2.277,0.307c1.726,0,2.367-0.678,2.7-1.186c1.349-2.064,0.584-6.553-0.485-9
		c-3.063-7.002-12.771-25.355-17.678-29.131C21.417,126.736,18.758,125.73,16.197,125.73"/>
	<g>
		<g enable-background="new    ">
			<g enable-background="new    ">
				<defs>
					<path id="SVGID_1_" enable-background="new    " d="M21.598,109.682c0.002-3.307,0.713-8.729,1.173-10.631
						c0.713-2.949,1.852-6.836,2.824-9.709c0.501-1.483,1.344-3.404,2.079-4.787c0.703-1.322,1.598-3.109,2.361-4.398
						c0.804-1.356,1.996-3.089,2.856-4.409c0.884-1.357,2.263-3.028,3.304-4.27c1.908-2.275,4.766-5.035,6.935-7.064
						c1.237-1.158,3.056-2.511,4.4-3.542c1.563-1.199,3.755-2.66,5.463-3.642c2.39-1.373,5.673-3.038,8.176-4.193
						c0.051-0.023,5.375-2.415,11.814-3.911c1.783-0.415,7.208-1.675,14.262-1.879c6.833-0.197,11.737,0.616,14.371,1.053
						c21.056,3.725,36.276,26.512,35.635,56.286c-0.747,34.666-22.714,65.722-49.158,69.643
						c26.444-3.921,48.411-34.978,49.158-69.643c0.642-29.774-14.579-52.562-35.635-56.286c0.903,0.167,3.302,0.612,5.507,1.2
						c2.423,0.646,2.423,0.646,6.271,1.94c1.046,0.352,2.415,0.897,3.428,1.338c1.483,0.646,3.442,1.554,4.889,2.28
						c0.979,0.492,4.487,2.32,8.515,5.183c2.385,1.695,5.348,4.251,7.519,6.213c0.033,0.03,3.385,3.1,6.883,7.695
						c0.954,1.253,2.157,2.979,3.009,4.304c0.806,1.256,1.761,3.005,2.513,4.294c0.786,1.348,1.635,3.255,2.252,4.688
						c0.596,1.38,1.252,3.275,1.788,4.68c0.558,1.462,1.064,3.495,1.445,5.014c0.875,3.495,0.953,4.265,1.56,10.264
						c0.183,1.801,0.218,4.228,0.089,6.034c-0.111,1.557-0.215,3.639-0.405,5.189c-0.193,1.58-0.543,3.675-0.871,5.232
						c-0.991,4.711-2.359,8.234-2.99,9.85c-0.809,2.07-2.258,5.336-4.573,9.148c-1.944,3.203-2.176,3.492-6.035,8.323
						c-0.93,1.164-2.313,2.597-3.369,3.647c-1.17,1.166-2.821,2.625-4.044,3.735c-1.354,1.23-3.312,2.701-4.82,3.735
						c-2.356,1.616-5.59,3.657-8.145,4.937c-1.894,0.949-4.476,2.097-6.43,2.913c-1.15,0.481-2.736,0.991-3.91,1.409
						c-1.284,0.458-5.097,1.526-7.531,2.009c-2.465,0.488-5.013,0.992-9.302,1.324c-4.27,0.33-8.237,0.136-8.404,0.127
						c-1.352-0.068-2.52-0.127-4.946-0.396c-2.033-0.226-4.224-0.618-4.242-0.622c-1.45-0.28-3.381-0.669-4.813-1.03
						c-1.531-0.386-3.556-0.968-5.058-1.457c-3.036-0.989-5.81-2.119-8.994-3.661c-2.985-1.446-5.932-3.167-8.758-5.115
						c-1.323-0.911-3.04-2.195-4.292-3.202c-1.151-0.925-2.601-2.262-3.713-3.234c-2.504-2.188-7.27-7.557-9.934-11.781
						c-1.515-2.401-3.081-4.885-4.872-8.903c-1.225-2.749-2.477-6.578-3.316-9.468c-0.438-1.512-0.833-3.579-1.095-5.13
						c-0.257-1.518-0.457-3.562-0.634-5.09C21.566,114.056,21.596,111.552,21.598,109.682z"/>
				</defs>
				<clipPath id="SVGID_2_">
					<use xlink:href="#SVGID_1_"  overflow="visible"/>
				</clipPath>
			</g>
			<g enable-background="new    ">
				<defs>
					<path id="SVGID_3_" enable-background="new    " d="M77.286,173.99c-1.451-0.269-3.38-0.667-4.812-1.028
						c-1.531-0.385-3.561-0.952-5.057-1.455c-4.82-1.619-7.179-2.777-10.167-4.245c-2.064-1.014-4.731-2.557-6.62-3.871
						c-1.467-1.021-3.414-2.397-4.821-3.499c-1.164-0.911-2.638-2.22-3.741-3.202c-0.593-0.528-3.725-3.379-7.117-7.676
						c-0.988-1.251-2.232-2.977-3.116-4.304c-0.828-1.243-1.81-2.979-2.585-4.255c-1.784-2.938-4.716-9.851-5.737-14.32
						c-0.681-2.981-1.362-7.01-1.715-10.047c-0.035-0.299-0.276-5.052-0.2-6.406c0.175-3.101,0.507-7.245,1.105-10.292
						c1.089-5.539,2.71-9.604,2.891-10.049c1.131-2.777,2.819-6.418,4.334-9.004c2.534-4.325,5.003-7.331,5.815-8.318
						c2.102-2.559,4.479-5.022,7.066-7.323c3.35-2.98,5.984-4.747,8.1-6.166c1.34-0.899,3.201-1.989,4.624-2.751
						c1.657-0.887,3.897-2.024,5.635-2.742c2.053-0.849,4.825-1.9,6.941-2.575c0.033-0.011,3.429-1.079,6.367-1.671
						c2.682-0.541,7.171-1.447,13.677-1.564c3.32-0.06,5.942,0.149,7.062,0.239c1.128,0.09,3.46,0.318,6.4,0.835
						c-3.459-0.612-7.075-0.709-10.804-0.239c3.729-0.471,7.345-0.373,10.804,0.239c3.1,0.598,3.424,0.66,6.56,1.48
						c1.402,0.367,3.232,0.998,4.612,1.443c2.505,0.81,6.748,2.75,7.423,3.085c1.232,0.61,2.871,1.438,4.058,2.133
						c1.63,0.953,3.768,2.288,5.326,3.354c2.415,1.652,5.421,4.163,7.589,6.127c1.272,1.153,2.909,2.769,4.012,4.085
						c1.036,1.236,2.451,2.859,3.432,4.14c0.907,1.184,2.097,2.787,2.857,4.069c0.805,1.356,1.92,3.14,2.664,4.529
						c0.707,1.32,1.574,3.121,2.169,4.495c2.283,5.276,3.265,9.669,3.273,9.713c0.965,4.374,1.347,6.558,1.592,10.269
						c0.251,3.805,0.251,3.805-0.214,10.592c-0.121,1.776-0.5,4.134-0.927,5.863c-1.503,6.079-1.562,6.316-2.955,9.838
						c-2.46,6.22-5.978,12.069-10.454,17.385c-4.279,5.082-9.622,9.708-15.452,13.378c-1.506,0.948-3.556,2.154-5.151,2.941
						c-2.263,1.117-5.353,2.46-7.696,3.398c-1.947,0.78-6.663,2.253-10.453,2.99c-1.736,0.338-3.705,0.721-6.235,1.001
						c-0.909,0.101-3.674,0.407-6.895,0.453c-3.035,0.043-5.188-0.089-7.062-0.239C81.398,174.643,78.765,174.264,77.286,173.99z"/>
				</defs>
				<clipPath id="SVGID_4_">
					<use xlink:href="#SVGID_3_"  overflow="visible"/>
				</clipPath>
				<g clip-path="url(#SVGID_4_)">
					<path fill="#FFFFFF" d="M82.324,124.775c-0.179,0.826-0.902,2.765-3.741,2.927c-8.198-0.459-15.279-0.855-15.792-11.769
						c0.243-4.791,0.707-9.514,1.367-14.104c-7.952-0.756-7.952-0.756-8.854,1.522c-1.028,7.286-1.391,10.221-1.516,18.387
						c-0.003,0.235-0.017,0.551-0.066,0.78c-0.591,2.713-2.535,2.69-3.174,2.683c-2.002-0.502-3.076-1.918-3.285-4.327
						c0.349-14.494,0.651-27.011,12.209-27.065c1.784,0.178,4.163,0.417,5.948,0.577c0.453-2.308,0.955-4.569,1.502-6.776
						c1.374-4.006,5.163-3.944,6.132-1.489c0.284,0.72,0.218,1.419,0.165,1.981c-0.411,2.213-0.788,4.481-1.13,6.794
						c1.332,0.091,2.675,0.174,4.026,0.251c3.828,0.633,3.869,4.973,1.58,6.734c-0.96,0.738-1.929,0.739-2.343,0.739l-4.22-0.258
						c-0.509,4.625-0.875,9.38-1.08,14.198c0.083,1.75,0.86,2.691,2.446,2.96C80.377,119.985,83.325,120.158,82.324,124.775
						 M99.35,111.025c1.617-17.596-11.045-38.512-29.792-39.108c-32.609,2.452-47.686,42.246-23.724,62.615
						C66.312,151.941,96.822,138.54,99.35,111.025"/>
				</g>
			</g>
		</g>
	</g>
	<path fill="#F6891F" d="M171.066,19.709c-7.43,0-18.073-0.062-24.673-0.597c-0.575-0.046-1.083-0.046-1.411-0.019
		c0.486,0.795,1.679,2.187,3.586,3.775l0.48,0.406c12.967,11.057,22.726,13.378,28.63,13.379h0.003c2.108,0,4.148-0.293,6.069-0.868
		c9.107-2.733,14.702-8.378,16.901-12.749c0.82-1.634,0.986-2.706,0.986-3.21c-1.239-0.126-4.462-0.188-9.605-0.188
		c-2.737,0-5.85,0.015-9.162,0.031C179.105,19.689,175.083,19.709,171.066,19.709"/>
	<path fill="#FED208" d="M9.541,128.803c-1.885,2.314-2.512,5.572-1.768,9.176c1.902,9.189,18.236,27.012,29.299,29.668
		c0.846,0.203,1.613,0.305,2.277,0.305c1.727,0,2.367-0.674,2.7-1.184c1.349-2.064,0.585-6.553-0.486-9
		c-3.063-7.002-12.771-25.355-17.677-29.131c-2.471-1.9-5.128-2.906-7.689-2.906C13.518,125.73,11.152,126.822,9.541,128.803"/>
	<path fill="#010101" d="M39.34,76.581L39.34,76.581c-4.066,0-7.076-2.577-7.854-6.728c-0.507-2.705,0.454-5.688,2.707-8.401
		c2.924-3.524,7.542-6.083,10.979-6.083c0.773,0,1.484,0.128,2.112,0.379c2.287,0.915,3.996,3.139,4.573,5.947
		c0.775,3.771-0.545,7.806-3.532,10.791C45.725,75.089,42.448,76.581,39.34,76.581 M45.172,59.102c-2.011,0-5.682,1.811-8.107,4.733
		c-0.887,1.069-2.312,3.181-1.91,5.33c0.571,3.045,2.59,3.685,4.186,3.685c2.096,0,4.467-1.123,6.347-3.002
		c2.096-2.097,3.036-4.863,2.515-7.402c-0.322-1.576-1.184-2.784-2.302-3.231C45.715,59.141,45.465,59.102,45.172,59.102"/>
	<path fill="#FED208" d="M169.255,52.299c-2.086-5.896-4.649-11.263-7.619-16.086c-4.46-2.174-9.479-5.381-15.009-10.097
		l-0.447-0.38c-6.116-5.094-5.271-7.422-4.995-8.188c0.222-0.612,0.614-1.092,1.156-1.451c-8.29-5.309-17.807-8.278-28.202-8.592
		C88.305,6.723,65.664,17.715,53.561,36.91c-3.308,5.249-4.451,10.02-3.303,13.799c0.836,2.752,2.754,4.449,4.143,5.067
		c2.352,1.046,17.314-4.146,21.661-12.052c0.247-0.447,0.665-0.774,1.159-0.904c0.496-0.129,1.021-0.053,1.455,0.215
		c10.207,6.281,21.682,3.41,31.633,0.227c0.985-0.313,2.031,0.227,2.346,1.209c0.169,0.527,0.084,1.07-0.177,1.514
		c6.578-0.173,13.177,0.83,18.992,3.126c0.959,0.378,1.429,1.462,1.051,2.421c-0.379,0.959-1.464,1.432-2.421,1.051
		c-14.309-5.646-33.688-2.881-44.117,6.301c-3.578,3.146-5.132,6.188-4.375,8.562c0.776,2.438,3.95,4.356,7.898,4.771
		c2.967,0.309,7.482-0.69,12.266-1.752c7.373-1.638,15.731-3.492,23.17-1.951c12.058,2.494,20.056,9.727,32.162,20.676l1.476,1.333
		c0.765,0.69,0.823,1.87,0.134,2.636c-0.368,0.408-0.876,0.615-1.385,0.615c-0.424,0-0.842-0.153-1.188-0.442
		c1.196,5.082,1.81,10.3,1.81,15.579c0,6.331-0.88,12.586-2.597,18.609c1.923,1.088,3.538,2.393,4.695,3.893
		c0.631,0.814,0.479,1.986-0.335,2.615c-0.814,0.633-1.989,0.482-2.617-0.334c-3.225-4.172-11.435-6.604-19.546-5.785
		c-5.907,0.598-16.669,3.428-22.768,15.545c0.231,0.623,0.425,1.197,0.564,1.705c3.198,10.959,2.441,17.607,0.025,25.314
		c-0.238,1.299-0.698,2.85-1.389,4.465c8.215,0.025,22.711-1.779,38.14-12.402C181.332,142.422,178.762,79.162,169.255,52.299"/>
	<path fill="#010101" d="M202.987,16.271c-0.903-0.227-3.051-0.366-10.954-0.366c-2.742,0-5.862,0.015-9.18,0.032
		c-3.762,0.019-7.777,0.039-11.787,0.039c-6.871,0-16.501-0.053-23.014-0.486c-9.649-7.262-21.105-11.332-33.803-11.717
		c-27.072-0.83-50.863,10.742-63.709,30.939C45.6,39.588,36.105,44.996,32.915,45.705c-1.476,0.328-2.591,1.319-2.983,2.65
		c-0.396,1.348,0.029,2.822,1.137,3.943c1.013,1.023,3.123,2.301,7.345,2.301c2.271,0,5.163-0.377,8.813-1.355
		c1.371,3.109,3.733,5.086,5.658,5.941c4.598,2.043,19.541-3.881,25.43-12.059c4.559,2.42,9.302,3.344,14.102,3.336
		c-3.328,1.519-6.363,3.385-8.9,5.617c-6.098,5.366-6.338,9.758-5.465,12.497c1.238,3.89,5.582,6.774,11.063,7.351
		c3.569,0.379,8.153-0.643,13.465-1.821c7.008-1.554,14.95-3.315,21.607-1.94c9.898,2.049,16.782,7.551,26.769,16.504
		c2.164,6.506,3.261,13.314,3.261,20.238c0,5.788-0.778,11.506-2.295,17.023c-4.301-1.594-9.517-2.271-14.746-1.74
		c-10.325,1.045-19.006,6.469-24.29,15.02c-3.88-7.582-11.397-17.557-19.67-17.557c-2.017,0-3.935,0.598-5.699,1.775
		c-9.205,6.135-6.594,17.047-4.289,26.674c0.617,2.582,1.201,5.021,1.551,7.293c0.425,2.764,0.312,6.125,0.205,9.377
		c-0.215,6.439-0.436,13.1,3.359,17.025c1.98,2.045,4.816,3.082,8.434,3.082c7.479,0,12.316-3.898,15.215-8.252
		c0.661,0.023,1.361,0.041,2.125,0.041c4.812,0,11.6-0.604,19.411-2.986c-11.672,18.139-33.63,31.643-52.806,32.006
		c-6.877,0.15-16.197-1.523-21.326-10.148c-6.23-10.479-16.174-14.242-22.771-12.539c-5.195,1.338-8.288,5.629-8.486,11.771
		c-0.164,5.115,3.68,11.27,10.547,16.885c9.028,7.379,23.265,13.594,37.779,13.594c3.604,0,7.227-0.385,10.788-1.229
		c31.658-7.498,59.936-33.012,67.547-60.822c17.12-12.232,22.571-36.547,24.113-54.896c1.966-23.395-1.666-46.615-6.138-59.252
		c-1.58-4.465-3.437-8.625-5.511-12.514c4.158,1.395,7.661,1.848,10.416,1.848h0.002c2.473,0,4.874-0.346,7.142-1.025
		c14.56-4.368,20.652-15.133,20.548-19.661C205.329,17.916,204.438,16.635,202.987,16.271 M46.225,49.646
		c-8.349,2.23-11.432,0.794-12.188,0.283c-0.413-0.28-0.522-0.488-0.542-0.481c0.002,0,0.057-0.062,0.23-0.099
		c2.801-0.623,8.301-3.53,13.181-6.924C46.064,45.297,45.969,47.711,46.225,49.646 M110.577,169.127
		c-0.033,0.104-0.06,0.215-0.078,0.322c-0.091,0.508-2.346,12.453-13.724,12.453c-2.248,0-3.836-0.512-4.855-1.564
		c-2.33-2.408-2.145-7.996-1.964-13.398c0.115-3.479,0.235-7.078-0.26-10.299c-0.382-2.477-1.017-5.129-1.63-7.695
		c-2.482-10.367-3.668-17.457,2.209-21.375c0.947-0.631,1.908-0.939,2.939-0.939c6.713,0,15.498,13.234,17.347,19.887
		C113.449,156.42,112.796,162.104,110.577,169.127 M86.391,222.391c-16.668,3.949-34.785-2.992-45.345-11.623
		c-5.872-4.801-9.304-9.986-9.178-13.873c0.144-4.43,2.162-7.371,5.687-8.277c5.258-1.355,13.34,1.932,18.631,10.832
		c4.718,7.932,13.399,12.156,24.606,11.973c21.697-0.412,46.703-16.596,58.215-37.658c3.507-1.389,7.162-3.162,10.895-5.393
		C141.084,193.297,115.205,215.566,86.391,222.391 M169.255,52.299c9.506,26.863,12.076,90.123-17.133,110.234
		c-15.427,10.621-29.925,12.428-38.138,12.402c0.689-1.615,1.149-3.166,1.388-4.465c2.416-7.707,3.173-14.355-0.025-25.316
		c-0.14-0.506-0.333-1.08-0.564-1.703c6.098-12.117,16.861-14.947,22.768-15.547c8.111-0.816,16.321,1.615,19.546,5.787
		c0.628,0.816,1.804,0.967,2.617,0.334c0.815-0.629,0.966-1.801,0.335-2.615c-1.157-1.498-2.771-2.805-4.694-3.893
		c1.717-6.023,2.596-12.277,2.596-18.609c0-5.279-0.614-10.497-1.81-15.579c0.348,0.289,0.766,0.442,1.188,0.442
		c0.509,0,1.017-0.207,1.385-0.615c0.69-0.766,0.63-1.945-0.134-2.637l-1.475-1.332c-12.107-10.948-20.106-18.182-32.163-20.676
		c-7.438-1.541-15.797,0.313-23.17,1.951c-4.783,1.062-9.299,2.062-12.267,1.752c-3.946-0.414-7.12-2.332-7.897-4.771
		c-0.758-2.374,0.797-5.414,4.375-8.562c10.431-9.182,29.809-11.947,44.116-6.302c0.958,0.382,2.044-0.091,2.423-1.05
		c0.378-0.959-0.093-2.043-1.052-2.421c-5.815-2.296-12.415-3.298-18.991-3.126c0.261-0.441,0.345-0.986,0.177-1.514
		c-0.315-0.982-1.361-1.522-2.348-1.209c-9.95,3.184-21.425,6.055-31.632-0.227c-0.434-0.268-0.959-0.344-1.455-0.215
		c-0.494,0.13-0.912,0.458-1.158,0.904C71.714,51.631,56.752,56.822,54.4,55.776c-1.389-0.618-3.307-2.315-4.143-5.067
		c-1.148-3.777-0.005-8.55,3.303-13.799C65.663,17.717,88.305,6.723,114.138,7.506c10.396,0.314,19.913,3.283,28.203,8.592
		c-0.542,0.359-0.935,0.838-1.157,1.451c-0.276,0.766-1.119,3.094,4.995,8.188l0.448,0.38c5.53,4.715,10.548,7.923,15.009,10.097
		C164.606,41.036,167.168,46.402,169.255,52.299 M200.652,23.037c-2.198,4.371-7.793,10.016-16.902,12.749
		c-1.919,0.575-3.961,0.868-6.069,0.868h-0.002c-5.903-0.001-15.664-2.322-28.631-13.378l-0.479-0.407
		c-1.906-1.589-3.1-2.98-3.585-3.775c0.328-0.027,0.836-0.027,1.41,0.019c6.601,0.535,17.242,0.597,24.673,0.597
		c4.016,0,8.039-0.02,11.806-0.039c3.311-0.017,6.424-0.031,9.161-0.031c5.144,0,8.366,0.062,9.605,0.188
		C201.639,20.331,201.472,21.403,200.652,23.037"/>
	<path fill="#010101" d="M74.379,33.841c-2.967,2.226-2.072,4.978,1.244,5.392c3.318,0.416,3.577,0.635,6.637-1.658
		c3.317-2.489,3.733-6.637,0-6.221C78.527,31.768,76.039,32.598,74.379,33.841"/>
	<path fill="#010101" d="M65.67,35.5c0,2.062-1.672,3.734-3.733,3.734c-2.06,0-3.731-1.672-3.731-3.734
		c0-2.061,1.672-3.732,3.731-3.732C63.998,31.768,65.67,33.439,65.67,35.5"/>
	<path fill="#010101" d="M108.803,25.133c0,2.062-1.671,3.732-3.732,3.732c-2.062,0-3.732-1.67-3.732-3.732s1.67-3.732,3.732-3.732
		C107.132,21.4,108.803,23.07,108.803,25.133"/>
	<path fill="#FED208" d="M111.215,148.951c-0.021-0.078-0.037-0.154-0.058-0.234c-0.179-0.709-0.375-1.438-0.596-2.197
		c-1.848-6.654-10.635-19.889-17.347-19.889c-1.031,0-1.992,0.309-2.939,0.939c-5.877,3.918-4.691,11.008-2.209,21.377
		c0.614,2.564,1.248,5.217,1.631,7.693c0.494,3.221,0.375,6.82,0.26,10.299c-0.181,5.402-0.366,10.99,1.963,13.398
		c1.02,1.053,2.607,1.566,4.854,1.566c0.651,0,1.265-0.049,1.856-0.123c0.18-0.023,0.35-0.057,0.525-0.086
		c0.411-0.068,0.812-0.148,1.195-0.248c0.172-0.045,0.342-0.09,0.507-0.141c0.4-0.123,0.784-0.264,1.153-0.418
		c0.107-0.047,0.222-0.084,0.326-0.133c0.475-0.217,0.925-0.455,1.348-0.715c0.041-0.025,0.078-0.057,0.119-0.082
		c0.374-0.238,0.728-0.494,1.062-0.76c0.099-0.078,0.192-0.16,0.287-0.24c0.275-0.232,0.538-0.475,0.786-0.723
		c0.084-0.084,0.17-0.166,0.251-0.25c0.279-0.295,0.543-0.596,0.789-0.902c0.028-0.035,0.061-0.068,0.088-0.104
		c0.275-0.35,0.528-0.705,0.764-1.061c0.055-0.084,0.104-0.168,0.156-0.25c0.167-0.264,0.326-0.527,0.474-0.789
		c0.069-0.125,0.137-0.25,0.203-0.373c0.114-0.217,0.222-0.43,0.324-0.643c0.064-0.133,0.131-0.268,0.19-0.4
		c0.085-0.186,0.159-0.363,0.234-0.543c0.154-0.375,0.297-0.736,0.413-1.068c0.007-0.02,0.015-0.039,0.021-0.057
		c0.083-0.238,0.157-0.465,0.222-0.676c0.282-0.92,0.41-1.562,0.431-1.672c0.018-0.107,0.045-0.219,0.076-0.322
		c1.865-5.902,2.615-10.869,1.096-18.178C111.537,150.301,111.384,149.635,111.215,148.951"/>
	<path fill="#FED208" d="M35.154,69.165c0.571,3.044,2.592,3.685,4.186,3.685c2.096,0,4.467-1.123,6.347-3.002
		c2.096-2.097,3.037-4.863,2.515-7.401c-0.322-1.577-1.184-2.785-2.302-3.231c-0.185-0.074-0.435-0.113-0.728-0.113
		c-2.011,0-5.682,1.811-8.107,4.733C36.178,64.904,34.752,67.016,35.154,69.165"/>
	<path fill="#3579BC" stroke="#010101" stroke-width="3" d="M102.604,47.018c0,0,29.142-6.061,49.6,2.898
		c0,0,14.75,3.75,20.768-6.322c0,0,24.383,38.424,4.883,94.424c-0.59,0-9-16.75-26.5-14.5c0,0,7.5-54.25-42.5-49.5
		C108.854,74.018,113.354,51.018,102.604,47.018z"/>
	<polygon fill="none" stroke="#010101" stroke-width="3" points="69.925,43.79 48.176,48.466 44.84,46.004 42.34,34.379 
		69.714,28.492 72.247,40.272 	"/>
	<polygon fill="none" stroke="#010101" stroke-width="3" points="114.505,33.47 92.82,38.132 89.09,35.754 86.59,24.129 
		113.964,18.242 116.553,30.277 	"/>
	<line fill="#FFFFFF" stroke="#010101" stroke-width="2" x1="71.479" y1="30.518" x2="85.729" y2="27.08"/>
	<g>
		<line fill="#FFFFFF" x1="116.104" y1="21.018" x2="155.104" y2="14.018"/>
		<polygon fill="#010101" points="115.662,18.557 155.104,14.018 116.545,23.478 		"/>
	</g>
</g>
</svg>
