<svg id="r2wapuu" xmlns="http://www.w3.org/2000/svg" xmlns:xlink="http://www.w3.org/1999/xlink" viewBox="0 0 231.6 346"><style>.st0{fill:#010202;} .st1{fill:#FFFFFF;} .st2{fill:#08719E;} .st3{fill:#D7DEE0;} .st4{fill:#035784;} .st5{fill:#193359;} .st6{fill:#535556;} .st7{fill:#B0BFC4;} .st8{fill:none;stroke:#984593;stroke-width:2.669;stroke-linecap:round;stroke-linejoin:round;stroke-miterlimit:10;} .st9{fill:#B3B2B2;} .st10{fill:#EBF0F2;} .st11{fill:#B8C8CD;} .st12{fill:#1487B0;} .st13{fill:#EDEDED;} .st14{clip-path:url(#SVGID_2_);fill:none;} .st15{fill:#FFD300;} .st16{fill:#F18619;} .st17{fill:#F0F1F2;} .st18{fill:#D66C12;}</style><path class="st0" d="M229.1 28c-1.1-.4-3.6-.9-13.2-1.9-3.3-.4-7.1-.8-11.1-1.2-4.6-.5-9.4-1-14.3-1.5-8.3-.9-20-2.3-27.8-3.7-10.7-10-24-16.5-39.3-18.7-32.7-4.6-63.1 6.3-81.3 29-6.6 5.2-18.9 10.5-22.8 11-1.8.2-3.3 1.3-4 2.8-.7 1.6-.3 3.4.8 4.9 1.1 1.4 3.5 3.2 8.6 3.8 2.7.3 6.2.2 10.7-.4L28.3 137l-8.8 85.9c-.3 1.6-.4 3.1-.5 4.8v.1c-.7 16.5 10.2 22.5 19.2 25.4.3 2.4 1.2 6.3 4.3 9.9L27 264.4h-.4l-.2.1c-.7.2-1.4.5-1.9 1.1l-.1.2-.3.5L.3 320.4c-.4 1-.4 2.1.1 3 .5.9 1.4 1.6 2.5 1.8 0 0 36.7 6 36.8 6H40.5l19.1-2.6 26.1 4.6-.4.8c-.5 1-.4 2.1.1 3.1s1.4 1.6 2.5 1.8l42.2 7.1.4.1h.2c.2 0 .5 0 .8-.1l77-18.6c1.1-.3 2-1 2.4-2 .4-1 .3-2.2-.2-3.1-1-1.6-23.6-38.9-27.4-44.5-.6-.9-1.6-1.5-2.8-1.6l-13.6-1.4c1.9-4.7 2.2-9.1 2.2-10.3l.2-2.2c2.8-2.3 8.6-8.6 9.7-21.3l6-78.3 3.7-5.3c.3-.4.5-1 .6-1.5.2-1 3.8-25.3 2.9-50.9-.1-3.4-.5-6.6-1.2-9.5l1.4-27.9c0-.2 0-.4-.1-.6v-.1-.1c-1.4-6-3.4-10-6.5-15.2 4.8 2.2 6.3 2 9.6 2.4 3 .3 5.9.2 8.8-.3 18.2-3.3 27-15.6 27.5-21.1.1-2.3-.9-3.9-2.6-4.6zM34.9 47.5c-10.4 1.6-13.9-.6-14.8-1.3-.5-.4-.6-.7-.6-.7s.1-.1.3-.1c3.5-.4 10.5-3.2 16.9-6.6-1.5 3.4-1.9 6.3-1.8 8.7zm27.6 4.1l-1.2.6c-.3.1-.6.3-.9.4-.4.2-.8.3-1.2.5-.3.1-.6.3-1 .4l-.9.3c-7.6-.8-13.6-1.5-16.9-1.9-.4-.8-.7-1.6-.8-2.6-.9-4.7 1.1-10.4 5.8-16.3C62.7 11.4 91.5 1.2 122.7 5.6c12.5 1.8 23.7 6.6 33 14.2-.7.4-1.2.9-1.6 1.6-.4.9-1.8 3.6 5 10.6l.5.5c6.1 6.4 11.7 11 16.8 14.2 3.4 4.7 6.4 9.9 8.6 15.1-28-1.5-58.2-3.8-85.7-6.4 9.4-.2 16.7-3 16.6-5.2-.1-1.3-1.4-2-2.7-1.8-12.5 2.5-26.8 4.5-38.3-4.5-.5-.4-1.1-.5-1.7-.5-.6.1-1.2.4-1.5.9-.4.5-.8 1.1-1.3 1.6l-.5.5-1 1c-.2.2-.4.4-.7.5-.3.3-.7.6-1.1.8-.2.2-.5.4-.8.5-.4.2-.7.5-1.1.7-.3.2-.6.3-.8.5-.4.2-.8.4-1.1.6-.2.3-.5.5-.8.6zM86.4 54c-5.6-.6-11-1.2-16.2-1.8.4-.3.8-.6 1.1-.9.2-.2.4-.3.6-.5.8-.7 1.5-1.4 2.2-2.1 3.8 2.6 8 4.3 12.3 5.3zm19 223.5l-5-10.1-.1-.1c-.1-.2-.3-.4-.5-.5-.1-.1-.3-.1-.4-.2l-14.2-2.2c1.4-1.4 2.1-2.8 2.5-3.6 6.9.9 12.9 1.5 18 2l-.3 14.7zm10.9-.3v-13.7c1.3.1 2.4.1 3.3.1.3 4.5 1.4 9 4.5 12.8l-7.8.8zM225.4 35.9c-3.2 5-10.8 11.1-22.2 13.2-2.4.4-4.9.5-7.5.2-7.1-.8-18.7-4.9-32.9-20l-.5-.6c-2.1-2.2-3.4-4-3.8-5.1.4 0 1 .1 1.7.2 7.9 1.5 20.8 3 29.8 4 4.9.5 9.7 1.1 14.3 1.5 4 .4 7.8.8 11.1 1.2 6.2.7 10.1 1.2 11.6 1.5 0 .8-.4 2.1-1.6 3.9z"/><circle class="st1" cx="66.7" cy="224.4" r="5.1"/><path class="st1" d="M26.8 196.9L24 223.7c-.2 1.1-.3 2.2-.4 3.2 2.4.8 7.4 2.2 14.5 3.7l.8.2c16.8 3.6 45.2 8.4 81 10.7l1.1-30.7c-31.3-.3-89.8-12.9-94.2-13.9zm35.5 12.5c2.5.4 5.1.9 7.9 1.3.7.1 1.2.8 1.1 1.5-.1.7-.7 1.1-1.3 1.1h-.2c-2.8-.4-5.4-.9-7.9-1.3-.7-.1-1.2-.8-1.1-1.5.1-.8.8-1.2 1.5-1.1zm-22.5-3.2c-.1.6-.7 1-1.3 1h-.3c-5.1-1.2-7.7-2-7.8-2-.7-.2-1.1-.9-.9-1.6.2-.7.9-1.1 1.6-.9 0 0 2.7.8 7.7 2 .8.1 1.2.8 1 1.5zm14.4 4.4h-.3c-2.9-.6-5.5-1.1-7.9-1.6-.7-.2-1.2-.9-1-1.6.2-.7.9-1.2 1.6-1 2.4.5 5 1 7.8 1.6.7.1 1.2.8 1.1 1.6-.1.5-.7 1-1.3 1zm21.1 22.9c-.1.6-.6 1.1-1.2 1.1H74c-8.9-.6-16.3-2.6-16.6-2.7-.6-.2-1-.7-.9-1.3l1.5-15.7c0-.4.2-.7.5-.9.3-.2.6-.3 1-.2.1 0 7.8 1.6 16 2.2.3 0 .6.2.8.4.2.3.3.6.3.9l-1.3 16.2zm10.5-17.8h-.2c-2.7-.4-5.4-.7-7.9-1.1-.7-.1-1.2-.8-1.1-1.5.1-.7.8-1.2 1.5-1.1 2.5.4 5.2.7 7.9 1.1.7.1 1.2.8 1.1 1.5-.1.6-.6 1.1-1.3 1.1zm15.9 1.9h-.1c-2.7-.3-5.4-.6-8-.9-.7-.1-1.3-.8-1.2-1.5.1-.7.8-1.3 1.5-1.2 2.6.3 5.2.6 7.9.9.7.1 1.3.7 1.2 1.5 0 .7-.6 1.2-1.3 1.2zm14.6 1.4h-.1c-2.3-.2-4.5-.4-6.6-.6-.7-.1-1.3-.7-1.2-1.5.1-.7.8-1.2 1.5-1.2l6.6.6c.7.1 1.3.7 1.2 1.4-.1.8-.7 1.3-1.4 1.3z"/><path class="st2" d="M38.8 66.5L34 120.4c3.7.9 30.3 7 56.7 9.1l5.9-57c-24.7-2.3-45.5-4.5-57.8-6z"/><path class="st1" d="M122.1 257.6c.1 6.6.2 13.4 5 18.1 2.2 2.1 5.2 3.7 9 4.7-.4-.3-.7-.7-1.1-1-6.3-6.8-4.8-17.9-4.7-18.3l7.5-88.7-12.7-2.2-3.2 84.9c.2.7.2 1.6.2 2.5z"/><path class="st3" d="M137.3 169.6l-6.2-15.9-13.2-1.9 7 15.6z"/><path class="st1" d="M126.9 101.5c0-.1.3-14.4 11.8-22.2-14.6 3.3-16.5 16-17.2 21.2l-4.4 48.4 5.4.8 4.4-48.2z"/><path class="st3" d="M167.2 257.5c1.9-2 4.6-5.7 5.9-11.9-1.7 0-3.3 0-5 .1l-.9 11.8zM126.6 278.8l-10.3 1v.7l11-1.2c-.2-.1-.5-.3-.7-.5zM96.1 183.3l19.9 2 2.6-25.6-4.1-9.1v-.1c-.1-.1-.1-.3-.1-.5v-.1l4.4-48.4-14.3-1-8.4 82.8z"/><path class="st4" d="M156.6 238.5l7.2-65.2-9.2 1.4-5.3 65z"/><path class="st5" d="M164.1 170.6l.1-.8c0-.1 0-.2.1-.3l5.4-16.3-19.4 1.6 4 17.2 9.8-1.4z"/><path class="st1" d="M165.8 118.2c1.1-.9 1.8-2.2 1.9-3.6.1-1.4-.3-2.8-1.2-3.9-.9-1.1-2.2-1.8-3.6-1.9h-.5c-1.3 0-2.5.4-3.4 1.2-1.1.9-1.8 2.2-1.9 3.6-.1 1.4.3 2.8 1.2 3.9.9 1.1 2.2 1.8 3.6 1.9 1.4.2 2.8-.2 3.9-1.2z"/><path class="st5" d="M177.1 115.4c.7-8.1-5.3-15.3-13.4-16.1-.5 0-.9-.1-1.4-.1-3.5 0-6.8 1.2-9.5 3.4-3 2.5-4.9 6.1-5.3 10-.7 8.1 5.3 15.3 13.4 16.1 8.2.9 15.5-5.1 16.2-13.3zm-22.7-2c.2-2.1 1.2-4.1 2.9-5.5 1.6-1.4 3.7-2 5.9-1.8 2.1.2 4.1 1.2 5.5 2.9 1.4 1.6 2 3.7 1.8 5.9-.2 2.1-1.2 4.1-2.9 5.5-1.5 1.2-3.3 1.9-5.1 1.9h-.7c-2.1-.2-4.1-1.2-5.5-2.9-1.5-1.8-2.1-3.9-1.9-6z"/><path class="st4" d="M171.7 128.8c-2.7 1.7-5.9 2.7-9.3 2.7-.5 0-1.1 0-1.6-.1-3.2-.3-6.1-1.4-8.5-3.1l-2.1 23.8 20-1.6 1.5-21.7z"/><path class="st3" d="M69.7 266.9c5.6 0 9.2-1.2 11.5-2.7h.1c2.1-1.3 3.1-2.8 3.6-3.7-9.1-1.3-19.5-3-31-5.4l-2.6-.5h-.1c.6 2.8 3.4 12.3 18.5 12.3zM105.3 284.6v-3.7l-16.4 1.7 14.8 2.2z"/><path class="st6" d="M116.2 323.2l13.5-37-4.3-.7-15.2 36.7zM77.3 313l6 1 10.3-28.1-4.8-.7z"/><path class="st3" d="M157.1 282.8l14.1-2.6-9.6-1c-1.2 1.4-2.7 2.6-4.5 3.6z"/><path class="st1" d="M168.4 243c1.7 0 3.5 0 5.2-.1.1-.7.2-1.4.3-2.2l2.1-27c-1.9-.1-4-.3-5.1-.4l-2.5 29.7z"/><path class="st3" d="M147.4 284.5c-.5 0-.9 0-1.4-.1-6-.3-10.9-1.2-14.8-2.9l-8.1.9 18.8 3.1 5.5-1zM82.4 266.6c-1.6.9-3.6 1.7-6 2.2l12.4-1.2-6.4-1z"/><path class="st7" d="M104.9 287.3l-1.3 12.6 6.1-13z"/><path class="st1" d="M112.1 281.7c0-.1.1-.1.1-.2l.1-.1c.1-.1.2-.2.3-.2 0 0 .1 0 .1-.1.1-.1.3-.1.5-.1h.4v-17.5c-1.6-.1-3.3-.2-5.2-.4l-.5 21.4 3.1-.3 1.1-2.5z"/><path class="st6" d="M28.4 309l13.4-37.1-4.5-.7-15 36.7z"/><path class="st3" d="M53.8 271.1l15.9-1.6c-1.4.1-2.8.1-4.2.1-5.5 0-10.1-.8-13.9-2.3l-13.9 1.2 15.9 2.6h.2zM119.4 257.7v-2.6l.4-10.7c-4.3-.3-8.5-.6-12.6-.9l-.7 16.5c0 .1 0 .2-.1.3 5.6.5 10 .7 13 .8.1-1.3.1-2.4 0-3.4zM85.3 241.2l-1.5 16.3c7.6 1.1 14.4 1.8 20.1 2.3v-.1l.7-16.6c-6.8-.5-13.2-1.2-19.3-1.9zM54.5 252.4c1.7.4 3.4.7 5 1l-1.4-16.1c-6.9-1.1-12.9-2.3-18-3.4l4.5 16.3c2.4.6 4.8 1.1 7.2 1.6l2.7.6zM81.2 257.2l1.5-16.3c-7.9-1-15.2-2-21.8-3.1l1.4 15.8v.3c6.7 1.4 13 2.4 18.9 3.3zM23.6 229.9c.2 12.2 8.2 16.9 18.2 19.7l-4.5-16.2c-6.4-1.4-11-2.7-13.7-3.5z"/><path class="st1" d="M171 210.4c1 .1 3.2.3 5.1.4l3.4-44.6-5.5 7.8-3 36.4zM102.2 287.3l-5.9-.9L85.5 316c-.2.5-.7.9-1.3.9H84l-8.8-1.4c-.4-.1-.8-.3-1-.7-.2-.4-.2-.8-.1-1.2L86 284.9l-7.1-1.1-17.7 40.7 28.4 5 10.4-22.2 2.2-20zM132.4 286.7l-14 38.4c-.2.5-.7.9-1.3.9h-.2l-8.8-1.4c-.4-.1-.8-.3-1-.7-.2-.4-.2-.8-.1-1.2l15.6-37.6-8.5-1.4-23.9 51 39.2 6.6 11-53.3-8-1.3zM44.8 272.4l-14 38.8c-.2.6-.8 1-1.4 1h-.3l-9.1-1.6c-.4-.1-.8-.3-1-.7-.2-.4-.2-.9-.1-1.3l15.5-37.8-6.6-1.1-22.6 51.4 33.7 5.5 12.9-53-7-1.2zM129.6 101.6l-4.4 48.5 5.6.8 4-44.9c0-.3 1.1-20.9 18.2-27.7h-.1c-2 0-4.2.1-6.4.1-16.5 5.1-16.9 22.5-16.9 23.2zM70.7 160.3l5.9.6c.9.1 1.8-.2 2.4-.7.7-.6 1.1-1.4 1.2-2.2l1.5-15.1c.1-.9-.2-1.8-.7-2.4-.6-.7-1.4-1.1-2.2-1.2l-5.9-.6c-.9-.1-1.8.2-2.4.7-.7.6-1.1 1.4-1.2 2.2l-1.5 15.1c-.1.9.2 1.8.7 2.4.5.7 1.3 1.1 2.2 1.2z"/><path class="st4" d="M56.9 200c0 .1-.1.2-.1.3 8.1 1.5 17.2 3 26.2 4.3l7.5-72.5c-9.3-.8-18.6-2-27-3.4L56.9 200zm7.8-43.7l1.5-15c.2-1.7 1-3.2 2.3-4.2 1.3-1.1 2.9-1.6 4.6-1.4l5.9.6c1.7.2 3.2 1 4.2 2.3 1.1 1.3 1.6 2.9 1.4 4.6l-1.5 15c-.2 1.7-1 3.2-2.3 4.2-1.1.9-2.5 1.4-4 1.4h-.7l-5.9-.6c-1.7-.2-3.2-1-4.2-2.3-1-1.3-1.4-2.9-1.3-4.6zm1.2 15.6c1.3-1.1 2.9-1.6 4.6-1.4l5.9.6c1.7.2 3.2 1 4.2 2.3 1.1 1.3 1.6 2.9 1.4 4.6l-1.5 15.1c-.3 3.2-3.1 5.7-6.3 5.7h-.6l-5.9-.6c-3.5-.4-6-3.5-5.6-6.9l1.5-15c.2-1.8 1-3.3 2.3-4.4z"/><path class="st1" d="M68 195.1l5.9.6c1.9.2 3.5-1.1 3.7-3l1.5-15c.1-.9-.2-1.8-.7-2.4-.6-.7-1.4-1.1-2.2-1.2l-5.9-.6c-.9-.1-1.8.2-2.4.7-.7.6-1.1 1.4-1.2 2.2L65 191.5c-.2 1.8 1.2 3.5 3 3.6z"/><path class="st7" d="M70.9 157.6c-.2 0-.3-.1-.5-.2-.1-.1-.2-.3-.1-.5l1.5-15.1c0-.2.1-.3.2-.5.1-.1.3-.1.4-.1l5.9.6c.2 0 .3.1.5.2.1.1.2.3.1.5l-1.5 15.1c0 .2-.1.3-.2.4-.1.1-.3.1-.4.1l-5.9-.5zM68.3 192.5c-.4 0-.6-.4-.6-.7l1.5-15.1c0-.2.1-.3.2-.4.1-.1.3-.1.4-.1l5.9.6c.2 0 .3.1.5.2.1.1.2.3.1.5l-1.5 15.1c0 .3-.3.6-.6.6l-5.9-.7z"/><path class="st3" d="M137.6 106.3l-4.1 46 7.2 18.5v.1c0 .1 0 .2.1.4v.2l-6 70.8 11.9-2.1 5.4-66.5-4.6-19.7v-.1-.1-.1-.1l2.5-27.3c-3.4-3.5-5.3-8.4-4.8-13.7.4-4.6 2.6-8.8 6.2-11.8s8.1-4.4 12.8-4c9.6.9 16.7 9.4 15.8 19-.4 4.3-2.3 8.1-5.2 10.9l-1.8 26c0 .1 0 .2-.1.3l-5.8 17.3-7.5 67.7 6.9-1.2 5.2-63.3c0-.2.1-.5.2-.7l12.6-17.8c.4-2.9 3.6-25.6 2.8-49.7-.3-9.4-2.7-16.1-7.2-20.2-3.7-3.4-8.9-5.2-15.3-6.1-25-1-27.2 27-27.2 27.3z"/><path class="st1" d="M48.5 253.9c-1.9-.4-3.8-.8-5.8-1.3.2 1.8.9 5.4 4 8.6 2.3 2.3 5.4 3.9 9.4 4.9-6.7-4.5-7.5-11.5-7.6-12.2zM104.3 249l.2-5.8c-6.7-.6-13.1-1.2-19.2-2l-.5 5.8c6.3.6 12.8 1.8 19.5 2zM119.6 249.9l.2-5.6c-4.3-.3-8.5-.6-12.6-.9l-.2 5.6c6.1.4 11.1 1 12.6.9zM82.1 246.8l.5-5.9c-7.9-1-15.2-2-21.8-3.1l.5 6.1c6.6 1.1 13.5 2.1 20.8 2.9zM38.8 239.1l-1.6-5.8c-6.3-1.4-10.9-2.6-13.7-3.5 0 1.9.4 4.1.8 5.7 4.1 1.3 8.9 2.2 14.5 3.6zM58.7 243.4l-.5-6c-6.9-1.1-12.9-2.3-18-3.4l1.6 5.9c5.1 1.2 10.8 2.4 16.9 3.5z"/><path class="st3" d="M77.1 281.5s0-.1.1-.1c.1-.1.2-.2.4-.3.1-.1.3-.1.5-.1l24.9-2.5-4.5-9.1-43.9 4.3-12.8 52.8 16.8-2.3L77 281.8c0-.1.1-.2.1-.3z"/><path class="st7" d="M77 281.8c0-.1.1-.1.1-.2 0 0 0-.1.1-.1.1-.1.2-.2.4-.3.1-.1.3-.1.5-.1l24.9-2.5-2.7-5.4-28.8 3.1-20.6 49.1 7.6-1L77 281.8z"/><path class="st3" d="M134.3 245l-1.4 16.4c0 .2-1.4 10.3 4 16.2 2.2 2.4 5.3 3.8 9.2 4.2 1.4.1 2.8.1 4.3 0 4.4-.3 7.3-2.2 9.3-4.7 0-.1.1-.2.2-.3 3.9-5 4-12.2 4-12.6l2-24.8-31.4 5.4c-.1.2-.1.2-.2.2z"/><path class="st7" d="M165.9 239.5l-7.8 1.4c-1.5 33.1-4.2 36.6-9.4 41h1.8c3.4-.2 5.9-1.4 7.8-3.1.5-.5 1.1-1 1.5-1.6 0-.1.1-.2.2-.3 3.9-5 4-12.2 4-12.6l1.9-24.8z"/><path class="st3" d="M143.1 288l-10.9 53.1 73.1-17.7-25.8-42z"/><path class="st7" d="M179.5 281.4l-47.3 59.7 73.1-17.7z"/><path class="st9" d="M110.2 322.2l8.9-6.9 10.6-29.1-4.3-.7zM77.3 313l8.6-6 7.7-21.1-4.8-.7zM22.3 307.9l8.7-6 10.8-30-4.5-.7z"/><path class="st10" d="M104.5 100.5l6.1 84.3-14.5-1.5z"/><path class="st5" d="M171.2 135.5l.5-6.6c-2.7 1.7-5.9 2.7-9.3 2.7-.5 0-1.1 0-1.6-.1-3.2-.3-6.1-1.4-8.5-3.1l-.5 6c8.2 5.7 19.4 1.1 19.4 1.1z"/><path class="st1" d="M103.3 97.8l15.7 1.1c1-6.4 4.3-20.3 21.8-22.7-14-1.1-28.2-2.3-41.6-3.5L85.7 205.1c12.9 1.8 25.5 3.2 35.5 3.2l1.5-39.4-1.9-4.2-2.3 22.3c0 .4-.2.7-.5.9-.2.2-.5.3-.8.3h-.1l-22.5-2.3c-.7-.1-1.3-.7-1.2-1.5L102 99c0-.7.7-1.3 1.3-1.2z"/><path class="st3" d="M103.2 63.7C85 62.3 68.9 60.4 56.6 59c-6.7 2.2-12.6 2.4-15 1-1-.6-1.2-.6-2.3-1.7-.3 2-.6 5.7-.6 5.7 27.3 3.3 98.1 10.3 147.2 12.8v-6.4c-21.1-.9-54.2-3.9-82.7-6.7z"/><path class="st3" d="M149.2 67.9c-15-1.2-31.1-2.8-45.9-4.2C85 62.3 68.9 60.4 56.6 59c-6.7 2.2-12.6 2.4-15 1-1-.6-1.2-.6-2.3-1.7-.3 2-.6 5.7-.6 5.7 11 1.3 28.9 3.2 49.7 5.2l60.8-1.3z"/><path class="st11" d="M136.7 66.8c18.4 1.6 36.8 3 49.9 3.5l-.3 6.3c-18.2-.9-39.7-2.5-60.5-4.2l10.9-5.6z"/><path class="st12" d="M51 67.9c-4.7-.5-8.8-1-12.3-1.4L34 120.4c1.3.3 5.5 1.3 11.6 2.5l5.4-55z"/><path class="st1" d="M42.4 124.9c-4.2-.9-6.6-1.4-8-1.7l-2.6 23.9 15.9 2.7c.8.1 1.4.9 1.2 1.7-.1.7-.8 1.2-1.5 1.2h-.2l-15.7-2.6-.8 7.9 15.3 3.1c.8.2 1.3.9 1.2 1.7-.1.7-.8 1.2-1.4 1.2h-.3l-15-3-.9 9.1 15.1 2.7c.8.1 1.3.9 1.2 1.7-.1.7-.8 1.2-1.5 1.2h-.3L29.2 173 27 194.5c.3.1 11.7 2.6 27.2 5.4v-.1l6.6-71.4c-7.2-1.2-13.5-2.5-18.4-3.5"/><path class="st13" d="M31.6 150.1l-.8 7.9 11.1 2.3.8-8.3zM31.9 147.1l11.2 1.9 2.1-23.5-10.8-2.3z"/><defs><path id="SVGID_1_" d="M45 93.7c.3-2.9 1.3-5.6 2.7-7.9l1.1 4.8 1.1-11c-3.8 3.5-6.5 8.3-7.2 13.9-.7 5.9 1 11.5 4.2 15.9l.4-3.7c-1.9-3.5-2.8-7.6-2.3-12z"/></defs><clipPath id="SVGID_2_"><use xlink:href="#SVGID_1_" overflow="visible"/></clipPath><path class="st14" d="M65.1 97.9L57 114.7c1.7.7 3.6 1.3 5.6 1.5 2.3.3 4.6.1 6.8-.3 0-.1-.1-.2-.1-.3l-4.2-17.7zM45 93.7c-.5 4.3.4 8.5 2.3 12 1.6 3 3.9 5.5 6.8 7.4l-5.3-22.5-1.1-4.8c-1.4 2.4-2.4 5-2.7 7.9z"/><path class="st14" d="M64.5 95.2l-2.1-8.9c-1.1-.2-2.1-.4-2.1-.4-1.1-.2-.7-1.8.3-1.6 0 0 3.3.6 5.2.9 2.1.2 5.4.4 5.4.4 1.1.1 1 1.7-.1 1.7 0 0-1.1 0-2.3-.1l4.7 22.4 2.8-6.4c1.2-2.7 2.1-4.6 2.3-6.3.3-2.5-.4-4.3-1-5.7-.8-1.8-1.6-3.3-1.4-4.9.2-1.8 1.8-3.4 3.8-3.2h.3c-3.2-3.7-7.7-6.2-12.9-6.9-7-.8-13.6 2-17.8 7 .5.1.9.1 1.3.2 2.1.2 5.4.4 5.4.4 1.1.1 1 1.7-.1 1.7 0 0-1.1 0-2.3-.1l4.7 22.6 5.9-12.8zM83.6 90.7c-.2 2-.9 4.3-2.4 7l-8.2 17c6.4-2.8 11.1-8.7 12-16.1.4-3.5-.1-6.9-1.3-9.9 0 .6 0 1.3-.1 2z"/><path class="st14" d="M67.6 73.9c-6.7-.8-13.1 1.5-17.8 5.7l-1.1 11 5.3 22.5c-2.9-1.8-5.2-4.4-6.8-7.4l-.4 3.7c3.5 4.8 9 8.2 15.4 9 12.3 1.5 23.5-7.3 24.9-19.6 1.6-12.3-7.2-23.5-19.5-24.9zM53.8 85.3c1.2.1 2.3.1 2.3.1 1.1 0 1.2-1.6.1-1.7 0 0-3.3-.1-5.4-.4-.4 0-.8-.1-1.3-.2 4.2-5 10.8-7.9 17.8-7 5.2.6 9.7 3.2 12.9 6.9h-.3c-2-.2-3.6 1.3-3.8 3.2-.2 1.7.6 3.2 1.4 4.9.6 1.4 1.3 3.2 1 5.7-.2 1.7-1.1 3.6-2.3 6.3l-2.8 6.4-4.7-22.4c1.2.1 2.3.1 2.3.1 1.1 0 1.2-1.6.1-1.7 0 0-3.3-.1-5.4-.4-2-.2-5.2-.9-5.2-.9-1.1-.2-1.4 1.4-.3 1.6 0 0 1 .2 2.1.4l2.1 8.9-5.9 12.6-4.7-22.4zm8.8 30.9c-2-.2-3.8-.7-5.6-1.5L65.1 98l4.1 17.6c0 .1.1.2.1.3-2.1.4-4.4.5-6.7.3zM85 98.5c-.9 7.4-5.7 13.4-12 16.1l8.2-17c1.5-2.7 2.1-5 2.4-7 .1-.7.1-1.4.1-2.1 1.2 3.2 1.7 6.5 1.3 10z"/><path class="st13" d="M29.2 173l-2.1 21.5 11.2 2.3 2.2-21.8zM29.5 170.1l11.3 2 .8-8.9-11.1-2.2zM30.4 205.2c-.7-.2-1.1-.9-.9-1.6.2-.7.9-1.1 1.6-.9 0 0 2.3.7 6.5 1.7l.4-5-11.2-2.4-3.1 29.9 11.6 3.1 2-23c-4.5-1.1-6.8-1.8-6.9-1.8z"/><path class="st4" d="M73.8 221.9l.3-3.5c-1.1-.1-2.1-.2-3.2-.3 1.4.9 2.4 2.3 2.9 3.8zM64.4 217.2c-1.7-.3-3.1-.5-4-.7l-.5 4.6c.9-1.8 2.5-3.2 4.5-3.9zM59.4 226.2l-.4 3.6c.8.2 1.9.4 3.3.7-1.4-1-2.4-2.5-2.9-4.3zM68.7 231.6c1.3.2 2.8.3 4.2.5l.3-4.1c-.9 1.7-2.5 3-4.5 3.6z"/><circle class="st0" cx="66.7" cy="224.4" r="1.8"/><path class="st1" d="M175.9 78.7l10.5.5-.4 9c0-.1-3.3-6.3-10.1-9.5z"/><path class="st4" d="M66.6 54.5c-1.1.7-2.8 1.6-4.1 2.2h-.1c23.2 2.6 90.7 9.7 124.7 10.9-.3-.9-.7-2.3-1.1-3.1-39.9-2.1-84.4-5.8-119.4-10z"/><path class="st1" d="M67.6 74.8c-12-.7-22.9 8.4-24.4 20.3s6.8 23.5 18.6 25.8c11.7 2.4 22.7-6.7 24.4-20.3 1.7-13.6-6.7-25.2-18.6-25.8zM45.3 95.3c.4-2.8 1.3-5.4 2.7-7.8l5.9 27.3c-6-4.3-9.5-11.8-8.6-19.5zm16.8 23.3c-1.9-.4-3.7-1-5.3-1.9l8-17 3.7 18.6c0 .1.1.2.1.3-2.1.4-4.3.4-6.5 0zm6.5-30.2h2.2c1.1 0 1.2-1.7.1-1.7 0 0-3.2 0-5.2-.2-1.9-.2-5.1-.7-5.1-.7-1-.2-1.4 1.5-.3 1.7l2 .4 1.9 9.1-5.9 12.9-4.3-23c1.2.1 2.2 0 2.2 0 1.1 0 1.1-1.6.1-1.7 0 0-3.2 0-5.2-.2-.4 0-.8-.1-1.2-.1 4.2-5.1 10.6-8.3 17.4-7.8 5.1.3 9.4 2.7 12.4 6.5h-.2c-1.9-.2-3.5 1.6-3.7 3.5-.2 1.8.5 3.3 1.3 5.2.6 1.5 1.2 3.5.8 6.1-.2 1.8-1.1 3.9-2.3 6.8l-2.8 6.8-4.2-23.6zm14.3 1.1c1.1 3.3 1.5 7 1 10.8-1 8.1-5.8 14.5-11.9 17.2l8.3-18.1c1.5-3 2.2-5.4 2.5-7.6.1-.8.1-1.5.1-2.3z"/><path class="st15" d="M71.8 44.3c.4-.5.9-.8 1.5-.9.6-.1 1.2.1 1.7.5 11.5 9 25.8 7 38.3 4.5 1.2-.2 2.6.5 2.7 1.8.1 2.3-7.2 5-16.6 5.2 27.5 2.7 57.7 5 85.7 6.4-2.2-5.2-5.2-10.4-8.6-15.1-5.1-3.2-10.8-7.8-16.8-14.2l-.5-.5c-6.7-7-5.4-9.7-5-10.6.4-.7.9-1.2 1.6-1.6-9.3-7.5-20.5-12.4-33-14.2-31.2-4.4-60.1 5.9-77.3 27.5-4.7 5.9-6.7 11.5-5.8 16.3.6 3.4 2.7 5.8 4.3 6.7.2.1.5.2.8.2 4.4.7 21.1-3.6 27-12z"/><path class="st16" d="M20.1 46.2c.8.7 4.4 2.9 14.8 1.3-.1-2.4.4-5.3 1.8-8.7-6.4 3.5-13.4 6.2-16.9 6.6-.2 0-.3.1-.3.1 0 .1.1.3.6.7zM203.2 49.1c11.4-2.1 18.9-8.2 22.2-13.2 1.2-1.9 1.6-3.1 1.6-3.8-1.5-.3-5.4-.8-11.6-1.5-3.3-.4-7.1-.8-11.1-1.2-4.6-.5-9.4-1-14.3-1.5-9-1-21.9-2.5-29.8-4-.7-.1-1.3-.2-1.7-.2.5 1 1.7 2.9 3.8 5.1l.5.6c14.2 15.1 25.7 19.2 32.9 20 2.6.2 5.1.1 7.5-.3z"/><path class="st4" d="M116.7 16.2s-8.5 11.4-19 26.4c0 0-31.3-6.4-34.8-6.2 0 0 10.2-16.9 27.1-26.5.1 0 21.7 4.6 26.7 6.3z"/><g><path d="M106.3 20.1c-2.4-5.9-11-8-19.3-4.7S73.9 26.2 76.3 32.1c2.4 5.9 11 8 19.3 4.7 8.2-3.3 13-10.8 10.7-16.7z"/><path class="st17" d="M101.5 23.6c.1-.6-.6-1.2-1.5-1.3-.9-.1-1.6.3-1.7.9-.1.6.6 1.2 1.5 1.3.9.1 1.7-.3 1.7-.9zM96.4 22.7c-.4-2.1-3.6-3.3-7.2-2.6-3.5.7-6.1 3-5.6 5.1.4 2.1 3.6 3.3 7.2 2.6 3.5-.7 6.1-3 5.6-5.1z"/></g><g><path class="st5" d="M62.9 36.4zM62.9 36.4zM116.7 16.2s-8.5 11.4-19 26.4c0 0-5.2-1.1-11.5-2.3l-3-.6c-3.1-.6-6.3-1.2-9.2-1.7-5.4-1-9.9-1.7-11.1-1.6l.1 1.7c2.6 0 35.5 6.5 35.5 6.5s18-25.1 18.1-25.2l.1-3.2z"/></g><path class="st18" d="M218.4 42.9c3.2-2.2 5.6-4.7 7-7 1.2-1.9 1.6-3.1 1.6-3.8-1.5-.3-5.4-.8-11.6-1.5-3.3-.4-7.1-.8-11.1-1.2-4.6-.5-9.4-1-14.3-1.5-4.5-.5-10-1.1-15.3-1.8l43.7 16.8z"/><path class="st15" d="M70.2 52.2c5.2.6 10.6 1.2 16.2 1.8-4.3-1-8.5-2.7-12.3-5.3-1.2 1.3-2.5 2.4-3.9 3.5z"/></svg>