<?xml version="1.0" encoding="utf-8"?>
<!-- Generator: Adobe Illustrator 18.1.1, SVG Export Plug-In . SVG Version: 6.00 Build 0)  -->
<svg version="1.1" id="Ebene_1" xmlns="http://www.w3.org/2000/svg" xmlns:xlink="http://www.w3.org/1999/xlink" x="0px" y="0px"
	 viewBox="0 0 283.5 283.5" enable-background="new 0 0 283.5 283.5" xml:space="preserve">
<g>
	<path d="M197.7,137.8c0,44.5-36.1,80.7-80.7,80.7c-44.5,0-80.7-36.1-80.7-80.7S72.5,57.2,117,57.2
		C161.5,57.2,197.7,93.3,197.7,137.8"/>
	<g>
		<path fill="#030304" d="M117,222.7c-46.8,0-84.8-38.1-84.8-84.8S70.2,53,117,53c46.8,0,84.8,38.1,84.8,84.8S163.8,222.7,117,222.7
			z M117,61.4c-42.2,0-76.5,34.3-76.5,76.5c0,42.2,34.3,76.5,76.5,76.5s76.5-34.3,76.5-76.5C193.5,95.7,159.2,61.4,117,61.4z"/>
	</g>
	<path fill="#B2B2B2" d="M184.4,137.8c0,37.2-30.2,67.4-67.4,67.4c-37.2,0-67.4-30.2-67.4-67.4S79.8,70.5,117,70.5
		C154.2,70.5,184.4,100.6,184.4,137.8"/>
	<g>
		<path fill="#030304" d="M117,209.4c-39.5,0-71.6-32.1-71.6-71.6S77.5,66.3,117,66.3s71.6,32.1,71.6,71.6S156.5,209.4,117,209.4z
			 M117,74.6c-34.8,0-63.2,28.3-63.2,63.2c0,34.8,28.3,63.2,63.2,63.2c34.8,0,63.2-28.3,63.2-63.2C180.2,103,151.8,74.6,117,74.6z"
			/>
	</g>
	<path fill="#CD1719" d="M63,105l53.3,32.9l0.5-65.5C93.4,73.1,74.8,86.6,63,105"/>
	<path d="M116.4,134.9c0,0-11.5,6-35.3-19.5C82,115.5,98.9,114.2,116.4,134.9"/>
	<path d="M116.1,135.7c0,0-10.4-6.5,1.1-28.2C117.6,108.2,126.3,119.4,116.1,135.7"/>
	<path fill="#FDD200" d="M143.4,60.9c0,0-25.5,10.9-38.8,0c0,0-27.4,27.5-34.4,7.3c-7-20.1,25.5-44.1,25.5-44.1S159.3-17,209.6,49.9
		c50.3,66.9-8.6,151.5-8.6,151.5s-29,20.8-53.1,19.5s-1.3-45.3-1.3-45.3s25.8-33.8,51.2-11.2l-3.5-6.1c0,0,7.6-23.3,1.3-42
		c-6.4-18.7-50.3-34-72.5-20.3c-29.9-0.6-8.6-22-8.6-22s21-16.6,52.2-5.4"/>
	<g>
		<path fill="#030304" d="M150.1,223.2c-0.8,0-1.5,0-2.3-0.1c-5.2-0.3-9-2.4-11.2-6.2c-7.2-12.6,6.4-39.5,8-42.5
			c0.1-0.1,0.1-0.2,0.2-0.3c0.6-0.7,14-18.1,31.5-19.8c5.5-0.5,10.8,0.5,15.8,3.2c0.3-1.1,7.2-23.2,1.3-40.5
			c-2.5-7.4-12.2-15-25.3-19.7c-19.9-7.2-35.7-4.4-43.8,0.6c-0.4,0.2-0.8,0.3-1.3,0.3c-9.9-0.2-15.7-2.6-17.6-7.4
			c-3.1-7.7,6.3-17.5,7.4-18.6c0.1-0.1,0.1-0.1,0.2-0.2c0.3-0.2,2.7-2.1,6.9-4.1c-5.3-0.1-10.6-1.2-15.1-4.1c-1.7,1.6-4.9,4.4-8.6,7
			c-7.9,5.6-14.5,7.9-19.6,6.7c-4-0.9-6.9-3.8-8.6-8.6C60.6,47.5,93,23.3,94.3,22.3c0,0,0.1-0.1,0.1-0.1
			c0.7-0.4,16.7-10.6,39.2-12.6c20.8-1.8,51.2,3.5,77.9,38.9c11.7,15.6,18.6,33.5,20.3,53.1c1.4,15.6-0.4,32.4-5.4,49.8
			c-8.4,29.5-22.9,50.5-23.5,51.4c-0.2,0.2-0.3,0.4-0.6,0.6C201.2,204.1,174.2,223.2,150.1,223.2z M148.6,176.8
			c-4,7.8-13,29.2-8,37.9c1.4,2.4,3.8,3.7,7.4,3.9c21.7,1.1,48.1-16.6,51.3-18.8c1.9-2.8,15-22.9,22.6-49.8c4.8-16.8,6.5-33,5.2-48
			c-1.7-18.7-8.2-35.7-19.4-50.6c-11.2-14.9-24-25.5-38.1-31.5c-11.2-4.8-23.2-6.6-35.7-5.5C113.3,16,98.1,25.4,97,26.1
			c-0.7,0.6-8.3,6.3-15,14.1c-6.2,7.3-12.9,17.9-9.6,27.2c1.1,3.2,2.8,5.1,5.2,5.6c7.7,1.8,20.9-9.4,25.3-13.8
			c0.8-0.8,2.2-0.9,3.1-0.2c12.1,9.8,36.2-0.2,36.4-0.3c1.2-0.5,2.5,0,3,1.2c0.3,0.8,0.2,1.7-0.3,2.3c6.6,0,14.1,1.1,22.2,4
			c1.2,0.4,1.8,1.8,1.4,3c-0.4,1.2-1.8,1.8-3,1.4c-12.4-4.4-24.5-4.9-36.1-1.5c-8,2.4-13,5.9-13.7,6.5c-2.3,2.3-7.9,9.4-6.3,13.5
			c1.1,2.6,5.6,4.2,12.7,4.5c13.7-8.1,33.3-5.7,47.2-0.7c14.6,5.3,25.1,13.7,28.2,22.5c5.9,17.2,0.5,37.7-1,42.5l3,5.2
			c0.6,1,0.3,2.2-0.5,3c-0.9,0.7-2.2,0.7-3-0.1c-6-5.4-12.6-7.8-19.5-7.1C162,160.3,149.9,175.1,148.6,176.8z"/>
	</g>
	<path fill="#F18616" d="M185.4,34.2c0,0-13.4-11.5,10.8-10.2c24.1,1.3,55.4-0.1,55.4-0.1s10.8,0.7,4.9,10.3
		C250.6,43.8,225.8,74.9,185.4,34.2"/>
	<g>
		<path fill="#030304" d="M224.1,56.9c-12.8,0-26.4-7.1-40.3-21c-1.1-1-5.7-5.3-4.1-9.5c1.6-4.3,8.2-4.8,13-4.8c1.1,0,2.3,0,3.6,0.1
			C203,22,211,22.2,220,22.2c16.7,0,31.3-0.6,31.4-0.6l0.1,0l0.1,0c0.6,0,6,0.5,8.1,4.5c1.3,2.6,0.9,5.7-1.4,9.4
			C255.4,40.5,243.8,56.9,224.1,56.9z M192.6,26.2c-7.8,0-8.6,1.8-8.6,1.8c-0.3,0.8,1.3,3.1,2.9,4.5l0.1,0.1
			c13,13.1,25.5,19.7,37,19.7c4.4,0,19.5-1.4,30.4-19.3c1.3-2.1,1.7-3.8,1.2-4.8c-0.7-1.4-3.2-1.9-4.2-2c-1.6,0.1-15.6,0.6-31.5,0.6
			c-9.1,0-17.2-0.2-24-0.5C194.8,26.2,193.7,26.2,192.6,26.2z"/>
	</g>
	<path fill="#F18616" d="M73.3,47.5c0,0-19.5,13.6-25.5,16.8c-6,3.3,7.5,6,7.5,6s4.6,2.2,12.3-3.3C66.7,62.4,73.3,47.5,73.3,47.5"/>
	<g>
		<path fill="#030304" d="M57.8,73.1C57.8,73.1,57.8,73.1,57.8,73.1c-1.6,0-2.7-0.3-3.3-0.5c-6.7-1.4-10.2-3.4-10.6-6
			c-0.2-1.2,0.2-2.9,2.7-4.3c5.8-3.2,25.1-16.6,25.3-16.7l6.8-4.8l-3.4,7.6c-2.6,5.9-6.1,15.5-5.6,18.2l0.3,1.5l-1.2,0.9
			C64.1,72.3,60.2,73.1,57.8,73.1z M56.2,68.2c0.1,0,0.7,0.2,1.6,0.2c0,0,0,0,0,0c1.6,0,4-0.5,7.4-2.6c0.1-1.9,0.7-5.6,3-12
			c-6,4.1-14.7,9.9-18.8,12.3c1.4,0.7,3.9,1.5,6.3,2l0.3,0.1L56.2,68.2z"/>
	</g>
	<path fill="#030304" d="M89,50.3c0,2.6-2.1,4.7-4.7,4.7c-2.6,0-4.7-2.1-4.7-4.7c0-2.6,2.1-4.7,4.7-4.7C86.9,45.6,89,47.7,89,50.3"
		/>
	<path fill="#030304" d="M145.8,41.6c0,2.6-2.1,4.7-4.7,4.7c-2.6,0-4.7-2.1-4.7-4.7c0-2.6,2.1-4.7,4.7-4.7
		C143.7,36.9,145.8,39,145.8,41.6"/>
	<path fill="#030304" d="M105.5,54.5c0,0-15.2-1-4.2-9.4C108.8,42.9,121.1,42.3,105.5,54.5"/>
	<path fill="#FDD200" d="M115,218.9c0,0,3.1-13.7-1.5-31.8c-4.6-18.1-1.2-27.5,4.2-29.3c5.4-1.9,19.1,1.9,28.4,22.8
		c9.4,20.9-11.8,49-12.7,48.4C132.5,228.3,121,234.6,115,218.9"/>
	<g>
		<path fill="#030304" d="M127.7,232c-4.6,0-11-2.1-14.9-12.2l-0.3-0.7l0.2-0.7c0-0.1,2.9-13.5-1.5-30.8
			c-3.4-13.4-3.7-28.9,5.7-32.1c1.1-0.4,2.3-0.6,3.6-0.6c2.8,0,17.2,1.2,27.7,24.6c7.9,17.6-4.4,38.8-8.3,44.9
			c-4.4,6.8-5.6,6.8-6.5,6.8h-0.5c-0.1,0-0.3,0.1-0.5,0.1C131.4,231.6,129.7,232,127.7,232z M117.4,218.7c2.4,5.8,5.8,8.6,10.3,8.6
			c1.5,0,2.8-0.3,3.8-0.5c0.5-0.1,0.8-0.2,1.2-0.2c3.7-3.9,19.2-27.6,11.3-45.1c-9.5-21.2-22.1-21.8-23.5-21.8
			c-0.8,0-1.5,0.1-2.1,0.3c-4.3,1.5-6.8,10.3-2.7,26.6C119.9,202.8,118,215.6,117.4,218.7z"/>
	</g>
	<path fill="#FDD200" d="M36.6,155.2c0,0-22.1-6.2-21.2,18.2c0.9,24.4,38.4,37.7,38.4,37.7s16.9-0.3,10.1-11.8
		C57.2,187.9,36.6,155.2,36.6,155.2"/>
	<g>
		<path fill="#030304" d="M53.4,213.5l-0.4-0.1c-0.4-0.1-9.8-3.5-19.4-10c-13.1-8.8-20.2-19.1-20.6-29.9c-0.3-7.3,1.4-12.8,4.9-16.5
			c3.1-3.2,7.5-4.9,12.8-4.9c3.6,0,6.3,0.8,6.4,0.8l0.9,0.2l0.5,0.8c0.2,0.3,20.7,32.9,27.4,44.3c2.2,3.7,2.5,6.9,1,9.6
			c-3,5.3-12.1,5.7-13.1,5.7L53.4,213.5z M30.8,156.8c-4.1,0-7.3,1.2-9.5,3.4c-2.6,2.7-3.8,7.1-3.6,13.1c0.8,21.3,32.5,34,36.5,35.5
			c2.2-0.1,7.4-0.9,8.7-3.3c0.6-1.1,0.3-2.8-1-4.9c-6.1-10.3-23.6-38.2-26.8-43.4C34.2,157,32.6,156.8,30.8,156.8z"/>
	</g>
	<path fill="#FDD200" d="M89.1,251.6c0,0-20.4-33.8-39.3-19.5c-18.9,14.3,17.7,37,17.7,37s67.2,33.8,123.5-60.3l-30.2,15
		C160.7,223.8,121.1,271,89.1,251.6"/>
	<g>
		<path fill="#030304" d="M96.9,277.3c-18.1,0-30-5.9-30.5-6.1l-0.2-0.1c-1-0.6-23.5-14.7-24.2-28.7c-0.2-4.7,1.9-8.7,6.3-12.1
			c3.5-2.7,7.3-4,11.3-4c15.4,0,28.8,20.1,31.1,23.7c4.6,2.7,9.7,4,15.1,4c26.2,0,52.8-31.3,53.1-31.6l0.3-0.4l37.7-18.8l-4.1,6.8
			C159.6,265.6,122.3,277.3,96.9,277.3z M68.6,267.1c1.1,0.5,12.2,5.6,28.4,5.6c23.1,0,56.7-10.3,87.7-58.2l-22.4,11.2
			c-1.5,1.7-7.9,8.9-17.1,16.2c-14.1,11.1-27.3,16.7-39.2,16.7c-6.4,0-12.5-1.7-18-5l-0.5-0.3l-0.3-0.5
			c-0.1-0.2-13.4-21.9-27.4-21.9c-3,0-5.8,1-8.5,3.1c-3.2,2.4-4.6,5.1-4.5,8.2c0.2,4.6,4,10.4,10.9,16.6
			C62.7,263.3,67.8,266.6,68.6,267.1z"/>
	</g>
	<path fill="#FDD200" d="M79.4,77.7c1.5,4.1-3,9.3-10,11.6c-7,2.3-13.9,0.8-15.3-3.4c-1.5-4.1,3-9.3,10-11.6
		C71.1,72.1,78,73.6,79.4,77.7"/>
	<g>
		<path fill="#030304" d="M63,92.6c-5.5,0-9.8-2.3-11.1-6c-0.7-1.9-0.5-4.1,0.5-6.2c1.8-3.6,5.9-6.7,11-8.4c2.4-0.8,4.8-1.2,7.1-1.2
			c5.5,0,9.8,2.3,11.1,6c0.7,1.9,0.5,4.1-0.5,6.2c-1.8,3.6-5.9,6.7-11,8.4C67.7,92.2,65.3,92.6,63,92.6z M70.5,75.6
			c-1.8,0-3.8,0.3-5.7,0.9c-3.9,1.3-7,3.6-8.2,6c-0.5,1-0.6,1.8-0.3,2.6c0.6,1.7,3.3,2.9,6.7,2.9c1.8,0,3.8-0.3,5.7-0.9
			c3.9-1.3,7-3.6,8.2-6c0.5-1,0.6-1.8,0.3-2.6C76.6,76.8,73.9,75.6,70.5,75.6z"/>
	</g>
	<path d="M117.3,145.3c3.9,0,7-3.1,7-7s-3.1-7-7-7c-3.9,0-7,3.1-7,7S113.4,145.3,117.3,145.3"/>
</g>
<g>
	<rect x="56.6" y="136" width="26" height="3.7"/>
</g>
<g>
	<rect x="147.6" y="136" width="26" height="3.7"/>
</g>
</svg>
