<?xml version="1.0" encoding="utf-8"?>
<!-- Generator: Adobe Illustrator 18.1.1, SVG Export Plug-In . SVG Version: 6.00 Build 0)  -->
<svg version="1.1" id="Ebene_1" xmlns="http://www.w3.org/2000/svg" xmlns:xlink="http://www.w3.org/1999/xlink" x="0px" y="0px"
	 viewBox="0 0 283.5 283.5" enable-background="new 0 0 283.5 283.5" xml:space="preserve">
<g>
	<g>
		<path fill="#FDD200" d="M138.2,266.6c61.1,0,110.7-44.2,110.7-98.7s-49.6-98.7-110.7-98.7S27.5,113.4,27.5,167.9
			S77.1,266.6,138.2,266.6"/>
	</g>
	<g>
		<path fill="#030304" d="M138.2,269c-62.4,0-113.1-45.4-113.1-101.1c0-55.8,50.7-101.1,113.1-101.1c62.4,0,113.1,45.4,113.1,101.1
			C251.3,223.6,200.6,269,138.2,269z M138.2,71.6c-59.7,0-108.3,43.2-108.3,96.3c0,53.1,48.6,96.3,108.3,96.3
			c59.7,0,108.3-43.2,108.3-96.3C246.5,114.8,197.9,71.6,138.2,71.6z"/>
	</g>
	<g>
		<path fill="#FDD200" d="M142.7,127.1c48.8,0,88.3-25.8,88.3-57.6s-39.6-57.6-88.3-57.6S54.3,37.7,54.3,69.5
			S93.9,127.1,142.7,127.1"/>
	</g>
	<g>
		<path fill="#030304" d="M142.7,129.5c-24.1,0-46.7-6.1-63.8-17.3c-17.4-11.3-27-26.5-27-42.8s9.6-31.4,27-42.8
			c17.1-11.1,39.7-17.3,63.8-17.3c24.1,0,46.7,6.1,63.8,17.3c17.4,11.3,27,26.5,27,42.8s-9.6,31.4-27,42.8
			C189.4,123.4,166.7,129.5,142.7,129.5z M142.7,14.3c-47.4,0-85.9,24.8-85.9,55.2s38.5,55.2,85.9,55.2c47.4,0,85.9-24.8,85.9-55.2
			S190,14.3,142.7,14.3z"/>
	</g>
</g>
<g>
	<polygon fill="#CD1719" points="182.9,97.3 82.9,97.3 32.9,181.9 82.9,266.4 182.9,266.4 232.9,181.9 	"/>
</g>
<g>
	<g>
		<path d="M184.2,268.7H81.6l-51.4-86.8L81.6,95h102.6l51.4,86.8L184.2,268.7z M84.2,264.2h97.4l48.7-82.3l-48.7-82.3H84.2
			l-48.7,82.3L84.2,264.2z"/>
	</g>
	<g>
		<path fill="#F18616" d="M210.5,39.5c0,0-3.5-15.4,15.9-6.1c21.4,13.2,50.9,26.9,50.9,26.9s9.4,6.1-1.6,13.8
			C264.6,81.9,223.6,104.2,210.5,39.5"/>
	</g>
	<g>
		<path fill="#030304" d="M247.5,86.6c-8.9,0-16.6-3.3-23-9.9C217,69,211.5,56.6,208.1,40c-0.1-0.5-1.2-5.7,1.6-9.2
			c1-1.3,3-2.8,6.6-2.8c3,0,6.7,1.1,11.2,3.2l0.2,0.1c21,13,50.4,26.7,50.7,26.8l0.3,0.2c0.2,0.1,4.8,3.1,4.9,8
			c0.1,3.5-2.1,6.8-6.4,9.8C272.6,79.3,260.7,86.6,247.5,86.6z M216.2,32.8c-2,0-2.6,0.8-2.8,1c-1.2,1.5-0.8,4.4-0.6,5.1
			c5.8,28.5,17.4,42.9,34.7,42.9c12.2,0,23.6-7.4,26.8-9.6c2-1.4,4.4-3.5,4.3-5.8c0-2-2.1-3.6-2.6-4c-2.6-1.2-30.5-14.4-50.9-26.9
			C221.4,33.7,218.4,32.8,216.2,32.8z"/>
	</g>
	<g>
		<path fill="#F18616" d="M64.1,59.3c0,0,0.1-17-14.4-1.2S14.3,92.2,14.3,92.2s-6.3,7.2,4.5,10.9S68.3,115.2,64.1,59.3"/>
	</g>
	<g>
		<path fill="#030304" d="M34.7,108.3C34.7,108.3,34.7,108.3,34.7,108.3c-7.3,0-13.6-1.8-16.7-2.9c-4.3-1.5-6.9-3.7-7.7-6.7
			c-1.1-4.1,1.9-7.7,2.2-8.1l0.2-0.2c0.2-0.2,21.1-18.3,35.2-33.9c4.7-5.1,8.4-7.5,11.6-7.5c1.6,0,3,0.6,4.1,1.7
			c2.6,2.7,2.8,7.6,2.8,8.5c1.3,18.5-1.8,32-9.4,40.2C51.7,105.3,44.1,108.3,34.7,108.3z M16,93.9c-0.3,0.4-1.5,2.1-1.1,3.5
			c0.3,1.3,2,2.5,4.6,3.4c2.3,0.8,8.4,2.6,15.2,2.6c8,0,14.4-2.5,18.9-7.3c6.6-7.1,9.4-19.5,8.1-36.6l0-0.1l0-0.1
			c0-1.9-0.7-5.5-2.1-5.5c-0.8,0-3.2,0.6-8.1,6C37.8,74.8,18,92.2,16,93.9z"/>
	</g>
	<g>
		<path fill="#FDD200" d="M211.8,90l-24.4-5.5L111,85.6l-36.6-2.2l-3.7,19.6c0,0,34.7,30.3,68.9-3c0.9,0.9,45.1,39,78.9-0.7
			L211.8,90z"/>
	</g>
	<g>
		<path fill="#030304" d="M182.4,119.7c-19.8,0-37.1-12.2-42.7-16.5c-17.9,16.5-35.9,16.2-48,13.1c-13.3-3.5-22.2-11.2-22.6-11.5
			c-1-0.9-1.1-2.4-0.2-3.4c0.9-1,2.4-1.1,3.4-0.2l0,0c0.1,0.1,8.5,7.3,20.8,10.5c16.2,4.2,31.3-0.3,44.8-13.4c0.9-0.9,2.5-0.9,3.4,0
			c0.2,0.2,20.5,17.8,43.5,16.5c12-0.7,22.7-6.4,31.8-17.1c0.9-1,2.4-1.1,3.4-0.3c1,0.9,1.1,2.4,0.3,3.4c-10.2,12-22.3,18.3-36,18.9
			C183.7,119.7,183,119.7,182.4,119.7z"/>
	</g>
	<g>
		<path fill="#FDD200" d="M187.4,84.5"/>
	</g>
	<g>
		<path fill="#030304" d="M140.5,90.9c0,0-18.3-7.3-1.4-13.2C149.1,77.9,164.5,82,140.5,90.9"/>
	</g>
	<g>
		<path fill="#FFFFFF" d="M186.2,84.6c9.1,0,16.5-9,16.5-20.2s-7.4-20.2-16.5-20.2c-9.1,0-16.5,9-16.5,20.2S177.1,84.6,186.2,84.6"
			/>
	</g>
	<g>
		<path fill="#030304" d="M186.2,87.1c-10.4,0-18.9-10.1-18.9-22.6c0-12.5,8.5-22.6,18.9-22.6s18.9,10.1,18.9,22.6
			C205.2,76.9,196.7,87.1,186.2,87.1z M186.2,46.7c-7.8,0-14.1,8-14.1,17.8s6.3,17.8,14.1,17.8s14.1-8,14.1-17.8
			S194,46.7,186.2,46.7z"/>
	</g>
</g>
<g>
	<path fill="#FFFFFF" d="M102.6,193.2c0.1,4-1,7.5-3.1,10.4c-1.4,1.9-3.4,3.3-6,4.1c-1.4,0.4-3,0.6-4.9,0.6c-3.4,0-6.3-0.8-8.5-2.5
		c-1.9-1.4-3.4-3.3-4.5-5.7c-1.1-2.4-1.7-5.1-1.9-8.2l8.3-0.6c0.4,3.4,1.3,5.8,2.7,7.3c1,1.1,2.3,1.7,3.6,1.6c1.9-0.1,3.4-1,4.6-2.8
		c0.6-0.9,0.9-2.2,0.9-3.8c0-2.4-1.1-4.8-3.3-7.2c-1.7-1.6-4.3-4.1-7.8-7.4c-2.9-2.8-5-5.3-6.2-7.5c-1.3-2.5-1.9-5.2-1.9-8.2
		c0-5.3,1.8-9.3,5.3-12c2.2-1.6,4.9-2.5,8.1-2.5c3.1,0,5.8,0.7,8,2.1c1.7,1.1,3.1,2.6,4.2,4.5c1.1,1.9,1.7,4.2,1.9,6.7l-8.4,1.5
		c-0.2-2.4-0.9-4.2-2-5.6c-0.8-1-2-1.4-3.5-1.4c-1.6,0-2.8,0.7-3.7,2.1c-0.7,1.1-1,2.6-1,4.3c0,2.7,1.1,5.4,3.4,8.1
		c0.9,1,2.2,2.3,3.9,3.7c2,1.7,3.4,2.9,4,3.6c2.2,2.2,3.8,4.3,5,6.4c0.6,1,1,1.9,1.3,2.7C102.1,189.7,102.6,191.6,102.6,193.2z"/>
	<path fill="#FFFFFF" d="M117.9,158.5h-9.3v-8.8h27.3v8.8h-9.3v49.2h-8.7V158.5z"/>
	<path fill="#FFFFFF" d="M155.7,148.9c3.9,0,7.1,1.4,9.8,4.1c2.7,2.7,4,6,4,9.8v31.6c0,3.9-1.4,7.1-4.1,9.8c-2.7,2.7-6,4-9.8,4
		c-3.9,0-7.1-1.4-9.8-4.1c-2.7-2.7-4-6-4-9.8v-31.6c0-3.9,1.4-7.1,4.1-9.8C148.7,150.3,152,148.9,155.7,148.9z M160.5,162.6
		c0-1.4-0.5-2.6-1.5-3.5c-1-1-2.2-1.5-3.5-1.5c-1.4,0-2.6,0.5-3.6,1.5c-1,1-1.5,2.2-1.5,3.5v31.7c0,1.4,0.5,2.6,1.5,3.5
		c1,1,2.2,1.5,3.6,1.5c1.4,0,2.6-0.5,3.5-1.5c1-1,1.5-2.2,1.5-3.5V162.6z"/>
	<path fill="#FFFFFF" d="M191.1,149.7c4.3,0,7.7,1.3,10.2,4c2.3,2.6,3.5,5.8,3.5,9.8v8.4c0,3.8-1.3,7.1-4,9.8
		c-2.7,2.7-5.9,4.1-9.7,4.1h-5v21.8h-8.7v-58H191.1z M196.4,163.6c0-1.5-0.5-2.7-1.4-3.7c-0.9-0.9-2.1-1.4-3.6-1.4h-5.3v18.6h5.3
		c1.4,0,2.6-0.5,3.5-1.5c1-1,1.5-2.2,1.5-3.6V163.6z"/>
</g>
<g>
	<g>
		<path fill="#030304" d="M186.4,72.2c4.2,0,7.6-3.4,7.6-7.6c0-4.2-3.4-7.6-7.6-7.6c-4.2,0-7.6,3.4-7.6,7.6
			C178.8,68.8,182.2,72.2,186.4,72.2"/>
	</g>
	<g>
		<path fill="#FFFFFF" d="M94.8,84.6c9.1,0,16.5-9,16.5-20.2s-7.4-20.2-16.5-20.2c-9.1,0-16.5,9-16.5,20.2S85.7,84.6,94.8,84.6"/>
	</g>
	<g>
		<path fill="#030304" d="M94.8,87.1c-10.4,0-18.9-10.1-18.9-22.6c0-12.5,8.5-22.6,18.9-22.6s18.9,10.1,18.9,22.6
			C113.7,76.9,105.3,87.1,94.8,87.1z M94.8,46.7c-7.8,0-14.1,8-14.1,17.8S87,82.2,94.8,82.2s14.1-8,14.1-17.8S102.6,46.7,94.8,46.7z
			"/>
	</g>
	<g>
		<path fill="#030304" d="M95,72.2c4.2,0,7.6-3.4,7.6-7.6c0-4.2-3.4-7.6-7.6-7.6c-4.2,0-7.6,3.4-7.6,7.6
			C87.4,68.8,90.8,72.2,95,72.2"/>
	</g>
	<g>
		<path fill="#FDD200" d="M52.1,170.5c15.4,0,27.9-9.4,27.9-20.9s-12.5-20.9-27.9-20.9s-27.9,9.4-27.9,20.9S36.7,170.5,52.1,170.5"
			/>
	</g>
	<g>
		<path fill="#030304" d="M52.1,172.9c-16.7,0-30.3-10.5-30.3-23.3c0-12.9,13.6-23.3,30.3-23.3c16.7,0,30.3,10.5,30.3,23.3
			C82.4,162.5,68.8,172.9,52.1,172.9z M52.1,131.1c-14,0-25.4,8.3-25.4,18.5c0,10.2,11.4,18.5,25.4,18.5c14,0,25.4-8.3,25.4-18.5
			C77.5,139.4,66.1,131.1,52.1,131.1z"/>
	</g>
	<g>
		<path fill="#FDD200" d="M76.5,204.2c-13.7-28-35.2-45.6-48-39.3c-12.9,6.3-12.3,34.1,1.4,62.1s35.2,45.6,48,39.3
			S90.1,232.2,76.5,204.2"/>
	</g>
	<g>
		<path fill="#030304" d="M72.2,269.9C72.2,269.9,72.2,269.9,72.2,269.9c-14.2,0-32.4-17.2-44.5-41.9c-6.8-13.8-10.6-28.1-10.9-40.2
			c-0.3-12.7,3.5-21.6,10.6-25.1c2.1-1,4.3-1.5,6.8-1.5c14.1,0,32.4,17.2,44.5,41.9c6.8,13.8,10.6,28.1,10.9,40.2
			c0.3,12.7-3.5,21.6-10.6,25.1C76.9,269.4,74.6,269.9,72.2,269.9z M34.2,166c-1.7,0-3.3,0.3-4.7,1c-5.3,2.6-8.1,10.1-7.9,20.7
			c0.3,11.4,3.9,24.9,10.4,38.2c11.1,22.7,28,39.2,40.1,39.2c0,0,0,0,0,0c1.7,0,3.3-0.3,4.7-1c5.3-2.6,8.1-10.1,7.9-20.7
			c-0.3-11.4-3.9-24.9-10.4-38.2C63.2,182.5,46.4,166,34.2,166z"/>
	</g>
	<g>
		<path fill="#FDD200" d="M228.4,176.5c15.4,0,27.9-9.4,27.9-20.9s-12.5-20.9-27.9-20.9s-27.9,9.4-27.9,20.9S213,176.5,228.4,176.5"
			/>
	</g>
	<g>
		<path fill="#030304" d="M228.4,178.9c-16.7,0-30.3-10.5-30.3-23.3c0-12.9,13.6-23.3,30.3-23.3c16.7,0,30.3,10.5,30.3,23.3
			C258.7,168.5,245.1,178.9,228.4,178.9z M228.4,137.1c-14,0-25.4,8.3-25.4,18.5c0,10.2,11.4,18.5,25.4,18.5
			c14,0,25.4-8.3,25.4-18.5C253.9,145.4,242.5,137.1,228.4,137.1z"/>
	</g>
	<g>
		<path fill="#FDD200" d="M238.4,233.4c16.7-25.6,20.4-52.8,8.4-60.6c-12-7.8-35.3,6.7-51.9,32.3c-16.7,25.6-20.4,52.8-8.4,60.6
			C198.5,273.5,221.7,259.1,238.4,233.4"/>
	</g>
	<g>
		<path fill="#030304" d="M194.1,270.3C194.1,270.3,194.1,270.3,194.1,270.3c-3.4,0-6.4-0.8-9-2.5c-6.6-4.3-9.4-13.5-7.6-26
			c1.6-11.8,7.1-25.3,15.3-38c13.8-21.2,32.4-35.5,46.3-35.5c3.4,0,6.4,0.8,9,2.5c6.6,4.3,9.4,13.5,7.6,26
			c-1.6,11.8-7.1,25.3-15.3,38C226.6,256,208,270.3,194.1,270.3z M239.1,173.2c-12.1,0-29.5,13.7-42.2,33.3
			c-7.9,12.1-13,24.9-14.6,36c-1.4,10.3,0.6,18,5.5,21.2c1.8,1.1,3.9,1.7,6.3,1.7c12.1,0,29.5-13.7,42.2-33.3
			c7.9-12.1,13-24.9,14.6-36c1.4-10.3-0.6-18-5.5-21.2C243.7,173.7,241.6,173.2,239.1,173.2z"/>
	</g>
</g>
</svg>
