<?xml version="1.0" encoding="utf-8"?>
<!-- Generator: Adobe Illustrator 18.1.1, SVG Export Plug-In . SVG Version: 6.00 Build 0)  -->
<svg version="1.1" id="Ebene_1" xmlns="http://www.w3.org/2000/svg" xmlns:xlink="http://www.w3.org/1999/xlink" x="0px" y="0px"
	 viewBox="0 0 283.5 283.5" enable-background="new 0 0 283.5 283.5" xml:space="preserve">
<g>
	<path d="M203.6,136.3c0,45-36.5,81.5-81.5,81.5c-45,0-81.5-36.5-81.5-81.5s36.5-81.5,81.5-81.5C167.1,54.8,203.6,91.2,203.6,136.3"
		/>
	<g>
		<path fill="#030304" d="M122.1,222c-47.3,0-85.7-38.5-85.7-85.7c0-47.3,38.5-85.7,85.7-85.7c47.3,0,85.7,38.5,85.7,85.7
			C207.8,183.5,169.4,222,122.1,222z M122.1,59c-42.6,0-77.3,34.7-77.3,77.3s34.7,77.3,77.3,77.3s77.3-34.7,77.3-77.3
			S164.7,59,122.1,59z"/>
	</g>
	<path fill="#B2B2B2" d="M190.2,136.3c0,37.6-30.5,68.1-68.1,68.1c-37.6,0-68.1-30.5-68.1-68.1s30.5-68.1,68.1-68.1
		C159.7,68.2,190.2,98.7,190.2,136.3"/>
	<g>
		<path fill="#030304" d="M122.1,208.6c-39.9,0-72.3-32.4-72.3-72.3s32.4-72.3,72.3-72.3c39.9,0,72.3,32.4,72.3,72.3
			S162,208.6,122.1,208.6z M122.1,72.4c-35.2,0-63.9,28.6-63.9,63.9c0,35.2,28.6,63.9,63.9,63.9c35.2,0,63.9-28.6,63.9-63.9
			C186,101,157.3,72.4,122.1,72.4z"/>
	</g>
	<path fill="#CD1719" d="M83.4,85.1l38,51.3l0.5-66.2C107.7,70.1,90.2,80,83.4,85.1"/>
	<path d="M120.7,135.9c0,0-13.1,0.8-24.6-32.5C96.9,103.8,113,109.5,120.7,135.9"/>
	<path d="M123.3,134.8c0,0-11.4-4.9-3.3-28.3C120.5,107,131,116.8,123.3,134.8"/>
	<path fill="#FDD200" d="M148.8,58.5c0,0-25.7,11-39.2,0c0,0-27.6,27.7-34.7,7.4s25.7-44.5,25.7-44.5s64.3-41.6,115.1,26
		S207,200.5,207,200.5s-29.3,21-53.7,19.7c-24.4-1.3-1.3-45.8-1.3-45.8s26-34.2,51.8-11.3l-3.5-6.1c0,0,7.7-23.6,1.3-42.4
		c-6.4-18.9-50.8-34.4-73.3-20.5c-30.2-0.6-8.7-22.3-8.7-22.3s21.2-16.8,52.7-5.5"/>
	<g>
		<path fill="#030304" d="M155.5,222.5c-0.8,0-1.6,0-2.3-0.1c-5.3-0.3-9.1-2.4-11.3-6.3c-7.3-12.7,6.5-39.9,8.1-43
			c0.1-0.1,0.1-0.2,0.2-0.3c0.6-0.7,14.1-18.3,31.9-20c5.6-0.5,10.9,0.5,16,3.2c0.4-1.1,7.3-23.4,1.3-40.9
			c-2.6-7.5-12.4-15.1-25.6-19.9c-20.1-7.2-36-4.4-44.2,0.6c-0.4,0.2-0.8,0.4-1.3,0.3c-10-0.2-15.8-2.7-17.8-7.5
			c-3.1-7.8,6.4-17.7,7.5-18.8c0.1-0.1,0.1-0.1,0.2-0.2c0.3-0.2,2.7-2.1,6.9-4.2c-5.3-0.1-10.7-1.2-15.2-4.2
			c-4.2,4-16,14.1-25.8,14.1c-0.9,0-1.9-0.1-2.7-0.3c-4.1-0.9-7-3.9-8.7-8.7C65.1,45,97.8,20.5,99.2,19.5c0,0,0.1-0.1,0.1-0.1
			C100,19,116.2,8.7,138.9,6.7c13.4-1.2,26.3,0.8,38.3,5.9c15,6.4,28.5,17.6,40.4,33.3c11.9,15.8,18.8,33.8,20.5,53.6
			c1.4,15.8-0.4,32.7-5.4,50.3c-8.5,29.9-23.1,51-23.7,51.9c-0.2,0.2-0.3,0.4-0.6,0.6C207.2,203.2,179.9,222.5,155.5,222.5z
			 M154,175.6c-4,7.9-13.1,29.5-8.1,38.3c1.4,2.4,3.8,3.7,7.5,3.9c22,1.2,48.6-16.7,51.9-19c1.9-2.8,15.1-23.2,22.9-50.3
			c4.8-17,6.6-33.4,5.2-48.5c-1.7-18.9-8.3-36.1-19.6-51.2c-11.3-15-24.2-25.7-38.3-31.8c-11.3-4.8-23.4-6.7-36-5.6
			c-21,1.8-36.5,11.3-37.6,12c-0.8,0.6-8.4,6.4-15.1,14.3c-6.2,7.4-13,18.1-9.7,27.5c1.1,3.3,2.9,5.1,5.3,5.7
			c7.8,1.8,21.1-9.5,25.6-14c0.9-0.9,2.2-0.9,3.1-0.2c12.2,9.9,36.6-0.2,36.8-0.3c1.2-0.5,2.6,0,3.1,1.2c0.3,0.8,0.2,1.7-0.3,2.4
			c6.7,0,14.2,1.1,22.4,4.1c1.2,0.4,1.9,1.8,1.4,3c-0.4,1.2-1.8,1.9-3,1.4c-28.9-10.3-48.8,3.9-50.4,5c-2.3,2.3-8,9.5-6.4,13.6
			c1.1,2.7,5.6,4.3,12.9,4.5c13.9-8.1,33.7-5.7,47.7-0.7c14.8,5.3,25.4,13.8,28.5,22.8c5.9,17.4,0.5,38.1-1,42.9l3,5.2
			c0.6,1,0.3,2.3-0.6,3c-0.9,0.7-2.2,0.7-3-0.1c-6.1-5.4-12.7-7.9-19.7-7.2C167.6,159,155.3,173.9,154,175.6z"/>
	</g>
	<path fill="#F18616" d="M191.2,31.6c0,0-13.5-11.6,10.9-10.4c24.4,1.3,56-0.1,56-0.1s10.9,0.7,4.9,10.5
		C257.1,41.3,232.1,72.6,191.2,31.6"/>
	<g>
		<path fill="#030304" d="M230.3,54.5c-13,0-26.7-7.1-40.7-21.2c-1.1-1-5.7-5.4-4.1-9.6c1.6-4.4,8.2-4.9,13.1-4.9
			c1.1,0,2.4,0,3.7,0.1c6.8,0.4,14.9,0.5,24,0.5c16.9,0,31.6-0.6,31.8-0.6l0.1,0l0.1,0c0.6,0,6.1,0.5,8.2,4.6
			c1.3,2.6,0.9,5.8-1.4,9.5C261.9,37.9,250.2,54.5,230.3,54.5z M198.5,23.5c-7.9,0-8.7,1.8-8.7,1.8c-0.3,0.8,1.3,3.1,2.9,4.5
			l0.1,0.1c13.1,13.2,25.7,19.9,37.4,19.9c4.4,0,19.7-1.4,30.7-19.5c1.3-2.1,1.7-3.8,1.2-4.8c-0.7-1.4-3.2-1.9-4.2-2
			c-1.6,0.1-15.8,0.6-31.8,0.6c-9.2,0-17.3-0.2-24.3-0.6C200.7,23.5,199.6,23.5,198.5,23.5z"/>
	</g>
	<path fill="#F18616" d="M79,42.6c0,0-20.8,16.1-26.9,19.4c-6.1,3.3,7.5,6,7.5,6s4.6,2.2,12.5-3.3C71.3,60.1,79,42.6,79,42.6"/>
	<g>
		<path fill="#030304" d="M62.3,70.8C62.3,70.8,62.3,70.8,62.3,70.8c-1.6,0-2.8-0.3-3.3-0.5c-6.7-1.4-10.3-3.4-10.7-6.1
			c-0.2-1.2,0.2-2.9,2.8-4.3c5.9-3.2,26.4-19,26.6-19.2L85,35l-3.8,8.5c-3.6,8.1-7.2,18.3-6.7,20.8l0.3,1.5l-1.2,0.9
			C68.6,70.1,64.7,70.8,62.3,70.8z M60.7,65.9c0.1,0,0.7,0.2,1.6,0.2h0c1.6,0,4.1-0.5,7.4-2.6c0.1-2,0.8-5.5,3.3-12.4
			c0.2-0.5,0.3-0.9,0.5-1.4c-6.4,4.8-15.5,11.6-19.8,14c1.4,0.7,4,1.5,6.3,2l0.3,0.1L60.7,65.9z"/>
	</g>
	<path fill="#030304" d="M93.9,47.8c0,2.6-2.1,4.7-4.7,4.7c-2.6,0-4.7-2.1-4.7-4.7c0-2.6,2.1-4.7,4.7-4.7
		C91.7,43.1,93.9,45.2,93.9,47.8"/>
	<path fill="#030304" d="M151.2,39c0,2.6-2.1,4.7-4.7,4.7c-2.6,0-4.7-2.1-4.7-4.7c0-2.6,2.1-4.7,4.7-4.7
		C149.1,34.3,151.2,36.4,151.2,39"/>
	<path fill="#030304" d="M110.5,52.1c0,0-15.4-1-4.2-9.5C113.8,40.3,126.2,39.7,110.5,52.1"/>
	<path fill="#FDD200" d="M120,218.2c0,0,3.1-13.9-1.5-32.2c-4.6-18.3-1.3-27.8,4.2-29.7c5.5-1.9,19.3,1.9,28.7,23
		c9.5,21.1-11.9,49.5-12.8,48.9C137.8,227.7,126.2,234,120,218.2"/>
	<g>
		<path fill="#030304" d="M132.9,231.4c-4.7,0-11.1-2.1-15.1-12.3l-0.3-0.7l0.2-0.7c0-0.1,2.9-13.6-1.5-31.1
			c-2.2-8.9-2.8-16.3-1.7-22c1.1-5.4,3.7-9.2,7.5-10.4c1.1-0.4,2.3-0.6,3.6-0.6c2.8,0,17.4,1.2,28,24.8c8,17.8-4.4,39.2-8.4,45.4
			c-4.4,6.8-5.7,6.8-6.6,6.8h-0.5c-0.1,0-0.3,0.1-0.5,0.1C136.6,231,134.9,231.4,132.9,231.4z M122.5,218c2.4,5.9,5.8,8.7,10.4,8.7
			c1.5,0,2.8-0.3,3.8-0.5c0.5-0.1,0.8-0.2,1.2-0.2c1.6-1.8,6.2-8.3,9.6-16.5c3.3-7.9,6.2-19.3,1.8-29.1
			c-9.6-21.5-22.3-22.1-23.7-22.1c-0.8,0-1.5,0.1-2.1,0.3c-4.4,1.5-6.9,10.4-2.7,26.9C125,201.9,123.1,214.8,122.5,218z"/>
	</g>
	<path fill="#FDD200" d="M40.8,153.8c0,0-22.4-6.3-21.4,18.4c0.9,24.7,38.9,38.1,38.9,38.1s17.1-0.3,10.3-11.9
		C61.6,186.9,40.8,153.8,40.8,153.8"/>
	<g>
		<path fill="#030304" d="M57.8,212.7l-0.4-0.1C55.8,212,18,198.3,17,172.3c-0.3-7.4,1.4-13,5-16.7c3.1-3.2,7.6-4.9,13-4.9
			c3.6,0,6.4,0.8,6.5,0.8l0.9,0.2l0.5,0.8c0.2,0.3,20.9,33.3,27.7,44.7c2.2,3.7,2.5,7,1,9.7c-3,5.4-12.2,5.7-13.3,5.7L57.8,212.7z
			 M35,155.4c-4.2,0-7.4,1.2-9.6,3.5c-2.7,2.8-3.9,7.2-3.7,13.2c0.8,21.5,32.9,34.3,36.9,35.9c2.6-0.1,7.6-1,8.8-3.3
			c0.6-1.1,0.3-2.8-1-5c-6.1-10.4-23.9-38.6-27.1-43.8C38.4,155.7,36.8,155.4,35,155.4z"/>
	</g>
	<path fill="#FDD200" d="M93.9,251.3c0,0-20.6-34.2-39.7-19.7C35.1,246,72,268.9,72,268.9s75.4,29.1,132.2-66l-37.9,20.2
		C166.3,223.2,126.3,270.8,93.9,251.3"/>
	<g>
		<path fill="#030304" d="M99.4,275.5c-16.8,0-27.8-4.2-28.3-4.3L71,271l-0.2-0.1c-1-0.6-23.7-14.9-24.4-29
			c-0.2-4.7,1.9-8.8,6.4-12.2c3.5-2.7,7.4-4,11.4-4c15.6,0,29.1,20.3,31.4,23.9c4.7,2.7,9.8,4.1,15.3,4.1c26.5,0,53.4-31.7,53.7-32
			l0.3-0.3l45.8-24.4l-4.3,7.3c-16,26.7-34.9,46.2-56.4,58.1C134,271,117,275.5,99.4,275.5z M73.1,266.8c1.5,0.5,11.7,4,26.4,4
			c26.8,0,65-10.9,98.2-61.6L167.8,225c-1.5,1.7-8,9-17.3,16.4c-14.2,11.2-27.5,16.9-39.7,16.9c-6.5,0-12.6-1.7-18.2-5l-0.5-0.3
			l-0.3-0.5c-0.1-0.2-13.6-22.2-27.7-22.2c-3,0-5.8,1-8.6,3.1c-3.2,2.4-4.7,5.1-4.5,8.3C51.5,251.3,66.9,262.9,73.1,266.8z"/>
	</g>
	<path fill="#FDD200" d="M84.1,75.5c1.5,4.2-3.1,9.4-10.1,11.7c-7.1,2.3-14,0.8-15.5-3.4c-1.5-4.2,3.1-9.4,10.1-11.7
		C75.7,69.8,82.7,71.3,84.1,75.5"/>
	<g>
		<path fill="#030304" d="M67.5,90.6c-5.6,0-9.9-2.3-11.2-6c-0.7-2-0.5-4.1,0.5-6.2c1.8-3.6,5.9-6.8,11.1-8.5
			c2.4-0.8,4.9-1.2,7.2-1.2c5.6,0,9.9,2.3,11.2,6c0.7,2,0.5,4.1-0.5,6.2c-1.8,3.6-5.9,6.8-11.1,8.5C72.3,90.2,69.8,90.6,67.5,90.6z
			 M75.1,73.4c-1.9,0-3.8,0.3-5.8,1c-3.9,1.3-7.1,3.6-8.3,6.1c-0.5,1-0.6,1.8-0.3,2.6c0.6,1.7,3.3,2.9,6.8,2.9c1.9,0,3.8-0.3,5.8-1
			c3.9-1.3,7.1-3.6,8.3-6.1c0.5-1,0.6-1.8,0.3-2.6C81.3,74.5,78.6,73.4,75.1,73.4z"/>
	</g>
	<path d="M122.4,143.8c3.9,0,7.1-3.2,7.1-7.1c0-3.9-3.2-7.1-7.1-7.1s-7.1,3.2-7.1,7.1C115.3,140.6,118.5,143.8,122.4,143.8"/>
</g>
<g>
	<rect x="61.1" y="134.4" width="26.3" height="3.8"/>
</g>
<g>
	<rect x="153.1" y="134.4" width="26.3" height="3.8"/>
</g>
</svg>
