<?xml version="1.0" standalone="no"?><!DOCTYPE svg PUBLIC "-//W3C//DTD SVG 1.1//EN" "http://www.w3.org/Graphics/SVG/1.1/DTD/svg11.dtd"><svg width="100%" height="100%" viewBox="0 0 600 446" version="1.1" xmlns="http://www.w3.org/2000/svg" xmlns:xlink="http://www.w3.org/1999/xlink" xml:space="preserve" style="fill-rule:evenodd;clip-rule:evenodd;stroke-linecap:square;stroke-linejoin:round;stroke-miterlimit:1.41421;"><g><g id="レイヤー-1"><path id="Fill-1" d="M508.935,25.065c-2.493,-0.62 -6.558,-0.92 -22.903,-0.92c-5.278,0 -11.278,0.031 -17.657,0.063c-7.2,0.035 -14.887,0.074 -22.56,0.074c-12.335,0 -29.608,-0.089 -41.9,-0.793c-19.687,-14.305 -42.365,-21.94 -67.459,-22.697c-54.381,-1.665 -102.53,21.832 -128.602,62.224c-8.811,8.375 -25.389,17.687 -29.872,18.682c-7.514,1.669 -12.383,8.248 -11.57,15.639c0.585,5.328 4.375,11.315 12.831,14.099c-0.975,0.958 -1.905,1.964 -2.771,3.006c-5.731,6.902 -8.128,14.748 -6.75,22.096c0.278,1.473 0.664,2.882 1.156,4.221c-12.398,21.092 -18.92,45.035 -18.92,69.651c0,6.217 0.42,12.403 1.251,18.529c-1.951,-0.338 -3.912,-0.511 -5.872,-0.511c-9.43,0 -18.172,4.087 -23.978,11.212c-6.412,7.873 -8.66,18.404 -6.33,29.655c4.744,22.915 39.476,61.546 67.171,68.191c2.728,0.652 5.334,0.985 7.743,0.985c7.409,0 13.528,-3.122 17.237,-8.79c1.176,-1.801 2.027,-3.713 2.617,-5.668c18.9,13.028 40.749,21.097 63.895,23.44c5.014,16.353 18.478,19.079 26.88,19.079c12.666,0 23.608,-5.146 31.41,-14.633c0.705,0.01 1.412,0.017 2.122,0.017c5.355,0 12.009,-0.367 19.622,-1.541c-24.368,27.331 -59.571,43.059 -85.492,43.063l-0.007,0c-10.926,0 -25.603,-2.786 -33.489,-16.044c-10.434,-17.541 -27.161,-28.439 -43.647,-28.439c-17.319,0 -29.352,12.22 -29.939,30.406c-0.319,9.844 4.842,20.551 14.926,30.958c16.964,17.51 49.858,35.178 85.113,35.178c7.791,0 15.425,-0.872 22.69,-2.592c62.476,-14.788 118.453,-64.782 134.736,-119.769c59.633,-45.533 54.906,-170.709 35.145,-226.523c-1.371,-3.873 -2.852,-7.668 -4.441,-11.372c2.404,0.278 4.782,0.417 7.121,0.417c5.463,0 10.784,-0.767 15.82,-2.276c30.996,-9.293 45,-32.29 44.707,-44.908c-0.153,-6.66 -4.094,-11.923 -10.034,-13.409" style="fill:#000;"/><path id="Fill-2" d="M185.104,282.315c-3.109,-5.713 -6.489,-11.6 -9.804,-16.89c2.843,5.896 6.117,11.543 9.804,16.89" style="fill:#005683;"/><g><path id="Fill-3" d="M406.95,171.439c-19.239,-17.237 -32.501,-27.831 -51.572,-31.774c-12.822,-2.65 -28.124,0.742 -41.624,3.734c-10.231,2.272 -19.066,4.236 -25.941,3.508c-10.558,-1.112 -18.929,-6.665 -21.314,-14.154c-1.68,-5.276 -1.22,-13.73 10.528,-24.063c4.887,-4.3 10.736,-7.894 17.148,-10.814c-9.248,0.014 -18.385,-1.763 -27.168,-6.423c-11.342,15.745 -40.13,27.151 -48.99,23.219c-1.968,-0.874 -4.166,-2.374 -6.196,-4.465c-0.192,0.148 -0.369,0.311 -0.561,0.462c2.337,2.187 4.041,5.252 4.777,8.833c1.494,7.262 -1.05,15.031 -6.805,20.781c-5.01,5.009 -11.321,7.882 -17.311,7.882c-4.19,0 -7.766,-1.457 -10.446,-4.001c-11.851,19.288 -18.73,41.949 -18.73,66.246c0,11.313 1.512,22.266 4.29,32.704c11.894,9.799 31.485,48.724 35.759,58.489c0.232,0.535 0.496,1.21 0.767,1.991c20.386,18.84 46.948,31.109 76.326,33.375c-0.37,-4.856 -0.204,-10.031 -0.034,-15.141c0.206,-6.26 0.422,-12.736 -0.396,-18.054c-0.673,-4.377 -1.797,-9.073 -2.989,-14.044c-4.436,-18.536 -9.47,-39.546 8.265,-51.362c3.399,-2.266 7.095,-3.416 10.981,-3.416c15.935,0 30.42,19.204 37.894,33.806c10.178,-16.466 26.904,-26.906 46.795,-28.921c10.072,-1.023 20.123,0.282 28.407,3.349c2.922,-10.623 4.422,-21.633 4.422,-32.776c0,-13.332 -2.114,-26.441 -6.282,-38.971" style="fill:#33acd3;"/></g><path id="Fill-5" d="M238.581,277.018c-5.443,0.353 -9.873,0.039 -15.283,-1.082c-1.632,-16.26 -2.685,-36.571 5.511,-71.975c14.887,38.537 31.285,66.797 31.403,66.953c-2.788,1.33 -11.268,5.374 -21.631,6.104M213.614,272.912c-42.597,-19.348 -50.416,-65.211 -36.123,-100.517c0.544,34.939 10.334,62.181 36.123,100.517M271.272,264.288c6.757,-29.106 17.989,-56.93 24.598,-86.079c1.275,-5.634 2.38,-14.403 0.393,-24.18c19.687,30.737 17.426,78.479 -24.991,110.259M183.481,160.682c19.229,-29.58 56.002,-53.638 96.362,-24.094c-0.27,-0.012 -25.873,1.162 -7.265,28.675c10.058,14.868 10.698,26.796 2.742,51.053c-2.871,11.959 -3.739,15.569 -6.304,27.883c-12.28,-29.333 -22.302,-54.306 -30.217,-86.241c6.959,-1.02 14.843,-2.177 10.792,-6.653c-0.511,-0.563 -37.166,3.072 -37.516,3.132c-2.814,0.479 -3.308,3.79 -3.313,3.821c-0.292,2.613 0.183,2.587 8.124,2.108c2.092,11.274 3.047,16.423 8.224,32.879c-3.737,15.531 -7.606,31.592 -8.135,56.462c-16.703,-33.226 -23.388,-56.304 -24.663,-85.153c2.37,-1.44 5.537,-0.875 7.632,-3.019c1.428,-1.464 2.124,-4.765 0.343,-5.148c-6.317,-1.361 -11.137,3.112 -16.806,4.295M241.518,116.963c-63.19,5.213 -104.222,100.383 -48.336,150.187c56.641,50.473 126.62,-14.743 124.203,-75.254c-1.877,-46.913 -40.742,-76.62 -75.867,-74.933" style="fill:#fff;"/><path id="Fill-6" d="M330.389,287.512c-0.038,-0.151 -0.072,-0.297 -0.11,-0.451c-0.343,-1.365 -0.722,-2.772 -1.148,-4.233c-3.56,-12.812 -20.488,-38.293 -33.417,-38.293c-1.987,0 -3.84,0.592 -5.664,1.806c-11.321,7.547 -9.037,21.198 -4.255,41.161c1.182,4.938 2.404,10.045 3.138,14.813c0.956,6.202 0.724,13.133 0.501,19.832c-0.345,10.402 -0.703,21.161 3.785,25.797c1.963,2.029 5.021,3.016 9.353,3.016c1.253,0 2.433,-0.094 3.574,-0.237c0.347,-0.043 0.676,-0.108 1.011,-0.163c0.796,-0.13 1.566,-0.288 2.306,-0.479c0.329,-0.087 0.657,-0.175 0.976,-0.273c0.772,-0.235 1.51,-0.506 2.219,-0.805c0.209,-0.087 0.429,-0.163 0.633,-0.254c0.911,-0.415 1.779,-0.872 2.594,-1.375c0.079,-0.051 0.151,-0.108 0.23,-0.159c0.721,-0.46 1.402,-0.948 2.047,-1.463c0.189,-0.151 0.369,-0.307 0.554,-0.463c0.529,-0.448 1.035,-0.913 1.515,-1.389c0.16,-0.161 0.326,-0.321 0.481,-0.484c0.537,-0.566 1.045,-1.145 1.52,-1.735c0.055,-0.069 0.118,-0.134 0.17,-0.203c0.53,-0.671 1.017,-1.354 1.47,-2.039c0.108,-0.161 0.201,-0.324 0.302,-0.482c0.321,-0.508 0.628,-1.015 0.911,-1.519c0.136,-0.241 0.266,-0.479 0.393,-0.718c0.22,-0.417 0.429,-0.829 0.625,-1.239c0.123,-0.256 0.252,-0.515 0.367,-0.769c0.163,-0.357 0.304,-0.699 0.448,-1.044c0.302,-0.722 0.573,-1.419 0.798,-2.061c0.015,-0.036 0.029,-0.074 0.041,-0.108c0.158,-0.459 0.302,-0.896 0.427,-1.3c0.544,-1.771 0.791,-3.012 0.827,-3.22c0.036,-0.206 0.086,-0.422 0.151,-0.618c3.593,-11.368 5.036,-20.929 2.109,-35.004c-0.259,-1.246 -0.556,-2.53 -0.882,-3.845" style="fill:#ffd200;"/><path id="Fill-7" d="M445.695,38.658c-14.315,0 -34.817,-0.119 -47.533,-1.149c-1.107,-0.089 -2.085,-0.089 -2.718,-0.036c0.937,1.53 3.236,4.211 6.908,7.271l0.925,0.783c24.98,21.286 43.782,25.756 55.156,25.759l0.004,0c4.063,0 7.994,-0.563 11.693,-1.672c17.549,-5.261 28.328,-16.131 32.561,-24.547c1.58,-3.146 1.901,-5.211 1.901,-6.181c-2.388,-0.242 -8.596,-0.364 -18.505,-0.364c-5.274,0 -11.271,0.029 -17.649,0.062c-7.256,0.036 -15.008,0.074 -22.743,0.074" style="fill:#f80;"/><path id="Fill-8" d="M134.515,248.715c-3.631,4.459 -4.84,10.731 -3.404,17.666c3.663,17.695 35.131,52.014 56.445,57.126c1.628,0.391 3.104,0.59 4.387,0.59c3.322,0 4.559,-1.301 5.201,-2.281c2.598,-3.975 1.124,-12.618 -0.937,-17.328c-5.902,-13.481 -24.603,-48.823 -34.054,-56.091c-4.758,-3.661 -9.881,-5.594 -14.816,-5.594c-5.161,0 -9.718,2.101 -12.822,5.912" style="fill:#ffd200;"/><path id="Fill-9" d="M183.86,133.886c1.1,5.86 4.99,7.091 8.061,7.091c4.037,0 8.608,-2.158 12.227,-5.778c4.039,-4.037 5.851,-9.363 4.847,-14.252c-0.623,-3.036 -2.282,-5.362 -4.437,-6.222c-0.352,-0.141 -0.836,-0.216 -1.402,-0.216c-3.871,0 -10.943,3.484 -15.617,9.114c-1.706,2.058 -4.458,6.126 -3.679,10.263" style="fill:#ffd200;"/><path id="Fill-10" d="M404.919,324.904c-7.188,4.293 -14.231,7.709 -20.988,10.383c-22.177,40.555 -70.352,71.716 -112.151,72.509c-21.59,0.355 -38.316,-7.781 -47.403,-23.054c-10.195,-17.137 -25.766,-23.464 -35.896,-20.857c-6.788,1.749 -10.678,7.407 -10.954,15.939c-0.242,7.484 6.369,17.469 17.683,26.712c20.341,16.621 55.246,29.985 87.356,22.381c55.51,-13.138 105.368,-56.022 122.353,-104.013" style="fill:#f80;"/><path id="Fill-11" d="M181.103,95.729c-0.335,0.075 -0.438,0.19 -0.441,0.19c0.034,-0.012 0.247,0.39 1.043,0.927c1.457,0.984 7.397,3.751 23.481,-0.544c-0.494,-3.728 -0.307,-8.378 1.311,-13.902c-9.398,6.533 -19.998,12.132 -25.394,13.329" style="fill:#f80;"/><path id="Fill-12" d="M191.921,148.165c-7.833,0 -13.632,-4.964 -15.132,-12.957c-0.976,-5.203 0.877,-10.948 5.216,-16.175c5.635,-6.785 14.53,-11.711 21.151,-11.711c1.491,0 2.862,0.245 4.072,0.729c4.404,1.76 7.697,6.042 8.809,11.451c1.494,7.262 -1.05,15.031 -6.805,20.781c-5.01,5.009 -11.321,7.882 -17.311,7.882ZM203.156,114.509c-3.871,0 -10.943,3.484 -15.617,9.114c-1.706,2.058 -4.458,6.126 -3.679,10.263c1.1,5.86 4.99,7.091 8.061,7.091c4.037,0 8.608,-2.158 12.227,-5.778c4.039,-4.037 5.851,-9.363 4.847,-14.252c-0.623,-3.036 -2.282,-5.362 -4.437,-6.222c-0.352,-0.141 -0.836,-0.216 -1.402,-0.216Z" style="fill:#000;"/><path id="Fill-13" d="M442.205,101.41c-4.02,-11.354 -8.958,-21.686 -14.677,-30.975c-8.596,-4.185 -18.263,-10.361 -28.918,-19.439l-0.86,-0.733c-11.781,-9.808 -10.156,-14.29 -9.624,-15.763c0.427,-1.182 1.184,-2.104 2.229,-2.794c-15.971,-10.222 -34.306,-15.941 -54.333,-16.545c-49.769,-1.507 -93.387,19.66 -116.703,56.618c-6.374,10.108 -8.577,19.293 -6.364,26.569c1.611,5.299 5.307,8.567 7.982,9.755c4.53,2.017 33.354,-7.982 41.729,-23.202c0.477,-0.86 1.283,-1.493 2.234,-1.742c0.957,-0.249 1.966,-0.101 2.803,0.414c19.665,12.094 41.77,6.565 60.941,0.434c1.899,-0.601 3.914,0.439 4.521,2.329c0.323,1.016 0.16,2.062 -0.341,2.915c12.671,-0.333 25.385,1.598 36.588,6.018c1.846,0.729 2.752,2.815 2.024,4.662c-0.729,1.848 -2.819,2.756 -4.665,2.022c-27.566,-10.871 -64.897,-5.546 -84.993,12.132c-6.892,6.062 -9.886,11.917 -8.428,16.485c1.498,4.696 7.61,8.39 15.216,9.188c5.717,0.594 14.416,-1.33 23.632,-3.376c14.202,-3.15 30.306,-6.722 44.637,-3.756c23.227,4.803 38.638,18.73 61.961,39.81l2.842,2.568c1.472,1.329 1.587,3.603 0.257,5.074c-0.71,0.788 -1.688,1.186 -2.668,1.186c-0.815,0 -1.62,-0.297 -2.287,-0.851c2.301,9.784 3.483,19.83 3.483,29.997c0,12.19 -1.692,24.233 -5,35.831c3.703,2.093 6.815,4.609 9.044,7.493c1.215,1.57 0.925,3.829 -0.645,5.039c-1.567,1.214 -3.833,0.927 -5.043,-0.645c-6.211,-8.033 -22.029,-12.714 -37.655,-11.14c-11.378,1.152 -32.113,6.6 -43.863,29.932c0.449,1.198 0.82,2.307 1.091,3.282c6.16,21.102 4.703,33.905 0.046,48.744c-0.458,2.503 -1.345,5.488 -2.673,8.598c15.823,0.045 43.752,-3.428 73.473,-23.881c56.272,-38.724 51.322,-160.53 33.007,-212.253" style="fill:#ffd200;"/><path id="Fill-14" d="M507.19,32.039c-1.738,-0.436 -5.877,-0.704 -21.103,-0.704c-5.283,0 -11.292,0.029 -17.685,0.062c-7.246,0.036 -14.982,0.074 -22.707,0.074c-13.236,0 -31.792,-0.103 -44.335,-0.934c-18.591,-13.984 -40.661,-21.823 -65.122,-22.563c-52.157,-1.598 -97.99,20.687 -122.737,59.572c-9.518,9.389 -27.812,19.801 -33.956,21.169c-2.845,0.63 -4.99,2.539 -5.748,5.103c-0.762,2.594 0.058,5.433 2.189,7.592c1.953,1.969 6.019,4.432 14.152,4.432c4.374,0 9.945,-0.729 16.978,-2.612c2.641,5.985 7.193,9.794 10.901,11.442c8.86,3.932 37.648,-7.474 48.99,-23.219c8.783,4.66 17.92,6.437 27.168,6.423c-6.412,2.92 -12.261,6.514 -17.148,10.814c-11.748,10.333 -12.208,18.787 -10.528,24.063c2.385,7.489 10.756,13.042 21.314,14.154c6.875,0.728 15.71,-1.236 25.941,-3.508c13.5,-2.992 28.802,-6.384 41.624,-3.734c19.071,3.943 32.333,14.537 51.572,31.774c4.168,12.53 6.282,25.639 6.282,38.971c0,11.143 -1.5,22.153 -4.422,32.776c-8.284,-3.067 -18.335,-4.372 -28.407,-3.349c-19.891,2.015 -36.617,12.455 -46.795,28.921c-7.474,-14.602 -21.959,-33.806 -37.894,-33.806c-3.886,0 -7.582,1.15 -10.981,3.416c-17.735,11.816 -12.701,32.826 -8.265,51.362c1.192,4.971 2.316,9.667 2.989,14.044c0.818,5.318 0.602,11.794 0.396,18.054c-0.412,12.4 -0.839,25.22 6.474,32.778c3.812,3.939 9.277,5.937 16.245,5.937c14.411,0 23.728,-7.504 29.313,-15.891c1.273,0.048 2.62,0.081 4.092,0.081c9.274,0 22.347,-1.161 37.395,-5.749c-22.486,34.925 -64.786,60.925 -101.729,61.627c-13.248,0.288 -31.204,-2.935 -41.087,-19.544c-12.002,-20.174 -31.159,-27.421 -43.868,-24.142c-10.01,2.576 -15.966,10.841 -16.347,22.666c-0.319,9.851 7.088,21.701 20.317,32.508c17.393,14.209 44.819,26.175 72.783,26.175c6.941,0 13.919,-0.737 20.784,-2.362c60.987,-14.439 115.464,-63.563 130.129,-117.112c32.983,-23.553 43.482,-70.367 46.454,-105.702c3.787,-45.044 -3.21,-89.758 -11.824,-114.086c-3.045,-8.599 -6.621,-16.61 -10.617,-24.097c8.011,2.686 14.759,3.558 20.066,3.558l0.004,0c4.763,0 9.389,-0.666 13.759,-1.974c28.05,-8.411 39.786,-29.139 39.584,-37.857c-0.079,-3.436 -1.797,-5.906 -4.59,-6.603ZM205.186,96.302c-16.084,4.295 -22.024,1.528 -23.481,0.544c-0.796,-0.537 -1.009,-0.939 -1.043,-0.927c0.003,0 0.106,-0.115 0.441,-0.19c3.3,-0.732 8.546,-3.111 14.274,-6.343c3.638,-2.052 7.47,-4.449 11.12,-6.986c-1.618,5.524 -1.805,10.174 -1.311,13.902ZM329.162,326.361c-0.065,0.196 -0.115,0.412 -0.151,0.618c-0.175,0.977 -4.521,23.981 -26.439,23.981c-4.332,0 -7.39,-0.987 -9.353,-3.016c-4.488,-4.636 -4.13,-15.395 -3.785,-25.797c0.223,-6.699 0.455,-13.63 -0.501,-19.832c-0.734,-4.768 -1.956,-9.875 -3.138,-14.813c-4.782,-19.963 -7.066,-33.614 4.255,-41.161c1.824,-1.214 3.677,-1.806 5.664,-1.806c12.929,0 29.857,25.481 33.417,38.293c5.563,19.065 4.305,30.006 0.031,43.533ZM282.566,428.917c-32.11,7.604 -67.015,-5.76 -87.356,-22.381c-11.314,-9.243 -17.925,-19.228 -17.683,-26.712c0.276,-8.532 4.166,-14.19 10.954,-15.939c10.13,-2.607 25.701,3.72 35.896,20.857c9.087,15.273 25.813,23.409 47.403,23.054c41.799,-0.793 89.974,-31.954 112.151,-72.509c6.757,-2.674 13.8,-6.09 20.988,-10.383c-16.985,47.991 -66.843,90.875 -122.353,104.013ZM442.205,101.41c18.315,51.723 23.265,173.529 -33.007,212.253c-29.721,20.453 -57.65,23.926 -73.473,23.881c1.328,-3.11 2.215,-6.095 2.673,-8.598c4.657,-14.839 6.114,-27.642 -0.046,-48.744c-0.271,-0.975 -0.642,-2.084 -1.091,-3.282c11.75,-23.332 32.485,-28.78 43.863,-29.932c15.626,-1.574 31.444,3.107 37.655,11.14c1.21,1.572 3.476,1.859 5.043,0.645c1.57,-1.21 1.86,-3.469 0.645,-5.039c-2.229,-2.884 -5.341,-5.4 -9.044,-7.493c3.308,-11.598 5,-23.641 5,-35.831c0,-10.167 -1.182,-20.213 -3.483,-29.997c0.667,0.554 1.472,0.851 2.287,0.851c0.98,0 1.958,-0.398 2.668,-1.186c1.33,-1.471 1.215,-3.745 -0.257,-5.074l-2.842,-2.568c-23.323,-21.08 -38.734,-35.007 -61.961,-39.81c-14.331,-2.966 -30.435,0.606 -44.637,3.756c-9.216,2.046 -17.915,3.97 -23.632,3.376c-7.606,-0.798 -13.718,-4.492 -15.216,-9.188c-1.458,-4.568 1.536,-10.423 8.428,-16.485c20.096,-17.678 57.427,-23.003 84.993,-12.132c1.846,0.734 3.936,-0.174 4.665,-2.022c0.728,-1.847 -0.178,-3.933 -2.024,-4.662c-11.203,-4.42 -23.917,-6.351 -36.588,-6.018c0.501,-0.853 0.664,-1.899 0.341,-2.915c-0.607,-1.89 -2.622,-2.93 -4.521,-2.329c-19.171,6.131 -41.276,11.66 -60.941,-0.434c-0.837,-0.515 -1.846,-0.663 -2.803,-0.414c-0.951,0.249 -1.757,0.882 -2.234,1.742c-8.375,15.22 -37.199,25.219 -41.729,23.202c-2.675,-1.188 -6.371,-4.456 -7.982,-9.755c-2.213,-7.276 -0.01,-16.461 6.364,-26.569c23.316,-36.958 66.934,-58.125 116.703,-56.618c20.027,0.604 38.362,6.323 54.333,16.545c-1.045,0.69 -1.802,1.612 -2.229,2.794c-0.532,1.473 -2.157,5.955 9.624,15.763l0.86,0.733c10.655,9.078 20.322,15.254 28.918,19.439c5.719,9.289 10.657,19.621 14.677,30.975ZM502.691,45.067c-4.233,8.416 -15.012,19.286 -32.561,24.547c-3.699,1.109 -7.63,1.672 -11.693,1.672l-0.004,0c-11.374,-0.003 -30.176,-4.473 -55.156,-25.759l-0.925,-0.783c-3.672,-3.06 -5.971,-5.741 -6.908,-7.271c0.633,-0.053 1.611,-0.053 2.718,0.036c12.716,1.03 33.218,1.149 47.533,1.149c7.735,0 15.487,-0.038 22.743,-0.074c6.378,-0.033 12.375,-0.062 17.649,-0.062c9.909,0 16.117,0.122 18.505,0.364c0,0.97 -0.321,3.035 -1.901,6.181Z" style="fill:#000;"/><path id="Fill-15" d="M259.426,65.869c-5.717,4.286 -3.994,9.585 2.397,10.383c6.392,0.798 6.891,1.222 12.785,-3.196c6.391,-4.791 7.191,-12.779 0,-11.978c-7.191,0.8 -11.985,2.395 -15.182,4.791" style="fill:#000;"/><path id="Fill-16" d="M242.647,69.065c0,3.97 -3.22,7.187 -7.191,7.187c-3.97,0 -7.191,-3.217 -7.191,-7.187c0,-3.97 3.221,-7.187 7.191,-7.187c3.971,0 7.191,3.217 7.191,7.187" style="fill:#000;"/><path id="Fill-17" d="M325.744,49.101c0,3.97 -3.219,7.188 -7.191,7.188c-3.972,0 -7.191,-3.218 -7.191,-7.188c0,-3.969 3.219,-7.187 7.191,-7.187c3.972,0 7.191,3.218 7.191,7.187" style="fill:#000;"/><path id="Fill-18" d="M191.943,331.284c-1.846,0 -3.886,-0.264 -6.065,-0.786c-24.317,-5.836 -57.6,-42.33 -61.809,-62.66c-1.882,-9.092 -0.154,-17.496 4.866,-23.658c4.437,-5.443 11.144,-8.564 18.402,-8.564c6.534,0 13.174,2.45 19.202,7.086c11.839,9.101 31.921,49.002 36.255,58.901c1.802,4.119 5.381,16.48 0.367,24.147c-1.652,2.525 -4.941,5.534 -11.218,5.534ZM147.337,242.803c-5.161,0 -9.718,2.101 -12.822,5.912c-3.631,4.459 -4.84,10.731 -3.404,17.666c3.663,17.695 35.131,52.014 56.445,57.126c1.628,0.391 3.104,0.59 4.387,0.59c3.322,0 4.559,-1.301 5.201,-2.281c2.598,-3.975 1.124,-12.618 -0.937,-17.328c-5.902,-13.481 -24.603,-48.823 -34.054,-56.091c-4.758,-3.661 -9.881,-5.594 -14.816,-5.594Z" style="fill:#000;"/></g><g><g><path d="M585.606,304.998c-52.388,31.624 -163.146,44.242 -305.725,15.645c-165.24,-33.141 -285.561,-129.018 -279.674,-158.371c5.887,-29.353 153.874,-71.416 319.115,-38.274c156.255,31.34 254.526,90.233 280.333,143.823c3.772,7.832 -24.615,12.972 -24.615,12.972c0,0 17.704,19.897 10.566,24.205Z" style="fill:#f6f5e6;"/><path d="M197.098,111.854l0.868,0.002l0.87,0.003l0.87,0.005l0.871,0.005l0.873,0.007l0.873,0.008l0.875,0.009l0.876,0.01l0.877,0.012l0.878,0.012l0.879,0.015l0.88,0.015l0.881,0.016l0.882,0.018l0.883,0.019l0.885,0.021l0.885,0.021l0.887,0.023l0.887,0.024l0.888,0.026l0.89,0.026l0.89,0.028l0.892,0.03l0.892,0.03l0.894,0.032l0.894,0.033l0.896,0.035l0.896,0.035l0.898,0.037l0.898,0.039l0.9,0.04l0.9,0.041l0.901,0.042l0.903,0.044l0.903,0.045l0.904,0.046l0.905,0.048l0.906,0.049l0.907,0.05l0.908,0.052l0.908,0.053l0.91,0.055l0.91,0.056l0.912,0.057l0.912,0.059l0.913,0.06l0.914,0.061l0.915,0.063l0.916,0.064l0.917,0.065l0.917,0.067l0.918,0.069l0.92,0.069l0.92,0.072l0.92,0.072l0.922,0.074l0.923,0.076l0.923,0.077l0.924,0.078l0.925,0.08l0.926,0.081l0.926,0.082l0.927,0.084l0.928,0.086l0.929,0.087l0.93,0.088l0.93,0.09l0.931,0.091l0.932,0.093l0.933,0.095l0.933,0.095l0.934,0.098l0.935,0.098l0.936,0.101l0.936,0.101l0.937,0.103l0.938,0.105l0.938,0.106l0.939,0.108l0.94,0.109l0.94,0.111l0.942,0.112l0.941,0.114l0.943,0.116l0.943,0.116l0.944,0.119l0.944,0.12l0.945,0.121l0.946,0.123l0.946,0.125l0.947,0.126l0.948,0.128l0.948,0.129l0.949,0.131l0.95,0.132l0.95,0.134l0.95,0.136l0.952,0.137l0.952,0.139l0.952,0.14l0.953,0.142l0.954,0.143l0.954,0.145l0.954,0.147l0.956,0.149l0.955,0.149l0.957,0.152l0.957,0.153l0.957,0.155l0.958,0.157l0.958,0.158l0.959,0.159l0.96,0.162l0.96,0.163l0.96,0.164l0.961,0.167l0.961,0.168l0.962,0.169l0.963,0.172l0.962,0.173l0.964,0.174l0.964,0.177l0.964,0.178l0.964,0.179l0.965,0.182l0.966,0.183l0.966,0.185l0.966,0.186l0.967,0.188l0.967,0.19l0.968,0.192l0.968,0.193l0.915,0.184l0.913,0.185l0.913,0.185l0.91,0.186l0.91,0.186l0.908,0.187l0.907,0.188l0.906,0.188l0.904,0.189l0.903,0.19l0.902,0.19l0.9,0.191l0.899,0.191l0.897,0.192l0.897,0.193l0.894,0.193l0.894,0.194l0.892,0.194l0.891,0.195l0.89,0.196l0.888,0.196l0.887,0.197l0.885,0.197l0.885,0.199l0.882,0.198l0.882,0.199l0.88,0.2l0.879,0.201l0.877,0.201l0.876,0.201l0.875,0.202l0.874,0.203l0.872,0.204l0.87,0.203l0.87,0.205l0.868,0.205l0.867,0.206l0.865,0.206l0.864,0.207l0.863,0.207l0.861,0.208l0.86,0.209l0.858,0.209l0.858,0.209l0.855,0.211l0.855,0.211l0.853,0.211l0.852,0.212l0.85,0.212l0.849,0.213l0.848,0.214l0.846,0.214l0.845,0.215l0.844,0.215l0.842,0.216l0.841,0.216l0.84,0.217l0.838,0.218l0.837,0.218l0.835,0.218l0.834,0.219l0.833,0.22l0.831,0.22l0.83,0.221l0.829,0.221l0.827,0.222l0.826,0.222l0.824,0.223l0.824,0.223l0.821,0.224l0.821,0.225l0.819,0.225l0.817,0.225l0.817,0.226l0.815,0.227l0.813,0.227l0.812,0.227l0.811,0.229l0.809,0.228l0.808,0.229l0.807,0.23l0.805,0.23l0.804,0.231l0.803,0.231l0.801,0.232l0.799,0.232l0.799,0.232l0.797,0.234l0.795,0.233l0.794,0.235l0.793,0.234l0.792,0.235l0.79,0.236l0.788,0.236l0.788,0.237l0.785,0.237l0.785,0.238l0.783,0.238l0.782,0.238l0.78,0.24l0.779,0.239l0.777,0.24l0.776,0.241l0.775,0.241l0.774,0.241l0.771,0.242l0.771,0.243l0.769,0.243l0.768,0.243l0.766,0.244l0.765,0.244l0.764,0.245l0.762,0.246l0.761,0.245l0.759,0.246l0.758,0.247l0.757,0.247l0.755,0.248l0.753,0.248l0.753,0.248l0.751,0.249l0.749,0.25l0.748,0.25l0.747,0.25l0.745,0.251l0.744,0.251l0.743,0.252l0.741,0.252l0.74,0.252l0.738,0.253l0.737,0.254l0.735,0.254l0.734,0.254l0.733,0.255l0.731,0.255l0.73,0.255l0.728,0.256l0.727,0.257l0.726,0.257l0.724,0.257l0.722,0.258l0.722,0.258l0.72,0.258l0.718,0.259l0.717,0.26l0.716,0.26l0.714,0.26l0.713,0.261l0.711,0.261l0.71,0.261l0.708,0.262l0.707,0.263l0.706,0.262l0.704,0.263l0.703,0.264l0.701,0.264l0.7,0.264l0.699,0.265l0.697,0.265l0.696,0.266l0.694,0.266l0.693,0.266l0.691,0.267l0.69,0.267l0.688,0.267l0.687,0.268l0.686,0.268l0.684,0.269l0.683,0.269l0.681,0.269l0.68,0.27l0.678,0.27l0.677,0.271l0.676,0.271l0.674,0.271l0.673,0.272l0.671,0.272l0.67,0.272l0.668,0.273l0.667,0.273l0.666,0.274l0.664,0.274l0.662,0.274l0.661,0.275l0.66,0.275l0.658,0.275l0.657,0.276l0.655,0.276l0.654,0.276l0.653,0.277l0.651,0.277l0.649,0.278l0.648,0.277l0.647,0.279l0.645,0.278l0.644,0.279l0.642,0.279l0.641,0.28l0.639,0.28l0.638,0.28l0.637,0.28l0.635,0.281l0.633,0.281l0.632,0.282l0.631,0.282l0.629,0.282l0.628,0.283l0.626,0.283l0.625,0.283l0.623,0.283l0.622,0.284l0.62,0.284l0.619,0.285l0.618,0.285l0.616,0.285l0.614,0.285l0.613,0.286l0.612,0.286l0.61,0.286l0.609,0.287l0.607,0.287l0.605,0.287l0.605,0.288l0.602,0.288l0.602,0.288l0.6,0.288l0.598,0.289l0.597,0.289l0.595,0.29l0.594,0.289l0.593,0.29l0.591,0.291l0.589,0.29l0.588,0.291l0.587,0.291l0.585,0.292l0.583,0.291l0.582,0.292l0.581,0.292l0.579,0.293l0.578,0.293l0.576,0.293l0.575,0.293l0.573,0.294l0.572,0.294l0.57,0.294l0.569,0.295l0.567,0.294l0.566,0.295l0.564,0.296l0.563,0.295l0.561,0.296l0.56,0.296l0.558,0.296l0.557,0.297l0.555,0.297l0.554,0.297l0.553,0.297l0.55,0.298l0.55,0.297l0.548,0.298l0.546,0.299l0.545,0.298l0.543,0.299l0.542,0.299l0.541,0.3l0.538,0.299l0.538,0.3l0.536,0.3l0.534,0.3l0.533,0.301l0.531,0.3l0.53,0.301l0.529,0.301l0.526,0.302l0.526,0.301l0.524,0.302l0.522,0.302l0.521,0.303l0.519,0.302l0.518,0.303l0.516,0.303l0.515,0.303l0.513,0.304l0.512,0.303l0.511,0.304l0.508,0.304l0.508,0.304l0.505,0.305l0.504,0.304l0.503,0.305l0.501,0.305l0.5,0.306l0.498,0.305l0.497,0.306l0.495,0.306l0.494,0.306l0.492,0.306l0.49,0.306l0.489,0.307l0.488,0.307l0.486,0.307l0.484,0.307l0.483,0.307l0.482,0.308l0.48,0.308l0.478,0.308l0.477,0.308l0.475,0.308l0.474,0.308l0.472,0.309l0.471,0.309l0.469,0.309l0.468,0.309l0.466,0.309l0.465,0.31l0.463,0.31l0.461,0.309l0.46,0.31l0.459,0.311l0.457,0.31l0.455,0.31l0.454,0.311l0.452,0.311l0.451,0.311l0.45,0.311l0.447,0.311l0.446,0.311l0.445,0.312l0.443,0.312l0.442,0.312l0.44,0.312l0.438,0.312l0.437,0.312l0.436,0.312l0.434,0.313l0.432,0.313l0.431,0.312l0.429,0.313l0.428,0.313l0.426,0.314l0.424,0.313l0.423,0.313l0.422,0.314l0.42,0.314l0.418,0.314l0.417,0.314l0.415,0.314l0.414,0.314l0.412,0.314l0.411,0.315l0.409,0.314l0.407,0.315l0.406,0.315l0.405,0.315l0.403,0.315l0.401,0.315l0.4,0.315l0.398,0.315l0.397,0.316l0.395,0.315l0.393,0.316l0.392,0.316l0.39,0.316l0.389,0.316l0.387,0.316l0.386,0.316l0.384,0.316l0.383,0.316l0.381,0.317l0.379,0.316l0.378,0.317l0.376,0.316l0.375,0.317l0.373,0.317l0.372,0.317l0.37,0.317l0.368,0.317l0.367,0.317l0.365,0.317l0.364,0.317l0.362,0.318l0.361,0.317l0.359,0.317l0.357,0.318l0.356,0.318l0.354,0.317l0.353,0.318l0.351,0.318l0.35,0.318l0.348,0.318l0.346,0.318l0.345,0.318l0.343,0.318l0.342,0.318l0.34,0.318l0.338,0.318l0.337,0.318l0.335,0.319l0.334,0.318l0.332,0.319l0.331,0.318l0.329,0.318l0.327,0.319l0.326,0.319l0.324,0.318l0.323,0.319l0.321,0.318l0.319,0.319l0.318,0.319l0.316,0.319l0.315,0.318l0.313,0.319l0.311,0.319l0.31,0.319l0.308,0.319l0.307,0.319l0.305,0.319l0.303,0.319l0.302,0.319l0.3,0.319l0.299,0.318l0.297,0.319l0.296,0.319l0.294,0.319l0.292,0.319l0.29,0.32l0.289,0.319l0.288,0.319l0.286,0.319l0.284,0.319l0.283,0.319l0.281,0.319l0.279,0.319l0.278,0.319l0.276,0.319l0.275,0.319l0.273,0.319l0.271,0.319l0.27,0.318l0.268,0.319l0.266,0.319l0.265,0.319l0.264,0.319l0.261,0.319l0.26,0.319l0.259,0.319l0.257,0.318l0.255,0.319l0.254,0.319l0.252,0.319l0.25,0.318l0.249,0.319l0.247,0.318l0.245,0.319l0.244,0.318l0.243,0.319l0.24,0.318l0.239,0.319l0.238,0.318l0.235,0.318l0.234,0.319l0.233,0.318l0.231,0.318l0.229,0.318l0.228,0.318l0.226,0.318l0.224,0.318l0.223,0.318l0.221,0.318l0.22,0.318l0.217,0.317l0.217,0.318l0.214,0.318l0.213,0.317l0.211,0.318l0.21,0.317l0.208,0.317l0.207,0.318l0.204,0.317l0.204,0.317l0.201,0.317l0.2,0.317l0.198,0.317l0.197,0.317l0.195,0.316l0.193,0.317l0.192,0.316l0.19,0.317l0.188,0.316l0.187,0.317l0.185,0.316l0.183,0.316l0.182,0.316l0.18,0.316l0.179,0.316l0.176,0.315l0.176,0.316l0.173,0.315l0.172,0.316l0.17,0.315l0.169,0.315l0.167,0.315l0.165,0.315l0.164,0.315l0.162,0.315l0.16,0.315l0.159,0.314l0.157,0.315l0.155,0.314l0.154,0.314l0.152,0.314l0.043,0.092l0.039,0.091l0.037,0.091l0.034,0.091l0.032,0.091l0.028,0.09l0.025,0.091l0.023,0.089l0.02,0.09l0.017,0.09l0.015,0.089l0.012,0.089l0.009,0.088l0.006,0.089l0.004,0.088l0.001,0.088l-0.001,0.087l-0.004,0.087l-0.007,0.088l-0.009,0.086l-0.012,0.087l-0.014,0.086l-0.016,0.086l-0.019,0.086l-0.022,0.085l-0.024,0.086l-0.026,0.085l-0.028,0.084l-0.031,0.085l-0.034,0.084l-0.035,0.084l-0.038,0.083l-0.04,0.084l-0.042,0.083l-0.045,0.082l-0.046,0.083l-0.049,0.082l-0.051,0.082l-0.053,0.082l-0.056,0.081l-0.057,0.081l-0.059,0.081l-0.062,0.08l-0.063,0.081l-0.065,0.08l-0.068,0.079l-0.069,0.08l-0.071,0.079l-0.073,0.079l-0.075,0.078l-0.077,0.078l-0.079,0.078l-0.08,0.078l-0.083,0.077l-0.084,0.077l-0.086,0.077l-0.087,0.076l-0.09,0.077l-0.091,0.075l-0.092,0.076l-0.095,0.075l-0.095,0.075l-0.098,0.075l-0.099,0.074l-0.101,0.074l-0.102,0.074l-0.104,0.074l-0.105,0.073l-0.107,0.073l-0.108,0.072l-0.109,0.072l-0.111,0.072l-0.113,0.072l-0.113,0.071l-0.115,0.071l-0.117,0.071l-0.117,0.07l-0.119,0.07l-0.121,0.07l-0.121,0.069l-0.123,0.07l-0.123,0.068l-0.125,0.069l-0.127,0.068l-0.127,0.068l-0.128,0.067l-0.13,0.067l-0.13,0.067l-0.264,0.133l-0.269,0.132l-0.271,0.13l-0.276,0.129l-0.279,0.127l-0.282,0.126l-0.286,0.125l-0.288,0.124l-0.291,0.122l-0.294,0.121l-0.296,0.119l-0.299,0.118l-0.3,0.117l-0.303,0.115l-0.304,0.114l-0.306,0.112l-0.307,0.112l-0.308,0.109l-0.309,0.109l-0.31,0.106l-0.311,0.106l-0.312,0.104l-0.311,0.102l-0.312,0.101l-0.312,0.1l-0.312,0.098l-0.311,0.097l-0.311,0.095l-0.31,0.094l-0.31,0.092l-0.308,0.09l-0.307,0.09l-0.306,0.087l-0.304,0.086l-0.302,0.085l-0.301,0.083l-0.298,0.082l-0.296,0.08l-0.294,0.078l-0.291,0.077l-0.288,0.075l-0.285,0.074l-0.562,0.142l-0.547,0.136l-0.532,0.13l-0.516,0.123l-0.497,0.117l-0.478,0.11l-0.457,0.103l-0.435,0.097l-0.412,0.089l-0.386,0.083l-0.36,0.076l-0.333,0.069l-0.303,0.062l-0.273,0.055l-0.241,0.048l-0.381,0.074l-0.236,0.044l-0.081,0.015l0.197,0.225l0.234,0.271l0.148,0.172l0.167,0.196l0.186,0.218l0.202,0.24l0.219,0.262l0.233,0.281l0.248,0.301l0.262,0.319l0.273,0.337l0.285,0.355l0.296,0.37l0.304,0.385l0.313,0.401l0.321,0.414l0.327,0.426l0.166,0.218l0.166,0.221l0.168,0.224l0.169,0.226l0.17,0.229l0.171,0.232l0.171,0.234l0.172,0.236l0.172,0.239l0.173,0.24l0.172,0.243l0.173,0.244l0.172,0.247l0.173,0.248l0.172,0.249l0.171,0.252l0.171,0.252l0.171,0.254l0.169,0.255l0.169,0.256l0.167,0.257l0.166,0.258l0.165,0.259l0.164,0.259l0.162,0.26l0.16,0.261l0.159,0.261l0.156,0.261l0.155,0.261l0.152,0.262l0.151,0.261l0.147,0.262l0.146,0.261l0.142,0.261l0.14,0.26l0.137,0.26l0.134,0.259l0.13,0.258l0.128,0.258l0.124,0.257l0.121,0.255l0.117,0.255l0.113,0.253l0.109,0.252l0.106,0.25l0.101,0.249l0.097,0.247l0.093,0.246l0.088,0.244l0.084,0.241l0.079,0.24l0.074,0.237l0.069,0.236l0.064,0.233l0.059,0.23l0.054,0.228l0.048,0.225l0.022,0.112l0.02,0.11l0.02,0.111l0.017,0.109l0.016,0.109l0.015,0.108l0.014,0.107l0.011,0.106l0.011,0.106l0.008,0.105l0.008,0.104l0.005,0.103l0.004,0.102l0.003,0.101l0.001,0.101l-0.001,0.1l-0.002,0.098l-0.004,0.098l-0.006,0.097l-0.007,0.096l-0.009,0.095l-0.011,0.095l-0.013,0.093l-0.014,0.092l-0.016,0.091l-0.018,0.09l-0.019,0.089l-0.022,0.088l-0.023,0.088l-0.025,0.086l-0.027,0.084l-0.028,0.084l-0.031,0.083l-0.032,0.082l-0.035,0.08l-0.036,0.08l-0.038,0.078l-0.041,0.077l-0.042,0.076l-0.044,0.075l-0.046,0.073l-0.048,0.072l-0.051,0.072l-0.052,0.069l-0.054,0.069l-0.057,0.067l-0.058,0.066l-0.061,0.065l-0.062,0.064l-0.065,0.062l-0.067,0.061l-0.069,0.059l-0.072,0.058l-0.073,0.057l-0.076,0.055l-0.078,0.054l-0.08,0.053l-0.083,0.051l-0.308,0.185l-0.309,0.185l-0.31,0.184l-0.311,0.184l-0.313,0.183l-0.315,0.183l-0.315,0.183l-0.317,0.182l-0.319,0.181l-0.319,0.181l-0.321,0.181l-0.322,0.18l-0.324,0.18l-0.325,0.179l-0.326,0.179l-0.327,0.179l-0.329,0.178l-0.33,0.177l-0.332,0.177l-0.333,0.177l-0.334,0.176l-0.335,0.176l-0.337,0.175l-0.338,0.175l-0.339,0.174l-0.341,0.174l-0.342,0.173l-0.343,0.173l-0.345,0.173l-0.346,0.172l-0.347,0.171l-0.348,0.172l-0.35,0.17l-0.351,0.17l-0.352,0.17l-0.354,0.169l-0.355,0.169l-0.356,0.168l-0.358,0.168l-0.358,0.167l-0.361,0.167l-0.361,0.167l-0.363,0.166l-0.364,0.165l-0.365,0.165l-0.366,0.164l-0.368,0.164l-0.369,0.164l-0.371,0.163l-0.371,0.163l-0.373,0.162l-0.374,0.161l-0.376,0.161l-0.376,0.161l-0.378,0.16l-0.38,0.16l-0.38,0.159l-0.382,0.158l-0.383,0.159l-0.385,0.157l-0.385,0.157l-0.387,0.157l-0.388,0.156l-0.39,0.156l-0.39,0.155l-0.392,0.155l-0.393,0.154l-0.395,0.154l-0.395,0.153l-0.397,0.152l-0.399,0.153l-0.399,0.151l-0.401,0.151l-0.402,0.151l-0.403,0.15l-0.404,0.15l-0.406,0.149l-0.407,0.148l-0.408,0.149l-0.41,0.147l-0.41,0.147l-0.412,0.147l-0.413,0.146l-0.415,0.145l-0.415,0.145l-0.417,0.145l-0.418,0.144l-0.42,0.143l-0.42,0.143l-0.422,0.142l-0.423,0.142l-0.424,0.142l-0.426,0.14l-0.426,0.141l-0.428,0.139l-0.429,0.14l-0.431,0.138l-0.431,0.139l-0.433,0.137l-0.434,0.137l-0.435,0.137l-0.437,0.136l-0.437,0.135l-0.439,0.135l-0.44,0.135l-0.442,0.134l-0.442,0.133l-0.444,0.133l-0.445,0.132l-0.446,0.132l-0.447,0.131l-0.449,0.13l-0.45,0.131l-0.451,0.129l-0.452,0.129l-0.453,0.128l-0.455,0.128l-0.455,0.128l-0.457,0.126l-0.458,0.127l-0.46,0.125l-0.46,0.125l-0.462,0.125l-0.463,0.124l-0.464,0.123l-0.465,0.123l-0.467,0.123l-0.467,0.121l-0.469,0.122l-0.47,0.12l-0.471,0.12l-0.473,0.12l-0.473,0.119l-0.475,0.118l-0.476,0.118l-0.477,0.117l-0.478,0.117l-0.48,0.116l-0.48,0.115l-0.482,0.115l-0.483,0.115l-0.484,0.114l-0.486,0.113l-0.486,0.112l-0.488,0.113l-0.488,0.111l-0.49,0.111l-0.491,0.11l-0.493,0.11l-0.493,0.109l-0.495,0.109l-0.496,0.108l-0.496,0.107l-0.498,0.107l-0.5,0.106l-0.5,0.106l-0.502,0.105l-0.502,0.104l-0.504,0.104l-0.505,0.104l-0.506,0.102l-0.507,0.102l-0.509,0.102l-0.509,0.101l-0.511,0.1l-0.512,0.1l-0.513,0.099l-0.514,0.098l-0.515,0.098l-0.516,0.098l-0.518,0.096l-0.518,0.096l-0.52,0.096l-0.521,0.095l-0.522,0.094l-0.523,0.094l-0.525,0.093l-0.525,0.092l-0.526,0.092l-0.528,0.091l-0.529,0.091l-0.53,0.09l-0.531,0.089l-0.532,0.089l-0.533,0.088l-0.535,0.088l-0.535,0.086l-0.537,0.087l-0.537,0.085l-0.539,0.085l-0.54,0.085l-0.541,0.084l-0.542,0.083l-0.544,0.082l-0.544,0.082l-0.545,0.082l-0.547,0.08l-0.548,0.08l-0.548,0.08l-0.55,0.078l-0.551,0.078l-0.552,0.078l-0.553,0.077l-0.555,0.076l-0.555,0.076l-0.557,0.075l-0.557,0.074l-0.559,0.073l-0.559,0.073l-0.561,0.073l-0.562,0.072l-0.563,0.071l-0.564,0.07l-0.565,0.07l-0.567,0.069l-0.567,0.069l-0.568,0.067l-0.57,0.068l-0.57,0.066l-0.572,0.066l-0.573,0.065l-0.573,0.065l-0.575,0.064l-0.576,0.063l-0.577,0.063l-0.578,0.062l-0.579,0.061l-0.58,0.061l-0.582,0.06l-0.582,0.059l-0.583,0.059l-0.585,0.058l-0.585,0.057l-0.587,0.056l-0.587,0.056l-0.589,0.056l-0.59,0.054l-0.591,0.054l-0.591,0.054l-0.593,0.052l-0.594,0.052l-0.595,0.052l-0.596,0.05l-0.597,0.05l-0.599,0.049l-0.599,0.049l-0.6,0.048l-0.601,0.047l-0.603,0.047l-0.603,0.046l-0.604,0.045l-0.606,0.044l-0.606,0.044l-0.608,0.043l-0.608,0.043l-0.61,0.041l-0.61,0.041l-0.612,0.041l-0.613,0.039l-0.613,0.039l-0.615,0.039l-0.616,0.037l-0.617,0.037l-0.617,0.036l-0.619,0.036l-0.62,0.035l-0.621,0.034l-0.622,0.033l-0.623,0.033l-0.624,0.032l-0.624,0.031l-0.626,0.031l-0.627,0.03l-0.628,0.029l-0.629,0.028l-0.63,0.028l-0.631,0.027l-0.632,0.027l-0.633,0.025l-0.634,0.025l-0.635,0.024l-0.636,0.024l-0.637,0.023l-0.638,0.022l-0.639,0.021l-0.64,0.021l-0.641,0.02l-0.642,0.019l-1.287,0.036l-1.291,0.033l-1.295,0.031l-1.299,0.027l-1.303,0.025l-1.307,0.022l-1.31,0.019l-1.315,0.015l-1.318,0.013l-1.323,0.01l-1.326,0.007l-1.33,0.004l-1.334,0.001l-1.338,-0.002l-1.342,-0.005l-1.345,-0.008l-1.349,-0.011l-1.354,-0.014l-1.356,-0.017l-1.361,-0.02l-1.365,-0.023l-1.368,-0.026l-1.372,-0.029l-1.376,-0.033l-1.38,-0.035l-1.383,-0.038l-1.387,-0.042l-1.391,-0.045l-1.394,-0.047l-1.398,-0.051l-1.402,-0.054l-1.406,-0.057l-1.409,-0.06l-1.413,-0.064l-1.417,-0.066l-1.42,-0.07l-1.424,-0.073l-1.427,-0.076l-1.431,-0.079l-1.435,-0.083l-1.438,-0.085l-1.442,-0.089l-1.445,-0.092l-1.449,-0.095l-1.453,-0.099l-1.456,-0.102l-1.46,-0.105l-1.463,-0.108l-1.467,-0.112l-1.47,-0.114l-1.474,-0.118l-1.477,-0.122l-1.48,-0.124l-1.485,-0.128l-0.743,-0.066l-0.744,-0.066l-0.745,-0.067l-0.746,-0.067l-0.747,-0.069l-0.748,-0.069l-0.748,-0.07l-0.75,-0.071l-0.75,-0.072l-0.751,-0.073l-0.752,-0.074l-0.753,-0.074l-0.754,-0.075l-0.754,-0.076l-0.756,-0.077l-0.756,-0.078l-0.757,-0.079l-0.758,-0.079l-0.759,-0.08l-0.759,-0.082l-0.761,-0.082l-0.761,-0.082l-0.762,-0.084l-0.763,-0.085l-0.764,-0.085l-0.765,-0.086l-0.765,-0.087l-0.766,-0.088l-0.768,-0.089l-0.768,-0.09l-0.768,-0.09l-0.77,-0.092l-0.77,-0.092l-0.772,-0.093l-0.772,-0.094l-0.773,-0.095l-0.774,-0.096l-0.774,-0.096l-0.776,-0.098l-0.776,-0.098l-0.777,-0.099l-0.778,-0.1l-0.778,-0.101l-0.78,-0.102l-0.78,-0.103l-0.781,-0.103l-0.782,-0.104l-0.783,-0.106l-0.784,-0.106l-0.784,-0.107l-0.785,-0.108l-0.786,-0.109l-0.787,-0.109l-0.787,-0.111l-0.789,-0.111l-0.789,-0.112l-0.79,-0.114l-0.791,-0.114l-0.791,-0.115l-0.793,-0.116l-0.793,-0.116l-0.794,-0.118l-0.795,-0.118l-0.795,-0.12l-0.797,-0.12l-0.797,-0.121l-0.798,-0.122l-0.798,-0.123l-0.8,-0.124l-0.8,-0.125l-0.801,-0.126l-0.802,-0.126l-0.803,-0.128l-0.803,-0.128l-0.804,-0.129l-0.805,-0.13l-0.806,-0.132l-0.806,-0.131l-0.808,-0.133l-0.808,-0.134l-0.808,-0.135l-0.81,-0.135l-0.81,-0.137l-0.812,-0.137l-0.811,-0.139l-0.813,-0.139l-0.813,-0.14l-0.815,-0.141l-0.815,-0.142l-0.815,-0.143l-0.817,-0.144l-0.817,-0.145l-0.818,-0.145l-0.819,-0.147l-0.819,-0.147l-0.82,-0.149l-0.821,-0.149l-0.822,-0.15l-0.823,-0.152l-0.823,-0.152l-0.824,-0.153l-0.825,-0.154l-0.825,-0.155l-0.826,-0.156l-0.827,-0.156l-0.828,-0.158l-0.828,-0.159l-0.83,-0.159l-0.83,-0.161l-0.83,-0.161l-0.832,-0.163l-0.832,-0.163l-0.833,-0.164l-0.833,-0.165l-0.835,-0.167l-0.835,-0.167l-0.967,-0.195l-0.967,-0.196l-0.966,-0.198l-0.964,-0.199l-0.964,-0.2l-0.962,-0.202l-0.962,-0.204l-0.96,-0.205l-0.959,-0.206l-0.959,-0.207l-0.957,-0.209l-0.956,-0.211l-0.955,-0.211l-0.954,-0.213l-0.953,-0.215l-0.952,-0.216l-0.951,-0.217l-0.949,-0.218l-0.949,-0.22l-0.947,-0.221l-0.947,-0.222l-0.945,-0.224l-0.944,-0.225l-0.943,-0.226l-0.942,-0.228l-0.941,-0.229l-0.939,-0.23l-0.939,-0.232l-0.937,-0.232l-0.937,-0.234l-0.935,-0.236l-0.934,-0.236l-0.933,-0.238l-0.932,-0.239l-0.93,-0.24l-0.93,-0.242l-0.928,-0.243l-0.927,-0.244l-0.926,-0.245l-0.925,-0.246l-0.923,-0.248l-0.923,-0.249l-0.921,-0.25l-0.92,-0.251l-0.919,-0.252l-0.917,-0.254l-0.917,-0.255l-0.915,-0.255l-0.914,-0.257l-0.913,-0.259l-0.912,-0.259l-0.91,-0.26l-0.909,-0.262l-0.908,-0.263l-0.907,-0.264l-0.906,-0.265l-0.904,-0.266l-0.903,-0.267l-0.902,-0.268l-0.9,-0.27l-0.9,-0.27l-0.898,-0.272l-0.897,-0.272l-0.895,-0.274l-0.895,-0.275l-0.893,-0.276l-0.892,-0.277l-0.89,-0.278l-0.889,-0.279l-0.888,-0.28l-0.887,-0.281l-0.885,-0.282l-0.885,-0.283l-0.882,-0.284l-0.882,-0.285l-0.88,-0.286l-0.879,-0.287l-0.878,-0.288l-0.876,-0.29l-0.875,-0.29l-0.874,-0.291l-0.872,-0.292l-0.871,-0.293l-0.87,-0.294l-0.868,-0.294l-0.867,-0.296l-0.866,-0.297l-0.864,-0.298l-0.863,-0.298l-0.862,-0.3l-0.86,-0.3l-0.859,-0.302l-0.857,-0.302l-0.857,-0.303l-0.854,-0.304l-0.854,-0.305l-0.852,-0.306l-0.851,-0.307l-0.849,-0.308l-0.848,-0.308l-0.846,-0.309l-0.846,-0.31l-0.843,-0.312l-0.843,-0.311l-0.841,-0.313l-0.839,-0.314l-0.838,-0.314l-0.837,-0.315l-0.835,-0.316l-0.834,-0.317l-0.832,-0.317l-0.831,-0.319l-0.83,-0.319l-0.828,-0.32l-0.827,-0.321l-0.825,-0.321l-0.824,-0.322l-0.822,-0.323l-0.821,-0.324l-0.819,-0.325l-0.818,-0.325l-0.817,-0.326l-0.815,-0.327l-0.813,-0.327l-0.812,-0.328l-0.811,-0.329l-0.809,-0.33l-0.807,-0.33l-0.806,-0.331l-0.805,-0.332l-0.803,-0.332l-0.802,-0.333l-0.8,-0.334l-0.798,-0.334l-0.797,-0.335l-0.796,-0.336l-0.794,-0.336l-0.793,-0.337l-0.79,-0.338l-0.79,-0.338l-0.788,-0.339l-0.786,-0.34l-0.785,-0.34l-0.783,-0.341l-0.782,-0.341l-0.78,-0.342l-0.779,-0.342l-0.777,-0.344l-0.775,-0.343l-0.774,-0.345l-0.772,-0.344l-0.771,-0.346l-0.769,-0.346l-0.768,-0.346l-0.766,-0.347l-0.764,-0.348l-0.763,-0.348l-0.761,-0.349l-0.76,-0.349l-0.758,-0.35l-0.756,-0.35l-0.755,-0.351l-0.753,-0.351l-0.752,-0.352l-0.75,-0.352l-0.748,-0.353l-0.747,-0.353l-0.745,-0.353l-0.743,-0.354l-0.742,-0.355l-0.74,-0.355l-0.738,-0.355l-0.737,-0.356l-0.735,-0.357l-0.734,-0.357l-0.731,-0.357l-0.731,-0.357l-0.728,-0.358l-0.727,-0.359l-0.725,-0.359l-0.723,-0.359l-0.722,-0.36l-0.72,-0.36l-0.718,-0.36l-0.717,-0.361l-0.715,-0.361l-0.713,-0.361l-0.712,-0.362l-0.71,-0.362l-0.708,-0.363l-0.706,-0.363l-0.705,-0.363l-0.703,-0.364l-0.701,-0.363l-0.7,-0.365l-0.697,-0.364l-0.697,-0.365l-0.694,-0.365l-0.692,-0.365l-0.691,-0.366l-0.689,-0.366l-0.687,-0.366l-0.686,-0.367l-0.684,-0.366l-0.682,-0.367l-0.68,-0.368l-0.678,-0.367l-0.677,-0.368l-0.675,-0.368l-0.673,-0.368l-0.671,-0.368l-0.67,-0.369l-0.667,-0.369l-0.666,-0.369l-0.664,-0.369l-0.662,-0.37l-0.661,-0.369l-0.659,-0.37l-0.656,-0.37l-0.655,-0.37l-0.654,-0.371l-0.651,-0.37l-0.649,-0.371l-0.648,-0.371l-0.646,-0.37l-0.644,-0.372l-0.642,-0.371l-0.64,-0.371l-0.639,-0.371l-0.636,-0.372l-0.635,-0.372l-0.633,-0.371l-0.631,-0.372l-0.629,-0.372l-0.627,-0.372l-0.625,-0.372l-0.624,-0.373l-0.621,-0.372l-0.62,-0.372l-0.618,-0.373l-0.615,-0.372l-0.614,-0.372l-0.612,-0.373l-0.611,-0.372l-0.608,-0.373l-0.606,-0.373l-0.604,-0.372l-0.603,-0.373l-0.6,-0.372l-0.599,-0.373l-0.597,-0.372l-0.594,-0.373l-0.593,-0.373l-0.591,-0.372l-0.589,-0.373l-0.587,-0.372l-0.585,-0.372l-0.583,-0.373l-0.581,-0.372l-0.579,-0.372l-0.577,-0.373l-0.575,-0.372l-0.573,-0.372l-0.571,-0.372l-0.569,-0.371l-0.567,-0.372l-0.566,-0.372l-0.563,-0.371l-0.561,-0.372l-0.559,-0.371l-0.557,-0.371l-0.555,-0.371l-0.554,-0.371l-0.551,-0.371l-0.549,-0.371l-0.547,-0.37l-0.545,-0.371l-0.543,-0.37l-0.541,-0.37l-0.539,-0.37l-0.536,-0.369l-0.535,-0.37l-0.533,-0.369l-0.531,-0.369l-0.528,-0.369l-0.527,-0.369l-0.524,-0.368l-0.523,-0.368l-0.52,-0.368l-0.519,-0.368l-0.516,-0.367l-0.514,-0.368l-0.512,-0.367l-0.51,-0.366l-0.508,-0.367l-0.505,-0.366l-0.504,-0.366l-0.502,-0.366l-0.499,-0.365l-0.497,-0.365l-0.495,-0.365l-0.494,-0.364l-0.49,-0.365l-0.489,-0.363l-0.487,-0.364l-0.484,-0.363l-0.483,-0.363l-0.48,-0.363l-0.478,-0.362l-0.476,-0.362l-0.474,-0.361l-0.472,-0.361l-0.469,-0.361l-0.467,-0.36l-0.466,-0.36l-0.463,-0.36l-0.46,-0.359l-0.459,-0.359l-0.456,-0.358l-0.455,-0.359l-0.452,-0.357l-0.45,-0.357l-0.447,-0.357l-0.446,-0.356l-0.443,-0.356l-0.441,-0.356l-0.439,-0.355l-0.436,-0.354l-0.435,-0.354l-0.432,-0.354l-0.43,-0.353l-0.428,-0.353l-0.425,-0.352l-0.423,-0.352l-0.421,-0.351l-0.419,-0.351l-0.417,-0.35l-0.414,-0.35l-0.412,-0.349l-0.41,-0.349l-0.407,-0.348l-0.405,-0.347l-0.403,-0.347l-0.401,-0.347l-0.398,-0.346l-0.396,-0.345l-0.394,-0.345l-0.392,-0.344l-0.389,-0.344l-0.387,-0.343l-0.385,-0.343l-0.382,-0.342l-0.38,-0.341l-0.378,-0.341l-0.375,-0.34l-0.373,-0.34l-0.371,-0.338l-0.368,-0.339l-0.366,-0.337l-0.364,-0.337l-0.362,-0.337l-0.359,-0.335l-0.356,-0.335l-0.355,-0.335l-0.352,-0.334l-0.35,-0.333l-0.347,-0.332l-0.345,-0.332l-0.343,-0.331l-0.34,-0.33l-0.338,-0.329l-0.335,-0.329l-0.333,-0.329l-0.331,-0.327l-0.328,-0.327l-0.326,-0.326l-0.324,-0.325l-0.321,-0.324l-0.319,-0.324l-0.316,-0.323l-0.314,-0.322l-0.312,-0.322l-0.309,-0.321l-0.306,-0.32l-0.305,-0.319l-0.302,-0.318l-0.299,-0.318l-0.297,-0.316l-0.295,-0.316l-0.292,-0.316l-0.289,-0.314l-0.288,-0.313l-0.284,-0.313l-0.283,-0.312l-0.279,-0.311l-0.278,-0.31l-0.275,-0.309l-0.272,-0.309l-0.27,-0.308l-0.268,-0.306l-0.265,-0.306l-0.262,-0.305l-0.26,-0.304l-0.258,-0.303l-0.255,-0.303l-0.252,-0.301l-0.25,-0.3l-0.248,-0.3l-0.245,-0.299l-0.242,-0.297l-0.24,-0.297l-0.238,-0.296l-0.235,-0.295l-0.232,-0.294l-0.23,-0.293l-0.227,-0.292l-0.225,-0.291l-0.222,-0.29l-0.22,-0.289l-0.217,-0.288l-0.215,-0.287l-0.212,-0.286l-0.209,-0.285l-0.207,-0.285l-0.205,-0.283l-0.201,-0.282l-0.2,-0.281l-0.196,-0.28l-0.194,-0.279l-0.192,-0.278l-0.189,-0.277l-0.186,-0.275l-0.184,-0.275l-0.181,-0.274l-0.178,-0.273l-0.176,-0.271l-0.173,-0.271l-0.171,-0.269l-0.168,-0.268l-0.165,-0.267l-0.163,-0.267l-0.16,-0.265l-0.158,-0.263l-0.154,-0.263l-0.153,-0.262l-0.149,-0.26l-0.147,-0.259l-0.144,-0.259l-0.142,-0.257l-0.139,-0.256l-0.136,-0.254l-0.134,-0.254l-0.131,-0.252l-0.128,-0.251l-0.126,-0.25l-0.123,-0.249l-0.12,-0.248l-0.117,-0.246l-0.115,-0.245l-0.112,-0.244l-0.11,-0.243l-0.107,-0.241l-0.104,-0.241l-0.101,-0.239l-0.099,-0.238l-0.096,-0.236l-0.093,-0.235l-0.09,-0.234l-0.088,-0.233l-0.085,-0.232l-0.082,-0.23l-0.08,-0.229l-0.076,-0.227l-0.074,-0.227l-0.072,-0.225l-0.068,-0.223l-0.066,-0.223l-0.063,-0.221l-0.06,-0.22l-0.058,-0.218l-0.054,-0.217l-0.052,-0.216l-0.049,-0.214l-0.047,-0.213l-0.043,-0.212l-0.041,-0.21l-0.038,-0.209l-0.035,-0.208l-0.033,-0.206l-0.029,-0.205l-0.027,-0.203l-0.024,-0.202l-0.021,-0.201l-0.018,-0.199l-0.016,-0.198l-0.013,-0.196l-0.009,-0.195l-0.007,-0.193l-0.005,-0.192l-0.001,-0.191l0.002,-0.189l0.004,-0.188l0.007,-0.186l0.01,-0.185l0.013,-0.183l0.016,-0.182l0.009,-0.09l0.01,-0.09l0.01,-0.09l0.011,-0.089l0.012,-0.089l0.013,-0.088l0.013,-0.088l0.014,-0.088l0.015,-0.087l0.015,-0.087l0.016,-0.087l0.017,-0.086l0.018,-0.086l0.018,-0.086l0.019,-0.086l0.02,-0.086l0.021,-0.087l0.022,-0.086l0.023,-0.087l0.023,-0.086l0.024,-0.087l0.025,-0.086l0.026,-0.087l0.026,-0.087l0.056,-0.174l0.059,-0.174l0.062,-0.174l0.065,-0.175l0.068,-0.174l0.072,-0.176l0.074,-0.175l0.078,-0.175l0.081,-0.176l0.084,-0.176l0.088,-0.177l0.09,-0.176l0.094,-0.177l0.097,-0.177l0.1,-0.177l0.103,-0.177l0.106,-0.178l0.11,-0.177l0.112,-0.178l0.116,-0.178l0.119,-0.179l0.121,-0.178l0.125,-0.179l0.128,-0.179l0.131,-0.179l0.135,-0.179l0.137,-0.179l0.14,-0.18l0.144,-0.18l0.146,-0.179l0.15,-0.18l0.152,-0.181l0.156,-0.18l0.158,-0.18l0.162,-0.181l0.165,-0.18l0.167,-0.181l0.171,-0.181l0.174,-0.181l0.176,-0.181l0.18,-0.182l0.183,-0.181l0.185,-0.182l0.189,-0.181l0.192,-0.182l0.194,-0.182l0.198,-0.181l0.2,-0.182l0.204,-0.182l0.206,-0.182l0.21,-0.183l0.212,-0.182l0.215,-0.182l0.218,-0.182l0.221,-0.183l0.224,-0.182l0.227,-0.183l0.23,-0.182l0.232,-0.183l0.236,-0.182l0.238,-0.183l0.242,-0.183l0.244,-0.182l0.247,-0.183l0.25,-0.183l0.253,-0.183l0.255,-0.182l0.259,-0.183l0.261,-0.183l0.264,-0.183l0.267,-0.182l0.27,-0.183l0.273,-0.183l0.275,-0.183l0.278,-0.182l0.281,-0.183l0.284,-0.183l0.287,-0.182l0.289,-0.183l0.292,-0.182l0.295,-0.183l0.298,-0.182l0.301,-0.182l0.303,-0.183l0.306,-0.182l0.308,-0.182l0.312,-0.182l0.314,-0.182l0.317,-0.182l0.32,-0.182l0.322,-0.182l0.325,-0.181l0.328,-0.182l0.33,-0.181l0.334,-0.182l0.335,-0.181l0.339,-0.181l0.341,-0.181l0.344,-0.181l0.347,-0.181l0.349,-0.181l0.352,-0.18l0.354,-0.181l0.358,-0.18l0.359,-0.18l0.363,-0.18l0.365,-0.18l0.368,-0.18l0.37,-0.179l0.373,-0.18l0.375,-0.179l0.378,-0.179l0.381,-0.179l0.383,-0.178l0.386,-0.179l0.389,-0.178l0.391,-0.178l0.393,-0.178l0.397,-0.178l0.398,-0.178l0.402,-0.177l0.403,-0.177l0.407,-0.177l0.409,-0.177l0.411,-0.176l0.414,-0.176l0.416,-0.176l0.419,-0.176l0.422,-0.176l0.424,-0.175l0.426,-0.175l0.429,-0.175l0.432,-0.175l0.434,-0.174l0.436,-0.174l0.439,-0.174l0.441,-0.173l0.444,-0.174l0.446,-0.173l0.449,-0.172l0.451,-0.173l0.453,-0.172l0.456,-0.172l0.459,-0.171l0.46,-0.172l0.464,-0.171l0.465,-0.17l0.468,-0.171l0.471,-0.17l0.472,-0.169l0.475,-0.17l0.478,-0.169l0.48,-0.169l0.482,-0.168l0.485,-0.168l0.487,-0.168l0.489,-0.167l0.492,-0.167l0.494,-0.167l0.496,-0.166l0.499,-0.166l0.501,-0.166l0.503,-0.165l0.506,-0.165l0.508,-0.164l0.51,-0.164l0.512,-0.164l0.515,-0.163l0.517,-0.163l0.519,-0.163l0.522,-0.162l0.524,-0.161l0.526,-0.162l0.528,-0.161l0.531,-0.16l0.533,-0.16l0.535,-0.16l0.537,-0.159l0.54,-0.159l0.542,-0.158l0.544,-0.158l0.546,-0.158l0.548,-0.157l0.551,-0.156l0.553,-0.156l0.555,-0.156l0.557,-0.155l0.559,-0.155l0.562,-0.154l0.564,-0.154l0.565,-0.153l0.568,-0.153l0.571,-0.152l0.572,-0.152l0.574,-0.151l0.577,-0.151l0.579,-0.15l0.58,-0.15l0.583,-0.149l0.585,-0.149l0.587,-0.148l0.59,-0.148l0.591,-0.147l0.593,-0.147l0.596,-0.146l0.597,-0.146l0.6,-0.145l0.602,-0.145l0.603,-0.143l0.606,-0.144l0.608,-0.143l0.61,-0.142l0.612,-0.142l0.614,-0.141l0.616,-0.141l0.618,-0.14l0.62,-0.139l0.622,-0.139l0.624,-0.138l0.626,-0.138l0.628,-0.137l0.63,-0.136l0.632,-0.136l0.634,-0.135l0.636,-0.135l0.638,-0.134l0.639,-0.134l0.642,-0.132l0.644,-0.132l0.646,-0.132l0.647,-0.131l0.65,-0.13l0.651,-0.13l0.654,-0.129l0.655,-0.128l0.657,-0.128l0.659,-0.127l0.661,-0.126l0.663,-0.125l0.665,-0.125l0.666,-0.125l0.669,-0.123l0.67,-0.123l0.673,-0.123l0.674,-0.121l0.676,-0.121l0.678,-0.12l0.679,-0.12l0.682,-0.118l0.683,-0.118l0.685,-0.118l0.687,-0.116l0.689,-0.116l0.69,-0.115l0.693,-0.115l0.694,-0.113l0.696,-0.113l0.698,-0.113l0.699,-0.111l0.702,-0.111l0.703,-0.11l0.704,-0.109l0.707,-0.108l0.708,-0.108l0.711,-0.107l0.711,-0.106l0.714,-0.105l0.715,-0.105l0.717,-0.104l0.719,-0.103l0.72,-0.102l0.723,-0.101l0.723,-0.101l0.726,-0.1l0.727,-0.099l0.729,-0.098l0.731,-0.097l0.732,-0.097l0.734,-0.095l0.735,-0.095l0.738,-0.094l0.739,-0.094l0.74,-0.092l0.742,-0.091l0.744,-0.091l0.746,-0.09l0.747,-0.089l0.748,-0.088l0.751,-0.087l0.752,-0.087l0.753,-0.085l0.755,-0.085l0.757,-0.083l0.758,-0.083l0.76,-0.082l0.762,-0.081l0.763,-0.08l0.764,-0.08l0.766,-0.078l0.768,-0.078l0.769,-0.076l0.771,-0.076l0.772,-0.074l0.774,-0.074l0.775,-0.073l0.777,-0.072l0.778,-0.071l0.78,-0.07l0.782,-0.069l0.783,-0.068l0.784,-0.068l0.786,-0.066l0.787,-0.065l0.789,-0.065l0.79,-0.063l0.792,-0.062l0.793,-0.062l0.795,-0.06l0.796,-0.06l0.797,-0.058l0.799,-0.058l0.8,-0.056l0.802,-0.056l0.803,-0.054l0.805,-0.054l0.806,-0.052l0.807,-0.052l0.809,-0.05l0.81,-0.049l0.812,-0.049l0.813,-0.047l0.814,-0.047l0.816,-0.045l0.817,-0.044l0.818,-0.043l0.82,-0.043l0.821,-0.041l0.823,-0.04l0.823,-0.039l0.826,-0.038l0.826,-0.036l0.828,-0.036l0.829,-0.035l0.83,-0.034l0.832,-0.032l0.833,-0.032l0.834,-0.03l0.835,-0.029l0.837,-0.028l0.838,-0.027l0.84,-0.026l0.84,-0.025l0.842,-0.024l0.843,-0.023l0.844,-0.021l0.846,-0.02l0.847,-0.02l0.848,-0.018l0.849,-0.017l0.851,-0.016l0.851,-0.014l0.853,-0.014l0.854,-0.012l0.855,-0.011l0.857,-0.01l0.857,-0.009l0.859,-0.008l0.86,-0.006l0.861,-0.006l0.863,-0.004l0.863,-0.003l0.865,-0.002l0.866,0l0.866,0ZM195.38,121.982l-0.851,0.002l-0.85,0.002l-0.848,0.005l-0.847,0.005l-0.846,0.006l-0.845,0.008l-0.843,0.009l-0.843,0.009l-0.841,0.011l-0.84,0.013l-0.84,0.013l-0.837,0.014l-0.837,0.016l-0.835,0.016l-0.834,0.018l-0.833,0.019l-0.832,0.02l-0.831,0.021l-0.829,0.023l-0.828,0.023l-0.826,0.024l-0.826,0.026l-0.824,0.026l-0.823,0.028l-0.822,0.029l-0.82,0.03l-0.819,0.031l-0.818,0.032l-0.817,0.033l-0.815,0.034l-0.813,0.035l-0.813,0.036l-0.812,0.038l-0.81,0.038l-0.808,0.039l-0.807,0.041l-0.806,0.041l-0.805,0.043l-0.804,0.043l-0.801,0.045l-0.801,0.045l-0.799,0.047l-0.798,0.048l-0.796,0.048l-0.796,0.05l-0.793,0.05l-0.792,0.052l-0.791,0.052l-0.789,0.054l-0.788,0.055l-0.787,0.055l-0.785,0.057l-0.784,0.057l-0.782,0.059l-0.781,0.059l-0.779,0.06l-0.778,0.062l-0.776,0.062l-0.776,0.063l-0.773,0.064l-0.772,0.065l-0.771,0.066l-0.769,0.067l-0.768,0.068l-0.766,0.069l-0.764,0.07l-0.763,0.07l-0.762,0.072l-0.76,0.073l-0.758,0.073l-0.757,0.074l-0.755,0.075l-0.754,0.076l-0.752,0.077l-0.751,0.078l-0.749,0.079l-0.748,0.08l-0.745,0.08l-0.745,0.081l-0.743,0.083l-0.741,0.083l-0.74,0.083l-0.737,0.085l-0.737,0.086l-0.735,0.086l-0.733,0.088l-0.731,0.088l-0.73,0.089l-0.729,0.09l-0.726,0.09l-0.725,0.092l-0.723,0.092l-0.722,0.093l-0.719,0.094l-0.719,0.094l-0.716,0.096l-0.715,0.096l-0.713,0.097l-0.712,0.098l-0.71,0.099l-0.707,0.099l-0.707,0.1l-0.704,0.101l-0.703,0.102l-0.701,0.102l-0.699,0.104l-0.698,0.104l-0.696,0.104l-0.694,0.106l-0.692,0.106l-0.691,0.107l-0.689,0.108l-0.686,0.108l-0.685,0.109l-0.684,0.11l-0.682,0.111l-0.679,0.111l-0.678,0.112l-0.676,0.113l-0.674,0.113l-0.673,0.115l-0.67,0.114l-0.669,0.116l-0.667,0.116l-0.665,0.117l-0.663,0.118l-0.661,0.118l-0.66,0.119l-0.657,0.119l-0.656,0.121l-0.654,0.12l-0.652,0.122l-0.649,0.122l-0.649,0.123l-0.645,0.123l-0.644,0.124l-0.643,0.125l-0.64,0.126l-0.638,0.126l-0.637,0.126l-0.634,0.127l-0.633,0.128l-0.63,0.129l-0.629,0.129l-0.626,0.129l-0.625,0.13l-0.622,0.131l-0.621,0.132l-0.618,0.132l-0.617,0.132l-0.615,0.133l-0.612,0.134l-0.61,0.134l-0.609,0.135l-0.606,0.135l-0.604,0.136l-0.603,0.137l-0.6,0.137l-0.598,0.137l-0.596,0.138l-0.594,0.139l-0.592,0.139l-0.589,0.14l-0.588,0.14l-0.585,0.14l-0.584,0.141l-0.582,0.142l-0.578,0.142l-0.577,0.143l-0.576,0.143l-0.572,0.144l-0.571,0.144l-0.569,0.144l-0.565,0.145l-0.564,0.146l-0.563,0.146l-0.559,0.146l-0.558,0.147l-0.555,0.147l-0.553,0.148l-0.551,0.148l-0.549,0.149l-0.546,0.149l-0.545,0.15l-0.542,0.15l-0.539,0.15l-0.538,0.151l-0.535,0.151l-0.533,0.151l-0.531,0.152l-0.528,0.152l-0.526,0.153l-0.524,0.153l-0.522,0.154l-0.519,0.154l-0.517,0.154l-0.514,0.154l-0.513,0.155l-0.51,0.156l-0.507,0.155l-0.506,0.156l-0.502,0.156l-0.501,0.157l-0.498,0.157l-0.496,0.157l-0.494,0.158l-0.49,0.158l-0.488,0.158l-0.487,0.158l-0.484,0.159l-0.481,0.159l-0.48,0.16l-0.476,0.16l-0.473,0.159l-0.472,0.161l-0.47,0.16l-0.467,0.161l-0.464,0.161l-0.461,0.161l-0.459,0.162l-0.457,0.161l-0.454,0.162l-0.452,0.163l-0.45,0.162l-0.446,0.162l-0.445,0.163l-0.441,0.163l-0.439,0.163l-0.437,0.164l-0.434,0.163l-0.432,0.164l-0.428,0.164l-0.426,0.164l-0.424,0.164l-0.421,0.165l-0.418,0.164l-0.417,0.165l-0.413,0.165l-0.41,0.165l-0.408,0.165l-0.405,0.165l-0.402,0.165l-0.401,0.166l-0.398,0.166l-0.393,0.165l-0.392,0.165l-0.39,0.166l-0.387,0.166l-0.383,0.166l-0.381,0.166l-0.378,0.166l-0.376,0.166l-0.373,0.166l-0.369,0.166l-0.368,0.166l-0.365,0.166l-0.361,0.166l-0.359,0.166l-0.356,0.166l-0.353,0.166l-0.351,0.166l-0.347,0.166l-0.345,0.165l-0.342,0.166l-0.339,0.166l-0.336,0.166l-0.334,0.165l-0.33,0.166l-0.327,0.165l-0.325,0.165l-0.322,0.165l-0.318,0.165l-0.316,0.165l-0.313,0.164l-0.31,0.165l-0.306,0.164l-0.304,0.164l-0.301,0.163l-0.298,0.164l-0.295,0.164l-0.291,0.162l-0.29,0.163l-0.285,0.163l-0.283,0.162l-0.279,0.162l-0.276,0.162l-0.274,0.161l-0.271,0.161l-0.267,0.161l-0.264,0.16l-0.261,0.16l-0.257,0.159l-0.255,0.159l-0.251,0.159l-0.249,0.158l-0.244,0.157l-0.242,0.157l-0.239,0.157l-0.235,0.156l-0.232,0.156l-0.229,0.155l-0.225,0.154l-0.223,0.154l-0.218,0.153l-0.216,0.152l-0.213,0.152l-0.208,0.151l-0.207,0.151l-0.202,0.149l-0.198,0.149l-0.196,0.148l-0.192,0.148l-0.189,0.146l-0.185,0.145l-0.182,0.145l-0.179,0.143l-0.175,0.143l-0.171,0.141l-0.168,0.141l-0.165,0.14l-0.161,0.138l-0.158,0.137l-0.155,0.136l-0.15,0.135l-0.147,0.134l-0.143,0.131l-0.141,0.132l-0.137,0.129l-0.132,0.127l-0.13,0.128l-0.127,0.125l-0.121,0.123l-0.12,0.122l-0.115,0.12l-0.111,0.119l-0.109,0.117l-0.105,0.115l-0.101,0.113l-0.097,0.111l-0.095,0.109l-0.091,0.108l-0.087,0.104l-0.083,0.103l-0.081,0.101l-0.077,0.098l-0.073,0.096l-0.071,0.094l-0.066,0.091l-0.064,0.089l-0.06,0.086l-0.057,0.083l-0.054,0.081l-0.05,0.078l-0.047,0.075l-0.045,0.072l-0.041,0.069l-0.039,0.067l-0.036,0.063l-0.032,0.06l-0.03,0.056l-0.028,0.053l-0.025,0.052l-0.023,0.047l-0.02,0.043l-0.017,0.04l-0.016,0.037l-0.014,0.034l-0.011,0.029l-0.01,0.026l-0.009,0.024l-0.006,0.02l-0.01,0.03l-0.001,0.003l-0.001,0.005l-0.001,0.003l0,0.001l0,0.001l-0.001,0.004l0,0.004l-0.001,0.003l-0.002,0.033l-0.002,0.02l-0.001,0.023l-0.001,0.029l-0.001,0.032l0,0.036l0.003,0.132l0.011,0.169l0.013,0.131l0.018,0.149l0.025,0.162l0.031,0.181l0.039,0.193l0.047,0.208l0.055,0.224l0.031,0.117l0.033,0.121l0.035,0.124l0.038,0.127l0.039,0.13l0.043,0.134l0.045,0.137l0.047,0.14l0.05,0.144l0.052,0.146l0.055,0.149l0.057,0.153l0.061,0.156l0.062,0.158l0.066,0.161l0.068,0.164l0.07,0.167l0.074,0.17l0.076,0.172l0.079,0.174l0.081,0.178l0.084,0.18l0.087,0.182l0.09,0.185l0.093,0.188l0.096,0.19l0.098,0.192l0.1,0.194l0.104,0.197l0.107,0.199l0.109,0.201l0.112,0.203l0.115,0.207l0.118,0.208l0.12,0.209l0.123,0.212l0.127,0.214l0.129,0.216l0.132,0.218l0.134,0.22l0.137,0.222l0.14,0.224l0.144,0.226l0.146,0.228l0.148,0.228l0.151,0.232l0.154,0.233l0.158,0.235l0.159,0.236l0.163,0.238l0.165,0.241l0.168,0.241l0.171,0.243l0.173,0.245l0.176,0.246l0.179,0.248l0.183,0.25l0.184,0.251l0.187,0.253l0.19,0.255l0.193,0.255l0.196,0.258l0.198,0.259l0.201,0.259l0.203,0.262l0.207,0.263l0.209,0.264l0.212,0.266l0.214,0.267l0.217,0.268l0.22,0.271l0.222,0.271l0.226,0.272l0.227,0.274l0.231,0.275l0.233,0.276l0.235,0.277l0.239,0.28l0.241,0.279l0.244,0.281l0.246,0.283l0.249,0.284l0.252,0.285l0.253,0.285l0.257,0.287l0.26,0.289l0.262,0.289l0.264,0.291l0.267,0.291l0.27,0.293l0.272,0.293l0.275,0.295l0.277,0.296l0.28,0.297l0.283,0.298l0.285,0.299l0.288,0.3l0.29,0.301l0.292,0.302l0.295,0.303l0.298,0.304l0.3,0.305l0.303,0.306l0.306,0.307l0.307,0.308l0.31,0.308l0.313,0.31l0.315,0.31l0.318,0.312l0.32,0.312l0.323,0.313l0.325,0.314l0.327,0.315l0.33,0.316l0.333,0.317l0.335,0.317l0.337,0.318l0.34,0.319l0.342,0.32l0.345,0.321l0.347,0.322l0.349,0.322l0.352,0.323l0.354,0.324l0.357,0.324l0.359,0.326l0.361,0.326l0.364,0.327l0.367,0.327l0.368,0.328l0.371,0.33l0.374,0.329l0.375,0.33l0.379,0.332l0.38,0.331l0.383,0.333l0.385,0.333l0.387,0.334l0.39,0.334l0.392,0.335l0.395,0.336l0.397,0.336l0.399,0.337l0.401,0.337l0.404,0.339l0.406,0.338l0.408,0.34l0.411,0.34l0.413,0.34l0.415,0.341l0.417,0.342l0.42,0.342l0.422,0.343l0.425,0.343l0.426,0.344l0.429,0.344l0.431,0.345l0.433,0.345l0.436,0.346l0.437,0.346l0.441,0.347l0.442,0.348l0.444,0.347l0.447,0.349l0.449,0.348l0.451,0.35l0.454,0.349l0.455,0.35l0.458,0.351l0.46,0.351l0.462,0.351l0.464,0.352l0.467,0.352l0.469,0.352l0.471,0.354l0.473,0.353l0.475,0.354l0.477,0.354l0.48,0.354l0.482,0.355l0.483,0.355l0.486,0.356l0.489,0.356l0.49,0.356l0.492,0.357l0.495,0.356l0.497,0.358l0.498,0.357l0.501,0.358l0.503,0.358l0.506,0.359l0.507,0.359l0.509,0.358l0.512,0.36l0.513,0.359l0.516,0.36l0.517,0.36l0.52,0.36l0.522,0.361l0.524,0.361l0.526,0.361l0.528,0.36l0.53,0.362l0.533,0.362l0.534,0.362l0.536,0.362l0.538,0.362l0.541,0.362l0.542,0.363l0.545,0.362l0.546,0.363l0.549,0.363l0.55,0.363l0.553,0.364l0.554,0.364l0.557,0.363l0.558,0.364l0.561,0.364l0.562,0.364l0.565,0.364l0.567,0.364l0.568,0.364l0.571,0.365l0.572,0.364l0.574,0.365l0.577,0.364l0.578,0.365l0.581,0.365l0.582,0.364l0.584,0.365l0.586,0.365l0.588,0.365l0.59,0.365l0.593,0.365l0.593,0.365l0.596,0.365l0.598,0.365l0.6,0.365l0.601,0.365l0.604,0.365l0.605,0.365l0.608,0.365l0.609,0.364l0.611,0.365l0.613,0.365l0.615,0.365l0.617,0.365l0.618,0.364l0.621,0.365l0.622,0.364l0.624,0.364l0.627,0.365l0.628,0.364l0.629,0.364l0.632,0.364l0.634,0.364l0.635,0.364l0.637,0.363l0.64,0.364l0.641,0.364l0.642,0.363l0.645,0.363l0.646,0.363l0.648,0.362l0.651,0.363l0.651,0.362l0.654,0.363l0.656,0.362l0.657,0.362l0.659,0.361l0.66,0.362l0.663,0.361l0.665,0.361l0.666,0.361l0.668,0.361l0.669,0.36l0.672,0.361l0.673,0.36l0.675,0.359l0.677,0.359l0.679,0.36l0.68,0.359l0.682,0.358l0.683,0.359l0.686,0.358l0.687,0.358l0.689,0.357l0.691,0.357l0.692,0.357l0.695,0.357l0.695,0.356l0.698,0.356l0.699,0.355l0.701,0.356l0.703,0.355l0.704,0.354l0.706,0.354l0.708,0.354l0.709,0.354l0.711,0.353l0.713,0.352l0.714,0.353l0.717,0.352l0.717,0.351l0.72,0.351l0.721,0.351l0.722,0.35l0.725,0.35l0.726,0.35l0.727,0.349l0.73,0.348l0.731,0.349l0.732,0.347l0.734,0.348l0.736,0.346l0.737,0.347l0.739,0.346l0.741,0.345l0.743,0.345l0.743,0.344l0.746,0.344l0.746,0.344l0.749,0.342l0.751,0.343l0.751,0.342l0.753,0.341l0.756,0.341l0.756,0.34l0.758,0.34l0.76,0.339l0.761,0.339l0.763,0.338l0.764,0.337l0.766,0.337l0.767,0.337l0.769,0.336l0.771,0.335l0.772,0.334l0.773,0.334l0.775,0.334l0.777,0.332l0.778,0.333l0.78,0.331l0.781,0.331l0.783,0.33l0.784,0.33l0.785,0.329l0.787,0.328l0.789,0.328l0.79,0.327l0.792,0.326l0.793,0.326l0.795,0.325l0.796,0.324l0.797,0.324l0.799,0.323l0.8,0.322l0.802,0.321l0.804,0.321l0.804,0.32l0.807,0.319l0.807,0.319l0.809,0.318l0.811,0.317l0.812,0.316l0.813,0.316l0.815,0.315l0.816,0.314l0.818,0.313l0.82,0.313l0.82,0.311l0.822,0.311l0.823,0.31l0.825,0.31l0.826,0.308l0.827,0.308l0.829,0.307l0.83,0.306l0.832,0.305l0.833,0.304l0.834,0.304l0.836,0.302l0.837,0.302l0.839,0.301l0.839,0.3l0.842,0.3l0.842,0.298l0.844,0.297l0.845,0.297l0.847,0.296l0.848,0.294l0.849,0.294l0.85,0.293l0.852,0.292l0.854,0.291l0.854,0.291l0.856,0.289l0.857,0.288l0.858,0.287l0.86,0.287l0.861,0.285l0.862,0.285l0.864,0.283l0.865,0.283l0.866,0.281l0.867,0.281l0.869,0.279l0.87,0.279l0.871,0.278l0.873,0.276l0.873,0.276l0.875,0.274l0.876,0.274l0.878,0.272l0.879,0.272l0.88,0.27l0.881,0.269l0.883,0.269l0.883,0.267l0.885,0.266l0.886,0.265l0.888,0.264l0.888,0.263l0.89,0.262l0.891,0.26l0.892,0.26l0.893,0.259l0.895,0.257l0.896,0.256l0.897,0.255l0.898,0.254l0.899,0.253l0.9,0.252l0.902,0.251l0.903,0.249l0.904,0.248l0.905,0.248l0.906,0.245l0.908,0.245l0.909,0.244l0.909,0.242l0.911,0.241l0.912,0.24l0.913,0.239l0.914,0.238l0.916,0.236l0.917,0.235l0.917,0.234l0.919,0.233l0.92,0.231l0.921,0.231l0.922,0.229l0.923,0.227l0.924,0.227l0.926,0.225l0.926,0.224l0.928,0.222l0.928,0.222l0.93,0.22l0.931,0.218l0.932,0.218l0.933,0.216l0.934,0.215l0.935,0.213l0.936,0.213l0.937,0.21l0.938,0.21l0.94,0.208l0.94,0.207l0.941,0.205l0.943,0.205l0.943,0.202l0.945,0.202l0.945,0.2l0.946,0.198l0.948,0.198l0.948,0.196l0.95,0.194l0.95,0.193l0.954,0.192l0.824,0.165l0.825,0.164l0.825,0.164l0.823,0.162l0.823,0.162l0.823,0.16l0.821,0.16l0.821,0.159l0.82,0.158l0.819,0.156l0.819,0.156l0.818,0.155l0.816,0.154l0.817,0.154l0.815,0.152l0.815,0.151l0.814,0.151l0.813,0.149l0.813,0.149l0.812,0.147l0.811,0.147l0.81,0.146l0.809,0.145l0.809,0.144l0.808,0.143l0.807,0.142l0.806,0.142l0.806,0.14l0.805,0.139l0.804,0.139l0.803,0.138l0.803,0.136l0.802,0.136l0.8,0.135l0.801,0.134l0.799,0.133l0.799,0.132l0.798,0.132l0.797,0.13l0.796,0.13l0.796,0.129l0.795,0.127l0.793,0.127l0.794,0.126l0.792,0.125l0.792,0.124l0.79,0.124l0.79,0.122l0.79,0.122l0.788,0.12l0.788,0.12l0.787,0.119l0.786,0.118l0.785,0.117l0.785,0.116l0.783,0.115l0.783,0.115l0.782,0.113l0.781,0.113l0.781,0.112l0.779,0.111l0.779,0.11l0.778,0.109l0.777,0.108l0.776,0.108l0.776,0.106l0.775,0.106l0.773,0.105l0.774,0.104l0.772,0.103l0.771,0.102l0.771,0.102l0.77,0.1l0.769,0.1l0.768,0.099l0.768,0.098l0.766,0.097l0.765,0.096l0.765,0.095l0.764,0.095l0.764,0.093l0.762,0.093l0.761,0.092l0.761,0.091l0.76,0.09l0.759,0.09l0.758,0.088l0.758,0.088l0.756,0.087l0.755,0.086l0.755,0.085l0.754,0.084l0.754,0.084l0.752,0.082l0.751,0.082l0.751,0.081l0.749,0.08l0.749,0.079l0.748,0.079l0.747,0.077l0.747,0.077l0.744,0.076l0.745,0.075l0.744,0.074l0.743,0.074l0.742,0.072l0.741,0.072l0.74,0.071l0.739,0.07l0.739,0.069l0.738,0.069l0.736,0.067l0.736,0.067l0.735,0.066l0.734,0.065l0.731,0.064l1.466,0.127l1.461,0.123l1.456,0.119l1.454,0.117l1.45,0.113l1.446,0.11l1.442,0.107l1.439,0.103l1.436,0.101l1.431,0.097l1.429,0.094l1.424,0.09l1.421,0.088l1.418,0.084l1.413,0.081l1.41,0.079l1.407,0.074l1.402,0.072l1.399,0.069l1.395,0.065l1.392,0.063l1.388,0.059l1.384,0.056l1.38,0.054l1.377,0.05l1.373,0.047l1.369,0.043l1.365,0.041l1.362,0.038l1.357,0.035l1.354,0.032l1.35,0.029l1.347,0.025l1.342,0.023l1.339,0.02l1.335,0.016l1.33,0.014l1.327,0.011l1.323,0.008l1.319,0.005l1.316,0.002l1.311,-0.001l1.307,-0.004l1.304,-0.007l1.299,-0.01l1.295,-0.012l1.292,-0.016l1.288,-0.018l1.283,-0.022l1.28,-0.024l1.275,-0.027l1.272,-0.03l1.267,-0.033l1.266,-0.035l0.628,-0.019l0.629,-0.02l0.628,-0.02l0.627,-0.021l0.627,-0.021l0.625,-0.023l0.624,-0.023l0.623,-0.024l0.622,-0.024l0.621,-0.025l0.62,-0.026l0.618,-0.027l0.619,-0.027l0.616,-0.028l0.616,-0.028l0.615,-0.03l0.614,-0.03l0.613,-0.03l0.612,-0.032l0.61,-0.032l0.61,-0.033l0.608,-0.033l0.608,-0.034l0.606,-0.035l0.606,-0.035l0.604,-0.037l0.604,-0.036l0.602,-0.038l0.601,-0.038l0.601,-0.039l0.598,-0.04l0.598,-0.04l0.598,-0.041l0.595,-0.041l0.596,-0.043l0.594,-0.042l0.592,-0.044l0.592,-0.044l0.591,-0.045l0.589,-0.046l0.588,-0.046l0.588,-0.047l0.587,-0.047l0.585,-0.049l0.584,-0.048l0.583,-0.05l0.582,-0.05l0.581,-0.051l0.58,-0.051l0.58,-0.053l0.577,-0.052l0.577,-0.054l0.576,-0.054l0.574,-0.055l0.573,-0.055l0.573,-0.056l0.571,-0.057l0.57,-0.057l0.57,-0.058l0.568,-0.059l0.566,-0.059l0.567,-0.06l0.564,-0.06l0.563,-0.061l0.563,-0.062l0.561,-0.063l0.561,-0.063l0.559,-0.063l0.558,-0.065l0.557,-0.065l0.556,-0.065l0.555,-0.067l0.554,-0.066l0.552,-0.068l0.552,-0.068l0.551,-0.069l0.548,-0.069l0.548,-0.07l0.548,-0.071l0.545,-0.071l0.545,-0.072l0.543,-0.072l0.543,-0.073l0.542,-0.074l0.54,-0.074l0.539,-0.075l0.538,-0.076l0.537,-0.076l0.536,-0.076l0.534,-0.078l0.534,-0.078l0.532,-0.078l0.531,-0.079l0.531,-0.08l0.528,-0.081l0.528,-0.081l0.527,-0.081l0.525,-0.082l0.525,-0.083l0.523,-0.083l0.522,-0.084l0.521,-0.085l0.52,-0.085l0.518,-0.086l0.518,-0.086l0.516,-0.087l0.515,-0.087l0.514,-0.088l0.513,-0.089l0.512,-0.089l0.51,-0.09l0.509,-0.091l0.509,-0.091l0.507,-0.091l0.505,-0.092l0.505,-0.093l0.503,-0.093l0.503,-0.094l0.501,-0.095l0.5,-0.095l0.499,-0.095l0.498,-0.096l0.496,-0.097l0.495,-0.097l0.494,-0.098l0.493,-0.098l0.492,-0.099l0.49,-0.1l0.489,-0.1l0.489,-0.101l0.487,-0.101l0.486,-0.102l0.484,-0.102l0.483,-0.103l0.483,-0.103l0.481,-0.104l0.48,-0.105l0.478,-0.105l0.477,-0.105l0.477,-0.107l0.475,-0.106l0.473,-0.108l0.473,-0.107l0.471,-0.109l0.47,-0.109l0.47,-0.109l0.467,-0.11l0.467,-0.11l0.465,-0.111l0.464,-0.112l0.463,-0.112l0.461,-0.113l0.461,-0.113l0.459,-0.114l0.458,-0.114l0.457,-0.114l0.455,-0.116l0.454,-0.115l0.454,-0.117l0.452,-0.117l0.45,-0.117l0.449,-0.117l0.448,-0.119l0.447,-0.119l0.446,-0.119l0.445,-0.12l0.443,-0.121l0.441,-0.12l0.441,-0.122l0.439,-0.122l0.439,-0.122l0.437,-0.123l0.435,-0.123l0.435,-0.124l0.432,-0.125l0.432,-0.125l0.431,-0.125l0.429,-0.126l0.429,-0.126l0.427,-0.127l0.425,-0.127l0.424,-0.128l0.424,-0.129l0.422,-0.129l0.42,-0.129l0.419,-0.13l0.418,-0.13l0.417,-0.131l0.415,-0.131l0.415,-0.132l0.412,-0.132l0.412,-0.132l0.411,-0.134l0.408,-0.133l0.407,-0.134l0.408,-0.135l0.404,-0.135l0.405,-0.135l0.402,-0.136l0.401,-0.136l0.401,-0.137l0.399,-0.138l0.396,-0.137l0.396,-0.138l0.396,-0.139l0.393,-0.139l0.392,-0.14l0.391,-0.14l0.39,-0.14l0.388,-0.141l0.387,-0.141l0.386,-0.142l0.384,-0.143l0.383,-0.142l0.382,-0.143l0.381,-0.144l0.378,-0.143l0.379,-0.145l0.376,-0.145l0.375,-0.145l0.374,-0.146l0.372,-0.145l0.371,-0.147l0.371,-0.147l0.368,-0.147l0.367,-0.148l0.366,-0.148l0.365,-0.149l0.363,-0.149l0.362,-0.149l0.361,-0.15l0.359,-0.15l0.357,-0.151l0.357,-0.151l0.355,-0.151l0.354,-0.152l0.352,-0.152l0.351,-0.153l0.35,-0.153l0.349,-0.153l0.347,-0.154l0.346,-0.154l0.344,-0.155l0.343,-0.155l0.341,-0.155l0.34,-0.155l0.34,-0.157l0.338,-0.156l0.336,-0.157l0.334,-0.157l0.334,-0.158l0.332,-0.158l0.331,-0.158l0.329,-0.158l0.329,-0.16l0.326,-0.159l0.324,-0.159l0.325,-0.161l0.323,-0.16l0.32,-0.161l0.32,-0.161l0.319,-0.161l0.316,-0.162l0.316,-0.162l0.314,-0.162l0.313,-0.163l0.312,-0.164l0.31,-0.163l0.308,-0.164l0.307,-0.164l0.306,-0.164l0.305,-0.165l0.106,-0.058l-0.061,-0.109l-0.114,-0.201l-0.116,-0.202l-0.12,-0.207l-0.123,-0.208l-0.126,-0.209l-0.128,-0.211l-0.131,-0.213l-0.133,-0.213l-0.135,-0.215l-0.138,-0.216l-0.139,-0.216l-0.141,-0.217l-0.143,-0.217l-0.145,-0.217l-0.145,-0.217l-0.148,-0.218l-0.148,-0.217l-0.148,-0.216l-0.151,-0.216l-0.151,-0.215l-0.151,-0.215l-0.152,-0.213l-0.152,-0.212l-0.152,-0.211l-0.152,-0.209l-0.153,-0.208l-0.152,-0.206l-0.151,-0.204l-0.151,-0.203l-0.151,-0.201l-0.148,-0.196l-0.145,-0.191l-0.3,-0.391l-0.288,-0.373l-0.283,-0.361l-0.275,-0.348l-0.268,-0.336l-0.258,-0.321l-0.247,-0.304l-0.236,-0.289l-0.224,-0.272l-0.211,-0.253l-0.196,-0.234l-0.18,-0.214l-0.164,-0.194l-0.147,-0.172l-0.124,-0.144l-0.203,-0.234l-0.113,-0.13l-0.036,-0.04l-1.65,-2.558l-0.816,-2.933l0.093,-3.042l0.993,-2.878l1.803,-2.452l2.45,-1.806l2.876,-0.996l0.062,-0.012l0.191,-0.036l0.337,-0.065l0.206,-0.041l0.243,-0.049l0.274,-0.056l0.301,-0.062l0.327,-0.069l0.353,-0.076l0.376,-0.082l0.398,-0.088l0.419,-0.095l0.438,-0.101l0.456,-0.107l0.471,-0.112l0.487,-0.119l0.5,-0.124l0.518,-0.132l0.254,-0.066l0.262,-0.068l0.263,-0.07l0.265,-0.07l0.269,-0.073l0.269,-0.073l0.27,-0.075l0.272,-0.076l0.273,-0.077l0.273,-0.079l0.274,-0.079l0.273,-0.081l0.275,-0.082l0.274,-0.082l0.274,-0.084l0.274,-0.085l0.272,-0.086l0.271,-0.086l0.27,-0.088l0.27,-0.089l0.267,-0.089l0.266,-0.09l0.263,-0.091l0.26,-0.091l0.259,-0.092l0.256,-0.093l0.253,-0.092l0.248,-0.093l0.246,-0.094l0.242,-0.094l0.172,-0.068l-0.136,-0.234l-0.166,-0.285l-0.167,-0.282l-0.169,-0.284l-0.171,-0.285l-0.173,-0.285l-0.173,-0.285l-0.176,-0.285l-0.178,-0.286l-0.178,-0.285l-0.181,-0.287l-0.182,-0.287l-0.184,-0.286l-0.185,-0.287l-0.187,-0.287l-0.189,-0.288l-0.19,-0.288l-0.192,-0.289l-0.193,-0.288l-0.195,-0.288l-0.197,-0.29l-0.198,-0.289l-0.2,-0.289l-0.201,-0.29l-0.204,-0.29l-0.205,-0.291l-0.207,-0.29l-0.207,-0.291l-0.21,-0.291l-0.212,-0.292l-0.213,-0.291l-0.214,-0.292l-0.217,-0.292l-0.218,-0.292l-0.219,-0.293l-0.221,-0.292l-0.224,-0.294l-0.224,-0.293l-0.226,-0.293l-0.228,-0.293l-0.229,-0.294l-0.231,-0.295l-0.233,-0.293l-0.234,-0.295l-0.237,-0.295l-0.236,-0.294l-0.24,-0.295l-0.241,-0.296l-0.242,-0.295l-0.244,-0.296l-0.246,-0.296l-0.247,-0.296l-0.249,-0.296l-0.251,-0.296l-0.252,-0.297l-0.254,-0.296l-0.256,-0.297l-0.257,-0.298l-0.259,-0.297l-0.26,-0.296l-0.262,-0.298l-0.264,-0.298l-0.265,-0.298l-0.267,-0.298l-0.268,-0.297l-0.271,-0.299l-0.272,-0.299l-0.273,-0.298l-0.275,-0.299l-0.278,-0.299l-0.278,-0.299l-0.28,-0.299l-0.282,-0.299l-0.283,-0.299l-0.285,-0.299l-0.286,-0.3l-0.289,-0.3l-0.289,-0.3l-0.292,-0.3l-0.293,-0.299l-0.294,-0.301l-0.297,-0.3l-0.298,-0.301l-0.299,-0.3l-0.302,-0.3l-0.302,-0.301l-0.305,-0.301l-0.306,-0.301l-0.308,-0.3l-0.309,-0.301l-0.311,-0.302l-0.312,-0.301l-0.315,-0.301l-0.316,-0.301l-0.317,-0.302l-0.319,-0.301l-0.32,-0.301l-0.323,-0.302l-0.324,-0.302l-0.325,-0.301l-0.327,-0.302l-0.329,-0.302l-0.33,-0.301l-0.333,-0.303l-0.333,-0.302l-0.336,-0.302l-0.336,-0.302l-0.339,-0.302l-0.34,-0.302l-0.341,-0.302l-0.344,-0.302l-0.345,-0.302l-0.346,-0.303l-0.348,-0.302l-0.35,-0.302l-0.351,-0.303l-0.353,-0.302l-0.355,-0.302l-0.356,-0.303l-0.358,-0.302l-0.359,-0.303l-0.361,-0.302l-0.363,-0.302l-0.364,-0.303l-0.366,-0.302l-0.367,-0.302l-0.369,-0.303l-0.371,-0.303l-0.371,-0.301l-0.374,-0.303l-0.376,-0.303l-0.377,-0.302l-0.379,-0.303l-0.38,-0.302l-0.381,-0.302l-0.384,-0.303l-0.385,-0.302l-0.386,-0.302l-0.389,-0.302l-0.39,-0.303l-0.391,-0.302l-0.393,-0.302l-0.394,-0.302l-0.396,-0.302l-0.398,-0.302l-0.399,-0.302l-0.401,-0.302l-0.403,-0.302l-0.404,-0.302l-0.405,-0.301l-0.407,-0.302l-0.409,-0.302l-0.41,-0.301l-0.413,-0.302l-0.413,-0.302l-0.415,-0.301l-0.417,-0.302l-0.418,-0.301l-0.42,-0.301l-0.421,-0.301l-0.423,-0.301l-0.425,-0.302l-0.426,-0.3l-0.428,-0.301l-0.429,-0.301l-0.431,-0.301l-0.433,-0.3l-0.434,-0.301l-0.435,-0.3l-0.437,-0.301l-0.439,-0.3l-0.44,-0.3l-0.442,-0.3l-0.443,-0.3l-0.445,-0.3l-0.447,-0.3l-0.448,-0.3l-0.45,-0.299l-0.451,-0.299l-0.453,-0.3l-0.455,-0.299l-0.455,-0.299l-0.458,-0.299l-0.459,-0.299l-0.461,-0.299l-0.462,-0.299l-0.464,-0.298l-0.465,-0.298l-0.467,-0.298l-0.468,-0.299l-0.471,-0.298l-0.471,-0.298l-0.473,-0.297l-0.474,-0.298l-0.476,-0.297l-0.479,-0.298l-0.479,-0.297l-0.481,-0.297l-0.482,-0.297l-0.484,-0.296l-0.486,-0.297l-0.486,-0.297l-0.489,-0.296l-0.49,-0.296l-0.492,-0.296l-0.493,-0.296l-0.495,-0.295l-0.496,-0.296l-0.498,-0.295l-0.499,-0.295l-0.501,-0.295l-0.502,-0.295l-0.504,-0.295l-0.506,-0.294l-0.507,-0.295l-0.509,-0.294l-0.51,-0.294l-0.511,-0.294l-0.513,-0.293l-0.515,-0.293l-0.516,-0.294l-0.518,-0.293l-0.52,-0.293l-0.52,-0.292l-0.523,-0.293l-0.524,-0.292l-0.525,-0.292l-0.527,-0.292l-0.529,-0.292l-0.529,-0.291l-0.532,-0.291l-0.533,-0.291l-0.535,-0.291l-0.536,-0.291l-0.537,-0.29l-0.539,-0.29l-0.541,-0.29l-0.542,-0.29l-0.544,-0.29l-0.545,-0.289l-0.547,-0.289l-0.548,-0.289l-0.549,-0.289l-0.552,-0.288l-0.553,-0.289l-0.554,-0.287l-0.556,-0.288l-0.558,-0.288l-0.558,-0.287l-0.56,-0.287l-0.562,-0.287l-0.564,-0.286l-0.564,-0.287l-0.567,-0.286l-0.568,-0.286l-0.569,-0.285l-0.571,-0.286l-0.572,-0.285l-0.574,-0.284l-0.576,-0.285l-0.576,-0.284l-0.579,-0.285l-0.58,-0.283l-0.581,-0.284l-0.583,-0.283l-0.585,-0.283l-0.585,-0.283l-0.587,-0.282l-0.59,-0.283l-0.59,-0.282l-0.592,-0.281l-0.593,-0.282l-0.595,-0.281l-0.596,-0.281l-0.598,-0.28l-0.6,-0.281l-0.6,-0.28l-0.602,-0.28l-0.605,-0.279l-0.604,-0.279l-0.607,-0.279l-0.608,-0.279l-0.61,-0.278l-0.611,-0.278l-0.613,-0.278l-0.614,-0.277l-0.616,-0.277l-0.617,-0.277l-0.619,-0.277l-0.619,-0.276l-0.622,-0.276l-0.624,-0.275l-0.624,-0.276l-0.626,-0.275l-0.628,-0.274l-0.628,-0.275l-0.631,-0.274l-0.632,-0.273l-0.633,-0.274l-0.635,-0.273l-0.636,-0.273l-0.638,-0.272l-0.639,-0.272l-0.641,-0.272l-0.642,-0.271l-0.644,-0.272l-0.645,-0.271l-0.646,-0.27l-0.649,-0.27l-0.649,-0.27l-0.651,-0.269l-0.652,-0.269l-0.654,-0.269l-0.656,-0.269l-0.657,-0.268l-0.658,-0.268l-0.66,-0.267l-0.661,-0.267l-0.662,-0.267l-0.665,-0.266l-0.665,-0.266l-0.667,-0.266l-0.669,-0.265l-0.67,-0.265l-0.671,-0.264l-0.673,-0.265l-0.674,-0.264l-0.676,-0.263l-0.677,-0.263l-0.679,-0.263l-0.68,-0.262l-0.681,-0.262l-0.684,-0.262l-0.684,-0.261l-0.686,-0.261l-0.687,-0.261l-0.689,-0.26l-0.69,-0.26l-0.692,-0.259l-0.693,-0.259l-0.695,-0.258l-0.696,-0.259l-0.697,-0.258l-0.699,-0.257l-0.701,-0.257l-0.701,-0.257l-0.703,-0.256l-0.705,-0.256l-0.706,-0.255l-0.708,-0.255l-0.709,-0.255l-0.71,-0.254l-0.711,-0.254l-0.714,-0.254l-0.715,-0.253l-0.716,-0.252l-0.717,-0.252l-0.719,-0.252l-0.721,-0.252l-0.722,-0.251l-0.722,-0.25l-0.725,-0.25l-0.727,-0.25l-0.727,-0.249l-0.729,-0.249l-0.73,-0.249l-0.732,-0.248l-0.734,-0.247l-0.734,-0.248l-0.736,-0.246l-0.738,-0.247l-0.738,-0.245l-0.741,-0.246l-0.742,-0.245l-0.743,-0.244l-0.744,-0.245l-0.746,-0.243l-0.748,-0.244l-0.749,-0.242l-0.75,-0.243l-0.752,-0.242l-0.752,-0.241l-0.755,-0.241l-0.756,-0.241l-0.757,-0.24l-0.759,-0.239l-0.76,-0.24l-0.761,-0.238l-0.764,-0.239l-0.764,-0.237l-0.765,-0.238l-0.768,-0.237l-0.768,-0.236l-0.77,-0.236l-0.772,-0.236l-0.773,-0.234l-0.774,-0.235l-0.775,-0.234l-0.777,-0.234l-0.779,-0.233l-0.779,-0.232l-0.782,-0.233l-0.782,-0.231l-0.784,-0.231l-0.785,-0.231l-0.787,-0.23l-0.788,-0.23l-0.79,-0.229l-0.791,-0.229l-0.792,-0.228l-0.794,-0.228l-0.795,-0.227l-0.797,-0.227l-0.798,-0.226l-0.799,-0.226l-0.8,-0.225l-0.802,-0.225l-0.804,-0.224l-0.805,-0.224l-0.806,-0.223l-0.808,-0.223l-0.809,-0.222l-0.81,-0.222l-0.812,-0.221l-0.813,-0.221l-0.815,-0.22l-0.816,-0.22l-0.817,-0.219l-0.818,-0.218l-0.82,-0.218l-0.822,-0.218l-0.823,-0.217l-0.824,-0.216l-0.826,-0.216l-0.826,-0.216l-0.829,-0.215l-0.829,-0.214l-0.831,-0.214l-0.833,-0.213l-0.834,-0.213l-0.835,-0.212l-0.836,-0.212l-0.838,-0.211l-0.84,-0.211l-0.84,-0.21l-0.843,-0.209l-0.842,-0.209l-0.845,-0.208l-0.847,-0.208l-0.847,-0.208l-0.849,-0.206l-0.85,-0.207l-0.852,-0.205l-0.853,-0.205l-0.854,-0.205l-0.856,-0.204l-0.857,-0.203l-0.858,-0.203l-0.86,-0.202l-0.861,-0.202l-0.862,-0.201l-0.864,-0.2l-0.865,-0.2l-0.867,-0.2l-0.868,-0.199l-0.869,-0.198l-0.87,-0.197l-0.873,-0.198l-0.873,-0.196l-0.875,-0.196l-0.875,-0.195l-0.878,-0.195l-0.878,-0.194l-0.88,-0.194l-0.882,-0.193l-0.883,-0.192l-0.884,-0.192l-0.885,-0.191l-0.887,-0.191l-0.888,-0.19l-0.89,-0.189l-0.89,-0.189l-0.893,-0.188l-0.893,-0.188l-0.895,-0.186l-0.896,-0.187l-0.897,-0.186l-0.899,-0.185l-0.9,-0.184l-0.902,-0.184l-0.903,-0.184l-0.904,-0.182l-0.904,-0.182l-0.954,-0.19l-0.951,-0.189l-0.951,-0.187l-0.95,-0.184l-0.951,-0.184l-0.95,-0.182l-0.949,-0.18l-0.95,-0.178l-0.948,-0.177l-0.948,-0.175l-0.948,-0.173l-0.947,-0.172l-0.947,-0.17l-0.947,-0.169l-0.945,-0.166l-0.946,-0.166l-0.945,-0.163l-0.945,-0.162l-0.944,-0.16l-0.944,-0.159l-0.943,-0.157l-0.943,-0.156l-0.942,-0.154l-0.941,-0.152l-0.942,-0.151l-0.94,-0.149l-0.94,-0.147l-0.94,-0.146l-0.939,-0.145l-0.938,-0.142l-0.938,-0.141l-0.938,-0.14l-0.937,-0.138l-0.936,-0.137l-0.936,-0.134l-0.935,-0.134l-0.935,-0.132l-0.934,-0.13l-0.933,-0.129l-0.933,-0.127l-0.932,-0.125l-0.932,-0.124l-0.931,-0.123l-0.93,-0.121l-0.93,-0.12l-0.929,-0.118l-0.929,-0.116l-0.928,-0.115l-0.927,-0.114l-0.927,-0.111l-0.926,-0.111l-0.925,-0.109l-0.925,-0.107l-0.923,-0.106l-0.924,-0.105l-0.923,-0.103l-0.921,-0.101l-0.921,-0.1l-0.921,-0.099l-0.92,-0.097l-0.919,-0.096l-0.918,-0.094l-0.918,-0.093l-0.917,-0.091l-0.916,-0.09l-0.915,-0.089l-0.915,-0.087l-0.914,-0.085l-0.913,-0.084l-0.913,-0.083l-0.911,-0.081l-0.911,-0.08l-0.91,-0.079l-0.91,-0.077l-0.908,-0.075l-0.908,-0.074l-0.907,-0.073l-0.906,-0.072l-0.905,-0.07l-0.905,-0.068l-0.903,-0.068l-0.903,-0.066l-0.902,-0.064l-0.901,-0.063l-0.901,-0.062l-0.899,-0.06l-0.899,-0.059l-0.897,-0.058l-0.897,-0.056l-0.896,-0.055l-0.895,-0.054l-0.894,-0.052l-0.894,-0.051l-0.892,-0.05l-0.892,-0.048l-0.89,-0.047l-0.89,-0.046l-0.889,-0.044l-0.887,-0.043l-0.888,-0.042l-0.886,-0.04l-0.884,-0.039l-0.884,-0.038l-0.884,-0.037l-0.882,-0.035l-0.881,-0.034l-0.88,-0.032l-0.879,-0.032l-0.878,-0.03l-0.878,-0.029l-0.876,-0.027l-0.875,-0.026l-0.874,-0.025l-0.874,-0.024l-0.872,-0.023l-0.871,-0.021l-0.87,-0.02l-0.869,-0.019l-0.868,-0.017l-0.867,-0.016l-0.867,-0.016l-0.864,-0.013l-0.864,-0.013l-0.863,-0.011l-0.862,-0.011l-0.86,-0.009l-0.86,-0.007l-0.858,-0.007l-0.858,-0.005l-0.856,-0.004l-0.855,-0.003l-0.854,-0.002l-0.853,-0.001l-0.851,0.001Z" style="fill:#000;"/></g><path d="M11.467,165.368l553.035,113.141" style="fill:none;stroke-width:3px;stroke:#000;"/><g><path d="M148.771,130.53c-3.017,-0.715 -6.048,-0.941 -9.092,-0.676c-3.045,0.265 -5.908,0.983 -8.591,2.155c-2.683,1.172 -5.151,2.693 -7.403,4.563c-2.252,1.871 -4.181,4.106 -5.785,6.707c-1.605,2.601 -2.765,5.41 -3.481,8.427c-0.716,3.017 -0.942,6.047 -0.677,9.092c0.265,3.044 0.984,5.908 2.155,8.591c1.172,2.683 2.693,5.15 4.564,7.403c1.87,2.252 4.106,4.181 6.706,5.785c2.601,1.605 5.41,2.765 8.427,3.481c3.017,0.716 6.048,0.941 9.092,0.676c3.045,-0.264 5.908,-0.983 8.591,-2.155c2.683,-1.172 5.151,-2.693 7.403,-4.563c2.253,-1.87 4.181,-4.106 5.785,-6.707c1.605,-2.601 2.765,-5.409 3.481,-8.426c0.716,-3.017 0.942,-6.048 0.677,-9.093c-0.265,-3.044 -0.984,-5.908 -2.155,-8.591c-1.172,-2.683 -2.693,-5.15 -4.564,-7.403c-1.87,-2.252 -4.106,-4.18 -6.706,-5.785c-2.601,-1.604 -5.41,-2.765 -8.427,-3.481l0,0ZM117.223,152.371c0.804,-3.387 2.228,-6.466 4.274,-9.235c2.045,-2.77 4.448,-5.006 7.207,-6.707c2.76,-1.701 5.837,-2.843 9.23,-3.426c3.394,-0.583 6.784,-0.472 10.171,0.332c3.388,0.803 6.466,2.228 9.236,4.273c2.77,2.046 5.006,4.448 6.707,7.208c1.701,2.76 2.843,5.836 3.425,9.23c0.583,3.394 0.473,6.784 -0.331,10.171c-0.804,3.387 -2.228,6.466 -4.274,9.236c-2.045,2.77 -4.448,5.005 -7.207,6.706c-2.76,1.701 -5.837,2.843 -9.23,3.426c-3.394,0.583 -6.784,0.472 -10.171,-0.331c-3.388,-0.804 -6.466,-2.229 -9.236,-4.274c-2.77,-2.046 -5.005,-4.448 -6.707,-7.208c-1.701,-2.759 -2.843,-5.836 -3.425,-9.23c-0.583,-3.393 -0.473,-6.784 0.331,-10.171l0,0ZM154.254,166.995l-24.804,3.059l0.47,-2.968c0.051,-0.379 -0.145,-0.69 -0.586,-0.931c-0.441,-0.242 -0.9,-0.326 -1.377,-0.254c-0.476,0.073 -0.752,0.306 -0.825,0.699c-0.382,2.432 -0.757,4.425 -1.126,5.98c-0.145,0.61 -0.268,1.089 -0.37,1.437c-2.59,-2.765 -4.393,-5.999 -5.411,-9.701c-1.018,-3.702 -1.075,-7.46 -0.17,-11.273c0.676,-2.85 1.83,-5.446 3.461,-7.786c1.63,-2.341 3.599,-4.293 5.906,-5.857c-0.358,0.932 -0.292,1.91 0.198,2.936c0.489,1.025 1.419,1.7 2.789,2.025c0.537,0.128 1.131,0.156 1.783,0.086c0.652,-0.07 1.187,-0.163 1.606,-0.279c0.418,-0.115 1.064,-0.324 1.937,-0.625c0.17,-0.057 0.308,-0.103 0.414,-0.136c1.83,-0.544 3.985,-0.521 6.465,0.067c1.111,0.264 2.633,0.933 4.568,2.008c1.935,1.075 3.591,2.089 4.968,3.041l2.066,1.429l-22.609,2.583c0.074,-0.393 0.116,-0.775 0.125,-1.144c0.009,-0.369 -0.005,-0.636 -0.044,-0.802l-0.031,-0.242c0.051,-0.379 -0.162,-0.698 -0.638,-0.958c-0.476,-0.259 -0.976,-0.354 -1.501,-0.283c-0.526,0.071 -0.823,0.294 -0.892,0.668c-0.368,2.455 -0.736,4.459 -1.105,6.014c-0.153,0.648 -0.373,1.451 -0.659,2.41l-0.716,2.396l-0.32,0.98c-0.107,0.366 0.064,0.699 0.51,1.001c0.447,0.301 0.941,0.443 1.483,0.425c0.542,-0.018 0.866,-0.21 0.972,-0.576l0.776,-2.279l9.178,-1.107l13.509,7.957ZM164.189,151.698l-17.632,-11.839c-0.116,-0.086 -0.281,-0.194 -0.495,-0.323c-0.214,-0.129 -0.676,-0.385 -1.387,-0.769c-0.71,-0.383 -1.435,-0.707 -2.174,-0.97c-0.739,-0.264 -1.693,-0.568 -2.863,-0.914c-1.169,-0.346 -2.303,-0.552 -3.402,-0.617c3.56,-0.993 7.292,-1.026 11.197,-0.099c4.054,0.961 7.568,2.836 10.543,5.625c2.975,2.788 5.046,6.09 6.213,9.906l0,0ZM128.392,176.489l31.613,-3.701c-2.719,3.304 -6.158,5.66 -10.314,7.069c-4.157,1.409 -8.41,1.597 -12.759,0.565c-3.314,-0.786 -6.16,-2.097 -8.54,-3.933l0,0ZM145.877,158.79l18.861,-2.24c0.264,2.35 0.121,4.681 -0.428,6.995c-0.452,1.907 -1.182,3.747 -2.19,5.522l-16.243,-10.277Z" style="fill:#33acd3;fill-rule:nonzero;"/></g><path d="M462.668,194.205c-17.935,10.389 -39.635,97.845 -28.137,115.031c11.498,17.185 79.191,-1.528 97.125,-11.918c6.988,-4.048 0.475,-16.201 2.327,-25.842c1.983,-10.32 13.21,-17.023 8.156,-24.578c-11.498,-17.185 -61.536,-63.083 -79.471,-52.693Z" style="fill:#d2d1c0;"/><clipPath id="_clip1"><path d="M462.668,194.205c-17.935,10.389 -39.635,97.845 -28.137,115.031c11.498,17.185 79.191,-1.528 97.125,-11.918c6.988,-4.048 0.475,-16.201 2.327,-25.842c1.983,-10.32 13.21,-17.023 8.156,-24.578c-11.498,-17.185 -61.536,-63.083 -79.471,-52.693Z"/></clipPath><g clip-path="url(#_clip1)"><g><g opacity="0.0896784"><path d="M412.811,334.002l37.571,-156.622" style="fill:none;stroke-width:2px;stroke-linecap:round;stroke:#000;"/><path d="M425.508,330.635l37.57,-156.622" style="fill:none;stroke-width:2px;stroke-linecap:round;stroke:#000;"/><path d="M438.204,327.269l37.571,-156.622" style="fill:none;stroke-width:2px;stroke-linecap:round;stroke:#000;"/><path d="M450.901,323.903l37.571,-156.622" style="fill:none;stroke-width:2px;stroke-linecap:round;stroke:#000;"/><path d="M463.598,320.536l37.571,-156.622" style="fill:none;stroke-width:2px;stroke-linecap:round;stroke:#000;"/><path d="M476.295,317.17l37.57,-156.622" style="fill:none;stroke-width:2px;stroke-linecap:round;stroke:#000;"/><path d="M488.992,313.804l37.57,-156.622" style="fill:none;stroke-width:2px;stroke-linecap:round;stroke:#000;"/><path d="M501.688,310.438l37.571,-156.623" style="fill:none;stroke-width:2px;stroke-linecap:round;stroke:#000;"/><path d="M514.385,307.071l37.571,-156.622" style="fill:none;stroke-width:2px;stroke-linecap:round;stroke:#000;"/><path d="M527.082,303.705l37.57,-156.622" style="fill:none;stroke-width:2px;stroke-linecap:round;stroke:#000;"/><path d="M539.779,300.339l37.57,-156.622" style="fill:none;stroke-width:2px;stroke-linecap:round;stroke:#000;"/><path d="M552.475,296.972l37.571,-156.622" style="fill:none;stroke-width:2px;stroke-linecap:round;stroke:#000;"/></g></g></g><path d="M462.668,194.205c-17.935,10.389 -39.635,97.845 -28.137,115.031c11.498,17.185 79.191,-1.528 97.125,-11.918c6.988,-4.048 0.475,-16.201 2.327,-25.842c1.983,-10.32 13.21,-17.023 8.156,-24.578c-11.498,-17.185 -61.536,-63.083 -79.471,-52.693Z" style="fill:none;stroke-width:3.75px;stroke:#000;"/><ellipse cx="546.727" cy="301.257" rx="6.649" ry="6.752" style="fill:#000;"/><path d="M546.727,301.257c-55.181,114.906 -89.768,73.929 -214.842,43.395" style="fill:none;stroke-width:3.75px;stroke-linecap:round;stroke:#000;"/></g><g><g><path id="Fill-61" d="M330.389,287.512c-0.038,-0.151 -0.072,-0.297 -0.11,-0.451c-0.343,-1.365 -0.722,-2.772 -1.148,-4.233c-3.56,-12.812 -20.488,-38.293 -33.417,-38.293c-1.987,0 -3.84,0.592 -5.664,1.806c-11.321,7.547 -9.037,21.198 -4.255,41.161c1.182,4.938 2.404,10.045 3.138,14.813c0.956,6.202 0.724,13.133 0.501,19.832c-0.345,10.402 -0.703,21.161 3.785,25.797c1.963,2.029 5.021,3.016 9.353,3.016c1.253,0 2.433,-0.094 3.574,-0.237c0.347,-0.043 0.676,-0.108 1.011,-0.163c0.796,-0.13 1.566,-0.288 2.306,-0.479c0.329,-0.087 0.657,-0.175 0.976,-0.273c0.772,-0.235 1.51,-0.506 2.219,-0.805c0.209,-0.087 0.429,-0.163 0.633,-0.254c0.911,-0.415 1.779,-0.872 2.594,-1.375c0.079,-0.051 0.151,-0.108 0.23,-0.159c0.721,-0.46 1.402,-0.948 2.047,-1.463c0.189,-0.151 0.369,-0.307 0.554,-0.463c0.529,-0.448 1.035,-0.913 1.515,-1.389c0.16,-0.161 0.326,-0.321 0.481,-0.484c0.537,-0.566 1.045,-1.145 1.52,-1.735c0.055,-0.069 0.118,-0.134 0.17,-0.203c0.53,-0.671 1.017,-1.354 1.47,-2.039c0.108,-0.161 0.201,-0.324 0.302,-0.482c0.321,-0.508 0.628,-1.015 0.911,-1.519c0.136,-0.241 0.266,-0.479 0.393,-0.718c0.22,-0.417 0.429,-0.829 0.625,-1.239c0.123,-0.256 0.252,-0.515 0.367,-0.769c0.163,-0.357 0.304,-0.699 0.448,-1.044c0.302,-0.722 0.573,-1.419 0.798,-2.061c0.015,-0.036 0.029,-0.074 0.041,-0.108c0.158,-0.459 0.302,-0.896 0.427,-1.3c0.544,-1.771 0.791,-3.012 0.827,-3.22c0.036,-0.206 0.086,-0.422 0.151,-0.618c3.593,-11.368 5.036,-20.929 2.109,-35.004c-0.259,-1.246 -0.556,-2.53 -0.882,-3.845" style="fill:#ffd200;"/><path d="M329.162,326.361c-0.065,0.196 -0.115,0.412 -0.151,0.618c-0.175,0.977 -4.521,23.981 -26.439,23.981c-4.332,0 -7.39,-0.987 -9.353,-3.016c-4.488,-4.636 -4.13,-15.395 -3.785,-25.797c0.223,-6.699 0.455,-13.63 -0.501,-19.832c-0.734,-4.768 -1.956,-9.875 -3.138,-14.813c-4.782,-19.963 -7.066,-33.614 4.255,-41.161c1.824,-1.214 3.677,-1.806 5.664,-1.806c12.929,0 29.857,25.481 33.417,38.293c5.563,19.065 4.305,30.006 0.031,43.533ZM338.398,328.946c-0.458,2.503 -5.24,15.754 -6.513,15.706c-5.585,8.387 -14.902,15.891 -29.313,15.891c-6.968,0 -12.433,-1.998 -16.245,-5.937c-7.313,-7.558 -6.886,-20.378 -6.474,-32.778c0.206,-6.26 0.422,-12.736 -0.396,-18.054c-0.673,-4.377 -1.797,-9.073 -2.989,-14.044c-4.436,-18.536 -9.47,-39.546 8.265,-51.362c3.399,-2.266 7.095,-3.416 10.981,-3.416c15.935,0 37.894,33.806 37.894,33.806l3.653,8.162c0,0 0.82,2.307 1.091,3.282c6.16,21.102 4.703,33.905 0.046,48.744Z" style="fill:#000;"/></g><g><path id="Fill-91" d="M183.86,133.886c1.1,5.86 4.99,7.091 8.061,7.091c4.037,0 8.608,-2.158 12.227,-5.778c4.039,-4.037 5.851,-9.363 4.847,-14.252c-0.623,-3.036 -2.282,-5.362 -4.437,-6.222c-0.352,-0.141 -0.836,-0.216 -1.402,-0.216c-3.871,0 -10.943,3.484 -15.617,9.114c-1.706,2.058 -4.458,6.126 -3.679,10.263" style="fill:#ffd200;"/><path id="Fill-121" d="M191.921,148.165c-7.833,0 -13.632,-4.964 -15.132,-12.957c-0.976,-5.203 0.877,-10.948 5.216,-16.175c5.635,-6.785 14.53,-11.711 21.151,-11.711c1.491,0 2.862,0.245 4.072,0.729c4.404,1.76 7.697,6.042 8.809,11.451c1.494,7.262 -1.05,15.031 -6.805,20.781c-5.01,5.009 -11.321,7.882 -17.311,7.882ZM203.156,114.509c-3.871,0 -10.943,3.484 -15.617,9.114c-1.706,2.058 -4.458,6.126 -3.679,10.263c1.1,5.86 4.99,7.091 8.061,7.091c4.037,0 8.608,-2.158 12.227,-5.778c4.039,-4.037 5.851,-9.363 4.847,-14.252c-0.623,-3.036 -2.282,-5.362 -4.437,-6.222c-0.352,-0.141 -0.836,-0.216 -1.402,-0.216Z" style="fill:#000;"/></g><g><path id="Fill-131" d="M281.778,114.085c-6.892,6.062 -9.886,11.917 -8.428,16.485c1.498,4.696 7.61,8.39 15.216,9.188c5.717,0.594 14.416,-1.33 23.632,-3.376c8.877,-1.969 30.7,-5.846 43.422,-4.581c5.662,0.562 -14.563,-13.672 -14.563,-13.672" style="fill:#ffd200;"/><path d="M356.835,132.626c2.853,0.59 21.598,10.901 21.598,10.901c0,0 -20.688,-3.373 -23.055,-3.862c-12.822,-2.65 -28.124,0.742 -41.624,3.734c-10.231,2.272 -19.066,4.236 -25.941,3.508c-10.558,-1.112 -18.929,-6.665 -21.314,-14.154c-1.68,-5.276 -1.22,-13.73 10.528,-24.063c4.887,-4.3 10.736,-7.894 17.148,-10.814c-9.248,0.014 39.15,-9.478 38.649,-8.625c12.671,-0.333 25.385,1.598 36.588,6.018c1.846,0.729 2.752,2.815 2.024,4.662c-0.729,1.848 -2.819,2.756 -4.665,2.022c-27.566,-10.871 -64.897,-5.546 -84.993,12.132c-6.892,6.062 -9.886,11.917 -8.428,16.485c1.498,4.696 7.61,8.39 15.216,9.188c5.717,0.594 14.416,-1.33 23.632,-3.376c14.202,-3.15 30.306,-6.722 44.637,-3.756Z" style="fill:#000;"/></g><g><path id="Fill-19" d="M194.413,272.725c-31.236,-63.292 -65.248,-40.21 -71.054,-33.085c-6.412,7.873 -8.66,18.404 -6.33,29.655c4.744,22.915 39.476,61.546 67.171,68.191c2.728,0.652 5.334,0.985 7.743,0.985c7.409,0 13.528,-3.122 17.237,-8.79c1.176,-1.801 2.027,-3.713 2.617,-5.668" style="fill:#000;"/><path id="Fill-81" d="M134.515,248.715c-3.631,4.459 -4.84,10.731 -3.404,17.666c3.663,17.695 35.131,52.014 56.445,57.126c1.628,0.391 3.104,0.59 4.387,0.59c3.322,0 4.559,-1.301 5.201,-2.281c2.598,-3.975 1.124,-12.618 -0.937,-17.328c-5.902,-13.481 -24.603,-48.823 -34.054,-56.091c-4.758,-3.661 -9.881,-5.594 -14.816,-5.594c-5.161,0 -9.718,2.101 -12.822,5.912" style="fill:#ffd200;"/></g><path d="M251.976,63.838c6.178,-7.704 16.026,-10.198 27.73,-10.056" style="fill:none;stroke-width:6.75px;stroke-linecap:round;stroke:#fffdf3;"/></g><g><path d="M176.223,255.808c-3.435,-17.562 -20.481,-29.032 -38.043,-25.597c-17.562,3.434 -29.032,20.481 -25.597,38.043l13.915,55.843c3.435,17.562 18.245,32.905 35.807,29.471c17.562,-3.435 25.428,-19.982 21.993,-37.543l-8.075,-60.217Z" style="fill:#00426f;"/><clipPath id="_clip2"><path d="M176.223,255.808c-3.435,-17.562 -20.481,-29.032 -38.043,-25.597c-17.562,3.434 -29.032,20.481 -25.597,38.043l13.915,55.843c3.435,17.562 18.245,32.905 35.807,29.471c17.562,-3.435 25.428,-19.982 21.993,-37.543l-8.075,-60.217Z"/></clipPath><g clip-path="url(#_clip2)"><g><path d="M103.348,244.271l79.859,-13.743" style="fill:none;stroke-width:1px;stroke-linecap:round;stroke:#000;stroke-opacity:0.206867;"/><path d="M104.615,254.95l79.858,-13.743" style="fill:none;stroke-width:1px;stroke-linecap:round;stroke:#000;stroke-opacity:0.206867;"/><path d="M105.881,265.63l79.859,-13.744" style="fill:none;stroke-width:1px;stroke-linecap:round;stroke:#000;stroke-opacity:0.206867;"/><path d="M107.147,276.309l79.859,-13.744" style="fill:none;stroke-width:1px;stroke-linecap:round;stroke:#000;stroke-opacity:0.206867;"/><path d="M108.414,286.988l79.858,-13.744" style="fill:none;stroke-width:1px;stroke-linecap:round;stroke:#000;stroke-opacity:0.206867;"/><path d="M109.68,297.667l79.859,-13.744" style="fill:none;stroke-width:1px;stroke-linecap:round;stroke:#000;stroke-opacity:0.206867;"/><path d="M110.946,308.346l79.859,-13.743" style="fill:none;stroke-width:1px;stroke-linecap:round;stroke:#000;stroke-opacity:0.206867;"/><path d="M112.212,319.025l79.859,-13.743" style="fill:none;stroke-width:1px;stroke-linecap:round;stroke:#000;stroke-opacity:0.206867;"/><path d="M113.479,329.705l79.858,-13.744" style="fill:none;stroke-width:1px;stroke-linecap:round;stroke:#000;stroke-opacity:0.206867;"/><path d="M114.745,340.384l79.859,-13.744" style="fill:none;stroke-width:1px;stroke-linecap:round;stroke:#000;stroke-opacity:0.206867;"/><path d="M116.011,351.063l79.859,-13.744" style="fill:none;stroke-width:1px;stroke-linecap:round;stroke:#000;stroke-opacity:0.206867;"/><path d="M117.277,361.742l79.859,-13.743" style="fill:none;stroke-width:1px;stroke-linecap:round;stroke:#000;stroke-opacity:0.206867;"/></g></g><path d="M176.223,255.808c-3.435,-17.562 -20.481,-29.032 -38.043,-25.597c-17.562,3.434 -29.032,20.481 -25.597,38.043l13.915,55.843c3.435,17.562 18.245,32.905 35.807,29.471c17.562,-3.435 25.428,-19.982 21.993,-37.543l-8.075,-60.217Z" style="fill:none;stroke-width:6.75px;stroke-linecap:round;stroke:#000;"/><path d="M148.342,249.395c1.676,0.815 2.375,2.837 1.56,4.512c-0.814,1.676 -2.836,2.375 -4.512,1.56c-1.675,-0.814 -2.374,-2.836 -1.56,-4.512c0.815,-1.675 2.837,-2.374 4.512,-1.56Z" style="fill:#000;"/><path d="M166.352,308.677c1.676,0.815 2.375,2.836 1.56,4.512c-0.814,1.676 -2.836,2.375 -4.512,1.56c-1.675,-0.815 -2.374,-2.836 -1.56,-4.512c0.815,-1.676 2.837,-2.375 4.512,-1.56Z" style="fill:#000;"/><path d="M139.656,312.489c1.675,0.814 2.374,2.836 1.56,4.512c-0.815,1.675 -2.837,2.374 -4.512,1.56c-1.676,-0.815 -2.375,-2.837 -1.56,-4.512c0.814,-1.676 2.836,-2.375 4.512,-1.56Z" style="fill:#000;"/></g><g><path d="M324.926,269.222c-0.349,-17.891 -15.158,-32.133 -33.049,-31.784c-17.891,0.349 -32.133,15.158 -31.784,33.049l2.402,58.948c0.349,17.892 13.942,34.022 31.834,33.673c17.891,-0.349 26.25,-15.158 27.637,-33.049l2.96,-60.837Z" style="fill:#00426f;"/><clipPath id="_clip3"><path d="M324.926,269.222c-0.349,-17.891 -15.158,-32.133 -33.049,-31.784c-17.891,0.349 -32.133,15.158 -31.784,33.049l2.402,58.948c0.349,17.892 13.942,34.022 31.834,33.673c17.891,-0.349 26.25,-15.158 27.637,-33.049l2.96,-60.837Z"/></clipPath><g clip-path="url(#_clip3)"><g><path d="M256.126,248.073l81.026,-1.08" style="fill:none;stroke-width:1px;stroke-linecap:round;stroke:#000;stroke-opacity:0.206867;"/><path d="M255.706,258.819l81.026,-1.081" style="fill:none;stroke-width:1px;stroke-linecap:round;stroke:#000;stroke-opacity:0.206867;"/><path d="M255.286,269.565l81.026,-1.081" style="fill:none;stroke-width:1px;stroke-linecap:round;stroke:#000;stroke-opacity:0.206867;"/><path d="M254.866,280.311l81.026,-1.081" style="fill:none;stroke-width:1px;stroke-linecap:round;stroke:#000;stroke-opacity:0.206867;"/><path d="M254.446,291.057l81.025,-1.081" style="fill:none;stroke-width:1px;stroke-linecap:round;stroke:#000;stroke-opacity:0.206867;"/><path d="M254.026,301.802l81.025,-1.08" style="fill:none;stroke-width:1px;stroke-linecap:round;stroke:#000;stroke-opacity:0.206867;"/><path d="M253.606,312.548l81.025,-1.081" style="fill:none;stroke-width:1px;stroke-linecap:round;stroke:#000;stroke-opacity:0.206867;"/><path d="M253.186,323.294l81.025,-1.081" style="fill:none;stroke-width:1px;stroke-linecap:round;stroke:#000;stroke-opacity:0.206867;"/><path d="M252.766,334.04l81.025,-1.081" style="fill:none;stroke-width:1px;stroke-linecap:round;stroke:#000;stroke-opacity:0.206867;"/><path d="M252.346,344.786l81.025,-1.081" style="fill:none;stroke-width:1px;stroke-linecap:round;stroke:#000;stroke-opacity:0.206867;"/><path d="M251.926,355.531l81.025,-1.08" style="fill:none;stroke-width:1px;stroke-linecap:round;stroke:#000;stroke-opacity:0.206867;"/><path d="M251.506,366.277l81.025,-1.081" style="fill:none;stroke-width:1px;stroke-linecap:round;stroke:#000;stroke-opacity:0.206867;"/></g></g><path d="M324.926,269.222c-0.349,-17.891 -15.158,-32.133 -33.049,-31.784c-17.891,0.349 -32.133,15.158 -31.784,33.049l2.402,58.948c0.349,17.892 13.942,34.022 31.834,33.673c17.891,-0.349 26.25,-15.158 27.637,-33.049l2.96,-60.837Z" style="fill:none;stroke-width:6.75px;stroke-linecap:round;stroke:#000;"/><path d="M289.694,255.655c1.51,1.092 1.849,3.204 0.758,4.714c-1.092,1.51 -3.204,1.849 -4.714,0.757c-1.51,-1.092 -1.849,-3.204 -0.757,-4.713c1.092,-1.51 3.204,-1.849 4.713,-0.758Z" style="fill:#000;"/><path d="M306.07,319.592c1.51,1.092 1.849,3.204 0.757,4.714c-1.091,1.509 -3.204,1.849 -4.713,0.757c-1.51,-1.092 -1.849,-3.204 -0.757,-4.714c1.091,-1.51 3.204,-1.849 4.713,-0.757Z" style="fill:#000;"/><path d="M279.811,321.178c1.509,1.092 1.849,3.204 0.757,4.714c-1.092,1.509 -3.204,1.849 -4.714,0.757c-1.51,-1.092 -1.849,-3.204 -0.757,-4.714c1.092,-1.51 3.204,-1.849 4.714,-0.757Z" style="fill:#000;"/></g></g></svg>