<?xml version="1.0" encoding="utf-8"?>
<!-- Generator: Adobe Illustrator 19.0.0, SVG Export Plug-In . SVG Version: 6.00 Build 0)  -->
<svg version="1.1" id="Layer_1" xmlns:sketch="http://www.bohemiancoding.com/sketch/ns"
	 xmlns="http://www.w3.org/2000/svg" xmlns:xlink="http://www.w3.org/1999/xlink" x="0px" y="0px" viewBox="-392.1 254.9 95.1 98.6"
	 style="enable-background:new -392.1 254.9 95.1 98.6;" xml:space="preserve">
<style type="text/css">
	.st0{fill:#005683;}
	.st1{fill:#E50C0C;}
	.st2{fill:#F23838;}
	.st3{fill:#3F3F3F;}
	.st4{fill:#FFD200;}
	.st5{fill:#E50C0C;stroke:#000000;stroke-miterlimit:10;}
	.st6{fill:#FFFFFF;stroke:#000000;stroke-linecap:round;stroke-linejoin:round;stroke-miterlimit:10;}
	.st7{fill:#FC8900;stroke:#000000;stroke-linecap:round;stroke-linejoin:round;stroke-miterlimit:10;}
	.st8{fill:#D3AA00;}
	.st9{fill:#E50C0C;stroke:#000000;stroke-linecap:round;stroke-linejoin:round;stroke-miterlimit:10;}
</style>
<title>Artboard</title>
<desc>Created with Sketch.</desc>
<path id="Fill-1" sketch:type="MSShapeGroup" d="M-310.7,271.7c-0.4-0.1-1-0.1-3.4-0.1c-0.8,0-1.7,0-2.6,0c-1.1,0-2.2,0-3.3,0
	c-1.8,0-4.4,0-6.2-0.1c-2.9-2.1-6.3-3.2-10-3.4c-8.1-0.2-15.2,3.2-19,9.2c-1.3,1.2-3.8,2.6-4.4,2.8c-1.1,0.2-1.8,1.2-1.7,2.3
	c0.1,0.8,0.6,1.7,1.9,2.1c-0.1,0.1-0.3,0.3-0.4,0.4c-0.8,1-1.2,2.2-1,3.3c0,0.2,0.1,0.4,0.2,0.6c-1.8,3.1-2.8,6.7-2.8,10.3
	c0,0.9,0.1,1.8,0.2,2.7c-0.3-0.1-0.6-0.1-0.9-0.1c-1.4,0-2.7,0.6-3.6,1.7c-0.9,1.2-1.3,2.7-0.9,4.4c0.7,3.4,5.8,9.1,9.9,10.1
	c0.4,0.1,0.8,0.1,1.1,0.1c1.1,0,2-0.5,2.6-1.3c0.2-0.3,0.3-0.6,0.4-0.8c2.8,1.9,6,3.1,9.5,3.5c0.7,2.4,2.7,2.8,4,2.8
	c1.9,0,3.5-0.8,4.7-2.2c0.1,0,0.2,0,0.3,0c0.8,0,1.8-0.1,2.9-0.2c-3.6,4-8.8,6.4-12.7,6.4h0c-1.6,0-3.8-0.4-5-2.4
	c-1.5-2.6-4-4.2-6.5-4.2c-2.6,0-4.3,1.8-4.4,4.5c0,1.5,0.7,3,2.2,4.6c2.5,2.6,7.4,5.2,12.6,5.2c1.2,0,2.3-0.1,3.4-0.4
	c9.3-2.2,17.5-9.6,20-17.7c8.8-6.7,8.1-25.3,5.2-33.6c-0.2-0.6-0.4-1.1-0.7-1.7c0.4,0,0.7,0.1,1.1,0.1c0.8,0,1.6-0.1,2.3-0.3
	c4.6-1.4,6.7-4.8,6.6-6.7C-309.3,272.7-309.9,271.9-310.7,271.7"/>
<path id="Fill-2" sketch:type="MSShapeGroup" class="st0" d="M-358.7,309.8c-0.5-0.8-1-1.7-1.5-2.5
	C-359.7,308.1-359.3,309-358.7,309.8"/>
<path id="Fill-3" sketch:type="MSShapeGroup" class="st1" d="M-325.8,293.3c-2.8-2.6-4.8-4.1-7.6-4.7c-1.9-0.4-4.2,0.1-6.2,0.6
	c-1.5,0.3-2.8,0.6-3.8,0.5c-1.6-0.2-2.8-1-3.2-2.1c-0.2-0.8-0.2-2,1.6-3.6c0.7-0.6,1.6-1.2,2.5-1.6c-1.4,0-2.7-0.3-4-1
	c-1.7,2.3-5.9,4-7.3,3.4c-0.3-0.1-0.6-0.4-0.9-0.7c0,0-0.1,0-0.1,0.1c0.3,0.3,0.6,0.8,0.7,1.3c0.2,1.1-0.2,2.2-1,3.1
	c-0.7,0.7-1.7,1.2-2.6,1.2c-0.6,0-1.2-0.2-1.5-0.6c-1.8,2.9-2.8,6.2-2.8,9.8c0,1.7,0.2,3.3,0.6,4.8c1.8,1.5,4.7,7.2,5.3,8.7
	c0,0.1,0.1,0.2,0.1,0.3c3,2.8,7,4.6,11.3,4.9c-0.1-0.7,0-1.5,0-2.2c0-0.9,0.1-1.9-0.1-2.7c-0.1-0.6-0.3-1.3-0.4-2.1
	c-0.7-2.7-1.4-5.9,1.2-7.6c0.5-0.3,1.1-0.5,1.6-0.5c2.4,0,4.5,2.8,5.6,5c1.5-2.4,4-4,6.9-4.3c1.5-0.2,3,0,4.2,0.5
	c0.4-1.6,0.7-3.2,0.7-4.9C-324.9,297.1-325.2,295.2-325.8,293.3"/>
<path id="Fill-4" sketch:type="MSShapeGroup" class="st2" d="M-338.1,288.8c-0.5,0.1-1.1,0.2-1.6,0.3c-1.5,0.3-2.8,0.6-3.8,0.5
	c-1.6-0.2-2.8-1-3.2-2.1c-0.2-0.8-0.2-2,1.6-3.6c0,0,0.1,0,0.1-0.1c-1.1-0.4-2.3-0.6-3.5-0.7c-1.9,1.3-4.4,2-5.3,1.6
	c-0.3-0.1-0.6-0.4-0.9-0.7c0,0-0.1,0-0.1,0.1c0.3,0.3,0.6,0.8,0.7,1.3c0.2,1.1-0.2,2.2-1,3.1c-0.7,0.7-1.7,1.2-2.6,1.2
	c-0.6,0-1.2-0.2-1.5-0.6c-1.8,2.9-2.8,6.2-2.8,9.8c0,1.7,0.2,3.3,0.6,4.8c1.2,1,2.9,3.9,4.1,6.1c2.3,1.4,4.9,2.3,7.8,2.3
	c1.6,0,3.1-0.3,4.5-0.7c-0.1-0.3-0.1-0.5-0.2-0.8c-0.7-2.7-1.4-5.9,1.2-7.6c0.5-0.3,1.1-0.5,1.6-0.5c1.8,0,3.5,1.7,4.7,3.4
	c1.7-2.4,2.7-5.3,2.7-8.4C-335,294.4-336.1,291.3-338.1,288.8"/>
<path id="Fill-6" sketch:type="MSShapeGroup" class="st3" d="M-337.2,310.5C-337.2,310.5-337.2,310.5-337.2,310.5
	c-0.1-0.3-0.1-0.5-0.2-0.7c-0.5-1.9-3-5.7-4.9-5.7c-0.3,0-0.6,0.1-0.8,0.3c-1.7,1.1-1.3,3.1-0.6,6.1c0.2,0.7,0.4,1.5,0.5,2.2
	c0.1,0.9,0.1,1.9,0.1,2.9c-0.1,1.5-0.1,3.1,0.6,3.8c0.3,0.3,0.7,0.4,1.4,0.4c0.2,0,0.4,0,0.5,0c0.1,0,0.1,0,0.1,0
	c0.1,0,0.2,0,0.3-0.1c0,0,0.1,0,0.1,0c0.1,0,0.2-0.1,0.3-0.1c0,0,0.1,0,0.1,0c0.1-0.1,0.3-0.1,0.4-0.2c0,0,0,0,0,0
	c0.1-0.1,0.2-0.1,0.3-0.2c0,0,0.1,0,0.1-0.1c0.1-0.1,0.2-0.1,0.2-0.2c0,0,0,0,0.1-0.1c0.1-0.1,0.2-0.2,0.2-0.3c0,0,0,0,0,0
	c0.1-0.1,0.2-0.2,0.2-0.3c0,0,0,0,0-0.1c0-0.1,0.1-0.2,0.1-0.2c0,0,0-0.1,0.1-0.1c0-0.1,0.1-0.1,0.1-0.2c0,0,0-0.1,0.1-0.1
	c0-0.1,0-0.1,0.1-0.2c0-0.1,0.1-0.2,0.1-0.3c0,0,0,0,0,0c0-0.1,0-0.1,0.1-0.2c0.1-0.3,0.1-0.4,0.1-0.5c0,0,0-0.1,0-0.1
	c0.5-1.7,0.7-3.1,0.3-5.2C-337.1,310.9-337.1,310.7-337.2,310.5"/>
<path id="Fill-7" sketch:type="MSShapeGroup" class="st3" d="M-320.1,273.7c-2.1,0-5.2,0-7-0.2c-0.2,0-0.3,0-0.4,0
	c0.1,0.2,0.5,0.6,1,1.1l0.1,0.1c3.7,3.2,6.5,3.8,8.2,3.8h0c0.6,0,1.2-0.1,1.7-0.2c2.6-0.8,4.2-2.4,4.8-3.6c0.2-0.5,0.3-0.8,0.3-0.9
	c-0.4,0-1.3-0.1-2.7-0.1c-0.8,0-1.7,0-2.6,0C-317.8,273.7-319,273.7-320.1,273.7"/>
<path id="Fill-8" sketch:type="MSShapeGroup" class="st3" d="M-366.2,304.8c-0.5,0.7-0.7,1.6-0.5,2.6c0.5,2.6,5.2,7.7,8.4,8.5
	c0.2,0.1,0.5,0.1,0.6,0.1c0.5,0,0.7-0.2,0.8-0.3c0.4-0.6,0.2-1.9-0.1-2.6c-0.9-2-3.6-7.2-5-8.3c-0.7-0.5-1.5-0.8-2.2-0.8
	C-365.1,303.9-365.7,304.2-366.2,304.8"/>
<path id="Fill-9" sketch:type="MSShapeGroup" class="st4" d="M-358.9,287.8c0.2,0.9,0.7,1.1,1.2,1.1c0.6,0,1.3-0.3,1.8-0.9
	c0.6-0.6,0.9-1.4,0.7-2.1c-0.1-0.4-0.3-0.8-0.7-0.9c-0.1,0-0.1,0-0.2,0c-0.6,0-1.6,0.5-2.3,1.3C-358.6,286.6-359,287.2-358.9,287.8"
	/>
<path id="Fill-10" sketch:type="MSShapeGroup" class="st3" d="M-326.1,316.1c-1.1,0.6-2.1,1.1-3.1,1.5c-3.3,6-10.4,10.6-16.6,10.7
	c-3.2,0.1-5.7-1.2-7-3.4c-1.5-2.5-3.8-3.5-5.3-3.1c-1,0.3-1.6,1.1-1.6,2.4c0,1.1,0.9,2.6,2.6,4c3,2.5,8.2,4.4,12.9,3.3
	C-336,329.5-328.7,323.2-326.1,316.1"/>
<path id="Fill-11" sketch:type="MSShapeGroup" class="st3" d="M-359.3,282.1C-359.3,282.1-359.4,282.1-359.3,282.1
	c-0.1,0,0,0.1,0.1,0.2c0.2,0.1,1.1,0.6,3.5-0.1c-0.1-0.6,0-1.2,0.2-2.1C-356.9,281.1-358.5,281.9-359.3,282.1"/>
<path id="Fill-12" sketch:type="MSShapeGroup" d="M-357.7,289.9L-357.7,289.9c-1.2,0-2-0.7-2.2-1.9c-0.1-0.8,0.1-1.6,0.8-2.4
	c0.8-1,2.2-1.7,3.1-1.7c0.2,0,0.4,0,0.6,0.1c0.7,0.3,1.1,0.9,1.3,1.7c0.2,1.1-0.2,2.2-1,3.1C-355.9,289.5-356.8,289.9-357.7,289.9
	L-357.7,289.9z M-356,284.9c-0.6,0-1.6,0.5-2.3,1.3c-0.3,0.3-0.7,0.9-0.5,1.5c0.2,0.9,0.7,1.1,1.2,1.1c0.6,0,1.3-0.3,1.8-0.9
	c0.6-0.6,0.9-1.4,0.7-2.1c-0.1-0.4-0.3-0.8-0.7-0.9C-355.9,284.9-355.9,284.9-356,284.9L-356,284.9z"/>
<path id="Fill-13" sketch:type="MSShapeGroup" class="st4" d="M-320.6,283c-0.6-1.7-1.3-3.2-2.2-4.6c-1.3-0.6-2.7-1.5-4.3-2.9
	l-0.1-0.1c-1.7-1.5-1.5-2.1-1.4-2.3c0.1-0.2,0.2-0.3,0.3-0.4c-2.4-1.5-5.1-2.4-8-2.5c-7.4-0.2-13.8,2.9-17.3,8.4
	c-0.9,1.5-1.3,2.9-0.9,3.9c0.2,0.8,0.8,1.3,1.2,1.4c0.7,0.3,4.9-1.2,6.2-3.4c0.1-0.1,0.2-0.2,0.3-0.3c0.1,0,0.3,0,0.4,0.1
	c2.9,1.8,6.2,1,9,0.1c0.3-0.1,0.6,0.1,0.7,0.3c0,0.2,0,0.3-0.1,0.4c1.9,0,3.8,0.2,5.4,0.9c0.3,0.1,0.4,0.4,0.3,0.7
	c-0.1,0.3-0.4,0.4-0.7,0.3c-4.1-1.6-9.6-0.8-12.6,1.8c-1,0.9-1.5,1.8-1.2,2.4c0.2,0.7,1.1,1.2,2.3,1.4c0.8,0.1,2.1-0.2,3.5-0.5
	c2.1-0.5,4.5-1,6.6-0.6c3.4,0.7,5.7,2.8,9.2,5.9l0.4,0.4c0.2,0.2,0.2,0.5,0,0.8c-0.1,0.1-0.2,0.2-0.4,0.2c-0.1,0-0.2,0-0.3-0.1
	c0.3,1.4,0.5,2.9,0.5,4.4c0,1.8-0.3,3.6-0.7,5.3c0.5,0.3,1,0.7,1.3,1.1c0.2,0.2,0.1,0.6-0.1,0.7c-0.2,0.2-0.6,0.1-0.7-0.1
	c-0.9-1.2-3.3-1.9-5.6-1.6c-1.7,0.2-4.8,1-6.5,4.4c0.1,0.2,0.1,0.3,0.2,0.5c0.9,3.1,0.7,5,0,7.2c-0.1,0.4-0.2,0.8-0.4,1.3
	c2.3,0,6.5-0.5,10.9-3.5C-317.2,308.7-317.9,290.6-320.6,283"/>
<path id="Fill-14" sketch:type="MSShapeGroup" d="M-311,272.7c-0.3-0.1-0.9-0.1-3.1-0.1c-0.8,0-1.7,0-2.6,0c-1.1,0-2.2,0-3.4,0
	c-2,0-4.7,0-6.6-0.1c-2.8-2.1-6-3.2-9.6-3.3c-7.7-0.2-14.5,3.1-18.2,8.8c-1.4,1.4-4.1,2.9-5,3.1c-0.4,0.1-0.7,0.4-0.9,0.8
	c-0.1,0.4,0,0.8,0.3,1.1c0.3,0.3,0.9,0.7,2.1,0.7c0.6,0,1.5-0.1,2.5-0.4c0.4,0.9,1.1,1.5,1.6,1.7c1.3,0.6,5.6-1.1,7.3-3.4
	c1.3,0.7,2.7,1,4,1c-0.9,0.4-1.8,1-2.5,1.6c-1.7,1.5-1.8,2.8-1.6,3.6c0.4,1.1,1.6,1.9,3.2,2.1c1,0.1,2.3-0.2,3.8-0.5
	c2-0.4,4.3-0.9,6.2-0.6c2.8,0.6,4.8,2.2,7.6,4.7c0.6,1.9,0.9,3.8,0.9,5.8c0,1.7-0.2,3.3-0.7,4.9c-1.2-0.5-2.7-0.6-4.2-0.5
	c-2.9,0.3-5.4,1.8-6.9,4.3c-1.1-2.2-3.3-5-5.6-5c-0.6,0-1.1,0.2-1.6,0.5c-2.6,1.8-1.9,4.9-1.2,7.6c0.2,0.7,0.3,1.4,0.4,2.1
	c0.1,0.8,0.1,1.7,0.1,2.7c-0.1,1.8-0.1,3.7,1,4.9c0.6,0.6,1.4,0.9,2.4,0.9c2.1,0,3.5-1.1,4.3-2.4c0.2,0,0.4,0,0.6,0
	c1.4,0,3.3-0.2,5.5-0.9c-3.3,5.2-9.6,9-15.1,9.1c-2,0-4.6-0.4-6.1-2.9c-1.8-3-4.6-4.1-6.5-3.6c-1.5,0.4-2.4,1.6-2.4,3.4
	c0,1.5,1,3.2,3,4.8c2.6,2.1,6.6,3.9,10.8,3.9c1,0,2.1-0.1,3.1-0.3c9-2.1,17.1-9.4,19.3-17.3c4.9-3.5,6.4-10.4,6.9-15.7
	c0.6-6.7-0.5-13.3-1.8-16.9c-0.5-1.3-1-2.5-1.6-3.6c1.2,0.4,2.2,0.5,3,0.5h0c0.7,0,1.4-0.1,2-0.3c4.2-1.2,5.9-4.3,5.9-5.6
	C-310.3,273.2-310.6,272.8-311,272.7L-311,272.7z M-355.7,282.2c-2.4,0.6-3.3,0.2-3.5,0.1c-0.1-0.1-0.1-0.1-0.2-0.1c0,0,0,0,0.1,0
	c0.8-0.2,2.4-1,3.8-2C-355.8,281-355.8,281.7-355.7,282.2L-355.7,282.2z M-337.4,316.3C-337.4,316.3-337.4,316.3-337.4,316.3
	c0,0.2-0.7,3.6-3.9,3.6c-0.6,0-1.1-0.1-1.4-0.4c-0.7-0.7-0.6-2.3-0.6-3.8c0-1,0.1-2-0.1-2.9c-0.1-0.7-0.3-1.5-0.5-2.2
	c-0.7-3-1-5,0.6-6.1c0.3-0.2,0.5-0.3,0.8-0.3c1.9,0,4.4,3.8,4.9,5.7C-336.5,312.7-336.7,314.3-337.4,316.3L-337.4,316.3z
	 M-344.3,331.5c-4.8,1.1-9.9-0.9-12.9-3.3c-1.7-1.4-2.7-2.8-2.6-4c0-1.3,0.6-2.1,1.6-2.4c1.5-0.4,3.8,0.6,5.3,3.1
	c1.3,2.3,3.8,3.5,7,3.4c6.2-0.1,13.3-4.7,16.6-10.7c1-0.4,2-0.9,3.1-1.5C-328.7,323.2-336,329.5-344.3,331.5L-344.3,331.5z
	 M-320.6,283c2.7,7.7,3.4,25.7-4.9,31.4c-4.4,3-8.5,3.5-10.9,3.5c0.2-0.5,0.3-0.9,0.4-1.3c0.7-2.2,0.9-4.1,0-7.2
	c0-0.1-0.1-0.3-0.2-0.5c1.7-3.5,4.8-4.3,6.5-4.4c2.3-0.2,4.7,0.5,5.6,1.6c0.2,0.2,0.5,0.3,0.7,0.1c0.2-0.2,0.3-0.5,0.1-0.7
	c-0.3-0.4-0.8-0.8-1.3-1.1c0.5-1.7,0.7-3.5,0.7-5.3c0-1.5-0.2-3-0.5-4.4c0.1,0.1,0.2,0.1,0.3,0.1c0.1,0,0.3-0.1,0.4-0.2
	c0.2-0.2,0.2-0.6,0-0.8l-0.4-0.4c-3.5-3.1-5.7-5.2-9.2-5.9c-2.1-0.4-4.5,0.1-6.6,0.6c-1.4,0.3-2.7,0.6-3.5,0.5
	c-1.1-0.1-2-0.7-2.3-1.4c-0.2-0.7,0.2-1.5,1.2-2.4c3-2.6,8.5-3.4,12.6-1.8c0.3,0.1,0.6,0,0.7-0.3c0.1-0.3,0-0.6-0.3-0.7
	c-1.7-0.7-3.5-0.9-5.4-0.9c0.1-0.1,0.1-0.3,0.1-0.4c-0.1-0.3-0.4-0.4-0.7-0.3c-2.8,0.9-6.1,1.7-9-0.1c-0.1-0.1-0.3-0.1-0.4-0.1
	c-0.1,0-0.3,0.1-0.3,0.3c-1.2,2.3-5.5,3.7-6.2,3.4c-0.4-0.2-0.9-0.7-1.2-1.4c-0.3-1.1,0-2.4,0.9-3.9c3.5-5.5,9.9-8.6,17.3-8.4
	c3,0.1,5.7,0.9,8,2.5c-0.2,0.1-0.3,0.2-0.3,0.4c-0.1,0.2-0.3,0.9,1.4,2.3l0.1,0.1c1.6,1.3,3,2.3,4.3,2.9
	C-322,279.8-321.2,281.3-320.6,283L-320.6,283z M-311.7,274.6c-0.6,1.2-2.2,2.9-4.8,3.6c-0.5,0.2-1.1,0.2-1.7,0.2h0
	c-1.7,0-4.5-0.7-8.2-3.8l-0.1-0.1c-0.5-0.5-0.9-0.9-1-1.1c0.1,0,0.2,0,0.4,0c1.9,0.2,4.9,0.2,7,0.2c1.1,0,2.3,0,3.4,0
	c0.9,0,1.8,0,2.6,0c1.5,0,2.4,0,2.7,0.1C-311.4,273.8-311.4,274.2-311.7,274.6L-311.7,274.6z"/>
<path id="Fill-18" sketch:type="MSShapeGroup" d="M-357.7,317L-357.7,317c-0.3,0-0.6,0-0.9-0.1c-3.6-0.9-8.5-6.3-9.2-9.3
	c-0.3-1.3,0-2.6,0.7-3.5c0.7-0.8,1.7-1.3,2.7-1.3c1,0,2,0.4,2.8,1c1.8,1.3,4.7,7.3,5.4,8.7c0.3,0.6,0.8,2.4,0.1,3.6
	C-356.3,316.6-356.8,317-357.7,317L-357.7,317z M-364.3,303.9c-0.8,0-1.4,0.3-1.9,0.9c-0.5,0.7-0.7,1.6-0.5,2.6
	c0.5,2.6,5.2,7.7,8.4,8.5c0.2,0.1,0.5,0.1,0.6,0.1c0.5,0,0.7-0.2,0.8-0.3c0.4-0.6,0.2-1.9-0.1-2.6c-0.9-2-3.6-7.2-5-8.3
	C-362.8,304.2-363.6,303.9-364.3,303.9L-364.3,303.9z"/>
<path class="st5" d="M-348.9,266.7c0-0.5,0.2-1.1,0.7-1.1c0.3,0,0.6,0.2,0.7,0.4s0.2,0.6,0.3,0.9c0.3,1.6,1.3,2.9,2,4.3
	c0.2,0.3,0.3,0.6,0.3,0.9c0,0.6-0.5,1.2-1.1,1.3c-0.6,0.2-1.6,0.6-2-0.4C-348.3,271.9-349.1,268.1-348.9,266.7z"/>
<path d="M-348.4,271c-0.3-1.5-0.6-3.4-0.5-4.3c0-0.5,0.2-1.1,0.7-1.1c0,0,0.1,0,0.1,0c0.3,0,0.5,0.2,0.7,0.4
	c0.2,0.3,0.2,0.6,0.3,0.9c0.2,1,0.7,2,1.2,2.9c0.4-0.1,0.8-0.2,1.2-0.3c0.3,0,0.6,0,0.9,0c0,0-0.1-0.1-0.1-0.1c-0.6-1-1.2-2-1.4-2.9
	l0-0.1c-0.1-0.3-0.2-0.8-0.4-1.3c-0.5-0.9-1.4-1.5-2.4-1.5c-0.1,0-0.2,0-0.4,0c-1,0.2-2.2,1-2.4,2.9c-0.1,1.4,0.3,4.2,0.7,5.9
	C-349.7,271.9-349.1,271.4-348.4,271z"/>
<path class="st5" d="M-330.9,265.7c0-0.5-0.2-1.1-0.7-1.1c-0.3,0-0.6,0.2-0.7,0.4c-0.2,0.3-0.2,0.6-0.3,0.9c-0.3,1.6-1.3,2.9-2,4.3
	c-0.2,0.3-0.3,0.6-0.3,0.9c0,0.6,0.5,1.2,1.1,1.3c0.6,0.2,1.6,0.6,2-0.4C-331.5,270.9-330.7,267.1-330.9,265.7z"/>
<path d="M-331.4,270c0.3-1.5,0.6-3.4,0.5-4.3c0-0.5-0.2-1.1-0.7-1.1c0,0-0.1,0-0.1,0c-0.3,0-0.5,0.2-0.7,0.4
	c-0.2,0.3-0.2,0.6-0.3,0.9c-0.2,1-0.7,2-1.2,2.9c-0.4-0.1-0.8-0.2-1.2-0.3c-0.3,0-0.6,0-0.9,0c0,0,0.1-0.1,0.1-0.1
	c0.6-1,1.2-2,1.4-2.9l0-0.1c0.1-0.3,0.2-0.8,0.4-1.3c0.5-0.9,1.4-1.5,2.4-1.5c0.1,0,0.2,0,0.4,0c1,0.2,2.2,1,2.4,2.9
	c0.1,1.4-0.3,4.2-0.7,5.9C-330.2,270.9-330.7,270.4-331.4,270z"/>
<path d="M-346.2,278.5c0.1-0.7,0.8-0.5,0.6,0.5c-0.1,0.3-0.3,0.5-0.5,0.7C-346.2,279.7-346.3,278.8-346.2,278.5z"/>
<path d="M-346.4,278.5c-0.1-0.7-0.8-0.5-0.6,0.5c0.1,0.3,0.3,0.5,0.5,0.7C-346.5,279.7-346.4,278.8-346.4,278.5z"/>
<path class="st6" d="M-348.7,287c0.4-1.4,0.5-2.8,0.4-4.2c-0.3,0-1.6,0.6-1.6,0.6C-350.4,283.7-349.1,286.5-348.7,287z"/>
<path class="st6" d="M-344.5,284.2c-0.1-0.8-0.1-1.7-0.1-2.5c0.3,0,1.6,0.6,1.6,0.6c0.1,0.1,0.2,0.3,0.1,0.6L-344.5,284.2z"/>
<path class="st7" d="M-355,306.1c1.9,1.1,4.2,1.6,6.3,1.1c5.4-1.2,6.1-10.7,1.9-15.7c0.1,2.1,0.6,4.4-1.3,7.8
	c-1.5-1.1-1.6-4.4-1.8-6.3c-1.3,0.7-2.6,3.9-3.3,5c-0.9-3.7,0.9-10.8,1.4-11.2C-363.6,300.5-355.5,305.8-355,306.1z"/>
<path class="st4" d="M-355.5,296c-2.3,8.1,3,9.3,4.4,9.3c5.5,0,5.4-6.8,5.1-6.8c-0.3,1.5-1.1,2.6-2.5,3.5c-1.1-0.7-1.9-2.3-2.5-4.3
	c-1.2,1.6-2.2,3.3-2.4,3.2C-354.9,300-355.5,296-355.5,296z"/>
<g>
	<path class="st8" d="M-342.8,278.6c1.8,1.9,5.1-2,6-3.6c0.9-1.5-0.6-1.9-1.1-1.7c-1.3,0.5-2.4,0.9-4.6,1.9
		C-343.9,275.9-343.5,277.8-342.8,278.6z"/>
	<path class="st9" d="M-341.7,277.4c1.6,1.7,5.9-4.3,5.9-4.3s-4,1.4-6.2,2.4C-342.5,275.8-342.2,276.9-341.7,277.4z"/>
	<path d="M-340.7,275.1c0,0-3.4,0.9,0,3.1C-340.7,278.1-339.7,276.5-340.7,275.1z"/>
</g>
<g>
	<path class="st8" d="M-348.6,279.6c-1.3,1.4-3.3-1.7-4-2.8c-0.7-1.1,0.4-1.4,0.8-1.3c0.9,0.4,1.7,0.6,3.3,1.4
		C-347.4,277.3-348,279-348.6,279.6z"/>
	<path class="st9" d="M-349,278.5c-1.1,1.2-3.6-2.7-3.6-2.7s2.3,0.6,3.9,1.4C-348.4,277.3-348.6,278-349,278.5z"/>
	<path d="M-349.7,276.7c0,0,2.4,0.7,0,2.2C-349.7,279-350.5,277.8-349.7,276.7z"/>
</g>
<path class="st6" d="M-338.6,301.4c-0.9,0.8-1.6,1.7-2.2,2.8c0.2,0.1,1.2,0.8,1.2,0.8C-339.1,305-338.5,301.9-338.6,301.4z"/>
<path class="st6" d="M-342.7,300c-0.3,1.2-0.3,2.4-0.2,3.5c0.2,0,1.5,0,1.5,0C-341,303.2-342.3,300.4-342.7,300z"/>
<path class="st6" d="M-345.7,301.2c0.9,0.8,1.6,1.7,2.2,2.8c-0.2,0.1-1.2,0.8-1.2,0.8C-345.2,304.8-345.8,301.8-345.7,301.2z"/>
<path class="st6" d="M-363.5,299.2c-0.5,1.1-0.9,2.2-1,3.4c0.2,0,1.5,0.3,1.5,0.3C-362.6,302.7-363.2,299.7-363.5,299.2z"/>
<path class="st6" d="M-367.9,299.4c0.2,1.2,0.6,2.3,1.1,3.4c0.2-0.1,1.4-0.6,1.4-0.6C-365.1,301.8-367.3,299.7-367.9,299.4z"/>
<path class="st6" d="M-370.1,301.7c1.1,0.4,2.2,1,3.1,1.7c-0.1,0.2-0.8,1.2-0.8,1.2C-368.3,304.9-370,302.3-370.1,301.7z"/>
</svg>
