<svg id="Layer_1" data-name="Layer 1" xmlns="http://www.w3.org/2000/svg" viewBox="0 0 375.42 529.55"><defs><style>.cls-1{fill:#a91916;}.cls-2{fill:#b54343;}.cls-3{fill:#fff;}.cls-4{fill:#f08518;}.cls-5{fill:#58a0be;}.cls-6{fill:#ffd103;}.cls-7{fill:none;stroke:#000;stroke-linecap:round;stroke-linejoin:round;stroke-width:6.7px;}</style></defs><title>Untitled-1</title><path d="M137,529.55c-32.86,0-63.51-16.47-79.32-32.8-9.4-9.71-14.21-19.69-13.91-28.87,0.55-17,11.76-28.35,27.9-28.35,15.36,0,30.95,10.16,40.68,26.52,7.35,12.36,21,15,31.21,15h0c24.16,0,57-14.67,79.67-40.15A120.31,120.31,0,0,1,205,442.29l-2,0a36.87,36.87,0,0,1-29.27,13.64c-7.83,0-20.38-2.54-25.05-17.79a127.18,127.18,0,0,1-59.55-21.86,20.38,20.38,0,0,1-2.44,5.29c-3.46,5.29-9.16,8.2-16.06,8.2a31.23,31.23,0,0,1-7.21-.92C37.62,422.64,5.26,386.62.83,365.25c-2.17-10.49-.07-20.31,5.9-27.65a28.62,28.62,0,0,1,22.35-10.46,31.79,31.79,0,0,1,5.47.48A128.49,128.49,0,0,1,51,245.4a24.43,24.43,0,0,1-1.08-3.94c-1.28-6.85.95-14.17,6.29-20.6a37.71,37.71,0,0,1,2.58-2.81c-7.88-2.59-11.41-8.18-12-13.14a13.41,13.41,0,0,1,10.78-14.58c4.18-.93,19.62-9.61,27.84-17.42,24.3-37.66,69.17-59.57,119.85-58,23.39,0.71,44.52,7.83,62.87,21.16,11.46,0.66,27.55.74,39,.74,7.15,0,14.31,0,21-.07,5.94,0,11.54-.06,16.45-0.06,15.23,0,19,.28,21.34.86,5.54,1.38,9.21,6.29,9.35,12.5,0.27,11.76-12.78,33.21-41.66,41.87A51.29,51.29,0,0,1,319,194h0a58.32,58.32,0,0,1-6.64-.39q2.22,5.18,4.14,10.6c18.42,52,22.82,168.76-32.75,211.22-15.17,51.27-67.34,97.89-125.56,111.68A91.9,91.9,0,0,1,137,529.55ZM71.72,459.63c-3.23,0-7.55.92-7.81,8.89-0.09,2.67,2,7.81,8.26,14.24,12.44,12.85,38,26.68,64.87,26.68a71.67,71.67,0,0,0,16.51-1.88c42.13-10,81.71-40.39,101.43-75.64l-0.91.5c-22.72,39.33-69.67,68.67-110.47,68.68h0c-21.76,0-39-8.8-48.49-24.79C88.26,464.79,78.42,459.63,71.72,459.63Zm85.35-41.46a10.06,10.06,0,0,1,10,9.27c0.66,8.38,2.54,8.38,6.66,8.38,7,0,11.94-2.87,15.65-9a10.05,10.05,0,0,1,9.36-4.83c2,0.15,4.1.23,6.23,0.23A109.08,109.08,0,0,0,247.75,413a10.06,10.06,0,0,1,13,4.82,10.48,10.48,0,0,1,.48,1.17,99.19,99.19,0,0,0,4.06-12.17,10,10,0,0,1,4-5.73c47.65-32.81,45.37-141.76,28.24-190.16a144.59,144.59,0,0,0-13.5-28.32,10.05,10.05,0,0,1,12.83-14.41c8,3.78,15.43,5.7,22.12,5.7h0a31.24,31.24,0,0,0,9-1.27c12.63-3.79,20.18-10.6,24.05-15.84-2,0-4.41,0-7.31,0-4.89,0-10.45,0-16.35.06-6.74,0-13.94.07-21.13,0.07-12.81,0-31.25-.1-43.4-1a10.05,10.05,0,0,1-5.4-2.06c-15.5-11.92-33.57-18.27-53.72-18.88-1.49,0-3-.07-4.46-0.07-42,0-78.79,18.59-98.43,49.74a10.11,10.11,0,0,1-1.4,1.75,85.76,85.76,0,0,1-9.32,7.87,10.06,10.06,0,0,1,5.13,7.65,8.78,8.78,0,0,0,4,6.8,10.05,10.05,0,0,1-7.74,18.42h0a10.06,10.06,0,0,1-12.1.6,19.87,19.87,0,0,0-8.8,6.13c-1.53,1.91-1.94,3.36-1.85,3.87a2.51,2.51,0,0,0,.41,1.11,10.05,10.05,0,0,1,1,12.29,108.3,108.3,0,0,0-12,93.49,10.05,10.05,0,0,1-17.3,9.56,20.53,20.53,0,0,0-3-3.12c-3.25-2.5-6.61-3.83-9.72-3.83a8.49,8.49,0,0,0-6.75,3c-2.09,2.56-2.73,6.43-1.81,10.88,3,14.32,30.51,44,47.61,48.11a13.15,13.15,0,0,0,1.93.34,21.37,21.37,0,0,0-1.57-8.87c-0.68-1.55-1.59-3.51-2.67-5.75a10.05,10.05,0,0,1,16.43-11.2,107.58,107.58,0,0,0,72.46,34.65A10.11,10.11,0,0,1,157.07,418.17Z"/><path d="M156.59,432h-0.15a121.75,121.75,0,0,1-67.67-219,3.35,3.35,0,1,1,4,5.36,115,115,0,0,0,63.94,207A3.35,3.35,0,0,1,156.59,432Z"/><path class="cls-1" d="M156.59,428.62a118.4,118.4,0,0,1-65.8-213c20.41,10.59,36.44-8.82,49.1-18.11,36.29,9.28,94.71,3.9,134.29,75.38,6,10.85,6,24.36,6,37.45a118.41,118.41,0,0,1-4.9,33.83c-29.08-10.76-63.69,2.75-73.82,28.91C182.09,407.68,156.59,428.62,156.59,428.62Z"/><path class="cls-2" d="M213.59,302.16a91.57,91.57,0,0,0-90.09-91.55c-9.3,6.68-20,11.34-32.21,5.26l-1.46.53A118.32,118.32,0,0,0,58.52,368.14,91.56,91.56,0,0,0,213.59,302.16Z"/><path class="cls-3" d="M114.11,372.45a49.7,49.7,0,0,1-14.24-1c-1.52-15.16-2.5-34.1,5.14-67.11a481,481,0,0,0,29.27,62.43,56.73,56.73,0,0,1-20.16,5.69m-23.27-3.83c-39.7-18-47-60.8-33.66-93.72,0.5,32.58,9.63,58,33.66,93.72m53.73-8c6.29-27.14,16.76-53.08,22.92-80.26a54.35,54.35,0,0,0,.37-22.55c18.35,28.66,16.24,73.18-23.29,102.81M62.76,264c17.92-27.58,52.19-50,89.8-22.47-0.25,0-24.11,1.08-6.77,26.74,9.37,13.86,10,25,2.56,47.6-2.68,11.15-3.48,14.52-5.87,26-11.44-27.35-20.78-50.64-28.16-80.41,6.48-1,13.83-2,10.06-6.2-0.48-.52-34.64,2.86-35,2.92-2.62.45-3.08,3.53-3.09,3.57-0.27,2.44.17,2.41,7.57,2,2,10.51,2.84,15.31,7.67,30.66C98.08,308.83,94.47,323.8,94,347c-15.57-31-21.8-52.5-23-79.4,2.21-1.34,5.16-.82,7.11-2.82,1.33-1.36,2-4.44.32-4.8-5.89-1.27-10.38,2.9-15.67,4m54.09-40.77c-58.89,4.86-97.13,93.6-45,140,52.79,47.06,118-13.74,115.75-70.17-1.75-43.74-38-71.44-70.7-69.87"/><path class="cls-4" d="M85.14,206.84c-29,8.19-32-5.21-25.32-6.7s24.57-11.91,33.51-20.85Z"/><path class="cls-4" d="M275,409.38c-12.66,48.4-62.55,94.56-119.14,108-48.68,11.53-102.76-26.06-102-49.14,0.84-26,33.51-24.57,49.89,3,25.09,42.21,110.95,12.66,143-46.17Z"/><path class="cls-5" d="M90.79,215.63c-0.33.25-.64,0.52-1,0.77l1.46-.53Z"/><path class="cls-5" d="M123.49,210.61c-0.5,0-1,0-1.5,0a91.43,91.43,0,0,0-30.72,5.29C103.53,221.95,114.19,217.28,123.49,210.61Z"/><path class="cls-6" d="M196.83,431.9c18.17,1.62,48-1.75,78.18-22.52,54.47-37.5,49.14-153.39,32-201.79s-52.87-81.16-102-82.65S114.92,145,93.33,179.29c-14.56,23.1-3.72,35.74,3,38.72s35-8.19,43.19-23.08c19.36,11.91,41,6.7,59.57.74l1.27,4.13,34.47,6.3c-28.3-11.17-64-4.47-82.65,11.91s-6,28.3,8.19,29.79,41.7-11.17,63.29-6.7,28.22,12.38,51.3,33.23c0,0,12.66,50.64,0,70.06-21.95-12.66-61.62,1.69-73.43,28.7Z"/><path d="M275.33,347.52a3.35,3.35,0,0,1-3.21-4.3A115.76,115.76,0,0,0,271,274a3.35,3.35,0,1,1,6.36-2.12,122.44,122.44,0,0,1,1.17,73.29A3.34,3.34,0,0,1,275.33,347.52Z"/><path d="M202.78,374.76a3.35,3.35,0,0,1-3-4.83c9-18.35,26-30.06,46.5-32.14,16.95-1.72,33.84,3.61,41.07,13a3.35,3.35,0,1,1-5.3,4.1c-5.79-7.49-20.53-11.85-35.09-10.39-10.69,1.08-30.26,6.22-41.16,28.43A3.35,3.35,0,0,1,202.78,374.76Z"/><path d="M204.88,435.59c-3.34,0-6.16-.16-8.34-0.35a3.35,3.35,0,0,1,.59-6.67c11.75,1,42.67,1,76-21.94,52.44-36.11,47.83-149.68,30.76-197.91-17.6-49.74-53.67-79-99-80.42-46.38-1.4-87,18.33-108.76,52.79-5.94,9.42-8,18-5.93,24.77a14.72,14.72,0,0,0,7.44,9.1c4.22,1.88,31.08-7.44,38.89-21.64a3.35,3.35,0,0,1,4.69-1.24c18.33,11.28,38.93,6.12,56.79.41a3.35,3.35,0,1,1,2,6.38c-19.7,6.3-40.49,10.64-59.48.56C130,214.11,103.21,224.74,95,221.08a21.38,21.38,0,0,1-11.13-13.27c-1.84-6.07-2.18-16.25,6.68-30.3,23-36.49,65.85-57.42,114.62-55.92,48.2,1.46,86.5,32.4,105.07,84.88,8,22.69,14.55,64.38,11,106.38-2.8,33.31-12.76,77.57-44.29,99.29C248,432.07,220.59,435.59,204.88,435.59Z"/><path class="cls-4" d="M263.1,145.79c-13.38-1.08-3,8.94,1.49,12.66s36.49,32.76,66.27,23.83,38.72-33.51,32.76-35S290.65,148,263.1,145.79Z"/><path d="M319,187.32h0c-11.73,0-30.92-4.45-55.75-25.62l-0.8-.68c-11-9.15-9.46-13.32-9-14.7,1-2.63,3.57-4,7.76-4,0.64,0,1.35,0,2.13.09,11.61,0.94,30.53,1,43.76,1,7.2,0,14.41,0,21.16-.07,6,0,11.56-.06,16.48-0.06,14.19,0,18,.25,19.67.66,2.6,0.65,4.2,3,4.28,6.16,0.19,8.13-10.75,27.46-36.89,35.3A44.64,44.64,0,0,1,319,187.32ZM260.3,149.09a32.11,32.11,0,0,0,6.44,6.78l0.86,0.73c23.28,19.85,40.8,24,51.4,24h0a38,38,0,0,0,10.9-1.56c16.35-4.91,26.4-15,30.34-22.89a13.82,13.82,0,0,0,1.77-5.76c-2.22-.23-8-0.34-17.25-0.34-4.91,0-10.5,0-16.45.06-6.76,0-14,.07-21.19.07-13.34,0-32.45-.11-44.3-1.07A16.74,16.74,0,0,0,260.3,149.09Z"/><path d="M69,212.84c-7.58,0-11.37-2.29-13.19-4.13a7.18,7.18,0,0,1-2-7.08,7,7,0,0,1,5.35-4.76c5.77-1.28,23.06-11.14,31.87-19.95a3.35,3.35,0,0,1,4.74,4.74c-9.23,9.23-27.63,20.08-35.15,21.75a0.86,0.86,0,0,0-.41.18,5,5,0,0,0,1,.86c1.4,0.94,7.17,3.66,23.12-.84a3.35,3.35,0,0,1,1.82,6.45A64,64,0,0,1,69,212.84Z"/><path d="M133.54,175.57c-5.33,4-3.72,8.94,2.23,9.68s6.42,1.14,11.92-3c6-4.47,6.7-11.92,0-11.17S136.52,173.34,133.54,175.57Z"/><circle cx="111.2" cy="178.55" r="6.7"/><circle cx="188.64" cy="159.94" r="6.7"/><path d="M137.28,522.81c-26.06,0-51.62-11.16-67.83-24.41-12.33-10.08-19.23-21.13-18.94-30.31,0.36-11,5.91-18.73,15.23-21.13,11.84-3.06,29.7,3.7,40.88,22.51,9.21,15.49,25.94,18.49,38.29,18.22,36.79-.7,79.29-28.33,98.85-64.28a3.35,3.35,0,1,1,5.89,3.2c-20.62,37.9-65.6,67-104.61,67.77-20.12.33-35.71-7.26-44.18-21.5-9.5-16-24-21.88-33.45-19.45-6.33,1.63-10,6.91-10.21,14.86-0.23,7,5.94,16.29,16.48,24.91,19,15.5,51.49,28,81.41,20.87,55-13,104.08-57.42,116.67-105.56a3.35,3.35,0,1,1,6.48,1.7C265.08,460.62,213.94,507,156.65,520.61A83.93,83.93,0,0,1,137.28,522.81Z"/><path d="M282.46,283.17a3.33,3.33,0,0,1-2.25-.86l-2.65-2.4c-21.67-19.59-34.75-31.42-54.61-35.53-12-2.47-26.21.69-38.79,3.48-9.54,2.12-17.77,3.95-24.17,3.27-9.84-1-17.64-6.21-19.86-13.2-1.57-4.92-1.14-12.8,9.81-22.44,20.45-18,58.27-23.5,86.1-12.51a3.35,3.35,0,1,1-2.46,6.23c-25.69-10.14-60.48-5.17-79.21,11.31-6.42,5.65-9.21,11.11-7.85,15.37s7.09,7.82,14.18,8.57c5.33,0.55,13.43-1.24,22-3.15,13.24-2.94,28.24-6.27,41.6-3.5,21.65,4.48,36,17.46,57.74,37.12l2.65,2.39A3.35,3.35,0,0,1,282.46,283.17Z"/><path class="cls-6" d="M44.93,343.11c-18.18-14-38.72-1.49-34.25,20.1,3.67,17.74,33.66,50.7,55.1,55.85,18.61,4.47,14.85-15.62,11.91-22.34C72.48,384.81,54.61,350.56,44.93,343.11Z"/><path d="M70.65,423.05h0a24.43,24.43,0,0,1-5.65-.73c-22.66-5.44-53.68-39.47-57.6-58.43-1.75-8.48-.14-16.31,4.53-22.06a22,22,0,0,1,17.15-8c6.09,0,12.28,2.29,17.9,6.61,11,8.49,29.75,45.69,33.79,54.92,1.68,3.84,5,15.37.34,22.51C79.56,420.24,76.5,423.05,70.65,423.05Zm-41.57-82.5a15.08,15.08,0,0,0-12,5.52c-3.38,4.15-4.51,10-3.17,16.47C17.37,379,46.7,411,66.56,415.8a17.85,17.85,0,0,0,4.09.55c3.1,0,4.25-1.21,4.85-2.13,2.42-3.71,1-11.77-.87-16.16-5.5-12.57-22.93-45.52-31.74-52.3C38.45,342.35,33.68,340.55,29.08,340.55Z"/><path class="cls-6" d="M202.79,419.8s-4.47,26.06-29,26.06-14.15-29.78-17.12-49.14-14.89-44.68,3-56.59,39.47,23.08,43.19,36.49C208,394.49,207.25,405.66,202.79,419.8Z"/><path d="M173.75,450.33c-6.49,0-11.59-1.86-15.14-5.54-6.82-7-6.42-19-6-30.57,0.19-5.84.4-11.87-.37-16.83-0.63-4.08-1.68-8.46-2.79-13.09-4.14-17.28-8.83-36.88,7.7-47.89a18.19,18.19,0,0,1,10.23-3.19c19.41,0,36.51,30.57,39.74,42.19,5.74,19.68,4.38,31.61,0,45.45C205.24,431.24,195.94,450.33,173.75,450.33Zm-6.39-108.17a9.29,9.29,0,0,0-5.28,1.68c-10.55,7-8.42,19.76-4,38.38,1.1,4.61,2.24,9.37,2.93,13.81,0.89,5.78.67,12.24,0.47,18.49-0.32,9.7-.66,19.73,3.52,24.06,1.83,1.89,4.68,2.81,8.72,2.81,20.43,0,24.48-21.45,24.64-22.36a4.64,4.64,0,0,1,.14-0.58c4-12.61,5.16-22.81,0-40.59C195.18,365.92,179.41,342.16,167.36,342.16Z"/><path class="cls-6" d="M83.65,218c-7.45-3-26.06,9.68-23.83,21.59s15.64,11.91,24.57,3S90.87,220.9,83.65,218Z"/><path d="M70.63,252.31h0c-7.3,0-12.7-4.63-14.1-12.08-0.91-4.85.82-10.21,4.86-15.08,5.25-6.33,13.54-10.92,19.71-10.92a10.18,10.18,0,0,1,3.79.68c4.11,1.64,7.18,5.63,8.21,10.68,1.39,6.77-1,14-6.34,19.38C82.09,249.63,76.21,252.31,70.63,252.31ZM81.1,220.92c-3.61,0-10.2,3.25-14.56,8.5-1.59,1.92-4.15,5.71-3.43,9.57,1,5.47,4.65,6.61,7.51,6.61,3.76,0,8-2,11.4-5.39,3.76-3.76,5.45-8.73,4.51-13.29-0.58-2.83-2.13-5-4.13-5.8A3.66,3.66,0,0,0,81.1,220.92Z"/><path id="black" d="M318.85,74.19c-0.67,0-2,.1-2,0.1C299.37,51.06,246.93,0,208.69,0h0c-21.23,0-48.19,26.37-67.06,48.48-21.09,24.71-36.39,46.1-43.87,61-0.08.16-12.44,5.33-13.69,10.08-1.52,5.76-2.42,21-1.27,38.53,0.38,5.85,4.11,8.35,11.06,8.35h0a36.16,36.16,0,0,0,11.8-2.29c40.24-14.51,77.19-21.86,109.84-21.86a194.24,194.24,0,0,1,36.86,3.43c4.16,0.74,27.53,1.93,27.86-3.38,0.41-6.59,2.61-29.86-.56-46.43-0.93-4.88-9.26-6.15-12.09-6.33,0,0,.76-11.79.89-13.81,4.85,1,18.48,11.81,23.17,15.55,1.5,1.2,2.71,2.15,3.7,2.92A23.86,23.86,0,1,0,318.85,74.19Z"/><path id="red" class="cls-1" d="M300,82.92a17.27,17.27,0,0,1,5.37-4.74,109.33,109.33,0,0,0-10.11-11.39c-23-23.18-55-51.95-84-53.33-29.3-1.4-79.31,64.5-100,98.12,44.52-15,86.68-19,119.94-19,9.39,0,14.25-.1,20.84.92,0,0,2.31-21.19,2.35-21.62C254.6,68.42,255.06,60,263,60,274.9,60,300,82.92,300,82.92Z"/><circle id="pompom" class="cls-3" cx="318.85" cy="98.23" r="13.16"/><path id="trim" class="cls-3" d="M96.67,130.92c-0.17-3.16.06-8.39,5.93-10.42,14-4.84,34.52-10.17,45.79-12.94,23.72-5.82,65.19-9.31,83.09-9.09,8.4,0.1,19.69-.06,28,2.11,6.7,1.74,7,4.62,7,10.81,0,4.6-.11,16.83-0.44,21.37-0.46,6.33-.13,6.85-13,5.48-41.74-4.44-68.7-2.49-124.61,11.75-6.06,1.54-30.93,9.93-31.83,3C96,147.49,96.67,130.92,96.67,130.92Z"/><path id="line" class="cls-7" d="M256.51,81.87s3.23-21.26,0-39.93"/></svg>