<?xml version="1.0" encoding="utf-8"?>
<!-- Generator: Adobe Illustrator 18.1.0, SVG Export Plug-In . SVG Version: 6.00 Build 0)  -->
<!DOCTYPE svg PUBLIC "-//W3C//DTD SVG 1.1//EN" "http://www.w3.org/Graphics/SVG/1.1/DTD/svg11.dtd">
<svg version="1.1" id="Calque_1" xmlns="http://www.w3.org/2000/svg" xmlns:xlink="http://www.w3.org/1999/xlink" x="0px" y="0px"
	 viewBox="0 0 595.3 841.9" enable-background="new 0 0 595.3 841.9" xml:space="preserve">
<path d="M514.3,484.4l-31.9-31.9c4.9-54.1-2.6-109.9-14.8-144.3c-1.7-4.7-3.5-9.4-5.4-13.9c2.9,0.3,5.8,0.5,8.7,0.5
	c6.7,0,13.2-0.9,19.3-2.8c37.8-11.3,54.9-39.4,54.6-54.8c-0.2-8.1-5-14.6-12.2-16.4c-3-0.8-8-1.1-28-1.1c-6.4,0-13.8,0-21.5,0.1
	c-8.8,0-18.2,0.1-27.5,0.1c-15.1,0-36.1-0.1-51.1-1c-24-17.5-51.7-26.8-82.3-27.7c-66.4-2-125.1,26.6-157,75.9
	c-0.3,0.3-0.6,0.6-1,0.9l-5.4-4.4c-1.7-1.4-3.8-2.1-6-2.1c-1,0-2.1,0.2-3.1,0.5c-9.8,3.3-18.9,9.1-26.5,16.7
	c-20.6,20.6-25.7,50.4-13.3,71.2c-8.2,1.8-17.3,7.5-23.6,15.1c-4.7,5.6-7.3,11.8-7.6,17.8l-10.7-8.7c-1.7-1.4-3.8-2.1-6-2.1
	c-2.9,0-5.6,1.3-7.4,3.5c-1.6,2-2.3,4.4-2.1,7c0.3,2.5,1.5,4.8,3.5,6.4l42.6,34.6c-1.1,7.8-1.7,15.6-1.7,23.5
	c0,7.6,0.5,15.1,1.5,22.6c-2.4-0.4-4.8-0.6-7.2-0.6c-11.5,0-22.2,5-29.3,13.7c-7.8,9.6-10.6,22.5-7.7,36.2c5.8,28,48.2,75.1,82,83.2
	c3.3,0.8,6.5,1.2,9.4,1.2c9,0,16.5-3.8,21-10.7c1.4-2.2,2.5-4.5,3.2-6.9c23.1,15.9,49.7,25.7,78,28.6c6.1,20,22.6,23.3,32.8,23.3
	c15.5,0,28.8-6.3,38.3-17.9c0.9,0,1.7,0,2.6,0c6.5,0,14.7-0.4,23.9-1.9c-29.7,33.4-72.7,52.6-104.3,52.6h0
	c-13.3,0-31.2-3.4-40.9-19.6c-12.7-21.4-33.1-34.7-53.3-34.7c-21.1,0-35.8,14.9-36.5,37.1c-0.4,12,5.9,25.1,18.2,37.8
	c20.7,21.4,60.9,42.9,103.9,42.9c9.5,0,18.8-1.1,27.7-3.2c76.3-18,144.6-79.1,164.4-146.2c11.4-8.7,20.8-19.7,28.6-32.4
	c12.3,10.6,28.9,22.2,46.5,22.2c4.2,0,8.4-0.7,12.3-2l1.6-0.5l1.1-0.4l0.7-0.9l1-1.3c10.2-13,15-29.8,13.6-47.2
	C528.7,507,522.9,492.9,514.3,484.4z M128.6,290.1c-9.2,2-15.1,10.1-14.1,19.1c0.7,6.5,5.3,13.8,15.7,17.2c-1.2,1.2-2.3,2.4-3.4,3.7
	c-7,8.4-9.9,18-8.2,27c0.3,1.8,0.8,3.5,1.4,5.2c-7.6,12.9-13.4,26.7-17.3,41.1c-0.4,0-0.9,0-1.3,0c-1.7,0-3.3-0.2-4.8-0.6l5.2,4.2
	c-1,4-1.8,8-2.5,12.1l-40.8-33.1c-2.4-1.9-2.7-5.4-0.8-7.7c1.1-1.3,2.7-2,4.3-2c1.2,0,2.4,0.4,3.5,1.2l19.4,15.8
	c-0.8-1.7-1.5-3.6-1.8-5.7c-1.2-6.4,1.1-13.4,6.4-19.7c6.9-8.3,17.7-14.3,25.8-14.3c0.8,0,1.5,0.1,2.2,0.2
	c-16.3-18.9-12.8-50.5,8.6-71.9c7.2-7.2,15.8-12.6,25-15.8c0.6-0.2,1.2-0.3,1.8-0.3c1.2,0,2.5,0.4,3.5,1.2l4.9,3.9
	C149.8,280,133.4,289,128.6,290.1z"/>
<path fill="#1D1D1D" d="M366.2,185c0,0,0.2-27.3,15.4-36c15.3-8.7,23.9,17.1,23.9,17.1S391.7,170.5,366.2,185z"/>
<path d="M359.1,197.1l0.1-12.1c0-0.3,0.1-7.8,2.2-16.4c3.1-12.4,8.7-21.1,16.8-25.7c3.2-1.8,6.4-2.7,9.7-2.7
	c16,0,23.5,21.3,24.3,23.7l2.2,6.7l-6.8,2.1c-0.1,0-13.7,4.4-38,18.3L359.1,197.1z M387.9,154.2c-0.8,0-1.7,0.3-2.7,0.9
	c-5.5,3.1-8.6,10.3-10.2,17.2c9.3-4.9,16.4-8.1,21.2-10.1C393.8,157.9,390.6,154.2,387.9,154.2z"/>
<path id="Fill-2_1_" sketch:type="MSShapeGroup" fill="#035784" d="M137.3,535c-3.8-7-7.9-14.2-12-20.6
	C128.8,521.5,132.8,528.4,137.3,535"/>
<path id="Fill-3_1_" sketch:type="MSShapeGroup" fill="#035784" d="M408,399.6c-23.5-21-39.7-34-62.9-38.8
	c-15.6-3.2-34.3,0.9-50.8,4.6c-12.5,2.8-23.3,5.2-31.7,4.3c-12.9-1.4-23.1-8.1-26-17.3c-2.1-6.4-1.5-16.8,12.8-29.4
	c6-5.2,13.1-9.6,20.9-13.2c-11.3,0-22.4-2.2-33.2-7.8c-13.8,19.2-49,33.1-59.8,28.3c-2.4-1.1-5.1-2.9-7.6-5.5
	c-0.2,0.2-0.5,0.4-0.7,0.6c2.9,2.7,4.9,6.4,5.8,10.8c1.8,8.9-1.3,18.3-8.3,25.4c-6.1,6.1-13.8,9.6-21.1,9.6c-5.1,0-9.5-1.8-12.7-4.9
	c-14.5,23.5-22.9,51.2-22.9,80.9c0,13.8,1.8,27.2,5.2,39.9c14.5,12,38.4,59.5,43.6,71.4c0.3,0.7,0.6,1.5,0.9,2.4
	c24.9,23,57.3,38,93.2,40.7c-0.5-5.9-0.2-12.2,0-18.5c0.3-7.6,0.5-15.5-0.5-22c-0.8-5.3-2.2-11.1-3.6-17.1
	c-5.4-22.6-11.6-48.3,10.1-62.7c4.1-2.8,8.7-4.2,13.4-4.2c19.4,0,37.1,23.4,46.2,41.3c12.4-20.1,32.8-32.8,57.1-35.3
	c12.3-1.2,24.6,0.3,34.7,4.1c3.6-13,5.4-26.4,5.4-40C415.7,430.9,413.1,414.9,408,399.6"/>
<path id="Fill-4_1_" sketch:type="MSShapeGroup" fill="#08719E" d="M307.3,362.6c-4.4,0.9-8.8,1.8-13,2.8
	c-12.5,2.8-23.3,5.2-31.7,4.3c-12.9-1.4-23.1-8.1-26-17.3c-2.1-6.4-1.5-16.8,12.8-29.4c0.2-0.2,0.4-0.3,0.6-0.5
	c-9.2-3-19-4.9-29-5.6c-15.9,10.7-35.9,16.9-43.7,13.4c-2.4-1.1-5.1-2.9-7.6-5.4c-0.2,0.2-0.5,0.4-0.7,0.6c2.9,2.7,4.9,6.4,5.8,10.8
	c1.8,8.9-1.3,18.3-8.3,25.4c-6.1,6.1-13.8,9.6-21.1,9.6c-5.1,0-9.5-1.8-12.8-4.9c-14.5,23.5-22.9,51.2-22.9,80.9
	c0,13.8,1.8,27.2,5.2,39.9c9.7,8,23.7,32,33.4,50.6c18.6,11.8,40.6,18.7,64.2,18.7c13.1,0,25.6-2.1,37.4-6c-0.5-2.1-1-4.2-1.5-6.4
	c-5.4-22.6-11.6-48.3,10.1-62.7c4.1-2.8,8.7-4.2,13.4-4.2c15,0,28.8,13.9,38.6,28.4c13.8-19.5,21.9-43.3,21.9-69
	C332.8,408.6,323.3,383,307.3,362.6"/>
<g id="XMLID_2_">
	<g>
		<path fill="#FFFFFF" d="M298.7,424.6c3,73.9-82.5,153.5-151.6,91.8c-68.2-60.8-18.1-176.9,59-183.3
			C249,331.1,296.4,367.4,298.7,424.6z M242.4,513c51.8-38.8,54.5-97.1,30.5-134.6c2.4,11.9,1.1,22.6-0.5,29.5
			C264.4,443.5,250.7,477.4,242.4,513z M247.4,454.4c9.7-29.6,8.9-44.2-3.4-62.3c-22.7-33.6,8.5-35,8.9-35
			c-49.3-36.1-94.1-6.7-117.6,29.4c6.9-1.4,12.8-6.9,20.5-5.2c2.2,0.5,1.3,4.5-0.4,6.3c-2.6,2.6-6.4,1.9-9.3,3.7
			c1.6,35.2,9.7,63.4,30.1,103.9c0.6-30.4,5.4-50,9.9-68.9c-6.3-20.1-7.5-26.4-10-40.1c-9.7,0.6-10.3,0.6-9.9-2.6
			c0,0,0.6-4.1,4.1-4.7c0.4-0.1,45.2-4.5,45.8-3.8c4.9,5.5-4.7,6.9-13.2,8.1c9.7,39,21.9,69.5,36.9,105.2
			C242.8,473.4,243.9,469,247.4,454.4z M202.5,528.5c12.6-0.9,23-5.8,26.4-7.5c-0.1-0.2-20.2-34.7-38.3-81.7
			c-10,43.2-8.7,68-6.7,87.9C190.5,528.5,195.9,528.9,202.5,528.5z M172,523.5c-31.5-46.8-43.4-80-44.1-122.7
			C110.5,443.9,120.1,499.9,172,523.5z"/>
		<path fill="#8C1817" d="M272.9,378.4c24,37.5,21.3,95.8-30.5,134.6c8.2-35.5,22-69.5,30-105.1C274,401,275.3,390.3,272.9,378.4z"
			/>
		<path fill="#8C1817" d="M244,392.1c12.3,18.1,13.1,32.7,3.4,62.3c-3.5,14.6-4.6,19-7.7,34c-15-35.8-27.2-66.3-36.9-105.2
			c8.5-1.2,18.1-2.7,13.2-8.1c-0.6-0.7-45.4,3.7-45.8,3.8c-3.4,0.6-4,4.6-4.1,4.7c-0.3,3.2,0.2,3.2,9.9,2.6
			c2.6,13.8,3.7,20.1,10,40.1c-4.6,19-9.3,38.6-9.9,68.9c-20.4-40.6-28.6-68.7-30.1-103.9c2.9-1.8,6.8-1.1,9.3-3.7
			c1.7-1.8,2.6-5.8,0.4-6.3c-7.7-1.7-13.6,3.8-20.5,5.2c23.5-36.1,68.3-65.5,117.6-29.4C252.6,357.1,221.3,358.5,244,392.1z"/>
		<path fill="#8C1817" d="M228.9,521c-3.4,1.6-13.8,6.6-26.4,7.5c-6.7,0.4-12.1,0-18.7-1.3c-2-19.9-3.3-44.6,6.7-87.9
			C208.8,486.4,228.8,520.9,228.9,521z"/>
		<path fill="#8C1817" d="M128,400.8c0.7,42.6,12.6,75.9,44.1,122.7C120.1,499.9,110.5,443.9,128,400.8z"/>
	</g>
	<g>
	</g>
</g>
<path id="Fill-6_1_" sketch:type="MSShapeGroup" fill="#E8C671" d="M314.6,541.3c0-0.2-0.1-0.4-0.1-0.5c-0.4-1.7-0.9-3.4-1.4-5.2
	c-4.3-15.6-25-46.7-40.8-46.7c-2.4,0-4.7,0.7-6.9,2.2c-13.8,9.2-11,25.9-5.2,50.2c1.4,6,2.9,12.3,3.8,18.1c1.2,7.6,0.9,16,0.6,24.2
	c-0.4,12.7-0.9,25.8,4.6,31.5c2.4,2.5,6.1,3.7,11.4,3.7c1.5,0,3-0.1,4.4-0.3c0.4-0.1,0.8-0.1,1.2-0.2c1-0.2,1.9-0.4,2.8-0.6
	c0.4-0.1,0.8-0.2,1.2-0.3c0.9-0.3,1.8-0.6,2.7-1c0.3-0.1,0.5-0.2,0.8-0.3c1.1-0.5,2.2-1.1,3.2-1.7c0.1-0.1,0.2-0.1,0.3-0.2
	c0.9-0.6,1.7-1.2,2.5-1.8c0.2-0.2,0.5-0.4,0.7-0.6c0.6-0.5,1.3-1.1,1.8-1.7c0.2-0.2,0.4-0.4,0.6-0.6c0.7-0.7,1.3-1.4,1.9-2.1
	c0.1-0.1,0.1-0.2,0.2-0.2c0.6-0.8,1.2-1.7,1.8-2.5c0.1-0.2,0.2-0.4,0.4-0.6c0.4-0.6,0.8-1.2,1.1-1.9c0.2-0.3,0.3-0.6,0.5-0.9
	c0.3-0.5,0.5-1,0.8-1.5c0.1-0.3,0.3-0.6,0.4-0.9c0.2-0.4,0.4-0.9,0.5-1.3c0.4-0.9,0.7-1.7,1-2.5c0,0,0-0.1,0-0.1
	c0.2-0.6,0.4-1.1,0.5-1.6c0.7-2.2,1-3.7,1-3.9c0-0.3,0.1-0.5,0.2-0.8c4.4-13.9,6.1-25.5,2.6-42.7C315.3,544.5,315,542.9,314.6,541.3
	"/>
<path id="Fill-7_1_" sketch:type="MSShapeGroup" fill="#F18619" d="M455.3,237.6c-17.5,0-42.5-0.1-58-1.4c-1.4-0.1-2.5-0.1-3.3,0
	c1.1,1.9,3.9,5.1,8.4,8.9l1.1,1c30.5,26,53.4,31.4,67.3,31.4h0c5,0,9.8-0.7,14.3-2c21.4-6.4,34.6-19.7,39.7-30
	c1.9-3.8,2.3-6.4,2.3-7.5c-2.9-0.3-10.5-0.4-22.6-0.4c-6.4,0-13.8,0-21.5,0.1C474.2,237.5,464.7,237.6,455.3,237.6"/>
<path id="Fill-8_1_" sketch:type="MSShapeGroup" fill="#E8C671" d="M75.5,494c-4.4,5.4-5.9,13.1-4.2,21.6
	c4.5,21.6,42.9,63.5,68.9,69.7c2,0.5,3.8,0.7,5.4,0.7c4.1,0,5.6-1.6,6.3-2.8c3.2-4.9,1.4-15.4-1.1-21.1c-7.2-16.5-30-59.6-41.6-68.5
	c-5.8-4.5-12.1-6.8-18.1-6.8C84.9,486.7,79.3,489.3,75.5,494"/>
<path id="Fill-10_1_" sketch:type="MSShapeGroup" fill="#F18619" d="M405.5,586.9c-8.8,5.2-17.4,9.4-25.6,12.7
	c-27.1,49.5-85.9,87.5-136.9,88.5c-26.4,0.4-46.8-9.5-57.9-28.1c-12.4-20.9-31.4-28.6-43.8-25.5c-8.3,2.1-13,9-13.4,19.5
	c-0.3,9.1,7.8,21.3,21.6,32.6c24.8,20.3,67.4,36.6,106.6,27.3C324,697.9,384.8,645.5,405.5,586.9"/>
<path id="Fill-11_1_" sketch:type="MSShapeGroup" fill="#F18619" d="M132.4,307.2c-0.4,0.1-0.5,0.2-0.5,0.2c0,0,0.3,0.5,1.3,1.1
	c1.8,1.2,9,4.6,28.7-0.7c-0.6-4.5-0.4-10.2,1.6-17C151.9,298.9,139,305.8,132.4,307.2"/>
<g>
	<path id="Fill-9_1_" sketch:type="MSShapeGroup" fill="#FFD207" d="M91.5,385.9c1.3,7.2,6.1,8.7,9.8,8.7c4.9,0,10.5-2.6,14.9-7.1
		c4.9-4.9,7.1-11.4,5.9-17.4c-0.8-3.7-2.8-6.5-5.4-7.6c-0.4-0.2-1-0.3-1.7-0.3c-4.7,0-13.4,4.3-19.1,11.1
		C93.9,375.9,90.5,380.8,91.5,385.9"/>
	<path id="Fill-12_1_" sketch:type="MSShapeGroup" fill="#010202" d="M101.3,403.3L101.3,403.3c-9.6,0-16.6-6.1-18.5-15.8
		c-1.2-6.4,1.1-13.4,6.4-19.7c6.9-8.3,17.7-14.3,25.8-14.3c1.8,0,3.5,0.3,5,0.9c5.4,2.1,9.4,7.4,10.8,14c1.8,8.9-1.3,18.3-8.3,25.4
		C116.3,399.8,108.6,403.3,101.3,403.3L101.3,403.3z M115,362.2c-4.7,0-13.4,4.3-19.1,11.1c-2.1,2.5-5.4,7.5-4.5,12.5
		c1.3,7.2,6.1,8.7,9.8,8.7c4.9,0,10.5-2.6,14.9-7.1c4.9-4.9,7.1-11.4,5.9-17.4c-0.8-3.7-2.8-6.5-5.4-7.6
		C116.3,362.3,115.7,362.2,115,362.2L115,362.2z"/>
</g>
<path id="Fill-13_1_" sketch:type="MSShapeGroup" fill="#FFD207" d="M451,314.2c-4.9-13.9-10.9-26.5-17.9-37.8
	c-10.5-5.1-22.3-12.6-35.3-23.7l-1.1-0.9c-14.4-12-12.4-17.4-11.7-19.2c0.5-1.4,1.4-2.6,2.7-3.4c-19.5-12.5-41.9-19.5-66.3-20.2
	c-60.7-1.8-114,24-142.4,69.1c-7.8,12.3-10.5,23.5-7.8,32.4c2,6.5,6.5,10.5,9.7,11.9c5.5,2.5,40.7-9.7,50.9-28.3
	c0.6-1,1.6-1.8,2.7-2.1c1.2-0.3,2.4-0.1,3.4,0.5c24,14.8,51,8,74.4,0.5c2.3-0.7,4.8,0.5,5.5,2.8c0.4,1.2,0.2,2.5-0.4,3.6
	c15.5-0.4,31,2,44.7,7.3c2.3,0.9,3.4,3.4,2.5,5.7c-0.9,2.3-3.4,3.4-5.7,2.5c-33.6-13.3-79.2-6.8-103.7,14.8
	c-8.4,7.4-12.1,14.5-10.3,20.1c1.8,5.7,9.3,10.2,18.6,11.2c7,0.7,17.6-1.6,28.8-4.1c17.3-3.8,37-8.2,54.5-4.6
	c28.3,5.9,47.2,22.9,75.6,48.6l3.5,3.1c1.8,1.6,1.9,4.4,0.3,6.2c-0.9,1-2.1,1.4-3.3,1.4c-1,0-2-0.4-2.8-1
	c2.8,11.9,4.3,24.2,4.3,36.6c0,14.9-2.1,29.6-6.1,43.7c4.5,2.6,8.3,5.6,11,9.1c1.5,1.9,1.1,4.7-0.8,6.1c-1.9,1.5-4.7,1.1-6.2-0.8
	c-7.6-9.8-26.9-15.5-46-13.6c-13.9,1.4-39.2,8.1-53.5,36.5c0.5,1.5,1,2.8,1.3,4c7.5,25.8,5.7,41.4,0.1,59.5
	c-0.6,3.1-1.6,6.7-3.3,10.5c19.3,0.1,53.4-4.2,89.7-29.1C479.4,526,473.4,377.3,451,314.2"/>
<path fill="#010202" d="M417.2,572.4c-0.2,0-0.3,0-0.5,0c-1.1-0.1-2.1-0.7-2.7-1.6c-18.1-24.6-46-45.1-78.4-57.7
	c-1.3-0.5-2.2-1.6-2.5-3c-0.3-1.3,0.2-2.7,1.2-3.7c14.1-13.2,30.5-17.4,41.8-18.5c2.6-0.3,5.2-0.4,7.8-0.4
	c18.1,0,34.4,6.1,41.7,15.5c0.1,0.1,0.2,0.2,0.3,0.2c0.1,0,0.2-0.1,0.2-0.1c0.1-0.1,0.1-0.2,0.1-0.3c0-0.1,0-0.2-0.1-0.3
	c-2.3-3-5.6-5.7-9.8-8.1c-1.6-0.9-2.4-2.8-1.9-4.6c3.9-13.8,5.9-28.2,5.9-42.6c0-12-1.4-24-4.1-35.7c-0.4-1.7,0.3-3.4,1.8-4.3
	c1.5-0.9,3.3-0.8,4.7,0.3c0.1,0.1,0.2,0.1,0.2,0.1c0.1,0,0.2,0,0.3-0.1c0.1-0.1,0.1-0.2,0.1-0.3c0-0.1,0-0.2-0.1-0.3l-3.5-3.1
	c-24.3-22-41.8-37.8-64.1-45.1c-1.4-0.5-2.5-1.7-2.7-3.1c-0.2-1.5,0.3-2.9,1.5-3.8c13.5-10.3,2.8-39.3,2.7-39.6
	c-0.5-1.3-0.3-2.8,0.6-3.9c0.9-1.1,2.3-1.7,3.6-1.5c0.5,0.1,49.2,6.2,99.7,13c1.5,0.2,2.7,1.2,3.2,2.6c11.7,33,15.5,81.9,9.8,127.6
	c-6.8,54.5-26.1,97.6-54.4,121.4C419,572,418.1,572.4,417.2,572.4z M344.6,508.1c29.7,12.6,55.3,31.7,73.1,54.4
	c25.1-23,42.2-63.1,48.5-113.5c5.3-42.8,1.9-90.1-8.6-121.6c-39-5.3-76.5-10.1-90.9-11.9c2.5,9.2,5.6,26.4-2.6,37.8
	c21,8.4,38.1,23.9,61,44.6l3.5,3.1c1.7,1.5,2.6,3.6,2.8,5.8c0.1,2.2-0.7,4.4-2.2,6c-1.1,1.2-2.4,2-3.9,2.4
	c2.1,10.5,3.1,21.2,3.1,31.9c0,14.2-1.8,28.2-5.4,41.9c3.9,2.5,7.1,5.4,9.5,8.6c1.4,1.8,2,4,1.7,6.2c-0.3,2.2-1.4,4.2-3.2,5.6
	c-1.5,1.1-3.3,1.7-5.1,1.8c-2.6,0-5-1.2-6.6-3.3c-5.7-7.4-20-12.4-35.4-12.4c-2.3,0-4.7,0.1-7,0.3
	C368.1,496.7,355.9,499.6,344.6,508.1z"/>
<path fill="#47423C" d="M266.7,487.7c0,0,27.9-3.8,31.4,74.7c2.3,53.5,0.5,58.8,0.5,58.8s24.2-17.1,22.4-69.6
	C319.8,515.7,295,479,266.7,487.7z"/>
<path id="Fill-14_1_" sketch:type="MSShapeGroup" fill="#010202" d="M530.4,229.5c-2.1-0.5-7.2-0.9-25.8-0.9c-6.4,0-13.8,0-21.6,0.1
	c-8.8,0-18.3,0.1-27.7,0.1c-16.2,0-38.8-0.1-54.1-1.1c-22.7-17.1-49.6-26.6-79.5-27.5c-63.7-2-119.6,25.2-149.8,72.7
	c-11.6,11.5-33.9,24.2-41.4,25.8c-3.5,0.8-6.1,3.1-7,6.2c-0.9,3.2,0.1,6.6,2.7,9.3c2.4,2.4,7.3,5.4,17.3,5.4
	c5.3,0,12.1-0.9,20.7-3.2c3.2,7.3,8.8,12,13.3,14c10.8,4.8,45.9-9.1,59.8-28.3c10.7,5.7,21.9,7.9,33.2,7.8c-7.8,3.6-15,8-20.9,13.2
	c-14.3,12.6-14.9,22.9-12.8,29.4c2.9,9.1,13.1,15.9,26,17.3c8.4,0.9,19.2-1.5,31.7-4.3c16.5-3.7,35.2-7.8,50.8-4.6
	c23.3,4.8,39.5,17.7,62.9,38.8c5.1,15.3,7.7,31.3,7.7,47.6c0,13.6-1.8,27-5.4,40c-10.1-3.7-22.4-5.3-34.7-4.1
	c-24.3,2.5-44.7,15.2-57.1,35.3c-9.1-17.8-26.8-41.3-46.2-41.3c-4.7,0-9.3,1.4-13.4,4.2c-21.6,14.4-15.5,40.1-10.1,62.7
	c1.5,6.1,2.8,11.8,3.6,17.1c1,6.5,0.7,14.4,0.5,22c-0.5,15.1-1,30.8,7.9,40c4.7,4.8,11.3,7.2,19.8,7.2c17.6,0,29-9.2,35.8-19.4
	c1.6,0.1,3.2,0.1,5,0.1c11.3,0,27.3-1.4,45.6-7c-27.4,42.6-79.1,74.4-124.2,75.2c-16.2,0.4-38.1-3.6-50.1-23.9
	c-14.6-24.6-38-33.5-53.5-29.5c-12.2,3.1-19.5,13.2-20,27.7c-0.4,12,8.7,26.5,24.8,39.7c21.2,17.3,54.7,31.9,88.8,31.9
	c8.5,0,17-0.9,25.4-2.9c74.4-17.6,140.9-77.6,158.8-142.9c40.3-28.7,53.1-85.9,56.7-129c4.6-55-3.9-109.5-14.4-139.2
	c-3.7-10.5-8.1-20.3-13-29.4c9.8,3.3,18,4.3,24.5,4.3h0c5.8,0,11.5-0.8,16.8-2.4c34.2-10.3,48.6-35.6,48.3-46.2
	C535.9,233.4,533.8,230.4,530.4,229.5L530.4,229.5z M161.8,307.9c-19.6,5.2-26.9,1.9-28.7,0.7c-1-0.7-1.2-1.1-1.3-1.1
	c0,0,0.1-0.1,0.5-0.2c6.6-1.5,19.5-8.3,31-16.3C161.4,297.7,161.2,303.4,161.8,307.9L161.8,307.9z M313.1,588.7
	c-0.1,0.2-0.1,0.5-0.2,0.8c-0.2,1.2-5.5,29.3-32.3,29.3c-5.3,0-9-1.2-11.4-3.7c-5.5-5.7-5-18.8-4.6-31.5c0.3-8.2,0.6-16.6-0.6-24.2
	c-0.9-5.8-2.4-12.1-3.8-18.1c-5.8-24.4-8.6-41,5.2-50.2c2.2-1.5,4.5-2.2,6.9-2.2c15.8,0,36.4,31.1,40.8,46.7
	C319.8,558.9,318.3,572.2,313.1,588.7L313.1,588.7z M256.2,713.9c-39.2,9.3-81.8-7-106.6-27.3c-13.8-11.3-21.9-23.5-21.6-32.6
	c0.3-10.4,5.1-17.3,13.4-19.5c12.4-3.2,31.4,4.5,43.8,25.5c11.1,18.6,31.5,28.6,57.9,28.1c51-1,109.8-39,136.9-88.5
	c8.2-3.3,16.8-7.4,25.6-12.7C384.8,645.5,324,697.9,256.2,713.9L256.2,713.9z M451,314.2c22.4,63.1,28.4,211.8-40.3,259.1
	c-36.3,25-70.4,29.2-89.7,29.1c1.6-3.8,2.7-7.4,3.3-10.5c5.7-18.1,7.5-33.7-0.1-59.5c-0.3-1.2-0.8-2.5-1.3-4
	c14.3-28.5,39.6-35.1,53.5-36.5c19.1-1.9,38.4,3.8,46,13.6c1.5,1.9,4.2,2.3,6.2,0.8c1.9-1.5,2.3-4.2,0.8-6.1
	c-2.7-3.5-6.5-6.6-11-9.1c4-14.2,6.1-28.9,6.1-43.7c0-12.4-1.4-24.7-4.3-36.6c0.8,0.7,1.8,1,2.8,1c1.2,0,2.4-0.5,3.3-1.4
	c1.6-1.8,1.5-4.6-0.3-6.2l-3.5-3.1c-28.5-25.7-47.3-42.7-75.6-48.6c-17.5-3.6-37.1,0.7-54.5,4.6c-11.2,2.5-21.9,4.8-28.8,4.1
	c-9.3-1-16.7-5.5-18.6-11.2c-1.8-5.6,1.9-12.7,10.3-20.1c24.5-21.6,70.1-28.1,103.7-14.8c2.3,0.9,4.8-0.2,5.7-2.5
	c0.9-2.3-0.2-4.8-2.5-5.7c-13.7-5.4-29.2-7.8-44.7-7.3c0.6-1,0.8-2.3,0.4-3.6c-0.7-2.3-3.2-3.6-5.5-2.8
	c-23.4,7.5-50.4,14.2-74.4-0.5c-1-0.6-2.3-0.8-3.4-0.5c-1.2,0.3-2.1,1.1-2.7,2.1c-10.2,18.6-45.4,30.8-50.9,28.3
	c-3.3-1.5-7.8-5.4-9.7-11.9c-2.7-8.9,0-20.1,7.8-32.4c28.5-45.1,81.7-70.9,142.4-69.1c24.4,0.7,46.8,7.7,66.3,20.2
	c-1.3,0.8-2.2,2-2.7,3.4c-0.6,1.8-2.6,7.3,11.7,19.2l1.1,0.9c13,11.1,24.8,18.6,35.3,23.7C440.1,287.7,446.1,300.3,451,314.2
	L451,314.2z M524.9,245.4c-5.2,10.3-18.3,23.5-39.7,30c-4.5,1.4-9.3,2-14.3,2h0c-13.9,0-36.8-5.5-67.3-31.4l-1.1-1
	c-4.5-3.7-7.3-7-8.4-8.9c0.8-0.1,2-0.1,3.3,0c15.5,1.3,40.5,1.4,58,1.4c9.4,0,18.9,0,27.8-0.1c7.8,0,15.1-0.1,21.5-0.1
	c12.1,0,19.7,0.1,22.6,0.4C527.2,239,526.8,241.6,524.9,245.4L524.9,245.4z"/>
<path id="Fill-15_1_" sketch:type="MSShapeGroup" fill="#010202" d="M228,270.8c-7,5.2-4.9,11.7,2.9,12.7c7.8,1,8.4,1.5,15.6-3.9
	c7.8-5.8,8.8-15.6,0-14.6C237.7,265.9,231.9,267.9,228,270.8"/>
<path id="Fill-16_1_" sketch:type="MSShapeGroup" fill="#010202" d="M207.5,274.7c0,4.8-3.9,8.8-8.8,8.8c-4.8,0-8.8-3.9-8.8-8.8
	s3.9-8.8,8.8-8.8C203.6,265.9,207.5,269.8,207.5,274.7"/>
<path id="Fill-17_1_" sketch:type="MSShapeGroup" fill="#010202" d="M308.9,250.3c0,4.8-3.9,8.8-8.8,8.8s-8.8-3.9-8.8-8.8
	s3.9-8.8,8.8-8.8S308.9,245.5,308.9,250.3"/>
<path fill="#1D1D1D" d="M450.6,296.3c0,0-76-86.4-221.6-75.6c0,0-46.4-24.1-48.4-55.5c0,0,54-57.8,191.6,14
	c71.8,37.4,98.5,83.2,99.3,107C471.8,294.9,463.2,299.2,450.6,296.3z"/>
<path d="M457.9,303.9c-2.8,0-5.7-0.4-8.8-1l-2.1-0.5l-1.4-1.6c-0.2-0.2-16.8-18.8-48.7-37.2c-29.3-16.9-77.9-37.1-143-37.1
	c-8,0-16.2,0.3-24.4,0.9l-1.9,0.1l-1.7-0.9c-2-1.1-49.8-26.2-52-61l-0.2-2.9l2-2.1c0.9-1,23.1-24.1,73.5-24.1
	c36.9,0,79.4,12.4,126.1,36.7c32.8,17.1,59.9,38,78.4,60.3c15.1,18.3,24.1,37.4,24.6,52.4c0.2,4.8-1.4,9-4.5,12.2
	C470,301.9,464.6,303.9,457.9,303.9z M454,290.1c4.6,0.7,8.5,0.2,10-1.4c0.2-0.2,0.8-0.8,0.7-2.4c-0.4-11.9-8.4-28.5-21.5-44.3
	c-17.3-20.9-42.9-40.6-74.2-56.9c-44.8-23.4-85.2-35.2-119.9-35.2c-23.1,0-39.2,5.4-48.7,10c-6.3,3-10.5,6.1-12.9,8
	c2.2,12.6,13,24,22,31.5c8.7,7.3,17.3,12.5,20.8,14.4c7.8-0.5,15.7-0.8,23.4-0.8c68.4,0,119.5,21.3,150.3,39.2
	C432.3,268.6,449,284.9,454,290.1z"/>
<path fill="#F18619" d="M250.9,325.7c-7.1,7.4-2.9-21.4,9.3-31.6l0,0c13.2-13.3,34.9-13.4,48.2-0.2l9.9,9
	C318.3,302.8,272.8,302.8,250.9,325.7z"/>
<path d="M248.9,332.4c-2.8,0-5.3-1.8-6.3-4.7c-2.7-7.3,3.2-28.6,13.8-37.7c7.4-7.4,17.4-11.5,27.9-11.5c10.5,0,20.3,4,27.8,11.3
	l20.4,18.5h-14.3c-0.4,0-43.4,0.3-63.4,21.2C253,331.4,251,332.4,248.9,332.4C248.9,332.4,248.9,332.4,248.9,332.4z M284.4,289.5
	c-7.7,0-14.9,3-20.3,8.4l-0.4,0.3c-4.6,3.9-7.9,11.3-9.5,17.2c15.8-11.6,37.1-15.8,50.8-17.3l-0.5-0.4
	C299.1,292.4,292,289.5,284.4,289.5z"/>
<g>
	<path fill="#FFFFFF" fill-opacity="0.8" d="M152.6,271.2c-8.1,2.8-16.1,7.6-22.9,14.5c-20.1,20.1-23.1,49.8-6.6,66.3
		c16.5,16.5,46.1,13.5,66.3-6.6c9-9,14.6-20,16.5-30.8L152.6,271.2z"/>
	<path d="M150.2,368C150.2,368,150.2,368,150.2,368c-12.1,0-23.1-4.4-31-12.3c-9.2-9.2-13.4-22-12-36.2c1.4-13.8,8-27.2,18.6-37.8
		c7.2-7.2,15.8-12.6,25-15.8c1.8-0.6,3.8-0.3,5.3,0.9l53.2,43.3c1.6,1.3,2.3,3.3,1.9,5.2c-2.2,12.3-8.6,24.3-18,33.7
		C181.3,361.2,165.6,368,150.2,368z M151.6,277.4c-6.6,2.7-12.7,6.8-18,12.1c-8.8,8.8-14.3,19.9-15.4,31.2
		c-1.1,10.8,2,20.5,8.8,27.3c5.9,5.9,13.9,9,23.2,9c12.5,0,25.3-5.7,35.3-15.7c7.1-7.1,12.1-15.8,14.3-24.8L151.6,277.4z"/>
</g>
<path d="M115.1,430.5c-1.2,0-2.4-0.4-3.5-1.2l-53.2-43.3c-2.4-1.9-2.7-5.4-0.8-7.7c1.9-2.4,5.4-2.7,7.7-0.8l53.2,43.3
	c2.4,1.9,2.7,5.4,0.8,7.7C118.3,429.8,116.7,430.5,115.1,430.5z"/>
<path fill="#901825" d="M117.3,323.8c-0.5,9.4,2.5,18.3,9.3,24.8c14.5,13.8,40.6,11.3,58.4-5.5c6-5.7,10.3-12.4,12.7-19.2H117.3z"/>
<g>
	<path fill="#FFFFFF" d="M357,355c23,7.5,40.6,23.4,65.5,45.9l3.5,3.1c1.8,1.6,1.9,4.4,0.3,6.2c-0.9,1-2.1,1.4-3.3,1.4
		c-1,0-2-0.4-2.8-1c2.8,11.9,4.3,24.2,4.3,36.6c0,14.9-2.1,29.6-6.1,43.7c4.5,2.6,8.3,5.6,11,9.1c1.5,1.9,1.1,4.7-0.8,6.1
		c-1.9,1.5-4.7,1.1-6.2-0.8c-7.6-9.8-26.9-15.5-46-13.6c-10,1-26,4.8-39.5,17.5c34,13.2,61.9,34.2,80.2,59
		c61.9-51.9,65.1-183.4,43.4-244.5c-51-7-99.6-13-99.6-13S373.3,342.6,357,355z"/>
	<path fill="#010202" d="M417.2,572.4c-0.2,0-0.3,0-0.5,0c-1.1-0.1-2.1-0.7-2.7-1.6c-18.1-24.6-46-45.1-78.4-57.7
		c-1.3-0.5-2.2-1.6-2.5-3c-0.3-1.3,0.2-2.7,1.2-3.7c14.1-13.2,30.5-17.4,41.8-18.5c2.6-0.3,5.2-0.4,7.8-0.4
		c18.1,0,34.4,6.1,41.7,15.5c0.1,0.1,0.2,0.2,0.3,0.2c0.1,0,0.2-0.1,0.2-0.1c0.1-0.1,0.1-0.2,0.1-0.3c0-0.1,0-0.2-0.1-0.3
		c-2.3-3-5.6-5.7-9.8-8.1c-1.6-0.9-2.4-2.8-1.9-4.6c3.9-13.8,5.9-28.2,5.9-42.6c0-12-1.4-24-4.1-35.7c-0.4-1.7,0.3-3.4,1.8-4.3
		c1.5-0.9,3.3-0.8,4.7,0.3c0.1,0.1,0.2,0.1,0.2,0.1c0.1,0,0.2,0,0.3-0.1c0.1-0.1,0.1-0.2,0.1-0.3c0-0.1,0-0.2-0.1-0.3l-3.5-3.1
		c-24.3-22-41.8-37.8-64.1-45.1c-1.4-0.5-2.5-1.7-2.7-3.1c-0.2-1.5,0.3-2.9,1.5-3.8c13.5-10.3,2.8-39.3,2.7-39.6
		c-0.5-1.3-0.3-2.8,0.6-3.9c0.9-1.1,2.3-1.7,3.6-1.5c0.5,0.1,49.2,6.2,99.7,13c1.5,0.2,2.7,1.2,3.2,2.6c11.7,33,15.5,81.9,9.8,127.6
		c-6.8,54.5-26.1,97.6-54.4,121.4C419,572,418.1,572.4,417.2,572.4z M344.6,508.1c29.7,12.6,55.3,31.7,73.1,54.4
		c25.1-23,42.2-63.1,48.5-113.5c5.3-42.8,1.9-90.1-8.6-121.6c-39-5.3-76.5-10.1-90.9-11.9c2.5,9.2,5.6,26.4-2.6,37.8
		c21,8.4,33.5,23.2,56.4,43.9l3.5,3.1c1.7,1.5,2.6,3.6,2.8,5.8c0.1,2.2,3.9,5.1,2.4,6.7c-1.1,1.2-2.4,2-3.9,2.4
		c2.1,10.5,3.1,21.2,3.1,31.9c0,14.2-1.8,28.2-5.4,41.9c3.9,2.5,7.1,5.4,9.5,8.6c1.4,1.8,2,4,1.7,6.2c-0.3,2.2-1.4,4.2-3.2,5.6
		c-1.5,1.1-3.3,1.7-5.1,1.8c-2.6,0-5-1.2-6.6-3.3c-5.7-7.4-20-12.4-35.4-12.4c-2.3,0-4.7,0.1-7,0.3
		C368.1,496.7,355.9,499.6,344.6,508.1z"/>
</g>
<g>
	<defs>
		<path id="SVGID_3_" d="M417.8,562.5c-17.8-22.7-43.5-41.8-73.1-54.4c11.2-8.5,23.5-11.4,32.3-12.3c2.3-0.2,4.7-0.3,7-0.3
			c15.4,0,29.6,5,35.4,12.4c1.6,2.1,4,3.3,6.6,3.3c1.8,0,3.7-0.6,5.1-1.8c1.8-1.4,2.9-3.3,3.2-5.6c0.3-2.2-0.3-4.4-1.7-6.2
			c-2.4-3.1-5.6-6-9.5-8.6c3.6-13.6,5.4-27.7,5.4-41.9c0-10.7-1.1-21.4-3.1-31.9c1.5-0.4,2.9-1.3,3.9-2.4c1.5-1.7-0.1-0.6-0.2-2.8
			c-0.1-2.2-1.1-4.3-2.8-5.8l-3.5-3.1c-22.9-20.7-37.7-39.4-58.7-47.8c8.2-11.3,5.1-28.6,2.6-37.8c14.4,1.8,51.9,6.6,90.9,11.9
			c10.5,31.5,13.9,78.9,8.6,121.6C460,499.5,442.8,539.5,417.8,562.5z"/>
	</defs>
	<clipPath id="SVGID_1_">
		<use xlink:href="#SVGID_3_"  overflow="visible"/>
	</clipPath>
	<g clip-path="url(#SVGID_1_)">
		<g>
			<path fill="#FFFFFF" d="M364,353.5c0,0,72.7-6.5,107.5,10.5"/>
			<path fill="#1F2145" d="M469.7,367.6c-33.4-16.3-104.7-10.1-105.4-10.1l-0.7-8c0.2,0,18.6-1.7,41.1-1.2
				c30.5,0.7,53.5,4.7,68.5,12L469.7,367.6z"/>
		</g>
		<path fill="#1F2145" d="M433.6,563.4c-23.1-36.5-83.6-63.4-84.2-63.6l3.2-7.3c0.6,0.3,16,7,34.5,18.6c25.1,15.6,43,31.8,53.3,48.1
			L433.6,563.4z"/>
		<path fill="#1F2145" d="M452.3,553.8c-23.1-36.5-83.6-63.4-84.2-63.6l3.2-7.3c0.6,0.3,16,7,34.5,18.6c25.1,15.6,43,31.8,53.3,48.1
			L452.3,553.8z"/>
		<g>
			<path fill="#FFFFFF" d="M390.2,374.1c0,0,52.8-3.7,86.2,12.9"/>
			<path fill="#1F2145" d="M474.5,390.6c-32-16-83.6-12.5-84.1-12.5l-0.6-8c0.6,0,13.7-0.9,31.1,0.2c23.6,1.6,42.8,6,57.1,13.1
				L474.5,390.6z"/>
		</g>
		<g>
			<path fill="#FFFFFF" d="M412.7,396.6c0,0,46.3-0.9,63.6,11.8"/>
			<path fill="#1F2145" d="M474,411.6c-16-11.7-60.7-11-61.2-11l-0.2-8c1.9,0,47.8-0.8,66.1,12.5L474,411.6z"/>
		</g>
		<g>
			<path fill="#FFFFFF" d="M437,417.9c0,0,21.2,3.6,39.4,14"/>
			<path fill="#1F2145" d="M474.3,435.4c-17.3-9.9-37.8-13.5-38-13.6l1.3-7.9c0.9,0.2,22.1,3.8,40.7,14.5L474.3,435.4z"/>
		</g>
	</g>
</g>
<path fill="#F18619" d="M382.1,366l125.6,125.2c13.3,13.2,20.8,47.5,1.3,72.4c-19.2,6.5-40.1-9.6-54.5-22.9L282.3,363.5
	C282.3,363.5,342.3,340.5,382.1,366z"/>
<path d="M499.7,570.6c-18.8,0-37-14.8-49-25.9l-0.2-0.2L272.6,361.4l7.8-3c1.1-0.4,26.1-9.9,55.1-9.9c19.5,0,36.2,4.3,49.5,12.9
	l0.5,0.3l0.4,0.4l125.6,125.2c15.1,14.9,23,52.5,1.8,79.7l-1,1.3l-1.6,0.5C507.2,570,503.5,570.6,499.7,570.6z M458.3,536.7
	c24.8,22.8,37.3,22.8,41.5,22.8c2,0,4-0.2,5.9-0.7c16-22,9.7-52.2-1.9-63.7L378.6,370.3c-11.5-7.2-25.9-10.8-43.1-10.8
	c-17.5,0-33.8,3.8-43.1,6.6L458.3,536.7z"/>
<path fill="#8C1817" d="M359,314.8c0,0,82.7-4.9,116.9,13.7C475.9,328.6,397.4,354.9,359,314.8z"/>
<path fill="#8C1817" d="M467.5,324.1c0,0,15-21.3,42.1-14.6C509.6,309.5,510,330.7,467.5,324.1z"/>
<path fill="#8C1817" d="M469.6,328.6c0,0,31.1-8.6,48.2,13.4C517.8,342,494.6,354.2,469.6,328.6z"/>
<path fill="#CC6715" d="M370.3,417.2c-0.6,0-1.3-0.3-1.7-0.9c-18.8-27.9-8.5-50.2-8.1-51.2c0.5-1,1.7-1.4,2.7-0.9
	c1,0.5,1.4,1.7,0.9,2.7c-0.1,0.3-9.6,21.4,7.8,47.2c0.6,0.9,0.4,2.2-0.5,2.8C371.1,417.1,370.7,417.2,370.3,417.2z"/>
<path fill="#CC6715" d="M373.8,425.8c-0.4,0-0.8-0.1-1.1-0.3c-0.9-0.6-1.2-1.9-0.5-2.8c9.9-14.7,4.1-43.8,4-44.1
	c-0.2-1.1,0.5-2.1,1.6-2.4c1.1-0.2,2.1,0.5,2.4,1.6c0.3,1.3,6.2,31-4.6,47.1C375,425.5,374.4,425.8,373.8,425.8z"/>
<path fill="#CC6715" d="M416.3,463.3c-0.6,0-1.3-0.3-1.7-0.9c-18.8-27.9-8.5-50.2-8.1-51.2c0.5-1,1.7-1.4,2.7-0.9
	c1,0.5,1.4,1.7,1,2.7l0,0c-0.1,0.2-9.7,21.3,7.8,47.2c0.6,0.9,0.4,2.2-0.5,2.8C417.1,463.2,416.7,463.3,416.3,463.3z"/>
<path fill="#CC6715" d="M419.8,471.9c-0.4,0-0.8-0.1-1.1-0.3c-0.9-0.6-1.2-1.9-0.5-2.8c9.8-14.7,4.1-43.8,4-44.1
	c-0.2-1.1,0.5-2.1,1.6-2.4c1.1-0.2,2.1,0.5,2.4,1.6c0.3,1.3,6.2,31-4.6,47.1C421.1,471.5,420.4,471.9,419.8,471.9z"/>
<path fill="#CC6715" d="M462.4,509.3c-0.6,0-1.3-0.3-1.7-0.9c-18.8-27.9-8.5-50.2-8.1-51.2c0.5-1,1.7-1.4,2.7-0.9
	c1,0.5,1.4,1.7,1,2.7l0,0c-0.1,0.2-9.7,21.3,7.8,47.2c0.6,0.9,0.4,2.2-0.5,2.8C463.2,509.2,462.8,509.3,462.4,509.3z"/>
<path fill="#CC6715" d="M465.9,517.9c-0.4,0-0.8-0.1-1.1-0.3c-0.9-0.6-1.2-1.9-0.5-2.8c9.8-14.7,4.1-43.8,4-44.1
	c-0.2-1.1,0.5-2.1,1.6-2.4c1.1-0.2,2.1,0.5,2.4,1.6c0.3,1.3,6.2,31-4.6,47.1C467.1,517.6,466.5,517.9,465.9,517.9z"/>
<path d="M298.2,565.8c-2.4,0-4.4-1.9-4.5-4.3c-0.8-19.5-4.3-54.1-18.4-66.7c-4.4-4-7.9-3.7-8.1-3.7l0.1,0l-1.2-8.9
	c0.7-0.1,7.1-0.8,14.4,5.4c13.1,11,20.5,35.7,22.1,73.6c0.1,2.5-1.8,4.6-4.3,4.7C298.3,565.8,298.2,565.8,298.2,565.8z"/>
<path opacity="0.5" d="M259.5,587.6C259.5,587.6,259.4,587.6,259.5,587.6c-1.2-0.1-2.1-1-2-2.1c0.2-3.5,2.6-6,6.7-7.2
	c2.8-0.8,5.5-0.7,5.6-0.7c1.1,0,2,1,1.9,2.1c0,1.1-1,2-2.1,1.9c-0.1,0-8-0.1-8.2,4.1C261.4,586.8,260.5,587.6,259.5,587.6z"/>
<path opacity="0.5" d="M131.3,596.7c-0.4,0-0.8-0.1-1.2-0.4c-1.2-0.9-30-21.4-29.7-36.1c0.1-3.8,1.9-6.8,5.5-9.1
	c0.9-0.6,2.2-0.3,2.8,0.6c0.6,0.9,0.3,2.2-0.6,2.8c-2.4,1.6-3.6,3.5-3.6,5.9c-0.2,10.5,20.1,27.2,28,32.7c0.9,0.6,1.1,1.9,0.5,2.8
	C132.5,596.4,131.9,596.7,131.3,596.7z"/>
<path opacity="0.5" d="M131.3,539.6c-0.7,0-1.3-0.3-1.7-0.9c-0.6-0.9-0.3-2.2,0.6-2.8c0.1-0.1,2.4-1.5,5.2-2.3
	c4.2-1.2,7.5-0.2,9.5,2.7c0.6,0.9,0.4,2.2-0.5,2.8c-0.9,0.6-2.2,0.4-2.8-0.5c-2.4-3.5-9.1,0.7-9.1,0.8
	C132.1,539.5,131.7,539.6,131.3,539.6z"/>
<path fill="#581112" d="M449.9,334.2c-0.2,0-0.5,0-0.7-0.1c-16.4-6.6-46.9-8.8-47.2-8.8c-1.1-0.1-1.9-1-1.9-2.1
	c0.1-1.1,1-1.9,2.1-1.9c1.3,0.1,31.5,2.2,48.5,9.1c1,0.4,1.5,1.6,1.1,2.6C451.4,333.8,450.7,334.2,449.9,334.2z"/>
<path fill="#581112" d="M473.9,325.7c-0.8,0-1.6-0.5-1.9-1.4c-0.4-1,0.2-2.2,1.3-2.5l20.4-6.8c1-0.4,2.2,0.2,2.5,1.3
	c0.4,1-0.2,2.2-1.3,2.5l-20.4,6.8C474.3,325.7,474.1,325.7,473.9,325.7z"/>
<path fill="#581112" d="M493.7,337.9c-0.3,0-0.5-0.1-0.8-0.2l-16.8-7.3c-1-0.4-1.5-1.6-1-2.6c0.4-1,1.6-1.5,2.6-1l16.8,7.3
	c1,0.4,1.5,1.6,1,2.6C495.2,337.5,494.5,337.9,493.7,337.9z"/>
<path d="M422.3,339.4c-28.6-0.9-50.3-9.5-64.8-25.6c-1-1.2-1.3-2.8-0.7-4.3c0.6-1.4,2-2.4,3.6-2.4c0.4,0,10.1-0.3,24.4,0.2
	c30.8,1,72.1,4.9,94.1,17.8c1.4,0.8,2.1,2.3,1.9,3.9c-0.2,1.6-1.3,2.9-2.8,3.4C477,332.8,451.5,340.3,422.3,339.4z M370.5,315.1
	c12.7,10.1,30.1,15.6,52.1,16.3c16.7,0.5,32.4-1.9,42.4-4c-23.3-8.9-59.3-11.4-80.4-12.1C379.1,315.2,374.3,315.1,370.5,315.1z"/>
<path d="M479.8,329.3c-4-0.1-8.4-0.6-13-1.3c-1.4-0.2-2.5-1.1-3.1-2.4c-0.5-1.3-0.4-2.7,0.4-3.9c0.5-0.7,13.2-18.3,36.5-17.6
	c3.2,0.1,6.5,0.6,9.9,1.4c1.8,0.4,3,2,3,3.8c0,0.7,0,6.6-5.4,11.9C502.3,327,492.8,329.7,479.8,329.3z M475.8,321.1
	c1.5,0.1,2.9,0.2,4.3,0.3c10.4,0.3,18.1-1.6,22.2-5.5c1.1-1.1,1.9-2.2,2.4-3.2c-1.4-0.2-2.9-0.3-4.3-0.4
	C489,311.8,480.7,316.9,475.8,321.1z"/>
<path d="M502.4,348.9c-8.8-0.3-22-3.5-35.7-17.5c-1-1-1.4-2.5-1-3.8c0.4-1.4,1.4-2.4,2.8-2.8c0.3-0.1,7.6-2.1,17.2-1.8
	c15,0.5,27.2,6.2,35.2,16.6c0.7,0.9,1,2.1,0.7,3.3c-0.3,1.2-1,2.1-2.1,2.7C519.4,345.7,512.6,349.2,502.4,348.9z M478.4,331.2
	c7.7,6.2,15.9,9.4,24.3,9.7c3.1,0.1,5.8-0.2,8-0.7c-6.4-5.8-14.8-8.9-25.2-9.2C482.9,330.9,480.5,331,478.4,331.2z"/>
<path d="M499.2,304.2c0.5,0,1,0,1.4,0c3.2,0.1,6.5,0.6,9.9,1.4c1.8,0.4,3,2,3,3.8c0,0.7,0,6.6-5.4,11.9c-1.8,1.8-4,3.3-6.5,4.5
	c7.8,2.7,14.4,7.4,19.4,13.8c0.7,0.9,1,2.1,0.7,3.3c-0.3,1.2-1,2.1-2.1,2.7c-0.3,0.1-6.5,3.3-15.9,3.3c-0.4,0-0.9,0-1.3,0
	c-8.8-0.3-22-3.5-35.7-17.5c-1-1-1.3-2.4-1-3.7c-0.9-0.4-1.6-1.1-1.9-2c-0.5-1.3-0.4-2.7,0.4-3.9
	C464.7,321.1,476.9,304.2,499.2,304.2 M499.2,300.2c-24.4,0-37.7,18.5-38.3,19.3c-1.6,2.3-1.9,5.2-0.8,7.7c0.4,0.9,0.9,1.7,1.6,2.4
	c0.2,1.7,1,3.3,2.2,4.6c14.6,14.9,28.9,18.4,38.4,18.7c0.5,0,1,0,1.5,0c10.2,0,17-3.4,17.8-3.8c2.1-1.1,3.6-3.1,4.1-5.4
	c0.5-2.3,0-4.7-1.5-6.6c-3.9-5-8.7-9-14.2-12c0.3-0.3,0.7-0.6,1-0.9c6.5-6.4,6.7-13.5,6.6-14.9c-0.1-3.6-2.6-6.7-6.1-7.6
	c-3.6-0.9-7.2-1.4-10.7-1.5C500.3,300.2,499.7,300.2,499.2,300.2L499.2,300.2z"/>
<path opacity="0.5" d="M293.7,630.6c-0.2,0-0.4,0-0.6-0.1c-1.1-0.3-1.7-1.4-1.3-2.5c0-0.1,2.4-8.2,3.8-17.5
	c1.7-12.1,0.9-20.8-2.3-25.3c-1.6-2.3-3.9-3.4-6.9-3.5c-1.1,0-2-1-1.9-2.1c0-1.1,0.9-2,2.1-1.9c4.3,0.1,7.6,1.9,10,5.2
	c9.1,12.6-0.5,44.9-0.9,46.3C295.3,630,294.5,630.6,293.7,630.6z"/>
</svg>
