<?xml version="1.0" encoding="UTF-8" standalone="no"?>
<svg
   xmlns:sketch="http://www.bohemiancoding.com/sketch/ns"
   xmlns:dc="http://purl.org/dc/elements/1.1/"
   xmlns:cc="http://creativecommons.org/ns#"
   xmlns:rdf="http://www.w3.org/1999/02/22-rdf-syntax-ns#"
   xmlns:svg="http://www.w3.org/2000/svg"
   xmlns="http://www.w3.org/2000/svg"
   xmlns:sodipodi="http://sodipodi.sourceforge.net/DTD/sodipodi-0.dtd"
   xmlns:inkscape="http://www.inkscape.org/namespaces/inkscape"
   width="60px"
   height="66px"
   viewBox="0 0 60 66"
   version="1.1"
   id="svg4261"
   inkscape:version="0.91 r13725"
   sodipodi:docname="wapuu-tiger.svg">
  <metadata
     id="metadata4292">
    <rdf:RDF>
      <cc:Work
         rdf:about="">
        <dc:format>image/svg+xml</dc:format>
        <dc:type
           rdf:resource="http://purl.org/dc/dcmitype/StillImage" />
        <dc:title>Artboard</dc:title>
      </cc:Work>
    </rdf:RDF>
  </metadata>
  <sodipodi:namedview
     pagecolor="#ffffff"
     bordercolor="#666666"
     borderopacity="1"
     objecttolerance="10"
     gridtolerance="10"
     guidetolerance="10"
     inkscape:pageopacity="0"
     inkscape:pageshadow="2"
     inkscape:window-width="1383"
     inkscape:window-height="855"
     id="namedview4290"
     showgrid="false"
     inkscape:zoom="9.4003316"
     inkscape:cx="33.901997"
     inkscape:cy="48.07059"
     inkscape:window-x="57"
     inkscape:window-y="1"
     inkscape:window-maximized="1"
     inkscape:current-layer="Artboard" />
  <!-- Generator: Sketch 3.2.2 (9983) - http://www.bohemiancoding.com/sketch -->
  <title
     id="title4263">Artboard</title>
  <desc
     id="desc4265">Created with Sketch.</desc>
  <defs
     id="defs4267">
    <inkscape:path-effect
       effect="bend_path"
       id="path-effect4419"
       is_visible="true"
       bendpath="m 11.307758,33.630491 c 5.566888,5.437647 9.243136,7.034221 15.660328,0.851034"
       prop_scale="1"
       scale_y_rel="false"
       vertical="false"
       bendpath-nodetypes="cc" />
    <inkscape:path-effect
       effect="bend_path"
       id="path-effect4386"
       is_visible="true"
       bendpath="m 10.33454,25.125375 c 5.484236,0.728855 11.091364,0.966144 16.99935,0"
       prop_scale="1"
       scale_y_rel="true"
       vertical="false"
       bendpath-nodetypes="cc" />
    <inkscape:path-effect
       effect="bend_path"
       id="path-effect4384"
       is_visible="true"
       bendpath="m 10.237683,25.458165 c 5.855286,-0.86679 11.564201,-0.686681 17.281963,0"
       prop_scale="1"
       scale_y_rel="false"
       vertical="false"
       bendpath-nodetypes="cc" />
  </defs>
  <g
     id="Page-1"
     stroke="none"
     stroke-width="1"
     fill="none"
     fill-rule="evenodd"
     sketch:type="MSPage">
    <g
       id="Artboard"
       sketch:type="MSArtboardGroup">
      <g
         id="レイヤー-1"
         sketch:type="MSLayerGroup">
        <path
           d="m 18.042717,39.84376 c -0.806272,0.05216 -1.462366,0.0057 -2.263668,-0.160387 -0.241775,-2.40829 -0.397633,-5.416613 0.816213,-10.660419 2.205089,5.707935 4.633846,9.893613 4.651242,9.916677 -0.412899,0.196936 -1.668994,0.795903 -3.203787,0.904129 M 14.344729,39.235567 C 8.0354983,36.369889 6.8773923,29.576857 8.9944333,24.347599 c 0.08059,5.174968 1.5305327,9.209839 5.3502957,14.887968 m 8.539882,-1.27742 c 1.000828,-4.310935 2.664497,-8.432032 3.643314,-12.749355 0.188875,-0.83458 0.352544,-2.13329 0.05822,-3.581387 2.915859,4.552581 2.581066,11.623807 -3.701538,16.330742 M 9.8816523,22.612792 C 12.7297,18.231599 18.176209,14.668309 24.154197,19.044179 c -0.04012,-0.0018 -3.83219,0.172097 -1.076095,4.247065 1.489704,2.202129 1.584497,3.968871 0.406154,7.561613 -0.425326,1.771355 -0.553846,2.306097 -0.933728,4.129968 -1.818816,-4.344646 -3.303195,-8.043484 -4.475503,-12.773484 1.030651,-0.151162 2.198343,-0.322549 1.598343,-0.985387 -0.07562,-0.08339 -5.504733,0.454903 -5.556568,0.463774 -0.416804,0.07097 -0.489941,0.561355 -0.490651,0.565968 -0.04331,0.387129 0.02698,0.383225 1.203196,0.312258 0.30994,1.669871 0.451242,2.432419 1.218106,4.869806 -0.553491,2.300419 -1.126509,4.679258 -1.20497,8.362839 -2.473846,-4.921258 -3.464024,-8.33942 -3.6529,-12.612387 0.351125,-0.213258 0.820119,-0.129516 1.130415,-0.447097 0.211597,-0.216806 0.314556,-0.705774 0.05077,-0.762548 -0.935503,-0.201549 -1.649468,0.460935 -2.4891127,0.636225 M 18.47763,16.137341 C 9.1183403,16.90947 3.0409433,31.005438 11.318458,38.382179 19.707807,45.857921 30.072541,36.198502 29.714671,27.235986 29.436682,20.287534 23.680232,15.887534 18.477629,16.137341"
           id="Fill-5"
           sketch:type="MSShapeGroup"
           inkscape:connector-curvature="0"
           style="fill:#ffffff" />
        <g
           id="g4849">
          <g
             id="g4421">
            <path
               d="M58.2578698,3.65519355 C57.8886391,3.56329032 57.2865089,3.51893548 54.8655621,3.51893548 C54.083787,3.51893548 53.1951479,3.52354839 52.2504142,3.52816129 C51.1839053,3.53348387 50.0453254,3.53916129 48.9088757,3.53916129 C47.0818935,3.53916129 44.5235503,3.52603226 42.7029586,3.42170968 C39.7871006,1.30296774 36.4281657,0.172096774 32.7113609,0.0599677419 C24.6568047,-0.186645161 17.5253254,3.2936129 13.6636686,9.27619355 C12.3585799,10.5167097 9.90319527,11.8959677 9.23928994,12.0432258 C8.12627219,12.2905484 7.4052071,13.2649355 7.52556213,14.3596129 C7.61218935,15.1487742 8.17349112,16.0355161 9.4260355,16.4478387 C9.28153846,16.5897742 9.14378698,16.7388065 9.0156213,16.8931613 C8.16674556,17.9154516 7.81171598,19.0775484 8.01585799,20.1658387 C8.05704142,20.3840645 8.11420118,20.5927097 8.18698225,20.7910645 C6.35076923,23.9150645 5.38473373,27.4613226 5.38473373,31.1072903 C5.38473373,32.0280968 5.44686391,32.9442903 5.57005917,33.8516129 C5.28106509,33.8015806 4.99065089,33.7760323 4.70023669,33.7760323 C3.3035503,33.7760323 2.0087574,34.3813871 1.14887574,35.4366774 C0.199171598,36.6026774 -0.133846154,38.1625484 0.211242604,39.828871 C0.913846154,43.2229032 6.05822485,48.9446774 10.1602367,49.929 C10.5642604,50.0255161 10.9501775,50.0748387 11.3069822,50.0748387 C12.4043787,50.0748387 13.3107692,49.6124839 13.86,48.7729355 C14.0343195,48.5060968 14.160355,48.2229355 14.2476923,47.9333871 C17.0471006,49.863 20.2831953,51.0580968 23.7113609,51.405129 C24.4540828,53.8272581 26.448284,54.2310645 27.6926627,54.2310645 C29.5686391,54.2310645 31.1893491,53.468871 32.3449704,52.0637097 C32.4493491,52.065129 32.5540828,52.0661935 32.6591716,52.0661935 C33.4523077,52.0661935 34.4378698,52.0119032 35.5654438,51.8380323 C31.956213,55.8860323 26.7422485,58.2155484 22.9029586,58.2162581 L22.9018935,58.2162581 C21.2836686,58.2162581 19.1098225,57.8035806 17.9417751,55.8399032 C16.3963314,53.2417742 13.9189349,51.6276129 11.4770414,51.6276129 C8.91195266,51.6276129 7.12970414,53.4376452 7.04272189,56.1312258 C6.99550296,57.5892581 7.75988166,59.1750323 9.25349112,60.7164516 C11.7660355,63.3099677 16.6381065,65.9269032 21.8598817,65.9269032 C23.0137278,65.9269032 24.144497,65.7977419 25.2205917,65.5429677 C34.4740828,63.3525484 42.7650888,55.9477742 45.1768047,47.8035161 C54.0092308,41.0594516 53.3091124,22.519129 50.3822485,14.2524516 C50.1791716,13.6786774 49.9597633,13.1166129 49.7243787,12.5680323 C50.0804734,12.6091935 50.4326627,12.6297742 50.7791716,12.6297742 C51.588284,12.6297742 52.3764497,12.5162258 53.1223669,12.2926774 C57.7132544,10.9162581 59.7873373,7.51016129 59.7440237,5.64122581 C59.7213018,4.65477419 59.1376331,3.87519355 58.2578698,3.65519355"
               id="Fill-1"
               fill="#000000"
               sketch:type="MSShapeGroup" />
            <path
               d="M10.2940828,41.7574194 C9.83360947,40.911129 9.33301775,40.0392903 8.84201183,39.2558065 C9.26307692,40.1290645 9.74804734,40.9654194 10.2940828,41.7574194"
               id="Fill-2"
               fill="#005683"
               sketch:type="MSShapeGroup" />
            <path
               d="M43.152426,25.335129 C40.3029586,22.7820645 38.3385799,21.2129677 35.5139645,20.6289032 C33.6149112,20.2364516 31.3484024,20.7389032 29.3488757,21.1820968 C27.8336095,21.5184839 26.5249704,21.8094516 25.5067456,21.7015806 C23.9428402,21.5369355 22.7030769,20.7144194 22.3498225,19.6051935 C22.1009467,18.8238387 22.1691124,17.5716129 23.9091124,16.0411935 C24.6330178,15.4042581 25.4992899,14.872 26.4489941,14.4394516 C25.0792899,14.4415806 23.7259172,14.1782903 22.4250888,13.488129 C20.7450888,15.820129 16.4811834,17.5095161 15.1689941,16.9272258 C14.8775148,16.7977097 14.5519527,16.5755806 14.2512426,16.2658065 C14.2228402,16.2878065 14.196568,16.3119355 14.1681657,16.3342903 C14.5143195,16.6582581 14.7667456,17.1120968 14.8757396,17.6425806 C15.0969231,18.7180968 14.7202367,19.8688387 13.8678107,20.7204516 C13.1257988,21.4624194 12.1910059,21.887871 11.303787,21.887871 C10.6831953,21.887871 10.1534911,21.672129 9.75656805,21.2952903 C8.00130178,24.1520968 6.98236686,27.5085161 6.98236686,31.1072903 C6.98236686,32.7828387 7.20639053,34.4051613 7.61786982,35.9511935 C9.37952663,37.4024839 12.2811834,43.1679032 12.9142012,44.6142258 C12.9486391,44.6933548 12.9876923,44.7934194 13.0278107,44.9090968 C16.0473373,47.6995484 19.9814201,49.5166774 24.3326627,49.8523548 C24.2779882,49.1330968 24.3024852,48.3666452 24.3276923,47.6097742 C24.3582249,46.6825806 24.3901775,45.7234516 24.2691124,44.9357097 C24.1693491,44.2874194 24.0028402,43.5919355 23.8263905,42.8556452 C23.1692308,40.1102581 22.4236686,36.9983226 25.0505325,35.2482581 C25.5539645,34.9125806 26.1014201,34.7422581 26.6769231,34.7422581 C29.0371598,34.7422581 31.1826036,37.5866452 32.2895858,39.7493871 C33.7970414,37.3105806 36.2744379,35.7641935 39.2204734,35.4657742 C40.7123077,35.3142581 42.2009467,35.5076452 43.427929,35.9618387 C43.8607101,34.3884839 44.0829586,32.7576452 44.0829586,31.1072903 C44.0829586,29.1326129 43.7698225,27.1909355 43.152426,25.335129"
               id="Fill-3"
               fill="#005683"
               sketch:type="MSShapeGroup"
               style="fill:#ff6600;fill-opacity:1" />
            <path
               fill="#00709C"
               d="M30.9294675,20.8457097 C30.3923077,20.9510968 29.8618935,21.0681935 29.3488757,21.1820968 C27.8336095,21.5184839 26.5249704,21.8094516 25.5067456,21.7015806 C23.9428402,21.5369355 22.7030769,20.7144194 22.3498225,19.6051935 C22.1009467,18.8238387 22.1691124,17.5716129 23.9091124,16.0411935 C23.9343195,16.0191935 23.9627219,15.9993226 23.987929,15.9773226 C22.8678107,15.6121935 21.6880473,15.3790645 20.4667456,15.2963871 C18.5364497,16.5997097 16.104142,17.3420323 15.1689941,16.9272258 C14.8778698,16.7977097 14.5526627,16.5759355 14.2523077,16.2665161 C14.2246154,16.2895806 14.1969231,16.3122903 14.1685207,16.3346452 C14.5146746,16.6586129 14.7667456,17.1124516 14.8757396,17.6425806 C15.0969231,18.7180968 14.7202367,19.8688387 13.8678107,20.7204516 C13.1257988,21.4624194 12.1910059,21.887871 11.303787,21.887871 C10.6828402,21.887871 10.1527811,21.6717742 9.75585799,21.2945806 C8.00094675,24.1513871 6.98236686,27.5085161 6.98236686,31.1072903 C6.98236686,32.7814194 7.20248521,34.4040968 7.61467456,35.9483548 C8.79621302,36.9188387 10.4911243,39.833129 11.6712426,42.0863548 C13.9253254,43.5202581 16.5979882,44.3548387 19.4680473,44.3548387 C21.0539645,44.3548387 22.5791716,44.0979355 24.0085207,43.6291935 C23.9502959,43.3761935 23.8895858,43.1196452 23.8263905,42.8556452 C23.1692308,40.1102581 22.4236686,36.9983226 25.0505325,35.2482581 C25.5539645,34.9125806 26.1014201,34.7422581 26.6769231,34.7422581 C28.4921893,34.7422581 30.1778698,36.4245484 31.3640237,38.1852581 C33.0376331,35.816 34.0242604,32.9272581 34.0242604,29.8064516 C34.0242604,26.4244839 32.8665089,23.3153871 30.9294675,20.8457097"
               id="Fill-4"
               sketch:type="MSShapeGroup"
               style="fill:#860000;fill-opacity:1" />
            <path
               d="M31.8127811,42.5270645 C31.8071006,42.5047097 31.8021302,42.4830645 31.7964497,42.4603548 C31.7456805,42.2580968 31.6895858,42.0498065 31.6263905,41.8333548 C31.0991716,39.9356774 28.5919527,36.1616129 26.6769231,36.1616129 C26.3826036,36.1616129 26.1081657,36.2492581 25.8379882,36.4291613 C24.1611834,37.5469032 24.4995266,39.5687742 25.2078107,42.5256452 C25.3828402,43.2569677 25.5639053,44.0134839 25.6725444,44.7196129 C25.8142012,45.6382903 25.7797633,46.6648387 25.7467456,47.6569677 C25.6956213,49.1976774 25.6427219,50.7912581 26.3073373,51.477871 C26.5981065,51.7784194 27.0511243,51.9246129 27.6926627,51.9246129 C27.8783432,51.9246129 28.0530178,51.9107742 28.2220118,51.8894839 C28.2734911,51.8830968 28.3221302,51.8735161 28.3718343,51.8653548 C28.4897041,51.8461935 28.6036686,51.8227742 28.7133728,51.7943871 C28.7620118,51.7816129 28.8106509,51.7684839 28.8578698,51.7539355 C28.9721893,51.7191613 29.0815385,51.6790645 29.1866272,51.6347097 C29.2175148,51.6219355 29.2501775,51.6105806 29.280355,51.5970968 C29.4152663,51.5357097 29.543787,51.4679355 29.664497,51.3934194 C29.676213,51.3859677 29.6868639,51.3774516 29.6985799,51.37 C29.8054438,51.301871 29.9062722,51.2294839 30.0017751,51.1531935 C30.0298225,51.1308387 30.0564497,51.1077742 30.083787,51.0847097 C30.1622485,51.0183548 30.2371598,50.9495161 30.3081657,50.8789032 C30.3319527,50.855129 30.3564497,50.8313548 30.3795266,50.8072258 C30.4590533,50.7234839 30.5343195,50.6376129 30.6046154,50.5503226 C30.6127811,50.5400323 30.6220118,50.5304516 30.6298225,50.5201613 C30.708284,50.4208065 30.780355,50.3196774 30.8474556,50.2181935 C30.863432,50.1944194 30.8772781,50.1702903 30.8921893,50.146871 C30.9397633,50.0716452 30.9852071,49.9964194 31.0271006,49.9219032 C31.0473373,49.8860645 31.0665089,49.8509355 31.0853254,49.8154516 C31.1179882,49.7537097 31.1488757,49.6926774 31.1779882,49.632 C31.1960947,49.5940323 31.2152663,49.5557097 31.2323077,49.5180968 C31.2564497,49.4652258 31.2773964,49.4144839 31.2986982,49.3633871 C31.343432,49.2565806 31.3835503,49.1533226 31.4169231,49.0582258 C31.4190533,49.0529032 31.4211834,49.0472258 31.4229586,49.0422581 C31.4463905,48.974129 31.4676923,48.9095484 31.4861538,48.8495806 C31.5667456,48.5873548 31.6033136,48.4035484 31.6086391,48.3726774 C31.6139645,48.3421613 31.6214201,48.3102258 31.6310059,48.281129 C32.1631953,46.5974194 32.3769231,45.1812581 31.943432,43.0965806 C31.9050888,42.9120645 31.8610651,42.721871 31.8127811,42.5270645"
               id="Fill-6"
               fill="#FFD200"
               sketch:type="MSShapeGroup"
               style="fill:#ffffff;fill-opacity:1" />
            <path
               d="M48.8911243,5.66854839 C46.7708876,5.66854839 43.7343195,5.65080645 41.8508876,5.49822581 C41.6868639,5.48509677 41.5420118,5.48509677 41.448284,5.49290323 C41.5871006,5.71964516 41.927574,6.11670968 42.4714793,6.56983871 L42.6085207,6.68587097 C46.308284,9.8386129 49.0931361,10.5007419 50.7777515,10.5010968 L50.7784615,10.5010968 C51.3802367,10.5010968 51.9624852,10.4177097 52.5102959,10.2534194 C55.1094675,9.47419355 56.7060355,7.86429032 57.3330178,6.61774194 C57.5669822,6.15183871 57.6145562,5.84596774 57.6145562,5.70225806 C57.2609467,5.66641935 56.3414201,5.64832258 54.8737278,5.64832258 C54.0926627,5.64832258 53.2043787,5.65258065 52.259645,5.65754839 C51.1849704,5.66287097 50.0368047,5.66854839 48.8911243,5.66854839"
               id="Fill-7"
               fill="#FF8800"
               sketch:type="MSShapeGroup" />
            <path
               d="M2.80118343,36.7808065 C2.26331361,37.4411613 2.0843787,38.370129 2.29704142,39.3973871 C2.83952663,42.0182258 7.50035503,47.1012903 10.6572781,47.8585161 C10.8983432,47.9163548 11.1170414,47.9458065 11.3069822,47.9458065 C11.7990533,47.9458065 11.9822485,47.753129 12.0773964,47.608 C12.4622485,47.0193226 12.2439053,45.7390645 11.9385799,45.0414516 C11.064497,43.0447742 8.29455621,37.8101935 6.89467456,36.7336129 C6.18994083,36.1914194 5.4312426,35.9050645 4.70023669,35.9050645 C3.93585799,35.9050645 3.26094675,36.2162581 2.80118343,36.7808065"
               id="Fill-8"
               fill="#FFD200"
               sketch:type="MSShapeGroup"
               style="fill:#ffffff;fill-opacity:1" />
            <path
               d="M10.1098225,19.7730323 C10.2727811,20.6409677 10.8489941,20.8233548 11.303787,20.8233548 C11.9016568,20.8233548 12.5786982,20.5036452 13.1147929,19.9674839 C13.7130178,19.3695806 13.9814201,18.5807742 13.8326627,17.8565484 C13.740355,17.4069677 13.4946746,17.0624194 13.175503,16.9350323 C13.1233136,16.9140968 13.0515976,16.9030968 12.9678107,16.9030968 C12.3944379,16.9030968 11.3471006,17.4190323 10.6547929,18.2529032 C10.4020118,18.5577097 9.99443787,19.1602258 10.1098225,19.7730323"
               id="Fill-9"
               fill="#FFD200"
               sketch:type="MSShapeGroup"
               style="fill:#ff9e00;fill-opacity:1" />
            <path
               d="M42.851716,48.0653871 C41.7869822,48.7012581 40.7439053,49.2072581 39.7430769,49.6032581 C36.4583432,55.6099677 29.3229586,60.2253548 23.1319527,60.3428065 C19.9342012,60.3953226 17.4568047,59.1902903 16.1108876,56.9281935 C14.6009467,54.3900323 12.2946746,53.4529032 10.7943195,53.8389677 C9.78887574,54.098 9.21266272,54.936129 9.17183432,56.1997097 C9.13597633,57.3082258 10.1151479,58.7871935 11.7908876,60.1561613 C14.8036686,62.6180323 19.9736095,64.5973226 24.7295858,63.4710645 C32.9513609,61.525129 40.3359763,55.1735161 42.851716,48.0653871"
               id="Fill-10"
               fill="#FF8800"
               sketch:type="MSShapeGroup"
               style="fill:#ff9e00;fill-opacity:1" />
            <path
               d="M9.70153846,14.1215161 C9.65183432,14.1325161 9.63656805,14.1495484 9.63621302,14.1495484 C9.64118343,14.1477742 9.67278107,14.2073871 9.79065089,14.286871 C10.0065089,14.4327097 10.8862722,14.8425484 13.2685207,14.2063226 C13.1953846,13.6541935 13.2230769,12.9654516 13.4627219,12.1471935 C12.0706509,13.1148387 10.5007101,13.9440968 9.70153846,14.1215161"
               id="Fill-11"
               fill="#FF8800"
               sketch:type="MSShapeGroup" />
            <path
               d="M11.303787,21.887871 L11.303787,21.887871 C10.1435503,21.887871 9.28473373,21.1526452 9.06248521,19.9689032 C8.91798817,19.1981935 9.19242604,18.3472903 9.83502959,17.5730323 C10.6697041,16.568129 11.9872189,15.8385806 12.9678107,15.8385806 C13.1886391,15.8385806 13.391716,15.8747742 13.5710059,15.9464516 C14.2231953,16.2072581 14.7110059,16.8413548 14.8757396,17.6425806 C15.0969231,18.7180968 14.7202367,19.8688387 13.8678107,20.7204516 C13.1257988,21.4624194 12.1910059,21.887871 11.303787,21.887871 L11.303787,21.887871 Z M12.9678107,16.9030968 C12.3944379,16.9030968 11.3471006,17.4190323 10.6547929,18.2529032 C10.4020118,18.5577097 9.99443787,19.1602258 10.1098225,19.7730323 C10.2727811,20.6409677 10.8489941,20.8233548 11.303787,20.8233548 C11.9016568,20.8233548 12.5786982,20.5036452 13.1147929,19.9674839 C13.7130178,19.3695806 13.9814201,18.5807742 13.8326627,17.8565484 C13.740355,17.4069677 13.4946746,17.0624194 13.175503,16.9350323 C13.1233136,16.9140968 13.0515976,16.9030968 12.9678107,16.9030968 L12.9678107,16.9030968 Z"
               id="Fill-12"
               fill="#000000"
               sketch:type="MSShapeGroup" />
            <path
               d="M48.3742012,14.9628387 C47.7788166,13.2812581 47.0474556,11.7508387 46.200355,10.375129 C44.9272189,9.75522581 43.4953846,8.84045161 41.9172781,7.49596774 L41.7898225,7.3873871 C40.0448521,5.93467742 40.2855621,5.27077419 40.3643787,5.05254839 C40.427574,4.8776129 40.5397633,4.741 40.6945562,4.63880645 C38.3289941,3.12470968 35.6133728,2.27770968 32.6471006,2.18829032 C25.2756213,1.96509677 18.8151479,5.10009677 15.3617751,10.5741935 C14.4177515,12.0712581 14.0914793,13.4317097 14.4191716,14.5093548 C14.6577515,15.2942581 15.2052071,15.7782581 15.6014201,15.9542581 C16.272426,16.2530323 20.5416568,14.7719355 21.7821302,12.5176452 C21.8527811,12.3902581 21.972071,12.2965806 22.1130178,12.2596774 C22.2546746,12.2227742 22.404142,12.2447742 22.5280473,12.3210645 C25.4407101,14.1122903 28.7147929,13.2933226 31.5543195,12.3852903 C31.835503,12.2962258 32.1340828,12.4502258 32.2239053,12.7301935 C32.2718343,12.8806452 32.2476923,13.0357097 32.1734911,13.1620323 C34.0501775,13.1127097 35.9332544,13.3987097 37.5926627,14.0533871 C37.8660355,14.1612581 38.0002367,14.4703226 37.8923077,14.7439032 C37.7843787,15.0174839 37.4747929,15.1519677 37.2014201,15.0433871 C33.1185799,13.433129 27.5893491,14.2219355 24.6127811,16.8402903 C23.592071,17.7380323 23.1486391,18.6052581 23.364497,19.2819355 C23.5863905,19.9774194 24.491716,20.5245806 25.6182249,20.6427419 C26.4649704,20.7307419 27.7533728,20.4458065 29.1184615,20.1427742 C31.2220118,19.6761613 33.6071006,19.1470968 35.7298225,19.5863871 C39.1700592,20.2978387 41.4525444,22.3605161 44.9069822,25.4827419 L45.3280473,25.863129 C45.5460355,26.0600645 45.5630769,26.3968065 45.3660355,26.6146774 C45.2609467,26.7314194 45.1160947,26.7903226 44.9708876,26.7903226 C44.8501775,26.7903226 44.7308876,26.7463226 44.6321893,26.6643548 C44.9730178,28.1135161 45.1480473,29.6013548 45.1480473,31.1072903 C45.1480473,32.9127097 44.8973964,34.6964839 44.4074556,36.4142581 C44.9559763,36.7243871 45.4168047,37.0969677 45.7469822,37.5241935 C45.9269822,37.7566129 45.8840237,38.0912258 45.6514793,38.2704194 C45.4192899,38.4503226 45.083787,38.4077419 44.904497,38.1749677 C43.9846154,36.9851935 41.6417751,36.2918387 39.3273373,36.5249677 C37.6420118,36.6956452 34.5710059,37.5025484 32.8306509,40.9583226 C32.8970414,41.1357419 32.952071,41.3000323 32.9921893,41.4444516 C33.9046154,44.569871 33.6887574,46.466129 32.9989349,48.664 C32.9311243,49.0348065 32.7997633,49.4769355 32.6030769,49.9375161 C34.9466272,49.9442581 39.083432,49.4297419 43.4854438,46.4004839 C51.8201183,40.664871 51.0869822,22.6238065 48.3742012,14.9628387"
               id="Fill-13"
               fill="#FFD200"
               sketch:type="MSShapeGroup"
               style="fill:#ff9e00;fill-opacity:1" />
            <path
               style="fill:#ffffff;fill-rule:evenodd;stroke:#000000;stroke-width:0.5;stroke-linecap:butt;stroke-linejoin:miter;stroke-opacity:1;fill-opacity:1;stroke-miterlimit:4;stroke-dasharray:none"
               d="m 14.402542,14.891949 c 0.553938,-2.459367 3.856507,-4.060449 6.432204,-4.404661 0.562515,-0.07517 1.60805,0.559322 1.60805,0.559322 0,0 0.863386,-1.2511828 1.538136,-1.4682198 2.269589,-0.7300256 5.771355,-1.2306064 7.620762,0.5942798 1.115887,1.101091 0.983715,2.197354 0.139831,2.551907 -1.736231,0.729467 -3.641318,1.257433 -5.523305,1.188559 -1.407618,-0.05151 -4.055085,-1.188559 -4.055085,-1.188559 0,0 -1.257824,1.772289 -2.167372,2.307203 -1.481148,0.871077 -3.460128,2.023085 -4.998941,1.258475 -0.453547,-0.22536 -0.705563,-0.904233 -0.59428,-1.398306 z"
               id="path4223"
               inkscape:connector-curvature="0"
               sodipodi:nodetypes="sscsssacaas" />
            <path
               d="M57.9994083,4.68812903 C57.7420118,4.62354839 57.1288757,4.58380645 54.8737278,4.58380645 C54.0912426,4.58380645 53.2011834,4.58806452 52.2543195,4.59303226 C51.1810651,4.59835484 50.0353846,4.60403226 48.8911243,4.60403226 C46.9306509,4.60403226 44.1823669,4.58877419 42.324497,4.46564516 C39.5708876,2.39445161 36.3021302,1.23341935 32.6790533,1.12377419 C24.9539645,0.887096774 18.1654438,4.18780645 14.5001183,9.94719355 C13.0902959,11.3378065 10.3807101,12.8799355 9.47076923,13.0825484 C9.04934911,13.175871 8.73159763,13.4586774 8.61940828,13.8383548 C8.50650888,14.2226452 8.62792899,14.643129 8.9435503,14.9628387 C9.23289941,15.2545161 9.83502959,15.6192903 11.039645,15.6192903 C11.687574,15.6192903 12.5126627,15.5114194 13.5543195,15.2325161 C13.9455621,16.1189032 14.6197633,16.6830968 15.1689941,16.9272258 C16.4811834,17.5095161 20.7450888,15.820129 22.4250888,13.488129 C23.7259172,14.1782903 25.0792899,14.4415806 26.4489941,14.4394516 C25.4992899,14.872 24.6330178,15.4042581 23.9091124,16.0411935 C22.1691124,17.5716129 22.1009467,18.8238387 22.3498225,19.6051935 C22.7030769,20.7144194 23.9428402,21.5369355 25.5067456,21.7015806 C26.5249704,21.8094516 27.8336095,21.5184839 29.3488757,21.1820968 C31.3484024,20.7389032 33.6149112,20.2364516 35.5139645,20.6289032 C38.3385799,21.2129677 40.3029586,22.7820645 43.152426,25.335129 C43.7698225,27.1909355 44.0829586,29.1326129 44.0829586,31.1072903 C44.0829586,32.7576452 43.8607101,34.3884839 43.427929,35.9618387 C42.2009467,35.5076452 40.7123077,35.3142581 39.2204734,35.4657742 C36.2744379,35.7641935 33.7970414,37.3105806 32.2895858,39.7493871 C31.1826036,37.5866452 29.0371598,34.7422581 26.6769231,34.7422581 C26.1014201,34.7422581 25.5539645,34.9125806 25.0505325,35.2482581 C22.4236686,36.9983226 23.1692308,40.1102581 23.8263905,42.8556452 C24.0028402,43.5919355 24.1693491,44.2874194 24.2691124,44.9357097 C24.3901775,45.7234516 24.3582249,46.6825806 24.3276923,47.6097742 C24.2666272,49.4464194 24.203432,51.3451613 25.2866272,52.4646774 C25.8511243,53.0480323 26.6605917,53.3439677 27.6926627,53.3439677 C29.8271006,53.3439677 31.2071006,52.2326129 32.0343195,50.9903226 C32.2228402,50.9974194 32.4223669,51.0023871 32.640355,51.0023871 C34.0139645,51.0023871 35.9502959,50.8302903 38.1791716,50.1507742 C34.8486391,55.3236129 28.583432,59.1746774 23.111716,59.2786452 C21.1494675,59.3212258 18.4899408,58.8439677 17.0261538,56.383871 C15.2485207,53.3957742 12.4111243,52.3223871 10.5287574,52.8081613 C9.04615385,53.1896129 8.16390533,54.4138065 8.10745562,56.1652903 C8.06023669,57.6243871 9.15727811,59.3794194 11.1166864,60.9800968 C13.6927811,63.0846452 17.7550296,64.8570645 21.8968047,64.8570645 C22.9249704,64.8570645 23.9584615,64.7477742 24.9752663,64.5071935 C34.008284,62.3685806 42.0770414,55.0926129 44.2491124,47.1612581 C49.1343195,43.6728387 50.6893491,36.7389355 51.1295858,31.5054194 C51.6905325,24.8337419 50.6542012,18.2110323 49.3782249,14.6076452 C48.9273373,13.334129 48.3976331,12.1475484 47.8057988,11.0386774 C48.9923077,11.4364516 49.991716,11.5656129 50.7777515,11.5656129 L50.7784615,11.5656129 C51.4839053,11.5656129 52.1691124,11.4669677 52.8163314,11.2732258 C56.9708876,10.0273871 58.7091124,6.95732258 58.6792899,5.66606452 C58.667574,5.15722581 58.4130178,4.7913871 57.9994083,4.68812903 L57.9994083,4.68812903 Z M13.2685207,14.2063226 C10.8862722,14.8425484 10.0065089,14.4327097 9.79065089,14.286871 C9.67278107,14.2073871 9.64118343,14.1477742 9.63621302,14.1495484 C9.63656805,14.1495484 9.65183432,14.1325161 9.70153846,14.1215161 C10.5007101,13.9440968 12.0706509,13.1148387 13.4627219,12.1471935 C13.2230769,12.9654516 13.1953846,13.6541935 13.2685207,14.2063226 L13.2685207,14.2063226 Z M31.6310059,48.281129 C31.6214201,48.3102258 31.6139645,48.3421613 31.6086391,48.3726774 C31.5827219,48.5174516 30.9390533,51.9246129 27.6926627,51.9246129 C27.0511243,51.9246129 26.5981065,51.7784194 26.3073373,51.477871 C25.6427219,50.7912581 25.6956213,49.1976774 25.7467456,47.6569677 C25.7797633,46.6648387 25.8142012,45.6382903 25.6725444,44.7196129 C25.5639053,44.0134839 25.3828402,43.2569677 25.2078107,42.5256452 C24.4995266,39.5687742 24.1611834,37.5469032 25.8379882,36.4291613 C26.1081657,36.2492581 26.3826036,36.1616129 26.6769231,36.1616129 C28.5919527,36.1616129 31.0991716,39.9356774 31.6263905,41.8333548 C32.4504142,44.6571613 32.2640237,46.2777097 31.6310059,48.281129 L31.6310059,48.281129 Z M24.7295858,63.4710645 C19.9736095,64.5973226 14.8036686,62.6180323 11.7908876,60.1561613 C10.1151479,58.7871935 9.13597633,57.3082258 9.17183432,56.1997097 C9.21266272,54.936129 9.78887574,54.098 10.7943195,53.8389677 C12.2946746,53.4529032 14.6009467,54.3900323 16.1108876,56.9281935 C17.4568047,59.1902903 19.9342012,60.3953226 23.1319527,60.3428065 C29.3229586,60.2253548 36.4583432,55.6099677 39.7430769,49.6032581 C40.7439053,49.2072581 41.7869822,48.7012581 42.851716,48.0653871 C40.3359763,55.1735161 32.9513609,61.525129 24.7295858,63.4710645 L24.7295858,63.4710645 Z M48.3742012,14.9628387 C51.0869822,22.6238065 51.8201183,40.664871 43.4854438,46.4004839 C39.083432,49.4297419 34.9466272,49.9442581 32.6030769,49.9375161 C32.7997633,49.4769355 32.9311243,49.0348065 32.9989349,48.664 C33.6887574,46.466129 33.9046154,44.569871 32.9921893,41.4444516 C32.952071,41.3000323 32.8970414,41.1357419 32.8306509,40.9583226 C34.5710059,37.5025484 37.6420118,36.6956452 39.3273373,36.5249677 C41.6417751,36.2918387 43.9846154,36.9851935 44.904497,38.1749677 C45.083787,38.4077419 45.4192899,38.4503226 45.6514793,38.2704194 C45.8840237,38.0912258 45.9269822,37.7566129 45.7469822,37.5241935 C45.4168047,37.0969677 44.9559763,36.7243871 44.4074556,36.4142581 C44.8973964,34.6964839 45.1480473,32.9127097 45.1480473,31.1072903 C45.1480473,29.6013548 44.9730178,28.1135161 44.6321893,26.6643548 C44.7308876,26.7463226 44.8501775,26.7903226 44.9708876,26.7903226 C45.1160947,26.7903226 45.2609467,26.7314194 45.3660355,26.6146774 C45.5630769,26.3968065 45.5460355,26.0600645 45.3280473,25.863129 L44.9069822,25.4827419 C41.4525444,22.3605161 39.1700592,20.2978387 35.7298225,19.5863871 C33.6071006,19.1470968 31.2220118,19.6761613 29.1184615,20.1427742 C27.7533728,20.4458065 26.4649704,20.7307419 25.6182249,20.6427419 C24.491716,20.5245806 23.5863905,19.9774194 23.364497,19.2819355 C23.1486391,18.6052581 23.592071,17.7380323 24.6127811,16.8402903 C27.5893491,14.2219355 33.1185799,13.433129 37.2014201,15.0433871 C37.4747929,15.1519677 37.7843787,15.0174839 37.8923077,14.7439032 C38.0002367,14.4703226 37.8660355,14.1612581 37.5926627,14.0533871 C35.9332544,13.3987097 34.0501775,13.1127097 32.1734911,13.1620323 C32.2476923,13.0357097 32.2718343,12.8806452 32.2239053,12.7301935 C32.1340828,12.4502258 31.835503,12.2962258 31.5543195,12.3852903 C28.7147929,13.2933226 25.4407101,14.1122903 22.5280473,12.3210645 C22.404142,12.2447742 22.2546746,12.2227742 22.1130178,12.2596774 C21.972071,12.2965806 21.8527811,12.3902581 21.7821302,12.5176452 C20.5416568,14.7719355 16.272426,16.2530323 15.6014201,15.9542581 C15.2052071,15.7782581 14.6577515,15.2942581 14.4191716,14.5093548 C14.0914793,13.4317097 14.4177515,12.0712581 15.3617751,10.5741935 C18.8151479,5.10009677 25.2756213,1.96509677 32.6471006,2.18829032 C35.6133728,2.27770968 38.3289941,3.12470968 40.6945562,4.63880645 C40.5397633,4.741 40.427574,4.8776129 40.3643787,5.05254839 C40.2855621,5.27077419 40.0448521,5.93467742 41.7898225,7.3873871 L41.9172781,7.49596774 C43.4953846,8.84045161 44.9272189,9.75522581 46.200355,10.375129 C47.0474556,11.7508387 47.7788166,13.2812581 48.3742012,14.9628387 L48.3742012,14.9628387 Z M57.3330178,6.61774194 C56.7060355,7.86429032 55.1094675,9.47419355 52.5102959,10.2534194 C51.9624852,10.4177097 51.3802367,10.5010968 50.7784615,10.5010968 L50.7777515,10.5010968 C49.0931361,10.5007419 46.308284,9.8386129 42.6085207,6.68587097 L42.4714793,6.56983871 C41.927574,6.11670968 41.5871006,5.71964516 41.448284,5.49290323 C41.5420118,5.48509677 41.6868639,5.48509677 41.8508876,5.49822581 C43.7343195,5.65080645 46.7708876,5.66854839 48.8911243,5.66854839 C50.0368047,5.66854839 51.1849704,5.66287097 52.259645,5.65754839 C53.2043787,5.65258065 54.0926627,5.64832258 54.8737278,5.64832258 C56.3414201,5.64832258 57.2609467,5.66641935 57.6145562,5.70225806 C57.6145562,5.84596774 57.5669822,6.15183871 57.3330178,6.61774194 L57.3330178,6.61774194 Z"
               id="Fill-14"
               fill="#000000"
               sketch:type="MSShapeGroup" />
            <path
               d="M21.3021302,9.69880645 C20.4553846,10.3336129 20.7106509,11.1185161 21.6571598,11.2366774 C22.6040237,11.3548387 22.6778698,11.4176452 23.5508876,10.7633226 C24.4973964,10.0536452 24.6159763,8.8706129 23.5508876,8.98912903 C22.4857988,9.10764516 21.7757396,9.34396774 21.3021302,9.69880645"
               id="Fill-15"
               fill="#000000"
               sketch:type="MSShapeGroup"
               style="fill:#ff8800;fill-opacity:1;stroke:#000000;stroke-opacity:1;stroke-width:0.5;stroke-miterlimit:4;stroke-dasharray:none" />
            <path
               d="M18.8169231,10.1721613 C18.8169231,10.760129 18.3401183,11.2366774 17.7518343,11.2366774 C17.1639053,11.2366774 16.6867456,10.760129 16.6867456,10.1721613 C16.6867456,9.58419355 17.1639053,9.10764516 17.7518343,9.10764516 C18.3401183,9.10764516 18.8169231,9.58419355 18.8169231,10.1721613"
               id="Fill-16"
               fill="#000000"
               sketch:type="MSShapeGroup" />
            <path
               d="M31.1247337,7.21529032 C31.1247337,7.80325806 30.647929,8.27980645 30.059645,8.27980645 C29.4713609,8.27980645 28.9945562,7.80325806 28.9945562,7.21529032 C28.9945562,6.62732258 29.4713609,6.15077419 30.059645,6.15077419 C30.647929,6.15077419 31.1247337,6.62732258 31.1247337,7.21529032"
               id="Fill-17"
               fill="#000000"
               sketch:type="MSShapeGroup" />
            <path
               d="M11.3069822,49.0103226 L11.3069822,49.0103226 C11.0336095,49.0103226 10.7314793,48.9712903 10.4087574,48.8939355 C6.80698225,48.0295484 1.87739645,42.6242903 1.2539645,39.613129 C0.975266272,38.2665161 1.2312426,37.0217419 1.97467456,36.1090968 C2.63183432,35.3029032 3.6252071,34.8405484 4.70023669,34.8405484 C5.66804734,34.8405484 6.65147929,35.2035484 7.5443787,35.8901613 C9.29786982,37.2381935 12.2723077,43.1480323 12.9142012,44.6142258 C13.1811834,45.2241935 13.7112426,47.0551613 12.9685207,48.1906452 C12.7239053,48.5646452 12.2368047,49.0103226 11.3069822,49.0103226 L11.3069822,49.0103226 Z M4.70023669,35.9050645 C3.93585799,35.9050645 3.26094675,36.2162581 2.80118343,36.7808065 C2.26331361,37.4411613 2.0843787,38.370129 2.29704142,39.3973871 C2.83952663,42.0182258 7.50035503,47.1012903 10.6572781,47.8585161 C10.8983432,47.9163548 11.1170414,47.9458065 11.3069822,47.9458065 C11.7990533,47.9458065 11.9822485,47.753129 12.0773964,47.608 C12.4622485,47.0193226 12.2439053,45.7390645 11.9385799,45.0414516 C11.064497,43.0447742 8.29455621,37.8101935 6.89467456,36.7336129 C6.18994083,36.1914194 5.4312426,35.9050645 4.70023669,35.9050645 L4.70023669,35.9050645 Z"
               id="Fill-18"
               fill="#000000"
               sketch:type="MSShapeGroup" />
            <path
               style="fill:none;fill-rule:evenodd;stroke:none;stroke-width:0.78892279px;stroke-linecap:butt;stroke-linejoin:miter;stroke-opacity:1"
               d="m 8.9004593,29.44368 c 1.3666917,-5.070603 4.5508327,-8.3091 8.6112027,-8.372047 5.637707,0.321487 7.654882,4.075398 8.393848,8.138036"
               id="path4180"
               inkscape:connector-curvature="0"
               sodipodi:nodetypes="ccc" />
            <g
               id="text4182"
               style="font-style:normal;font-weight:normal;font-size:23.76625061px;line-height:125%;font-family:sans-serif;letter-spacing:0px;word-spacing:0px;fill:#000000;fill-opacity:1;stroke:none;stroke-width:1px;stroke-linecap:butt;stroke-linejoin:miter;stroke-opacity:1"
               transform="matrix(0.67798949,0.35754638,-0.35754638,0.67798949,15.907752,4.0725146)" />
            <g
               style="font-style:normal;font-weight:normal;font-size:40px;line-height:125%;font-family:sans-serif;letter-spacing:0px;word-spacing:0px;fill:#000000;fill-opacity:1;stroke:none;stroke-width:1px;stroke-linecap:butt;stroke-linejoin:miter;stroke-opacity:1"
               id="text4189">
              <path
                 inkscape:original-d="m 24.060534,25.80723 1.139929,0.0379 q 1.139929,0.03789 1.533552,0.13292 0.397451,0.09516 0.616755,0.440899 0.22348,0.34232 0.151221,1.077392 -0.06598,0.671154 -0.268453,0.895998 -0.202478,0.224843 -0.734902,0.253459 0.467337,0.125978 0.61367,0.316103 0.146335,0.190123 0.169229,0.347642 0.02707,0.154095 -0.04135,0.850106 l -0.149055,1.516309 -1.495679,-0.04972 0.187804,-1.910479 q 0.04538,-0.461639 -0.02413,-0.574393 -0.06569,-0.112627 -0.398482,-0.12369 l -0.254826,2.592285 -1.610436,-0.05354 0.565156,-5.749192 z m 1.513743,1.037182 -0.125668,1.278388 q 0.271594,0.009 0.385333,-0.05488 0.117915,-0.06733 0.155266,-0.447299 l 0.03107,-0.316046 q 0.02688,-0.273432 -0.07185,-0.362219 -0.0949,-0.08866 -0.374149,-0.09794 z m -4.772869,-1.14552 2.685336,0.08927 -0.113101,1.150549 -1.074899,-0.03573 -0.107167,1.09018 1.006045,0.03344 -0.107516,1.093732 -1.006045,-0.03344 -0.124272,1.264183 1.182007,0.03929 -0.113101,1.150548 -2.792443,-0.09283 0.565156,-5.749192 z m -0.827743,2.095841 -1.610436,-0.05354 0.05132,-0.522008 q 0.04852,-0.493599 0.01483,-0.619414 -0.03369,-0.125814 -0.205823,-0.131536 -0.149186,-0.0049 -0.213212,0.09979 -0.06403,0.104752 -0.107311,0.545085 l -0.271234,2.759186 q -0.03805,0.387067 0.0032,0.513135 0.04169,0.122517 0.202346,0.127858 0.175965,0.0058 0.250781,-0.130608 0.07865,-0.13633 0.118094,-0.537601 l 0.06702,-0.681807 -0.325147,-0.01081 0.08587,-0.873565 1.885856,0.06269 -0.303349,3.085885 -1.013695,-0.0337 -0.108693,-0.416883 q -0.190667,0.260862 -0.456398,0.38741 -0.26156,0.123124 -0.602007,0.111807 -0.405479,-0.01348 -0.743425,-0.206409 -0.333773,-0.196354 -0.490856,-0.47234 -0.157083,-0.275986 -0.174012,-0.57225 -0.01659,-0.299817 0.04171,-0.892846 l 0.167907,-1.708068 q 0.08099,-0.823849 0.213267,-1.193534 0.132282,-0.369683 0.614037,-0.663623 0.485925,-0.297363 1.205075,-0.273457 0.707674,0.02353 1.147826,0.30892 0.440154,0.285394 0.545035,0.662963 0.105231,0.374016 0.03577,1.080681 l -0.02444,0.248574 z m -4.125975,-2.260511 -0.565156,5.749192 -1.610437,-0.05354 0.565157,-5.749192 1.610436,0.05354 z m -1.977662,-0.06574 -0.113101,1.150549 -0.956317,-0.03179 -0.452056,4.598643 -1.610436,-0.05354 0.452056,-4.598643 -0.952491,-0.03166 0.113101,-1.150549 3.519244,0.116985 z m 11.153302,-3.084061 0.819834,1.242373 -0.208802,0.137787 -0.67133,-1.017331 -0.517366,0.341406 0.620808,0.94077 -0.197202,0.130133 -0.620808,-0.94077 -0.577686,0.381211 0.682812,1.034731 -0.203002,0.13396 -0.831316,-1.259774 1.704058,-1.124496 z m 0.415658,0.629886 0,0 z m -2.386354,-2.449788 0.215798,0.177399 -0.535719,0.65169 0.820249,0.674281 0.535719,-0.65169 0.215797,0.177399 -1.296493,1.577155 -0.215797,-0.177399 0.606325,-0.73758 -0.820249,-0.674282 -0.606324,0.73758 -0.215797,-0.1774 1.296492,-1.577154 z m -0.78498,-0.498195 -0.08693,0.227152 -0.642512,-0.245903 -0.642822,1.679617 -0.262199,-0.100345 0.642823,-1.679616 -0.642511,-0.245903 0.08693,-0.227151 1.54722,0.592152 z m -4.970273,-0.685498 1.481854,-0.140454 0.02361,0.249052 -1.213433,0.115011 0.05849,0.617093 1.122113,-0.106355 0.02229,0.235215 -1.122113,0.106356 0.06531,0.689041 1.234187,-0.116978 0.02295,0.242133 -1.502609,0.142419 -0.192647,-2.032533 z m 0.751304,-0.07121 0,0 z m -2.967593,0.791425 1.175406,1.409027 -0.08822,-1.830587 0.288967,-0.112047 0.04355,2.172866 -0.273416,0.106019 -1.431368,-1.634738 0.285079,-0.11054 z m -0.607111,1.70837 -0.755925,-0.58157 0.222587,0.934099 0.533338,-0.352529 z m -1.043574,-0.754624 0.260872,-0.172432 1.743769,1.294728 -0.252756,0.167068 -0.509956,-0.395961 -0.673629,0.44526 0.152853,0.632002 -0.236524,0.156338 -0.484629,-2.127003 z m 0.119421,-0.07894 0,0 z m -1.211626,2.779077 q 0.125625,0.120392 0.252422,0.150354 0.239029,0.0545 0.493083,-0.182519 0.113817,-0.106187 0.17697,-0.225931 0.122105,-0.231768 -0.02959,-0.394363 -0.113771,-0.121948 -0.238341,-0.102668 -0.124637,0.02124 -0.324345,0.137237 l -0.244894,0.142945 q -0.239879,0.140165 -0.372442,0.163102 -0.229496,0.03924 -0.402998,-0.146726 -0.187724,-0.201212 -0.168911,-0.460161 0.01881,-0.25895 0.273885,-0.496923 0.234747,-0.219011 0.504545,-0.257839 0.269867,-0.04079 0.502151,0.208182 l -0.190033,0.177295 q -0.127118,-0.105694 -0.236652,-0.123242 -0.201506,-0.03059 -0.423044,0.176098 -0.178854,0.166866 -0.186944,0.315069 -0.0081,0.148204 0.08483,0.247794 0.102394,0.109752 0.241261,0.07523 0.0903,-0.02342 0.347179,-0.171845 l 0.253901,-0.147547 q 0.183652,-0.106715 0.321904,-0.123554 0.239925,-0.02806 0.425754,0.171113 0.231337,0.247957 0.15,0.523422 -0.08032,0.274517 -0.319132,0.49732 -0.278444,0.25978 -0.568692,0.264465 -0.2893,0.0057 -0.511899,-0.239003 l 0.190033,-0.177295 z m -0.572763,-1.432923 0,0 z"
                 inkscape:path-effect="#path-effect4384;#path-effect4386"
                 inkscape:connector-curvature="0"
                 d="m 24.085804,25.874942 c 0.383444,0.008 0.767395,0.01414 1.152001,0.01824 0.770864,0.0082 1.28806,0.03299 1.55877,0.08671 0.271531,0.05336 0.4868,0.191679 0.64544,0.416192 0.161177,0.22179 0.228288,0.580079 0.195533,1.073991 -0.02992,0.451172 -0.114361,0.755272 -0.251002,0.911799 -0.136557,0.156425 -0.390547,0.252112 -0.759726,0.284067 0.326093,0.0731 0.542336,0.169918 0.647587,0.293083 0.105178,0.123076 0.16723,0.2368 0.18573,0.341599 0.02123,0.101702 0.01377,0.388163 -0.02584,0.855614 -0.04321,0.509876 -0.08897,1.019823 -0.13716,1.52979 -0.533174,0.0045 -1.062905,0.0046 -1.589378,8.66e-4 0.06596,-0.641268 0.128802,-1.282552 0.188241,-1.923738 0.02872,-0.309772 0.01782,-0.501974 -0.03121,-0.57603 -0.04649,-0.07421 -0.185071,-0.111736 -0.415352,-0.113807 -0.08012,0.869466 -0.16624,1.739146 -0.257679,2.608744 -0.564567,-0.0066 -1.125436,-0.01724 -1.682764,-0.03113 0.213731,-1.924928 0.408409,-3.851492 0.576809,-5.77599 z m 1.552158,1.011733 c -0.03434,0.428694 -0.07027,0.857437 -0.107708,1.286195 0.186804,0.0015 0.31928,-0.02054 0.396839,-0.06546 0.08043,-0.04733 0.131313,-0.198572 0.151868,-0.453563 0.0085,-0.106048 0.017,-0.212094 0.02535,-0.318137 0.01444,-0.18347 -0.01304,-0.30392 -0.08172,-0.361299 -0.06613,-0.05743 -0.194348,-0.08642 -0.384625,-0.08773 z m -4.83051,-1.116555 c 0.898159,0.03689 1.79769,0.06871 2.699723,0.0915 -0.03527,0.385078 -0.07149,0.770183 -0.108592,1.155286 -0.3637,-0.0094 -0.726759,-0.02025 -1.089252,-0.03226 -0.03724,0.364634 -0.07511,0.729287 -0.113551,1.093928 0.340859,0.01146 0.682409,0.02192 1.024694,0.03117 -0.03695,0.366082 -0.07465,0.732183 -0.113038,1.098275 -0.343931,-0.0095 -0.686947,-0.02026 -1.029078,-0.03195 -0.04588,0.42284 -0.09248,0.845704 -0.139732,1.268539 0.403233,0.01406 0.807997,0.02682 1.214318,0.03794 -0.04181,0.385168 -0.08436,0.770352 -0.127599,1.155519 -0.962641,-0.02718 -1.91574,-0.06329 -2.858864,-0.103769 0.220919,-1.920138 0.43695,-3.843897 0.640971,-5.764187 z m -0.855235,2.095252 c -0.541043,-0.02375 -1.08125,-0.04889 -1.619903,-0.07455 0.279091,-2.472429 -0.220044,1.949329 0.05905,-0.5231 0.03721,-0.329752 0.04514,-0.536881 0.0238,-0.621373 -0.02134,-0.0845 -0.08956,-0.12948 -0.204652,-0.134992 -0.09975,-0.0047 -0.171534,0.02758 -0.21538,0.09699 -0.04384,0.06944 -0.08241,0.251257 -0.115618,0.54541 -0.104092,0.921828 -0.207733,1.843054 -0.310405,2.764894 -0.0288,0.258555 -0.02994,0.430274 -0.0036,0.515001 0.02669,0.08238 0.0935,0.126157 0.20052,0.131314 0.117233,0.0056 0.201505,-0.03685 0.252715,-0.127376 0.05377,-0.09044 0.09573,-0.2697 0.12588,-0.537769 0.02562,-0.227748 0.05126,-0.45548 0.07692,-0.683229 -0.108715,-0.0052 -0.21737,-0.0104 -0.325945,-0.01562 0.03277,-0.291801 0.0656,-0.583575 0.09847,-0.875375 0.630047,0.03024 1.262773,0.06003 1.896733,0.08794 -0.115603,1.030795 -0.233043,2.062466 -0.351158,3.0932 -0.340963,-0.01533 -0.680901,-0.03111 -1.019579,-0.04712 -0.0343,-0.139946 -0.06862,-0.279926 -0.102947,-0.419878 -0.129986,0.172715 -0.284176,0.300114 -0.462354,0.382184 -0.175374,0.07982 -0.37601,0.114249 -0.601782,0.10331 -0.268884,-0.01303 -0.514002,-0.08575 -0.736024,-0.218103 -0.219203,-0.134581 -0.379771,-0.294975 -0.481855,-0.481083 -0.102088,-0.186116 -0.157985,-0.378412 -0.16747,-0.576789 -0.0092,-0.200643 0.0071,-0.499428 0.04967,-0.895565 0.06128,-0.570675 0.123474,-1.141307 0.186438,-1.711935 0.06073,-0.550386 0.137416,-0.948771 0.22921,-1.194749 0.09183,-0.246074 0.300238,-0.464984 0.625308,-0.656793 0.327912,-0.19407 0.732024,-0.279297 1.212408,-0.256273 0.472649,0.02266 0.854792,0.131188 1.146739,0.325756 0.291965,0.194583 0.471983,0.418321 0.539374,0.671669 0.06764,0.250919 0.07559,0.612613 0.02308,1.084812 -0.0092,0.08306 -0.01849,0.166115 -0.02775,0.249172 0,0 9.5e-5,1.6e-5 9.5e-5,1.6e-5 z M 15.841273,25.53865 c -0.216081,1.920774 -0.42316,3.841636 -0.615658,5.763198 -0.527696,-0.02443 -1.052353,-0.04775 -1.575521,-0.06923 0.172719,-1.923103 0.366046,-3.84583 0.574383,-5.767228 0.5397,0.02317 1.078037,0.04783 1.616796,0.07326 z m -1.985909,-0.08885 c -0.04118,0.384613 -0.08171,0.769263 -0.121531,1.153944 -0.31897,-0.01315 -0.637839,-0.02568 -0.956871,-0.03744 -0.151566,1.538134 -0.289831,3.07765 -0.411917,4.617576 -0.519629,-0.0179 -1.036845,-0.03331 -1.552589,-0.04552 0.09881,-1.542546 0.217244,-3.084385 0.352391,-4.624097 -0.317994,-0.0087 -0.635999,-0.0163 -0.954207,-0.02276 0.03085,-0.385579 0.06288,-0.771065 0.09603,-1.156434 1.188535,0.02495 2.367655,0.06566 3.548693,0.114721 z M 24.96969,22.426367 c 0.28051,0.409633 0.563457,0.818059 0.84912,1.225471 -0.06726,0.04805 -0.134642,0.09602 -0.202136,0.143927 -0.233261,-0.334098 -0.464756,-0.668873 -0.694637,-1.004433 -0.165756,0.117533 -0.332243,0.234661 -0.499427,0.351427 0.211353,0.311305 0.423992,0.621976 0.638054,0.932116 -0.06421,0.04489 -0.12851,0.08972 -0.192902,0.134492 -0.213549,-0.310535 -0.425707,-0.621581 -0.636617,-0.933248 -0.18725,0.130069 -0.375309,0.259677 -0.564127,0.388881 0.230632,0.343905 0.462634,0.687093 0.696216,1.029733 -0.06685,0.04579 -0.133778,0.09152 -0.20079,0.137201 -0.283752,-0.417677 -0.565192,-0.836085 -0.84472,-1.255562 0.557832,-0.379728 1.108902,-0.762558 1.651966,-1.150005 z m 0.428574,0.622149 z m -2.385903,-2.423529 c 0.0704,0.05901 0.140881,0.117958 0.211443,0.176852 -0.168023,0.218793 -0.337586,0.437272 -0.508541,0.655488 0.268946,0.224883 0.538853,0.448915 0.810119,0.672161 0.170394,-0.219251 0.339352,-0.438812 0.506731,-0.658734 0.07123,0.05842 0.142546,0.116777 0.213964,0.175066 -0.404793,0.53307 -0.818801,1.063836 -1.240002,1.593021 -0.07166,-0.05901 -0.143244,-0.118075 -0.214751,-0.177193 0.197054,-0.247159 0.392569,-0.494672 0.586336,-0.742611 -0.271396,-0.223564 -0.54146,-0.44789 -0.810596,-0.673046 -0.194374,0.246797 -0.390445,0.493231 -0.587995,0.739369 -0.07097,-0.05949 -0.141882,-0.119026 -0.212732,-0.178606 0.422815,-0.525845 0.838862,-1.052879 1.246025,-1.581768 z m -0.763613,-0.498543 c -0.02701,0.0759 -0.05411,0.15179 -0.0813,0.227677 -0.207645,-0.08256 -0.415156,-0.165522 -0.622668,-0.248851 -0.204135,0.560421 -0.412517,1.120709 -0.624135,1.680682 -0.08579,-0.03424 -0.171569,-0.06853 -0.257344,-0.102872 0.212573,-0.559755 0.422065,-1.119817 0.627457,-1.679989 -0.207503,-0.08361 -0.41496,-0.167538 -0.622531,-0.251759 0.02819,-0.07569 0.05631,-0.151385 0.08436,-0.227082 0.498992,0.20271 0.997029,0.403563 1.496161,0.602197 z m -4.848133,-0.741582 c 0.491109,-0.0394 0.979335,-0.07874 1.463909,-0.118616 0.0067,0.08342 0.01333,0.166838 0.02001,0.250257 -0.397292,0.03268 -0.796863,0.06498 -1.198361,0.09724 0.01566,0.206729 0.03138,0.413449 0.04717,0.620177 0.37188,-0.02984 0.7423,-0.05974 1.110957,-0.08996 6.6e-5,8.27e-4 0.01887,0.235524 0.01894,0.236352 -0.369016,0.03024 -0.739724,0.06016 -1.111821,0.09 0.01768,0.230832 0.03543,0.46165 0.05325,0.692481 0.40992,-0.03284 0.818417,-0.0658 1.225103,-0.09922 9.2e-5,0.0011 0.01965,0.242155 0.01974,0.24329 -0.495559,0.04071 -0.993799,0.08074 -1.49389,0.120689 -0.05235,-0.681015 -0.104045,-1.361685 -0.154998,-2.042696 z m 0.744656,-0.05996 z m -2.981591,0.751384 c 0.385602,0.474961 0.772181,0.953619 1.155854,1.429688 -0.01786,-0.612809 -0.03506,-1.22551 -0.05157,-1.838281 0.09738,-0.0361 0.194638,-0.07218 0.291758,-0.108242 -6.21e-4,0.727056 -3.95e-4,1.454083 6.35e-4,2.18117 -0.09207,0.03411 -0.184224,0.06823 -0.276443,0.102368 -0.467932,-0.552438 -0.940169,-1.108412 -1.411355,-1.659093 0.04314,-0.01595 0.247981,-0.09166 0.291119,-0.10761 z m -0.648906,1.707292 c -0.252096,-0.197093 -0.505004,-0.393926 -0.758677,-0.590217 0.07034,0.313103 0.140635,0.625655 0.211152,0.938892 0.182585,-0.1164 0.365108,-0.232609 0.547525,-0.348675 z m -1.049522,-0.765734 c 0.0899,-0.05713 0.179779,-0.11421 0.269625,-0.171245 0.58534,0.436696 1.167359,0.876957 1.745259,1.317302 0.144427,-0.09199 -0.402537,0.256396 -0.258111,0.164406 -0.169279,-0.134567 -0.338848,-0.269054 -0.508665,-0.403355 -0.230111,0.146454 -0.460394,0.293117 -0.690757,0.440083 0.04848,0.211892 0.09695,0.423595 0.145507,0.635539 -0.08065,0.05155 -0.161288,0.103139 -0.241922,0.154761 -0.154565,-0.715027 -0.307282,-1.423133 -0.460936,-2.137491 z m 0.123449,-0.07843 z m -1.269743,2.783185 c 0.08474,0.08061 0.169934,0.131044 0.255653,0.151289 0.161613,0.03684 0.328694,-0.02361 0.502042,-0.181339 0.07766,-0.07066 0.138285,-0.145903 0.181871,-0.225765 0.08426,-0.154549 0.07588,-0.286541 -0.02572,-0.395862 -0.07619,-0.08199 -0.156676,-0.116721 -0.241381,-0.104185 -0.08474,0.01384 -0.195394,0.05932 -0.331749,0.136542 -0.08361,0.04758 -0.167202,0.09522 -0.250766,0.142909 -0.163718,0.09353 -0.290544,0.148097 -0.380781,0.163506 -0.156167,0.02635 -0.293063,-0.0224 -0.410956,-0.14639 -0.12755,-0.134148 -0.184976,-0.287683 -0.171521,-0.460898 0.01345,-0.173199 0.107887,-0.339741 0.283679,-0.499358 0.161746,-0.146866 0.335389,-0.233319 0.520189,-0.25925 0.184897,-0.02725 0.355675,0.04266 0.512074,0.209621 -0.06545,0.05909 -0.13086,0.118213 -0.196242,0.177366 -0.08594,-0.07085 -0.1663,-0.112157 -0.240994,-0.12394 -0.137401,-0.02054 -0.282658,0.03839 -0.435086,0.176857 -0.123069,0.111797 -0.187504,0.217334 -0.19351,0.316443 -0.006,0.09912 0.02262,0.181873 0.08569,0.248326 0.0695,0.07324 0.151549,0.09825 0.24625,0.07509 0.06164,-0.01572 0.180072,-0.07323 0.35575,-0.172321 0.0868,-0.04924 0.173628,-0.09842 0.260471,-0.147544 0.125627,-0.07106 0.235564,-0.11199 0.32965,-0.122864 0.163303,-0.0181 0.307147,0.03991 0.431454,0.173908 0.154738,0.166805 0.203114,0.342346 0.145938,0.526188 -0.0565,0.183271 -0.166163,0.348868 -0.32893,0.497023 -0.189786,0.17275 -0.382397,0.260387 -0.578635,0.262983 -0.195577,0.0033 -0.368335,-0.07685 -0.518579,-0.240522 0.06466,-0.0593 0.12937,-0.11857 0.194138,-0.177805 m -0.576776,-1.436915 z"
                 style="font-style:normal;font-variant:normal;font-weight:normal;font-stretch:condensed;font-size:7.5px;font-family:impact;-inkscape-font-specification:'impact Condensed';fill:#ffffff;fill-opacity:1"
                 id="path4202" />
              <g
                 transform="translate(-0.53189613,-1.7020676)"
                 inkscape:path-effect="#path-effect4419"
                 id="text4388"
                 style="font-style:normal;font-weight:normal;font-size:40px;line-height:125%;font-family:sans-serif;letter-spacing:0px;word-spacing:0px;fill:#000000;fill-opacity:1;stroke:none;stroke-width:1px;stroke-linecap:butt;stroke-linejoin:miter;stroke-opacity:1">
                <path
                   inkscape:connector-curvature="0"
                   inkscape:original-d="m 10.765028,33.429611 q -0.180664,0 -0.285645,0.141602 -0.10498,0.140381 -0.10498,0.385742 0,0.245361 0.10376,0.386963 0.10498,0.140381 0.286865,0.140381 0.179443,0 0.284424,-0.141602 0.10498,-0.141601 0.10498,-0.385742 0,-0.24292 -0.10498,-0.384522 -0.104981,-0.142822 -0.284424,-0.142822 z m 0,-0.190429 q 0.292969,0 0.460205,0.190429 0.167236,0.19043 0.167236,0.527344 0,0.335693 -0.167236,0.527344 -0.167236,0.190429 -0.460205,0.190429 -0.294189,0 -0.461426,-0.190429 -0.166015,-0.191651 -0.166015,-0.527344 0,-0.336914 0.166015,-0.527344 0.167237,-0.190429 0.461426,-0.190429 z"
                   id="path4393"
                   style="font-size:2.5px;fill:#ffffff;fill-opacity:1"
                   d="m 12.138933,33.706495 c -0.09006,-0.08615 -0.194387,-0.120086 -0.312799,-0.102222 -0.117837,0.01728 -0.234016,0.08456 -0.348739,0.202138 -0.114708,0.117559 -0.179752,0.235395 -0.194977,0.353843 -0.01405,0.118437 0.02368,0.222415 0.114021,0.311371 0.08917,0.08781 0.193567,0.12312 0.312743,0.105365 0.119226,-0.01776 0.236028,-0.08647 0.350606,-0.205735 0.113951,-0.118611 0.177783,-0.23782 0.19169,-0.356958 0.01449,-0.119808 -0.02306,-0.2222 -0.112545,-0.307802 z m 0.134061,-0.138148 c 0.14621,0.139123 0.216537,0.294407 0.211114,0.467211 -0.0054,0.172614 -0.08666,0.342437 -0.244328,0.50794 -0.157227,0.165037 -0.322874,0.25405 -0.497474,0.265991 -0.173908,0.01134 -0.334395,-0.05567 -0.479928,-0.199716 -0.145993,-0.144502 -0.214157,-0.303554 -0.206902,-0.475886 0.0084,-0.172344 0.09093,-0.338208 0.247163,-0.498156 0.156874,-0.160601 0.320633,-0.246783 0.491994,-0.258993 0.171955,-0.01163 0.3316,0.05196 0.478361,0.191609 z" />
                <path
                   inkscape:connector-curvature="0"
                   inkscape:original-d="m 12.900038,33.814133 0,0.825195 -0.22461,0 0,-0.817871 q 0,-0.194092 -0.07568,-0.290527 -0.07568,-0.09644 -0.227051,-0.09644 -0.181885,0 -0.286865,0.115967 -0.104981,0.115967 -0.104981,0.316162 l 0,0.772705 -0.22583,0 0,-1.367187 0.22583,0 0,0.212402 q 0.08057,-0.123291 0.189209,-0.184326 0.109864,-0.06104 0.252686,-0.06104 0.235596,0 0.356445,0.146484 0.12085,0.145264 0.12085,0.428467 z"
                   id="path4395"
                   style="font-size:2.5px;fill:#ffffff;fill-opacity:1"
                   d="m 13.504153,35.502393 -0.551882,0.636134 c -0.06124,-0.05284 -0.122154,-0.105957 -0.182753,-0.159332 l 0.553169,-0.625919 c 0.08748,-0.09898 0.13332,-0.190616 0.137948,-0.274338 0.0046,-0.08383 -0.03166,-0.160289 -0.108998,-0.230202 -0.09294,-0.08402 -0.1925,-0.121664 -0.299564,-0.112769 -0.106982,0.0089 -0.20703,0.06296 -0.299641,0.162937 l -0.536255,0.578933 c -0.05903,-0.0549 -0.117773,-0.109936 -0.176222,-0.165087 l 0.954111,-1.017725 c 0.05689,0.05299 0.113871,0.105828 0.170935,0.158476 l -0.147407,0.159138 c 0.09797,-0.02377 0.188489,-0.02578 0.271651,-0.0061 0.08381,0.02028 0.161771,0.06311 0.234333,0.128525 0.119629,0.107839 0.177393,0.225592 0.173813,0.355266 -0.003,0.128805 -0.06705,0.266593 -0.193229,0.41203 z" />
                <path
                   inkscape:connector-curvature="0"
                   inkscape:original-d="m 13.350477,32.739914 0.22461,0 0,1.899414 -0.22461,0 0,-1.899414 z"
                   id="path4397"
                   style="font-size:2.5px;fill:#ffffff;fill-opacity:1"
                   d="m 14.560966,34.966051 c 0.05634,0.04771 0.112724,0.09499 0.169169,0.14183 l -1.216765,1.498296 c -0.06325,-0.0508 -0.126148,-0.101981 -0.188712,-0.153524 z" />
                <path
                   inkscape:connector-curvature="0"
                   inkscape:original-d="m 14.612684,34.766281 q -0.09521,0.244141 -0.185547,0.318604 -0.09033,0.07446 -0.241699,0.07446 l -0.179443,0 0,-0.187989 0.131836,0 q 0.09277,0 0.144043,-0.04395 0.05127,-0.04395 0.113525,-0.20752 l 0.04028,-0.102539 -0.552978,-1.345214 0.238037,0 0.427246,1.069335 0.427246,-1.069335 0.238037,0 -0.600586,1.49414 z"
                   id="path4399"
                   style="font-size:2.5px;fill:#ffffff;fill-opacity:1"
                   d="m 14.338906,37.385634 c -0.15159,0.0938 -0.270635,0.140894 -0.354819,0.142403 -0.08417,0.0015 -0.172578,-0.03093 -0.263526,-0.09777 -0.0539,-0.03961 -0.107516,-0.07952 -0.160853,-0.119708 l 0.116238,-0.15061 c 0.03873,0.02928 0.0776,0.05842 0.116606,0.08738 0.0549,0.04077 0.106728,0.0603 0.154851,0.05879 0.04811,-0.0015 0.123517,-0.03311 0.22514,-0.09533 0.03223,-0.01924 0.06438,-0.03854 0.09646,-0.0579 0.103575,-0.481341 0.225089,-0.958171 0.360734,-1.430742 0.06226,0.04948 0.124677,0.09841 0.187275,0.146766 -0.105728,0.373568 -0.202112,0.749804 -0.287347,1.128835 0.332201,-0.20388 0.655653,-0.414557 0.968652,-0.632637 0.06397,0.04362 0.128142,0.08651 0.192532,0.128621 -0.430466,0.311835 -0.882681,0.608569 -1.35194,0.891883 z" />
                <path
                   inkscape:connector-curvature="0"
                   inkscape:original-d="m 16.563368,34.431808 0.860596,0 0,0.20752 -1.157227,0 0,-0.20752 q 0.140381,-0.145263 0.38208,-0.389404 0.24292,-0.245361 0.305176,-0.316162 0.118408,-0.133057 0.164795,-0.224609 0.04761,-0.09277 0.04761,-0.181885 0,-0.145264 -0.102539,-0.236816 -0.101318,-0.09155 -0.264892,-0.09155 -0.115967,0 -0.245362,0.04028 -0.128174,0.04028 -0.274658,0.12207 l 0,-0.249023 q 0.148926,-0.05982 0.27832,-0.09033 0.129395,-0.03052 0.236817,-0.03052 0.283203,0 0.45166,0.141602 0.168457,0.141601 0.168457,0.378418 0,0.112304 -0.04272,0.213623 -0.0415,0.100097 -0.152588,0.236816 -0.03052,0.0354 -0.194091,0.205078 -0.163575,0.168457 -0.461426,0.472412 z"
                   id="path4401"
                   style="font-size:2.5px;fill:#ffffff;fill-opacity:1"
                   d="m 16.324818,38.158572 c 0.276424,0.128615 0.55888,0.24455 0.84778,0.34584 l -0.06709,0.191702 C 16.70766,38.556526 16.322296,38.39063 15.948416,38.203207 l 0.0927,-0.182066 c 0.127121,-0.03871 0.314146,-0.09688 0.525337,-0.17203 0.21212,-0.07547 0.353244,-0.136717 0.404054,-0.161477 0.104712,-0.05026 0.181205,-0.09924 0.230328,-0.143844 0.05032,-0.04523 0.08552,-0.09531 0.106473,-0.149524 0.03416,-0.08839 0.03242,-0.171894 -0.0027,-0.250396 -0.03448,-0.07842 -0.0958,-0.136282 -0.185456,-0.176169 -0.06362,-0.02831 -0.135956,-0.04719 -0.218027,-0.05738 -0.08143,-0.0099 -0.17401,-0.0113 -0.279043,-0.0053 l 0.110947,-0.218594 c 0.09747,0.0066 0.184456,0.01702 0.261924,0.03223 0.07746,0.01521 0.144468,0.03521 0.201833,0.06088 0.150976,0.06757 0.254692,0.158214 0.315086,0.279774 0.0601,0.120965 0.06797,0.254424 0.01678,0.400115 -0.02429,0.06914 -0.05986,0.130528 -0.10771,0.183658 -0.04669,0.05247 -0.119234,0.1089 -0.218798,0.166381 -0.02346,0.01265 -0.113425,0.05649 -0.253353,0.116138 -0.140537,0.0593 -0.351018,0.142819 -0.62402,0.232929 z" />
                <path
                   inkscape:connector-curvature="0"
                   inkscape:original-d="m 17.968397,34.329269 0.257568,0 0,0.209961 -0.200195,0.390625 -0.157471,0 0.100098,-0.390625 0,-0.209961 z"
                   id="path4403"
                   style="font-size:2.5px;fill:#ffffff;fill-opacity:1"
                   d="m 17.755075,38.581424 c 0.08784,0.02414 0.176255,0.04686 0.265264,0.06809 l -0.04695,0.201333 c -0.100143,0.107718 -0.20333,0.213366 -0.309427,0.316997 -0.05789,-0.01577 -0.115521,-0.03208 -0.17289,-0.0489 0.07156,-0.112087 0.141593,-0.224955 0.210068,-0.338616 z" />
                <path
                   inkscape:connector-curvature="0"
                   inkscape:original-d="m 18.951063,34.431808 0.860596,0 0,0.20752 -1.157227,0 0,-0.20752 q 0.140381,-0.145263 0.38208,-0.389404 0.24292,-0.245361 0.305176,-0.316162 0.118408,-0.133057 0.164795,-0.224609 0.04761,-0.09277 0.04761,-0.181885 0,-0.145264 -0.102539,-0.236816 -0.101318,-0.09155 -0.264892,-0.09155 -0.115967,0 -0.245361,0.04028 -0.128174,0.04028 -0.274659,0.12207 l 0,-0.249023 q 0.148926,-0.05982 0.278321,-0.09033 0.129394,-0.03052 0.236816,-0.03052 0.283203,0 0.45166,0.141602 0.168457,0.141601 0.168457,0.378418 0,0.112304 -0.04272,0.213623 -0.0415,0.100097 -0.152588,0.236816 -0.03052,0.0354 -0.194092,0.205078 -0.163574,0.168457 -0.461426,0.472412 z"
                   id="path4405"
                   style="font-size:2.5px;fill:#ffffff;fill-opacity:1"
                   d="m 18.773974,38.894041 c 0.318788,0.0379 0.637769,0.05094 0.9549,0.04146 l 0.0062,0.206541 c -0.332456,0.0099 -0.667389,-0.0039 -1.002655,-0.04398 -0.105589,-0.0153 -0.210354,-0.03254 -0.314311,-0.05165 l 0.03437,-0.203093 c 0.08949,-0.05888 0.208877,-0.139387 0.342271,-0.237718 0,0 0,0 0,0 0,0 0,0 0,0 0,0 0,0 0,0 0.03737,-0.02757 0.07606,-0.05681 0.115847,-0.08774 0.179297,-0.139395 0.295981,-0.25053 0.333748,-0.28963 0.08199,-0.08388 0.136934,-0.157805 0.167369,-0.217499 0.03142,-0.06086 0.0468,-0.121128 0.04763,-0.180247 0.0014,-0.09643 -0.02866,-0.175402 -0.08617,-0.23815 -0.05699,-0.06293 -0.130406,-0.09698 -0.222888,-0.105139 -0.06568,-0.0058 -0.135835,-7.9e-5 -0.21246,0.01642 -1e-6,10e-7 -0.0037,8.15e-4 -0.0037,8.15e-4 -0.07832,0.01948 -0.163999,0.04976 -0.259003,0.08969 l 0.04083,-0.243853 c 0.08941,-0.02637 0.170715,-0.047 0.245393,-0.06086 -3e-6,10e-7 0.0066,-9.51e-4 0.0066,-9.51e-4 0.07233,-0.01032 0.136764,-0.01333 0.194922,-0.008 0.152938,0.01401 0.273857,0.06359 0.369317,0.158006 0.09485,0.09381 0.149427,0.217576 0.153905,0.37469 0.0021,0.07453 -0.0089,0.145788 -0.03458,0.21364 -0.02478,0.06667 -0.07259,0.14683 -0.146239,0.23696 -0.0167,0.01927 -0.08804,0.09542 -0.20025,0.19984 -0.111733,0.103221 -0.290671,0.259335 -0.531035,0.430449 z" />
                <path
                   inkscape:connector-curvature="0"
                   inkscape:original-d="m 20.54286,34.431808 0.860596,0 0,0.20752 -1.157227,0 0,-0.20752 q 0.140381,-0.145263 0.38208,-0.389404 0.24292,-0.245361 0.305176,-0.316162 0.118408,-0.133057 0.164795,-0.224609 0.04761,-0.09277 0.04761,-0.181885 0,-0.145264 -0.102539,-0.236816 -0.101318,-0.09155 -0.264892,-0.09155 -0.115967,0 -0.245362,0.04028 -0.128173,0.04028 -0.274658,0.12207 l 0,-0.249023 q 0.148926,-0.05982 0.278321,-0.09033 0.129394,-0.03052 0.236816,-0.03052 0.283203,0 0.45166,0.141602 0.168457,0.141601 0.168457,0.378418 0,0.112304 -0.04273,0.213623 -0.0415,0.100097 -0.152587,0.236816 -0.03052,0.0354 -0.194092,0.205078 -0.163574,0.168457 -0.461426,0.472412 z"
                   id="path4407"
                   style="font-size:2.5px;fill:#ffffff;fill-opacity:1"
                   d="m 20.531961,38.863982 c 0.312512,-0.04606 0.621438,-0.112657 0.924734,-0.197437 l 0.05626,0.200135 c -0.418595,0.116745 -0.848363,0.199741 -1.284336,0.243289 l -0.02101,-0.205768 c 0.09127,-0.104503 0.216684,-0.252819 0.354827,-0.438249 0.135668,-0.182097 0.220521,-0.319328 0.247602,-0.36753 0.05853,-0.102747 0.09387,-0.188658 0.108851,-0.254643 0.01564,-0.06731 0.01581,-0.129923 0.0018,-0.187675 -0.02284,-0.09419 -0.07251,-0.163222 -0.146096,-0.208744 -0.07307,-0.04581 -0.155623,-0.05869 -0.250333,-0.04054 -0.06724,0.01289 -0.135783,0.03849 -0.207401,0.07655 -0.07101,0.03801 -0.145967,0.08888 -0.227723,0.152385 l -0.02569,-0.246882 c 0.08081,-0.04882 0.154968,-0.08909 0.224772,-0.120473 0.06971,-0.03135 0.133878,-0.05305 0.193988,-0.06462 0.158192,-0.03043 0.293729,-0.0152 0.413535,0.05157 0.119168,0.06642 0.203702,0.173601 0.246294,0.325896 0.0202,0.07224 0.0265,0.144585 0.01768,0.217208 -0.0082,0.07131 -0.03576,0.161324 -0.08549,0.267684 -0.0118,0.02342 -0.06232,0.114625 -0.144933,0.245036 -0.0821,0.128562 -0.214934,0.325915 -0.397341,0.552798 z" />
                <path
                   inkscape:connector-curvature="0"
                   inkscape:original-d="m 22.480116,33.629807 q -0.166016,0 -0.263672,0.113525 -0.09644,0.113525 -0.09644,0.311279 0,0.196533 0.09644,0.31128 0.09766,0.113525 0.263672,0.113525 0.166016,0 0.262451,-0.113525 0.09766,-0.114747 0.09766,-0.31128 0,-0.197754 -0.09766,-0.311279 -0.09643,-0.113525 -0.262451,-0.113525 z m 0.489502,-0.772706 0,0.22461 q -0.09277,-0.04395 -0.187988,-0.06714 -0.09399,-0.02319 -0.186768,-0.02319 -0.244141,0 -0.373535,0.164795 -0.128174,0.164795 -0.146485,0.498047 0.07202,-0.106202 0.180665,-0.162354 0.108642,-0.05737 0.239257,-0.05737 0.274659,0 0.43335,0.167236 0.159912,0.166016 0.159912,0.452881 0,0.280762 -0.166016,0.45044 -0.166015,0.169677 -0.441894,0.169677 -0.316162,0 -0.483399,-0.241699 -0.167236,-0.24292 -0.167236,-0.703125 0,-0.432129 0.205078,-0.688476 0.205078,-0.257569 0.550537,-0.257569 0.09277,0 0.186768,0.01831 0.09521,0.01831 0.197754,0.05493 z"
                   id="path4409"
                   style="font-size:2.5px;fill:#ffffff;fill-opacity:1"
                   d="m 22.24106,37.532375 c -0.100376,0.04398 -0.166085,0.111824 -0.198618,0.206651 -0.03167,0.0942 -0.02523,0.203419 0.02244,0.326584 0.04745,0.122587 0.116484,0.207365 0.209966,0.252629 0.09371,0.04404 0.197889,0.04215 0.308946,-0.007 0.09969,-0.04416 0.167043,-0.109667 0.201269,-0.193745 0,0 0,0 0,0 0,0 0,0 0,0 0,0 0,0 0,0 0,0 0,0 0,0 0,0 0,0 0,0 0,0 0,0 0,0 0.0038,-0.0095 0.0072,-0.01926 0.01021,-0.02926 0.02978,-0.09935 0.0146,-0.207421 -0.04302,-0.325032 -0.05793,-0.118237 -0.133816,-0.196599 -0.225582,-0.236515 -0.0093,-0.0041 -0.01863,-0.0078 -0.028,-0.011 0,0 0,0 0,0 0,0 0,0 0,0 0,0 0,0 0,0 0,0 0,0 0,0 0,0 0,0 0,0 0,0 0,0 0,0 -0.08237,-0.02856 -0.167434,-0.02278 -0.257605,0.01673 z m 0.09211,-0.896528 0.101152,0.20021 c -0.06554,6.3e-5 -0.128417,0.0059 -0.188939,0.01756 -0.01896,0.0036 -0.03754,0.0078 -0.05576,0.01264 -0.03843,0.01 -0.07516,0.02279 -0.110339,0.0386 -0.13526,0.06076 -0.218276,0.15407 -0.251811,0.286209 -0.03261,0.130961 -0.01713,0.304205 0.05058,0.516222 0.01936,-0.08329 0.05462,-0.15521 0.10579,-0.216424 0.05091,-0.06202 0.114308,-0.109365 0.191399,-0.143207 0.07432,-0.03262 0.1457,-0.05245 0.215243,-0.05932 0,0 0,0 0,0 0,0 0,0 0,0 0,0 0,0 0,0 0.08292,-0.0085 0.163071,0.0012 0.241096,0.02975 0.144031,0.05142 0.262261,0.159825 0.350171,0.329158 0.08608,0.165806 0.10412,0.325639 0.04767,0.480735 -0.02897,0.0796 -0.07508,0.150629 -0.138286,0.212375 0,0 0,0 0,0 0,0 0,0 0,0 0,0 0,0 0,0 0,0 0,0 0,0 -0.06071,0.05885 -0.137071,0.109277 -0.228557,0.149888 -0.21648,0.0961 -0.416691,0.08617 -0.586916,-0.02303 -0.171865,-0.110837 -0.301677,-0.31359 -0.402057,-0.605138 -0.09374,-0.272269 -0.105122,-0.513307 -0.04851,-0.716104 0.0568,-0.205263 0.173783,-0.34346 0.359945,-0.426482 0.03685,-0.01643 0.07514,-0.03022 0.115013,-0.04144 0.01476,-0.0043 0.02972,-0.0082 0.04489,-0.01178 0.05799,-0.01391 0.120628,-0.02395 0.188231,-0.03042 z" />
                <path
                   inkscape:connector-curvature="0"
                   inkscape:original-d="m 24.278212,32.739914 0.224609,0 0,1.899414 -0.224609,0 0,-1.899414 z"
                   id="path4411"
                   style="font-size:2.5px;fill:#ffffff;fill-opacity:1"
                   d="m 23.32628,35.926165 c 0.05851,-0.03845 0.116811,-0.07751 0.174911,-0.117157 l 1.06374,1.569322 c -0.06683,0.04515 -0.134065,0.0898 -0.201725,0.133915 z" />
                <path
                   inkscape:connector-curvature="0"
                   inkscape:original-d="m 26.141005,33.899582 0,0.109863 -1.032715,0 q 0.01465,0.231934 0.13916,0.354004 0.125732,0.12085 0.349121,0.12085 0.129394,0 0.250244,-0.03174 0.12207,-0.03174 0.241699,-0.09521 l 0,0.212402 q -0.120849,0.05127 -0.247802,0.07813 -0.126954,0.02686 -0.257569,0.02686 -0.327148,0 -0.518799,-0.190429 -0.190429,-0.19043 -0.190429,-0.515137 0,-0.335693 0.180664,-0.532227 0.181885,-0.197753 0.489502,-0.197753 0.275879,0 0.435791,0.178222 0.161133,0.177002 0.161133,0.482178 z m -0.22461,-0.06592 q -0.0024,-0.184326 -0.10376,-0.29419 -0.100097,-0.109863 -0.266113,-0.109863 -0.187988,0 -0.301514,0.106201 -0.112304,0.106202 -0.129394,0.299073 l 0.800781,-0.0012 z"
                   id="path4413"
                   style="font-size:2.5px;fill:#ffffff;fill-opacity:1"
                   d="m 25.489597,35.751142 0.07061,0.08452 c -0.273363,0.22832 -0.552479,0.44945 -0.838278,0.660879 0.100108,0.11831 0.209117,0.184374 0.3283,0.196762 0.119129,0.0112 0.242366,-0.03169 0.366735,-0.129291 0.07201,-0.05651 0.134613,-0.119975 0.187587,-0.190027 0.05365,-0.0706 0.09933,-0.149128 0.136806,-0.235339 l 0.136072,0.163756 c -0.04404,0.08102 -0.09568,0.157014 -0.154802,0.227756 -0.05912,0.07074 -0.125557,0.135026 -0.199073,0.192569 -0.184275,0.144238 -0.372165,0.205003 -0.556837,0.183135 -0.184506,-0.02245 -0.337842,-0.123728 -0.46385,-0.299604 -0.130102,-0.18159 -0.183341,-0.361807 -0.164428,-0.538005 0.01914,-0.177874 0.107428,-0.326609 0.266766,-0.451744 0.142964,-0.112277 0.291679,-0.156971 0.449987,-0.132954 0.158085,0.02282 0.303671,0.111096 0.434411,0.267593 0,0 -9e-6,-10e-6 -9e-6,-10e-6 z m -0.219937,0.09598 c -0.07911,-0.09436 -0.168613,-0.148109 -0.267605,-0.162359 -0.09845,-0.0148 -0.190454,0.0121 -0.277493,0.08039 -0.09855,0.07733 -0.156568,0.1662 -0.17456,0.268564 -0.01731,0.101706 0.007,0.207899 0.07412,0.318082 0.21882,-0.162709 0.433858,-0.331319 0.645551,-0.504664 z" />
                <path
                   inkscape:connector-curvature="0"
                   inkscape:original-d="m 27.196913,32.739914 0,0.186768 -0.214844,0 q -0.12085,0 -0.168457,0.04883 -0.04639,0.04883 -0.04639,0.175781 l 0,0.12085 0.369873,0 0,0.17456 -0.369873,0 0,1.192627 -0.22583,0 0,-1.192627 -0.214844,0 0,-0.17456 0.214844,0 0,-0.09521 q 0,-0.228272 0.106201,-0.332032 0.106202,-0.10498 0.336914,-0.10498 l 0.212403,0 z"
                   id="path4415"
                   style="font-size:2.5px;fill:#ffffff;fill-opacity:1"
                   d="m 25.522015,34.176386 0.126467,0.138151 c -0.05264,0.04803 -0.105378,0.09583 -0.158222,0.143361 -0.05944,0.05346 -0.09011,0.102575 -0.09196,0.147922 -0.0012,0.04475 0.02619,0.09901 0.08245,0.162565 l 0.08036,0.09077 c 0.09269,-0.08206 0.184929,-0.164925 0.276772,-0.248487 l 0.11793,0.129388 c -0.09241,0.08412 -0.185274,0.167559 -0.278633,0.250211 l 0.793003,0.895787 c -0.05981,0.05294 -0.119939,0.10564 -0.180396,0.158067 L 25.505606,35.14075 c -0.05459,0.04742 -0.109354,0.09456 -0.164304,0.141377 l -0.113437,-0.13332 c 0.05448,-0.04645 0.108804,-0.09322 0.162964,-0.14028 l -0.0626,-0.07212 c -0.100007,-0.115209 -0.146296,-0.222235 -0.139638,-0.32022 0.0061,-0.09881 0.06546,-0.1978 0.178078,-0.299088 0.05186,-0.04664 0.103646,-0.09356 0.155351,-0.140708 z" />
                <path
                   inkscape:connector-curvature="0"
                   inkscape:original-d="m 27.569227,32.883957 0,0.388184 0.462647,0 0,0.17456 -0.462647,0 0,0.742188 q 0,0.167236 0.04517,0.214843 0.04639,0.04761 0.186768,0.04761 l 0.230713,0 0,0.187988 -0.230713,0 q -0.26001,0 -0.358887,-0.09644 -0.09888,-0.09766 -0.09888,-0.354003 l 0,-0.742188 -0.164795,0 0,-0.17456 0.164795,0 0,-0.388184 0.22583,0 z"
                   id="path4417"
                   style="font-size:2.5px;fill:#ffffff;fill-opacity:1"
                   d="m 25.892023,34.03154 0.266191,0.283584 c 0.113783,-0.106354 0.227019,-0.213585 0.33979,-0.321465 l 0.121119,0.125702 c -0.11316,0.108457 -0.226868,0.216295 -0.341207,0.323286 l 0.508944,0.542198 c 0.07647,0.08147 0.136961,0.123017 0.181676,0.124571 0.04527,9.7e-4 0.103569,-0.03221 0.174243,-0.09974 0.05807,-0.05549 0.115873,-0.111118 0.173423,-0.166857 l 0.130436,0.135373 c -0.05776,0.05605 -0.115794,0.111994 -0.174117,0.16781 -0.131506,0.125852 -0.245681,0.188558 -0.340165,0.188676 -0.09524,-4.78e-4 -0.200719,-0.06389 -0.317101,-0.189724 L 26.11002,34.598691 c -0.04095,0.0378 -0.08199,0.07547 -0.123121,0.113018 L 25.86878,34.582507 c 0.04088,-0.0373 0.08168,-0.07473 0.12241,-0.112294 l -0.264252,-0.285708 c 0.05512,-0.05075 0.110146,-0.101744 0.165084,-0.152967 z" />
              </g>
            </g>
            <path
               style="fill:#000000;fill-opacity:1;fill-rule:evenodd;stroke:none;stroke-width:1px;stroke-linecap:butt;stroke-linejoin:miter;stroke-opacity:1"
               d="m 15.547382,55.584186 c -1.135097,2.076262 -2.882913,3.355385 -4.868871,4.384433 l 1.21122,1.285376 c 1.861587,-1.170736 3.362314,-2.800748 4.498817,-4.894318 z"
               id="path4205"
               inkscape:connector-curvature="0"
               sodipodi:nodetypes="ccccc" />
            <path
               style="fill:#000000;fill-opacity:1;fill-rule:evenodd;stroke:none;stroke-width:1px;stroke-linecap:butt;stroke-linejoin:miter;stroke-opacity:1"
               d="m 22.236641,58.711159 c -0.411212,2.330282 -1.221408,4.497062 -2.773786,6.10737 l 0.999456,0.480759 c 1.389215,-1.704762 2.289604,-3.729217 2.696611,-6.076347 z"
               id="path4209"
               inkscape:connector-curvature="0"
               sodipodi:nodetypes="ccccc" />
            <path
               sodipodi:nodetypes="ccccc"
               inkscape:connector-curvature="0"
               id="path4215"
               d="m 32.930656,54.779454 c 0.349208,2.340377 0.610527,4.328239 -0.350879,6.347811 l 1.741664,0.292998 c 0.776708,-2.057391 0.07953,-4.19299 -0.279012,-6.548012 z"
               style="fill:#000000;fill-opacity:1;fill-rule:evenodd;stroke:none;stroke-width:1px;stroke-linecap:butt;stroke-linejoin:miter;stroke-opacity:1" />
            <path
               style="fill:#000000;fill-opacity:1;fill-rule:evenodd;stroke:none;stroke-width:1px;stroke-linecap:butt;stroke-linejoin:miter;stroke-opacity:1"
               d="m 37.118002,58.65449 1.207327,-0.574343 c -0.214409,-2.188644 -2.150775,-3.481492 -2.150775,-3.481492 0,0 0.911393,1.819332 0.943448,4.055835 z"
               id="path4217"
               inkscape:connector-curvature="0"
               sodipodi:nodetypes="cccc" />
            <path
               sodipodi:nodetypes="cccc"
               inkscape:connector-curvature="0"
               id="path4225"
               d="m 41.026147,54.732312 0.935617,-0.861923 c -0.848648,-2.028775 -3.520661,-1.995669 -3.520661,-1.995669 0,0 1.896608,0.729441 2.585044,2.857592 z"
               style="fill:#000000;fill-opacity:1;fill-rule:evenodd;stroke:none;stroke-width:1px;stroke-linecap:butt;stroke-linejoin:miter;stroke-opacity:1" />
            <path
               sodipodi:nodetypes="cccc"
               inkscape:connector-curvature="0"
               id="path4227"
               d="m 30.272118,63.148649 1.022377,0.215656 c 0.308066,-2.029378 -0.755586,-4.58979 -0.755586,-4.58979 0,0 0.170814,2.352944 -0.266791,4.374134 z"
               style="fill:#000000;fill-opacity:1;fill-rule:evenodd;stroke:none;stroke-width:1px;stroke-linecap:butt;stroke-linejoin:miter;stroke-opacity:1" />
            <path
               style="fill:#000000;fill-opacity:1;fill-rule:evenodd;stroke:none;stroke-width:1px;stroke-linecap:butt;stroke-linejoin:miter;stroke-opacity:1"
               d="m 14.906887,62.898686 0.622843,0.838945 c 1.575394,-1.315832 2.475266,-3.938291 2.475266,-3.938291 0,0 -1.431119,1.875479 -3.098109,3.099346 z"
               id="path4229"
               inkscape:connector-curvature="0"
               sodipodi:nodetypes="cccc" />
            <path
               sodipodi:nodetypes="cccc"
               inkscape:connector-curvature="0"
               id="path4231"
               d="m 17.493751,63.527923 0.622843,0.838945 c 1.575394,-1.315832 2.475266,-3.938291 2.475266,-3.938291 0,0 -1.431119,1.875479 -3.098109,3.099346 z"
               style="fill:#000000;fill-opacity:1;fill-rule:evenodd;stroke:none;stroke-width:1px;stroke-linecap:butt;stroke-linejoin:miter;stroke-opacity:1" />
            <path
               style="fill:#000000;fill-opacity:1;fill-rule:evenodd;stroke:none;stroke-width:1px;stroke-linecap:butt;stroke-linejoin:miter;stroke-opacity:1"
               d="m 24.014661,63.947949 0.962432,0.406801 c 0.689686,-1.933291 0.134205,-4.649631 0.134205,-4.649631 0,0 -0.281356,2.342298 -1.096637,4.24283 z"
               id="path4233"
               inkscape:connector-curvature="0"
               sodipodi:nodetypes="cccc" />
            <path
               sodipodi:nodetypes="cccc"
               inkscape:connector-curvature="0"
               id="path4235"
               d="m 27.300678,62.89922 0.962432,0.406801 c 0.689686,-1.933291 0.134205,-4.649631 0.134205,-4.649631 0,0 -0.281356,2.342298 -1.096637,4.24283 z"
               style="fill:#000000;fill-opacity:1;fill-rule:evenodd;stroke:none;stroke-width:1px;stroke-linecap:butt;stroke-linejoin:miter;stroke-opacity:1" />
            <path
               style="fill:#000000;fill-opacity:1;fill-rule:evenodd;stroke:none;stroke-width:1px;stroke-linecap:butt;stroke-linejoin:miter;stroke-opacity:1"
               d="m 16.103281,7.9395475 0.176555,-1.0298497 c 1.99996,0.4619999 3.987691,2.3948687 3.987691,2.3948687 0,0 -2.124129,-1.0264476 -4.164246,-1.3650182 z"
               id="path4241"
               inkscape:connector-curvature="0"
               sodipodi:nodetypes="cccc" />
            <path
               sodipodi:nodetypes="cccc"
               inkscape:connector-curvature="0"
               id="path4243"
               d="M 36.068375,2.5560729 33.934193,1.5961385 c -2.56016,0.3219499 -6.142182,4.7402501 -6.015233,4.7719873 0,-0.1150744 6.109298,-3.8817483 8.149415,-3.8120529 z"
               style="fill:#000000;fill-opacity:1;fill-rule:evenodd;stroke:none;stroke-width:1px;stroke-linecap:butt;stroke-linejoin:miter;stroke-opacity:1" />
            <path
               style="fill:#000000;fill-opacity:1;fill-rule:evenodd;stroke:none;stroke-width:1px;stroke-linecap:butt;stroke-linejoin:miter;stroke-opacity:1"
               d="M 41.731511,4.5836153 39.597329,3.6236809 c -2.56016,0.3219499 -6.142182,4.7402501 -6.015233,4.7719873 0,-0.1150744 6.109298,-3.8817483 8.149415,-3.8120529 z"
               id="path4245"
               inkscape:connector-curvature="0"
               sodipodi:nodetypes="cccc" />
            <path
               sodipodi:nodetypes="cccc"
               inkscape:connector-curvature="0"
               id="path4247"
               d="M 47.254816,10.596327 45.120634,9.6363927 c -2.56016,0.3219499 -5.163368,7.3271143 -5.036419,7.3588513 0,-0.115074 5.130484,-6.468612 7.170601,-6.398917 z"
               style="fill:#000000;fill-opacity:1;fill-rule:evenodd;stroke:none;stroke-width:1px;stroke-linecap:butt;stroke-linejoin:miter;stroke-opacity:1" />
            <path
               style="fill:#000000;fill-opacity:1;fill-rule:evenodd;stroke:none;stroke-width:1px;stroke-linecap:butt;stroke-linejoin:miter;stroke-opacity:1"
               d="m 50.051426,14.791242 -2.134182,-0.959934 c -2.56016,0.32195 -4.743877,5.369487 -4.616928,5.401224 0.0254,-0.191271 4.854839,-4.942522 6.75111,-4.44129 z"
               id="path4249"
               inkscape:connector-curvature="0"
               sodipodi:nodetypes="cccc" />
            <path
               sodipodi:nodetypes="cccc"
               inkscape:connector-curvature="0"
               id="path4251"
               d="m 51.379816,18.636581 -2.134182,-0.959934 c -2.56016,0.32195 -5.233284,4.74025 -5.106335,4.771987 0,-0.115074 5.2004,-3.881748 7.240517,-3.812053 z"
               style="fill:#000000;fill-opacity:1;fill-rule:evenodd;stroke:none;stroke-width:1px;stroke-linecap:butt;stroke-linejoin:miter;stroke-opacity:1" />
            <path
               style="fill:#000000;fill-opacity:1;fill-rule:evenodd;stroke:none;stroke-width:1px;stroke-linecap:butt;stroke-linejoin:miter;stroke-opacity:1"
               d="m 52.148884,24.719208 -0.805792,-1.589171 c -2.56016,0.32195 -5.792606,4.74025 -5.665657,4.771987 0,-0.115074 4.431332,-3.252511 6.471449,-3.182816 z"
               id="path4253"
               inkscape:connector-curvature="0"
               sodipodi:nodetypes="cccc" />
            <path
               sodipodi:nodetypes="cccc"
               inkscape:connector-curvature="0"
               id="path4255"
               d="m 51.60407,33.891449 -0.182882,-1.790175 c -2.216295,-1.321404 -6.010635,0.307246 -5.930087,0.410376 0.0708,-0.09072 4.5476,0.06962 6.112969,1.379799 z"
               style="fill:#000000;fill-opacity:1;fill-rule:evenodd;stroke:none;stroke-width:1px;stroke-linecap:butt;stroke-linejoin:miter;stroke-opacity:1" />
            <path
               style="fill:#000000;fill-opacity:1;fill-rule:evenodd;stroke:none;stroke-width:1px;stroke-linecap:butt;stroke-linejoin:miter;stroke-opacity:1"
               d="m 51.799309,27.725565 0.03319,-1.239595 c -2.56016,0.32195 -4.883707,1.873724 -4.756758,1.905461 0,-0.115074 2.683451,-0.735561 4.723568,-0.665866 z"
               id="path4257"
               inkscape:connector-curvature="0"
               sodipodi:nodetypes="cccc" />
            <path
               sodipodi:nodetypes="cccc"
               inkscape:connector-curvature="0"
               id="path4259"
               d="m 51.659478,20.87387 -0.386301,-1.239595 c -2.56016,0.32195 -4.604046,3.831352 -4.477097,3.863089 0,-0.115074 2.823281,-2.693189 4.863398,-2.623494 z"
               style="fill:#000000;fill-opacity:1;fill-rule:evenodd;stroke:none;stroke-width:1px;stroke-linecap:butt;stroke-linejoin:miter;stroke-opacity:1" />
            <path
               style="fill:#000000;fill-opacity:1;fill-rule:evenodd;stroke:none;stroke-width:1px;stroke-linecap:butt;stroke-linejoin:miter;stroke-opacity:1"
               d="M 43.479393,8.2891246 42.673601,7.1194448 c -2.56016,0.32195 -4.464216,3.5516912 -4.337267,3.5834282 0,-0.115074 3.102942,-2.4834434 5.143059,-2.4137484 z"
               id="path4261"
               inkscape:connector-curvature="0"
               sodipodi:nodetypes="cccc" />
            <path
               style="fill:#000000;fill-opacity:1;fill-rule:evenodd;stroke:none;stroke-width:1px;stroke-linecap:butt;stroke-linejoin:miter;stroke-opacity:1"
               d="m 44.764078,30.984328 c 2.311202,-0.507599 4.276683,-0.903534 6.356976,-0.08173 l 0.173845,-1.757561 c -2.10546,-0.634958 -3.978942,0.625368 -6.30412,1.143276 z"
               id="path4263"
               inkscape:connector-curvature="0"
               sodipodi:nodetypes="ccccc" />
            <path
               style="fill:#000000;fill-opacity:1;fill-rule:evenodd;stroke:none;stroke-width:1px;stroke-linecap:butt;stroke-linejoin:miter;stroke-opacity:1"
               d="m 51.254494,36.548229 -0.182882,-1.790175 c -2.066012,-1.772252 -5.994946,1.169077 -5.930087,1.319274 0.0708,-0.267802 4.5476,-1.528573 6.112969,0.470901 z"
               id="path4265"
               inkscape:connector-curvature="0"
               sodipodi:nodetypes="cccc" />
            <path
               sodipodi:nodetypes="cccc"
               inkscape:connector-curvature="0"
               id="path4267"
               d="m 47.595429,43.417279 1.156353,-1.378775 c -0.168906,-2.716754 -5.016437,-3.484461 -5.078948,-3.333272 0.241395,-0.135865 4.265552,2.195968 3.922595,4.712047 z"
               style="fill:#000000;fill-opacity:1;fill-rule:evenodd;stroke:none;stroke-width:1px;stroke-linecap:butt;stroke-linejoin:miter;stroke-opacity:1" />
            <path
               style="fill:#000000;fill-opacity:1;fill-rule:evenodd;stroke:none;stroke-width:1px;stroke-linecap:butt;stroke-linejoin:miter;stroke-opacity:1"
               d="m 45.595429,45.417279 1.156353,-1.378775 c -0.937974,-2.646839 -4.736776,-4.393359 -4.799287,-4.24217 0.241395,-0.135865 3.356654,3.104866 3.642934,5.620945 z"
               id="path4269"
               inkscape:connector-curvature="0"
               sodipodi:nodetypes="cccc" />
            <path
               sodipodi:nodetypes="cccc"
               inkscape:connector-curvature="0"
               id="path4271"
               d="m 43.07848,47.794398 1.156353,-1.378775 c -0.937974,-2.646839 -6.694403,-4.67302 -6.756914,-4.521831 0.241395,-0.135865 5.314281,3.384527 5.600561,5.900606 z"
               style="fill:#000000;fill-opacity:1;fill-rule:evenodd;stroke:none;stroke-width:1px;stroke-linecap:butt;stroke-linejoin:miter;stroke-opacity:1" />
            <path
               style="fill:#000000;fill-opacity:1;fill-rule:evenodd;stroke:none;stroke-width:1px;stroke-linecap:butt;stroke-linejoin:miter;stroke-opacity:1"
               d="m 36.69878,50.900313 1.711576,-0.55559 c 0.608612,-2.741376 -3.196885,-7.512128 -3.330066,-7.417109 0.276705,0.01285 2.710236,5.687814 1.61849,7.972699 z"
               id="path4273"
               inkscape:connector-curvature="0"
               sodipodi:nodetypes="cccc" />
            <path
               sodipodi:nodetypes="cccc"
               inkscape:connector-curvature="0"
               id="path4275"
               d="m 39.49539,49.152431 1.711576,-0.55559 c -0.02062,-2.741376 -2.637563,-4.645603 -2.770744,-4.550584 0.276705,0.01285 2.080999,3.10095 1.059168,5.106174 z"
               style="fill:#000000;fill-opacity:1;fill-rule:evenodd;stroke:none;stroke-width:1px;stroke-linecap:butt;stroke-linejoin:miter;stroke-opacity:1" />
            <path
               style="fill:#000000;fill-opacity:1;fill-rule:evenodd;stroke:none;stroke-width:1px;stroke-linecap:butt;stroke-linejoin:miter;stroke-opacity:1"
               d="m 43.550475,47.054973 1.711576,-0.55559 c -0.02062,-2.741376 -2.637563,-4.645603 -2.770744,-4.550584 0.276705,0.01285 2.080999,3.10095 1.059168,5.106174 z"
               id="path4277"
               inkscape:connector-curvature="0"
               sodipodi:nodetypes="cccc" />
            <path
               sodipodi:nodetypes="cccc"
               inkscape:connector-curvature="0"
               id="path4279"
               d="m 48.025051,41.531668 1.711576,-0.55559 c -0.02062,-2.741376 -2.637563,-4.645603 -2.770744,-4.550584 0.276705,0.01285 2.080999,3.10095 1.059168,5.106174 z"
               style="fill:#000000;fill-opacity:1;fill-rule:evenodd;stroke:none;stroke-width:1px;stroke-linecap:butt;stroke-linejoin:miter;stroke-opacity:1" />
            <path
               style="fill:#000000;fill-opacity:1;fill-rule:evenodd;stroke:none;stroke-width:1px;stroke-linecap:butt;stroke-linejoin:miter;stroke-opacity:1"
               d="m 28.891442,14.468702 -1.711576,0.55559 c 0.02062,2.741376 1.518919,3.94645 1.6521,3.851431 -0.276705,-0.01285 -0.962355,-2.401797 0.05948,-4.407021 z"
               id="path4281"
               inkscape:connector-curvature="0"
               sodipodi:nodetypes="cccc" />
            <path
               sodipodi:nodetypes="cccc"
               inkscape:connector-curvature="0"
               id="path4283"
               d="m 32.107544,13.769549 -1.711576,0.55559 c 0.02062,2.741376 0.47019,4.156196 0.603371,4.061177 -0.276705,-0.01285 0.08637,-2.611543 1.108205,-4.616767 z"
               style="fill:#000000;fill-opacity:1;fill-rule:evenodd;stroke:none;stroke-width:1px;stroke-linecap:butt;stroke-linejoin:miter;stroke-opacity:1" />
            <path
               style="fill:#000000;fill-opacity:1;fill-rule:evenodd;stroke:none;stroke-width:1px;stroke-linecap:butt;stroke-linejoin:miter;stroke-opacity:1"
               d="m 34.974069,13.489888 -1.711576,0.55559 c 0.02062,2.741376 1.518919,4.575688 1.6521,4.480669 -0.276705,-0.01285 -0.962359,-3.031035 0.05948,-5.036259 z"
               id="path4285"
               inkscape:connector-curvature="0"
               sodipodi:nodetypes="cccc" />
            <path
               sodipodi:nodetypes="cccc"
               inkscape:connector-curvature="0"
               id="path4287"
               d="m 37.630848,14.021668 -1.711576,0.55559 c 0.02062,2.741376 0.959597,3.037552 1.092778,2.942533 -0.276705,-0.01285 -0.403037,-1.492899 0.618798,-3.498123 z"
               style="fill:#000000;fill-opacity:1;fill-rule:evenodd;stroke:none;stroke-width:1px;stroke-linecap:butt;stroke-linejoin:miter;stroke-opacity:1" />
            <g
               id="g4295"
               transform="translate(10.431323,8.4043835)">
              <circle
                 r="0.2"
                 cy="1.9266852"
                 cx="16.464952"
                 id="path4289"
                 style="opacity:1;fill:#000000;fill-opacity:1;stroke:none;stroke-width:0.5;stroke-miterlimit:4;stroke-dasharray:none;stroke-opacity:1" />
              <circle
                 style="opacity:1;fill:#000000;fill-opacity:1;stroke:none;stroke-width:0.5;stroke-miterlimit:4;stroke-dasharray:none;stroke-opacity:1"
                 id="circle4291"
                 cx="16.020014"
                 cy="2.6682484"
                 r="0.2" />
              <circle
                 r="0.2"
                 cy="2.816561"
                 cx="16.909889"
                 id="circle4293"
                 style="opacity:1;fill:#000000;fill-opacity:1;stroke:none;stroke-width:0.5;stroke-miterlimit:4;stroke-dasharray:none;stroke-opacity:1" />
            </g>
            <g
               transform="matrix(-0.76920474,0.6390024,-0.6390024,-0.76920474,42.015979,3.2161906)"
               id="g4300">
              <circle
                 style="opacity:1;fill:#000000;fill-opacity:1;stroke:none;stroke-width:0.5;stroke-miterlimit:4;stroke-dasharray:none;stroke-opacity:1"
                 id="circle4302"
                 cx="16.464952"
                 cy="1.9266852"
                 r="0.2" />
              <circle
                 r="0.2"
                 cy="2.6682484"
                 cx="16.020014"
                 id="circle4304"
                 style="opacity:1;fill:#000000;fill-opacity:1;stroke:none;stroke-width:0.5;stroke-miterlimit:4;stroke-dasharray:none;stroke-opacity:1" />
              <circle
                 style="opacity:1;fill:#000000;fill-opacity:1;stroke:none;stroke-width:0.5;stroke-miterlimit:4;stroke-dasharray:none;stroke-opacity:1"
                 id="circle4306"
                 cx="16.909889"
                 cy="2.816561"
                 r="0.2" />
            </g>
            <g
               id="g4308"
               transform="translate(1.4336887,10.431323)">
              <circle
                 r="0.2"
                 cy="1.9266852"
                 cx="16.464952"
                 id="circle4310"
                 style="opacity:1;fill:#000000;fill-opacity:1;stroke:none;stroke-width:0.5;stroke-miterlimit:4;stroke-dasharray:none;stroke-opacity:1" />
              <circle
                 style="opacity:1;fill:#000000;fill-opacity:1;stroke:none;stroke-width:0.5;stroke-miterlimit:4;stroke-dasharray:none;stroke-opacity:1"
                 id="circle4312"
                 cx="16.020014"
                 cy="2.6682484"
                 r="0.2" />
              <circle
                 r="0.2"
                 cy="2.816561"
                 cx="16.909889"
                 id="circle4314"
                 style="opacity:1;fill:#000000;fill-opacity:1;stroke:none;stroke-width:0.5;stroke-miterlimit:4;stroke-dasharray:none;stroke-opacity:1" />
            </g>
            <g
               transform="matrix(0.80162927,0.59782147,-0.59782147,0.80162927,5.72216,2.2946206)"
               id="g4316">
              <circle
                 style="opacity:1;fill:#000000;fill-opacity:1;stroke:none;stroke-width:0.5;stroke-miterlimit:4;stroke-dasharray:none;stroke-opacity:1"
                 id="circle4318"
                 cx="16.464952"
                 cy="1.9266852"
                 r="0.2" />
              <circle
                 r="0.2"
                 cy="2.6682484"
                 cx="16.020014"
                 id="circle4320"
                 style="opacity:1;fill:#000000;fill-opacity:1;stroke:none;stroke-width:0.5;stroke-miterlimit:4;stroke-dasharray:none;stroke-opacity:1" />
              <circle
                 style="opacity:1;fill:#000000;fill-opacity:1;stroke:none;stroke-width:0.5;stroke-miterlimit:4;stroke-dasharray:none;stroke-opacity:1"
                 id="circle4322"
                 cx="16.909889"
                 cy="2.816561"
                 r="0.2" />
            </g>
          </g>
        </g>
      </g>
    </g>
  </g>
</svg>
