<?xml version="1.0" encoding="utf-8"?>
<!-- Generator: Adobe Illustrator 18.0.0, SVG Export Plug-In . SVG Version: 6.00 Build 0)  -->
<!DOCTYPE svg PUBLIC "-//W3C//DTD SVG 1.1//EN" "http://www.w3.org/Graphics/SVG/1.1/DTD/svg11.dtd">
<svg version="1.1" id="Ebene_1" xmlns="http://www.w3.org/2000/svg" xmlns:xlink="http://www.w3.org/1999/xlink" x="0px" y="0px"
	 viewBox="0 0 595 842" enable-background="new 0 0 595 842" xml:space="preserve">
<rect y="24.3" fill="none" width="595" height="793.3"/>
<rect y="24.3" fill="none" width="595" height="793.3"/>
<rect y="24.3" fill="none" width="595" height="793.3"/>
<rect y="24.3" fill="none" width="595" height="793.3"/>
<g>
	<defs>
		<rect id="SVGID_1_" y="24.3" width="595" height="793.3"/>
	</defs>
	<clipPath id="SVGID_2_">
		<use xlink:href="#SVGID_1_"  overflow="visible"/>
	</clipPath>
</g>
<rect y="24.3" fill="none" width="595" height="793.3"/>
<rect y="24.3" fill="none" width="595" height="793.3"/>
<rect y="24.3" fill="none" width="595" height="793.3"/>
<rect y="24.3" fill="none" width="595" height="793.3"/>
<rect y="24.3" fill="none" width="595" height="793.3"/>
<rect y="24.3" fill="none" width="595" height="793.3"/>
<rect y="24.3" fill="none" width="595" height="793.3"/>
<rect y="24.3" fill="none" width="595" height="793.3"/>
<rect y="24.3" fill="none" width="595" height="793.3"/>
<rect y="24.3" fill="none" width="595" height="793.3"/>
<rect y="24.3" fill="none" width="595" height="793.3"/>
<rect y="24.3" fill="none" width="595" height="793.3"/>
<rect y="24.3" fill="none" width="595" height="793.3"/>
<rect y="24.3" fill="none" width="595" height="793.3"/>
<rect y="24.3" fill="none" width="595" height="793.3"/>
<rect y="24.3" fill="none" width="595" height="793.3"/>
<rect y="24.3" fill="none" width="595" height="793.3"/>
<rect y="24.3" fill="none" width="595" height="793.3"/>
<g>
	<defs>
		<rect id="SVGID_3_" y="24.3" width="595" height="793.3"/>
	</defs>
	<clipPath id="SVGID_4_">
		<use xlink:href="#SVGID_3_"  overflow="visible"/>
	</clipPath>
</g>
<rect y="24.3" fill="none" width="595" height="793.3"/>
<rect y="24.3" fill="none" width="595" height="793.3"/>
<g>
	<defs>
		<rect id="SVGID_5_" y="24.3" width="595" height="793.3"/>
	</defs>
	<clipPath id="SVGID_6_">
		<use xlink:href="#SVGID_5_"  overflow="visible"/>
	</clipPath>
</g>
<rect y="24.3" fill="none" width="595" height="793.3"/>
<rect y="24.3" fill="none" width="595" height="793.3"/>
<g>
	<defs>
		<rect id="SVGID_7_" y="24.3" width="595" height="793.3"/>
	</defs>
	<clipPath id="SVGID_8_">
		<use xlink:href="#SVGID_7_"  overflow="visible"/>
	</clipPath>
</g>
<g>
	<defs>
		<rect id="SVGID_9_" y="24.3" width="595" height="793.3"/>
	</defs>
	<clipPath id="SVGID_10_">
		<use xlink:href="#SVGID_9_"  overflow="visible"/>
	</clipPath>
</g>
<g>
	<defs>
		<rect id="SVGID_11_" y="24.3" width="595" height="793.3"/>
	</defs>
	<clipPath id="SVGID_12_">
		<use xlink:href="#SVGID_11_"  overflow="visible"/>
	</clipPath>
</g>
<g>
	<defs>
		<rect id="SVGID_13_" y="24.3" width="595" height="793.3"/>
	</defs>
	<clipPath id="SVGID_14_">
		<use xlink:href="#SVGID_13_"  overflow="visible"/>
	</clipPath>
</g>
<g>
	<defs>
		<rect id="SVGID_15_" y="24.3" width="595" height="793.3"/>
	</defs>
	<clipPath id="SVGID_16_">
		<use xlink:href="#SVGID_15_"  overflow="visible"/>
	</clipPath>
</g>
<g>
	<path fill="#FFCC0D" stroke="#000000" stroke-width="17.5" stroke-miterlimit="10" d="M287.8,223.8l-13.1-73.7c0,0,0,0,7.7-2.4
		c10,36.1,37.8,29.7,35.5-5.1c20.3-1.1,0,0,20.3-1.1c-0.5,34.4,29.9,36.5,35.5,1.3c26.6,5,0,0,26.6,5c-8.8,33.6,21.1,45.2,33.8,10.9
		c5.8,2.2,10.9,3.5,18.6,6.6c-9,30.4,14.7,40.5,30.6,13.4c6.3,3.3,8.6,4.6,8.6,4.6l-54.1,80.1L287.8,223.8z"/>
	<g>
		<path fill="#743A00" stroke="#000000" stroke-width="17.5" stroke-miterlimit="10" d="M219.6,312.6c-5,17.5-19.6,21.3-30,18.3
			c-10.4-3-58-6-57.4-45.2c0.8-51.2,51.3-43.1,61.1-38.6C217.1,258.2,233,265.3,219.6,312.6z"/>
		<g>
			<path fill="#743A00" d="M193.9,338c-10.4-3-62.4-13.1-61.8-52.2c0.8-51.2,51.1-42.7,61.1-38.6c19.7,8.1,34.7,25.6,30.2,53.6"/>
			<path d="M193.9,338c0,0-0.9-0.1-2.7-0.4c-1.8-0.3-4.4-0.6-7.6-1.2c-3.3-0.6-7.3-1.4-11.8-2.7c-2.3-0.6-4.7-1.4-7.2-2.3
				c-2.5-0.9-5.1-2-7.8-3.2c-2.7-1.3-5.4-2.7-8.1-4.5c-2.7-1.8-5.5-3.8-8.1-6.2c-2.6-2.4-5.1-5.2-7.2-8.4c-2.1-3.2-3.9-6.8-5.1-10.7
				c-1.2-3.9-1.8-8-1.9-12.1l0-0.4l0-0.5l0-0.7l0-1.4c0-1,0.1-2.1,0.1-3.1c0.1-2,0.3-4,0.7-6.1c0.6-4.1,1.8-8.2,3.6-12.2
				c0.9-2,1.9-4,3.2-5.8c1.2-1.9,2.6-3.6,4.2-5.3c3.1-3.3,6.8-6,10.8-7.9c4-2,8.1-3.2,12.2-4c4.1-0.8,8.2-1,12.2-1
				c4,0,7.9,0.5,11.7,1.2c1.9,0.4,3.8,0.8,5.6,1.3c0.9,0.3,1.9,0.6,2.8,0.9c0.5,0.2,1,0.4,1.5,0.6l0.5,0.2l0.3,0.1l0.6,0.3
				c0.4,0.2,0.7,0.3,1.2,0.6l1.3,0.7c0.9,0.4,1.6,0.9,2.4,1.3c1.6,0.9,3.1,1.9,4.5,2.9c5.8,4.1,10.5,9.2,13.8,14.5
				c3.3,5.3,5.1,10.8,5.9,15.6c0.8,4.8,0.7,9.1,0.4,12.5c-0.4,3.4-1,6-1.5,7.7c-0.2,0.9-0.4,1.5-0.6,2c-0.1,0.4-0.2,0.7-0.2,0.7
				s0-1,0-2.7c-0.1-1.8-0.2-4.4-0.6-7.6c-0.5-3.2-1.2-7-2.8-11.1c-0.8-2-1.7-4.1-2.9-6.2c-1.2-2.1-2.6-4.1-4.3-6.1
				c-3.3-3.9-7.6-7.6-12.7-10.5c-1.3-0.7-2.6-1.4-4-2.1c-0.7-0.3-1.4-0.7-2.1-0.9l-1-0.4c-0.3-0.1-0.8-0.3-1.2-0.5l-0.6-0.2
				l-0.3-0.1c0,0,0.1,0,0,0l-0.1,0l-0.1,0c-0.3-0.1-0.6-0.2-0.9-0.3c-0.7-0.2-1.4-0.4-2.1-0.6c-1.5-0.3-3.1-0.6-4.7-0.8
				c-3.2-0.4-6.5-0.6-9.8-0.6c-3.3,0-6.6,0.4-9.8,1c-6.4,1.3-12.2,4-16.4,8.4c-2.1,2.2-3.8,4.8-5.2,7.6c-1.4,2.9-2.3,6-3,9.2
				c-0.3,1.6-0.6,3.3-0.8,5c-0.1,0.8-0.2,1.6-0.2,2.4l-0.1,1.4l0,0.7l0,0.2l0,0.3c-0.1,3.2,0.1,6.3,0.8,9.2
				c1.3,5.9,4.4,11.2,8.3,15.7c3.9,4.5,8.6,8,13.1,11c2.3,1.5,4.6,2.8,6.8,4c2.2,1.2,4.4,2.3,6.4,3.2c4.1,1.9,7.8,3.5,10.9,4.7
				c3.1,1.2,5.5,2.2,7.2,2.8C193,337.6,193.9,338,193.9,338z"/>
		</g>
		<g>
			<path d="M203.1,308.1c0,0-0.7-1.3-1.9-3.5c-1.2-2.2-3-5.3-5.2-8.8c-1.1-1.7-2.4-3.6-3.8-5.4c-1.4-1.8-2.9-3.7-4.6-5.4
				c-1.7-1.7-3.6-3.3-5.6-4.7l-0.8-0.5l-0.8-0.5c-0.5-0.3-1.1-0.6-1.6-0.9c-0.5-0.3-1.1-0.5-1.7-0.8l-0.2-0.1l0,0c0.2,0.1,0,0,0.1,0
				l-0.1,0l-0.1,0l-0.5-0.2l-1-0.4c-2.3-0.8-4.9-1.3-7.2-1.4c-0.6,0-1.2,0-1.8,0c-0.6,0-1.1,0.1-1.7,0.2c-1.1,0.2-2.2,0.5-3.2,1
				c-1,0.4-2,1-2.8,1.7c-0.9,0.6-1.7,1.4-2.4,2.2c-0.7,0.8-1.4,1.7-1.9,2.6c-0.5,0.9-1.1,1.8-1.5,2.7c-1.7,3.7-2.3,7.1-2.6,9.6
				c-0.1,1.2-0.1,2.2-0.1,2.9c0,0.7,0,1,0,1s-0.1-0.3-0.3-1c-0.2-0.7-0.5-1.6-0.7-2.9c-0.4-2.5-0.7-6.3,0.5-10.8
				c0.5-2.2,1.5-4.6,3-6.9c1.5-2.3,3.6-4.5,6.3-6.1c2.7-1.6,6-2.5,9.2-2.7c3.3-0.2,6.4,0.3,9.5,1.1l1,0.3l0.5,0.1l0.1,0l0.2,0.1
				l0.3,0.1c0.8,0.3,1.5,0.5,2.3,0.9c0.7,0.3,1.5,0.6,2.2,1l1,0.6l1,0.6c2.7,1.7,5,3.8,6.9,6c1.9,2.2,3.5,4.5,4.7,6.8
				c1.3,2.3,2.2,4.5,3,6.7c1.5,4.2,2.1,7.9,2.4,10.5c0.1,1.3,0.2,2.3,0.2,3C203.1,307.7,203.1,308.1,203.1,308.1z"/>
		</g>
	</g>
	<path fill="#743A00" stroke="#000000" stroke-width="17.5" stroke-miterlimit="10" d="M440.4,307.6c5,17.5,19.6,21.3,30,18.3
		c10.4-3,58-6,57.4-45.2c-0.8-51.2-51.3-43.1-61.1-38.6C442.8,253.2,426.9,260.3,440.4,307.6z"/>
	<path fill="#743A00" d="M486.4,618c13.2,33.6-29.2,49.7-65.2,23.5C366.1,601.5,474.7,588.2,486.4,618z"/>
	<path stroke="#000000" stroke-width="10" stroke-miterlimit="10" d="M445,583.1c21.2,6.1,36.1,16.4,40.7,28.3
		c5.6,14.2,2.7,27.1-7.9,35.3c-13.4,10.4-39.9,11.6-64.4-6.3c-20.2-14.7-13.1-21,5.5-7.5c20.9,15.2,42.6,14.7,53.3,6.5
		c7.2-5.5,8.9-14.2,4.9-24.5c-3.5-9-16.5-17.5-34.6-22.7C409.8,582.6,417.1,575,445,583.1z"/>
	<g>
		<defs>
			<rect id="SVGID_17_" x="-425.3" y="-494.2" width="1487.5" height="1983.3"/>
		</defs>
		<clipPath id="SVGID_18_">
			<use xlink:href="#SVGID_17_"  overflow="visible"/>
		</clipPath>
		<path clip-path="url(#SVGID_18_)" d="M276.8,630.5c1.8,0,3.6,0.3,5.3,1.1c4.9,2,8.2,6.5,8.6,11.8c0.9,11.6,3.5,11.6,9.2,11.6
			c9.7,0,16.6-4,21.7-12.5c2.7-4.5,7.8-7.1,13-6.7c2.8,0.2,5.7,0.3,8.6,0.3c13.6,0,34.8-2.2,59.3-12.7c6.8-2.9,14.7,0,18,6.7
			c0.3,0.5,0.5,1.1,0.7,1.6c2.3-5.6,4.1-11.2,5.6-16.9c0.9-3.2,2.8-6,5.6-8c66.1-45.5,62.9-196.7,39.2-263.8
			c-5-14.2-11.3-27.4-18.8-39.3c-3.3-5.3-33.3-38.2-35.5-39.9c-21.5-16.5-46.6-25.4-74.5-26.2c-2.1-0.1-4.1-0.1-6.2-0.1
			c-58.3,0-109.3,25.8-136.5,69c-0.6,0.9-1.2,1.7-1.9,2.4c-3.5,3.5-8,7.3-12.9,10.9c3.8,2.1,6.6,6,7.1,10.6c0.8,6.6,5,9.2,5.5,9.4
			c6.3,3.5,8.8,11.1,6,17.7c-2.8,6.5-10,9.8-16.7,7.8c0,0,0,0,0,0c-4.8,4-11.7,4.3-16.8,0.8c-2.9,0.7-8.5,3.9-12.2,8.5
			c-2.1,2.6-2.7,4.7-2.6,5.4c0.1,0.9,0.4,1.4,0.6,1.5c4.3,4.7,4.9,11.7,1.4,17.1c-16,24.4-24.4,52.8-24.4,82.1
			c0,16.2,2.6,32.2,7.7,47.6c2.1,6.4-0.6,13.4-6.5,16.6c-5.9,3.2-13.3,1.8-17.5-3.4c-2.4-2.9-3.7-4-4.1-4.3
			c-4.5-3.5-9.2-5.3-13.5-5.3c-3.8,0-7.2,1.5-9.4,4.2c-2.9,3.5-3.8,8.9-2.5,15.1c4.1,19.9,42.3,61,66,66.7c1.2,0.3,2,0.4,2.7,0.5
			c0.3-3-0.5-8.5-2.2-12.3c-0.9-2.1-2.2-4.9-3.7-8c-3-6.2-1-13.7,4.7-17.6c5.7-3.9,13.4-3,18.1,2.1c26.4,28.6,62,45.6,100.5,48.1
			C274.5,630.7,275.7,630.5,276.8,630.5z M343.2,664c-0.9,0-1.8,0-2.7,0c-10.1,12.3-24.3,18.9-40.6,18.9c-10.9,0-28.2-3.5-34.8-24.7
			c-29.9-3-58.2-13.5-82.6-30.3c-0.8,2.5-1.9,5-3.4,7.3c-4.8,7.3-12.7,11.4-22.3,11.4c-3.1,0-6.5-0.4-10-1.3
			c-35.8-8.6-80.7-58.6-86.9-88.2c-3-14.5-0.1-28.2,8.2-38.3c7.5-9.2,18.8-14.5,31-14.5c2.5,0,5.1,0.2,7.6,0.7
			c-1.1-7.9-1.6-15.9-1.6-23.9c0-31.9,8.4-62.8,24.5-90.1c-0.6-1.7-1.1-3.6-1.5-5.5c-1.8-9.5,1.3-19.7,8.7-28.6
			c1.1-1.4,2.3-2.6,3.6-3.9c28-49.2,28-49.2,37-62.6c33.7-52.3,96-82.6,166.3-80.5c32.5,1,61.8,10.9,87.2,29.3
			c24.5,19.3,52,59,67.1,94.6c25.5,72.2,31.6,234.1-45.5,293C423.5,650.1,393.2,663.1,343.2,664z"/>
	</g>
	<path fill="#005683" d="M276.1,645c-87.3-3.8-157-75.8-157-164.1c0-53.7,25.8-101.4,65.7-131.4c28.3,14.7,50.6-12.3,68.1-25.1
		c50.3,12.9,131.4,5.4,186.3,104.6c8.3,15.1,8.4,33.8,8.4,52c0,16.3-2.4,32-6.8,46.9c-40.3-14.9-88.4,3.8-102.4,40.1
		C311.5,616,276.1,645,276.1,645z"/>
	<path fill="#00709C" d="M355.2,469.6c0-69.5-55.8-125.9-125-127c-12.9,9.3-27.7,15.7-44.7,7.3c-0.7,0.3-1.4,0.5-2,0.7
		c-39.1,30-64.4,77.2-64.4,130.4c0,29.1,7.6,56.4,20.9,80.2c22.9,22,53.9,35.5,88.1,35.5C298.3,596.7,355.2,539.8,355.2,469.6z"/>
	<path d="M276.1,649.7c-0.1,0-0.1,0-0.2,0c-90.5-4-161.4-78-161.4-168.7c0-53.6,24.6-102.9,67.6-135.1c2-1.5,5-1.1,6.5,0.9
		c1.5,2.1,1.1,5-0.9,6.5c-40.6,30.5-63.8,77-63.8,127.7c0,85.7,67,155.7,152.6,159.4c2.5,0.1,4.6,2.3,4.4,4.8
		C280.6,647.7,278.6,649.7,276.1,649.7z"/>
	<g>
		<defs>
			<rect id="SVGID_19_" x="-425.3" y="-494.2" width="1487.5" height="1983.3"/>
		</defs>
		<clipPath id="SVGID_20_">
			<use xlink:href="#SVGID_19_"  overflow="visible"/>
		</clipPath>
		<path clip-path="url(#SVGID_20_)" fill="#FFFFFF" d="M221,360.1c-81.7,6.7-134.7,129.9-62.5,194.3
			c73.3,65.3,163.7-19.1,160.6-97.4C316.6,396.3,266.4,357.9,221,360.1 M145.9,416.6c24.9-38.3,72.4-69.4,124.6-31.2
			c-0.3,0-33.5,1.5-9.4,37.1c13,19.2,13.9,34.7,3.6,66c-3.7,15.5-4.8,20.1-8.2,36.1c-15.9-37.9-28.8-70.3-39-111.5
			c9-1.3,19.2-2.8,14-8.6c-0.7-0.7-48.1,4-48.5,4c-3.7,0.6-4.3,4.9-4.3,5c-0.4,3.4,0.2,3.3,10.5,2.7c2.7,14.6,4,21.2,10.6,42.5
			c-4.8,20.1-9.8,40.9-10.5,73c-21.6-43-30.3-72.8-31.9-110.1c3.1-1.8,7.1-1.1,9.9-3.9c1.8-1.9,2.7-6.1,0.4-6.7
			C159.5,409.3,153.3,415.1,145.9,416.6 M259.4,550.7c8.7-37.7,23.2-73.6,31.8-111.3c1.7-7.3,3.1-18.7,0.5-31.3
			C317.2,447.8,314.3,509.5,259.4,550.7 M184.9,561.8c-55.1-25-65.2-84.4-46.7-130C138.9,477,151.5,512.2,184.9,561.8 M217.2,567.1
			c-7,0.5-12.8,0-19.7-1.4c-2.1-21-3.5-47.3,7.1-93.1c19.2,49.9,40.5,86.4,40.6,86.6C241.5,560.9,230.6,566.2,217.2,567.1"/>
	</g>
	<path fill="#743A00" d="M331.9,649.6c25.2,2.3,66.6-2.4,108.5-31.3c75.5-52,68.2-212.8,44.4-279.9
		c-23.8-67.1-73.3-112.6-141.5-114.7c-68.2-2.1-125,27.9-155,75.4c-20.2,32-5.2,49.6,4.1,53.7c9.3,4.1,48.6-11.4,59.9-32
		c26.8,16.5,50.7,11.1,76.5,2.9l55.7,12.6c-39.3-15.5-88.9-6.2-114.7,16.5c-25.8,22.7-8.2,39.3,11.4,41.3
		c19.6,2.1,57.8-15.5,87.8-9.3c30,6.2,39.1,17.2,71.2,46.1c0,0,17.5,70.3,0,97.2c-30.4-17.6-85.5,2.3-101.9,39.8L331.9,649.6z"/>
	<path d="M440.8,532.5c-0.4,0-0.9-0.1-1.3-0.2c-2.4-0.7-3.9-3.3-3.1-5.8c4.4-14.7,6.6-30.1,6.6-45.6c0-17.3-2.8-34.3-8.2-50.5
		c-0.8-2.5,0.5-5.1,2.9-5.9c2.4-0.8,5.1,0.5,5.9,2.9c5.7,17.2,8.6,35.1,8.6,53.4c0,16.4-2.4,32.7-7,48.3
		C444.7,531.2,442.8,532.5,440.8,532.5z"/>
	<path d="M340.2,570.3c-0.7,0-1.4-0.1-2.1-0.5c-2.3-1.1-3.2-3.9-2.1-6.2c12.5-25.5,36-41.7,64.5-44.6c23.5-2.4,46.9,5,57,18
		c1.6,2,1.2,5-0.8,6.5c-2,1.6-5,1.2-6.5-0.8c-8-10.4-28.5-16.4-48.7-14.4c-14.8,1.5-42,8.6-57.1,39.4
		C343.5,569.4,341.9,570.3,340.2,570.3z"/>
	<path d="M343.1,654.7c-4.6,0-8.5-0.2-11.6-0.5c-2.5-0.2-4.4-2.5-4.2-5c0.2-2.6,2.6-4.5,5.1-4.2c16.3,1.4,59.2,1.4,105.4-30.4
		c72.8-50.1,66.4-207.7,42.7-274.6C456,271,406,230.3,343.1,228.4c-64.3-1.9-120.7,25.4-150.9,73.3c-8.2,13.1-11.1,25-8.2,34.4
		c2.1,6.8,6.9,11.1,10.3,12.6c5.8,2.6,43.1-10.3,53.9-30c0.6-1.1,1.7-1.9,2.9-2.3c1.3-0.3,2.6-0.1,3.6,0.5
		c25.4,15.6,54,8.5,78.8,0.6c2.5-0.8,5.1,0.6,5.9,3c0.8,2.5-0.6,5.1-3,5.9c-27.3,8.8-56.1,14.8-82.5,0.8
		c-14.7,20.4-51.9,35.1-63.3,30c-5.5-2.5-12.4-8.6-15.4-18.4c-2.6-8.4-3-22.5,9.3-42c31.9-50.6,91.4-79.6,159-77.6
		c66.8,2,120,44.9,145.7,117.7c11.1,31.5,20.2,89.3,15.3,147.6c-3.9,46.2-17.7,107.6-61.4,137.8
		C402.9,649.8,364.9,654.7,343.1,654.7z"/>
	<path d="M231.8,286.6c-13.1,9.8-9.1,22,5.5,23.8c14.7,1.9,15.8,2.8,29.3-7.3c14.7-11,16.5-29.3,0-27.5
		C250.1,277.5,239.1,281.1,231.8,286.6z"/>
	<path d="M222.4,298.1c0,5.1-4.2,9.3-9.3,9.3c-5.1,0-9.3-4.2-9.3-9.3c0-5.1,4.2-9.3,9.3-9.3C218.3,288.8,222.4,293,222.4,298.1z"/>
	<path d="M329.9,272.3c0,5.1-4.2,9.3-9.3,9.3c-5.1,0-9.3-4.1-9.3-9.3c0-5.1,4.1-9.3,9.3-9.3C325.7,263,329.9,267.2,329.9,272.3z"/>
	<path d="M450.7,443.3c-1.1,0-2.2-0.4-3.1-1.2l-3.7-3.3c-30.1-27.2-48.2-43.6-75.8-49.3c-16.6-3.4-36.4,1-53.8,4.8
		c-13.3,3-24.7,5.5-33.6,4.6c-13.6-1.4-24.5-8.6-27.5-18.3c-2.2-6.8-1.6-17.8,13.6-31.1c28.4-25,80.9-32.6,119.5-17.4
		c2.4,1,3.5,3.6,2.6,6c-1,2.4-3.6,3.6-6,2.6c-35.6-14.1-83.9-7.2-109.9,15.7c-8.9,7.8-12.8,15.4-10.9,21.3
		c1.9,6.1,9.9,10.9,19.7,11.9c7.4,0.8,18.6-1.7,30.5-4.4c18.4-4.1,39.2-8.7,57.7-4.8c30,6.2,49.9,24.2,80.1,51.5l3.7,3.3
		c1.9,1.7,2,4.6,0.3,6.5C453.2,442.7,452,443.3,450.7,443.3z"/>
	<path fill="#743A00" d="M121.2,526.4C96,507,67.5,524.3,73.7,554.3c5.1,24.6,46.7,70.3,76.4,77.4c25.8,6.2,20.6-21.6,16.5-31
		C159.4,584.3,134.6,536.7,121.2,526.4z"/>
	<path d="M99.2,522.9c-6.7,0-12.6,2.7-16.6,7.6c-4.7,5.8-6.3,13.9-4.4,22.9c4.7,22.9,45.4,67.3,73,73.9c2.1,0.5,4,0.7,5.7,0.7
		c4.3,0,5.9-1.7,6.7-2.9c3.4-5.1,1.4-16.3-1.2-22.4c-7.6-17.5-31.8-63.2-44-72.6C112.2,525.4,105.6,522.9,99.2,522.9z M156.9,637.3
		L156.9,637.3c-2.4,0-5-0.3-7.8-1c-31.5-7.5-74.5-54.8-79.9-81c-2.4-11.8-0.2-22.6,6.3-30.6c5.8-7,14.4-11.1,23.8-11.1
		c8.5,0,17,3.2,24.8,9.2c15.3,11.8,41.3,63.4,46.9,76.2c2.3,5.3,6.9,21.3,0.5,31.3C169.2,633.4,165,637.3,156.9,637.3z"/>
	<path fill="#743A00" d="M340.2,632.8c0,0-6.2,36.1-40.3,36.1c-34.1,0-19.6-41.3-23.8-68.2c-4.1-26.9-20.7-62,4.1-78.5
		c24.8-16.5,54.8,32,59.9,50.6C347.4,597.7,346.4,613.2,340.2,632.8z"/>
	<path d="M291,525.1c-2.6,0-5,0.8-7.3,2.3c-14.6,9.8-11.7,27.4-5.5,53.3c1.5,6.4,3.1,13,4,19.2c1.3,8,1,17,0.6,25.7
		c-0.4,13.5-0.9,27.4,4.9,33.4c2.5,2.6,6.5,3.9,12.1,3.9c28.3,0,34-29.8,34.2-31c0.1-0.3,0.1-0.5,0.2-0.8c5.5-17.5,7.2-31.7,0-56.3
		C329.6,558.1,321.9,524.7,291,525.1z M299.9,675.2c-9,0-16.1-2.6-21-7.7c-9.4-9.8-8.9-26.4-8.4-42.4c0.3-8.1,0.5-16.5-0.5-23.4
		c-0.9-5.7-2.3-11.7-3.8-18.2c-5.8-24-12.3-51.2,10.7-66.5c4.4-2.9,9.2-4.4,14.2-4.4c45.3-0.2,50.7,42.4,55.1,58.5
		c7.9,27.3,6.1,43.9,0,63C343.6,648.7,330.7,675.2,299.9,675.2z"/>
	<path fill="#743A00" d="M174.9,352.9c-10.3-4.1-36.2,13.4-33.1,30c3.1,16.5,21.7,16.5,34.1,4.1
		C188.3,374.6,184.9,356.9,174.9,352.9z"/>
	<path d="M171.4,356.9c-5,0-14.1,4.5-20.2,11.8c-2.2,2.7-5.8,7.9-4.8,13.3c1.4,7.6,6.4,9.2,10.4,9.2c5.2,0,11.1-2.8,15.8-7.5
		c5.2-5.2,7.6-12.1,6.3-18.4c-0.8-3.9-2.9-7-5.7-8.1C172.7,357,172.1,356.9,171.4,356.9z M156.8,400.4L156.8,400.4
		c-10.1,0-17.6-6.4-19.5-16.7c-1.3-6.8,1.1-14.2,6.7-20.9c7.3-8.8,18.8-15.1,27.3-15.1c1.9,0,3.7,0.3,5.3,1
		c5.7,2.3,10,7.8,11.4,14.8c1.9,9.4-1.3,19.4-8.8,26.9C172.7,396.7,164.6,400.4,156.8,400.4z"/>
	<g>
		<path fill="#743A00" d="M305,237.7c0,0-42-9.9-50.5-21c-1.9,9.4,9.6,25.2,9.6,25.2s-32.4-5.7-48.1-12.2
			c2.5,15.5,15.3,26.9,15.3,26.9s-12.9,6.6-33.3,2.9c1.8,9.4,18.4,16.6,18.4,16.6"/>
		<path d="M305,237.7c-4.6-0.7-9.1-1.6-13.6-2.6c-2.3-0.5-4.5-1.1-6.7-1.7c-2.2-0.6-4.5-1.2-6.7-1.9c-2.2-0.7-4.4-1.4-6.6-2.2
			c-2.2-0.8-4.4-1.7-6.6-2.6c-1.1-0.5-2.2-1-3.2-1.5c-1.1-0.6-2.1-1.1-3.2-1.8c-0.5-0.3-1.1-0.7-1.6-1c-0.5-0.3-1-0.7-1.5-1.1
			c-1-0.8-2-1.7-2.9-2.8l5.2-1.2c0,0.4,0,0.8-0.1,1.3c0,0.4,0.1,0.9,0.1,1.4c0,0.5,0.2,1,0.2,1.4c0.1,0.5,0.2,1,0.4,1.5
			c0.1,0.5,0.3,1,0.5,1.5l0.5,1.5l0.6,1.5c0.2,0.5,0.5,1,0.7,1.5c0.2,0.5,0.5,1,0.7,1.5c0.3,0.5,0.5,1,0.8,1.4
			c0.5,1,1.1,1.9,1.7,2.8c0.6,0.9,1.2,1.9,1.8,2.8l0.9,1.4c0.3,0.4,0.6,0.9,0.9,1.3l5.2,7l-8.7-1.4c-2.1-0.3-4.1-0.7-6.2-1.1
			l-6.1-1.2c-4.1-0.8-8.2-1.7-12.2-2.7c-2-0.5-4.1-1-6.1-1.5c-2-0.5-4.1-1.1-6.1-1.7c-1-0.3-2-0.6-3-0.9c-1-0.3-2-0.6-3-1l-3-1.1
			l-3-1.2l5-3.9l0.3,1.7l0.2,0.9l0.2,0.9l0.5,1.7l0.6,1.7c0.2,0.6,0.4,1.1,0.7,1.7c0.2,0.6,0.4,1.1,0.7,1.7l0.8,1.6
			c0.3,0.5,0.6,1.1,0.9,1.6c0.3,0.5,0.6,1.1,0.9,1.6c0.3,0.5,0.6,1.1,1,1.6c0.4,0.5,0.7,1,1,1.5l1.1,1.5c0.8,1,1.5,2,2.4,2.9
			c0.4,0.5,0.8,0.9,1.2,1.4c0.4,0.4,0.9,0.9,1.2,1.3l3.2,3.2l-3.9,1.8c-0.5,0.2-0.8,0.4-1.2,0.5c-0.4,0.2-0.7,0.3-1.1,0.4
			c-0.7,0.3-1.4,0.5-2.2,0.7c-1.4,0.4-2.9,0.8-4.4,1c-0.7,0.2-1.5,0.3-2.2,0.4c-0.7,0.1-1.5,0.2-2.2,0.3c-0.7,0.1-1.5,0.2-2.2,0.2
			l-2.2,0.1l-2.2,0c-0.7,0-1.5,0-2.2,0l-2.2-0.1l-2.2-0.2c-0.7-0.1-1.4-0.1-2.2-0.3l-2.2-0.3c-0.7-0.1-1.4-0.3-2.1-0.4l-2.1-0.4l2-2
			l0.3,1.3c0.1,0.4,0.3,0.9,0.5,1.3c0.1,0.4,0.4,0.8,0.7,1.3l0.4,0.6l0.4,0.6c0.3,0.4,0.6,0.8,0.9,1.2l1,1.1l1.1,1.1
			c0.4,0.4,0.8,0.7,1.1,1.1c0.4,0.3,0.8,0.7,1.2,1c0.4,0.3,0.8,0.7,1.2,1c0.8,0.6,1.7,1.3,2.6,1.9c1.7,1.2,3.5,2.4,5.4,3.4
			c-2-0.7-4-1.6-5.9-2.5c-1-0.5-1.9-1-2.9-1.5c-0.5-0.3-0.9-0.6-1.4-0.8c-0.5-0.3-0.9-0.6-1.4-0.9c-0.4-0.3-0.9-0.6-1.3-1l-1.3-1
			l-1.2-1.1c-0.4-0.4-0.8-0.8-1.2-1.2l-0.6-0.6l-0.5-0.7c-0.3-0.5-0.7-0.9-1-1.5c-0.3-0.5-0.6-1-0.8-1.6l-0.6-1.8l-0.8-2.3l2.8,0.3
			l2.1,0.2c0.7,0.1,1.4,0.2,2.1,0.2l2.1,0.1c0.7,0.1,1.4,0.1,2.1,0.1l2.1,0l2-0.1c0.7,0,1.4-0.1,2-0.1l2-0.2l2-0.3
			c0.7-0.1,1.3-0.2,2-0.3c0.7-0.1,1.3-0.2,2-0.4c0.7-0.1,1.3-0.3,2-0.5c1.3-0.3,2.6-0.7,3.8-1.2c0.6-0.2,1.2-0.5,1.8-0.7
			c0.3-0.1,0.6-0.2,0.9-0.4c0.3-0.1,0.6-0.3,0.8-0.4l-0.6,5c-0.6-0.5-1.1-1-1.6-1.5c-0.5-0.5-1-1-1.5-1.5c-1-1-1.9-2-2.8-3.1
			l-1.3-1.6c-0.4-0.5-0.8-1.1-1.2-1.7c-0.4-0.6-0.8-1.1-1.2-1.7c-0.4-0.6-0.8-1.2-1.1-1.8c-0.4-0.6-0.7-1.2-1.1-1.8l-1-1.9
			c-0.3-0.6-0.6-1.3-0.9-1.9c-0.3-0.6-0.6-1.3-0.8-2l-0.8-2c-0.2-0.7-0.4-1.4-0.6-2.1l-0.3-1l-0.2-1.1l-0.4-2.1l-1.3-6.3l6.3,2.4
			l2.8,1l2.8,1c0.9,0.3,1.9,0.6,2.9,0.9c1,0.3,1.9,0.6,2.9,0.9c1.9,0.6,3.9,1.1,5.9,1.6c2,0.5,4,1,6,1.5c4,1,8,1.9,12,2.7l6,1.3
			l6,1.2l-3.5,5.6c-0.4-0.6-0.7-1-1-1.5l-1-1.5c-0.6-1-1.2-2-1.8-3.1c-0.6-1-1.1-2.1-1.7-3.2c-0.3-0.5-0.5-1.1-0.8-1.6
			c-0.3-0.5-0.5-1.1-0.7-1.7c-0.2-0.6-0.5-1.1-0.7-1.7L253,228c-0.2-0.6-0.4-1.2-0.6-1.8c-0.2-0.6-0.3-1.2-0.5-1.9
			c-0.1-0.6-0.3-1.2-0.4-1.9c-0.1-0.7-0.2-1.3-0.2-2c0-0.7,0-1.4,0-2.1c0.1-0.7,0.2-1.5,0.3-2.2l1-6.5l4.2,5.3
			c0.5,0.7,1.1,1.4,1.9,2.1c0.4,0.3,0.8,0.7,1.2,1c0.4,0.3,0.8,0.6,1.3,0.9c0.9,0.6,1.8,1.2,2.7,1.8c0.9,0.6,1.9,1.1,2.9,1.7
			c2,1.1,4,2.1,6,3c2.1,0.9,4.2,1.8,6.3,2.7c2.1,0.9,4.2,1.7,6.4,2.6l6.4,2.4C296.3,234.7,300.7,236.3,305,237.7z"/>
	</g>
	<g>
		<path fill="#743A00" d="M419.2,528.4c0,0-24.5-2.2-34.9-7.6c1.7,7.9,3.6,13.7,3.6,13.7s-20.7,1.1-33.2-2.8
			c3,11.8,8.9,16.4,8.9,16.4"/>
		<path d="M419.2,528.4c-1.5,0.1-3,0.2-4.5,0.2c-1.5,0-3,0.1-4.5,0c-3,0-6.1-0.2-9.1-0.5c-1.5-0.2-3-0.3-4.5-0.6
			c-1.5-0.2-3-0.5-4.6-0.8c-3-0.7-6.1-1.5-9.2-2.9l4.9-3.7c0.3,1.1,0.6,2.2,0.9,3.3l0.9,3.3l1,3.3l0.5,1.6l0.5,1.6l1.6,4.8l-4.9,0.2
			l-2.2,0.1l-2.1,0c-1.4,0-2.9,0-4.3,0c-1.4,0-2.9-0.1-4.3-0.2c-1.4-0.1-2.9-0.2-4.3-0.4c-1.4-0.1-2.8-0.3-4.3-0.5
			c-1.4-0.2-2.8-0.5-4.3-0.7c-0.7-0.1-1.4-0.3-2.1-0.5c-0.7-0.2-1.4-0.3-2.1-0.6c-0.7-0.2-1.4-0.4-2.1-0.6l-2.1-0.7l3.2-3
			c0.1,0.7,0.3,1.5,0.4,2.2c0.2,0.7,0.3,1.5,0.5,2.2c0.2,0.7,0.4,1.5,0.6,2.2c0.1,0.4,0.2,0.7,0.3,1.1l0.4,1.1
			c0.1,0.4,0.3,0.7,0.4,1.1c0.1,0.4,0.3,0.7,0.4,1.1c0.3,0.7,0.6,1.4,1,2.1c0.4,0.7,0.7,1.4,1.1,2c0.4,0.7,0.8,1.3,1.3,2
			c-0.7-0.4-1.4-0.9-2-1.4c-0.6-0.5-1.2-1.1-1.8-1.7c-1.2-1.2-2.2-2.5-3.1-3.8l-0.7-1c-0.2-0.3-0.4-0.7-0.6-1.1
			c-0.2-0.4-0.4-0.7-0.6-1.1l-0.6-1.1c-0.4-0.7-0.7-1.5-1-2.3c-0.3-0.8-0.6-1.6-0.9-2.3l-1.5-3.9l4.7,0.9l1.9,0.4
			c0.6,0.1,1.3,0.2,2,0.3c0.7,0.1,1.3,0.2,2,0.3c0.7,0.1,1.3,0.2,2,0.2c1.3,0.1,2.7,0.2,4,0.3c0.7,0,1.3,0.1,2,0.1l2,0.1
			c1.4,0,2.7,0.1,4.1,0.1c1.4,0,2.7,0,4.1,0l4.1-0.1l2-0.1l2-0.1l-3.3,4.9l-0.3-0.9l-0.3-0.9l-0.5-1.8c-0.3-1.2-0.6-2.3-0.9-3.5
			c-0.3-1.2-0.6-2.4-0.8-3.5c-0.2-1.2-0.4-2.4-0.6-3.6l-1.2-7.2l6.1,3.4c0.6,0.3,1.1,0.6,1.7,0.9c0.6,0.3,1.2,0.6,1.9,0.8
			c1.3,0.5,2.6,1,4,1.5c2.7,0.9,5.5,1.8,8.4,2.6c2.8,0.8,5.7,1.6,8.6,2.4l4.3,1.2C416.3,527.6,417.8,528,419.2,528.4z"/>
	</g>
	<g>
		<path fill="#743A00" d="M425.1,622.5c0,0-32.7,28.7-34.7,39.4c-4.6-5.8-10.6-14.7-10.6-14.7S364.2,660,355.7,670
			c-3.8-11.6-0.4-28.1-0.4-28.1"/>
		<path d="M425.1,622.5c-1.3,1.8-2.7,3.6-4.1,5.3l-4.1,5.2l-8.2,10.3c-1.4,1.7-2.7,3.4-4,5.2c-1.3,1.7-2.5,3.5-3.8,5.2
			c-1.2,1.7-2.3,3.5-3.3,5.1c-0.5,0.8-0.9,1.7-1.2,2.4c-0.3,0.7-0.5,1.5-0.5,1.6l1,15l-11-12.4c-1.1-1.2-2.1-2.4-3.1-3.6
			c-1-1.2-2-2.4-2.9-3.6c-0.9-1.2-1.9-2.5-2.7-3.7c-0.5-0.6-0.9-1.3-1.3-1.9l-1.3-1.9l9.2,1.3l-12.5,10.3l-6.2,5.2l-3.1,2.6
			c-0.5,0.4-1,0.9-1.5,1.3c-0.5,0.4-1,0.9-1.5,1.3l-5.8,4.8l-1.4-6.2c-0.3-1.3-0.5-2.7-0.7-4c-0.1-1.3-0.2-2.6-0.2-3.9
			c0-1.3,0-2.5,0.1-3.8c0.1-1.2,0.2-2.5,0.4-3.7c0.4-2.4,0.9-4.8,1.5-7.2c0.3-1.2,0.7-2.3,1.1-3.5c0.4-1.1,0.8-2.3,1.3-3.4
			c0,1.2,0.1,2.4,0.1,3.6l0.2,3.6c0.2,2.4,0.4,4.7,0.7,7c0.3,2.3,0.7,4.5,1.2,6.7c0.5,2.1,1.2,4.2,2,6l-7.2-1.4
			c0.4-0.6,0.8-1.2,1.2-1.8c0.4-0.6,0.9-1.2,1.3-1.8c0.4-0.6,0.9-1.2,1.3-1.7l1.4-1.7c0.9-1.1,1.8-2.2,2.8-3.2
			c0.9-1.1,1.9-2.1,2.9-3.1c2-2,4-4,6-6c1-1,2.1-1.9,3.1-2.8l1.6-1.4l1.6-1.4l5.3-4.4l3.9,5.8l5,7.4l2.5,3.7
			c0.8,1.2,1.6,2.4,2.4,3.6l-10,2.5c0.4-2,1.1-3.3,1.8-4.5c0.7-1.2,1.4-2.3,2.1-3.3c1.5-2,3-3.8,4.6-5.5c1.6-1.7,3.2-3.3,4.9-4.9
			c1.6-1.6,3.4-3,5.1-4.5c1.7-1.5,3.5-2.9,5.2-4.3c1.8-1.4,3.6-2.7,5.4-4c1.8-1.3,3.7-2.6,5.5-3.8c0.9-0.6,1.9-1.2,2.8-1.8
			C423.1,623.6,424.1,623,425.1,622.5z"/>
	</g>
	<g>
		<path fill="#743A00" d="M477.2,566c0,0,3.4,12.2,12.9,12.5c-4.8-17.1-0.5-26.7-0.5-26.7s13.4,10.9,29,10.8
			c-9-14.4-19.9-45.5-19.9-45.5s24.1,7.1,33.1,3.6c-12.3-6.6-35.5-44.6-35.5-44.6s22.9,9.4,35,6.3c-13.5-8.3-37.3-36.8-37.3-36.8
			s15.6,0.7,27.1,0.7c-7.1-3.8-28.7-27.5-28.7-27.5s21.3,6.7,35.8-0.1c-21.3-11-40.4-41-40.4-41s10.9,6.8,28.4,6.1
			c-13.2-8-41.3-57-41.3-57"/>
		<path d="M477.2,566c0.6,1.5,1.3,2.9,2.2,4.2c0.8,1.3,1.8,2.6,2.9,3.6c1.1,1.1,2.4,1.9,3.7,2.5c0.3,0.1,0.7,0.3,1,0.4
			c0.3,0.1,0.7,0.2,1,0.3c0.4,0.1,0.7,0.1,1.1,0.1c0.4,0,0.7,0,1.1,0l-1.3,1.7c-0.3-1.1-0.7-2.2-1-3.3c-0.3-1.1-0.6-2.2-0.9-3.4
			l-0.4-1.7c-0.1-0.6-0.2-1.2-0.3-1.7c-0.1-0.6-0.2-1.2-0.3-1.7l-0.2-1.8c-0.1-0.6-0.1-1.2-0.1-1.8c0-0.6-0.1-1.2-0.1-1.8
			c0-0.6,0-1.2,0-1.8c0-0.6,0-1.2,0.1-1.8c0.1-0.6,0.1-1.2,0.2-1.8c0.1-0.6,0.2-1.2,0.3-1.8c0.1-0.6,0.2-1.2,0.4-1.8
			c0.1-0.3,0.2-0.6,0.3-0.9c0.1-0.3,0.2-0.6,0.4-1l1.2-3.1l2.9,2.1c0.4,0.3,1,0.7,1.5,1c0.5,0.3,1,0.7,1.6,1
			c1.1,0.6,2.2,1.2,3.3,1.8c2.2,1.1,4.5,2.1,6.8,3c2.3,0.8,4.7,1.5,7.1,1.9c2.4,0.4,4.8,0.6,7.1,0.5l-3.1,5.6l-1.7-2.8l-1.6-2.8
			c-0.6-0.9-1-1.9-1.5-2.8c-0.5-0.9-1-1.9-1.5-2.8c-1-1.9-1.9-3.8-2.8-5.7c-0.9-1.9-1.8-3.8-2.6-5.7c-1.7-3.8-3.3-7.7-4.9-11.5
			l-2.3-5.8c-0.8-2-1.5-3.9-2.3-5.9L491,510l9.2,2.4l1.9,0.5l2,0.5c1.3,0.3,2.7,0.6,4,0.9c2.7,0.5,5.3,1,8,1.4
			c2.6,0.4,5.3,0.6,7.8,0.7c0.6,0,1.2,0,1.8,0c0.6,0,1.2-0.1,1.7-0.1c0.5-0.1,1.1-0.1,1.5-0.2c0.2,0,0.4-0.1,0.6-0.2l0.5-0.2
			l-0.6,9.8c-1.4-0.8-2.7-1.6-3.8-2.5c-0.6-0.4-1.1-0.9-1.6-1.3c-0.5-0.4-1-0.9-1.5-1.3c-1-0.9-1.9-1.8-2.8-2.7
			c-0.9-0.9-1.7-1.8-2.6-2.8c-3.4-3.7-6.4-7.6-9.3-11.5c-2.9-3.9-5.8-7.9-8.5-11.9c-1.4-2-2.7-4-4.1-6l-2-3.1l-2-3.1l-9.6-15.2
			l17.1,6.5l1.9,0.7l2,0.7c1.4,0.5,2.7,0.9,4.1,1.3c2.7,0.8,5.5,1.6,8.2,2.2c2.7,0.6,5.4,1,8,1.3c0.6,0,1.3,0.1,1.9,0.1
			c0.6,0,1.2,0,1.8,0c0.6,0,1.1-0.1,1.7-0.1l0.8-0.1l0.7-0.2l-1.7,11.3l-1.6-1l-1.5-1.1c-1-0.7-1.9-1.4-2.8-2.2
			c-1.8-1.5-3.6-3-5.3-4.5c-3.4-3.1-6.6-6.2-9.7-9.4c-3.1-3.2-6.1-6.5-9.1-9.8l-4.4-5l-2.2-2.5l-2.2-2.6l-9-10.7l14,0.6l6.7,0.3
			l6.7,0.2c4.5,0.1,9,0.2,13.4,0.3l-2.9,11.3c-1.1-0.6-2-1.2-2.8-1.8c-0.8-0.6-1.5-1.2-2.2-1.7c-1.4-1.2-2.7-2.3-4-3.5
			c-2.5-2.4-4.9-4.7-7.3-7.1c-2.4-2.4-4.7-4.8-7-7.3l-3.4-3.7l-3.4-3.7l-14.5-15.9l20.5,6.6c0.5,0.2,1.2,0.4,1.9,0.5
			c0.7,0.2,1.4,0.3,2,0.5c1.4,0.3,2.8,0.6,4.2,0.9c2.8,0.5,5.6,0.8,8.4,1c2.8,0.1,5.5,0.1,8.1-0.3c0.6-0.1,1.3-0.2,1.9-0.3
			c0.6-0.1,1.3-0.3,1.9-0.4c0.6-0.2,1.2-0.3,1.8-0.5c0.6-0.2,1.1-0.4,1.7-0.7l-0.2,9.4c-1.2-0.7-2.3-1.3-3.4-2
			c-1.1-0.7-2.2-1.4-3.3-2.2c-1.1-0.8-2.1-1.5-3.1-2.3c-1-0.8-2-1.6-3-2.4c-3.9-3.3-7.4-6.9-10.7-10.6c-3.3-3.7-6.5-7.6-9.4-11.6
			c-1.5-2-2.9-4-4.3-6.1l-2.1-3.1c-0.7-1.1-1.3-2.1-2-3.2l-9.4-15.5l14.7,10.1c0.1,0.1,0.4,0.2,0.6,0.3c0.2,0.1,0.5,0.3,0.7,0.4
			c0.5,0.3,1,0.5,1.5,0.7c1,0.5,2.1,0.9,3.1,1.3c0.5,0.2,1.1,0.4,1.6,0.6c0.5,0.2,1.1,0.4,1.6,0.5c1.1,0.3,2.2,0.6,3.3,0.9
			c0.6,0.1,1.1,0.2,1.7,0.4c0.6,0.1,1.1,0.2,1.7,0.3l1.7,0.3l1.7,0.2c1.2,0.2,2.3,0.2,3.5,0.3c0.6,0.1,1.2,0,1.7,0.1l1.8,0l-1.5,5.6
			c-1.5-1-2.7-2.1-3.9-3.2c-1.1-1.1-2.2-2.3-3.2-3.4c-2-2.3-3.8-4.7-5.6-7.1c-3.5-4.9-6.8-9.8-9.8-14.9c-3.1-5.1-6.1-10.2-9-15.3
			c-2.8-5.2-5.7-10.4-8.3-15.7c3.3,4.9,6.5,9.8,9.9,14.7c3.3,4.9,6.7,9.7,10.2,14.4c3.5,4.7,7,9.4,10.8,13.9
			c1.9,2.2,3.8,4.4,5.8,6.4c1,1,2,2,3.1,2.9c1,0.9,2.1,1.7,3.1,2.2l9.1,5.1l-10.6,0.5l-1.9,0.1c-0.6,0-1.3,0.1-1.9,0.1
			c-1.3,0-2.6,0-3.9-0.1l-1.9-0.1l-1.9-0.2c-0.6-0.1-1.3-0.1-1.9-0.2c-0.6-0.1-1.3-0.2-1.9-0.3c-1.3-0.2-2.6-0.5-3.8-0.8
			c-0.6-0.1-1.3-0.3-1.9-0.5c-0.6-0.2-1.3-0.4-1.9-0.6c-1.3-0.4-2.5-0.8-3.7-1.3c-0.6-0.3-1.2-0.5-1.9-0.8c-0.3-0.1-0.6-0.3-0.9-0.4
			c-0.3-0.2-0.6-0.3-1-0.5l5.3-5.4c0.6,0.9,1.3,1.9,2,2.8l2.1,2.8c1.4,1.9,2.9,3.7,4.4,5.5c3,3.7,6.1,7.2,9.4,10.5
			c3.3,3.3,6.7,6.5,10.3,9.4c0.9,0.7,1.8,1.4,2.7,2.1c0.9,0.7,1.8,1.3,2.8,1.9c0.9,0.6,1.9,1.2,2.8,1.7c0.9,0.6,1.9,1,2.9,1.6l9.6,5
			l-9.8,4.4c-0.8,0.4-1.7,0.8-2.5,1.1c-0.8,0.3-1.7,0.6-2.5,0.9c-0.9,0.2-1.7,0.5-2.6,0.7c-0.9,0.2-1.7,0.3-2.6,0.5
			c-3.4,0.5-6.8,0.7-10.1,0.6c-3.3-0.1-6.6-0.4-9.8-0.9c-1.6-0.2-3.2-0.5-4.8-0.9c-0.8-0.2-1.6-0.3-2.4-0.5
			c-0.8-0.2-1.5-0.4-2.5-0.7l6-9.3l3.4,3.6l3.4,3.5c2.3,2.4,4.6,4.7,6.9,7c2.3,2.3,4.7,4.5,7,6.7c1.2,1.1,2.4,2.1,3.5,3.1
			c0.6,0.5,1.2,0.9,1.7,1.3c0.5,0.4,1.1,0.7,1.4,0.9l19.4,11.2l-22.3,0.1c-4.6,0-9.2,0-13.7-0.1l-6.8-0.2l-6.8-0.2l5-10.1l4.2,4.9
			l4.3,4.8c2.9,3.2,5.8,6.3,8.8,9.4c3,3.1,6,6.1,9.1,8.9c1.5,1.4,3.1,2.8,4.7,4.1c0.8,0.6,1.6,1.2,2.4,1.8l1.2,0.8l1.1,0.8l12.4,8.2
			l-14.1,3.1l-1.5,0.3L530,489c-1,0.1-1.9,0.2-2.8,0.2c-0.9,0-1.8,0-2.7,0c-0.9,0-1.7-0.1-2.6-0.1c-3.4-0.3-6.6-0.9-9.7-1.6
			c-3.1-0.7-6.2-1.6-9.2-2.6c-1.5-0.5-3-1-4.5-1.5l-2.2-0.8c-0.8-0.3-1.4-0.6-2.3-0.9l7.4-8.7l1.8,3l1.9,3c1.3,2,2.5,4,3.8,5.9
			c2.6,3.9,5.2,7.8,8,11.6c2.7,3.8,5.6,7.5,8.5,11c0.7,0.9,1.5,1.7,2.2,2.5c0.8,0.8,1.5,1.6,2.3,2.4c0.4,0.4,0.8,0.7,1.1,1.1
			c0.4,0.4,0.8,0.7,1.1,1c0.8,0.7,1.5,1.1,2.1,1.5l10,6.3l-10.6,3.5c-0.5,0.2-1,0.3-1.5,0.5c-0.5,0.1-1,0.2-1.4,0.3
			c-0.9,0.2-1.8,0.3-2.7,0.3c-0.8,0.1-1.7,0.1-2.5,0.1c-0.8,0-1.6,0-2.4-0.1c-3.1-0.1-6.1-0.6-9-1.1c-2.9-0.5-5.7-1.1-8.6-1.8
			c-1.4-0.3-2.8-0.7-4.2-1.1l-2.1-0.6l-2.1-0.6l6-6.3c0.6,1.9,1.3,3.9,2,5.8l2.1,5.8c1.4,3.9,2.8,7.7,4.4,11.5
			c0.7,1.9,1.5,3.8,2.3,5.7c0.8,1.9,1.6,3.8,2.4,5.6c0.4,0.9,0.8,1.9,1.2,2.8c0.4,0.9,0.8,1.8,1.3,2.7l1.3,2.7l1.4,2.6l3.2,5.8
			l-6.3-0.2c-2.9-0.1-5.8-0.5-8.5-1.1c-2.8-0.6-5.4-1.6-8-2.6c-2.6-1.1-5-2.4-7.4-3.8c-1.2-0.7-2.3-1.5-3.5-2.3
			c-0.6-0.4-1.1-0.8-1.7-1.2c-0.6-0.4-1.1-0.8-1.7-1.3l4.1-1c0,0.1-0.2,0.3-0.2,0.5c-0.1,0.2-0.2,0.5-0.3,0.7
			c-0.2,0.5-0.3,1-0.4,1.5c-0.1,0.5-0.3,1-0.4,1.5c-0.1,0.5-0.2,1-0.3,1.6c-0.1,0.5-0.1,1.1-0.2,1.6c-0.1,0.5-0.1,1.1-0.2,1.6
			c-0.1,0.5-0.1,1.1-0.1,1.6c0,0.5-0.1,1.1,0,1.6l0,1.6c0,0.5,0,1.1,0.1,1.6c0,0.5,0,1.1,0.1,1.6l0.2,1.6c0.1,1.1,0.3,2.2,0.4,3.3
			c0.2,1.1,0.4,2.2,0.6,3.3l0.4,1.9l-1.7-0.2c-0.4-0.1-0.9-0.1-1.3-0.2c-0.4-0.1-0.9-0.2-1.3-0.3c-0.4-0.1-0.8-0.3-1.2-0.5
			c-0.4-0.2-0.8-0.4-1.2-0.6c-1.5-0.9-2.8-2.1-3.8-3.4c-1-1.3-1.8-2.8-2.5-4.2C478.1,569.1,477.6,567.6,477.2,566z"/>
	</g>
	<g>
		<path fill="#743A00" d="M466,328c10.4-3,62.4-8.1,61.8-47.2c-0.8-51.2-51.1-42.7-61.1-38.6c-19.7,8.1-34.7,25.6-30.2,53.6"/>
		<path d="M466,328c0,0,0.9-0.4,2.5-1c1.7-0.6,4.1-1.4,7.3-2.4c3.1-1,6.9-2.3,11.1-3.9c4.2-1.6,8.8-3.6,13.5-6.3
			c2.3-1.3,4.7-2.8,6.9-4.5c2.3-1.7,4.4-3.6,6.4-5.7c1.9-2.1,3.7-4.5,5-7c1.4-2.6,2.3-5.3,2.9-8.2c0.3-1.5,0.5-3,0.5-4.5
			c0.1-1.6,0-3-0.1-4.7l-0.1-1.3l-0.1-1.2c-0.1-0.8-0.2-1.6-0.3-2.4c-0.2-1.6-0.5-3.3-0.9-4.8c-0.7-3.2-1.8-6.2-3.2-9
			c-1.5-2.7-3.2-5.2-5.4-7.3c-4.4-4.1-10.2-6.7-16.6-7.9c-6.4-1.2-13.1-1.1-19.4-0.1c-1.6,0.2-3.1,0.5-4.6,0.9
			c-0.7,0.2-1.4,0.4-2.1,0.6l-0.4,0.1l-0.1,0c0,0-0.1,0,0,0l-0.1,0l-0.3,0.1l-1.2,0.5c-0.8,0.3-1.4,0.6-2.1,0.9
			c-0.7,0.3-1.4,0.6-2.1,1c-1.4,0.7-2.7,1.4-3.9,2.1c-5,3-9.3,6.6-12.5,10.5c-3.2,4-5.5,8.2-7,12.2c-1.5,4-2.3,7.8-2.7,11
			c-0.4,3.2-0.5,5.8-0.6,7.5c0,1.8,0,2.7,0,2.7s-0.1-0.2-0.2-0.7c-0.1-0.4-0.3-1.1-0.6-2c-0.4-1.7-1.1-4.3-1.5-7.6
			c-0.3-3.4-0.5-7.5,0.3-12.3c0.4-2.4,1-4.9,1.9-7.6c0.9-2.6,2.2-5.3,3.7-7.9c3.1-5.3,7.8-10.3,13.5-14.5c1.4-1,2.9-2,4.5-2.9
			c0.8-0.5,1.6-0.9,2.4-1.3c0.8-0.4,1.7-0.9,2.5-1.3l1.1-0.5l0.3-0.1l0.1,0l0.2-0.1l0.2-0.1c0.3-0.1,0.5-0.2,0.8-0.3
			c1-0.4,1.9-0.7,2.9-1c1.9-0.6,3.7-1,5.6-1.4c3.8-0.7,7.6-1.2,11.5-1.3c3.9-0.1,8,0.1,12.1,0.8c4.1,0.7,8.2,1.9,12.2,3.7
			c4,1.8,7.7,4.3,10.9,7.4c3.2,3.1,5.8,6.8,7.7,10.7c1,2,1.8,4,2.4,6c0.7,2,1.2,4,1.5,6.1c0.4,2,0.6,4,0.8,6c0.1,1,0.2,2,0.2,3
			l0.1,1.5l0,1.4c0,1.9-0.1,4-0.3,6c-0.2,2-0.6,4-1.1,6c-1,3.9-2.7,7.6-4.8,10.9c-2.1,3.3-4.6,6.1-7.3,8.4c-2.7,2.4-5.5,4.3-8.3,5.9
			c-2.8,1.6-5.6,2.9-8.4,4c-5.5,2.2-10.6,3.5-15.2,4.4c-4.6,0.9-8.6,1.5-11.8,1.8c-3.3,0.4-5.9,0.6-7.6,0.8
			C467,327.8,466,328,466,328z"/>
	</g>
	<g>
		<path d="M456.9,303.1c0,0,0-0.4,0-1.1c0-0.7,0-1.7,0.2-3c0.2-2.6,0.9-6.2,2.4-10.5c0.8-2.1,1.7-4.4,3-6.7c1.3-2.3,2.8-4.6,4.7-6.8
			c1.9-2.2,4.2-4.3,6.9-6l1-0.6l1-0.6c0.7-0.4,1.4-0.7,2.2-1c0.7-0.3,1.5-0.6,2.3-0.9l0.3-0.1l0.2-0.1l0.1,0l0.5-0.1l1-0.3
			c3.1-0.9,6.3-1.3,9.5-1.1c3.2,0.2,6.5,1.1,9.2,2.7c2.7,1.6,4.9,3.8,6.3,6.1c1.5,2.3,2.4,4.7,3,6.9c1.1,4.5,0.8,8.2,0.5,10.8
			c-0.2,1.3-0.5,2.2-0.7,2.9c-0.2,0.6-0.3,1-0.3,1s0-0.4,0-1c0-0.7,0-1.7-0.1-2.9c-0.2-2.4-0.9-5.9-2.6-9.6
			c-0.4-0.9-0.9-1.8-1.5-2.7c-0.6-0.9-1.2-1.8-1.9-2.6c-0.7-0.8-1.5-1.6-2.4-2.2c-0.9-0.7-1.8-1.2-2.8-1.7c-1-0.5-2.1-0.7-3.2-1
			c-0.6-0.1-1.1-0.2-1.7-0.2c-0.6-0.1-1.2-0.1-1.8,0c-2.4,0.1-4.9,0.6-7.2,1.4l-1,0.4l-0.5,0.2l-0.1,0l-0.1,0c0,0-0.1,0,0.1,0l0,0
			l-0.2,0.1c-0.6,0.3-1.1,0.5-1.7,0.8c-0.5,0.3-1.1,0.6-1.6,0.9l-0.8,0.5l-0.8,0.5c-2,1.4-3.9,3-5.6,4.7c-1.7,1.7-3.2,3.6-4.6,5.4
			c-1.4,1.8-2.7,3.7-3.8,5.4c-2.2,3.5-4,6.6-5.2,8.8C457.6,301.8,456.9,303.1,456.9,303.1z"/>
	</g>
	<path fill="none" stroke="#000000" stroke-width="10" stroke-miterlimit="10" d="M282.5,202.7c0,0,41.5-16.7,86.9-8.1
		s86.9,36.5,86.9,36.5"/>
	<path d="M81.6,575.9c-7.2-9-3.3-26.4,5.8-31.7c13.8-8,28.2-4.3,33.8,1.5c10.4,12.8-9.5,13.1-17.1,18.9
		C96.4,570.5,88.8,585,81.6,575.9z"/>
	<path d="M270.4,563c1.2-11.5,16.2-21.1,26.3-18.5c15.5,4,23.1,16.8,23,24.8c-1.6,16.4-16,2.7-25.5,1.4
		C284.8,569.5,269.2,574.4,270.4,563z"/>
	<g>
		<ellipse transform="matrix(0.6523 0.7579 -0.7579 0.6523 433.0073 129.2795)" cx="75.6" cy="536.6" rx="8.7" ry="6.3"/>
		<ellipse transform="matrix(0.6523 0.7579 -0.7579 0.6523 428.6333 117.3698)" cx="86.4" cy="525.9" rx="9.4" ry="6.8"/>
		<ellipse transform="matrix(0.6523 0.7579 -0.7579 0.6523 432.2626 104.507)" cx="102.2" cy="523.4" rx="9.4" ry="6.7"/>
	</g>
	<g>
		<ellipse transform="matrix(0.2057 0.9786 -0.9786 0.2057 742.244 156.3259)" cx="274.8" cy="535.4" rx="9.4" ry="6.7"/>
		<ellipse transform="matrix(0.1726 0.985 -0.985 0.1726 759.0239 152.0254)" cx="289" cy="527.8" rx="10.2" ry="7.3"/>
		
			<ellipse transform="matrix(1.355936e-002 0.9999 -0.9999 1.355936e-002 831.3329 217.8671)" cx="305.2" cy="530.3" rx="10.7" ry="7.7"/>
		<ellipse transform="matrix(-0.1569 0.9876 -0.9876 -0.1569 905.6814 309.9268)" cx="320.6" cy="541.5" rx="10.7" ry="7.7"/>
	</g>
	<g>
		<polygon points="61.4,534.4 55.8,521.2 66.8,527.5 		"/>
		<polygon points="68.7,520.9 65.6,507 75.3,515.2 		"/>
		<polygon points="80.8,511.6 80.7,496 89.2,506.9 		"/>
		<polygon points="95.2,509.9 99.1,494.7 104.5,507.5 		"/>
	</g>
	<g>
		<polygon points="297.3,396.8 288.3,407.9 288.7,395.2 		"/>
		<polygon points="282,396.6 271.1,405.9 273.8,393.5 		"/>
		<polygon points="268.1,390.3 254.4,397.8 260,385.1 		"/>
		<polygon points="259.8,378.4 244.6,382.1 253.3,371.3 		"/>
	</g>
	<g>
		<polygon points="329,531.6 326.9,517.4 319.7,528.5 		"/>
		<polygon points="314.4,519.2 309.3,505.6 304.6,517.6 		"/>
		<polygon points="293.4,515.7 284.5,502.2 282.5,516 		"/>
		<polygon points="277.7,525.7 265.1,514.7 267.2,528.4 		"/>
	</g>
	<g>
		<polygon points="155.3,399 165.6,409.2 164.8,396.3 		"/>
		<polygon points="172.1,393.1 187.3,398.6 180.7,386.4 		"/>
		<polygon points="180.5,379.4 197.2,377.4 185.5,369.8 		"/>
	</g>
	<line fill="none" stroke="#000000" stroke-width="10" stroke-miterlimit="10" x1="251.3" y1="307.5" x2="251.6" y2="322"/>
</g>
</svg>
