<?xml version="1.0" encoding="utf-8"?>
<!-- Generator: Adobe Illustrator 18.1.1, SVG Export Plug-In . SVG Version: 6.00 Build 0)  -->
<svg version="1.1" id="Layer_1" xmlns:sketch="http://www.bohemiancoding.com/sketch/ns"
	 xmlns="http://www.w3.org/2000/svg" xmlns:xlink="http://www.w3.org/1999/xlink" x="0px" y="0px" viewBox="-267 387.9 60 66"
	 enable-background="new -267 387.9 60 66" xml:space="preserve">
<g>
	<path d="M-219.2,420c0.7,7.9-1.9,12.7-3.9,16c-2.5,4.2-8.2,6.1-9.1,5.9c-1.1-0.3-6.6-1.3-12.8-7.9c-4.5-4.9-6.7-10.2-6.7-10.2
		s-9.6-2.8-11.8-3.6c-3.1-1.2-1.8-7,1.6-6.6c2.2,0.2,11.7,2,11.7,2s5.4-4.3,13.7-6.5c6.1-1.6,12.4-1.5,13.1-0.7
		C-222.3,409.4-219.8,413.1-219.2,420z"/>
</g>
<title>Artboard</title>
<desc>Created with Sketch.</desc>
<path id="Fill-1_2_" sketch:type="MSShapeGroup" d="M-209.2,402.9c-0.3-0.1-0.7-0.1-2.5-0.1c-0.6,0-1.2,0-1.9,0c-0.8,0-1.6,0-2.5,0
	c-1.4,0-3.2,0-4.6-0.1c-2.2-1.6-4.6-2.4-7.4-2.5c-6-0.2-11.2,2.4-14.1,6.8c-1,0.9-2.8,1.9-3.3,2c-0.8,0.2-1.4,0.9-1.3,1.7
	c0.1,0.6,0.5,1.2,1.4,1.5c-0.1,0.1-0.2,0.2-0.3,0.3c-0.6,0.8-0.9,1.6-0.7,2.4c0,0.2,0.1,0.3,0.1,0.5c-1.4,2.3-2.1,4.9-2.1,7.6
	c0,0.7,0,1.4,0.1,2c-0.2,0-0.4-0.1-0.6-0.1c-1,0-2,0.4-2.6,1.2c-0.7,0.9-0.9,2-0.7,3.3c0.5,2.5,4.3,6.7,7.4,7.5
	c0.3,0.1,0.6,0.1,0.8,0.1c0.8,0,1.5-0.3,1.9-1c0.1-0.2,0.2-0.4,0.3-0.6c2.1,1.4,4.5,2.3,7,2.6c0.5,1.8,2,2.1,2.9,2.1
	c1.4,0,2.6-0.6,3.4-1.6c0.1,0,0.2,0,0.2,0c0.6,0,1.3,0,2.2-0.2c-2.7,3-6.5,4.7-9.4,4.7h0c-1.2,0-2.8-0.3-3.7-1.8
	c-1.1-1.9-3-3.1-4.8-3.1c-1.9,0-3.2,1.3-3.3,3.3c0,1.1,0.5,2.3,1.6,3.4c1.9,1.9,5.5,3.9,9.3,3.9c0.9,0,1.7-0.1,2.5-0.3
	c6.8-1.6,13-7.1,14.8-13.1c6.5-5,6-18.7,3.9-24.8c-0.2-0.4-0.3-0.8-0.5-1.2c0.3,0,0.5,0,0.8,0c0.6,0,1.2-0.1,1.7-0.2
	c3.4-1,4.9-3.5,4.9-4.9C-208.1,403.6-208.5,403-209.2,402.9"/>
<g>
	<path fill="#EF5000" stroke="#000000" stroke-width="0.74" stroke-miterlimit="10" d="M-219.6,419.8c0.7,7.1-1.4,11.9-3.3,14.9
		c-2.4,3.8-7.8,6.2-8.6,6.3c-0.8,0.1-8-2.3-13.2-8.5c-4-4.7-5.9-9.5-5.9-9.5s-11.1-3.2-12-3.4c-2.4-0.6-1.8-5.5,1-5.2
		c1.2,0.1,11.9,2.1,11.9,2.1s5.4-4.5,13.5-6.4c5.9-1.4,11.9-1.4,12.6-0.8C-222.6,410.2-220.2,413.6-219.6,419.8z"/>
	<path fill="#EF5000" stroke="#000000" stroke-width="0.74" stroke-miterlimit="10" d="M-223.9,408.9c0,0,0.2,3.3-0.5,8
		c-0.8,5.5-2.1,11.2-3.9,16.5c-1.6,4.5-3.5,7.6-3.5,7.6"/>
</g>
<path id="Fill-2_2_" sketch:type="MSShapeGroup" fill="#005683" d="M-244.7,431.1c-0.3-0.6-0.7-1.3-1.1-1.9
	C-245.4,429.9-245.1,430.5-244.7,431.1"/>
<path id="Fill-6_2_" sketch:type="MSShapeGroup" fill="#FFD200" d="M-228.7,431.6C-228.7,431.6-228.7,431.6-228.7,431.6
	c0-0.2-0.1-0.4-0.1-0.5c-0.4-1.4-2.2-4.2-3.7-4.2c-0.2,0-0.4,0.1-0.6,0.2c-1.2,0.8-1,2.3-0.5,4.5c0.1,0.5,0.3,1.1,0.3,1.6
	c0.1,0.7,0.1,1.4,0.1,2.2c0,1.1-0.1,2.3,0.4,2.8c0.2,0.2,0.6,0.3,1,0.3c0.1,0,0.3,0,0.4,0c0,0,0.1,0,0.1,0c0.1,0,0.2,0,0.3-0.1
	c0,0,0.1,0,0.1,0c0.1,0,0.2-0.1,0.2-0.1c0,0,0,0,0.1,0c0.1,0,0.2-0.1,0.3-0.2c0,0,0,0,0,0c0.1-0.1,0.2-0.1,0.2-0.2c0,0,0,0,0.1-0.1
	c0.1,0,0.1-0.1,0.2-0.2c0,0,0,0,0.1-0.1c0.1-0.1,0.1-0.1,0.2-0.2c0,0,0,0,0,0c0.1-0.1,0.1-0.1,0.2-0.2c0,0,0,0,0-0.1
	c0-0.1,0.1-0.1,0.1-0.2c0,0,0-0.1,0-0.1c0,0,0-0.1,0.1-0.1c0,0,0-0.1,0-0.1c0,0,0-0.1,0-0.1c0-0.1,0.1-0.2,0.1-0.2c0,0,0,0,0,0
	c0-0.1,0-0.1,0-0.1c0.1-0.2,0.1-0.3,0.1-0.4c0,0,0,0,0-0.1c0.4-1.2,0.6-2.3,0.2-3.8C-228.7,431.9-228.7,431.8-228.7,431.6"/>
<path id="Fill-7_2_" sketch:type="MSShapeGroup" fill="#FF8800" d="M-216.1,404.4c-1.6,0-3.8,0-5.2-0.1c-0.1,0-0.2,0-0.3,0
	c0.1,0.2,0.4,0.5,0.8,0.8l0.1,0.1c2.7,2.3,4.8,2.8,6,2.8h0c0.4,0,0.9-0.1,1.3-0.2c1.9-0.6,3.1-1.8,3.6-2.7c0.2-0.3,0.2-0.6,0.2-0.7
	c-0.3,0-0.9,0-2,0c-0.6,0-1.2,0-1.9,0C-214.4,404.4-215.3,404.4-216.1,404.4"/>
<path id="Fill-8_2_" sketch:type="MSShapeGroup" fill="#FFD200" d="M-250.2,427.4c-0.4,0.5-0.5,1.2-0.4,1.9c0.4,1.9,3.9,5.7,6.2,6.3
	c0.2,0,0.3,0.1,0.5,0.1c0.4,0,0.5-0.1,0.6-0.2c0.3-0.4,0.1-1.4-0.1-1.9c-0.6-1.5-2.7-5.4-3.7-6.1c-0.5-0.4-1.1-0.6-1.6-0.6
	C-249.4,426.7-249.9,427-250.2,427.4"/>
<path id="Fill-9_2_" sketch:type="MSShapeGroup" fill="#FFD200" d="M-244.8,414.8c0.1,0.6,0.5,0.8,0.9,0.8c0.4,0,0.9-0.2,1.3-0.6
	c0.4-0.4,0.6-1,0.5-1.6c-0.1-0.3-0.3-0.6-0.5-0.7c0,0-0.1,0-0.2,0c-0.4,0-1.2,0.4-1.7,1C-244.6,413.9-244.9,414.3-244.8,414.8"/>
<path id="Fill-10_2_" sketch:type="MSShapeGroup" fill="#FF8800" d="M-220.6,435.7c-0.8,0.5-1.6,0.8-2.3,1.1
	c-2.4,4.4-7.7,7.9-12.3,7.9c-2.4,0-4.2-0.9-5.2-2.5c-1.1-1.9-2.8-2.6-3.9-2.3c-0.7,0.2-1.2,0.8-1.2,1.7c0,0.8,0.7,1.9,1.9,2.9
	c2.2,1.8,6.1,3.3,9.6,2.5C-227.9,445.7-222.4,441-220.6,435.7"/>
<path id="Fill-11_2_" sketch:type="MSShapeGroup" fill="#FF8800" d="M-245.1,410.6C-245.1,410.6-245.1,410.6-245.1,410.6
	c0,0,0,0.1,0.1,0.1c0.2,0.1,0.8,0.4,2.6-0.1c-0.1-0.4,0-0.9,0.1-1.5C-243.3,409.9-244.5,410.5-245.1,410.6"/>
<path id="Fill-12_2_" sketch:type="MSShapeGroup" d="M-243.9,416.4L-243.9,416.4c-0.9,0-1.5-0.5-1.7-1.4c-0.1-0.6,0.1-1.2,0.6-1.8
	c0.6-0.7,1.6-1.3,2.3-1.3c0.2,0,0.3,0,0.4,0.1c0.5,0.2,0.8,0.7,1,1.3c0.2,0.8-0.1,1.6-0.7,2.3C-242.6,416.1-243.3,416.4-243.9,416.4
	L-243.9,416.4z M-242.7,412.7c-0.4,0-1.2,0.4-1.7,1c-0.2,0.2-0.5,0.7-0.4,1.1c0.1,0.6,0.5,0.8,0.9,0.8c0.4,0,0.9-0.2,1.3-0.6
	c0.4-0.4,0.6-1,0.5-1.6c-0.1-0.3-0.3-0.6-0.5-0.7C-242.6,412.7-242.6,412.7-242.7,412.7L-242.7,412.7z"/>
<path id="Fill-13_2_" sketch:type="MSShapeGroup" fill="#FFD200" d="M-216.5,411.2c-0.4-1.2-1-2.4-1.6-3.4c-0.9-0.5-2-1.1-3.2-2.1
	l-0.1-0.1c-1.3-1.1-1.1-1.6-1.1-1.7c0-0.1,0.1-0.2,0.2-0.3c-1.8-1.1-3.8-1.7-6-1.8c-5.5-0.2-10.2,2.2-12.8,6.2
	c-0.7,1.1-0.9,2.1-0.7,2.9c0.2,0.6,0.6,0.9,0.9,1.1c0.5,0.2,3.7-0.9,4.6-2.5c0.1-0.1,0.1-0.2,0.2-0.2c0.1,0,0.2,0,0.3,0
	c2.2,1.3,4.6,0.7,6.7,0c0.2-0.1,0.4,0,0.5,0.3c0,0.1,0,0.2,0,0.3c1.4,0,2.8,0.2,4,0.7c0.2,0.1,0.3,0.3,0.2,0.5
	c-0.1,0.2-0.3,0.3-0.5,0.2c-3-1.2-7.1-0.6-9.3,1.3c-0.8,0.7-1.1,1.3-0.9,1.8c0.2,0.5,0.8,0.9,1.7,1c0.6,0.1,1.6-0.1,2.6-0.4
	c1.6-0.3,3.3-0.7,4.9-0.4c2.5,0.5,4.2,2.1,6.8,4.4l0.3,0.3c0.2,0.1,0.2,0.4,0,0.6c-0.1,0.1-0.2,0.1-0.3,0.1c-0.1,0-0.2,0-0.3-0.1
	c0.3,1.1,0.4,2.2,0.4,3.3c0,1.3-0.2,2.7-0.5,3.9c0.4,0.2,0.7,0.5,1,0.8c0.1,0.2,0.1,0.4-0.1,0.6c-0.2,0.1-0.4,0.1-0.6-0.1
	c-0.7-0.9-2.4-1.4-4.1-1.2c-1.2,0.1-3.5,0.7-4.8,3.3c0,0.1,0.1,0.3,0.1,0.4c0.7,2.3,0.5,3.7,0,5.3c-0.1,0.3-0.1,0.6-0.3,0.9
	c1.7,0,4.8-0.4,8.1-2.6C-213.9,430.3-214.5,416.9-216.5,411.2"/>
<path id="Fill-14_2_" sketch:type="MSShapeGroup" d="M-209.4,403.6c-0.2,0-0.6-0.1-2.3-0.1c-0.6,0-1.2,0-1.9,0c-0.8,0-1.6,0-2.5,0
	c-1.5,0-3.5,0-4.9-0.1c-2-1.5-4.5-2.4-7.1-2.5c-5.7-0.2-10.7,2.3-13.5,6.5c-1,1-3,2.2-3.7,2.3c-0.3,0.1-0.5,0.3-0.6,0.6
	c-0.1,0.3,0,0.6,0.2,0.8c0.2,0.2,0.7,0.5,1.6,0.5c0.5,0,1.1-0.1,1.9-0.3c0.3,0.7,0.8,1.1,1.2,1.3c1,0.4,4.1-0.8,5.4-2.5
	c1,0.5,2,0.7,3,0.7c-0.7,0.3-1.3,0.7-1.9,1.2c-1.3,1.1-1.3,2.1-1.2,2.6c0.3,0.8,1.2,1.4,2.3,1.6c0.8,0.1,1.7-0.1,2.8-0.4
	c1.5-0.3,3.2-0.7,4.6-0.4c2.1,0.4,3.5,1.6,5.7,3.5c0.5,1.4,0.7,2.8,0.7,4.3c0,1.2-0.2,2.4-0.5,3.6c-0.9-0.3-2-0.5-3.1-0.4
	c-2.2,0.2-4,1.4-5.1,3.2c-0.8-1.6-2.4-3.7-4.2-3.7c-0.4,0-0.8,0.1-1.2,0.4c-1.9,1.3-1.4,3.6-0.9,5.6c0.1,0.5,0.3,1.1,0.3,1.5
	c0.1,0.6,0.1,1.3,0,2c0,1.4-0.1,2.8,0.7,3.6c0.4,0.4,1,0.7,1.8,0.7c1.6,0,2.6-0.8,3.2-1.7c0.1,0,0.3,0,0.4,0c1,0,2.4-0.1,4.1-0.6
	c-2.5,3.8-7.1,6.7-11.1,6.8c-1.5,0-3.4-0.3-4.5-2.1c-1.3-2.2-3.4-3-4.8-2.6c-1.1,0.3-1.7,1.2-1.8,2.5c0,1.1,0.8,2.4,2.2,3.6
	c1.9,1.6,4.9,2.9,8,2.9c0.8,0,1.5-0.1,2.3-0.3c6.7-1.6,12.7-7,14.3-12.8c3.6-2.6,4.8-7.7,5.1-11.6c0.4-4.9-0.4-9.8-1.3-12.5
	c-0.3-0.9-0.7-1.8-1.2-2.6c0.9,0.3,1.6,0.4,2.2,0.4h0c0.5,0,1-0.1,1.5-0.2c3.1-0.9,4.4-3.2,4.3-4.1
	C-208.9,404-209.1,403.7-209.4,403.6L-209.4,403.6z M-242.5,410.7c-1.8,0.5-2.4,0.2-2.6,0.1c-0.1-0.1-0.1-0.1-0.1-0.1c0,0,0,0,0,0
	c0.6-0.1,1.8-0.7,2.8-1.5C-242.5,409.8-242.5,410.3-242.5,410.7L-242.5,410.7z M-228.9,435.9C-228.9,435.9-228.9,435.9-228.9,435.9
	c0,0.2-0.5,2.7-2.9,2.7c-0.5,0-0.8-0.1-1-0.3c-0.5-0.5-0.5-1.7-0.4-2.8c0-0.7,0-1.5-0.1-2.2c-0.1-0.5-0.2-1.1-0.3-1.6
	c-0.5-2.2-0.8-3.7,0.5-4.5c0.2-0.1,0.4-0.2,0.6-0.2c1.4,0,3.3,2.8,3.7,4.2C-228.3,433.2-228.4,434.4-228.9,435.9L-228.9,435.9z
	 M-234,447.1c-3.5,0.8-7.3-0.6-9.6-2.5c-1.2-1-2-2.1-1.9-2.9c0-0.9,0.5-1.6,1.2-1.7c1.1-0.3,2.8,0.4,3.9,2.3c1,1.7,2.8,2.6,5.2,2.5
	c4.6-0.1,9.9-3.5,12.3-7.9c0.7-0.3,1.5-0.7,2.3-1.1C-222.4,441-227.9,445.7-234,447.1L-234,447.1z M-216.5,411.2
	c2,5.7,2.5,19-3.6,23.3c-3.3,2.2-6.3,2.6-8.1,2.6c0.1-0.3,0.2-0.7,0.3-0.9c0.5-1.6,0.7-3,0-5.3c0-0.1-0.1-0.2-0.1-0.4
	c1.3-2.6,3.6-3.2,4.8-3.3c1.7-0.2,3.4,0.3,4.1,1.2c0.1,0.2,0.4,0.2,0.6,0.1c0.2-0.1,0.2-0.4,0.1-0.6c-0.2-0.3-0.6-0.6-1-0.8
	c0.4-1.3,0.5-2.6,0.5-3.9c0-1.1-0.1-2.2-0.4-3.3c0.1,0.1,0.2,0.1,0.3,0.1c0.1,0,0.2,0,0.3-0.1c0.1-0.2,0.1-0.4,0-0.6l-0.3-0.3
	c-2.6-2.3-4.2-3.8-6.8-4.4c-1.6-0.3-3.3,0.1-4.9,0.4c-1,0.2-2,0.4-2.6,0.4c-0.8-0.1-1.5-0.5-1.7-1c-0.2-0.5,0.2-1.1,0.9-1.8
	c2.2-1.9,6.3-2.5,9.3-1.3c0.2,0.1,0.4,0,0.5-0.2c0.1-0.2,0-0.4-0.2-0.5c-1.2-0.5-2.6-0.7-4-0.7c0.1-0.1,0.1-0.2,0-0.3
	c-0.1-0.2-0.3-0.3-0.5-0.3c-2.1,0.7-4.5,1.3-6.7,0c-0.1-0.1-0.2-0.1-0.3,0c-0.1,0-0.2,0.1-0.2,0.2c-0.9,1.7-4.1,2.8-4.6,2.5
	c-0.3-0.1-0.7-0.5-0.9-1.1c-0.2-0.8,0-1.8,0.7-2.9c2.6-4.1,7.3-6.4,12.8-6.2c2.2,0.1,4.2,0.7,6,1.8c-0.1,0.1-0.2,0.2-0.2,0.3
	c-0.1,0.2-0.2,0.7,1.1,1.7l0.1,0.1c1.2,1,2.2,1.7,3.2,2.1C-217.5,408.9-216.9,410-216.5,411.2L-216.5,411.2z M-209.9,405.1
	c-0.5,0.9-1.6,2.1-3.6,2.7c-0.4,0.1-0.8,0.2-1.3,0.2h0c-1.2,0-3.3-0.5-6-2.8l-0.1-0.1c-0.4-0.3-0.7-0.6-0.8-0.8c0.1,0,0.2,0,0.3,0
	c1.4,0.1,3.6,0.1,5.2,0.1c0.8,0,1.7,0,2.5,0c0.7,0,1.4,0,1.9,0c1.1,0,1.8,0,2,0C-209.6,404.5-209.7,404.7-209.9,405.1L-209.9,405.1z
	"/>
<path id="Fill-15_2_" sketch:type="MSShapeGroup" d="M-236.5,407.3c-0.6,0.5-0.4,1.1,0.3,1.1c0.7,0.1,0.8,0.1,1.4-0.4
	c0.7-0.5,0.8-1.4,0-1.3C-235.6,406.9-236.2,407.1-236.5,407.3"/>
<path id="Fill-16_2_" sketch:type="MSShapeGroup" d="M-238.4,407.7c0,0.4-0.4,0.8-0.8,0.8c-0.4,0-0.8-0.4-0.8-0.8
	c0-0.4,0.4-0.8,0.8-0.8C-238.7,406.9-238.4,407.3-238.4,407.7"/>
<path id="Fill-17_2_" sketch:type="MSShapeGroup" d="M-229.2,405.5c0,0.4-0.4,0.8-0.8,0.8s-0.8-0.4-0.8-0.8c0-0.4,0.4-0.8,0.8-0.8
	S-229.2,405.1-229.2,405.5"/>
<path id="Fill-18_2_" sketch:type="MSShapeGroup" d="M-243.9,436.4L-243.9,436.4c-0.2,0-0.4,0-0.7-0.1c-2.7-0.6-6.3-4.6-6.8-6.9
	c-0.2-1,0-1.9,0.5-2.6c0.5-0.6,1.2-0.9,2-0.9c0.7,0,1.4,0.3,2.1,0.8c1.3,1,3.5,5.4,4,6.5c0.2,0.5,0.6,1.8,0,2.6
	C-242.9,436.1-243.2,436.4-243.9,436.4L-243.9,436.4z M-248.8,426.7c-0.6,0-1.1,0.2-1.4,0.6c-0.4,0.5-0.5,1.2-0.4,1.9
	c0.4,1.9,3.9,5.7,6.2,6.3c0.2,0,0.3,0.1,0.5,0.1c0.4,0,0.5-0.1,0.6-0.2c0.3-0.4,0.1-1.4-0.1-1.9c-0.6-1.5-2.7-5.4-3.7-6.1
	C-247.7,426.9-248.3,426.7-248.8,426.7L-248.8,426.7z"/>
<ellipse transform="matrix(0.9876 0.1569 -0.1569 0.9876 63.3652 42.0222)" cx="-234.5" cy="422.4" rx="3" ry="3.4"/>
<line fill="none" stroke="#000000" stroke-width="0.555" stroke-linecap="round" stroke-miterlimit="10" x1="-261.8" y1="416.1" x2="-226.5" y2="422.8"/>
<line fill="none" stroke="#000000" stroke-width="0.555" stroke-linecap="round" stroke-miterlimit="10" x1="-259.9" y1="417.7" x2="-226.7" y2="424.4"/>
<line fill="none" stroke="#000000" stroke-width="0.555" stroke-linecap="round" stroke-miterlimit="10" x1="-258.6" y1="419.2" x2="-227.2" y2="425.9"/>
<circle cx="-261.7" cy="416.1" r="0.6"/>
<circle cx="-260.2" cy="417.7" r="0.6"/>
<circle cx="-258.8" cy="419.1" r="0.6"/>
<g>
	<line fill="none" stroke="#000000" stroke-width="0.555" stroke-miterlimit="10" x1="-261.5" y1="412.5" x2="-261.7" y2="414.3"/>
	<line fill="none" stroke="#000000" stroke-width="0.555" stroke-miterlimit="10" x1="-259.7" y1="413.1" x2="-260" y2="414.8"/>
	<line fill="none" stroke="#000000" stroke-width="0.555" stroke-miterlimit="10" x1="-258" y1="413.5" x2="-258.3" y2="415"/>
	<ellipse transform="matrix(0.9938 0.1114 -0.1114 0.9938 44.297 31.6811)" cx="-261.4" cy="412.4" rx="0.7" ry="0.4"/>
	<ellipse transform="matrix(0.9938 0.1114 -0.1114 0.9938 44.3631 31.4851)" cx="-259.7" cy="412.9" rx="0.7" ry="0.4"/>
	<ellipse transform="matrix(0.9938 0.1114 -0.1114 0.9938 44.4248 31.3059)" cx="-258" cy="413.3" rx="0.7" ry="0.4"/>
</g>
<line fill="none" stroke="#000000" stroke-width="1.4799" stroke-linecap="round" stroke-miterlimit="10" x1="-228" y1="421.6" x2="-229" y2="426.2"/>
<g id="Layer_5">
	<path d="M-221.5,397.2c-1.8-1.1-4.1-1.9-8-2.3c-3.5-0.3-7.1-0.4-10.8,1c-2.9,1.1-3.3,3.6-2.7,5.6c0.4,1.5,1.3,1.8,1.7,2.4
		c-0.9,0.8-2.6,2.2-2.4,2.8c0.2,0.7,1.5,0.1,2.7-0.2c1.5-0.3,5.4-1.5,6.9-2.3c0.8-0.4,1.9-1.1,2.8-1.7c0.4,0,0.8,0,1.3,0.1
		c5,0.6,9.3,2.3,9.6,1.2c0.2-0.6-0.3-0.9,0.4-1.8C-218.9,400.6-219.6,398.4-221.5,397.2z"/>
</g>
<path fill="#E20000" d="M-231.5,399c0,0-0.1-0.8,0.6-1.1c0.3-0.2,0.7,0.2,0.8,0.2c0.1,0.1,0.6-0.4,1-0.2c0.3,0.1,0.7,0.6,0.7,1.2
	c0,0,0.3,0.1,0.5,0.4c0.3,0.5,0.1,0.7,0,1c-0.2,0.3-0.5,0.3-0.5,0.3c0,0.1,0,0.9-0.5,1.1c-0.3,0.1-0.9-0.3-1.1-0.2
	c-0.4,0.2-0.9,0.3-1.2,0.1c-0.4-0.3-0.3-0.8-0.3-0.9c0,0-0.7-0.3-0.8-0.9c-0.1-0.6,0.2-0.7,0.4-0.8C-231.7,399-231.5,399-231.5,399z
	"/>
<path fill="#B20000" d="M-230.3,400.5c-0.2-0.1-0.4-0.4-0.4-0.7c0-0.2,0.3-0.7,0.6-0.7c0.3,0,1,0.5,0.8,1c-0.2,0.3-0.2,0.3-0.5,0.5
	C-229.9,400.6-230.3,400.5-230.3,400.5z"/>
</svg>
