<?xml version="1.0" encoding="UTF-8" standalone="no"?>
<svg
   xmlns:sketch="http://www.bohemiancoding.com/sketch/ns"
   xmlns:dc="http://purl.org/dc/elements/1.1/"
   xmlns:cc="http://creativecommons.org/ns#"
   xmlns:rdf="http://www.w3.org/1999/02/22-rdf-syntax-ns#"
   xmlns:svg="http://www.w3.org/2000/svg"
   xmlns="http://www.w3.org/2000/svg"
   xmlns:xlink="http://www.w3.org/1999/xlink"
   xmlns:sodipodi="http://sodipodi.sourceforge.net/DTD/sodipodi-0.dtd"
   xmlns:inkscape="http://www.inkscape.org/namespaces/inkscape"
   width="300"
   height="330"
   viewBox="0 0 300 330"
   version="1.1"
   id="svg4309"
   inkscape:version="0.91 r13725"
   sodipodi:docname="wapuu-ji-chaudhary.svg">
  <metadata
     id="metadata4340">
    <rdf:RDF>
      <cc:Work
         rdf:about="">
        <dc:format>image/svg+xml</dc:format>
        <dc:type
           rdf:resource="http://purl.org/dc/dcmitype/StillImage" />
        <dc:title>Artboard</dc:title>
      </cc:Work>
    </rdf:RDF>
  </metadata>
  <sodipodi:namedview
     pagecolor="#ffffff"
     bordercolor="#666666"
     borderopacity="1"
     objecttolerance="10"
     gridtolerance="10"
     guidetolerance="10"
     inkscape:pageopacity="0"
     inkscape:pageshadow="2"
     inkscape:window-width="1383"
     inkscape:window-height="855"
     id="namedview4338"
     showgrid="false"
     inkscape:zoom="0.92945872"
     inkscape:cx="83.815712"
     inkscape:cy="78.548983"
     inkscape:window-x="57"
     inkscape:window-y="1"
     inkscape:window-maximized="1"
     inkscape:current-layer="svg4309"
     showguides="true"
     inkscape:guide-bbox="true" />
  <!-- Generator: Sketch 3.2.2 (9983) - http://www.bohemiancoding.com/sketch -->
  <title
     id="title4311">Artboard</title>
  <desc
     id="desc4313">Created with Sketch.</desc>
  <defs
     id="defs4315">
    <pattern
       inkscape:collect="always"
       xlink:href="#pattern5927"
       id="pattern5946"
       patternTransform="translate(45.28096,-9.602499)" />
    <pattern
       inkscape:collect="always"
       xlink:href="#pattern5860"
       id="pattern5865"
       patternTransform="matrix(1.7854399,0,0,1.7854399,3.8881836e-6,0)" />
    <pattern
       inkscape:collect="always"
       xlink:href="#pattern5851"
       id="pattern5858"
       patternTransform="matrix(0.28676085,0,0,0.28676085,-1.7480469e-6,3.0480957e-7)" />
    <linearGradient
       inkscape:collect="always"
       id="linearGradient4239">
      <stop
         style="stop-color:#ede849;stop-opacity:1"
         offset="0"
         id="stop4241" />
      <stop
         style="stop-color:#e0b200;stop-opacity:1"
         offset="1"
         id="stop4243" />
    </linearGradient>
    <radialGradient
       inkscape:collect="always"
       xlink:href="#linearGradient4239"
       id="radialGradient4255"
       cx="110.30892"
       cy="189.17422"
       fx="110.30892"
       fy="189.17422"
       r="11.658482"
       gradientTransform="matrix(0.00111666,0.04264928,-0.02870334,7.515209e-4,-51.381205,12.61392)"
       gradientUnits="userSpaceOnUse"
       spreadMethod="reflect" />
    <pattern
       patternUnits="userSpaceOnUse"
       width="8.621593"
       height="8.6236307"
       patternTransform="translate(63.302537,-14.45669)"
       id="pattern5851">
      <path
         style="fill:#650717"
         d="m 4.2e-5,8.1834751 c 0,-0.450977 0.177087,-0.588602 0.234985,-0.182621 0.04215,0.295507 0.549997,0.566812 0.799567,0.427145 0.147229,-0.08239 0.105083,-0.168666 -0.279152,-0.571427 -0.248908,-0.26091 -0.520697,-0.460132 -0.603978,-0.442716 -0.10789,0.02256 -0.151422,-0.07996 -0.151422,-0.35661 0,-0.231408 0.04354,-0.361367 0.107771,-0.321672 0.05927,0.03663 0.107767,0.114549 0.107767,0.173146 0,0.145251 0.978071,1.11286 1.445588,1.430125 l 0.379615,0.257615 -1.02037,0.0056 -1.020371,0.0056 0,-0.424092 z m 2.277904,0.341688 c -0.09863,-0.06249 -0.106982,-0.106382 -0.02542,-0.133569 0.06682,-0.02227 -0.364161,-0.524318 -0.95773,-1.115658 -0.593564,-0.59134 -1.079213,-1.015454 -1.079213,-0.942474 0,0.07298 -0.0485,0.132689 -0.107767,0.132689 -0.06837,0 -0.10777,-0.812668 -0.10777,-2.2224661 0,-1.942669 0.01992,-2.205921 0.158344,-2.09105 0.131566,0.10919 0.334115,-0.0435 1.197662,-0.902843 0.571622,-0.568842 0.973204,-1.037541 0.892404,-1.041553 -0.0808,-0.004 -0.04088,-0.05854 0.08871,-0.121175 0.2607,-0.126004 0.831937,-0.0295 0.736777,0.124474 -0.03314,0.0536 0.166096,0.343156 0.44272,0.643456 C 4.214873,1.612964 4.452887,1.59939 5.318416,0.752238 5.682972,0.395422 5.88842,0.136934 5.77497,0.177821 c -0.129906,0.04682 -0.180868,0.03323 -0.137648,-0.0367 0.08289,-0.134112 1.528397,-0.15763 1.843893,-0.03 0.130969,0.05298 0.158931,0.0936 0.06719,0.09759 -0.09475,0.0041 0.02844,0.19594 0.310253,0.483081 0.26453,0.269539 0.53154,0.451639 0.61517,0.419547 0.108343,-0.04158 0.147765,0.047 0.147765,0.33202 0,0.377781 -0.164479,0.543254 -0.23458,0.235999 C 8.329013,1.425149 7.139612,0.245632 6.874064,0.178984 6.737669,0.144754 6.56455,0.154764 6.489361,0.201234 6.299509,0.318567 8.241136,2.278324 8.462917,2.19322 8.599408,2.14084 8.621593,2.436313 8.621593,4.306508 c 0,2.0328331 -0.01243,2.1702331 -0.191188,2.1134971 -0.138814,-0.04406 -0.463023,0.212286 -1.183447,0.935718 -0.545742,0.54802 -0.981038,1.044896 -0.967331,1.104169 0.01372,0.05927 -0.108439,0.123115 -0.27144,0.14187 -0.232307,0.02673 -0.296364,-0.01065 -0.296364,-0.172963 0,-0.238727 -1.09244,-1.316022 -1.334524,-1.316022 -0.212872,0 -1.5278,1.219239 -1.371215,1.271434 0.06634,0.02211 0.09321,0.08456 0.0597,0.138771 -0.07678,0.124232 -0.592938,0.125667 -0.787831,0.0022 z m 0.626945,-1.460349 c 0.07108,-0.08565 0.113391,-0.267508 0.09402,-0.404135 -0.06458,-0.455545 -0.843487,-0.344343 -0.843487,0.120422 0,0.396429 0.499111,0.585369 0.749464,0.283713 z m 3.776846,-0.05982 c 0.176404,-0.329611 -0.04614,-0.668328 -0.411381,-0.626132 -0.295184,0.0341 -0.431959,0.346642 -0.301023,0.687854 0.08878,0.231365 0.578243,0.188959 0.712404,-0.06172 z M 5.548334,5.6848201 C 6.976646,4.248041 6.97762,4.296103 5.490294,2.822227 4.880924,2.218367 4.347747,1.724299 4.305458,1.724299 c -0.04229,0 -0.567592,0.491048 -1.167341,1.091217 -1.460628,1.46165 -1.460605,1.460031 -0.04154,2.9055051 0.576905,0.587639 1.117479,1.068434 1.201275,1.068434 0.0838,0 0.646515,-0.497086 1.250487,-1.104635 z M 3.419187,5.1974741 C 2.961212,4.7367961 2.586505,4.318783 2.586505,4.268555 c 0,-0.169047 1.54624,-1.682102 1.718994,-1.682102 0.174853,0 1.729624,1.518183 1.729624,1.688919 0,0.09758 -1.63333,1.7596981 -1.729223,1.7596981 -0.02973,0 -0.428734,-0.376918 -0.886713,-0.837596 z M 5.006211,5.0920891 C 5.334351,4.7512691 5.602338,4.375423 5.601735,4.256877 5.600741,4.032336 4.54983,2.801992 4.359209,2.801992 c -0.05997,0 -0.386363,0.280259 -0.725326,0.622798 -0.78526,0.793541 -0.790888,0.971836 -0.05419,1.7177951 0.309159,0.313047 0.622362,0.569177 0.696003,0.569177 0.07364,0 0.402377,-0.278853 0.730519,-0.619673 z M 3.953783,4.6551151 C 3.79451,4.4888711 3.664197,4.316808 3.664197,4.272753 c 0,-0.114247 0.570114,-0.601131 0.708656,-0.605201 0.141085,-0.0041 0.584577,0.453364 0.584577,0.603051 0,0.107636 -0.555965,0.6867751 -0.659295,0.6867751 -0.03012,0 -0.18508,-0.136019 -0.344352,-0.302263 z m -2.8976,0.711786 C 1.2342,5.1888821 1.21872,4.6880271 1.030363,4.5317091 0.945033,4.4608991 0.738928,4.418585 0.572342,4.4376891 c -0.256209,0.02938 -0.308202,0.09028 -0.337416,0.3952391 -0.01899,0.19828 -0.0084,0.428637 0.02356,0.511904 0.07098,0.184976 0.619605,0.200156 0.797692,0.02207 z m 7.222611,0.03588 C 8.367874,5.3463011 8.408116,5.1557651 8.38656,4.8925271 8.35278,4.4799811 8.3444,4.4724201 7.921085,4.4724201 c -0.423319,0 -0.431697,0.0076 -0.465479,0.420107 -0.0364,0.444517 0.08445,0.6004 0.465479,0.6004 0.118545,0 0.279514,-0.04057 0.357709,-0.09015 z M 1.139299,3.833582 C 1.262271,3.343617 1.108179,3.125304 0.639396,3.125304 l -0.423816,0 0,0.484962 0,0.484961 0.429026,0 c 0.364346,0 0.438922,-0.03944 0.494693,-0.261645 z M 8.352163,3.610266 c 0,-0.431078 0,-0.431078 -0.431078,-0.431078 -0.393309,0 -0.434143,0.02677 -0.466059,0.305469 -0.05806,0.507059 0.04228,0.627394 0.492135,0.590185 0.395072,-0.03268 0.405002,-0.04407 0.405002,-0.464576 z M 2.904891,1.999658 C 2.975971,1.914008 3.018282,1.73215 2.998911,1.595524 2.934331,1.139978 2.155424,1.25118 2.155424,1.715945 c 0,0.396429 0.499111,0.58537 0.749464,0.283713 z m 3.623052,0.07325 C 6.930549,1.797229 6.683222,1.215395 6.213544,1.333277 5.986172,1.390347 5.927352,1.469288 5.927352,1.717381 c 0,0.371983 0.309229,0.555035 0.600591,0.355527 z m 0.0088,6.4678071 c -0.02744,-0.04445 0.0727,-0.0882 0.22256,-0.0972 0.28767,-0.01729 1.646699,-1.263387 1.646699,-1.509864 0,-0.07231 0.0485,-0.161437 0.10777,-0.19807 0.06528,-0.04035 0.107771,0.111049 0.107771,0.384028 0,0.350664 -0.03019,0.425584 -0.136057,0.337717 -0.100993,-0.08382 -0.275752,0.02034 -0.678126,0.404179 -0.298136,0.284404 -0.523848,0.571759 -0.501577,0.638568 0.04525,0.135757 -0.686441,0.174427 -0.76904,0.04064 z m 1.438185,-0.113527 c 0.235604,-0.114932 0.390118,-0.274803 0.41163,-0.425901 0.05831,-0.409565 0.234985,-0.267329 0.234985,0.189178 l 0,0.431077 -0.511904,-0.0052 -0.511904,-0.0052 0.377193,-0.184001 z M 0,1.5036 C 0,1.123935 0.0285,1.06557 0.184659,1.125492 0.316566,1.176112 0.497225,1.057042 0.817063,0.708697 1.193539,0.298664 1.235026,0.21159 1.077716,0.161661 0.782479,0.067961 0.329207,0.293758 0.216273,0.590798 0.069376,0.977167 0,0.927269 0,0.435247 l 0,-0.426906 1.050752,0.01029 c 0.910111,0.0089 1.010616,0.0273 0.750901,0.13736 -0.352823,0.149519 -1.586116,1.340453 -1.586116,1.53164 0,0.07245 -0.0485,0.161697 -0.107767,0.19833 C 0.04251,1.926291 0,1.775468 0,1.503599 Z M 8.406002,0.536179 C 8.406002,0.402588 8.301526,0.278251 8.13658,0.215538 7.763136,0.073555 7.799913,0 8.24435,0 c 0.35923,0 0.377193,0.01796 0.377193,0.377192 0,0.207456 -0.0485,0.377193 -0.107771,0.377193 -0.05927,0 -0.10777,-0.09819 -0.10777,-0.218206 z"
         id="path4393"
         inkscape:connector-curvature="0" />
    </pattern>
    <pattern
       patternUnits="userSpaceOnUse"
       width="2.4723356"
       height="2.4729197"
       patternTransform="translate(66.377167,-11.381334)"
       id="pattern5860">
      <rect
         id="rect5854"
         y="0"
         x="0"
         height="2.4729197"
         width="2.4723356"
         style="fill:url(#pattern5858);stroke:none" />
    </pattern>
    <pattern
       patternUnits="userSpaceOnUse"
       width="4.4142065"
       height="4.4152498"
       patternTransform="translate(65.406227,-12.352499)"
       id="pattern5867">
      <rect
         id="rect5863"
         y="0"
         x="0"
         height="4.4152498"
         width="4.4142065"
         style="fill:url(#pattern5865);stroke:none" />
    </pattern>
    <pattern
       patternUnits="userSpaceOnUse"
       width="4.4144735"
       height="4.4243952"
       patternTransform="translate(65.40596,-12.352499)"
       id="pattern5927">
      <g
         id="g5906"
         transform="translate(-65.40596,12.352499)">
        <rect
           style="opacity:1;fill:#dfbda6;fill-opacity:1;stroke:none;stroke-width:2.0999999;stroke-miterlimit:4;stroke-dasharray:none;stroke-opacity:0.59116025"
           id="rect5901"
           width="4.4142485"
           height="4.4038968"
           x="65.40596"
           y="-12.34949" />
        <g
           id="g5892">
          <rect
             y="-12.342996"
             x="66.6688"
             height="0.87270319"
             width="1.9600055"
             id="rect5888"
             style="opacity:1;fill:#ffd700;fill-opacity:1;stroke:none;stroke-width:2.0999999;stroke-miterlimit:4;stroke-dasharray:none;stroke-opacity:0.59116025" />
          <rect
             style="opacity:1;fill:#ffd700;fill-opacity:1;stroke:none;stroke-width:2.0999999;stroke-miterlimit:4;stroke-dasharray:none;stroke-opacity:0.59116025"
             id="rect5890"
             width="1.9600055"
             height="0.87270319"
             x="66.64019"
             y="-8.800807" />
          <g
             id="g5882">
            <rect
               style="opacity:1;fill:#008000;fill-opacity:1;stroke:none;stroke-width:2.0999999;stroke-miterlimit:4;stroke-dasharray:none;stroke-opacity:0.59116025"
               id="rect5874"
               width="0.91562301"
               height="0.65810406"
               x="66.268219"
               y="-11.799344" />
            <rect
               style="opacity:1;fill:#008000;fill-opacity:1;stroke:none;stroke-width:2.0999999;stroke-miterlimit:4;stroke-dasharray:none;stroke-opacity:0.59116025"
               id="rect5876"
               width="0.57226437"
               height="0.71533048"
               x="68.414207"
               y="-11.827958" />
            <rect
               style="opacity:1;fill:#008000;fill-opacity:1;stroke:none;stroke-width:2.0999999;stroke-miterlimit:4;stroke-dasharray:none;stroke-opacity:0.59116025"
               id="rect5878"
               width="0.68671727"
               height="0.71533048"
               x="66.354057"
               y="-9.1955414" />
            <rect
               style="opacity:1;fill:#008000;fill-opacity:1;stroke:none;stroke-width:2.0999999;stroke-miterlimit:4;stroke-dasharray:none;stroke-opacity:0.59116025"
               id="rect5880"
               width="0.65810406"
               height="0.68671727"
               x="68.356979"
               y="-9.2241545" />
          </g>
        </g>
        <rect
           style="fill:url(#pattern5867);stroke:none"
           width="4.4142065"
           height="4.4152498"
           x="65.406227"
           y="-12.352499"
           id="rect5870" />
      </g>
    </pattern>
  </defs>
  <g
     id="g5374"
     transform="matrix(0.2756942,-0.07716415,0.07716415,0.2756942,34.511148,241.87247)">
    <path
       style="fill:#000ff0;fill-opacity:0"
       d="M 94.353744,182.14177 C 93.829122,172.10308 83.196213,169.77643 76.373176,165.97392 68.680701,158.58384 60.465459,151.64231 54.116802,142.99444 48.702524,137.83213 43.975547,129.08381 35.761647,128.90577 c -11.910888,1.02489 -24.477648,1.66756 -35.02262204,7.90107 -6.81971826,2.64264 -8.89566986,4.13999 -15.08711396,9.10152 -4.377878,5.88192 -1.809973,7.02488 -3.964604,0.42923 -1.781439,-8.62048 -8.843089,-12.40873 -8.872411,-21.52793 -1.154847,-11.24975 -0.331391,-16.16042 -1.809848,-27.356354 -1.052528,-9.786353 3.137037,-20.195506 13.069319,-23.369224 8.4333213,-2.926723 17.7366165,-3.879184 26.58612,-3.284343 10.823186,2.214844 -0.329028,-7.155361 -3.2345157,-10.08005 -5.0976099,-3.705047 -1.444128,-12.872931 3.9334517,-6.579975 1.531712,2.97392 7.465417,5.021321 3.964625,-0.109631 -1.830668,-8.750398 9.078941,-12.075595 15.405434,-14.523773 8.400714,-4.500208 17.262706,0.633838 25.876379,-1.614299 6.43519,-2.509552 7.076613,8.115768 12.152473,2.492603 7.590213,-2.097432 17.934692,-1.0871 21.635518,1.888556 5.847405,6.126312 12.842298,10.533568 21.269308,11.653532 7.81837,5.304158 18.16116,5.993058 24.36152,13.570614 4.94107,5.27367 10.00591,13.439043 5.74754,20.574039 -5.45292,2.647485 0.83396,11.998505 -7.17022,10.09687 -8.30888,3.243265 -16.79935,8.179685 -26.06729,6.054265 -10.770011,-1.74722 1.33224,8.9919 3.82373,12.2666 5.72379,5.54626 5.2635,13.80862 8.33304,20.76991 1.09407,8.85769 -2.08854,17.87043 -6.12132,25.67001 -3.51651,6.89818 -9.77056,11.81315 -13.61762,18.4271 -2.058277,1.35142 -4.396956,-0.27005 -6.598796,0.78566 z"
       id="path5380"
       inkscape:connector-curvature="0"
       sodipodi:nodetypes="cccccccccccccccccccccccccccc" />
  </g>
  <g
     id="g6610"
     transform="matrix(3.6119821,0,0,3.6119821,32.521704,42.842457)">
    <path
       d="m 59.321657,17.229677 c -0.36923,-0.0919 -0.971361,-0.136258 -3.392308,-0.136258 -0.781775,0 -1.670414,0.0046 -2.615148,0.0092 -1.066509,0.0053 -2.205089,0.011 -3.341538,0.011 -1.826983,0 -4.385325,-0.01313 -6.205917,-0.117451 -2.915858,-2.118746 -6.274793,-3.249617 -9.991598,-3.361746 -8.054556,-0.246613 -15.186036,3.233645 -19.047691,9.216226 -1.305089,1.240516 -3.760474,2.619774 -4.42438,2.767032 -1.1130173,0.247322 -1.8340824,1.22171 -1.7137274,2.316387 0.086627,0.789161 0.647929,1.675903 1.9004734,2.088226 -0.144497,0.141935 -0.282248,0.290967 -0.410414,0.445322 -0.8488759,1.022291 -1.2039055,2.184387 -0.9997635,3.272678 0.041183,0.218225 0.098343,0.426871 0.1711243,0.625225 -1.8362131,3.124 -2.8022486,6.670259 -2.8022486,10.316226 0,0.920807 0.06213,1.837 0.1853255,2.744323 -0.2889941,-0.05003 -0.5794083,-0.07558 -0.8698225,-0.07558 -1.3966864,0 -2.6914793,0.605355 -3.551361,1.660645 -0.9497041,1.166 -1.28272185,2.725871 -0.9376331,4.392194 0.7026036,3.394032 5.8469822,9.115806 9.9489949,10.100129 0.404023,0.09652 0.789941,0.145839 1.146745,0.145839 1.097396,0 2.003787,-0.462355 2.553018,-1.301903 0.174319,-0.266839 0.300354,-0.550001 0.387691,-0.839549 2.799409,1.929613 6.035503,3.12471 9.463669,3.471742 0.742722,2.422129 2.736923,2.825936 3.981302,2.825936 1.875976,0 3.496686,-0.762194 4.652307,-2.167355 0.10438,0.0014 0.209113,0.0025 0.314203,0.0025 0.793135,0 1.778697,-0.05429 2.906272,-0.228161 -3.609232,4.048 -8.823197,6.377516 -12.662486,6.378226 l -0.0011,0 c -1.618224,0 -3.792071,-0.412677 -4.960118,-2.376355 -1.545444,-2.598129 -4.022839,-4.21229 -6.464733,-4.21229 -2.5650888,0 -4.3473374,1.810032 -4.4343196,4.503613 -0.047219,1.458032 0.7171598,3.043806 2.2107696,4.585226 2.512543,2.593516 7.384614,5.210451 12.60639,5.210451 1.153846,0 2.284615,-0.129161 3.36071,-0.383935 9.253491,-2.19042 17.544498,-9.595194 19.956214,-17.739452 8.832426,-6.744064 8.132307,-25.284387 5.205444,-33.551064 -0.203078,-0.573775 -0.422487,-1.135839 -0.65787,-1.68442 0.356094,0.04116 0.708283,0.06174 1.054793,0.06174 0.809112,0 1.597278,-0.113548 2.343194,-0.337097 4.590887,-1.376419 6.66497,-4.782516 6.621657,-6.651451 -0.02269,-0.986468 -0.606357,-1.766048 -1.48612,-1.986048"
       id="Fill-1"
       sketch:type="MSShapeGroup"
       inkscape:connector-curvature="0"
       style="fill:#000000;fill-rule:evenodd;stroke:none;stroke-width:1" />
    <path
       sodipodi:nodetypes="cccccc"
       inkscape:connector-curvature="0"
       id="path5944"
       d="M 53.0625,26.125 62.25,42.0625 C 58.358595,42.754428 58.753709,43.045376 56.125,44.5 L 52.75,48.8125 C 48.875,32.4375 49.875,25.625 49.875,25.625 Z"
       style="fill:url(#pattern5946);fill-opacity:1;fill-rule:evenodd;stroke:#000000;stroke-width:2.0999999;stroke-linecap:butt;stroke-linejoin:miter;stroke-miterlimit:4;stroke-dasharray:none;stroke-opacity:1" />
    <path
       d="m 44.216213,38.909612 c -2.849466,-2.553065 -4.813846,-4.122161 -7.638461,-4.706226 -1.899054,-0.392451 -4.165563,0.11 -6.165089,0.553194 -1.515266,0.336387 -2.823906,0.627355 -3.84213,0.519484 -1.563906,-0.164646 -2.803669,-0.987162 -3.156924,-2.096388 -0.248875,-0.781354 -0.18071,-2.03358 1.55929,-3.564 0.723906,-0.636935 1.590179,-1.169193 2.539882,-1.601741 -1.369704,0.0021 -2.723077,-0.261162 -4.023905,-0.951323 -1.68,2.332 -5.943905,4.021387 -7.256094,3.439097 -0.29148,-0.129516 -0.617042,-0.351645 -0.917752,-0.66142 -0.0284,0.022 -0.05468,0.04613 -0.08308,0.06848 0.346153,0.323968 0.59858,0.777807 0.707574,1.308291 0.221183,1.075516 -0.155503,2.226258 -1.007929,3.077871 -0.742012,0.741967 -1.676805,1.167419 -2.564024,1.167419 -0.620592,0 -1.150296,-0.215742 -1.547218,-0.592581 -1.7552667,2.856807 -2.7742016,6.213226 -2.7742016,9.812 0,1.675549 0.2240236,3.297871 0.6355029,4.843904 1.7616567,1.45129 4.6633127,7.216709 5.2963307,8.663032 0.03444,0.07913 0.07349,0.179193 0.11361,0.294871 3.019526,2.790451 6.953609,4.60758 11.304852,4.943258 -0.05467,-0.719258 -0.03018,-1.48571 -0.005,-2.242581 0.03053,-0.927193 0.06249,-1.886322 -0.05858,-2.674064 -0.09976,-0.648291 -0.266272,-1.343775 -0.442722,-2.080065 -0.657159,-2.745387 -1.402721,-5.857322 1.224142,-7.607387 0.503432,-0.335677 1.050888,-0.506 1.626391,-0.506 2.360237,0 4.505681,2.844387 5.612663,5.007129 1.507455,-2.438806 3.984853,-3.985194 6.930887,-4.283613 1.491835,-0.151516 2.980474,0.04187 4.207456,0.496065 0.432781,-1.573355 0.655031,-3.204194 0.655031,-4.854549 0,-1.974677 -0.313137,-3.916355 -0.930533,-5.772161"
       id="Fill-3"
       sketch:type="MSShapeGroup"
       inkscape:connector-curvature="0"
       style="fill:#008000;fill-opacity:1;fill-rule:evenodd;stroke:none;stroke-width:1" />
    <path
       d="m 31.993254,34.420193 c -0.537159,0.105387 -1.067574,0.222483 -1.580591,0.336387 -1.515266,0.336387 -2.823906,0.627355 -3.84213,0.519484 -1.563906,-0.164646 -2.803669,-0.987162 -3.156924,-2.096388 -0.248875,-0.781354 -0.18071,-2.03358 1.55929,-3.564 0.02521,-0.022 0.05361,-0.04187 0.07882,-0.06387 -1.120118,-0.365129 -2.299882,-0.598258 -3.521183,-0.680936 -1.930296,1.303323 -4.362604,2.045645 -5.297752,1.630839 -0.291124,-0.129516 -0.616331,-0.351291 -0.916686,-0.66071 -0.02769,0.02306 -0.05538,0.04577 -0.08379,0.06813 0.346154,0.323968 0.598225,0.777807 0.707219,1.307936 0.221183,1.075516 -0.155503,2.226258 -1.007929,3.077871 -0.742012,0.741967 -1.676805,1.167419 -2.564024,1.167419 -0.620947,0 -1.151006,-0.216097 -1.547929,-0.59329 -1.7549107,2.856806 -2.7734906,6.213935 -2.7734906,9.812709 0,1.674129 0.2201183,3.296807 0.6323077,4.841065 1.1815384,0.970484 2.8764489,3.884774 4.0565679,6.138 2.254082,1.433903 4.926745,2.268484 7.796804,2.268484 1.585917,0 3.111125,-0.256904 4.540474,-0.725646 -0.05822,-0.253 -0.118935,-0.509548 -0.182131,-0.773548 -0.657159,-2.745387 -1.402721,-5.857322 1.224142,-7.607387 0.503432,-0.335677 1.050888,-0.506 1.626392,-0.506 1.815266,0 3.500947,1.68229 4.687101,3.443 1.673609,-2.369258 2.660236,-5.258 2.660236,-8.378806 0,-3.381968 -1.157752,-6.491065 -3.094794,-8.960742"
       id="Fill-4"
       sketch:type="MSShapeGroup"
       inkscape:connector-curvature="0"
       style="fill:#ffffff;fill-opacity:1;fill-rule:evenodd;stroke:none;stroke-width:1" />
    <ellipse
       transform="matrix(0.99555654,0.09416567,-0.1295235,0.99157635,0,0)"
       ry="10.549084"
       rx="9.3859577"
       cy="39.259964"
       cx="24.378382"
       id="path4177"
       style="opacity:1;fill:#ff9933;fill-opacity:1;stroke:none;stroke-width:1.29999995;stroke-miterlimit:4;stroke-dasharray:none;stroke-opacity:1" />
    <path
       d="m 11.357871,55.331902 c -0.460474,-0.84629 -0.961066,-1.718129 -1.4520717,-2.501613 0.4210647,0.873258 0.9060357,1.709613 1.4520717,2.501613"
       id="Fill-2"
       sketch:type="MSShapeGroup"
       inkscape:connector-curvature="0"
       style="fill:#005683;fill-rule:evenodd;stroke:none;stroke-width:1" />
    <path
       d="m 32.876569,56.101548 c -0.0057,-0.02235 -0.01065,-0.044 -0.01633,-0.06671 -0.05077,-0.202258 -0.106864,-0.410548 -0.170059,-0.627 -0.527219,-1.897678 -3.034437,-5.671742 -4.949468,-5.671742 -0.294319,0 -0.568757,0.08764 -0.838935,0.267548 -1.676805,1.117742 -1.33846,3.139613 -0.630177,6.096484 0.175029,0.731323 0.356094,1.487839 0.464733,2.193968 0.141657,0.918677 0.107219,1.945226 0.0742,2.937355 -0.05113,1.540709 -0.104023,3.13429 0.560591,3.820903 0.290769,0.300548 0.743787,0.446742 1.385326,0.446742 0.18568,0 0.360355,-0.01384 0.529349,-0.03513 0.05148,-0.0064 0.100118,-0.01597 0.149822,-0.02413 0.11787,-0.01916 0.231835,-0.04258 0.341539,-0.07097 0.04864,-0.01277 0.09728,-0.0259 0.144497,-0.04045 0.114319,-0.03477 0.223668,-0.07487 0.328757,-0.119225 0.03089,-0.01277 0.06355,-0.02413 0.09373,-0.03761 0.13491,-0.06139 0.263432,-0.129161 0.384142,-0.203678 0.01172,-0.0075 0.02237,-0.01597 0.03408,-0.02342 0.106864,-0.06813 0.207692,-0.140516 0.303194,-0.216807 0.02805,-0.02235 0.05468,-0.04542 0.08201,-0.06848 0.07846,-0.06636 0.153373,-0.135194 0.224379,-0.205807 0.02379,-0.02377 0.04828,-0.04755 0.07136,-0.07168 0.07953,-0.08374 0.154792,-0.169613 0.225088,-0.256903 0.0082,-0.01029 0.0174,-0.01987 0.02521,-0.03016 0.07846,-0.09936 0.150533,-0.200484 0.217634,-0.301968 0.01598,-0.02377 0.02982,-0.0479 0.04473,-0.07132 0.04757,-0.07523 0.09302,-0.150452 0.134913,-0.224968 0.02024,-0.03584 0.03941,-0.07097 0.05822,-0.106451 0.03266,-0.06174 0.06355,-0.122775 0.09266,-0.183452 0.01811,-0.03797 0.03728,-0.07629 0.05432,-0.113903 0.02414,-0.05287 0.04509,-0.103613 0.06639,-0.15471 0.04473,-0.106806 0.08485,-0.210064 0.118225,-0.305161 0.0021,-0.0053 0.0043,-0.011 0.006,-0.01597 0.02343,-0.06813 0.04473,-0.13271 0.0632,-0.192677 0.08059,-0.262226 0.11716,-0.446033 0.122485,-0.476904 0.0053,-0.03052 0.01278,-0.06245 0.02237,-0.09155 0.532189,-1.68371 0.745917,-3.099871 0.312426,-5.184548 -0.03834,-0.184517 -0.08237,-0.37471 -0.130651,-0.569516"
       id="Fill-6"
       sketch:type="MSShapeGroup"
       inkscape:connector-curvature="0"
       style="fill:#ffd200;fill-rule:evenodd;stroke:none;stroke-width:1" />
    <path
       d="m 49.954911,19.243031 c -2.120235,0 -5.156804,-0.01774 -7.040235,-0.170322 -0.164024,-0.01313 -0.308876,-0.01313 -0.402604,-0.0053 0.138817,0.226742 0.479289,0.623806 1.023195,1.076935 l 0.137041,0.116033 c 3.699764,3.152741 6.484616,3.814871 8.16923,3.815226 l 7.1e-4,0 c 0.601776,0 1.184025,-0.08339 1.731835,-0.247678 2.599171,-0.779226 4.19574,-2.389129 4.822722,-3.635677 0.233964,-0.465904 0.281538,-0.771775 0.281538,-0.915484 -0.353609,-0.03584 -1.273136,-0.05393 -2.740828,-0.05393 -0.781065,0 -1.669349,0.0043 -2.614083,0.0092 -1.074675,0.0053 -2.22284,0.011 -3.368521,0.011"
       id="Fill-7"
       sketch:type="MSShapeGroup"
       inkscape:connector-curvature="0"
       style="fill:#ff8800;fill-rule:evenodd;stroke:none;stroke-width:1" />
    <path
       d="m 3.8649709,50.355289 c -0.5378698,0.660355 -0.7168047,1.589323 -0.504142,2.616581 0.5424852,2.620839 5.2033136,7.703903 8.3602371,8.461129 0.241065,0.05784 0.459763,0.08729 0.649704,0.08729 0.492071,0 0.675267,-0.192678 0.770414,-0.337807 0.384852,-0.588677 0.166509,-1.868936 -0.138816,-2.566548 -0.874083,-1.996678 -3.6440243,-7.231259 -5.0439059,-8.307839 -0.7047338,-0.542194 -1.463432,-0.828548 -2.1944379,-0.828548 -0.7643787,0 -1.4392899,0.311193 -1.8990533,0.875741"
       id="Fill-8"
       sketch:type="MSShapeGroup"
       inkscape:connector-curvature="0"
       style="fill:#ffd200;fill-rule:evenodd;stroke:none;stroke-width:1" />
    <path
       d="m 11.173611,33.347515 c 0.162958,0.867936 0.739171,1.050323 1.193964,1.050323 0.59787,0 1.27491,-0.31971 1.811005,-0.855871 0.598225,-0.597903 0.866627,-1.38671 0.71787,-2.110936 -0.09231,-0.44958 -0.337988,-0.794129 -0.65716,-0.921516 -0.05219,-0.02093 -0.123905,-0.03194 -0.207692,-0.03194 -0.573373,0 -1.62071,0.515935 -2.313017,1.349806 -0.252782,0.304807 -0.660356,0.907323 -0.54497,1.520129"
       id="Fill-9"
       sketch:type="MSShapeGroup"
       inkscape:connector-curvature="0"
       style="fill:#ffd200;fill-rule:evenodd;stroke:none;stroke-width:1" />
    <path
       d="m 43.915503,61.63987 c -1.064734,0.635871 -2.10781,1.141871 -3.108638,1.537871 -3.284734,6.00671 -10.420119,10.622097 -16.611125,10.739549 -3.197752,0.05252 -5.675148,-1.152517 -7.021065,-3.414614 -1.50994,-2.538161 -3.816212,-3.47529 -5.316568,-3.089225 -1.005444,0.259032 -1.581657,1.097161 -1.622485,2.360742 -0.03586,1.108516 0.943313,2.587483 2.619053,3.956451 3.012781,2.461871 8.182721,4.441162 12.938698,3.314903 8.221775,-1.945935 15.60639,-8.297548 18.12213,-15.405677"
       id="Fill-10"
       sketch:type="MSShapeGroup"
       inkscape:connector-curvature="0"
       style="fill:#ff8800;fill-rule:evenodd;stroke:none;stroke-width:1" />
    <path
       d="m 10.765326,27.695999 c -0.0497,0.011 -0.06497,0.02803 -0.06533,0.02803 0.005,-0.0018 0.03657,0.05784 0.154438,0.137323 0.215857,0.145839 1.09562,0.555677 3.477869,-0.08055 -0.07314,-0.552129 -0.04544,-1.240871 0.194201,-2.059129 -1.392071,0.967645 -2.962012,1.796903 -3.761183,1.974322"
       id="Fill-11"
       sketch:type="MSShapeGroup"
       inkscape:connector-curvature="0"
       style="fill:#ff8800;fill-rule:evenodd;stroke:none;stroke-width:1" />
    <path
       d="m 12.367575,35.462354 0,0 c -1.160237,0 -2.019054,-0.735226 -2.241302,-1.918968 -0.1444973,-0.77071 0.12994,-1.621613 0.772544,-2.395871 0.834675,-1.004903 2.15219,-1.734451 3.132781,-1.734451 0.220828,0 0.423905,0.03619 0.603195,0.107871 0.652189,0.260806 1.14,0.894903 1.304734,1.696129 0.221183,1.075516 -0.155503,2.226258 -1.007929,3.077871 -0.742012,0.741967 -1.676805,1.167419 -2.564024,1.167419 l 0,0 z m 1.664023,-4.984774 c -0.573373,0 -1.62071,0.515935 -2.313017,1.349806 -0.252782,0.304807 -0.660356,0.907323 -0.54497,1.520129 0.162958,0.867936 0.739171,1.050323 1.193964,1.050323 0.59787,0 1.27491,-0.31971 1.811005,-0.855871 0.598225,-0.597903 0.866627,-1.38671 0.71787,-2.110936 -0.09231,-0.44958 -0.337988,-0.794129 -0.65716,-0.921516 -0.05219,-0.02093 -0.123905,-0.03194 -0.207692,-0.03194 l 0,0 z"
       id="Fill-12"
       sketch:type="MSShapeGroup"
       inkscape:connector-curvature="0"
       style="fill:#000000;fill-rule:evenodd;stroke:none;stroke-width:1" />
    <path
       d="m 49.437989,28.537322 c -0.595385,-1.681581 -1.326746,-3.212 -2.173846,-4.58771 -1.273137,-0.619903 -2.70497,-1.534677 -4.283078,-2.879161 L 42.85361,20.96187 c -1.744971,-1.45271 -1.50426,-2.116613 -1.425443,-2.334839 0.06319,-0.174935 0.175383,-0.311548 0.330176,-0.413742 -2.365562,-1.514096 -5.081183,-2.361096 -8.047455,-2.450516 -7.37148,-0.223193 -13.831953,2.911807 -17.285326,8.385904 -0.944022,1.497064 -1.270295,2.857516 -0.942602,3.935161 0.23858,0.784903 0.786034,1.268903 1.182247,1.444903 0.671006,0.298774 4.940237,-1.182322 6.18071,-3.436613 0.07065,-0.127387 0.189941,-0.221064 0.330888,-0.257968 0.141657,-0.0369 0.291124,-0.0149 0.415029,0.06139 2.912663,1.791225 6.186746,0.972258 9.026272,0.06422 0.281184,-0.08906 0.579764,0.06494 0.669587,0.344904 0.04793,0.150451 0.02379,0.305516 -0.05041,0.431838 1.876685,-0.04932 3.759762,0.236678 5.419172,0.891355 0.273373,0.107871 0.407574,0.416936 0.299645,0.690516 -0.107929,0.273581 -0.417516,0.408065 -0.690888,0.299484 -4.08284,-1.610258 -9.612071,-0.821451 -12.588639,1.796903 -1.02071,0.897742 -1.464142,1.764968 -1.248284,2.441645 0.221893,0.695484 1.127219,1.242646 2.253728,1.360807 0.846745,0.088 2.135148,-0.196936 3.500236,-0.499968 2.10355,-0.466613 4.48864,-0.995677 6.611361,-0.556387 3.440237,0.711452 5.722721,2.774129 9.17716,5.896355 l 0.421065,0.380387 c 0.217989,0.196935 0.235029,0.533677 0.03799,0.751548 -0.105088,0.116742 -0.24994,0.175646 -0.395147,0.175646 -0.120711,0 -0.240001,-0.044 -0.338699,-0.125968 0.340829,1.449161 0.515858,2.937 0.515858,4.442935 0,1.80542 -0.250651,3.589194 -0.740591,5.306968 0.54852,0.310129 1.009349,0.68271 1.339526,1.109936 0.179999,0.232419 0.137042,0.567032 -0.0955,0.746225 -0.232189,0.179904 -0.567693,0.137323 -0.746982,-0.09545 -0.919882,-1.189775 -3.262722,-1.883129 -5.577161,-1.65 -1.685324,0.170677 -4.756331,0.97758 -6.496686,4.433355 0.06639,0.177419 0.121421,0.341709 0.161538,0.486129 0.912427,3.125419 0.696568,5.021677 0.0067,7.219548 -0.06781,0.370807 -0.199173,0.812936 -0.395859,1.273516 2.343551,0.0067 6.480356,-0.507774 10.882367,-3.537032 8.334675,-5.735613 7.601539,-23.776678 4.888757,-31.437645"
       id="Fill-13"
       sketch:type="MSShapeGroup"
       inkscape:connector-curvature="0"
       style="fill:#ffd200;fill-rule:evenodd;stroke:none;stroke-width:1" />
    <g
       transform="matrix(0.10261263,-0.01999917,0.01907603,0.10244101,15.565352,20.772477)"
       id="g5059">
      <g
         id="g5017">
        <g
           id="g5019">
          <path
             inkscape:connector-curvature="0"
             d="m 108.61896,53.949042 c 6.50591,5.50555 6.33585,7.798518 6.42231,10.330142 0.31082,8.725279 -14.30872,2.445879 -18.135093,0 C 73.114053,49.059427 71.272677,49.712519 62.698166,52.570689 l -0.312255,0.121473 -0.305825,-0.121473 c -8.573796,-2.85817 -10.422317,-3.511262 -34.208725,11.708495 -3.823517,2.445879 -18.4444874,8.725279 -18.1443795,0 0.091461,-2.531624 -0.071454,-4.824592 6.4308835,-10.330142 0,0 -18.6752849,0.688104 -12.6302548,19.974323 C 6.4500893,83.241 14.819526,100.07705 62.380194,77.231697 109.94515,100.07705 118.31244,83.241 121.23278,73.923365 127.29496,54.633574 108.61896,53.949042 108.61896,53.949042 Z"
             id="path5021" />
        </g>
      </g>
      <g
         id="g5023" />
      <g
         id="g5025" />
      <g
         id="g5027" />
      <g
         id="g5029" />
      <g
         id="g5031" />
      <g
         id="g5033" />
      <g
         id="g5035" />
      <g
         id="g5037" />
      <g
         id="g5039" />
      <g
         id="g5041" />
      <g
         id="g5043" />
      <g
         id="g5045" />
      <g
         id="g5047" />
      <g
         id="g5049" />
      <g
         id="g5051" />
    </g>
    <path
       d="m 59.063196,18.262612 c -0.257396,-0.06458 -0.870532,-0.104323 -3.12568,-0.104323 -0.782486,0 -1.672545,0.0043 -2.61941,0.0092 -1.073253,0.0053 -2.218933,0.011 -3.363194,0.011 -1.960474,0 -4.708757,-0.01526 -6.566627,-0.138387 -2.75361,-2.071197 -6.022368,-3.23223 -9.645445,-3.341875 -7.725088,-0.236677 -14.513609,3.064032 -18.178934,8.82342 -1.409822,1.390612 -4.119408,2.932742 -5.029349,3.135354 -0.42142,0.09332 -0.7391719,0.376129 -0.8513612,0.755807 -0.1128994,0.38429 0.00852,0.804774 0.3241422,1.124484 0.289349,0.291677 0.891479,0.656451 2.096095,0.656451 0.647929,0 1.473018,-0.107871 2.514675,-0.386774 0.391242,0.886387 1.065443,1.450581 1.614674,1.69471 1.312189,0.58229 5.576094,-1.107097 7.256094,-3.439097 1.300828,0.690161 2.654201,0.953452 4.023905,0.951323 -0.949704,0.432548 -1.815976,0.964806 -2.539882,1.601741 -1.739999,1.53042 -1.808164,2.782646 -1.55929,3.564 0.353255,1.109226 1.593018,1.931742 3.156924,2.096388 1.018224,0.107871 2.326864,-0.183097 3.84213,-0.519484 1.999526,-0.443194 4.266035,-0.945645 6.165089,-0.553194 2.824615,0.584065 4.788995,2.153161 7.638461,4.706226 0.617396,1.855806 0.930533,3.797484 0.930533,5.772161 0,1.650355 -0.222249,3.281194 -0.65503,4.854549 -1.226982,-0.454194 -2.715621,-0.647581 -4.207456,-0.496065 -2.946035,0.298419 -5.423432,1.844807 -6.930887,4.283613 -1.106982,-2.162742 -3.252426,-5.007129 -5.612663,-5.007129 -0.575503,0 -1.122959,0.170323 -1.626391,0.506 -2.626863,1.750065 -1.881301,4.862 -1.224142,7.607387 0.17645,0.73629 0.342959,1.431774 0.442722,2.080065 0.121065,0.787742 0.08911,1.746871 0.05858,2.674064 -0.06106,1.836645 -0.12426,3.735387 0.958935,4.854903 0.564497,0.583355 1.373965,0.879291 2.406036,0.879291 2.134438,0 3.514438,-1.111355 4.341657,-2.353645 0.18852,0.0071 0.388047,0.01206 0.606035,0.01206 1.373609,0 3.309941,-0.172097 5.538817,-0.851613 -3.330533,5.172839 -9.59574,9.023903 -15.067456,9.127871 -1.962249,0.04258 -4.621775,-0.434677 -6.085562,-2.894774 -1.777633,-2.988097 -4.61503,-4.061484 -6.497397,-3.57571 -1.482603,0.381452 -2.3648512,1.605645 -2.4213009,3.357129 -0.047219,1.459097 1.0498229,3.214129 3.0092299,4.814807 2.576095,2.104548 6.638344,3.876968 10.780119,3.876968 1.028165,0 2.061656,-0.109291 3.078461,-0.349872 9.033018,-2.138612 17.101775,-9.41458 19.273846,-17.345935 4.885207,-3.488419 6.440237,-10.422323 6.880474,-15.655839 0.560947,-6.671677 -0.475385,-13.294387 -1.751361,-16.897774 -0.450888,-1.273516 -0.980592,-2.460097 -1.572426,-3.568968 1.186509,0.397775 2.185917,0.526936 2.971952,0.526936 l 7.1e-4,0 c 0.705444,0 1.390651,-0.09865 2.03787,-0.292387 4.154558,-1.245835 5.892781,-4.315899 5.862959,-5.607157 -0.01172,-0.508839 -0.266272,-0.874678 -0.679881,-0.977936 l 0,0 z m -44.730887,9.518194 c -2.382249,0.636225 -3.262012,0.226387 -3.477871,0.08055 -0.117869,-0.07948 -0.149467,-0.139097 -0.154437,-0.137323 3.55e-4,0 0.01562,-0.01703 0.06533,-0.02803 0.799172,-0.177419 2.369113,-1.006677 3.761184,-1.974322 -0.239645,0.818258 -0.267337,1.507 -0.194201,2.059129 l 0,0 z m 18.362485,34.074806 c -0.0096,0.0291 -0.01704,0.06103 -0.02237,0.09155 -0.02592,0.144775 -0.669586,3.551936 -3.915976,3.551936 -0.641539,0 -1.094556,-0.146194 -1.385326,-0.446742 -0.664615,-0.686613 -0.611716,-2.280194 -0.56059,-3.820903 0.03302,-0.992129 0.06745,-2.018678 -0.0742,-2.937355 -0.108639,-0.706129 -0.289704,-1.462645 -0.464732,-2.193968 -0.708284,-2.956871 -1.046628,-4.978742 0.630177,-6.096484 0.270178,-0.179903 0.544616,-0.267548 0.838934,-0.267548 1.915031,0 4.42225,3.774064 4.949468,5.671742 0.824023,2.823806 0.637633,4.444355 0.0046,6.447774 l 0,0 z m -6.901421,15.189935 c -4.755977,1.126259 -9.925917,-0.853032 -12.938697,-3.314903 -1.67574,-1.368968 -2.654912,-2.847935 -2.619054,-3.956451 0.04083,-1.263581 0.617041,-2.10171 1.622486,-2.360742 1.500355,-0.386065 3.806627,0.551064 5.316568,3.089225 1.345917,2.262097 3.823313,3.46713 7.021065,3.414614 6.191006,-0.117452 13.32639,-4.732839 16.611124,-10.739549 1.000828,-0.396 2.043904,-0.902 3.108638,-1.537871 -2.51574,7.108129 -9.900355,13.459742 -18.12213,15.405677 l 0,0 z M 49.437989,28.537322 c 2.71278,7.660967 3.445916,25.702032 -4.888757,31.437645 -4.402012,3.029258 -8.538818,3.543774 -10.882367,3.537032 0.196686,-0.46058 0.328046,-0.902709 0.395857,-1.273516 0.689822,-2.197871 0.90568,-4.094129 -0.0067,-7.219548 -0.04012,-0.14442 -0.09515,-0.30871 -0.161538,-0.486129 1.740355,-3.455775 4.811361,-4.262678 6.496686,-4.433355 2.314438,-0.233129 4.657278,0.460225 5.57716,1.65 0.179291,0.232774 0.514793,0.275355 0.746982,0.09545 0.232545,-0.179193 0.275503,-0.513806 0.0955,-0.746225 -0.330176,-0.427226 -0.791005,-0.799807 -1.339525,-1.109936 0.489939,-1.717774 0.74059,-3.501548 0.74059,-5.306968 0,-1.505935 -0.175028,-2.993774 -0.515857,-4.442935 0.0987,0.08197 0.217987,0.125968 0.338698,0.125968 0.145207,0 0.290059,-0.0589 0.395149,-0.175646 0.197041,-0.217871 0.179999,-0.554613 -0.03799,-0.751548 l -0.421065,-0.380387 c -3.454438,-3.122226 -5.736922,-5.184903 -9.17716,-5.896355 -2.122721,-0.43929 -4.507809,0.08977 -6.611361,0.556387 -1.365088,0.303032 -2.65349,0.587968 -3.500236,0.499968 -1.126509,-0.118161 -2.031835,-0.665323 -2.253728,-1.360807 -0.215858,-0.676677 0.227575,-1.543903 1.248284,-2.441645 2.976568,-2.618354 8.5058,-3.407161 12.588639,-1.796903 0.273374,0.108581 0.582959,-0.0259 0.690888,-0.299484 0.107929,-0.27358 -0.02627,-0.582645 -0.299645,-0.690516 -1.659408,-0.654677 -3.542485,-0.940677 -5.419171,-0.891355 0.0742,-0.126322 0.09834,-0.281387 0.05041,-0.431838 -0.08982,-0.279968 -0.388402,-0.433968 -0.669586,-0.344904 -2.839526,0.908033 -6.113609,1.727 -9.026272,-0.06422 -0.123905,-0.07629 -0.273372,-0.09829 -0.415029,-0.06139 -0.140947,0.0369 -0.260237,0.130581 -0.330888,0.257968 -1.240474,2.254291 -5.509704,3.735387 -6.180711,3.436613 -0.396212,-0.176 -0.943667,-0.66 -1.182247,-1.444903 -0.327693,-1.077645 -0.0014,-2.438097 0.942603,-3.935161 3.453372,-5.474097 9.913845,-8.609097 17.285325,-8.385904 2.966273,0.08942 5.681894,0.93642 8.047455,2.450516 -0.154793,0.102194 -0.266982,0.238807 -0.330176,0.413742 -0.07882,0.218226 -0.319528,0.882129 1.425443,2.334839 l 0.127456,0.108581 c 1.578107,1.344484 3.00994,2.259258 4.283077,2.879161 0.847101,1.37571 1.578462,2.906129 2.173846,4.58771 l 0,0 z m 8.958816,-8.345097 c -0.626983,1.246548 -2.223551,2.856452 -4.822722,3.635677 -0.547811,0.164291 -1.130059,0.247678 -1.731835,0.247678 l -7.1e-4,0 c -1.684614,-3.55e-4 -4.469466,-0.662484 -8.16923,-3.815226 l -0.137041,-0.116032 c -0.543906,-0.453129 -0.884378,-0.850194 -1.023195,-1.076936 0.09373,-0.0078 0.23858,-0.0078 0.402604,0.0053 1.883431,0.152581 4.92,0.170323 7.040235,0.170323 1.145682,0 2.293846,-0.0057 3.368521,-0.011 0.944734,-0.005 1.833019,-0.0092 2.614084,-0.0092 1.467692,0 2.387219,0.0181 2.740827,0.05394 0,0.143709 -0.04757,0.44958 -0.281538,0.915484 l 0,0 z"
       id="Fill-14"
       sketch:type="MSShapeGroup"
       inkscape:connector-curvature="0"
       style="fill:#000000;fill-rule:evenodd;stroke:none;stroke-width:1" />
    <path
       d="m 22.365917,23.273289 c -0.846745,0.634807 -0.591479,1.41971 0.35503,1.537871 0.946864,0.118162 1.02071,0.180968 1.893728,-0.473354 0.946508,-0.709678 1.065088,-1.89271 0,-1.774194 -1.065089,0.118516 -1.775148,0.354839 -2.248758,0.709677"
       id="Fill-15"
       sketch:type="MSShapeGroup"
       inkscape:connector-curvature="0"
       style="fill:#000000;fill-rule:evenodd;stroke:none;stroke-width:1" />
    <path
       d="m 19.88071,23.746644 c 0,0.587968 -0.476805,1.064516 -1.065089,1.064516 -0.587929,0 -1.065088,-0.476548 -1.065088,-1.064516 0,-0.587967 0.477159,-1.064516 1.065088,-1.064516 0.588284,0 1.065089,0.476549 1.065089,1.064516"
       id="Fill-16"
       sketch:type="MSShapeGroup"
       inkscape:connector-curvature="0"
       style="fill:#000000;fill-rule:evenodd;stroke:none;stroke-width:1" />
    <path
       d="m 32.188521,20.789773 c 0,0.587968 -0.476804,1.064516 -1.065089,1.064516 -0.588284,0 -1.065089,-0.476548 -1.065089,-1.064516 0,-0.587967 0.476805,-1.064516 1.065089,-1.064516 0.588285,0 1.065089,0.476549 1.065089,1.064516"
       id="Fill-17"
       sketch:type="MSShapeGroup"
       inkscape:connector-curvature="0"
       style="fill:#000000;fill-rule:evenodd;stroke:none;stroke-width:1" />
    <path
       d="m 12.37077,62.584806 0,0 c -0.273372,0 -0.575503,-0.03903 -0.898225,-0.116388 C 7.8707697,61.604031 2.9411839,56.198773 2.317752,53.187612 2.0390538,51.840999 2.2950301,50.596225 3.0384621,49.68358 c 0.6571597,-0.806194 1.6505325,-1.268549 2.7255621,-1.268549 0.9678106,0 1.9512426,0.363 2.844142,1.049613 1.7534908,1.348033 4.7279288,7.257871 5.3698218,8.724065 0.266982,0.609967 0.797042,2.440935 0.05432,3.576419 -0.244616,0.374 -0.731716,0.819678 -1.661538,0.819678 l 0,0 z M 5.7640242,49.479548 c -0.7643787,0 -1.4392899,0.311193 -1.8990533,0.875741 -0.5378698,0.660355 -0.7168047,1.589323 -0.504142,2.616581 0.5424852,2.620839 5.2033136,7.703903 8.3602371,8.461129 0.241065,0.05784 0.459763,0.08729 0.649704,0.08729 0.49207,0 0.675267,-0.192678 0.770414,-0.337807 0.384852,-0.588677 0.166509,-1.868936 -0.138816,-2.566548 C 12.128284,56.619257 9.3583437,51.384676 7.9584621,50.308096 7.2537283,49.765902 6.4950301,49.479548 5.7640242,49.479548 l 0,0 z"
       id="Fill-18"
       sketch:type="MSShapeGroup"
       inkscape:connector-curvature="0"
       style="fill:#000000;fill-rule:evenodd;stroke:none;stroke-width:1" />
    <path
       id="path5872"
       style="fill:#008000;fill-opacity:1;fill-rule:evenodd;stroke:none;stroke-width:2;stroke-linecap:butt;stroke-linejoin:miter;stroke-miterlimit:4;stroke-dasharray:none;stroke-opacity:1"
       d="M 30.10278,14.162436 44.996633,4.3836458 46.35062,4.0827599 M 49.066697,23.325386 C 48.158894,20.90637 45.086704,21.065179 42.939319,20.6023 c -2.657478,-1.280698 -5.423102,-2.415923 -7.81056,-4.096185 -1.867461,-0.891839 -3.82106,-2.707667 -6.070925,-2.188996 -3.164735,1.06589 -6.537162,2.083195 -8.933102,4.329346 -1.655348,1.113026 -2.106442,1.621291 -3.414031,3.258398 -0.743693,1.738052 0.04253,1.841795 -1.046683,0.376329 C 14.522106,20.295018 12.310843,19.851957 11.607954,17.623894 10.43628,14.951855 10.28627,13.694605 9.030592,11.057874 7.9982881,8.7366993 8.3457301,5.9044186 10.808025,4.4484707 c 2.073016,-1.2929485 4.53333,-2.1626446 6.988006,-2.6228935 3.115472,-0.199173 -0.634835,-1.72729723 -1.648745,-2.24364973 -1.670198,-0.5571442 -1.374123,-3.04918427 0.569502,-1.87833877 0.643642,0.6224209 2.415156,0.7169661 1.071048,-0.2981705 -1.165213,-2.0145769 1.551625,-3.5744629 3.087503,-4.6061799 1.944235,-1.675507 4.748207,-1.026564 6.922034,-2.165911 1.560796,-1.0541663 2.545102,1.500316 3.498548,-0.222233 1.906665,-1.0324413 4.80002,-1.4934083 6.03435,-1.0190293 2.058843,1.0979343 4.299097,1.6969403 6.678762,1.3940263 2.532802,0.761976 5.401203,0.222519 7.666728,1.651192 1.747112,0.95146 3.748273,2.601604 3.132602,4.6379107 -1.282858,1.0206649 1.141366,2.87710987 -1.182744,2.95992757 -2.015014,1.36183963 -3.950444,3.15016303 -6.635673,3.26475563 -3.065363,0.3098936 1.047914,2.1077489 1.975783,2.7380346 1.980984,0.9645446 2.485278,3.0165775 3.85145,4.5088372 0.972845,2.091233 0.793148,4.513105 0.289538,6.696493 -0.431736,1.927617 -1.75992,3.557624 -2.303314,5.438356 -0.457399,0.471366 -1.217684,0.234913 -1.736705,0.643791 z"
       inkscape:connector-curvature="0" />
    <path
       inkscape:connector-curvature="0"
       d="M 30.10278,14.162436 44.996633,4.3836458 46.35062,4.0827599 M 49.066697,23.325386 C 48.158894,20.90637 45.086704,21.065179 42.939319,20.6023 c -2.657478,-1.280698 -5.423102,-2.415923 -7.81056,-4.096185 -1.867461,-0.891839 -3.82106,-2.707667 -6.070925,-2.188996 -3.164735,1.06589 -6.537162,2.083195 -8.933102,4.329346 -1.655348,1.113026 -2.106442,1.621291 -3.414031,3.258398 -0.743693,1.738052 0.04253,1.841795 -1.046683,0.376329 C 14.522106,20.295018 12.310843,19.851957 11.607954,17.623894 10.43628,14.951855 10.28627,13.694605 9.030592,11.057874 7.9982881,8.7366993 8.3457301,5.9044186 10.808025,4.4484707 c 2.073016,-1.2929485 4.53333,-2.1626446 6.988006,-2.6228935 3.115472,-0.199173 -0.634835,-1.72729723 -1.648745,-2.24364973 -1.670198,-0.5571442 -1.374123,-3.04918427 0.569502,-1.87833877 0.643642,0.6224209 2.415156,0.7169661 1.071048,-0.2981705 -1.165213,-2.0145769 1.551625,-3.5744629 3.087503,-4.6061799 1.944235,-1.675507 4.748207,-1.026564 6.922034,-2.165911 1.560796,-1.0541663 2.545102,1.500316 3.498548,-0.222233 1.906665,-1.0324413 4.80002,-1.4934083 6.03435,-1.0190293 2.058843,1.0979343 4.299097,1.6969403 6.678762,1.3940263 2.532802,0.761976 5.401203,0.222519 7.666728,1.651192 1.747112,0.95146 3.748273,2.601604 3.132602,4.6379107 -1.282858,1.0206649 1.141366,2.87710987 -1.182744,2.95992757 -2.015014,1.36183963 -3.950444,3.15016303 -6.635673,3.26475563 -3.065363,0.3098936 1.047914,2.1077489 1.975783,2.7380346 1.980984,0.9645446 2.485278,3.0165775 3.85145,4.5088372 0.972845,2.091233 0.793148,4.513105 0.289538,6.696493 -0.431736,1.927617 -1.75992,3.557624 -2.303314,5.438356 -0.457399,0.471366 -1.217684,0.234913 -1.736705,0.643791 z"
       style="fill:url(#pattern5927);fill-opacity:1;fill-rule:evenodd;stroke:none;stroke-width:2;stroke-linecap:butt;stroke-linejoin:miter;stroke-miterlimit:4;stroke-dasharray:none;stroke-opacity:1"
       id="path5425" />
    <path
       inkscape:connector-curvature="0"
       d="m 17.561899,1.7179969 c 0,0 11.690911,-1.68232853 13.83442,-1.73457693 6.647118,-0.1620246 10.772355,1.72613343 13.924708,4.00062833 M 29.698128,14.162437 44.591981,4.3836456 45.945968,4.0827597 m 2.716077,19.2426273 c -0.907803,-2.419016 -3.979993,-2.260207 -6.127378,-2.723086 -2.657478,-1.280698 -5.423102,-2.415923 -7.81056,-4.096185 -1.867461,-0.891839 -3.82106,-2.707667 -6.070925,-2.188996 -3.164735,1.06589 -6.537162,2.083195 -8.933102,4.329346 -1.655347,1.113026 -2.106441,1.621291 -3.414031,3.258398 -0.743693,1.738052 0.04253,1.841795 -1.046683,0.376329 C 14.117454,20.295019 11.906191,19.851958 11.203302,17.623895 10.031628,14.951856 9.881618,13.694606 8.62594,11.057875 7.5936357,8.7366993 7.9410777,5.9044184 10.403373,4.4484705 c 2.073016,-1.2929484 4.53333,-2.1626444 6.988006,-2.6228933 3.115472,-0.199173 -0.634835,-1.72729713 -1.648745,-2.24364983 -1.670198,-0.5571443 -1.374123,-3.04918437 0.569502,-1.87833887 0.643642,0.6224209 2.415156,0.7169661 1.071048,-0.2981705 -1.165213,-2.0145767 1.551624,-3.5744627 3.087502,-4.6061797 1.944236,-1.675507 4.748208,-1.026564 6.922035,-2.16591 1.560796,-1.0541663 2.545102,1.500315 3.498548,-0.222233 1.906665,-1.0324413 4.80002,-1.4934083 6.03435,-1.0190293 2.058843,1.0979343 4.299097,1.6969393 6.678762,1.3940253 2.532802,0.761976 5.401203,0.222519 7.666728,1.651192 1.747112,0.95146 3.748273,2.601603 3.132602,4.6379105 -1.282858,1.0206649 1.141366,2.87711007 -1.182744,2.95992777 -2.015014,1.36183963 -3.950444,3.15016293 -6.635673,3.26475553 -3.065363,0.3098935 1.047914,2.1077488 1.975783,2.7380345 1.980984,0.9645446 2.485278,3.0165777 3.85145,4.5088374 0.972845,2.091234 0.793148,4.513106 0.289538,6.696494 -0.431736,1.927617 -1.75992,3.557624 -2.303314,5.438356 -0.457399,0.471366 -1.217684,0.234913 -1.736705,0.643791 z"
       style="fill:none;fill-rule:evenodd;stroke:#000000;stroke-width:2.0999999;stroke-linecap:butt;stroke-linejoin:miter;stroke-miterlimit:4;stroke-dasharray:none;stroke-opacity:1"
       id="path4229" />
    <g
       transform="translate(58.959881,-28.338782)"
       id="g6602">
      <g
         transform="translate(-5.0490342,0.09806835)"
         id="g6606">
        <ellipse
           style="opacity:1;fill:#000000;fill-opacity:1;stroke:none;stroke-width:1.29999995;stroke-miterlimit:4;stroke-dasharray:none;stroke-opacity:1"
           id="ellipse6600"
           cx="-26.736328"
           cy="39.747044"
           rx="5.7780342"
           ry="6.49406"
           transform="matrix(0.99555654,0.09416567,-0.1295235,0.99157635,0,0)" />
        <path
           d="m -32.012498,42.165414 c -0.377661,0.02443 -0.684978,0.0027 -1.060311,-0.07513 -0.113248,-1.128052 -0.186253,-2.537161 0.382317,-4.993379 1.032872,2.673618 2.17051,4.634204 2.178659,4.645008 -0.193404,0.09224 -0.781763,0.372804 -1.500665,0.423497 m -1.732151,-0.28488 c -2.955267,-1.342294 -3.497729,-4.524175 -2.506098,-6.973578 0.03775,2.423973 0.716906,4.313921 2.506098,6.973578 m 4.000111,-0.598348 c 0.468792,-2.019258 1.24806,-3.949595 1.706538,-5.971844 0.08847,-0.39092 0.165136,-0.999241 0.02726,-1.677535 1.3658,2.132446 1.208983,5.444633 -1.733811,7.649379 m -6.090621,-7.18782 c 1.334036,-2.052167 3.8852,-3.721225 6.685311,-1.671551 -0.01879,-8.43e-4 -1.795011,0.08061 -0.504047,1.98934 0.697784,1.031486 0.742185,1.859034 0.190244,3.541887 -0.199223,0.829709 -0.259423,1.080184 -0.43736,1.934492 -0.851941,-2.035048 -1.547229,-3.767597 -2.096342,-5.983146 0.48276,-0.07081 1.029712,-0.151083 0.74867,-0.461559 -0.03542,-0.03906 -2.578438,0.213078 -2.602717,0.217234 -0.195233,0.03324 -0.229491,0.26294 -0.229823,0.265101 -0.02029,0.181332 0.01264,0.179504 0.563581,0.146262 0.145177,0.782175 0.211364,1.139355 0.570566,2.281036 -0.259257,1.077524 -0.527661,2.191781 -0.564413,3.917184 -1.158758,-2.305135 -1.622561,-3.906215 -1.711032,-5.907688 0.164468,-0.09989 0.384147,-0.06067 0.529491,-0.209422 0.09911,-0.101553 0.147339,-0.330587 0.02378,-0.357181 -0.438193,-0.0944 -0.772617,0.215905 -1.165909,0.298011 m 4.026386,-3.033125 c -4.383926,0.361668 -7.230601,6.96427 -3.353382,10.419563 3.929602,3.501665 8.784479,-1.022842 8.616852,-5.220917 -0.130212,-3.25468 -2.826552,-5.315656 -5.26347,-5.198646"
           id="Fill-5"
           sketch:type="MSShapeGroup"
           inkscape:connector-curvature="0"
           style="fill:url(#radialGradient4255);fill-opacity:1;fill-rule:evenodd;stroke:none;stroke-width:1" />
      </g>
    </g>
    <ellipse
       style="opacity:1;fill:#a59933;fill-opacity:0;stroke:none;stroke-width:1.29999995;stroke-miterlimit:4;stroke-dasharray:none;stroke-opacity:1"
       id="ellipse4237"
       cx="22.130739"
       cy="37.815731"
       rx="6.5783496"
       ry="7.3935513"
       transform="matrix(0.99555654,0.09416566,-0.1295235,0.99157635,0,0)" />
  </g>
</svg>
