<?xml version="1.0" encoding="utf-8"?>
<!-- Generator: Adobe Illustrator 19.2.1, SVG Export Plug-In . SVG Version: 6.00 Build 0)  -->
<svg version="1.1" id="Artwork" xmlns:sketch="http://www.bohemiancoding.com/sketch/ns"
	 xmlns="http://www.w3.org/2000/svg" xmlns:xlink="http://www.w3.org/1999/xlink" x="0px" y="0px" viewBox="0 0 489.7 617.4"
	 style="enable-background:new 0 0 489.7 617.4;" xml:space="preserve">
<style type="text/css">
	.st0{fill:#005683;}
	.st1{fill:#74B9AC;}
	.st2{fill:#9BD1C6;}
	.st3{fill:#FFFFFF;}
	.st4{fill:#CFD6D6;}
	.st5{fill:#F08518;}
	.st6{fill:none;}
	.st7{fill:#FFD103;}
	.st8{fill:#C23C32;}
	.st9{fill:#ED7171;}
	.st10{fill:#921914;}
	.st11{fill:none;stroke:#000000;stroke-width:7.0746;stroke-linecap:round;stroke-linejoin:round;stroke-miterlimit:10;}
	.st12{fill:#010202;}
</style>
<path id="Fill-1" sketch:type="MSShapeGroup" d="M477.5,106.3c-3-0.8-8-1.1-27.8-1.1c-6.4,0-13.7,0-21.5,0.1
	c-8.8,0-18.1,0.1-27.4,0.1c-15,0-36-0.1-50.9-1c-23.9-17.4-51.5-26.7-82-27.6c-66.1-2-124.6,26.5-156.3,75.6
	c-10.7,10.2-30.9,21.5-36.3,22.7c-9.1,2-15.1,10-14.1,19c0.7,6.5,5.3,13.8,15.6,17.1c-1.2,1.2-2.3,2.4-3.4,3.7
	c-7,8.4-9.9,17.9-8.2,26.9c0.3,1.8,0.8,3.5,1.4,5.1c-15.1,25.6-23,54.7-23,84.7c0,7.6,0.5,15.1,1.5,22.5c-2.4-0.4-4.8-0.6-7.1-0.6
	c-11.5,0-22.1,5-29.1,13.6c-7.8,9.6-10.5,22.4-7.7,36.1c5.8,27.9,48,74.8,81.7,82.9c3.3,0.8,6.5,1.2,9.4,1.2c9,0,16.4-3.8,21-10.7
	c1.4-2.2,2.5-4.5,3.2-6.9c23,15.8,49.5,25.6,77.7,28.5c6.1,19.9,22.5,23.2,32.7,23.2c15.4,0,28.7-6.3,38.2-17.8c0.9,0,1.7,0,2.6,0
	c6.5,0,14.6-0.4,23.9-1.9c-29.6,33.2-72.4,52.3-103.9,52.4h0c-13.3,0-31.1-3.4-40.7-19.5c-12.7-21.3-33-34.6-53.1-34.6
	c-21.1,0-35.7,14.9-36.4,37c-0.4,12,5.9,25,18.1,37.6c20.6,21.3,60.6,42.8,103.5,42.8c9.5,0,18.8-1.1,27.6-3.2
	c76-18,144-78.8,163.8-145.6c72.5-55.4,66.7-207.5,42.7-275.4c-1.7-4.7-3.5-9.3-5.4-13.8c2.9,0.3,5.8,0.5,8.7,0.5
	c6.6,0,13.1-0.9,19.2-2.8c37.7-11.3,54.7-39.3,54.4-54.6C489.5,114.5,484.8,108.1,477.5,106.3"/>
<title>Artboard</title>
<desc>Created with Sketch.</desc>
<path id="Fill-2_1_" sketch:type="MSShapeGroup" class="st0" d="M83.8,419c-3.8-6.9-7.9-14.1-11.9-20.5
	C75.4,405.7,79.4,412.5,83.8,419"/>
<path id="Fill-3_1_" sketch:type="MSShapeGroup" class="st1" d="M353.5,284.2c-23.4-21-39.5-33.8-62.7-38.6
	c-15.6-3.2-34.2,0.9-50.6,4.5c-12.4,2.8-23.2,5.1-31.5,4.3c-12.8-1.4-23-8.1-25.9-17.2c-2-6.4-1.5-16.7,12.8-29.3
	c5.9-5.2,13.1-9.6,20.8-13.1c-11.2,0-22.4-2.1-33-7.8c-13.8,19.1-48.8,33-59.6,28.2c-2.4-1.1-5.1-2.9-7.5-5.4
	c-0.2,0.2-0.4,0.4-0.7,0.6c2.8,2.7,4.9,6.4,5.8,10.7c1.8,8.8-1.3,18.3-8.3,25.3c-6.1,6.1-13.8,9.6-21,9.6c-5.1,0-9.4-1.8-12.7-4.9
	c-14.4,23.4-22.8,51-22.8,80.5c0,13.8,1.8,27.1,5.2,39.8c14.5,11.9,38.3,59.2,43.5,71.1c0.3,0.6,0.6,1.5,0.9,2.4
	c24.8,22.9,57.1,37.8,92.8,40.6c-0.4-5.9-0.2-12.2,0-18.4c0.3-7.6,0.5-15.5-0.5-21.9c-0.8-5.3-2.2-11-3.6-17.1
	c-5.4-22.5-11.5-48.1,10-62.4c4.1-2.8,8.6-4.2,13.3-4.2c19.4,0,37,23.3,46.1,41.1c12.4-20,32.7-32.7,56.9-35.2
	c12.2-1.2,24.5,0.3,34.5,4.1c3.6-12.9,5.4-26.3,5.4-39.8C361.2,315.4,358.6,299.5,353.5,284.2"/>
<path id="Fill-4_1_" sketch:type="MSShapeGroup" class="st2" d="M253.2,247.4c-4.4,0.9-8.8,1.8-13,2.8c-12.4,2.8-23.2,5.1-31.5,4.3
	c-12.8-1.4-23-8.1-25.9-17.2c-2-6.4-1.5-16.7,12.8-29.3c0.2-0.2,0.4-0.3,0.6-0.5c-9.2-3-18.9-4.9-28.9-5.6
	c-15.8,10.7-35.8,16.8-43.5,13.4c-2.4-1.1-5.1-2.9-7.5-5.4c-0.2,0.2-0.5,0.4-0.7,0.6c2.8,2.7,4.9,6.4,5.8,10.7
	c1.8,8.8-1.3,18.3-8.3,25.3c-6.1,6.1-13.8,9.6-21,9.6c-5.1,0-9.4-1.8-12.7-4.9c-14.4,23.4-22.8,51-22.8,80.5
	c0,13.7,1.8,27.1,5.2,39.7c9.7,8,23.6,31.9,33.3,50.4c18.5,11.8,40.4,18.6,64,18.6c13,0,25.5-2.1,37.3-6c-0.5-2.1-1-4.2-1.5-6.3
	c-5.4-22.5-11.5-48.1,10-62.4c4.1-2.8,8.6-4.2,13.3-4.2c14.9,0,28.7,13.8,38.5,28.3c13.7-19.4,21.8-43.2,21.8-68.8
	C278.6,293.2,269.1,267.7,253.2,247.4"/>
<path id="Fill-5_1_" sketch:type="MSShapeGroup" class="st3" d="M148.9,412.6c-6.6,0.4-12,0-18.6-1.3c-2-19.8-3.3-44.5,6.7-87.5
	c18.1,46.9,38,81.2,38.2,81.4C171.8,406.8,161.5,411.7,148.9,412.6 M118.5,407.6c-51.8-23.5-61.3-79.3-43.9-122.2
	C75.3,327.9,87.2,361,118.5,407.6 M188.6,397.1c8.2-35.4,21.9-69.2,29.9-104.6c1.6-6.9,2.9-17.5,0.5-29.4
	C242.9,300.4,240.2,358.5,188.6,397.1 M81.9,271.2c23.4-36,68.1-65.2,117.1-29.3c-0.3,0-31.5,1.4-8.8,34.9
	c12.2,18.1,13,32.6,3.3,62.1c-3.5,14.5-4.5,18.9-7.7,33.9c-14.9-35.7-27.1-66-36.7-104.8c8.5-1.2,18-2.6,13.1-8.1
	c-0.6-0.7-45.2,3.7-45.6,3.8c-3.4,0.6-4,4.6-4,4.6c-0.4,3.2,0.2,3.1,9.9,2.6c2.5,13.7,3.7,20,10,40c-4.5,18.9-9.2,38.4-9.9,68.6
	c-20.3-40.4-28.4-68.4-30-103.5c2.9-1.8,6.7-1.1,9.3-3.7c1.7-1.8,2.6-5.8,0.4-6.3C94.6,264.3,88.8,269.7,81.9,271.2 M152.4,218
	c-76.8,6.3-126.7,122-58.8,182.6c68.9,61.4,153.9-17.9,151-91.5C242.4,252.1,195.1,216,152.4,218"/>
<path id="Fill-6_1_" sketch:type="MSShapeGroup" class="st4" d="M259.8,425.4c0-0.2-0.1-0.4-0.1-0.5c-0.4-1.7-0.9-3.4-1.4-5.1
	c-4.3-15.6-24.9-46.6-40.6-46.6c-2.4,0-4.7,0.7-6.9,2.2c-13.8,9.2-11,25.8-5.2,50c1.4,6,2.9,12.2,3.8,18c1.2,7.5,0.9,16,0.6,24.1
	c-0.4,12.6-0.9,25.7,4.6,31.4c2.4,2.5,6.1,3.7,11.4,3.7c1.5,0,3-0.1,4.3-0.3c0.4-0.1,0.8-0.1,1.2-0.2c1-0.2,1.9-0.3,2.8-0.6
	c0.4-0.1,0.8-0.2,1.2-0.3c0.9-0.3,1.8-0.6,2.7-1c0.3-0.1,0.5-0.2,0.8-0.3c1.1-0.5,2.2-1.1,3.2-1.7c0.1-0.1,0.2-0.1,0.3-0.2
	c0.9-0.6,1.7-1.2,2.5-1.8c0.2-0.2,0.4-0.4,0.7-0.6c0.6-0.5,1.3-1.1,1.8-1.7c0.2-0.2,0.4-0.4,0.6-0.6c0.7-0.7,1.3-1.4,1.8-2.1
	c0.1-0.1,0.1-0.2,0.2-0.2c0.6-0.8,1.2-1.6,1.8-2.5c0.1-0.2,0.2-0.4,0.4-0.6c0.4-0.6,0.8-1.2,1.1-1.8c0.2-0.3,0.3-0.6,0.5-0.9
	c0.3-0.5,0.5-1,0.8-1.5c0.1-0.3,0.3-0.6,0.4-0.9c0.2-0.4,0.4-0.9,0.5-1.3c0.4-0.9,0.7-1.7,1-2.5c0,0,0-0.1,0-0.1
	c0.2-0.6,0.4-1.1,0.5-1.6c0.7-2.2,1-3.7,1-3.9c0-0.3,0.1-0.5,0.2-0.8c4.4-13.8,5.2-25.8,2.6-42.6C260.6,428.5,260.2,427,259.8,425.4
	"/>
<path id="Fill-7_1_" sketch:type="MSShapeGroup" class="st5" d="M400.7,122.8c-17.4,0-42.3-0.1-57.8-1.4c-1.3-0.1-2.5-0.1-3.3,0
	c1.1,1.9,3.9,5.1,8.4,8.8l1.1,1c30.4,25.9,53.2,31.3,67.1,31.3h0c4.9,0,9.7-0.7,14.2-2c21.3-6.4,34.4-19.6,39.6-29.8
	c1.9-3.8,2.3-6.3,2.3-7.5c-2.9-0.3-10.4-0.4-22.5-0.4c-6.4,0-13.7,0-21.5,0.1C419.5,122.8,410.1,122.8,400.7,122.8"/>
<path id="Fill-8_1_" sketch:type="MSShapeGroup" class="st4" d="M22.3,378.2c-4.4,5.4-5.9,13-4.1,21.5c4.5,21.5,42.7,63.2,68.6,69.4
	c2,0.5,3.8,0.7,5.3,0.7c4,0,5.5-1.6,6.3-2.8c3.2-4.8,1.4-15.3-1.1-21.1c-7.2-16.4-29.9-59.4-41.4-68.2c-5.8-4.5-12-6.8-18-6.8
	C31.7,371,26.1,373.5,22.3,378.2"/>
<path id="Fill-9_1_" sketch:type="MSShapeGroup" class="st4" d="M82.3,238.6c1.3,7.1,6.1,8.6,9.8,8.6c4.9,0,10.5-2.6,14.9-7
	c4.9-4.9,7.1-11.4,5.9-17.3c-0.8-3.7-2.8-6.5-5.4-7.6c-0.4-0.2-1-0.3-1.7-0.3c-4.7,0-13.3,4.2-19,11.1
	C84.7,228.6,81.4,233.6,82.3,238.6"/>
<path id="Fill-10_1_" sketch:type="MSShapeGroup" class="st5" d="M351.1,470.8c-8.7,5.2-17.3,9.4-25.5,12.6
	c-27,49.3-85.5,87.2-136.3,88.1c-26.2,0.4-46.6-9.5-57.6-28c-12.4-20.8-31.3-28.5-43.6-25.4c-8.3,2.1-13,9-13.3,19.4
	c-0.3,9.1,7.7,21.2,21.5,32.5c24.7,20.2,67.2,36.5,106.2,27.2C269.8,581.3,330.4,529.1,351.1,470.8"/>
<path id="Fill-11_1_" sketch:type="MSShapeGroup" class="st5" d="M79,192.2c-0.4,0.1-0.5,0.2-0.5,0.2c0,0,0.3,0.5,1.3,1.1
	c1.8,1.2,9,4.6,28.5-0.7c-0.6-4.5-0.4-10.2,1.6-16.9C98.4,183.9,85.5,190.7,79,192.2"/>
<path id="Fill-12" sketch:type="MSShapeGroup" d="M92.1,255.9L92.1,255.9c-9.5,0-16.6-6-18.4-15.8c-1.2-6.3,1.1-13.3,6.3-19.7
	c6.9-8.2,17.7-14.2,25.7-14.2c1.8,0,3.5,0.3,5,0.9c5.4,2.1,9.4,7.3,10.7,13.9c1.8,8.8-1.3,18.3-8.3,25.3
	C107.1,252.4,99.4,255.9,92.1,255.9L92.1,255.9z M105.8,215c-4.7,0-13.3,4.2-19,11.1c-2.1,2.5-5.4,7.4-4.5,12.5
	c1.3,7.1,6.1,8.6,9.8,8.6c4.9,0,10.5-2.6,14.9-7c4.9-4.9,7.1-11.4,5.9-17.3c-0.8-3.7-2.8-6.5-5.4-7.6
	C107.1,215.1,106.5,215,105.8,215L105.8,215z"/>
<path id="Fill-18_1_" sketch:type="MSShapeGroup" d="M92.2,478.6L92.2,478.6c-2.2,0-4.7-0.3-7.4-1c-29.6-7.1-70-51.5-75.1-76.2
	c-2.3-11.1-0.2-21.3,5.9-28.8c5.4-6.6,13.5-10.4,22.4-10.4c7.9,0,16,3,23.3,8.6c14.4,11.1,38.8,59.6,44.1,71.6
	c2.2,5,6.5,20,0.4,29.4C103.8,474.9,99.8,478.6,92.2,478.6L92.2,478.6z M37.9,371c-6.3,0-11.8,2.6-15.6,7.2
	c-4.4,5.4-5.9,13-4.1,21.5c4.5,21.5,42.7,63.2,68.6,69.4c2,0.5,3.8,0.7,5.3,0.7c4,0,5.5-1.6,6.3-2.8c3.2-4.8,1.4-15.3-1.1-21.1
	c-7.2-16.4-29.9-59.4-41.4-68.2C50.2,373.3,43.9,371,37.9,371L37.9,371z"/>
<path class="st6" d="M396.4,199.1c-4.9-13.8-10.9-26.4-17.8-37.7c-10.4-5.1-22.2-12.6-35.2-23.6l-1-0.9
	C328,125,330,119.5,330.7,117.8c0.5-1.4,1.4-2.6,2.7-3.4C314,101.9,291.7,95,267.3,94.2c-60.5-1.8-113.5,23.9-141.9,68.8
	c-7.7,12.3-10.4,23.5-7.7,32.3c2,6.4,6.5,10.4,9.7,11.9c5.5,2.5,40.5-9.7,50.7-28.2c0.6-1,1.6-1.8,2.7-2.1c1.2-0.3,2.4-0.1,3.4,0.5
	c9.6,5.9,19.7,8.4,29.9,8.7c5.3-1.5,10.7-2.6,16.1-3.8c6.2-1.3,12.3-2.7,18.5-4c3.1-0.7,6.3-1.4,9.5-1.3c3.9,0.1,7.7,1.3,11.4,2.5
	c7.1,2.3,14.2,4.6,21.3,7c0.5,0.2,1,0.4,1.5,0.6c5.3,1.2,10.5,2.7,15.5,4.7c2.2,0.9,3.3,3.4,2.5,5.7c-0.9,2.2-3.4,3.3-5.7,2.5
	c-2.2-0.9-4.4-1.6-6.6-2.3c1.4,13.1,2,26.3,1.8,39.5c0,0.6,0,1.3-0.1,1.9c24.4,7.1,42.3,23.2,68.2,46.6l3.5,3.1
	c1.8,1.6,1.9,4.4,0.3,6.2c-0.9,1-2.1,1.4-3.2,1.4c-1,0-2-0.4-2.8-1c2.8,11.9,4.2,24.1,4.2,36.5c0,14.8-2.1,29.5-6.1,43.6
	c4.5,2.5,8.3,5.6,11,9.1c1.5,1.9,1.1,4.7-0.8,6.1c-1.9,1.5-4.7,1.1-6.1-0.8c-7.6-9.8-26.8-15.5-45.8-13.5c-13.8,1.4-39,8-53.3,36.4
	c0.5,1.5,1,2.8,1.3,4c7.5,25.7,5.7,41.2,0.1,59.3c-0.6,3-1.6,6.7-3.2,10.5c19.2,0.1,53.2-4.2,89.3-29
	C424.7,410.1,418.7,262,396.4,199.1z"/>
<path id="Fill-13_1_" sketch:type="MSShapeGroup" class="st7" d="M395.7,199.1c-4.9-13.8-10.9-26.4-17.8-37.7
	c-10.4-5.1-22.2-12.6-35.2-23.6l-1-0.9c-14.3-11.9-12.3-17.4-11.7-19.2c0.5-1.4,1.4-2.6,2.7-3.4C313.3,101.9,291,95,266.6,94.2
	c-60.5-1.8-113.5,23.9-141.9,68.8c-7.7,12.3-10.4,23.5-7.7,32.3c2,6.4,6.5,10.4,9.7,11.9c5.5,2.5,40.5-9.7,50.7-28.2
	c0.6-1,1.6-1.8,2.7-2.1c1.2-0.3,2.4-0.1,3.4,0.5c23.9,14.7,50.8,8,74.1,0.5c2.3-0.7,4.8,0.5,5.5,2.8c0.4,1.2,0.2,2.5-0.4,3.5
	c15.4-0.4,30.9,1.9,44.5,7.3c2.2,0.9,3.3,3.4,2.5,5.7c-0.9,2.2-3.4,3.3-5.7,2.5c-33.5-13.2-78.9-6.7-103.3,14.7
	c-8.4,7.4-12,14.5-10.2,20c1.8,5.7,9.3,10.2,18.5,11.2c7,0.7,17.5-1.6,28.7-4.1c17.3-3.8,36.8-8.2,54.3-4.6
	c28.2,5.8,47,22.8,75.3,48.4l3.5,3.1c1.8,1.6,1.9,4.4,0.3,6.2c-0.9,1-2.1,1.4-3.2,1.4c-1,0-2-0.4-2.8-1c2.8,11.9,4.2,24.1,4.2,36.5
	c0,14.8-2.1,29.5-6.1,43.6c4.5,2.5,8.3,5.6,11,9.1c1.5,1.9,1.1,4.7-0.8,6.1c-1.9,1.5-4.7,1.1-6.1-0.8c-7.6-9.8-26.8-15.5-45.8-13.5
	c-13.8,1.4-39,8-53.3,36.4c0.5,1.5,1,2.8,1.3,4c7.5,25.7,5.7,41.2,0.1,59.3c-0.6,3-1.6,6.7-3.2,10.5c19.2,0.1,53.2-4.2,89.3-29
	C424,410.1,418,262,395.7,199.1"/>
<path class="st4" d="M287.8,195c-30.7-6-66.2,1.4-86.8,19.5c-8.4,7.4-12,14.5-10.2,20c1.8,5.7,9.3,10.2,18.5,11.2
	c6.9,0.7,17.5-1.6,28.7-4.1c16.1-3.6,34.1-7.6,50.6-5.2L287.8,195z"/>
<g>
	<circle class="st8" cx="237.1" cy="219.3" r="12.6"/>
	<polygon class="st9" points="237.5,212.2 243.5,215.7 243.5,222.7 237.5,226.1 231.5,222.7 231.5,215.7 	"/>
	<path class="st10" d="M237.5,206.7v5.5l6,3.5l4.7-2.4C246.1,209.5,242.1,206.8,237.5,206.7z"/>
	<path class="st10" d="M243.5,222.7l-6,3.5l0.6,5.7c4.7-0.4,8.5-3.1,10.4-7.1L243.5,222.7z"/>
	<path class="st10" d="M226.7,212.3c-1.4,2-2.1,4.6-2.1,7.2c0,2.3,0.7,4.5,1.8,6.3l5.1-3.2v-6.9L226.7,212.3z"/>
</g>
<path class="st8" d="M259,495.3c10.2,10.3,15.8,25.7,17.4,40.1c5.5-6.7,7.4-16,6.6-29.3c0,0,12.9,3.9,25.7,24
	c1.2-6.9,0.1-22-11.3-32.8c0,0,13.4,1.9,24.8,13c-2.9-16.4-25.3-42.3-51.3-39.2"/>
<path class="st3" d="M266.4,410.4c1.8-2.3,10.9-2.6,13.8,4.2c3.4,7.9-8.3,13.8-8.3,13.8c4.8-0.8,11.9,3.6,11.9,10.3
	c0,6.4-10.1,10.3-10.1,10.3c6.2-0.4,9.4,6.1,8.3,10.4c-1.4,5.7-6.4,7.4-12.3,7.7"/>
<path d="M431.4,151.4c-0.4-4.5-0.4-9-0.1-13.5c0.1-1.7-1.1-3.1-2.8-3.2c-1.6-0.1-3.1,1.1-3.2,2.8c-0.3,4.7-0.3,9.4,0.1,14.1
	c-8.2,1.6-14.3,8.9-14.3,17.5c0,9.8,8,17.9,17.9,17.9s17.9-8,17.9-17.9C446.8,160.1,440.1,152.6,431.4,151.4z M428.9,180.9
	c-6.5,0-11.9-5.3-11.9-11.9c0-5.6,4.5-12.3,11.9-12.3c7.4,0,11.9,6.7,11.9,12.3C440.8,175.6,435.5,180.9,428.9,180.9z"/>
<path d="M474.7,114.8c-2.1-0.5-7.1-0.9-25.7-0.9c-6.4,0-13.7,0-21.5,0.1c-8.8,0-18.2,0.1-27.6,0.1c-16.1,0-38.6-0.1-53.9-1.1
	c-22.6-17-49.4-26.5-79.2-27.4c-63.4-1.9-119.1,25.1-149.2,72.4c-11.6,11.4-33.8,24.1-41.3,25.7c-3.5,0.8-6.1,3.1-7,6.2
	c-0.9,3.2,0.1,6.6,2.7,9.2c2.4,2.4,7.3,5.4,17.2,5.4c5.3,0,12.1-0.9,20.6-3.2c3.2,7.3,8.7,11.9,13.3,13.9
	c10.8,4.8,46.4-9.1,60.2-28.3c10.7,5.7,21.1,7.9,32.4,7.9c-7.8,3.6-14.9,7.9-20.8,13.1c-14.3,12.6-14.8,22.8-12.8,29.3
	c2.9,9.1,13.1,15.9,25.9,17.2c8.4,0.9,19.1-1.5,31.5-4.3c16.4-3.6,35-7.8,50.6-4.5c23.2,4.8,39.3,17.7,62.7,38.6
	c5.1,15.2,7.6,31.2,7.6,47.4c0,13.5-1.8,26.9-5.4,39.8c-10.1-3.7-22.3-5.3-34.5-4.1c-24.1,2.4-44.1,14.7-56.5,34.6
	c-0.2-0.3-19.7-40.9-46.4-40.5c-4.7,0.1-9.2,1.4-13.3,4.2c-21.6,14.4-15.4,39.9-10,62.4c1.4,6,2.8,11.8,3.6,17.1
	c1,6.5,0.7,14.3,0.5,21.9c-0.5,15.1-1,30.7,7.9,39.8c4.6,4.8,11.3,7.2,19.7,7.2c12.6,0,22-4.7,28.8-11.2c0.7,0.7,1.5,1.3,2.5,1.6
	c0.6,0.2,1.1,0.3,1.7,0.3c0.7,0,1.4-0.1,2-0.4c5,7.2,8.6,16.5,10.4,26.6c-25.4,19.1-55.5,31.3-83.1,31.8c-16.1,0.3-37.9-3.6-50-23.8
	c-14.6-24.5-37.9-33.3-53.3-29.3c-12.2,3.1-19.4,13.2-19.9,27.6c-0.4,12,8.6,26.4,24.7,39.5c21.1,17.3,54.5,31.8,88.5,31.8
	c8.4,0,16.9-0.9,25.3-2.9c74.1-17.6,140.4-77.3,158.2-142.4c40.1-28.6,52.9-85.5,56.5-128.5c4.6-54.8-3.9-109.1-14.4-138.7
	c-3.7-10.5-8-20.2-12.9-29.3c9.7,3.3,17.9,4.3,24.4,4.3h0c5.8,0,11.4-0.8,16.7-2.4c34.1-10.2,48.4-35.4,48.1-46
	C480.2,118.7,478.1,115.7,474.7,114.8z M107.6,192.9c-19.6,5.2-26.8,1.9-28.5,0.7c-1-0.7-1.2-1.1-1.3-1.1c0,0,0.1-0.1,0.5-0.2
	c6.6-1.5,19.4-8.3,30.9-16.2C107.2,182.7,107,188.4,107.6,192.9z M261.6,459.9c-0.8,4.2-1.9,8.4-3.3,12.8c-0.1,0.2-0.1,0.5-0.2,0.8
	c-0.2,1.2-5.5,29.2-32.1,29.2c-5.3,0-9-1.2-11.4-3.7c-5.5-5.6-5-18.7-4.6-31.4c0.3-8.1,0.6-16.6-0.6-24.1c-0.9-5.8-2.4-12-3.8-18
	c-5.8-24.3-8.6-40.9,5.2-50c2.2-1.5,4.5-2.2,6.9-2.2c15.7,0,36.3,31,40.6,46.6c1.5,5.1,2.6,9.7,3.3,14
	C262.4,441.2,262.6,449.9,261.6,459.9z M209,245.8c-9.2-1-16.7-5.5-18.5-11.2c-1.8-5.6,1.9-12.7,10.2-20c8.4-7.4,19.3-13,31.3-16.6
	c0.1,1.1,0.1,2.5,0.2,4.2c-7.4,2.1-12.9,9-12.9,17.1c0,8.8,6.3,16.1,14.7,17.6c0.1,2.3,0.1,4.1,0.1,5.6
	C224.3,244.6,215.2,246.4,209,245.8z M237.2,231.1c-6.5,0-11.9-5.3-11.9-11.9s5.3-11.9,11.9-11.9s11.9,5.3,11.9,11.9
	S243.7,231.1,237.2,231.1z M240.1,241.1c0-1.2-0.1-2.6-0.1-4.2c8.5-1.4,15-8.7,15-17.6c0-9.5-7.5-17.3-16.8-17.8
	c-0.1-2.1-0.2-4-0.3-5.2c15.2-3.7,31.7-4.4,47.2-1.7l0.8,41.6C270.9,234.6,254.8,237.9,240.1,241.1z M268.7,412.4
	c0.5-0.3,2.3-0.7,4.4-0.2c1.4,0.4,3.3,1.3,4.3,3.6c1.7,4-3.2,7.7-5.6,9.2C270.9,420.3,269.9,416.1,268.7,412.4
	C268.7,412.4,268.7,412.4,268.7,412.4z M274.4,445.3c-0.1-4.4-0.6-9-1.4-13.9c1.6,0,3.5,0.7,5.1,2c1,0.8,2.7,2.7,2.7,5.3
	C280.8,441.3,277.2,443.9,274.4,445.3z M279,458.6c-0.5,2-1.7,4.2-6.3,5c0.8-3.8,1.3-7.7,1.6-11.7c1.3,0,2.5,0.6,3.4,1.7
	C279,455.2,279.4,457.4,279,458.6z M265.7,496.5c0.1-0.3,0.1-0.5,0.2-0.8c0,0,4.6-18.9,4.9-20.4c0.2,0,0.4,0,0.5,0
	c9.7-1.1,18.1,2.3,24.2,6.2c0,0,0,0,0,0c2.1,0.9,10,8.2,10,8.2c2.4,2.3,8.1,9.2,8.1,9.2c-5.8-2.4-15.6-5.8-15.9-5.9
	c-1.8-0.3-3.6,0.7-4.4,2.4c-0.8,1.7-0.4,3.7,0.9,4.9c1.7,1.6,3.2,3.4,4.4,5.2c0,0,4.1,6.8,4.6,10l0,0c0.1,0.3,0.2,0.6,0.2,0.9
	c-0.5-0.6-9.3-8.6-9.3-8.6c-5.8-4.4-9.9-5.7-10.2-5.8c-1.3-0.4-2.8-0.1-3.9,0.7c-1.1,0.9-1.7,2.2-1.6,3.6c0.4,6,0.1,11-0.7,15.2
	C275.4,512,271.2,503.4,265.7,496.5z M201.7,597.3c-39,9.2-81.5-7-106.2-27.2c-13.8-11.2-21.8-23.4-21.5-32.5
	c0.3-10.4,5.1-17.3,13.3-19.4c12.3-3.2,31.2,4.5,43.6,25.4c11,18.6,31.4,28.5,57.6,28c28.7-0.5,59.2-12,85.7-31.4
	c0,0,13.9-10,22.4-18.9c2.8,3,5.5,6.4,8.4,11c0.9,1.5,2.7,2.2,4.4,1.9c0.4-0.1,0.8-0.2,1.1-0.4C282,564,243.1,587.5,201.7,597.3z
	 M312.5,531.8c0.1-0.3,0.2-0.6,0.3-1c0.9-5.4,0.7-14.8-3.6-24.1c0.1-0.1,0.2-0.3,0.4-0.4c3.1,1.7,6.4,4,9.6,7.1
	c1.3,1.3,3.3,1.6,5,0.7c1.6-0.9,2.5-2.7,2.2-4.5c-0.9-5.2-3.5-11-7.2-16.5c2-3.1,3.9-6.3,5.7-9.5c8.2-3.3,16.8-7.4,25.5-12.6
	C342.7,492.5,329.6,513.3,312.5,531.8z M395.7,199.1c22.3,62.9,28.3,211-40.1,258c-16.8,11.6-33.2,18.7-47.8,23
	c-7.7-6.7-17.2-11.8-27.5-13.2c2.3-1.6,3.8-3.9,4.5-6.9c0.8-3.4-0.2-7.4-2.6-10.3c-0.4-0.5-0.9-1-1.4-1.4c3-2.2,5.9-5.4,5.9-9.7
	c0-3.8-1.7-7.3-4.8-9.9c-0.9-0.7-1.8-1.4-2.8-1.9c0.1-0.1,0.2-0.2,0.3-0.3c4.1-4.1,5.4-8.8,3.5-13.2c-1.7-4.1-5.4-6.8-10.1-7.4
	c-0.3,0-0.7-0.1-1-0.1c14.6-22.9,36.9-28.6,49.6-29.8c19-1.9,38.2,3.8,45.8,13.5c1.5,1.9,4.2,2.3,6.1,0.8c1.9-1.5,2.3-4.2,0.8-6.1
	c-2.7-3.5-6.5-6.6-11-9.1c4-14.1,6.1-28.7,6.1-43.6c0-12.4-1.4-24.6-4.2-36.5c0.8,0.7,1.8,1,2.8,1c1.2,0,2.4-0.5,3.2-1.4
	c1.6-1.8,1.5-4.6-0.3-6.2l-3.5-3.1c-28.4-25.6-47.1-42.6-75.3-48.4c0,0,0,0,0,0l-0.8-41.3c4.4,1,8.7,2.4,12.9,4
	c2.2,0.9,4.8-0.2,5.7-2.5s-0.2-4.8-2.5-5.7c-13.6-5.4-29.1-7.7-44.5-7.3c0.6-1,0.8-2.3,0.4-3.5c-0.7-2.3-3.2-3.6-5.5-2.8
	c-23.3,7.5-50.2,14.2-74.1-0.5c-1-0.6-2.2-0.8-3.4-0.5c-1.2,0.3-2.1,1.1-2.7,2.1c-10.2,18.5-45.2,30.7-50.7,28.2
	c-3.3-1.4-7.7-5.4-9.7-11.9c-2.7-8.8,0-20,7.7-32.3c28.3-44.9,81.4-70.7,141.9-68.8c24.3,0.7,46.6,7.7,66.1,20.1
	c-1.3,0.8-2.2,2-2.7,3.4c-0.6,1.8-2.6,7.2,11.7,19.2l1,0.9c13,11,24.7,18.5,35.2,23.6C384.9,172.8,390.9,185.3,395.7,199.1z
	 M469.3,130.6c-5.1,10.2-18.3,23.4-39.6,29.8c-4.5,1.3-9.3,2-14.2,2h0c-13.8,0-36.7-5.4-67.1-31.3l-1.1-1c-4.5-3.7-7.3-7-8.4-8.8
	c0.8-0.1,2-0.1,3.3,0c15.5,1.3,40.4,1.4,57.8,1.4c9.4,0,18.8,0,27.6-0.1c7.8,0,15-0.1,21.5-0.1c12,0,19.6,0.1,22.5,0.4
	C471.6,124.3,471.2,126.8,469.3,130.6z"/>
<g>
	<ellipse class="st8" cx="428.9" cy="168.8" rx="12.4" ry="12.6"/>
	<polygon class="st9" points="429.3,161.8 435.2,165.3 435.2,172.2 429.3,175.7 423.4,172.2 423.4,165.3 	"/>
	<path class="st10" d="M429.3,156.3v5.5l5.9,3.5l4.6-2.4C437.8,159.1,433.9,156.3,429.3,156.3z"/>
	<path class="st10" d="M435.2,172.2l-5.9,3.5l0.6,5.7c4.6-0.4,8.4-3.1,10.2-7.1L435.2,172.2z"/>
	<path class="st10" d="M418.6,161.8c-1.4,2-2.1,4.6-2.1,7.2c0,2.3,0.7,4.5,1.8,6.3l5.1-3.2v-6.9L418.6,161.8z"/>
</g>
<g>
	<path class="st11" d="M154,111.8"/>
	<path class="st8" d="M196.1,101.1c-0.5-0.4-1-0.8-1.4-1.3c-1.9,3.4-3.6,7.5-5.3,11.8c0.5-0.5,1.1-1,1.6-1.6
		c2.6-2.6,5.3-5.1,8.1-7.6C197.9,102.2,196.9,101.6,196.1,101.1z"/>
	<path class="st1" d="M262.3,46.6c-9.2,3.1-23.9,13.1-36.5,25.3c2.4,0.7,4.9,1.6,7.1,2.6c1.1,0.5,1.8,1.6,1.8,2.8
		c0,1.2-0.7,2.3-1.8,2.7c-5.2,2.3-11.3,6.8-17,12.2c3.2-1.1,6.1-1.4,8.9-1.1c1.3,0.2,2.5,0.5,3.6,0.9c8.7-5.4,27-7.8,44.7-7.3
		c-4-3.2-9.5-6.7-16.4-9.1c-1.1-0.4-1.8-1.3-2-2.4s0.3-2.2,1.3-2.9c7.8-5.4,21.1-10.6,32.8-11.9c-3.8-2.7-8.1-4.7-12.7-5.5
		c-1.3-0.2-2.3-1.3-2.4-2.7c-0.1-1.3,0.7-2.6,1.9-3.1c5.1-1.9,10.4-3.5,15.7-4.7C281.3,42,271.5,43.5,262.3,46.6z"/>
	<path class="st8" d="M144.1,114.1c0.3,0.4,0.5,0.8,0.7,1.2l6.8-1.9c-1.3-2.2-2.6-4.3-3.9-6.2c-0.3,0.5-0.7,1-1.2,1.4
		c-1.1,1-2.9,2.1-5.7,2.1C142,111.9,143.1,113,144.1,114.1z"/>
	<path class="st11" d="M127.3,90.8"/>
	<path class="st3" d="M269.4,96.4c-0.7-2.8-2.1-6.1-4.6-6.1c-1,0-1.8,0.5-2.6,1.1c-7.1,4.7-14.5,10.8-22.8,9.1
		c-5.3-1.1-10-5.3-15.3-6c-3-0.4-6,0.4-8.8,1.6c-16.1,6.8-26.4,25.7-42.2,32.2c-17.1-0.5-33.5-14.4-50.9-15c-3-0.1-6.1,0.2-8.8,1.7
		c-4.7,2.5-7.6,8.1-12.1,11c-7.1,4.6-16.2,1.5-24.5-0.3c-1-0.2-2-0.4-2.9-0.1c-2.3,0.9-2.5,4.5-2.1,7.4c0.5,4.6,1.3,9.2,2.3,13.7
		c1,4.6,2.4,9.3,5.5,12.6c1.2,1.3,2.6,2.2,3.6,3.6c0.8,1.1,10.1,26.8,37.7,20.8c0.4,0.3,1.4,8,7.2,11.5c7.3,4.3,12.1-3.5,13.5-3.9
		c0.9-0.2,1.8,0.1,2.8,0.3c9.5,2.3,18.5-4.6,24.1-13.1l10.3-14.3l16.7,9.3c8.3,6,19.2,9.1,27.2,3.6c0.8-0.5,1.6-1.2,2.5-1.3
		c1.4-0.2,8.7,5.4,14-1.2c4.2-5.3,2.4-12.8,2.6-13.3c27.9-4.2,27.4-31.6,27.8-32.9c0.5-1.7,1.4-3.1,2.1-4.7
		c1.7-4.2,1.3-9.1,0.6-13.7C271.4,105.5,270.5,100.9,269.4,96.4z"/>
	<g>
		<path class="st4" d="M165.4,92.2c0.1,2.6,2.2,10.4,4.5,18.1c0.1,0.3,0.2,0.5,0.4,0.8c1.7-8.2,3.3-16.5,3.2-19.2
			c-0.1-2-0.6-3.5-1.5-4.4c-0.7-0.7-1.5-1-2.6-1c-0.1,0-0.1,0-0.2,0c-1.2,0-2.1,0.5-2.7,1.2C165.7,88.6,165.4,90.2,165.4,92.2z"/>
		<path class="st4" d="M170.2,121.2c0.3,1.1,0.5,1.7,0.5,1.7s0.3-1.2,0.7-3.1c-2.3,0.6-4.3,2.1-5.6,4c0,0,0,0,0,0
			c-0.6,1-1.1,2-1.3,3.2L170.2,121.2z"/>
		<path class="st4" d="M186.2,91.5c-4.5,7-7.4,15-9.5,22.2c1.8,0.3,3.5,0.9,5,1.8c3.3-9.1,6.7-18.3,11.5-24c0.8-1,2.1-1.3,3.3-0.9
			c1.2,0.4,2,1.5,2,2.7c0,0.7,0.4,2.3,1.2,2.9c0.7,0.5,2,0.3,2.9,0.1c1.1-0.3,2.1-1.3,2.7-2.6c1-2.3,0.8-5.1-0.5-7.3
			s-3.8-3.6-6.3-3.7C192.9,82.5,188.4,88.1,186.2,91.5z"/>
		<path class="st4" d="M155.2,98c-2.6-3.1-7.8-8.1-13.3-7.2c-2.5,0.4-4.7,2.2-5.8,4.4c-1,2.3-0.9,5.1,0.4,7.3c0.7,1.2,1.8,2.1,3,2.3
			c0.9,0.1,2.2,0.2,2.9-0.4c0.9-0.8,0.9-2.7,0.9-3c-0.1-1.2,0.6-2.4,1.7-3c1.1-0.5,2.5-0.3,3.4,0.5c5.1,4.8,9.3,12.7,13.4,20.7
			c1.1-1.4,2.3-2.5,3.8-3.5c-0.3-1.1-0.7-2.3-1.1-3.5C161.9,107.5,158.9,102.4,155.2,98z"/>
	</g>
	<circle class="st8" cx="174" cy="129" r="9.6"/>
	<path class="st8" d="M196.3,62.2c-0.4,1.5-0.8,2.9-1.1,4.2c-1.1,3.8-2,7.7-2.8,11.6c2.1-0.9,4.3-1.3,6.5-1.2
		c4.5,0.2,8.7,2.8,11,6.6c0.8,1.3,1.4,2.8,1.7,4.4c4.2-3.9,8.5-7.4,12.7-10c-5.7-1.7-11.1-2.2-13.1-1.7c-1.2,0.3-2.5-0.2-3.2-1.2
		c-0.7-1-0.7-2.4,0-3.4c5.2-7.6,10.5-13.9,18.6-19.2c-5.3-0.5-10.2-0.2-14.3,2.3c-1.2,0.7-2.8,0.5-3.7-0.5c-1-1-1.1-2.6-0.3-3.8
		c6.8-9.7,15.9-18,26.3-23.8c-3.7-0.2-7.4,0.2-10.9,1.4c-1.3,0.4-2.7-0.1-3.4-1.2c-0.8-1.1-0.7-2.6,0.2-3.6
		c4.8-5.6,10.2-10.6,16.1-15C208.2,15.8,200.6,45.3,196.3,62.2z"/>
	<path class="st8" d="M121.9,66.6c-9.8-14.4-27.1-39.5-56.3-37.2c7,2.1,13.8,5,20.2,8.6c1.2,0.7,1.8,2,1.4,3.3s-1.5,2.2-2.8,2.3
		c-3.7,0.1-7.4,0.9-10.7,2.4c11.7,1.9,23.2,6.6,32.8,13.4c1.2,0.8,1.6,2.3,1,3.6c-0.6,1.3-1.9,2-3.3,1.8c-4.7-0.9-9.4,0.4-14.2,2.7
		c10.5,2.3,20.5,6.8,29.2,13.2c1,0.8,1.5,2.1,1.1,3.3s-1.5,2.1-2.8,2.1c-5.7,0-11.4,1.7-16.2,4.7c9.2,2,20,6.7,29.1,12.2
		c-1.2-3.4-1-7.2,0.5-10.4c1-2.2,2.6-4,4.5-5.4c-3.3-5.9-6.9-11.7-10.8-17.2C123.6,69.1,122.8,67.9,121.9,66.6z"/>
	<path class="st1" d="M106.3,115.9c1.5-1.5,3.1-2.8,5-3.9c3-1.6,6.6-2.3,11-2.2c3.1,0.1,6.2,0.6,9.2,1.3
		c-11.1-7.8-27.4-14.7-37.8-15.4c-1.2-0.1-2.2-0.8-2.6-2c-0.4-1.1-0.1-2.4,0.7-3.2c1.4-1.3,2.9-2.6,4.4-3.7
		c-7-4.5-13.5-7.7-18.3-9.1c-7.9-2.3-16.3-3.3-24.5-2.9c4.3,0.9,8.5,2,12.6,3.4c1.3,0.4,2.1,1.6,2.1,3c-0.1,1.3-1,2.5-2.3,2.8
		c-4,0.9-7.7,2.7-10.9,5.1c10.7,0.8,22.8,5,30,9.6c1,0.6,1.5,1.7,1.4,2.8c-0.1,1.1-0.8,2.1-1.9,2.5c-5.9,2.4-10.6,5.6-14.1,8.5
		C85.4,111.7,98.7,112.7,106.3,115.9z"/>
	<path class="st7" d="M215.9,129.1c-7.1,0-12.9,5.8-12.9,12.9s5.8,12.9,12.9,12.9s12.9-5.8,12.9-12.9S223,129.1,215.9,129.1z"/>
	<path d="M147.3,176.8c-10.4,0-18.9-8.5-18.9-18.9s8.5-18.9,18.9-18.9c10.4,0,18.9,8.5,18.9,18.9S157.7,176.8,147.3,176.8z
		 M147.3,145c-7.1,0-12.9,5.8-12.9,12.9s5.8,12.9,12.9,12.9s12.9-5.8,12.9-12.9S154.4,145,147.3,145z"/>
	<path class="st4" d="M128.4,157.9c0-10.4,8.5-18.9,18.9-18.9c0.4,0,0.8,0,1.3,0.1c-11.5-3.3-23.4-5.2-35-2.3
		c-3.4,0.8-7.3,2.8-7.6,6.3c0.6,3.9,9.4,5.8,9.4,5.8c-4.5,2.2-10.8,5.5-9.2,11.2c1.2,3.2,11.4,1.1,11.4,1.1
		c-3.5,8.8-2.4,13.5,1.6,14.5c3.5,0.9,8.9-4,12.4-7.2C129.6,165.5,128.4,161.8,128.4,157.9z"/>
	<path d="M215.9,160.9c-10.4,0-18.9-8.5-18.9-18.9c0-10.4,8.5-18.9,18.9-18.9c10.4,0,18.9,8.5,18.9,18.9
		C234.8,152.4,226.3,160.9,215.9,160.9z M215.9,129.1c-7.1,0-12.9,5.8-12.9,12.9s5.8,12.9,12.9,12.9s12.9-5.8,12.9-12.9
		S223,129.1,215.9,129.1z"/>
	<path class="st4" d="M253.1,135.7c0-5.9-6.9-7.5-11.8-8.4c0,0,8-4.1,7.6-8.1c-1.3-3.3-5.5-4.1-9-4c-9.9,0.3-19.1,3.7-27.8,8.4
		c1.3-0.3,2.6-0.4,3.9-0.4c10.4,0,18.9,8.5,18.9,18.9c0,3.4-0.9,6.6-2.5,9.3c4.2,2.1,9.6,4.4,12.3,2.9c3.6-2,3.4-6.9-2.3-14.4
		C242.3,139.8,252.7,139.1,253.1,135.7z"/>
	<circle cx="211.4" cy="142.7" r="9.2"/>
	<g>
		<g>
			<path class="st12" d="M91.2,159.5c-0.5,0-1-0.2-1.4-0.6l-0.2-0.1c-0.9-0.8-0.9-2.1-0.1-3c0.8-0.9,2.1-0.9,3-0.1l0.1,0.1
				c0.9,0.8,0.9,2.1,0.1,3C92.4,159.3,91.8,159.5,91.2,159.5z"/>
		</g>
		<g>
			<path class="st12" d="M82.2,140.1c-1,0-1.8-0.7-2.1-1.7l0-0.2c-0.2-0.7,0.1-1.5,0.6-2s1.3-0.7,2-0.5l0.1,0
				c1.1,0.3,1.8,1.4,1.5,2.6c-0.1,0.4-0.3,0.8-0.6,1.1c-0.3,0.3-0.6,0.5-1.1,0.6C82.5,140,82.4,140.1,82.2,140.1z"/>
		</g>
		<g>
			<path class="st12" d="M87.1,153.8c-0.8,0-1.5-0.4-1.9-1.1l-0.2-0.3c-0.5-1-0.1-2.3,0.9-2.9c1-0.5,2.3-0.1,2.9,0.9l0.1,0.3
				c0.5,1,0.1,2.3-0.9,2.9C87.8,153.7,87.4,153.8,87.1,153.8z M84.2,147.1c-0.9,0-1.7-0.5-2-1.4l-0.1-0.3c-0.4-1.1,0.2-2.3,1.3-2.7
				c1.1-0.4,2.3,0.2,2.7,1.3l0.1,0.3c0.4,1.1-0.2,2.3-1.3,2.7C84.7,147,84.5,147.1,84.2,147.1z"/>
		</g>
		<g>
			<path class="st12" d="M89.6,140.7C89.6,140.7,89.6,140.7,89.6,140.7l-0.4,0c-1.2,0-2.1-1-2.1-2.2c0-1.2,1-2.1,2.1-2.1
				c0,0,0,0,0,0l0.3,0c1.2,0,2.1,1,2.1,2.1C91.8,139.8,90.8,140.7,89.6,140.7z M96.6,140.2c-1,0-1.9-0.7-2.1-1.8
				c-0.2-1.2,0.6-2.2,1.7-2.4l0.3-0.1c1.1-0.2,2.3,0.6,2.5,1.7s-0.6,2.3-1.7,2.5l-0.4,0.1C96.8,140.2,96.7,140.2,96.6,140.2z
				 M103.7,138.3c-0.9,0-1.7-0.5-2-1.4c-0.4-1.1,0.2-2.3,1.3-2.7l0.3-0.1c1.1-0.4,2.3,0.2,2.7,1.3s-0.2,2.3-1.3,2.7l-0.3,0.1
				C104.2,138.3,104,138.3,103.7,138.3z M156.3,137c-0.2,0-0.4,0-0.6-0.1l-0.3-0.1c-1.1-0.4-1.7-1.5-1.4-2.7
				c0.4-1.1,1.5-1.7,2.7-1.4l0.3,0.1c1.1,0.3,1.7,1.5,1.4,2.7C158,136.4,157.2,137,156.3,137z M110.2,134.9c-0.6,0-1.2-0.3-1.6-0.8
				c-0.7-0.9-0.6-2.2,0.3-3l0.2-0.2c0.9-0.8,2.2-0.6,3,0.3c0.8,0.9,0.6,2.2-0.3,3l-0.3,0.2C111.1,134.8,110.7,134.9,110.2,134.9z
				 M149.3,134.6c-0.2,0-0.5,0-0.7-0.1l-0.3-0.1c-1.1-0.4-1.7-1.6-1.3-2.7c0.4-1.1,1.6-1.7,2.7-1.3l0.3,0.1c1.1,0.4,1.7,1.6,1.3,2.7
				C151,134.1,150.2,134.6,149.3,134.6z M142.4,132c-0.3,0-0.5,0-0.8-0.1l-0.3-0.1c-1.1-0.4-1.6-1.7-1.2-2.7
				c0.4-1.1,1.7-1.6,2.7-1.2l0.3,0.1c1.1,0.4,1.6,1.7,1.2,2.7C144.1,131.5,143.3,132,142.4,132z M115.2,129.5c-0.5,0-1-0.2-1.4-0.5
				c-0.9-0.8-1-2.1-0.2-3l0.2-0.3c0.8-0.9,2.1-1,3-0.2c0.9,0.8,1,2.1,0.2,3l-0.2,0.3C116.4,129.3,115.8,129.5,115.2,129.5z
				 M135.6,129.3c-0.3,0-0.5,0-0.8-0.1l-0.3-0.1c-1.1-0.4-1.6-1.7-1.2-2.7s1.7-1.6,2.7-1.2l0.3,0.1c1.1,0.4,1.6,1.6,1.2,2.7
				C137.2,128.8,136.4,129.3,135.6,129.3z M128.7,126.8c-0.2,0-0.4,0-0.7-0.1l-0.3-0.1c-1.1-0.4-1.7-1.6-1.4-2.7
				c0.4-1.1,1.6-1.7,2.7-1.4l0.3,0.1c1.1,0.4,1.7,1.6,1.3,2.7C130.4,126.2,129.6,126.8,128.7,126.8z M121.1,125.5
				c-1,0-1.9-0.7-2.1-1.7c-0.2-1.2,0.5-2.3,1.7-2.5c0.1,0,0.3-0.1,0.4-0.1c1.2-0.2,2.2,0.6,2.4,1.8c0.2,1.2-0.6,2.2-1.8,2.4
				c-0.1,0-0.2,0-0.3,0C121.4,125.5,121.3,125.5,121.1,125.5z"/>
		</g>
	</g>
	<path class="st7" d="M147.3,145c-7.1,0-12.9,5.8-12.9,12.9s5.8,12.9,12.9,12.9s12.9-5.8,12.9-12.9S154.4,145,147.3,145z"/>
	<circle cx="143.6" cy="159.3" r="9.2"/>
	<g>
		<g>
			<path class="st12" d="M260,128.8c0.5-0.2,0.9-0.5,1.1-0.9l0.1-0.2c0.5-1,0.2-2.2-0.8-2.7c-1-0.5-2.2-0.2-2.7,0.8l-0.1,0.1
				c-0.5,1-0.2,2.2,0.8,2.8C258.9,128.9,259.5,129,260,128.8z"/>
		</g>
		<g>
			<path class="st12" d="M262.2,108.5c0.9-0.3,1.5-1.2,1.4-2.1l0-0.2c-0.1-0.7-0.5-1.3-1.2-1.6c-0.6-0.3-1.4-0.2-2,0.2l-0.1,0.1
				c-0.9,0.6-1.2,1.9-0.6,2.8c0.2,0.4,0.5,0.6,0.9,0.8c0.3,0.2,0.7,0.3,1.2,0.2C262,108.6,262.1,108.5,262.2,108.5z"/>
		</g>
		<g>
			<path class="st12" d="M261,122.4c-1.1-0.2-1.9-1.2-1.7-2.3l0-0.3c0.2-1.1,1.2-1.9,2.3-1.7c1.1,0.2,1.9,1.2,1.7,2.3l-0.1,0.3
				c-0.1,0.8-0.7,1.4-1.4,1.6C261.7,122.5,261.3,122.5,261,122.4z M261.9,115.6c-1.1,0-2-0.9-2-2.1l0-0.3c0-1.1,0.9-2,2-2
				c1.1,0,2,1,2,2.1l0,0.3c0,0.9-0.6,1.6-1.4,1.9C262.3,115.5,262.1,115.6,261.9,115.6z"/>
		</g>
		<g>
			<path class="st12" d="M253.2,110.1c-0.4-1.1,0.2-2.2,1.3-2.6l0.3-0.1c0,0,0,0,0,0c1-0.3,2.2,0.2,2.5,1.2c0.4,1.1-0.2,2.2-1.2,2.6
				l-0.3,0.1c0,0,0,0,0,0C254.7,111.7,253.5,111.2,253.2,110.1z M248.9,113.1l-0.4,0.1c-1.1,0.2-2.1-0.6-2.3-1.7
				c-0.2-1.1,0.6-2.1,1.7-2.3l0.3,0c1.1-0.2,2.1,0.6,2.3,1.7c0.2,1-0.4,1.9-1.4,2.2C249.2,113,249.1,113,248.9,113.1z M241.6,113.6
				l-0.4,0c-1.1,0-2-1-2-2.1s1-2,2.1-2l0.3,0c1.1,0,2,0.9,2,2.1c0,0.9-0.6,1.6-1.4,1.9C242.1,113.5,241.8,113.6,241.6,113.6z
				 M192.1,127.4c-0.7-0.9-0.5-2.2,0.5-2.8l0.3-0.2c0.9-0.7,2.2-0.5,2.8,0.4c0.7,0.9,0.5,2.2-0.4,2.8l-0.3,0.2
				c-0.2,0.1-0.4,0.2-0.5,0.3C193.6,128.4,192.6,128.1,192.1,127.4z M234.1,112.3l-0.3-0.1c-1-0.4-1.5-1.6-1.1-2.6
				c0.4-1,1.6-1.5,2.6-1.1l0.3,0.1c1,0.4,1.6,1.6,1.2,2.6c-0.2,0.6-0.7,1-1.3,1.2C235,112.5,234.5,112.5,234.1,112.3z M197.7,123.2
				c-0.7-0.9-0.6-2.1,0.3-2.8l0.3-0.2c0.9-0.7,2.1-0.6,2.8,0.3c0.7,0.9,0.6,2.1-0.3,2.8l-0.3,0.2c-0.2,0.2-0.4,0.3-0.6,0.3
				C199.2,124.2,198.3,123.9,197.7,123.2z M203.2,118.8c-0.7-0.9-0.6-2.1,0.3-2.8l0.3-0.2c0.9-0.7,2.1-0.6,2.8,0.3
				c0.7,0.9,0.6,2.1-0.3,2.8l-0.3,0.2c-0.2,0.2-0.4,0.3-0.6,0.4C204.6,119.7,203.7,119.5,203.2,118.8z M227.6,108.8l-0.3-0.2
				c-1-0.6-1.3-1.8-0.7-2.8c0.6-1,1.8-1.3,2.8-0.7l0.3,0.2c1,0.6,1.3,1.8,0.7,2.8c-0.3,0.4-0.6,0.7-1.1,0.9
				C228.7,109.2,228.1,109.1,227.6,108.8z M208.6,114.3c-0.7-0.9-0.6-2.1,0.3-2.8l0.3-0.2c0.9-0.7,2.1-0.6,2.8,0.3
				c0.7,0.9,0.6,2.1-0.3,2.8l-0.3,0.2c-0.2,0.2-0.4,0.3-0.6,0.4C210,115.2,209.1,115,208.6,114.3z M214,109.9
				c-0.7-0.9-0.5-2.2,0.4-2.8l0.3-0.2c0.9-0.7,2.2-0.5,2.8,0.4c0.7,0.9,0.5,2.2-0.4,2.8l-0.3,0.2c-0.2,0.1-0.4,0.2-0.6,0.3
				C215.5,110.9,214.5,110.6,214,109.9z M222.3,107.2c-0.1,0-0.2,0-0.3,0c-1.1,0.2-2.1-0.5-2.3-1.6c-0.2-1.1,0.5-2.2,1.6-2.3
				c0.1,0,0.3,0,0.4-0.1c1.1-0.2,2.1,0.6,2.3,1.7c0.1,1-0.5,1.9-1.4,2.2C222.6,107.2,222.4,107.2,222.3,107.2z"/>
		</g>
	</g>
	<path d="M313.6,39.5c-17.3-4.8-36.2-4.3-53.2,1.4c-10.5,3.5-27.6,15.2-41.6,29.4c-0.8-0.1-1.6-0.2-2.4-0.3
		c5.2-6.7,11.2-12.3,20.6-16.8c1.2-0.6,1.8-1.8,1.7-3.1c-0.2-1.3-1.1-2.3-2.4-2.6c-5.7-1.1-11.5-2-17.1-1.4
		c7.1-7.8,16-14.1,25.6-18.1c1.1-0.5,1.9-1.6,1.8-2.8c0-1.2-0.8-2.3-2-2.7c-4.3-1.6-9-2.3-13.5-2.1c6-5.8,12.8-10.8,20.1-14.7
		c1.2-0.7,1.8-2.1,1.5-3.4c-0.4-1.3-1.6-2.2-3-2.2c-44.1,1.2-54.4,41.4-59.3,60.7c-0.4,1.5-0.7,2.9-1.1,4.1c-1.6,6-2.9,12.1-4,18.1
		c-1.5,1.5-2.9,3.3-4.2,5.3c-0.6,0.9-1.1,1.8-1.7,2.7c-0.2-3.2-1.3-5.9-3.1-7.7c-1.9-1.9-4.5-2.9-7.3-2.8c-2.9,0.1-5.4,1.3-7.1,3.4
		c-1.8,2.1-2.6,5.1-2.5,8.6c0,0.4,0.1,0.9,0.1,1.4c-5.8-6.9-12.5-10.1-18.7-9c-0.1,0-0.1,0-0.2,0c-3.5-6.2-7.3-12.4-11.4-18.2
		c-0.7-1-1.5-2.2-2.4-3.5c-11.3-16.4-34.7-50.7-76.5-36.7c-1.3,0.4-2.2,1.7-2,3.1c0.1,1.4,1.2,2.5,2.6,2.7
		c8.2,1.2,16.3,3.5,23.9,6.9c-4.4,1.4-8.5,3.6-12,6.6c-0.9,0.8-1.3,2.1-0.9,3.3s1.5,2,2.7,2c10.5,0.5,20.9,3.4,30.3,8.3
		c-5.4,1.4-10.6,4.2-15.5,7.2c-1.1,0.7-1.7,2-1.4,3.2c0.3,1.3,1.3,2.2,2.6,2.3c10,1,19.7,4.1,28.4,9.1c-2.3,0.6-4.6,1.4-6.8,2.4
		c-8.5-5.6-16.6-9.8-22.5-11.5c-15.9-4.6-33.3-4.3-49,0.8c-1.4,0.5-2.3,1.9-2,3.3c0.2,1.5,1.5,2.5,3,2.5c0,0,0,0,0,0
		c8.2,0,16.3,0.9,24.2,2.8c-4,2.2-7.6,5.2-10.5,8.8c-0.8,0.9-0.9,2.3-0.3,3.3c0.6,1.1,1.7,1.7,2.9,1.5c7.9-0.8,19.7,1.7,28.8,5.9
		c-8.3,4.4-13.8,10-16.6,13.3c-0.8,0.9-0.9,2.3-0.3,3.4c0.6,1.1,1.8,1.7,3,1.5c17.7-2.2,31.6-1,39.1,1.4c-0.9,1-1.9,1.8-2.8,2.4
		c-4.7,3-11.3,1.5-18.2-0.2c-1.1-0.3-2.1-0.5-3.1-0.7c-1.1-0.2-3.2-0.7-5.3,0.1c-2.2,0.9-5.8,3.5-4.8,11.8c0.6,4.7,1.4,9.5,2.4,14.1
		c1.2,5.2,2.8,10.6,6.6,14.6c0.6,0.6,1.2,1.2,1.7,1.7c0.6,0.5,1.1,1,1.5,1.4c0,0.1,0.1,0.2,0.2,0.3c8.2,17,21.6,25,38.1,22.9
		c1.1,3.2,3.4,7.6,7.9,10.3c2.3,1.4,4.4,1.9,6.4,1.9c5.1,0,9-3.6,10.6-5.1l0.4,0.1c12,2.9,22.6-5.7,28.6-14.8l8-11.2l13.2,7.4
		c8.8,6.3,21.8,10.5,31.9,3.5l0.3-0.2c2.9,1.2,11.1,4.5,17.1-3.1c3.3-4.2,3.8-9.1,3.7-12.5c12.1-2.9,20.6-10.6,24.8-22.2
		c1.2,27.3,1.9,41.5,2,42.2c0.3,1.4,1.5,2.4,2.9,2.4c0.2,0,0.4,0,0.6-0.1c1.6-0.3,2.6-1.8,2.3-3.4c-0.2-2.2-1.7-35.1-2.8-60.2
		c1.4-4.6,1-9.5,0.3-14.2c-0.7-4.7-1.6-9.4-2.8-14v0c-0.6-2.4-1.4-4.2-2.4-5.6c3.2,0.1,6.4,0.2,9.6,0.5c1.2,0.1,2.4-0.6,2.9-1.7
		s0.4-2.4-0.5-3.3c-3.2-3.5-9.6-9.5-19.1-13.9c9.8-5.2,22.9-8.6,31.7-8.1c1.2,0.1,2.3-0.6,2.9-1.7c0.5-1.1,0.4-2.4-0.4-3.3
		c-3.4-3.9-7.6-7.1-12.3-9.3c8.7-2.5,17.7-4,26.9-4.4c1.5-0.1,2.7-1.2,2.9-2.7C315.9,41.3,315,39.9,313.6,39.5z M195.2,66.3
		c0.3-1.2,0.7-2.6,1.1-4.2c4.3-16.8,11.9-46.4,40.2-54.2c-5.9,4.4-11.3,9.4-16.1,15c-0.9,1-1,2.5-0.2,3.6c0.8,1.1,2.2,1.6,3.4,1.2
		c3.5-1.2,7.2-1.6,10.9-1.4c-10.4,5.8-19.5,14.1-26.3,23.8c-0.8,1.2-0.7,2.7,0.3,3.8c1,1,2.5,1.2,3.7,0.5c4.1-2.5,9-2.8,14.3-2.3
		c-8.1,5.3-13.5,11.7-18.6,19.2c-0.7,1-0.7,2.4,0,3.4c0.7,1,2,1.5,3.2,1.2c2-0.5,7.4,0,13.1,1.7c-4.2,2.6-8.6,6.1-12.7,10
		c-0.3-1.5-0.9-3-1.7-4.4c-2.3-3.8-6.6-6.3-11-6.6c-2.2-0.1-4.4,0.3-6.5,1.2C193.2,74,194.1,70.2,195.2,66.3z M186.2,91.5
		c2.2-3.4,6.7-9,12.4-8.7c2.5,0.1,4.9,1.6,6.3,3.7s1.5,5,0.5,7.3c-0.6,1.3-1.6,2.3-2.7,2.6c-0.9,0.3-2.2,0.4-2.9-0.1
		c-0.9-0.6-1.2-2.3-1.2-2.9c0-1.2-0.8-2.3-2-2.7c-1.2-0.4-2.5,0-3.3,0.9c-4.8,5.7-8.2,14.9-11.5,24c-1.5-0.9-3.2-1.5-5-1.8
		C178.8,106.4,181.6,98.4,186.2,91.5z M199.2,102.4c-2.8,2.4-5.5,5-8.1,7.6c-0.5,0.5-1.1,1-1.6,1.6c1.6-4.3,3.4-8.4,5.3-11.8
		c0.4,0.5,0.8,0.9,1.4,1.3C196.9,101.6,197.9,102.2,199.2,102.4z M178.9,120.8C178.9,120.8,178.9,120.9,178.9,120.8
		c2.5,1.5,4.6,4.2,4.6,8.2c0,5.3-4.3,9.6-9.6,9.6c-4.1,0-7.7-2.6-9-6.3c0,0,0,0,0.1,0c-0.4-1-0.6-2.1-0.6-3.3c0-1.9,0.6-3.7,1.6-5.2
		c0,0,0,0,0,0c1.7-2.6,4.7-4.3,8-4.3C175.8,119.4,177.5,119.9,178.9,120.8z M166.5,87.6c0.6-0.8,1.5-1.2,2.7-1.2c0.1,0,0.1,0,0.2,0
		c1.1,0,1.9,0.3,2.6,1c0.9,0.9,1.4,2.4,1.5,4.4c0.1,2.7-1.4,11-3.2,19.2c-0.1-0.2-0.2-0.5-0.4-0.8c-2.3-7.8-4.4-15.5-4.5-18.1
		C165.4,90.2,165.7,88.6,166.5,87.6z M136.1,95.2c1-2.3,3.3-4,5.8-4.4c5.6-1,10.7,4.1,13.3,7.2c3.7,4.5,6.7,9.5,9.1,14.5
		c0.4,1.2,0.7,2.4,1.1,3.5c-1.4,0.9-2.7,2.1-3.8,3.5c-4.1-8-8.3-15.9-13.4-20.7c-0.9-0.9-2.2-1.1-3.4-0.5c-1.1,0.5-1.8,1.7-1.7,3
		c0,0.3,0,2.2-0.9,3c-0.7,0.6-1.9,0.6-2.9,0.4c-1.2-0.2-2.3-1-3-2.3C135.2,100.3,135.1,97.5,136.1,95.2z M155.3,120.2
		c-1.9-0.8-3.9-1.6-5.8-2.5c-1.5-0.6-3-1.3-4.5-1.9c-0.1-0.6-0.3-1.2-0.8-1.7c-1-1.1-2.1-2.2-3.4-3.3c2.8-0.1,4.6-1.1,5.7-2.1
		c0.5-0.4,0.9-0.9,1.2-1.4C150.3,110.8,152.8,115.4,155.3,120.2z M117.4,86.2c1.3,0,2.4-0.8,2.8-2.1s0-2.6-1.1-3.3
		c-8.7-6.4-18.7-10.9-29.2-13.2c4.8-2.3,9.5-3.6,14.2-2.7c1.4,0.3,2.8-0.5,3.3-1.8c0.6-1.3,0.1-2.8-1-3.6C96.8,52.6,85.4,48,73.6,46
		c3.4-1.5,7-2.3,10.7-2.4c1.3,0,2.5-1,2.8-2.3s-0.3-2.7-1.4-3.3c-6.4-3.7-13.2-6.5-20.2-8.6c29.3-2.3,46.5,22.9,56.3,37.2
		c0.9,1.3,1.7,2.5,2.5,3.5c3.9,5.5,7.5,11.3,10.8,17.2c-1.9,1.4-3.5,3.2-4.5,5.4c-1.5,3.3-1.6,7-0.5,10.4
		c-9-5.6-19.9-10.2-29.1-12.2C106,87.9,111.7,86.2,117.4,86.2z M70.3,112.6c3.5-3,8.2-6.2,14.1-8.5c1.1-0.4,1.8-1.4,1.9-2.5
		c0.1-1.1-0.4-2.2-1.4-2.8c-7.3-4.6-19.4-8.8-30-9.6c3.2-2.4,6.9-4.2,10.9-5.1c1.3-0.3,2.3-1.4,2.3-2.8c0.1-1.3-0.8-2.6-2.1-3
		c-4.2-1.4-8.4-2.5-12.6-3.4c8.3-0.3,16.6,0.7,24.5,2.9c4.7,1.4,11.3,4.7,18.3,9.1c-1.6,1.1-3.1,2.3-4.4,3.7
		c-0.8,0.8-1.1,2.1-0.7,3.2c0.4,1.1,1.4,1.9,2.6,2c10.4,0.7,26.7,7.6,37.8,15.4c-3-0.7-6.1-1.2-9.2-1.3c-4.4-0.1-8,0.6-11,2.2
		c-1.9,1-3.6,2.4-5,3.9C98.7,112.7,85.4,111.7,70.3,112.6z M267.6,122.9c-0.2,0.5-0.5,1-0.7,1.6c-0.5,1-1.1,2.2-1.5,3.5
		c-0.2,0.5-0.2,1-0.3,1.9c-1.4,16.4-9.5,25.8-24,28c-1.4,0.2-2.6,1.1-3.2,2.3c-0.6,1.2-0.5,2.2-0.4,3.2c0.2,1.9,0.6,6.3-1.8,9.3
		c-1.8,2.2-3.7,1.9-7.2,0.5c-1.3-0.5-2.5-1-3.9-0.9c-1.9,0.2-3.3,1.2-4.2,1.8l-0.3,0.2c-6.5,4.5-15.8,1.1-22.3-3.5
		c-0.1-0.1-0.3-0.2-0.4-0.3l-16.7-9.3c-1.9-1.1-4.3-0.5-5.5,1.2L165,176.7c0,0-0.1,0.1-0.1,0.1c-4.4,6.7-11.9,13.2-19.6,11.3
		l-0.3-0.1c-1.1-0.3-2.7-0.7-4.5-0.2c-1.4,0.4-2.3,1.2-3.3,2.2c-2.8,2.7-4.5,3.6-6.9,2.2c-3.2-1.9-4.4-6.2-5-8c-0.3-1-0.6-2-1.5-2.9
		c-0.8-0.7-1.8-1.2-2.9-1.2c-0.3,0-0.6,0-0.9,0.1c-14.4,3.2-25.3-2.7-32.5-17.6c-0.4-0.8-0.6-1.2-0.9-1.6c-0.9-1.1-1.8-2-2.7-2.7
		c-0.5-0.4-0.9-0.8-1.2-1.2c-2.4-2.5-3.5-6.6-4.5-10.6c-1-4.4-1.7-8.8-2.3-13.2c-0.1-1.2-0.1-2.1-0.1-2.6c1,0.2,1.9,0.4,2.9,0.7
		c7.9,1.9,17,4,24.7-0.9c2.6-1.7,4.6-3.9,6.5-6c1.8-2,3.5-3.9,5.3-4.8c1.6-0.9,3.8-1.3,6.7-1.2c7.9,0.3,15.8,3.6,24.1,7.2
		c4,1.7,8.2,3.5,12.3,4.9c0.7,7.9,7.4,14.2,15.5,14.2c8.6,0,15.6-7,15.6-15.6c0-1.8-0.3-3.5-0.9-5.1c2.9-2.5,5.7-5.2,8.4-7.8
		c6.5-6.3,12.6-12.3,19.9-15.3c2.6-1.1,4.8-1.5,6.6-1.3c2.1,0.3,4.3,1.4,6.7,2.6c2.6,1.3,5.2,2.7,8.3,3.3c9.1,1.9,16.7-3.4,23.4-8
		c0.8-0.6,1.7-1.1,2.5-1.7c0.3,0.5,0.6,1.3,0.9,2.5c1.1,4.3,2,8.8,2.6,13.2C268.5,115.5,268.9,119.7,267.6,122.9z M235.3,95.1
		c4.9-1.8,12.3-3.3,21-4.1c-5.5,3.8-10.8,7.1-16,6C238.7,96.7,237,96,235.3,95.1z M275.4,47c-1.3,0.5-2,1.7-1.9,3.1
		c0.1,1.3,1.1,2.4,2.4,2.7c4.6,0.9,9,2.8,12.7,5.5c-11.7,1.3-25,6.5-32.8,11.9c-0.9,0.6-1.4,1.7-1.3,2.9s0.9,2.1,2,2.4
		c6.9,2.4,12.4,5.9,16.4,9.1c-17.7-0.5-36,1.9-44.7,7.3c-1.2-0.4-2.4-0.7-3.6-0.9c-2.8-0.4-5.7,0-8.9,1.1c5.8-5.4,11.9-10,17-12.2
		c1.1-0.5,1.8-1.5,1.8-2.7c0-1.2-0.7-2.3-1.8-2.8c-2.2-1-4.7-1.9-7.1-2.6c12.7-12.2,27.3-22.2,36.5-25.3c9.2-3.1,19-4.5,28.8-4.3
		C285.8,43.5,280.5,45,275.4,47z"/>
</g>
</svg>
