<?xml version="1.0" encoding="UTF-8" standalone="no"?>
<!DOCTYPE svg PUBLIC "-//W3C//DTD SVG 1.1//EN" "http://www.w3.org/Graphics/SVG/1.1/DTD/svg11.dtd">
<svg width="100%" height="100%" viewBox="0 0 500 500" version="1.1" xmlns="http://www.w3.org/2000/svg" xmlns:xlink="http://www.w3.org/1999/xlink" xml:space="preserve" xmlns:serif="http://www.serif.com/" style="fill-rule:evenodd;clip-rule:evenodd;stroke-miterlimit:10;">
    <g transform="matrix(2.42323,0,0,2.42323,-1086.14,-180.081)">
        <path d="M567.869,95.062L569.6,95.738L576.024,94.721L582.804,89.764L586.06,94.908L590.416,92.469C590.416,92.469 596.111,95.351 598.641,96.874L597.005,99.669L601.037,98.277L603.824,99.785L602.67,102.038L605.051,100.999C605.051,100.999 606.535,102.198 609.75,106.638L608.045,110.464L613.131,109.526L616.309,113.325L617.377,116.219C617.377,116.219 618.895,122.428 618.729,123.98C618.562,125.532 619.176,131.666 619.176,131.666L614.165,133.886L619.083,136.684L619.089,138.997L614.711,141.052L617.34,142.055L618.143,147.021L616.454,148.919L619.648,150.789L619.233,152.484L616.27,154.585L619.553,157.992L615.928,159.746C615.928,159.746 615.942,162.187 615.218,163C614.494,163.814 612.685,165.847 613.106,166.465C613.528,167.083 613.43,167.603 613.43,167.603L612.623,169.192C612.623,169.192 612.141,167.55 610.786,166.343C609.43,165.137 608.126,127.297 599.306,121.513C590.486,115.729 580.165,112.86 575.984,111.69C571.803,110.519 569.906,106.645 569.906,106.645L567.869,95.062Z" style="fill:rgb(105,39,53);fill-rule:nonzero;stroke:rgb(40,40,40);stroke-width:0.81px;"/>
        <path d="M582.38,88.492C582.274,88.567 582.164,88.651 582.045,88.744C580.59,89.888 579.308,91.46 577.964,92.745C578.512,91.327 579.056,89.836 579.645,88.414C577.831,88.133 575.632,89.062 573.931,89.702C573.959,87.965 573.986,86.228 574.014,84.492C572.607,86.823 571.2,89.154 569.794,91.486C569.343,89.262 568.892,87.039 568.442,84.816C565.857,84.582 563.272,84.361 560.689,84.109C563.692,89.654 565.669,95.399 567.008,101.561C567.683,104.669 568.204,107.805 568.818,110.925C569.005,111.876 569.194,114.874 570.144,115.492C571.825,116.586 572.704,110.71 572.941,109.754C574.238,104.518 575.863,99.349 579.13,94.973C581.026,92.434 583.588,90.641 585.607,88.251C585.535,88.337 583.954,87.975 583.706,88C583.122,88.057 582.775,88.213 582.38,88.492Z" style="fill:rgb(198,42,72);fill-rule:nonzero;stroke:rgb(40,40,40);stroke-width:0.81px;"/>
        <path d="M608.473,166.349L610.406,166.43C610.406,166.43 624.542,111.238 572.904,108.462C568.655,108.324 568.888,108.745 568.888,108.745L568.926,120.985C568.926,120.985 596.178,124.072 608.473,166.349Z" style="fill:rgb(130,130,130);fill-rule:nonzero;stroke:rgb(40,40,40);stroke-width:0.81px;"/>
        <path d="M534.719,146.868C534.719,146.868 542.086,123.304 564.571,120.965C587.056,118.627 611.312,129.039 609.088,170.298C608.911,170.565 594.686,163.827 594.686,163.827C594.686,163.827 580.963,147.516 568.227,144.016C555.492,140.517 546.435,141.687 534.719,146.868Z" style="fill:rgb(103,103,103);fill-rule:nonzero;stroke:rgb(40,40,40);stroke-width:0.81px;"/>
        <path d="M505.836,230.909C505.29,230.821 504.7,230.644 504.081,230.386C497.169,227.495 489.075,215.102 488.804,208.884C488.683,206.104 489.597,203.7 491.377,202.117C492.95,200.719 494.6,200.659 496.747,201.006C498.679,201.319 500.951,202.238 502.512,203.899C505.577,207.159 509.661,219.509 510.468,222.646C510.804,223.951 511.269,227.78 509.419,229.808C508.81,230.477 507.693,231.21 505.836,230.909" style="fill:rgb(248,185,18);fill-rule:nonzero;"/>
        <path d="M505.353,231.451C504.807,231.363 504.217,231.186 503.598,230.928C496.686,228.037 488.592,215.644 488.321,209.426C488.2,206.646 489.114,204.242 490.894,202.659C492.467,201.261 494.6,200.658 496.746,201.006C498.678,201.319 500.525,202.363 502.085,204.023C505.15,207.284 509.178,220.051 509.985,223.188C510.321,224.493 510.786,228.322 508.936,230.35C508.327,231.019 507.21,231.752 505.353,231.451" style="fill:none;stroke:rgb(40,40,40);stroke-width:0.81px;stroke-linecap:round;"/>
        <path d="M510.072,178.595C509.269,178.916 501.487,167.591 504.058,164.702C506.629,161.813 510.676,160.755 519.47,170.652C528.264,180.548 510.072,178.595 510.072,178.595Z" style="fill:rgb(248,185,18);fill-rule:nonzero;stroke:rgb(40,40,40);stroke-width:0.81px;stroke-linecap:round;"/>
        <path d="M543.159,237.494L518.919,209.547C518.919,209.547 526.139,158.422 536.398,152.832C549.973,145.435 580.213,170.841 580.213,170.841L587.624,200.17C587.624,200.17 577.879,227.104 573.942,231.919C570.005,236.733 562.106,241.538 560.758,242.282C559.41,243.027 543.159,237.494 543.159,237.494" style="fill:rgb(208,143,13);fill-rule:nonzero;"/>
        <path d="M541.829,163.348C512.984,161.22 487.473,199.827 508.963,225.416C530.743,251.349 567.077,227.808 570.46,201.275C573.082,180.706 557.772,165.058 541.829,163.348Z" style="fill:rgb(105,39,53);fill-rule:nonzero;stroke:rgb(40,40,40);stroke-width:0.81px;"/>
        <path d="M536.658,171.03C515.261,169.353 496.397,198.95 512.375,218.626C528.568,238.566 555.483,220.549 557.951,200.187C559.865,184.402 548.486,172.367 536.658,171.03Z" style="fill:rgb(198,42,72);fill-rule:nonzero;stroke:white;stroke-width:0.33px;"/>
        <path d="M534.732,174.174C516.001,172.706 499.489,198.614 513.475,215.838C527.651,233.293 551.21,217.522 553.371,199.697C555.047,185.879 545.086,175.344 534.732,174.174M515.684,184.22C522.71,176.474 534.607,171.174 545.012,181.733C544.933,181.717 537.389,180.847 541.528,189.781C543.765,194.609 543.387,198.129 539.91,204.852C538.503,208.216 538.079,209.231 536.744,212.713C534.543,203.547 532.795,195.764 531.994,186.042C534.077,186.073 536.438,186.109 535.466,184.607C535.343,184.418 524.449,183.745 524.344,183.746C523.498,183.753 523.197,184.699 523.194,184.708C522.985,185.459 523.124,185.473 525.47,185.71C525.547,189.108 525.583,190.66 526.318,195.721C524.488,200.09 522.595,204.606 521.261,211.86C517.951,201.345 517.089,194.275 518.083,185.771C518.845,185.461 519.745,185.777 520.459,185.249C520.946,184.889 521.306,183.955 520.803,183.759C519.021,183.061 517.398,184.142 515.684,184.22M536.453,218.7C539.808,210.501 544.412,202.89 547.727,194.673C548.367,193.084 549.106,190.57 548.988,187.615C553.289,197.543 550.366,211.408 536.453,218.7M519.178,218.492C507.636,210.812 507.523,197.019 513.377,187.363C511.88,197.614 513.452,206.051 519.178,218.492M526.287,220.876C524.678,220.722 523.397,220.421 521.868,219.835C522.161,215 522.815,209.006 526.891,199.032C529.419,211.017 532.877,220.063 532.903,220.115C532.025,220.371 529.352,221.154 526.287,220.876" style="fill:white;fill-rule:nonzero;"/>
        <path d="M571.561,121.069C572.134,121.249 572.699,121.273 573.268,121.468C574.769,121.981 576.248,122.551 577.694,123.201C579.601,124.058 581.455,125.031 583.282,126.044C585.618,127.34 587.97,128.702 589.899,130.574C590.924,131.568 591.889,132.64 592.694,133.822C593.495,134.998 593.986,136.268 594.47,137.596C594.841,138.612 595.117,139.659 595.293,140.726C595.672,143.021 595.662,145.375 595.637,147.695C595.611,150.04 595.513,152.383 595.291,154.718C595.095,156.792 594.808,158.856 594.591,160.927C594.446,162.313 594.347,163.7 594.313,165.093C594.31,165.22 594.297,165.351 594.304,165.478C594.569,170.017 607.885,176.087 607.885,176.087C607.885,176.087 609.653,166.745 608.185,154.861C606.604,142.064 599.045,121.813 571.561,121.069" style="fill:rgb(83,82,82);fill-rule:nonzero;"/>
        <path d="M576.672,147.458C583.791,150.739 589.853,157.458 593.254,162.734C592.845,162.799 593.364,165.03 593.074,165.326C592.71,165.697 592.923,165.849 593.198,168.336L593.869,172.07C595.826,176.271 596.547,178.911 598.558,181.353C599.002,184.938 599.177,186.616 598.824,190.589L598.742,190.655C598.652,192.659 598.839,195.793 598.318,196.916C595.211,215.585 578.532,248.798 557.469,252.509C545.705,254.581 534.715,251.04 529.957,248.85C530.785,248.095 533.151,245.71 533.634,245.019C537.077,241.19 539.279,237.534 540.328,230.33C540.381,229.999 540.498,227.182 540.528,226.76C547.277,221.348 555.998,222.841 559.583,224.059L567.34,228.638L572.485,220.389L573.871,217.806C573.871,217.806 575.466,211.679 576.409,207.386C572.604,198.532 571.167,194.972 565.05,190.487C561.144,187.622 556.237,186.65 551.527,185.645C547.8,184.85 544.401,183.246 542.828,182.32C540.648,181.033 539.164,177.716 539.36,176.096C539.55,174.519 542.82,171.255 545.729,170.378C554.212,167.817 569.016,172.382 575.819,179.449C577.639,181.351 577.886,181.415 575.617,180.03C575.057,179.687 575.589,179.37 575.133,178.897C572.369,176.024 568.572,174.139 564.711,172.496C564.98,172.308 563.631,172.414 563.673,172.063C563.751,171.41 563.991,171.283 563.337,171.203C556.721,170.412 550.611,169.636 546.356,163.288C546.175,163.018 546.191,161.681 545.869,161.624C545.548,161.569 544.685,163.575 544.423,163.77C539.807,167.203 528.565,165.288 527.479,164.058C526.837,163.332 525.309,160.622 525.553,158.804C525.889,156.308 528.92,151.565 532.23,149.397C544.337,141.472 560.847,140.164 576.672,147.458" style="fill:rgb(248,185,18);fill-rule:nonzero;"/>
        <path d="M544.747,154.781C542.436,155.286 542.225,157.119 544.04,158.238C545.855,159.358 545.946,159.554 548.329,159.035C550.912,158.47 552.253,156.175 549.977,155.427C547.702,154.678 546.039,154.499 544.747,154.781" style="fill:rgb(40,40,40);fill-rule:nonzero;"/>
        <path d="M539.256,153.435C538.71,154.631 537.298,155.157 536.102,154.611C534.907,154.065 534.38,152.653 534.926,151.457C535.473,150.261 536.885,149.735 538.08,150.281C539.276,150.827 539.802,152.239 539.256,153.435" style="fill:rgb(40,40,40);fill-rule:nonzero;"/>
        <path d="M540.902,232.098C540.91,232.037 540.92,231.977 540.929,231.915C541.005,231.356 541.073,230.778 541.13,230.169C541.701,224.868 539.989,212.959 534.311,210.406C533.439,210.014 531.37,210.077 530.288,210.287C524.186,211.471 522.549,215.183 521.322,223.291C521.019,225.297 520.704,227.37 520.233,229.226C519.618,231.641 518.362,234.082 517.149,236.441C515.263,240.107 514.665,243.617 515.863,246.167C516.388,247.282 516.215,248.52 518.116,249.375C518.667,249.622 519.201,249.821 519.725,249.995C519.885,250.049 520.039,250.09 520.197,250.136C520.567,250.246 520.932,250.343 521.288,250.419C521.448,250.453 521.607,250.487 521.763,250.515C522.14,250.582 522.51,250.631 522.872,250.664C522.978,250.674 523.087,250.691 523.191,250.697C523.661,250.728 524.118,250.735 524.56,250.716C524.603,250.713 524.644,250.707 524.687,250.704C525.079,250.682 525.461,250.64 525.83,250.583C525.938,250.567 526.043,250.546 526.149,250.527C526.457,250.47 526.757,250.404 527.046,250.327C527.144,250.301 527.243,250.277 527.339,250.249C527.669,250.152 527.989,250.044 528.295,249.926C528.33,249.913 528.22,249.025 528.255,249.012C528.6,248.875 529.076,249.602 529.389,249.445C529.462,249.408 529.531,249.369 529.602,249.332C529.828,249.213 530.047,249.092 530.255,248.967C530.355,248.907 530.451,248.847 530.547,248.786C530.713,248.68 530.872,248.573 531.027,248.466C531.125,248.398 531.225,248.33 531.317,248.262C531.448,248.166 531.568,248.071 531.689,247.976C531.94,247.776 532.176,247.58 532.382,247.394C532.393,247.384 532.406,247.373 532.417,247.363C532.564,247.229 532.699,247.101 532.822,246.98C533.355,246.453 533.67,246.056 533.722,245.989C533.771,245.922 533.83,245.855 533.89,245.796C537.362,242.426 539.589,239.28 540.648,233.652C540.742,233.154 540.826,232.634 540.902,232.098" style="fill:rgb(248,185,18);fill-rule:nonzero;"/>
        <path d="M541.307,223.64L541.349,223.643L541.391,223.649L541.433,223.658L541.473,223.669L541.513,223.684L541.552,223.701L541.589,223.721L541.625,223.744L541.659,223.769L541.691,223.796L541.722,223.826L541.75,223.857L541.776,223.891L541.8,223.926L541.821,223.963L541.839,224.001L541.855,224.04L541.868,224.08L541.878,224.122L541.885,224.163L541.89,224.205L541.891,224.248L541.889,224.29L541.885,224.332L541.879,224.375L541.872,224.421L541.864,224.467L541.856,224.512L541.848,224.557L541.839,224.602L541.83,224.646L541.82,224.69L541.81,224.734L541.8,224.778L541.789,224.821L541.778,224.864L541.766,224.907L541.754,224.949L541.741,224.991L541.728,225.032L541.715,225.074L541.701,225.115L541.687,225.156L541.672,225.196L541.657,225.236L541.642,225.276L541.626,225.316L541.609,225.355L541.593,225.394L541.576,225.432L541.558,225.471L541.541,225.508L541.522,225.546L541.504,225.583L541.485,225.62L541.465,225.657L541.446,225.693L541.426,225.729L541.405,225.765L541.384,225.8L541.363,225.835L541.341,225.87L541.32,225.904L541.297,225.938L541.275,225.971L541.252,226.005L541.229,226.038L541.205,226.07L541.181,226.102L541.157,226.134L541.132,226.166L541.107,226.197L541.082,226.228L541.057,226.258L541.031,226.289L541.005,226.318L540.978,226.348L540.952,226.377L540.925,226.406L540.897,226.434L540.87,226.463L540.842,226.49L540.814,226.518L540.786,226.545L540.757,226.572L540.728,226.598L540.699,226.624L540.67,226.65L540.64,226.676L540.611,226.701L540.581,226.726L540.55,226.75L540.52,226.774L540.489,226.798L540.458,226.822L540.427,226.845L540.396,226.868L540.364,226.89L540.333,226.913L540.3,226.935L540.237,226.978L540.172,227.019L540.106,227.06L540.039,227.1L539.972,227.138L539.904,227.175L539.836,227.211L539.767,227.246L539.698,227.28L539.628,227.313L539.557,227.345L539.486,227.376L539.414,227.406L539.342,227.435L539.27,227.463L539.197,227.491L539.124,227.517L539.05,227.542L538.976,227.567L538.901,227.591L538.827,227.614L538.752,227.636L538.676,227.657L538.6,227.678L538.524,227.698L538.448,227.717L538.371,227.735L538.295,227.753L538.218,227.77L538.14,227.787L538.063,227.803L537.985,227.818L537.907,227.833L537.829,227.847L537.751,227.86L537.673,227.873L537.594,227.886L537.516,227.897L537.437,227.909L537.359,227.92L537.28,227.93L537.201,227.94L537.122,227.949L537.043,227.958L536.964,227.967L536.886,227.975L536.807,227.983L536.728,227.99L536.649,227.997L536.57,228.004L536.492,228.01L536.413,228.017L536.257,228.028L536.101,228.037L535.945,228.046L535.791,228.054L535.637,228.061L535.484,228.068L535.333,228.073L535.183,228.078L535.034,228.083L534.743,228.091L534.458,228.099L534.182,228.107L534.048,228.111L533.916,228.115L533.787,228.12L533.66,228.126L533.617,228.126L533.575,228.123L533.533,228.118L533.491,228.109L533.451,228.098L533.411,228.084L533.372,228.067L533.334,228.047L533.298,228.025L533.264,228L533.231,227.973L533.2,227.944L533.172,227.913L533.146,227.879L533.122,227.844L533.1,227.808L533.081,227.77L533.065,227.731L533.052,227.691L533.041,227.65L533.034,227.608L533.029,227.566L533.027,227.523L533.028,227.481L533.032,227.439L533.039,227.397L533.049,227.356L533.062,227.316L533.078,227.276L533.096,227.238L533.117,227.201L533.14,227.166L533.166,227.132L533.194,227.101L533.225,227.071L533.257,227.043L533.291,227.018L533.327,226.996L533.364,226.975L533.403,226.958L533.442,226.943L533.483,226.931L533.524,226.922L533.566,226.916L533.608,226.913L533.739,226.907L533.873,226.902L534.009,226.898L534.146,226.893L534.425,226.885L534.709,226.878L534.998,226.87L535.143,226.865L535.29,226.86L535.437,226.855L535.584,226.849L535.732,226.842L535.88,226.834L536.027,226.826L536.175,226.816L536.324,226.806L536.397,226.8L536.47,226.794L536.544,226.788L536.617,226.781L536.69,226.775L536.763,226.767L536.836,226.76L536.908,226.752L536.981,226.744L537.053,226.735L537.125,226.726L537.196,226.717L537.267,226.707L537.338,226.696L537.409,226.686L537.479,226.675L537.549,226.663L537.618,226.651L537.687,226.639L537.756,226.626L537.824,226.612L537.892,226.599L537.959,226.584L538.026,226.569L538.092,226.554L538.157,226.538L538.222,226.522L538.287,226.505L538.351,226.488L538.414,226.47L538.477,226.451L538.539,226.432L538.6,226.413L538.66,226.392L538.72,226.372L538.78,226.35L538.838,226.329L538.896,226.306L538.953,226.283L539.009,226.26L539.064,226.236L539.119,226.211L539.172,226.186L539.225,226.16L539.277,226.133L539.328,226.106L539.379,226.079L539.428,226.051L539.477,226.022L539.524,225.992L539.571,225.962L539.618,225.931L539.639,225.916L539.662,225.9L539.684,225.885L539.706,225.869L539.727,225.852L539.749,225.836L539.77,225.82L539.791,225.803L539.812,225.786L539.832,225.769L539.852,225.752L539.872,225.735L539.892,225.717L539.912,225.7L539.931,225.682L539.95,225.664L539.969,225.646L539.988,225.628L540.006,225.609L540.025,225.59L540.043,225.572L540.06,225.553L540.078,225.533L540.095,225.514L540.112,225.494L540.129,225.475L540.146,225.455L540.162,225.435L540.179,225.414L540.195,225.394L540.21,225.373L540.226,225.352L540.241,225.331L540.256,225.31L540.271,225.288L540.286,225.266L540.3,225.244L540.315,225.222L540.329,225.199L540.343,225.177L540.356,225.154L540.369,225.13L540.383,225.107L540.395,225.083L540.408,225.059L540.421,225.035L540.433,225.01L540.445,224.985L540.457,224.96L540.468,224.935L540.48,224.909L540.491,224.883L540.502,224.857L540.512,224.831L540.523,224.804L540.533,224.777L540.543,224.749L540.552,224.721L540.562,224.693L540.571,224.665L540.58,224.636L540.589,224.607L540.597,224.578L540.605,224.548L540.613,224.518L540.621,224.487L540.628,224.457L540.636,224.425L540.642,224.394L540.649,224.362L540.655,224.33L540.661,224.297L540.667,224.264L540.673,224.231L540.678,224.197L540.683,224.16L540.691,224.118L540.701,224.077L540.714,224.037L540.73,223.998L540.749,223.96L540.77,223.923L540.794,223.888L540.82,223.855L540.849,223.823L540.879,223.794L540.912,223.767L540.946,223.742L540.982,223.72L541.019,223.7L541.058,223.683L541.098,223.668L541.139,223.657L541.18,223.648L541.222,223.642L541.265,223.639L541.307,223.64Z" style="fill:rgb(40,40,40);"/>
        <path d="M540.069,233.354L540.11,233.359L540.151,233.367L540.191,233.378L540.23,233.391L540.269,233.407L540.306,233.425L540.342,233.446L540.376,233.469L540.408,233.495L540.439,233.523L540.468,233.552L540.495,233.584L540.519,233.618L540.541,233.653L540.561,233.689L540.578,233.727L540.593,233.766L540.605,233.805L540.614,233.846L540.62,233.887L540.624,233.928L540.624,233.969L540.622,234.011L540.617,234.052L540.61,234.093L540.599,234.133L540.586,234.172L540.57,234.21L540.552,234.248L540.531,234.283L540.493,234.343L540.452,234.406L540.409,234.468L540.366,234.529L540.321,234.589L540.276,234.647L540.229,234.705L540.182,234.762L540.134,234.817L540.085,234.872L540.035,234.925L539.984,234.977L539.932,235.028L539.88,235.078L539.827,235.127L539.773,235.175L539.718,235.222L539.663,235.267L539.607,235.312L539.55,235.356L539.493,235.398L539.435,235.439L539.377,235.48L539.318,235.519L539.258,235.557L539.198,235.594L539.137,235.631L539.076,235.666L539.014,235.7L538.952,235.733L538.889,235.765L538.826,235.796L538.762,235.826L538.698,235.856L538.634,235.884L538.569,235.911L538.504,235.938L538.439,235.963L538.373,235.987L538.307,236.011L538.24,236.034L538.173,236.055L538.106,236.076L538.039,236.096L537.971,236.115L537.904,236.134L537.836,236.151L537.767,236.168L537.699,236.183L537.63,236.198L537.561,236.213L537.492,236.226L537.423,236.238L537.354,236.25L537.284,236.261L537.214,236.271L537.145,236.281L537.075,236.289L537.005,236.297L536.935,236.304L536.865,236.311L536.794,236.316L536.724,236.321L536.654,236.326L536.583,236.329L536.513,236.332L536.443,236.334L536.372,236.336L536.302,236.337L536.231,236.337L536.161,236.336L536.091,236.335L536.02,236.333L535.95,236.331L535.88,236.328L535.81,236.324L535.74,236.32L535.67,236.315L535.6,236.309L535.53,236.303L535.461,236.296L535.391,236.289L535.322,236.281L535.253,236.272L535.184,236.263L535.115,236.254L535.046,236.243L534.978,236.232L534.909,236.221L534.841,236.209L534.773,236.197L534.706,236.184L534.638,236.17L534.571,236.156L534.504,236.141L534.438,236.126L534.372,236.11L534.305,236.094L534.24,236.077L534.174,236.06L534.109,236.043L534.044,236.024L533.98,236.006L533.916,235.986L533.852,235.967L533.789,235.947L533.726,235.926L533.663,235.905L533.601,235.883L533.539,235.861L533.478,235.839L533.417,235.816L533.356,235.792L533.296,235.768L533.236,235.744L533.177,235.719L533.118,235.694L533.06,235.668L533.002,235.642L532.945,235.616L532.888,235.589L532.832,235.561L532.776,235.533L532.721,235.505L532.666,235.476L532.612,235.447L532.559,235.417L532.509,235.389L532.473,235.367L532.44,235.343L532.408,235.317L532.377,235.289L532.349,235.258L532.323,235.226L532.3,235.192L532.278,235.156L532.259,235.12L532.243,235.082L532.229,235.042L532.218,235.002L532.21,234.962L532.204,234.921L532.202,234.879L532.202,234.838L532.205,234.797L532.211,234.756L532.219,234.715L532.231,234.675L532.245,234.636L532.261,234.598L532.281,234.561L532.302,234.526L532.326,234.492L532.353,234.46L532.381,234.43L532.411,234.402L532.444,234.376L532.478,234.352L532.513,234.331L532.55,234.312L532.588,234.296L532.627,234.282L532.667,234.271L532.708,234.263L532.749,234.257L532.79,234.254L532.832,234.255L532.873,234.258L532.914,234.263L532.955,234.272L532.995,234.283L533.034,234.297L533.071,234.314L533.108,234.333L533.153,234.359L533.195,234.382L533.238,234.405L533.281,234.428L533.325,234.45L533.37,234.473L533.415,234.495L533.461,234.517L533.508,234.539L533.555,234.56L533.603,234.581L533.651,234.602L533.7,234.622L533.749,234.642L533.799,234.662L533.85,234.682L533.9,234.701L533.952,234.72L534.004,234.738L534.056,234.756L534.108,234.774L534.162,234.791L534.215,234.808L534.269,234.825L534.323,234.841L534.378,234.857L534.433,234.872L534.488,234.888L534.544,234.902L534.6,234.916L534.656,234.93L534.712,234.943L534.769,234.956L534.826,234.969L534.883,234.981L534.941,234.992L534.998,235.004L535.056,235.014L535.114,235.024L535.172,235.034L535.231,235.043L535.289,235.052L535.348,235.06L535.407,235.068L535.466,235.075L535.525,235.082L535.584,235.089L535.643,235.094L535.702,235.1L535.761,235.104L535.82,235.108L535.88,235.112L535.939,235.115L535.998,235.118L536.057,235.12L536.116,235.121L536.175,235.122L536.234,235.123L536.293,235.123L536.352,235.122L536.411,235.121L536.469,235.119L536.528,235.117L536.586,235.114L536.644,235.11L536.702,235.106L536.76,235.101L536.818,235.096L536.875,235.09L536.932,235.084L536.989,235.077L537.046,235.069L537.102,235.061L537.158,235.052L537.214,235.043L537.269,235.032L537.324,235.022L537.379,235.011L537.434,234.999L537.488,234.986L537.542,234.973L537.595,234.96L537.648,234.945L537.701,234.93L537.753,234.915L537.805,234.899L537.856,234.882L537.907,234.865L537.957,234.847L538.007,234.828L538.057,234.809L538.106,234.789L538.154,234.769L538.203,234.747L538.25,234.726L538.297,234.703L538.344,234.681L538.39,234.657L538.435,234.633L538.48,234.608L538.524,234.582L538.568,234.556L538.611,234.53L538.654,234.502L538.696,234.474L538.738,234.446L538.779,234.416L538.819,234.386L538.859,234.356L538.898,234.325L538.937,234.293L538.975,234.26L539.012,234.227L539.049,234.193L539.086,234.158L539.121,234.123L539.156,234.087L539.191,234.05L539.225,234.012L539.258,233.974L539.29,233.935L539.322,233.895L539.354,233.855L539.385,233.814L539.415,233.771L539.444,233.728L539.473,233.685L539.504,233.635L539.528,233.601L539.553,233.568L539.581,233.537L539.611,233.509L539.642,233.482L539.676,233.457L539.711,233.435L539.747,233.416L539.785,233.398L539.824,233.384L539.864,233.372L539.904,233.363L539.945,233.357L539.986,233.353L540.028,233.352L540.069,233.354Z" style="fill:rgb(40,40,40);"/>
        <path d="M567.021,158.853C566.475,160.049 565.063,160.575 563.867,160.029C562.671,159.482 562.145,158.071 562.691,156.875C563.238,155.679 564.649,155.152 565.845,155.699C567.041,156.245 567.567,157.657 567.021,158.853" style="fill:rgb(40,40,40);fill-rule:nonzero;"/>
        <path d="M536.928,241.614C536.928,241.614 551.503,235.631 565.816,239.025C580.13,242.419 587.498,216.39 589.151,210.714C590.805,205.038 597.82,189.006 585.665,153.689L589.421,156.181L596.594,168.178C596.594,168.178 601.185,184.592 598.847,194.135C596.509,203.677 595.055,212.48 586.462,227.983C585.151,230.347 573.262,256.47 543.975,252.572C530.602,250.576 530.567,249.023 530.567,249.023L536.928,241.614Z" style="fill:rgb(231,160,14);fill-rule:nonzero;"/>
        <path d="M586.544,184.85C586.544,184.85 598.963,181.813 600.82,162.94C602.676,144.066 605.101,159.22 605.101,159.22L606.433,162.227C606.433,162.227 609.809,189.278 586.544,184.85Z" style="fill:rgb(189,188,189);fill-rule:nonzero;stroke:rgb(40,40,40);stroke-width:0.81px;"/>
        <path d="M528.113,241.447C528.113,241.447 534.622,236.51 538.11,238.612C538.777,239.015 538.32,238.735 538.32,238.735C538.32,238.735 530.312,250.079 527.519,250.237C524.725,250.396 518.914,251.365 517.948,246.409C516.982,241.453 523.809,239.513 523.809,239.513L528.113,241.447Z" style="fill:rgb(231,160,14);fill-rule:nonzero;"/>
        <path d="M606.232,160.142C606.333,161.883 605.319,163.358 603.966,163.437C602.613,163.516 601.434,162.168 601.332,160.427C601.231,158.687 602.246,157.211 603.599,157.133C604.952,157.054 606.131,158.401 606.232,160.142" style="fill:rgb(130,130,130);fill-rule:nonzero;"/>
        <path d="M606.232,160.142C606.333,161.883 605.319,163.358 603.966,163.437C602.613,163.516 601.434,162.168 601.332,160.427C601.231,158.687 602.246,157.211 603.599,157.133C604.952,157.054 606.131,158.401 606.232,160.142Z" style="fill:none;stroke:rgb(40,40,40);stroke-width:0.67px;"/>
        <path d="M606.121,162.51C606.121,162.51 603.701,182.461 587.643,184.81C587.643,184.81 598.137,186.785 602.415,179.571C607.579,170.867 606.121,162.51 606.121,162.51" style="fill:rgb(130,130,130);fill-rule:nonzero;"/>
        <path d="M566.385,171.368C566.385,171.368 575.814,174.473 577.72,176.296C579.625,178.12 580.942,180.871 578.026,181.555C574.58,178.292 567.636,173.354 565.039,172.589C562.442,171.824 561.779,170.93 561.779,170.93L566.385,171.368Z" style="fill:rgb(231,160,14);fill-rule:nonzero;"/>
        <path d="M521.182,150.892C521.068,150.874 519.872,150.8 519.873,150.8C516.086,150.181 516.806,154.34 516.952,154.655C517.221,155.229 524.081,160.435 526.258,158.374C527.739,156.973 529.619,150.013 531.95,149.587C527.705,150.362 525.211,151.085 523.378,150.799" style="fill:rgb(242,144,37);fill-rule:nonzero;"/>
        <path d="M608.194,170.886C603.801,168.914 598.018,165.577 594.313,163.4C593.99,163.211 594.255,164.353 594.051,164.287C594.044,165.048 593.184,165.656 593.725,167.425L594.292,170.311C597.875,182.539 602.353,184.538 605.844,186.106L605.845,186.107C607.092,186.667 608.432,186.779 609.754,187.028C615.886,188.186 622.718,185.752 625.633,182.863C626.721,181.782 627.43,179.128 626.226,179.095C625.411,179.073 623.658,177.761 620.617,176.395C618.998,175.669 617.153,174.854 615.188,173.989C612.954,173.004 610.568,171.952 608.194,170.886" style="fill:rgb(242,144,37);fill-rule:nonzero;"/>
        <path d="M558.533,252.652C555.778,252.956 544.946,251.747 542.901,253.014C529.796,261.135 518.435,262.062 504.642,257.663C497.833,255.491 494.843,250.734 494.209,244.883C493.499,238.32 488.503,233.376 485.095,232.768C482.811,232.36 478.382,233.321 477.124,235.853C476.022,238.074 475.528,244.555 477.662,248.896C481.498,256.701 492.336,267.777 503.05,269.904C521.57,273.583 545.526,266.237 557.246,254.117" style="fill:rgb(242,144,37);fill-rule:nonzero;"/>
        <path d="M475.939,243.881C475.737,243.419 477.858,241.561 478.164,241.341C480.516,239.646 483.639,240.323 485.037,242.703C487.381,246.692 487.318,251.607 489.821,255.537C492.207,259.284 495.728,262.472 499.764,264.344C504.262,266.429 510.112,267.114 515.031,266.827C535.114,265.657 550.382,256.156 553.421,253.28L558.067,253.01C558.067,253.01 544.701,269.732 515.254,270.664C498.756,271.187 486.374,267.533 475.939,243.881" style="fill:rgb(219,126,20);fill-rule:nonzero;"/>
        <path d="M529.38,152.036C529.38,152.036 523.306,157.056 517.19,151.757C516.292,152.195 516.558,155.76 520.223,157.117C526.025,159.266 525.405,160.945 529.38,152.036" style="fill:rgb(219,126,20);fill-rule:nonzero;"/>
        <path d="M594.52,171.072C594.52,171.072 610.113,188.374 621.014,176.57C621.014,176.57 625.953,177.139 626.518,179.263C627.082,181.386 626.048,183.954 621.122,186.093C612.525,189.827 601.292,187.358 598.193,180.351C595.094,173.344 594.52,171.072 594.52,171.072" style="fill:rgb(219,126,20);fill-rule:nonzero;"/>
        <path d="M548.629,169.529C547.699,169.674 546.979,169.93 546.109,170.193C541.151,171.689 539.847,174.173 539.628,175.993C539.315,178.576 541.07,181.401 544.096,183.188C546.066,184.353 548.996,184.976 552.389,185.7C556.865,186.656 561.938,187.739 565.435,190.301C570.633,194.113 573.168,199.128 576.587,206.967C576.118,211.314 574.95,215.554 573.115,219.57C571.581,222.927 569.614,226.037 567.272,228.835C565.2,226.771 562.354,224.995 559.181,223.918C552.915,221.788 546.443,222.633 541.112,226.192C540.871,220.766 539.154,212.989 534.356,210.797C533.186,210.262 531.916,210.099 530.58,210.315C523.615,211.434 522.238,218.455 521.023,224.65C520.698,226.31 520.389,227.879 519.99,229.291C519.504,231.006 518.548,232.926 517.624,234.784C515.793,238.461 513.9,242.265 515.061,245.548C515.667,247.259 517.037,248.612 519.135,249.57C523.474,251.553 527.312,250.574 530.147,248.816C530.524,249.006 530.925,249.201 531.368,249.404C534.16,250.68 538.256,252.128 543.418,252.816C531.841,260.243 515.527,262.256 504.309,257.385C500.281,255.649 495.319,252.209 494.629,245.846C493.792,238.119 489.023,233.3 484.745,232.54C481.377,231.939 478.446,233.608 476.704,237.118C475.252,240.041 475.851,244.63 478.346,249.706C481.627,256.378 488.237,263.756 496.655,267.602C498.746,268.557 500.948,269.295 503.237,269.75C523.586,273.79 546.748,266.487 558.534,252.374C571.705,249.816 581.31,237.159 587.068,226.925C594.408,213.877 598.455,199.446 599.21,190.932C599.478,187.923 599.504,185.018 599.331,182.214C601.373,184.125 603.285,185.315 604.883,186.045L604.884,186.046C606.318,186.701 607.802,187.138 609.297,187.344C618.9,188.669 625.287,184.04 626.426,181.386C626.875,180.34 626.697,179.361 625.952,178.766M625.952,178.766C625.489,178.396 624.28,177.745 619.696,175.651C618.106,174.924 616.292,174.106 614.363,173.236C612.177,172.251 609.842,171.198 607.517,170.135C603.531,168.314 597.96,165.731 594.298,163.754C590.625,156.985 585.06,151.588 577.797,148C562.316,140.344 545.46,140.672 532.658,148.981C528.499,150.5 521.549,151.199 519.511,150.765C518.568,150.564 517.658,150.844 517.078,151.512C516.491,152.189 516.347,153.156 516.692,154.1C517.008,154.962 517.894,156.263 520.342,157.381C521.659,157.983 523.437,158.531 525.813,158.93C525.789,160.709 526.186,162.261 527.366,163.614" style="fill:none;stroke:rgb(40,40,40);stroke-width:0.81px;stroke-linecap:round;"/>
        <path d="M556.681,170.503C553.268,169.897 550.832,168.96 548.174,169.633" style="fill:none;stroke:rgb(40,40,40);stroke-width:0.81px;stroke-linecap:round;"/>
        <path d="M561.356,171.072C562.668,171.45 566.273,173.295 567.619,173.899C571.074,175.451 574.965,178.068 577.26,181.103" style="fill:none;stroke:rgb(40,40,40);stroke-width:0.81px;stroke-linecap:round;"/>
        <path d="M527.479,163.752C528.643,164.703 530.737,165.47 532.186,165.604C535.995,165.957 544.088,166.119 545.798,162.15C546.339,164.124 547.442,165.457 549.143,167.009C554.071,171.507 560.163,170.603 566.385,171.368" style="fill:none;stroke:rgb(40,40,40);stroke-width:0.81px;stroke-linecap:round;"/>
        <path d="M570.222,234.221C569.533,232.058 568.351,230.065 566.785,228.348" style="fill:none;stroke:rgb(40,40,40);stroke-width:0.81px;stroke-linecap:round;"/>
        <path d="M593.957,163.612C593.268,165.019 593.22,165.544 593.308,166.683C593.739,172.234 596.366,178.324 599.852,182.637" style="fill:none;stroke:rgb(40,40,40);stroke-width:0.81px;stroke-linecap:round;"/>
        <path d="M525.99,158.803C527.111,157.066 527.935,155.164 528.959,153.373C529.877,151.769 530.87,150.06 532.48,149.059" style="fill:none;stroke:rgb(40,40,40);stroke-width:0.81px;stroke-linecap:round;"/>
        <path d="M558.391,252.459C555.845,252.631 553.238,252.95 550.688,252.977C546.899,253.019 542.627,252.69 538.516,251.883" style="fill:none;stroke:rgb(40,40,40);stroke-width:0.81px;stroke-linecap:round;"/>
        <path d="M529.622,249.078C529.622,249.078 540.818,242.012 541.134,226.005" style="fill:none;stroke:rgb(40,40,40);stroke-width:0.81px;stroke-linecap:round;"/>
        <path d="M578.344,211.234C578.074,210.017 577.072,208.165 576.586,206.966" style="fill:none;stroke:rgb(40,40,40);stroke-width:0.81px;stroke-linecap:round;"/>
        <path d="M568.293,120.377L568.66,108.579L572.904,108.463L571.187,120.412L568.293,120.377Z" style="fill:rgb(189,188,189);fill-rule:nonzero;stroke:rgb(40,40,40);stroke-width:0.81px;"/>
        <path d="M502.757,215.484C507.555,223.131 508.597,231.117 505.086,233.32C501.574,235.523 494.838,231.11 490.04,223.462C485.242,215.815 484.2,207.83 487.711,205.627C491.223,203.424 497.959,207.837 502.757,215.484" style="fill:rgb(119,83,58);fill-rule:nonzero;"/>
        <path d="M502.757,215.484C507.555,223.131 508.597,231.117 505.086,233.32C501.574,235.523 494.838,231.11 490.04,223.462C485.242,215.815 484.2,207.83 487.711,205.627C491.223,203.424 497.959,207.837 502.757,215.484Z" style="fill:none;stroke:rgb(40,40,40);stroke-width:0.81px;"/>
        <path d="M533.528,232.787C533.534,232.736 533.543,232.686 533.549,232.634C533.61,232.168 533.664,231.686 533.708,231.178C534.156,226.756 532.678,216.806 527.955,214.648C527.229,214.316 525.513,214.359 524.616,214.529C519.559,215.488 518.218,218.578 517.24,225.341C516.998,227.014 516.747,228.743 516.365,230.29C515.866,232.303 514.836,234.334 513.841,236.298C512.294,239.349 510.694,242.503 511.7,244.637C512.141,245.57 513.124,246.376 514.705,247.099C515.163,247.308 515.608,247.477 516.044,247.625C516.176,247.67 516.305,247.705 516.435,247.745C516.743,247.838 517.047,247.92 517.343,247.986C517.475,248.015 517.607,248.044 517.736,248.068C518.05,248.126 518.357,248.169 518.658,248.198C518.745,248.207 518.836,248.221 518.922,248.227C519.313,248.256 519.692,248.263 520.058,248.249C520.094,248.248 520.128,248.242 520.164,248.24C520.489,248.224 520.805,248.191 521.111,248.145C521.201,248.132 521.289,248.115 521.376,248.099C521.631,248.054 521.88,248 522.119,247.937C522.201,247.915 522.283,247.896 522.362,247.873C522.636,247.794 522.9,247.705 523.154,247.608C523.183,247.597 523.215,247.587 523.244,247.576C523.529,247.464 523.8,247.341 524.059,247.212C524.12,247.181 524.176,247.149 524.235,247.119C524.422,247.02 524.603,246.92 524.775,246.817C524.858,246.767 524.937,246.718 525.016,246.668C525.154,246.58 525.286,246.492 525.414,246.403C525.494,246.346 525.577,246.29 525.653,246.234C525.761,246.154 525.86,246.076 525.96,245.997C526.168,245.831 526.363,245.668 526.533,245.514C526.542,245.506 526.552,245.497 526.561,245.489C526.683,245.378 526.794,245.272 526.895,245.171C527.335,244.733 527.595,244.404 527.637,244.348C527.678,244.292 527.726,244.237 527.776,244.188C530.64,241.391 532.473,238.776 533.325,234.083C533.4,233.667 533.467,233.234 533.528,232.787" style="fill:rgb(119,83,58);fill-rule:nonzero;stroke:rgb(40,40,40);stroke-width:0.81px;"/>
        <path d="M501.235,158.574L480.235,137.289L481.988,124.208L493.767,128.638L504.959,155.88L501.235,158.574Z" style="fill:rgb(189,188,189);fill-rule:nonzero;stroke:rgb(40,40,40);stroke-width:0.81px;"/>
        <path d="M482.328,124.743L502.724,156.951L504.409,155.737L493.513,128.917L482.328,124.743Z" style="fill:rgb(212,212,212);fill-rule:nonzero;"/>
        <path d="M511.445,162.272C514.452,166.974 515.447,171.709 513.667,172.847C511.888,173.984 508.008,171.094 505.001,166.391C501.994,161.689 501,156.954 502.779,155.817C504.558,154.679 508.439,157.569 511.445,162.272" style="fill:rgb(40,40,40);fill-rule:nonzero;"/>
        <path d="M516.115,154.92L496.822,167.935L492.92,162.151L512.213,149.136L516.115,154.92Z" style="fill:rgb(198,42,72);fill-rule:nonzero;stroke:rgb(40,40,40);stroke-width:0.81px;"/>
        <path d="M505.622,161.568L496.838,167.532L493.239,162.15L502.122,156.378L505.622,161.568Z" style="fill:rgb(105,39,53);fill-rule:nonzero;stroke:rgb(40,40,40);stroke-width:0.33px;"/>
        <path d="M516.553,166.199C515.835,168.087 513.199,168.835 510.665,167.871C508.132,166.907 506.661,164.595 507.379,162.708C508.097,160.82 510.733,160.072 513.267,161.036C515.8,162 517.271,164.311 516.553,166.199" style="fill:rgb(248,185,18);fill-rule:nonzero;"/>
        <path d="M516.553,166.199C515.835,168.087 513.199,168.835 510.665,167.871C508.132,166.907 506.661,164.595 507.379,162.708C508.097,160.82 510.733,160.072 513.267,161.036C515.8,162 517.271,164.311 516.553,166.199Z" style="fill:none;stroke:rgb(40,40,40);stroke-width:0.81px;"/>
        <path d="M513.809,237.09C513.646,237.352 514.043,238.334 514.144,238.542C514.798,239.885 516.251,240.476 517.648,240.689C519.485,240.97 521.422,240.966 523.275,240.897C524.086,240.866 524.898,240.808 525.702,240.699C526.717,240.563 527.711,240.317 528.707,240.087C529.637,239.87 530.85,239.872 531.38,238.99C529.809,241.73 527.35,244.971 524.531,246.538C521.234,248.371 517.831,248.514 513.059,245.863C509.759,243.663 513.801,237.103 513.809,237.09" style="fill:rgb(97,68,47);fill-rule:nonzero;"/>
        <path d="M504.27,219.02C504.396,220.724 504.711,222.294 504.356,224.004C504.218,224.669 503.997,225.339 503.656,225.929C503.161,226.788 502.335,227.174 501.37,227.234C500.83,227.267 500.223,227.267 499.688,227.171C497.793,226.832 495.871,226.253 494.106,225.51C493.371,225.201 492.656,224.85 491.962,224.462C491.22,224.047 490.491,223.429 490.04,222.694C490.04,222.694 494.64,230.892 500.87,233.067C507.101,235.242 507.018,228.857 506.685,226.583C506.07,222.383 504.27,219.02 504.27,219.02" style="fill:rgb(97,68,47);fill-rule:nonzero;"/>
        <path d="M606.228,160.158C606.079,157.598 604.345,155.617 602.355,155.732C601.895,155.759 601.466,155.906 601.074,156.132C601.509,152.217 602.347,140.046 597.352,131.073C597.352,131.073 594.166,127.384 590.648,125.468C591.159,125.747 592.388,127.607 592.734,128.076C593.202,128.712 593.657,129.358 594.098,130.012C596.187,133.105 597.189,136.328 597.304,140.046C597.373,142.255 597.237,144.541 596.89,146.727C596.8,147.294 596.707,148.128 596.349,148.612C595.456,149.82 593.549,143.569 592.477,141.704C591.404,139.838 564.58,114.025 538.596,134.625C538.596,134.625 531.904,147.426 531.44,149.381C531.39,149.59 534.38,147.674 534.403,147.663C536.308,146.716 537.555,146.08 539.002,145.482C543.017,143.822 546.769,143.04 551.273,142.585C554.439,142.265 557.496,142.169 560.641,142.585C562.293,142.804 563.754,142.901 565.283,143.142C565.456,143.071 565.659,143.049 565.886,143.1C567.798,143.527 569.706,143.98 571.557,144.638C573.351,145.276 575.099,146.107 576.813,146.935C579.687,148.322 582.477,149.936 584.922,152.001C586.538,153.366 587.987,154.921 589.266,156.604C589.632,157.085 589.984,157.576 590.324,158.077C590.68,158.603 591.021,159.14 591.352,159.682C592.111,160.925 592.739,162.345 593.713,163.442C593.901,163.653 594.233,163.866 594.321,163.43C595.743,156.407 598.727,161.294 599.698,162.949C600.408,164.246 601.592,165.079 602.895,165.003C604.885,164.887 606.377,162.718 606.228,160.158" style="fill:rgb(189,188,189);fill-rule:nonzero;"/>
        <path d="M606.632,160.134C606.7,161.392 606.416,162.7 605.668,163.768C605.294,164.297 604.798,164.76 604.197,165.063C604.049,165.142 603.888,165.195 603.73,165.257C603.564,165.298 603.364,165.36 603.223,165.373L603.003,165.401L602.947,165.407L602.858,165.411L602.731,165.413C602.561,165.413 602.391,165.402 602.224,165.373C600.856,165.164 599.823,164.092 599.266,163.024C598.673,162.039 598.019,161.017 597.17,160.411C596.731,160.116 596.352,160.069 596.023,160.357C595.675,160.641 595.424,161.168 595.228,161.682C595.033,162.22 594.887,162.745 594.766,163.337L594.713,163.568C594.679,163.677 594.647,163.836 594.44,163.993C594.213,164.153 593.944,164.096 593.831,164.04C593.698,163.982 593.612,163.915 593.533,163.846C593.258,163.56 593.1,163.358 592.908,163.094C592.172,162.091 591.665,161.007 591.061,160.01L590.114,158.523C589.814,158.061 589.435,157.566 589.099,157.089C588.411,156.161 587.645,155.26 586.852,154.409C586.06,153.59 585.178,152.753 584.285,152.028C582.477,150.549 580.472,149.307 578.397,148.213C577.364,147.661 576.285,147.155 575.223,146.649C574.142,146.154 573.104,145.671 571.984,145.261C570.896,144.837 569.77,144.511 568.639,144.2L566.924,143.78L566.057,143.582C565.718,143.495 565.611,143.484 565.446,143.542L565.33,143.583L565.215,143.569L562.025,143.18C560.95,143.067 559.885,142.915 558.833,142.842C556.717,142.675 554.576,142.747 552.455,142.917C550.318,143.108 548.196,143.367 546.107,143.791C545.063,144.003 544.027,144.25 543.008,144.552C541.978,144.849 540.996,145.177 539.988,145.575C538.967,145.945 538.047,146.419 537.061,146.847L535.614,147.564L534.89,147.922C534.79,147.974 534.603,148.057 534.575,148.084L534.233,148.3L532.852,149.155L532.142,149.57C532.017,149.638 531.9,149.704 531.742,149.774C531.693,149.792 531.668,149.812 531.54,149.838C531.556,149.834 531.477,149.863 531.328,149.826C531.192,149.79 531.077,149.671 531.039,149.588C531.018,149.546 531.031,149.569 531.025,149.557C530.978,148.997 531.015,149.394 531.005,149.265L531.022,149.212L531.089,148.999C531.467,147.909 531.933,146.965 532.386,145.973C534.239,142.069 536.212,138.243 538.198,134.416L538.242,134.332L538.317,134.273C541.399,131.835 544.818,129.784 548.515,128.396C552.201,126.99 556.146,126.266 560.091,126.255C564.037,126.251 567.966,126.926 571.706,128.131C575.453,129.33 579.024,131.024 582.376,133.058C584.054,134.074 585.675,135.182 587.238,136.366C588.799,137.556 590.307,138.812 591.71,140.204C592.066,140.568 592.39,140.883 592.743,141.348C593.05,141.821 593.223,142.261 593.431,142.717L594.552,145.419C594.93,146.301 595.306,147.214 595.792,147.969C595.903,148.143 596.071,148.33 596.128,148.352C596.164,148.347 596.001,148.348 595.997,148.383C596.031,148.353 596.061,148.284 596.114,148.197C596.287,147.848 596.37,147.388 596.442,146.914C596.739,145.002 596.899,143.096 596.901,141.167C596.918,139.235 596.728,137.334 596.212,135.499C595.694,133.648 594.902,131.959 593.818,130.329L592.16,127.952C591.607,127.161 591.165,126.273 590.611,125.537L590.686,125.399C592.032,126.01 593.267,126.847 594.423,127.767C595.579,128.694 596.64,129.713 597.658,130.808L597.687,130.839L597.706,130.876L598.447,132.331C598.7,132.813 598.88,133.327 599.101,133.824C599.325,134.32 599.497,134.835 599.672,135.348C599.852,135.86 600.032,136.372 600.167,136.897C600.306,137.421 600.479,137.937 600.59,138.467L600.946,140.051C601.143,141.115 601.328,142.181 601.456,143.254C601.538,143.789 601.571,144.329 601.629,144.866C601.689,145.403 601.717,145.942 601.752,146.481C601.824,147.558 601.847,148.638 601.845,149.717C601.844,151.875 601.732,154.03 601.494,156.178L600.863,155.765C601.19,155.588 601.519,155.446 601.929,155.365C602.124,155.341 602.212,155.31 602.468,155.313C602.657,155.308 602.844,155.32 603.029,155.354C603.778,155.46 604.442,155.855 604.972,156.339C605.498,156.836 605.89,157.445 606.165,158.093C606.304,158.417 606.405,158.755 606.486,159.096C606.566,159.456 606.608,159.804 606.631,160.118L606.632,160.134ZM605.825,160.197C605.799,159.858 605.756,159.556 605.692,159.276C605.62,158.981 605.532,158.689 605.411,158.412C605.173,157.858 604.837,157.346 604.408,156.944C603.973,156.555 603.456,156.253 602.899,156.181C602.761,156.155 602.622,156.147 602.482,156.152C602.41,156.137 602.174,156.18 602.046,156.198C601.813,156.25 601.532,156.36 601.285,156.498L600.567,156.897L600.653,156.085C600.878,153.973 600.978,151.844 600.969,149.718C600.969,148.655 600.932,147.592 600.869,146.532C600.838,146.002 600.812,145.472 600.756,144.944C600.701,144.416 600.672,143.885 600.593,143.36C600.472,142.305 600.296,141.26 600.108,140.216L599.767,138.665C599.661,138.145 599.494,137.643 599.361,137.131C599.231,136.617 599.059,136.118 598.885,135.618C598.717,135.118 598.552,134.615 598.336,134.133C598.125,133.651 597.953,133.149 597.709,132.681L596.998,131.27L597.046,131.337C596.119,130.247 595.077,129.222 594.018,128.24C592.952,127.258 591.825,126.346 590.611,125.537L590.686,125.399L590.687,125.4C591.646,125.897 592.212,126.732 592.809,127.497C593.387,128.289 593.928,129.062 594.506,129.898C595.583,131.505 596.477,133.377 597,135.278C597.542,137.193 597.741,139.203 597.725,141.16C597.726,143.124 597.562,145.107 597.261,147.042C597.183,147.526 597.11,148.043 596.855,148.573C596.785,148.693 596.71,148.852 596.566,148.988C596.388,149.204 595.936,149.227 595.76,149.097C595.386,148.882 595.266,148.652 595.101,148.433C594.534,147.546 594.173,146.644 593.783,145.742L592.663,143.052C592.47,142.622 592.272,142.155 592.044,141.813C591.807,141.504 591.443,141.126 591.116,140.798C589.754,139.449 588.263,138.208 586.727,137.041C585.186,135.876 583.587,134.786 581.934,133.787C578.631,131.787 575.117,130.125 571.444,128.953C567.776,127.776 563.938,127.122 560.094,127.13C556.251,127.145 552.418,127.852 548.829,129.225C545.231,130.58 541.893,132.584 538.875,134.976L538.994,134.832C537.014,138.649 535.049,142.484 533.202,146.357C532.759,147.321 532.278,148.317 531.95,149.261L531.894,149.433L531.88,149.475C531.869,149.355 531.899,149.76 531.855,149.208C531.852,149.203 531.866,149.237 531.85,149.2C531.82,149.117 531.714,148.999 531.586,148.964C531.445,148.928 531.375,148.958 531.399,148.95C531.337,148.963 531.374,148.956 531.387,148.948C531.475,148.909 531.595,148.845 531.705,148.784L532.389,148.385L533.755,147.541L534.096,147.326C534.293,147.205 534.359,147.19 534.496,147.117L535.22,146.759L536.668,146.045C537.656,145.614 538.659,145.107 539.665,144.745C540.658,144.353 541.722,143.996 542.76,143.7C543.805,143.391 544.866,143.14 545.932,142.925C548.064,142.493 550.224,142.233 552.374,142.042C554.543,141.871 556.72,141.8 558.898,141.973C559.994,142.051 561.063,142.205 562.129,142.317L565.35,142.714L565.119,142.741C565.517,142.558 566.025,142.674 566.251,142.739L567.118,142.939L568.858,143.366C570.012,143.685 571.167,144.02 572.29,144.458C573.396,144.864 574.513,145.381 575.586,145.876C576.664,146.39 577.733,146.892 578.792,147.458C580.907,148.576 582.955,149.847 584.819,151.374C585.765,152.146 586.605,152.945 587.462,153.829C588.284,154.714 589.056,155.622 589.779,156.6C590.125,157.094 590.47,157.539 590.816,158.071L591.779,159.585C592.4,160.617 592.907,161.692 593.579,162.604C593.729,162.823 593.951,163.081 594.082,163.225C594.114,163.254 594.152,163.275 594.152,163.275C594.172,163.28 594.07,163.242 593.967,163.312C593.884,163.383 593.909,163.392 593.911,163.36L593.956,163.158C594.073,162.588 594.241,161.967 594.454,161.391C594.687,160.815 594.93,160.208 595.5,159.719C595.78,159.479 596.198,159.308 596.606,159.341C597.012,159.37 597.347,159.541 597.629,159.727C598.717,160.522 599.342,161.582 599.972,162.606C600.497,163.612 601.327,164.402 602.352,164.567C603.401,164.739 604.379,164.187 605.003,163.3C605.625,162.418 605.884,161.282 605.824,160.181L605.825,160.197Z" style="fill:rgb(40,40,40);fill-rule:nonzero;"/>
        <path d="M595.014,148.312C594.443,147.53 594.138,146.539 593.759,145.644C592.585,142.882 592.628,141.758 589.89,139.464C588.187,138.037 586.173,136.191 582.992,134.291C578.911,131.852 578.423,131.65 575.194,130.292C574.643,130.06 574.079,129.85 573.505,129.685C573.298,129.625 573.096,129.558 572.904,129.47C573.405,129.947 573.549,130.69 573.803,131.307C574.118,132.071 574.356,132.888 574.343,133.722C574.32,135.248 573.382,136.477 572.264,137.428C571.023,138.485 569.567,139.296 568.085,139.962C566.659,140.602 565.173,141.099 563.661,141.493C562.689,141.747 562.682,141.847 560.438,142.097C562.413,142.513 564.414,142.718 566.382,143.191C566.947,143.326 567.51,143.468 568.073,143.608C568.673,143.758 569.271,143.918 569.865,144.092C570.434,144.259 570.999,144.439 571.558,144.638C573.352,145.275 575.1,146.107 576.814,146.934C580.613,148.767 584.173,151.1 587.362,153.863C588.18,154.572 588.761,155.191 589.69,156.46C590.104,155.82 590.865,155.259 591.383,154.725C591.641,154.461 591.888,154.188 592.128,153.909C593.169,152.695 594.063,151.355 594.948,150.028C595.275,149.537 595.253,149.499 595.539,148.982C595.539,148.982 595.084,148.408 595.014,148.312" style="fill:rgb(157,156,156);fill-rule:nonzero;"/>
        <path d="M605.565,160.157C605.656,161.712 604.749,163.03 603.541,163.1C602.332,163.17 601.279,161.967 601.189,160.412C601.098,158.857 602.004,157.539 603.213,157.469C604.421,157.399 605.474,158.602 605.565,160.157" style="fill:rgb(130,130,130);fill-rule:nonzero;"/>
        <path d="M605.565,160.157C605.656,161.712 604.749,163.03 603.541,163.1C602.332,163.17 601.279,161.967 601.189,160.412C601.098,158.857 602.004,157.539 603.213,157.469C604.421,157.399 605.474,158.602 605.565,160.157Z" style="fill:none;stroke:rgb(40,40,40);stroke-width:0.81px;"/>
    </g>
</svg>
